# Blender 4.2.1 LTS
# www.blender.org
o Samambaia
v 0.006604 0.309678 -0.085417
v -0.040431 0.195546 -0.041248
v 0.086327 0.309516 -0.000198
v 0.037634 0.195546 0.043815
v 0.085077 0.370814 -0.139934
v 0.153306 0.370814 -0.065586
v 0.158388 0.437799 -0.193955
v 0.217814 0.437799 -0.129199
v 0.194189 0.450630 -0.226810
v 0.253616 0.450630 -0.162055
v 0.085866 0.309468 0.007771
v 0.041248 0.195546 -0.040431
v -0.000458 0.309606 0.085912
v -0.043815 0.195546 0.037634
v 0.146893 0.370857 0.080848
v 0.072344 0.370857 0.149262
v 0.205753 0.437799 0.151870
v 0.140998 0.437799 0.211296
v 0.238609 0.450630 0.187671
v 0.173854 0.450630 0.247098
v -0.084987 0.309812 -0.008746
v -0.041249 0.195546 0.040431
v -0.000768 0.309812 -0.086035
v 0.043815 0.195546 -0.037634
v -0.136435 0.370628 -0.079345
v -0.062948 0.370628 -0.146786
v -0.187437 0.437799 -0.146589
v -0.122682 0.437799 -0.206015
v -0.220292 0.450630 -0.182390
v -0.155537 0.450630 -0.241817
v -0.007807 0.309726 0.085875
v 0.040431 0.195546 0.041248
v -0.085244 0.309726 0.001493
v -0.037634 0.195546 -0.043815
v -0.075082 0.370674 0.143450
v -0.142717 0.370674 0.069750
v -0.140071 0.437799 0.199236
v -0.199498 0.437799 0.134481
v -0.175872 0.450630 0.232091
v -0.235299 0.450630 0.167336
v 0.006604 0.309678 -0.085417
v -0.040431 0.195546 -0.041248
v 0.086327 0.309516 -0.000198
v 0.037634 0.195546 0.043815
v 0.085077 0.370814 -0.139934
v 0.153306 0.370814 -0.065586
v 0.158388 0.437799 -0.193955
v 0.217814 0.437799 -0.129199
v 0.194189 0.450630 -0.226810
v 0.253616 0.450630 -0.162055
v 0.085866 0.309468 0.007771
v 0.041248 0.195546 -0.040431
v -0.000458 0.309606 0.085912
v -0.043815 0.195546 0.037634
v 0.146893 0.370857 0.080848
v 0.072344 0.370857 0.149262
v 0.205753 0.437799 0.151870
v 0.140998 0.437799 0.211296
v 0.238609 0.450630 0.187671
v 0.173854 0.450630 0.247098
v -0.084987 0.309812 -0.008746
v -0.041249 0.195546 0.040431
v -0.000768 0.309812 -0.086035
v 0.043815 0.195546 -0.037634
v -0.136435 0.370628 -0.079345
v -0.062948 0.370628 -0.146786
v -0.187437 0.437799 -0.146589
v -0.122682 0.437799 -0.206015
v -0.220292 0.450630 -0.182390
v -0.155537 0.450630 -0.241817
v -0.007807 0.309726 0.085875
v 0.040431 0.195546 0.041248
v -0.085244 0.309726 0.001493
v -0.037634 0.195546 -0.043815
v -0.075082 0.370674 0.143450
v -0.142717 0.370674 0.069750
v -0.140071 0.437799 0.199236
v -0.199498 0.437799 0.134481
v -0.175872 0.450630 0.232091
v -0.235299 0.450630 0.167336
v 0.106096 0.165313 0.115084
v 0.106096 0.000000 -0.003489
v -0.106096 0.165313 0.115084
v -0.106096 0.000000 -0.003489
v 0.106096 0.207756 0.253730
v -0.106096 0.207756 0.253730
v 0.106096 0.178716 0.432370
v -0.106096 0.178716 0.432370
v 0.106096 0.069258 0.549686
v -0.106097 0.069258 0.549686
v -0.115084 0.165313 0.106096
v 0.003489 0.000000 0.106096
v -0.115084 0.165313 -0.106096
v 0.003489 0.000000 -0.106096
v -0.253730 0.207756 0.106096
v -0.253730 0.207756 -0.106096
v -0.432370 0.178716 0.106096
v -0.432370 0.178716 -0.106096
v -0.549686 0.069258 0.106096
v -0.549686 0.069258 -0.106096
v 0.115084 0.165313 -0.106096
v -0.003489 0.000000 -0.106096
v 0.115084 0.165313 0.106096
v -0.003489 0.000000 0.106096
v 0.253730 0.207756 -0.106096
v 0.253730 0.207756 0.106096
v 0.432370 0.178716 -0.106096
v 0.432370 0.178716 0.106097
v 0.549686 0.069258 -0.106096
v 0.549686 0.069258 0.106097
v -0.106096 0.165313 -0.115084
v -0.106096 0.000000 0.003489
v 0.106096 0.165313 -0.115084
v 0.106096 0.000000 0.003489
v -0.106096 0.207756 -0.253730
v 0.106096 0.207756 -0.253730
v -0.106096 0.178716 -0.432370
v 0.106096 0.178716 -0.432370
v -0.106096 0.069258 -0.549686
v 0.106096 0.069258 -0.549686
v 0.156472 0.197315 -0.004155
v 0.067191 0.000000 -0.082183
v 0.016836 0.197315 0.155619
v -0.072445 0.000000 0.077591
v 0.260868 0.247974 0.087082
v 0.121232 0.247974 0.246856
v 0.395378 0.213312 0.204638
v 0.255742 0.213312 0.364412
v 0.483713 0.082665 0.281839
v 0.344077 0.082665 0.441613
v 0.004155 0.197315 0.156472
v 0.082183 0.000000 0.067191
v -0.155619 0.197315 0.016836
v -0.077591 0.000000 -0.072445
v -0.087082 0.247974 0.260868
v -0.246856 0.247974 0.121232
v -0.204638 0.213312 0.395378
v -0.364412 0.213312 0.255742
v -0.281839 0.082665 0.483713
v -0.441613 0.082665 0.344077
v -0.004155 0.197315 -0.156472
v -0.082183 0.000000 -0.067191
v 0.155619 0.197315 -0.016836
v 0.077591 0.000000 0.072445
v 0.087082 0.247974 -0.260868
v 0.246856 0.247974 -0.121232
v 0.204638 0.213312 -0.395378
v 0.364412 0.213312 -0.255742
v 0.281839 0.082665 -0.483713
v 0.441613 0.082665 -0.344077
v -0.156472 0.197315 0.004155
v -0.067191 0.000000 0.082183
v -0.016836 0.197315 -0.155619
v 0.072445 0.000000 -0.077591
v -0.260868 0.247974 -0.087082
v -0.121232 0.247974 -0.246856
v -0.395378 0.213312 -0.204638
v -0.255742 0.213312 -0.364412
v -0.483713 0.082665 -0.281839
v -0.344077 0.082665 -0.441613
v 0.144631 0.276075 -0.059854
v 0.033346 0.078760 -0.100780
v 0.071391 0.276075 0.139298
v -0.039894 0.078760 0.098372
v 0.274757 0.326734 -0.011999
v 0.201517 0.326734 0.187153
v 0.442418 0.292072 0.049660
v 0.369178 0.292072 0.248812
v 0.552525 0.161425 0.090153
v 0.479284 0.161425 0.289305
v 0.059854 0.276075 0.144631
v 0.100780 0.078760 0.033346
v -0.139298 0.276075 0.071391
v -0.098372 0.078760 -0.039894
v 0.011999 0.326734 0.274757
v -0.187153 0.326734 0.201517
v -0.049660 0.292072 0.442418
v -0.248812 0.292072 0.369178
v -0.090153 0.161425 0.552525
v -0.289305 0.161425 0.479284
v -0.059854 0.276075 -0.144631
v -0.100780 0.078760 -0.033346
v 0.139298 0.276075 -0.071391
v 0.098372 0.078760 0.039894
v -0.011999 0.326734 -0.274757
v 0.187153 0.326734 -0.201516
v 0.049660 0.292072 -0.442418
v 0.248812 0.292072 -0.369178
v 0.090153 0.161425 -0.552525
v 0.289305 0.161425 -0.479284
v -0.144631 0.276075 0.059854
v -0.033346 0.078760 0.100780
v -0.071391 0.276075 -0.139298
v 0.039894 0.078760 -0.098372
v -0.274757 0.326734 0.011999
v -0.201517 0.326734 -0.187153
v -0.442418 0.292072 -0.049660
v -0.369178 0.292072 -0.248812
v -0.552525 0.161425 -0.090153
v -0.479284 0.161425 -0.289305
v 0.039051 0.243247 -0.117133
v -0.042135 0.078760 -0.071791
v 0.120780 0.243014 0.029858
v 0.037328 0.078760 0.074404
v 0.167809 0.331358 -0.165971
v 0.237262 0.331358 -0.038194
v 0.289177 0.347234 -0.215918
v 0.349668 0.347234 -0.104627
v 0.350706 0.269244 -0.249362
v 0.411198 0.269244 -0.138071
v 0.117354 0.242945 0.040839
v 0.071791 0.078760 -0.042135
v -0.030630 0.243145 0.119970
v -0.074404 0.078760 0.037328
v 0.177179 0.331420 0.164325
v 0.049056 0.331420 0.233966
v 0.234691 0.347234 0.284182
v 0.123400 0.347234 0.344673
v 0.268136 0.269244 0.345711
v 0.156845 0.269244 0.406203
v -0.115784 0.243441 -0.041896
v -0.071791 0.078760 0.042135
v 0.028959 0.243441 -0.120571
v 0.074404 0.078760 -0.037328
v -0.163080 0.331090 -0.158574
v -0.036781 0.331090 -0.227223
v -0.210923 0.347234 -0.270403
v -0.099632 0.347234 -0.330895
v -0.244367 0.269244 -0.331933
v -0.133076 0.269244 -0.392425
v -0.040892 0.243317 0.117353
v 0.042135 0.078760 0.071791
v -0.119718 0.243317 -0.027668
v -0.037328 0.078760 -0.074404
v -0.155061 0.331156 0.174378
v -0.223909 0.331156 0.047713
v -0.265408 0.347234 0.229696
v -0.325900 0.347234 0.118405
v -0.326938 0.269244 0.263141
v -0.387430 0.269244 0.151850
v 0.039051 0.243247 -0.117133
v -0.042135 0.078760 -0.071791
v 0.120780 0.243014 0.029858
v 0.037328 0.078760 0.074404
v 0.167809 0.331358 -0.165971
v 0.237262 0.331358 -0.038194
v 0.289177 0.347234 -0.215918
v 0.349668 0.347234 -0.104627
v 0.350706 0.269244 -0.249362
v 0.411198 0.269244 -0.138071
v 0.117354 0.242945 0.040839
v 0.071791 0.078760 -0.042135
v -0.030630 0.243145 0.119970
v -0.074404 0.078760 0.037328
v 0.177179 0.331420 0.164325
v 0.049056 0.331420 0.233966
v 0.234691 0.347234 0.284182
v 0.123400 0.347234 0.344673
v 0.268136 0.269244 0.345711
v 0.156845 0.269244 0.406203
v -0.115784 0.243441 -0.041896
v -0.071791 0.078760 0.042135
v 0.028959 0.243441 -0.120571
v 0.074404 0.078760 -0.037328
v -0.163080 0.331090 -0.158574
v -0.036781 0.331090 -0.227223
v -0.210923 0.347234 -0.270403
v -0.099632 0.347234 -0.330895
v -0.244367 0.269244 -0.331933
v -0.133076 0.269244 -0.392425
v -0.040892 0.243317 0.117353
v 0.042135 0.078760 0.071791
v -0.119718 0.243317 -0.027668
v -0.037328 0.078760 -0.074404
v -0.155061 0.331156 0.174378
v -0.223909 0.331156 0.047713
v -0.265408 0.347234 0.229696
v -0.325900 0.347234 0.118405
v -0.326938 0.269244 0.263141
v -0.387430 0.269244 0.151850
v 0.064193 0.096914 -0.108910
v -0.027480 0.012352 -0.081213
v 0.113759 0.096914 0.055145
v 0.022086 0.012352 0.082842
v 0.171386 0.118624 -0.141296
v 0.220952 0.118624 0.022759
v 0.309500 0.103770 -0.183024
v 0.359066 0.103770 -0.018969
v 0.400202 0.047779 -0.210428
v 0.449768 0.047779 -0.046372
v 0.108910 0.096914 0.064193
v 0.081213 0.012352 -0.027480
v -0.055145 0.096914 0.113759
v -0.082842 0.012352 0.022086
v 0.141296 0.118624 0.171386
v -0.022759 0.118624 0.220952
v 0.183024 0.103770 0.309500
v 0.018969 0.103770 0.359066
v 0.210428 0.047779 0.400202
v 0.046372 0.047779 0.449768
v -0.108910 0.096914 -0.064193
v -0.081213 0.012352 0.027480
v 0.055145 0.096914 -0.113759
v 0.082842 0.012352 -0.022086
v -0.141296 0.118624 -0.171386
v 0.022759 0.118624 -0.220952
v -0.183024 0.103770 -0.309500
v -0.018969 0.103770 -0.359066
v -0.210427 0.047779 -0.400202
v -0.046372 0.047779 -0.449768
v -0.064193 0.096914 0.108910
v 0.027480 0.012352 0.081213
v -0.113759 0.096914 -0.055145
v -0.022086 0.012352 -0.082842
v -0.171386 0.118624 0.141296
v -0.220952 0.118624 -0.022759
v -0.309500 0.103770 0.183024
v -0.359066 0.103770 0.018969
v -0.400202 0.047779 0.210428
v -0.449768 0.047779 0.046372
v -0.025767 0.096914 -0.123767
v -0.074965 0.012352 -0.041604
v 0.121268 0.096914 -0.035723
v 0.072070 0.012352 0.046439
v 0.031760 0.118624 -0.219839
v 0.178795 0.118624 -0.131795
v 0.105882 0.103770 -0.343624
v 0.252917 0.103770 -0.255581
v 0.154559 0.047779 -0.424915
v 0.301594 0.047779 -0.336872
v 0.123767 0.096914 -0.025767
v 0.041604 0.012352 -0.074965
v 0.035723 0.096914 0.121268
v -0.046439 0.012352 0.072070
v 0.219839 0.118624 0.031760
v 0.131795 0.118624 0.178795
v 0.343624 0.103770 0.105882
v 0.255581 0.103770 0.252917
v 0.424915 0.047779 0.154559
v 0.336872 0.047779 0.301594
v -0.123767 0.096914 0.025767
v -0.041604 0.012352 0.074965
v -0.035723 0.096914 -0.121268
v 0.046439 0.012352 -0.072070
v -0.219839 0.118624 -0.031760
v -0.131795 0.118624 -0.178795
v -0.343624 0.103770 -0.105882
v -0.255580 0.103770 -0.252917
v -0.424915 0.047779 -0.154559
v -0.336872 0.047779 -0.301594
v 0.025767 0.096914 0.123767
v 0.074965 0.012352 0.041604
v -0.121268 0.096914 0.035723
v -0.072070 0.012352 -0.046439
v -0.031760 0.118624 0.219839
v -0.178795 0.118624 0.131795
v -0.105882 0.103770 0.343624
v -0.252917 0.103770 0.255581
v -0.154559 0.047779 0.424915
v -0.301594 0.047779 0.336872
v 0.094692 0.243247 -0.079238
v 0.001787 0.078760 -0.083223
v 0.087165 0.243014 0.088778
v -0.007250 0.078760 0.082926
v 0.229931 0.331358 -0.053274
v 0.222032 0.331358 0.091944
v 0.359459 0.427897 -0.032131
v 0.352580 0.427897 0.094351
v 0.429388 0.446389 -0.028327
v 0.422508 0.446389 0.098155
v 0.078488 0.242945 0.096330
v 0.083223 0.078760 0.001787
v -0.089011 0.243145 0.086071
v -0.082926 0.078760 -0.007250
v 0.064643 0.331420 0.232844
v -0.080968 0.331420 0.224923
v 0.050734 0.427897 0.365055
v -0.075748 0.427897 0.358176
v 0.046931 0.446389 0.434983
v -0.079551 0.446389 0.428104
v -0.076597 0.243441 -0.096406
v -0.083223 0.078760 -0.001787
v 0.087903 0.243441 -0.087459
v 0.082926 0.078760 0.007250
v -0.055657 0.331090 -0.220552
v 0.087881 0.331090 -0.212744
v -0.037726 0.427897 -0.340856
v 0.088756 0.427897 -0.333977
v -0.033923 0.446389 -0.410785
v 0.092559 0.446389 -0.403905
v -0.096375 0.243317 0.078460
v -0.001787 0.078760 0.083223
v -0.087410 0.243317 -0.086356
v 0.007250 0.078760 -0.082926
v -0.223487 0.331156 0.067118
v -0.215657 0.331156 -0.076835
v -0.346452 0.427897 0.056330
v -0.339572 0.427897 -0.070152
v -0.416380 0.446389 0.052526
v -0.409501 0.446389 -0.073956
v 0.094692 0.243247 -0.079238
v 0.001787 0.078760 -0.083223
v 0.087165 0.243014 0.088778
v -0.007250 0.078760 0.082926
v 0.229931 0.331358 -0.053274
v 0.222032 0.331358 0.091944
v 0.359459 0.427897 -0.032131
v 0.352580 0.427897 0.094351
v 0.429388 0.446389 -0.028327
v 0.422508 0.446389 0.098155
v 0.078488 0.242945 0.096330
v 0.083223 0.078760 0.001787
v -0.089011 0.243145 0.086071
v -0.082926 0.078760 -0.007250
v 0.064643 0.331420 0.232844
v -0.080968 0.331420 0.224923
v 0.050734 0.427897 0.365055
v -0.075748 0.427897 0.358176
v 0.046931 0.446389 0.434983
v -0.079551 0.446389 0.428104
v -0.076597 0.243441 -0.096406
v -0.083223 0.078760 -0.001787
v 0.087903 0.243441 -0.087459
v 0.082926 0.078760 0.007250
v -0.055657 0.331090 -0.220552
v 0.087881 0.331090 -0.212744
v -0.037726 0.427897 -0.340856
v 0.088756 0.427897 -0.333977
v -0.033923 0.446389 -0.410785
v 0.092559 0.446389 -0.403905
v -0.096375 0.243317 0.078460
v -0.001787 0.078760 0.083223
v -0.087410 0.243317 -0.086356
v 0.007250 0.078760 -0.082926
v -0.223487 0.331156 0.067118
v -0.215657 0.331156 -0.076835
v -0.346452 0.427897 0.056330
v -0.339572 0.427897 -0.070152
v -0.416380 0.446389 0.052526
v -0.409501 0.446389 -0.073956
vn -0.6369 0.4956 0.5906
vn -0.3995 0.8382 0.3713
vn -0.4382 0.8039 0.4021
vn -0.1881 0.9669 0.1726
vn -0.5843 0.4970 -0.6416
vn -0.3635 0.8414 -0.3998
vn -0.3975 0.8090 -0.4331
vn -0.1726 0.9669 -0.1881
vn 0.5859 0.4991 0.6385
vn 0.3880 0.8190 0.4228
vn 0.4222 0.7811 0.4600
vn 0.1726 0.9669 0.1881
vn 0.6386 0.4988 -0.5860
vn 0.4179 0.8236 -0.3835
vn 0.4546 0.7869 -0.4172
vn 0.1881 0.9669 -0.1726
vn -0.0000 0.5828 -0.8126
vn -0.0000 0.9562 -0.2927
vn -0.0000 0.9870 0.1605
vn -0.0000 0.7312 0.6822
vn 0.8126 0.5828 -0.0000
vn 0.2927 0.9562 -0.0000
vn -0.1605 0.9870 -0.0000
vn -0.6822 0.7312 -0.0000
vn -0.8126 0.5828 -0.0000
vn -0.2927 0.9562 -0.0000
vn 0.1605 0.9870 -0.0000
vn 0.6822 0.7312 -0.0000
vn -0.0000 0.5828 0.8126
vn -0.0000 0.9562 0.2927
vn -0.0000 0.9870 -0.1605
vn -0.0000 0.7312 -0.6822
vn -0.6454 0.5151 -0.5640
vn -0.2584 0.9393 -0.2258
vn 0.1434 0.9817 0.1253
vn 0.5602 0.6681 0.4896
vn 0.5640 0.5151 -0.6454
vn 0.2258 0.9393 -0.2584
vn -0.1253 0.9817 0.1434
vn -0.4896 0.6681 0.5602
vn -0.5640 0.5151 0.6454
vn -0.2258 0.9393 0.2584
vn 0.1253 0.9817 -0.1434
vn 0.4896 0.6681 -0.5602
vn 0.6454 0.5151 0.5640
vn 0.2584 0.9393 0.2258
vn -0.1434 0.9817 -0.1253
vn -0.5602 0.6681 -0.4896
vn -0.8045 0.5151 -0.2958
vn -0.3221 0.9393 -0.1185
vn 0.1788 0.9817 0.0657
vn 0.6983 0.6681 0.2568
vn 0.2958 0.5151 -0.8045
vn 0.1185 0.9393 -0.3221
vn -0.0657 0.9817 0.1788
vn -0.2568 0.6681 0.6983
vn -0.2958 0.5151 0.8045
vn -0.1185 0.9393 0.3221
vn 0.0657 0.9817 -0.1788
vn 0.2568 0.6681 -0.6983
vn 0.8045 0.5151 0.2958
vn 0.3221 0.9393 0.1185
vn -0.1788 0.9817 -0.0657
vn -0.6983 0.6681 -0.2568
vn -0.7609 0.4956 0.4188
vn -0.4775 0.8382 0.2635
vn -0.1061 0.9927 0.0577
vn 0.6537 0.6681 -0.3553
vn -0.4115 0.4970 -0.7640
vn -0.2558 0.8414 -0.4760
vn -0.0565 0.9930 -0.1039
vn 0.3553 0.6681 0.6537
vn 0.4138 0.4991 0.7614
vn 0.2740 0.8190 0.5041
vn 0.0631 0.9912 0.1161
vn -0.3553 0.6681 -0.6537
vn 0.7615 0.4988 -0.4139
vn 0.4984 0.8236 -0.2709
vn 0.1135 0.9916 -0.0617
vn -0.6537 0.6681 0.3553
vn -0.6336 0.7496 0.1914
vn -0.1822 0.9817 0.0550
vn 0.0980 0.9947 -0.0296
vn 0.4870 0.8609 -0.1471
vn -0.1914 0.7496 -0.6336
vn -0.0550 0.9817 -0.1822
vn 0.0296 0.9947 0.0980
vn 0.1471 0.8609 0.4870
vn 0.1914 0.7496 0.6336
vn 0.0550 0.9817 0.1822
vn -0.0296 0.9947 -0.0980
vn -0.1471 0.8609 -0.4870
vn 0.6336 0.7496 -0.1914
vn 0.1822 0.9817 -0.0550
vn -0.0980 0.9947 0.0296
vn -0.4870 0.8609 0.1471
vn -0.3400 0.7496 0.5679
vn -0.0978 0.9817 0.1633
vn 0.0526 0.9947 -0.0879
vn 0.2614 0.8609 -0.4365
vn -0.5679 0.7496 -0.3400
vn -0.1633 0.9817 -0.0978
vn 0.0879 0.9947 0.0526
vn 0.4365 0.8609 0.2614
vn 0.5679 0.7496 0.3400
vn 0.1633 0.9817 0.0978
vn -0.0879 0.9947 -0.0526
vn -0.4365 0.8609 -0.2614
vn 0.3400 0.7496 -0.5679
vn 0.0978 0.9817 -0.1633
vn -0.0526 0.9947 0.0879
vn -0.2614 0.8609 0.4365
vn -0.8675 0.4956 -0.0427
vn -0.5447 0.8382 -0.0262
vn -0.5939 0.8039 -0.0323
vn -0.2549 0.9669 -0.0139
vn 0.0504 0.4970 -0.8663
vn 0.0319 0.8414 -0.5394
vn 0.0319 0.8090 -0.5870
vn 0.0139 0.9669 -0.2549
vn -0.0471 0.4991 0.8653
vn -0.0312 0.8190 0.5730
vn -0.0339 0.7811 0.6235
vn -0.0139 0.9669 0.2549
vn 0.8654 0.4988 0.0471
vn 0.5664 0.8236 0.0308
vn 0.6162 0.7869 0.0335
vn 0.2549 0.9669 0.0139
vt 0.054688 0.651163
vt 0.054688 0.609302
vt 0.121094 0.609302
vt 0.121094 0.651163
vt 0.121094 0.679070
vt 0.054688 0.679070
vt 0.121094 0.711628
vt 0.054688 0.711628
vt 0.121094 0.739535
vt 0.054688 0.739535
vt 0.054688 0.646512
vt 0.121094 0.646512
vt 0.121094 0.674419
vt 0.054688 0.674419
vt 0.121094 0.697674
vt 0.054688 0.697674
s 0
f 1/1/1 2/2/1 4/3/1 3/4/1
f 1/1/2 3/4/2 6/5/2 5/6/2
f 5/6/3 6/5/3 8/7/3 7/8/3
f 7/8/4 8/7/4 10/9/4 9/10/4
f 11/1/5 12/2/5 14/3/5 13/4/5
f 11/1/6 13/4/6 16/5/6 15/6/6
f 15/6/7 16/5/7 18/7/7 17/8/7
f 17/8/8 18/7/8 20/9/8 19/10/8
f 21/1/9 22/2/9 24/3/9 23/4/9
f 21/1/10 23/4/10 26/5/10 25/6/10
f 25/6/11 26/5/11 28/7/11 27/8/11
f 27/8/12 28/7/12 30/9/12 29/10/12
f 31/1/13 32/2/13 34/3/13 33/4/13
f 31/1/14 33/4/14 36/5/14 35/6/14
f 35/6/15 36/5/15 38/7/15 37/8/15
f 37/8/16 38/7/16 40/9/16 39/10/16
f 41/1/1 42/2/1 44/3/1 43/4/1
f 41/1/2 43/4/2 46/5/2 45/6/2
f 45/6/3 46/5/3 48/7/3 47/8/3
f 47/8/4 48/7/4 50/9/4 49/10/4
f 51/1/5 52/2/5 54/3/5 53/4/5
f 51/1/6 53/4/6 56/5/6 55/6/6
f 55/6/7 56/5/7 58/7/7 57/8/7
f 57/8/8 58/7/8 60/9/8 59/10/8
f 61/1/9 62/2/9 64/3/9 63/4/9
f 61/1/10 63/4/10 66/5/10 65/6/10
f 65/6/11 66/5/11 68/7/11 67/8/11
f 67/8/12 68/7/12 70/9/12 69/10/12
f 71/1/13 72/2/13 74/3/13 73/4/13
f 71/1/14 73/4/14 76/5/14 75/6/14
f 75/6/15 76/5/15 78/7/15 77/8/15
f 77/8/16 78/7/16 80/9/16 79/10/16
f 81/11/17 82/2/17 84/3/17 83/12/17
f 81/11/18 83/12/18 86/13/18 85/14/18
f 85/14/19 86/13/19 88/15/19 87/16/19
f 87/16/20 88/15/20 90/9/20 89/10/20
f 91/11/21 92/2/21 94/3/21 93/12/21
f 91/11/22 93/12/22 96/13/22 95/14/22
f 95/14/23 96/13/23 98/15/23 97/16/23
f 97/16/24 98/15/24 100/9/24 99/10/24
f 101/11/25 102/2/25 104/3/25 103/12/25
f 101/11/26 103/12/26 106/13/26 105/14/26
f 105/14/27 106/13/27 108/15/27 107/16/27
f 107/16/28 108/15/28 110/9/28 109/10/28
f 111/11/29 112/2/29 114/3/29 113/12/29
f 111/11/30 113/12/30 116/13/30 115/14/30
f 115/14/31 116/13/31 118/15/31 117/16/31
f 117/16/32 118/15/32 120/9/32 119/10/32
f 121/11/33 122/2/33 124/3/33 123/12/33
f 121/11/34 123/12/34 126/13/34 125/14/34
f 125/14/35 126/13/35 128/15/35 127/16/35
f 127/16/36 128/15/36 130/9/36 129/10/36
f 131/11/37 132/2/37 134/3/37 133/12/37
f 131/11/38 133/12/38 136/13/38 135/14/38
f 135/14/39 136/13/39 138/15/39 137/16/39
f 137/16/40 138/15/40 140/9/40 139/10/40
f 141/11/41 142/2/41 144/3/41 143/12/41
f 141/11/42 143/12/42 146/13/42 145/14/42
f 145/14/43 146/13/43 148/15/43 147/16/43
f 147/16/44 148/15/44 150/9/44 149/10/44
f 151/11/45 152/2/45 154/3/45 153/12/45
f 151/11/46 153/12/46 156/13/46 155/14/46
f 155/14/47 156/13/47 158/15/47 157/16/47
f 157/16/48 158/15/48 160/9/48 159/10/48
f 161/11/49 162/2/49 164/3/49 163/12/49
f 161/11/50 163/12/50 166/13/50 165/14/50
f 165/14/51 166/13/51 168/15/51 167/16/51
f 167/16/52 168/15/52 170/9/52 169/10/52
f 171/11/53 172/2/53 174/3/53 173/12/53
f 171/11/54 173/12/54 176/13/54 175/14/54
f 175/14/55 176/13/55 178/15/55 177/16/55
f 177/16/56 178/15/56 180/9/56 179/10/56
f 181/11/57 182/2/57 184/3/57 183/12/57
f 181/11/58 183/12/58 186/13/58 185/14/58
f 185/14/59 186/13/59 188/15/59 187/16/59
f 187/16/60 188/15/60 190/9/60 189/10/60
f 191/11/61 192/2/61 194/3/61 193/12/61
f 191/11/62 193/12/62 196/13/62 195/14/62
f 195/14/63 196/13/63 198/15/63 197/16/63
f 197/16/64 198/15/64 200/9/64 199/10/64
f 201/1/65 202/2/65 204/3/65 203/4/65
f 201/1/66 203/4/66 206/5/66 205/6/66
f 205/6/67 206/5/67 208/7/67 207/8/67
f 207/8/68 208/7/68 210/9/68 209/10/68
f 211/1/69 212/2/69 214/3/69 213/4/69
f 211/1/70 213/4/70 216/5/70 215/6/70
f 215/6/71 216/5/71 218/7/71 217/8/71
f 217/8/72 218/7/72 220/9/72 219/10/72
f 221/1/73 222/2/73 224/3/73 223/4/73
f 221/1/74 223/4/74 226/5/74 225/6/74
f 225/6/75 226/5/75 228/7/75 227/8/75
f 227/8/76 228/7/76 230/9/76 229/10/76
f 231/1/77 232/2/77 234/3/77 233/4/77
f 231/1/78 233/4/78 236/5/78 235/6/78
f 235/6/79 236/5/79 238/7/79 237/8/79
f 237/8/80 238/7/80 240/9/80 239/10/80
f 241/11/65 242/2/65 244/3/65 243/12/65
f 241/11/66 243/12/66 246/13/66 245/14/66
f 245/14/67 246/13/67 248/15/67 247/16/67
f 247/16/68 248/15/68 250/9/68 249/10/68
f 251/11/69 252/2/69 254/3/69 253/12/69
f 251/11/70 253/12/70 256/13/70 255/14/70
f 255/14/71 256/13/71 258/15/71 257/16/71
f 257/16/72 258/15/72 260/9/72 259/10/72
f 261/11/73 262/2/73 264/3/73 263/12/73
f 261/11/74 263/12/74 266/13/74 265/14/74
f 265/14/75 266/13/75 268/15/75 267/16/75
f 267/16/76 268/15/76 270/9/76 269/10/76
f 271/11/77 272/2/77 274/3/77 273/12/77
f 271/11/78 273/12/78 276/13/78 275/14/78
f 275/14/79 276/13/79 278/15/79 277/16/79
f 277/16/80 278/15/80 280/9/80 279/10/80
f 281/11/81 282/2/81 284/3/81 283/12/81
f 281/11/82 283/12/82 286/13/82 285/14/82
f 285/14/83 286/13/83 288/15/83 287/16/83
f 287/16/84 288/15/84 290/9/84 289/10/84
f 291/11/85 292/2/85 294/3/85 293/12/85
f 291/11/86 293/12/86 296/13/86 295/14/86
f 295/14/87 296/13/87 298/15/87 297/16/87
f 297/16/88 298/15/88 300/9/88 299/10/88
f 301/11/89 302/2/89 304/3/89 303/12/89
f 301/11/90 303/12/90 306/13/90 305/14/90
f 305/14/91 306/13/91 308/15/91 307/16/91
f 307/16/92 308/15/92 310/9/92 309/10/92
f 311/11/93 312/2/93 314/3/93 313/12/93
f 311/11/94 313/12/94 316/13/94 315/14/94
f 315/14/95 316/13/95 318/15/95 317/16/95
f 317/16/96 318/15/96 320/9/96 319/10/96
f 321/11/97 322/2/97 324/3/97 323/12/97
f 321/11/98 323/12/98 326/13/98 325/14/98
f 325/14/99 326/13/99 328/15/99 327/16/99
f 327/16/100 328/15/100 330/9/100 329/10/100
f 331/11/101 332/2/101 334/3/101 333/12/101
f 331/11/102 333/12/102 336/13/102 335/14/102
f 335/14/103 336/13/103 338/15/103 337/16/103
f 337/16/104 338/15/104 340/9/104 339/10/104
f 341/11/105 342/2/105 344/3/105 343/12/105
f 341/11/106 343/12/106 346/13/106 345/14/106
f 345/14/107 346/13/107 348/15/107 347/16/107
f 347/16/108 348/15/108 350/9/108 349/10/108
f 351/11/109 352/2/109 354/3/109 353/12/109
f 351/11/110 353/12/110 356/13/110 355/14/110
f 355/14/111 356/13/111 358/15/111 357/16/111
f 357/16/112 358/15/112 360/9/112 359/10/112
f 361/1/113 362/2/113 364/3/113 363/4/113
f 361/1/114 363/4/114 366/5/114 365/6/114
f 365/6/115 366/5/115 368/7/115 367/8/115
f 367/8/116 368/7/116 370/9/116 369/10/116
f 371/1/117 372/2/117 374/3/117 373/4/117
f 371/1/118 373/4/118 376/5/118 375/6/118
f 375/6/119 376/5/119 378/7/119 377/8/119
f 377/8/120 378/7/120 380/9/120 379/10/120
f 381/1/121 382/2/121 384/3/121 383/4/121
f 381/1/122 383/4/122 386/5/122 385/6/122
f 385/6/123 386/5/123 388/7/123 387/8/123
f 387/8/124 388/7/124 390/9/124 389/10/124
f 391/1/125 392/2/125 394/3/125 393/4/125
f 391/1/126 393/4/126 396/5/126 395/6/126
f 395/6/127 396/5/127 398/7/127 397/8/127
f 397/8/128 398/7/128 400/9/128 399/10/128
f 401/1/113 402/2/113 404/3/113 403/4/113
f 401/1/114 403/4/114 406/5/114 405/6/114
f 405/6/115 406/5/115 408/7/115 407/8/115
f 407/8/116 408/7/116 410/9/116 409/10/116
f 411/1/117 412/2/117 414/3/117 413/4/117
f 411/1/118 413/4/118 416/5/118 415/6/118
f 415/6/119 416/5/119 418/7/119 417/8/119
f 417/8/120 418/7/120 420/9/120 419/10/120
f 421/1/121 422/2/121 424/3/121 423/4/121
f 421/1/122 423/4/122 426/5/122 425/6/122
f 425/6/123 426/5/123 428/7/123 427/8/123
f 427/8/124 428/7/124 430/9/124 429/10/124
f 431/1/125 432/2/125 434/3/125 433/4/125
f 431/1/126 433/4/126 436/5/126 435/6/126
f 435/6/127 436/5/127 438/7/127 437/8/127
f 437/8/128 438/7/128 440/9/128 439/10/128
