# Blender 4.2.1 LTS
# www.blender.org
o Planta01
v 0.416072 -0.009003 -0.173611
v 0.249660 0.044551 -0.356063
v 0.012668 0.003519 0.087806
v -0.080644 -0.011685 0.015792
v 0.303935 0.077819 -0.069270
v 0.098892 0.099602 -0.266898
v 0.254172 0.057928 -0.004948
v 0.090931 0.052677 0.070297
v 0.186514 0.061865 0.038737
v -0.072182 0.071525 -0.125813
v 0.034647 0.099647 -0.213106
v -0.011023 0.099128 -0.169549
v -0.552281 -0.071024 -0.047280
v -0.543026 -0.004817 0.210497
v -0.004281 0.014725 -0.029324
v -0.007257 0.033800 0.118989
v -0.329395 0.071802 -0.097559
v -0.295805 0.141787 0.195690
v -0.226731 0.083869 -0.109145
v -0.055478 0.069415 -0.087218
v -0.136980 0.077829 -0.103411
v -0.056013 0.114187 0.138468
v -0.189021 0.165199 0.164450
v -0.099360 0.165441 0.139974
v 0.317197 0.106315 0.502094
v 0.530166 0.085643 0.311857
v -0.066855 -0.010017 0.023571
v 0.001269 0.004487 -0.110935
v 0.183493 0.131445 0.391246
v 0.395591 0.107207 0.199977
v 0.106060 0.116122 0.312917
v -0.024789 0.071706 0.107750
v 0.043730 0.098473 0.209120
v 0.162859 0.045424 0.015720
v 0.315622 0.089948 0.126524
v 0.229393 0.068228 0.066201
v -0.218918 0.334590 0.719524
v 0.167985 0.271626 0.715506
v -0.099979 0.010224 -0.000092
v 0.101966 0.017103 -0.000828
v -0.210506 0.442585 0.468407
v 0.177895 0.382623 0.464030
v -0.205925 0.411273 0.344500
v -0.157457 0.219722 0.123185
v -0.186715 0.351534 0.231933
v 0.153506 0.227388 0.114624
v 0.185408 0.361430 0.338997
v 0.183098 0.328819 0.224728
v 0.776031 0.352218 -0.051892
v 0.656071 0.380215 -0.422450
v 0.032237 0.014943 0.095140
v -0.029300 0.015309 -0.095640
v 0.546818 0.473870 0.029577
v 0.427259 0.532728 -0.338848
v 0.412864 0.428814 0.068827
v 0.163723 0.228827 0.100481
v 0.279571 0.346849 0.093290
v 0.071316 0.251699 -0.192854
v 0.293270 0.489822 -0.299436
v 0.168037 0.399603 -0.253049
v -0.545997 0.260125 -0.558013
v -0.744271 0.341245 -0.228543
v 0.054879 0.017950 -0.085892
v -0.052522 0.011133 0.084919
v -0.324899 0.373774 -0.443316
v -0.523172 0.454894 -0.113846
v -0.205414 0.347490 -0.365800
v -0.020600 0.234968 -0.199867
v -0.097943 0.322599 -0.282633
v -0.187638 0.217168 0.066839
v -0.406955 0.408908 -0.034741
v -0.292770 0.335744 0.031391
v 0.419791 0.156786 0.331979
v 0.538105 0.297791 0.079091
v -0.045775 0.069101 0.063240
v 0.013550 0.056817 -0.067094
v 0.266073 0.472912 0.290403
v 0.380372 0.497099 0.012928
v 0.185242 0.404106 0.278392
v 0.049152 0.364118 0.157492
v 0.120553 0.412688 0.228983
v 0.130918 0.339439 -0.054166
v 0.299932 0.491357 -0.018427
v 0.221880 0.457314 -0.044166
v 0.196845 0.116412 -0.553694
v -0.063847 0.137710 -0.593299
v 0.057909 0.086300 0.008474
v -0.089541 0.039178 -0.015422
v 0.193236 0.511282 -0.365399
v -0.108069 0.504727 -0.382983
v 0.182217 0.503575 -0.257130
v 0.124234 0.342925 -0.065544
v 0.157487 0.428930 -0.156875
v -0.101622 0.321981 -0.104138
v -0.100901 0.547874 -0.273286
v -0.095852 0.517435 -0.173190
v -0.532046 0.609595 0.204594
v -0.354319 0.576184 0.436768
v -0.057874 0.029610 -0.065721
v 0.024765 0.064439 0.056622
v -0.362639 0.669582 0.110782
v -0.184324 0.623636 0.344097
v -0.282660 0.596011 0.044884
v -0.141564 0.275109 -0.060142
v -0.208063 0.467459 -0.023438
v -0.002159 0.345229 0.153214
v -0.109375 0.543062 0.276536
v -0.047894 0.446348 0.204652
vn -0.4332 0.7948 0.4251
vn 0.3646 0.9145 -0.1751
vn -0.1136 0.9653 0.2352
vn 0.0986 0.9911 0.0892
vn -0.0057 0.9870 0.1604
vn 0.8127 0.5756 -0.0906
vn -0.5335 0.8298 -0.1636
vn 0.4407 0.8542 -0.2759
vn -0.0017 0.9506 -0.3104
vn -0.2077 0.9513 -0.2278
vn -0.2330 0.9214 -0.3110
vn 0.1397 0.9894 0.0392
vn -0.0332 0.9584 -0.2834
vn -0.0318 0.9781 -0.2058
vn -0.0371 0.9843 -0.1728
vn -0.0298 0.4938 -0.8691
vn 0.1478 0.9047 0.3996
vn -0.0018 0.6843 -0.7292
vn 0.0820 0.9252 -0.3706
vn 0.1342 0.9709 -0.1983
vn -0.8267 0.4845 0.2861
vn 0.4969 0.8658 -0.0593
vn -0.7063 0.6408 0.3009
vn -0.4756 0.8318 0.2862
vn -0.2414 0.9424 0.2317
vn 0.7173 0.5064 0.4785
vn -0.2617 0.8888 -0.3763
vn 0.5814 0.7256 0.3681
vn 0.3435 0.9335 0.1031
vn 0.3055 0.9520 -0.0205
vn -0.8397 0.3805 -0.3875
vn 0.7065 0.5259 0.4736
vn -0.6451 0.7337 -0.2134
vn -0.2407 0.9617 0.1313
vn -0.4213 0.9069 0.0080
vn -0.2107 0.3017 0.9298
vn 0.1017 0.4662 -0.8788
vn -0.0291 0.4979 0.8667
vn 0.1851 0.8627 0.4707
vn 0.0728 0.9846 -0.1588
vn 0.7605 0.2741 -0.5887
vn -0.1490 0.9496 0.2759
vn 0.7209 0.4372 -0.5377
vn 0.6672 0.6401 -0.3808
vn 0.5613 0.7867 -0.2571
vt 0.003906 0.986046
vt 0.031250 0.986046
vt 0.027344 1.000000
vt 0.007812 1.000000
vt -0.000000 0.925581
vt 0.035156 0.925581
vt 0.035156 0.944186
vt -0.000000 0.944186
vt -0.000000 0.972093
vt 0.035156 0.972093
vt -0.000000 0.958140
vt 0.035156 0.958140
vt 0.039062 0.911628
vt 0.066406 0.911628
vt 0.062500 0.925581
vt 0.042969 0.925581
vt 0.035156 0.851163
vt 0.070312 0.851163
vt 0.070312 0.869767
vt 0.035156 0.869767
vt 0.035156 0.897674
vt 0.070312 0.897674
vt 0.035156 0.883721
vt 0.070312 0.883721
vt 0.039062 0.986046
vt 0.066406 0.986046
vt 0.062500 1.000000
vt 0.042969 1.000000
vt 0.070312 0.925581
vt 0.070312 0.944186
vt 0.070312 0.972093
vt 0.070312 0.958140
s 0
f 8/1/1 10/2/1 4/3/1 3/4/1
f 1/5/2 2/6/2 6/7/2 5/8/2
f 10/2/3 8/1/3 9/9/3 12/10/3
f 12/10/4 9/9/4 7/11/4 11/12/4
f 11/12/5 7/11/5 5/8/5 6/7/5
f 20/1/6 22/2/6 16/3/6 15/4/6
f 13/5/7 14/6/7 18/7/7 17/8/7
f 22/2/8 20/1/8 21/9/8 24/10/8
f 24/10/9 21/9/9 19/11/9 23/12/9
f 23/12/10 19/11/10 17/8/10 18/7/10
f 32/1/11 34/2/11 28/3/11 27/4/11
f 25/5/12 26/6/12 30/7/12 29/8/12
f 34/2/13 32/1/13 33/9/13 36/10/13
f 36/10/14 33/9/14 31/11/14 35/12/14
f 35/12/15 31/11/15 29/8/15 30/7/15
f 44/1/16 46/2/16 40/3/16 39/4/16
f 37/5/17 38/6/17 42/7/17 41/8/17
f 46/2/18 44/1/18 45/9/18 48/10/18
f 48/10/19 45/9/19 43/11/19 47/12/19
f 47/12/20 43/11/20 41/8/20 42/7/20
f 56/13/21 58/14/21 52/15/21 51/16/21
f 49/17/22 50/18/22 54/19/22 53/20/22
f 58/14/23 56/13/23 57/21/23 60/22/23
f 60/22/24 57/21/24 55/23/24 59/24/24
f 59/24/25 55/23/25 53/20/25 54/19/25
f 68/25/26 70/26/26 64/27/26 63/28/26
f 61/6/27 62/29/27 66/30/27 65/7/27
f 70/26/28 68/25/28 69/10/28 72/31/28
f 72/31/29 69/10/29 67/12/29 71/32/29
f 71/32/30 67/12/30 65/7/30 66/30/30
f 80/1/31 82/2/31 76/3/31 75/4/31
f 73/5/32 74/6/32 78/7/32 77/8/32
f 82/2/33 80/1/33 81/9/33 84/10/33
f 84/10/34 81/9/34 79/11/34 83/12/34
f 83/12/35 79/11/35 77/8/35 78/7/35
f 92/1/36 94/2/36 88/3/36 87/4/36
f 85/5/37 86/6/37 90/7/37 89/8/37
f 94/2/38 92/1/38 93/9/38 96/10/38
f 96/10/39 93/9/39 91/11/39 95/12/39
f 95/12/40 91/11/40 89/8/40 90/7/40
f 104/25/41 106/26/41 100/27/41 99/28/41
f 97/6/42 98/29/42 102/30/42 101/7/42
f 106/26/43 104/25/43 105/10/43 108/31/43
f 108/31/44 105/10/44 103/12/44 107/32/44
f 107/32/45 103/12/45 101/7/45 102/30/45
