# Blender 4.2.1 LTS
# www.blender.org
o Planta02
v 0.416103 -0.013869 -0.173588
v 0.249774 0.028789 -0.355976
v 0.012722 -0.004084 0.087847
v -0.080608 -0.016531 0.015819
v 0.304091 0.055950 -0.069151
v 0.099087 0.072971 -0.266750
v 0.254300 0.039942 -0.004851
v 0.091053 0.035566 0.070391
v 0.186648 0.043061 0.038839
v -0.072025 0.050287 -0.125693
v 0.034844 0.072973 -0.212957
v -0.010828 0.072539 -0.169400
v -0.552316 -0.065022 -0.047307
v -0.542972 -0.011451 0.210538
v -0.004209 0.004781 -0.029269
v -0.007160 0.020288 0.119063
v -0.329232 0.050173 -0.097435
v -0.295548 0.106856 0.195886
v -0.226553 0.060017 -0.109009
v -0.055325 0.048654 -0.087101
v -0.136812 0.055291 -0.103283
v -0.055800 0.084926 0.138630
v -0.188732 0.125814 0.164670
v -0.099073 0.126111 0.140192
v 0.317382 0.079520 0.502235
v 0.530320 0.062982 0.311974
v -0.066817 -0.015160 0.023600
v 0.001328 -0.003538 -0.110890
v 0.183720 0.099431 0.391418
v 0.395781 0.080021 0.200122
v 0.106268 0.086905 0.313076
v -0.024638 0.050754 0.107865
v 0.043916 0.072501 0.209262
v 0.162971 0.029772 0.015805
v 0.315791 0.065939 0.126652
v 0.229534 0.048273 0.066309
v -0.218398 0.262683 0.719920
v 0.168406 0.212564 0.715827
v -0.099911 0.001055 -0.000040
v 0.102038 0.006877 -0.000772
v -0.209827 0.349326 0.468924
v 0.178478 0.301624 0.464475
v -0.205289 0.324001 0.344985
v -0.157091 0.169689 0.123464
v -0.186163 0.275834 0.232355
v 0.153876 0.176293 0.114906
v 0.185964 0.284445 0.339421
v 0.183609 0.258076 0.225117
v 0.776566 0.277450 -0.051484
v 0.656656 0.299405 -0.422005
v 0.032307 0.005144 0.095193
v -0.029225 0.005144 -0.095583
v 0.547530 0.375104 0.030120
v 0.428066 0.421896 -0.338234
v 0.413515 0.338699 0.069323
v 0.164094 0.177449 0.100764
v 0.280108 0.272578 0.093700
v 0.071728 0.195403 -0.192540
v 0.294018 0.387221 -0.298866
v 0.168658 0.314494 -0.252575
v -0.545551 0.200906 -0.557673
v -0.743710 0.266258 -0.228116
v 0.054955 0.007399 -0.085834
v -0.052456 0.001946 0.084969
v -0.324298 0.292799 -0.442859
v -0.522457 0.358152 -0.113302
v -0.204855 0.271903 -0.365375
v -0.020209 0.181802 -0.199570
v -0.097424 0.252118 -0.282237
v -0.187273 0.167530 0.067117
v -0.406309 0.321399 -0.034250
v -0.292233 0.262759 0.031800
v 0.420049 0.120095 0.332175
v 0.538565 0.233455 0.079442
v -0.045626 0.048579 0.063354
v 0.013683 0.038638 -0.066993
v 0.266786 0.374216 0.290946
v 0.381122 0.393541 0.013500
v 0.185860 0.318720 0.278863
v 0.049718 0.286216 0.157924
v 0.121185 0.325480 0.229465
v 0.131451 0.266244 -0.053760
v 0.300676 0.388771 -0.017859
v 0.222579 0.361237 -0.043633
v 0.197068 0.086326 -0.553525
v -0.063586 0.103049 -0.593101
v 0.058082 0.062507 0.008606
v -0.089432 0.024353 -0.015339
v 0.194018 0.404276 -0.364803
v -0.107288 0.398552 -0.382388
v 0.182986 0.398175 -0.256544
v 0.124773 0.269027 -0.065134
v 0.158149 0.338183 -0.156371
v -0.101108 0.251809 -0.103746
v -0.100061 0.433402 -0.272646
v -0.095057 0.409023 -0.172585
v -0.531116 0.482972 0.205303
v -0.353445 0.456593 0.437434
v -0.057778 0.016643 -0.065648
v 0.024906 0.044921 0.056730
v -0.361625 0.531383 0.111554
v -0.183386 0.494919 0.344812
v -0.281753 0.472224 0.045575
v -0.141115 0.214082 -0.059800
v -0.207339 0.368811 -0.022887
v -0.001618 0.270938 0.153626
v -0.108552 0.430115 0.277163
v -0.047208 0.352299 0.205174
vn -0.3748 0.8519 0.3657
vn 0.3011 0.9423 -0.1463
vn -0.0939 0.9772 0.1906
vn 0.0782 0.9944 0.0710
vn -0.0060 0.9917 0.1286
vn 0.7482 0.6581 -0.0842
vn -0.4556 0.8791 -0.1403
vn 0.3718 0.8982 -0.2345
vn -0.0028 0.9669 -0.2550
vn -0.1712 0.9673 -0.1873
vn -0.1938 0.9465 -0.2579
vn 0.1115 0.9933 0.0306
vn -0.0285 0.9722 -0.2323
vn -0.0272 0.9854 -0.1679
vn -0.0314 0.9895 -0.1408
vn -0.0288 0.5770 -0.8162
vn 0.1217 0.9355 0.3317
vn -0.0027 0.7590 -0.6510
vn 0.0663 0.9494 -0.3069
vn 0.1077 0.9809 -0.1622
vn -0.7784 0.5674 0.2685
vn 0.4179 0.9071 -0.0510
vn -0.6389 0.7200 0.2710
vn -0.4063 0.8809 0.2428
vn -0.1995 0.9615 0.1891
vn 0.6724 0.5889 0.4484
vn -0.2198 0.9232 -0.3153
vn 0.5125 0.7951 0.3243
vn 0.2818 0.9558 0.0840
vn 0.2488 0.9684 -0.0178
vn -0.8078 0.4564 -0.3730
vn 0.6591 0.6087 0.4418
vn -0.5674 0.8016 -0.1882
vn -0.1976 0.9745 0.1060
vn -0.3512 0.9363 0.0056
vn -0.2063 0.3653 0.9077
vn 0.0952 0.5483 -0.8309
vn -0.0282 0.5804 0.8138
vn 0.1551 0.9048 0.3966
vn 0.0574 0.9899 -0.1295
vn 0.7451 0.3335 -0.5776
vn -0.1234 0.9665 0.2249
vn 0.6857 0.5168 -0.5126
vn 0.6028 0.7192 -0.3454
vn 0.4846 0.8457 -0.2235
vt 0.003906 0.911628
vt 0.031250 0.911628
vt 0.027344 0.925581
vt 0.007812 0.925581
vt -0.000000 0.851163
vt 0.035156 0.851163
vt 0.035156 0.869767
vt -0.000000 0.869767
vt -0.000000 0.897674
vt 0.035156 0.897674
vt -0.000000 0.883721
vt 0.035156 0.883721
vt 0.003906 0.986046
vt 0.031250 0.986046
vt 0.027344 1.000000
vt 0.007812 1.000000
vt -0.000000 0.925581
vt 0.035156 0.925581
vt 0.035156 0.944186
vt -0.000000 0.944186
vt -0.000000 0.972093
vt 0.035156 0.972093
vt -0.000000 0.958140
vt 0.035156 0.958140
s 0
f 8/1/1 10/2/1 4/3/1 3/4/1
f 1/5/2 2/6/2 6/7/2 5/8/2
f 10/2/3 8/1/3 9/9/3 12/10/3
f 12/10/4 9/9/4 7/11/4 11/12/4
f 11/12/5 7/11/5 5/8/5 6/7/5
f 20/1/6 22/2/6 16/3/6 15/4/6
f 13/5/7 14/6/7 18/7/7 17/8/7
f 22/2/8 20/1/8 21/9/8 24/10/8
f 24/10/9 21/9/9 19/11/9 23/12/9
f 23/12/10 19/11/10 17/8/10 18/7/10
f 32/13/11 34/14/11 28/15/11 27/16/11
f 25/17/12 26/18/12 30/19/12 29/20/12
f 34/14/13 32/13/13 33/21/13 36/22/13
f 36/22/14 33/21/14 31/23/14 35/24/14
f 35/24/15 31/23/15 29/20/15 30/19/15
f 44/13/16 46/14/16 40/15/16 39/16/16
f 37/17/17 38/18/17 42/19/17 41/20/17
f 46/14/18 44/13/18 45/21/18 48/22/18
f 48/22/19 45/21/19 43/23/19 47/24/19
f 47/24/20 43/23/20 41/20/20 42/19/20
f 56/13/21 58/14/21 52/15/21 51/16/21
f 49/17/22 50/18/22 54/19/22 53/20/22
f 58/14/23 56/13/23 57/21/23 60/22/23
f 60/22/24 57/21/24 55/23/24 59/24/24
f 59/24/25 55/23/25 53/20/25 54/19/25
f 68/13/26 70/14/26 64/15/26 63/16/26
f 61/17/27 62/18/27 66/19/27 65/20/27
f 70/14/28 68/13/28 69/21/28 72/22/28
f 72/22/29 69/21/29 67/23/29 71/24/29
f 71/24/30 67/23/30 65/20/30 66/19/30
f 80/13/31 82/14/31 76/15/31 75/16/31
f 73/17/32 74/18/32 78/19/32 77/20/32
f 82/14/33 80/13/33 81/21/33 84/22/33
f 84/22/34 81/21/34 79/23/34 83/24/34
f 83/24/35 79/23/35 77/20/35 78/19/35
f 92/13/36 94/14/36 88/15/36 87/16/36
f 85/17/37 86/18/37 90/19/37 89/20/37
f 94/14/38 92/13/38 93/21/38 96/22/38
f 96/22/39 93/21/39 91/23/39 95/24/39
f 95/24/40 91/23/40 89/20/40 90/19/40
f 104/13/41 106/14/41 100/15/41 99/16/41
f 97/17/42 98/18/42 102/19/42 101/20/42
f 106/14/43 104/13/43 105/21/43 108/22/43
f 108/22/44 105/21/44 103/23/44 107/24/44
f 107/24/45 103/23/45 101/20/45 102/19/45
