# Blender 4.2.1 LTS
# www.blender.org
o Pequeno_Arbusto
v -0.200950 -0.031363 -0.000000
v 0.200950 -0.031363 -0.000000
v -0.197057 0.387661 -0.110691
v 0.204844 0.387661 -0.110691
v -0.000000 -0.031363 0.200950
v 0.000000 -0.031363 -0.200950
v 0.105637 0.370538 0.161665
v 0.104556 0.367504 -0.282730
v -0.200950 -0.031363 -0.000000
v 0.200950 -0.031363 -0.000000
v -0.274499 0.468255 -0.001736
v 0.241690 0.468255 -0.001736
v -0.129168 -0.031363 -0.153937
v 0.129168 -0.031363 0.153937
v -0.210274 0.352065 -0.067321
v 0.048063 0.352065 0.240553
v -0.153937 -0.031363 0.129168
v 0.153937 -0.031363 -0.129168
v -0.200899 0.310587 0.090395
v 0.106975 0.310587 -0.167942
vn -0.0000 0.2554 0.9668
vn 0.9672 -0.2539 -0.0003
vn -0.0000 0.0035 1.0000
vn -0.7323 -0.2937 0.6144
vn 0.6332 0.1725 0.7546
vt 0.058594 0.744186
vt 0.132812 0.744186
vt 0.132812 0.841860
vt 0.058594 0.841860
s 0
f 1/1/1 2/2/1 4/3/1 3/4/1
f 5/1/2 6/2/2 8/3/2 7/4/2
f 9/1/3 10/2/3 12/3/3 11/4/3
f 13/1/4 14/2/4 16/3/4 15/4/4
f 17/1/5 18/2/5 20/3/5 19/4/5
