# Blender 4.2.1 LTS
# www.blender.org
o ArvorePequena
v 0.842836 3.820104 2.322800
v 2.772826 3.588119 -0.250695
v -0.729033 3.921255 1.055071
v 1.170412 4.005671 -0.323242
v 1.148840 4.107918 -1.417884
v 0.993766 3.641982 0.087370
v 2.162972 3.873301 -0.417082
v 0.141185 4.189184 1.905764
v 0.128184 3.862695 1.961023
v -0.216326 3.931987 0.733405
v -0.878002 4.050560 1.272447
v 0.312990 3.672707 0.588913
v 0.480121 3.888254 -0.375417
v 1.891950 4.030743 1.531501
v 0.873463 4.502768 1.369511
v 2.168493 3.962619 2.346555
v 1.506184 4.107239 0.306228
v 1.224671 3.979574 0.381211
v 0.336969 4.231266 0.211827
v 1.121493 3.960932 1.105406
v 0.594628 3.905847 0.576800
v 0.337228 3.917557 0.387659
v 1.092607 4.050235 1.003802
v 1.352181 4.178703 0.972048
v 0.274181 3.907789 1.651729
v 2.276852 4.092013 -1.168618
v 0.667356 3.837172 -2.885898
v 1.336379 3.780784 -0.300909
v -0.796511 4.021358 -1.019692
v -0.493066 3.995389 -1.619173
v 0.320865 4.132963 -1.458519
v 0.644158 4.018244 -2.437579
v 2.360662 3.903255 -0.655049
v 1.851898 4.175880 -0.830625
v 1.513120 4.368534 1.064999
v 0.528145 3.928192 -0.115254
v 0.360478 3.983820 -0.498508
v 0.170098 4.036488 -0.368922
v 1.582661 3.870128 -2.602560
v 1.928900 3.935537 -2.006251
v 2.142922 4.207510 -1.545570
v 1.069484 3.854856 -1.421456
v 0.827518 3.995184 -1.188263
v 0.166482 3.901621 -0.935504
v 1.103753 4.217091 -1.637152
v 1.489838 3.840729 -1.905814
v 0.738635 3.976710 -0.402494
v 1.989991 3.781806 -0.989752
v 1.232255 4.226538 -0.570699
v 0.938534 3.967607 -0.157160
v -3.039675 3.851323 0.583626
v -1.459624 3.453327 3.552799
v -1.566634 4.041369 -0.882805
v 0.510485 4.085199 0.047961
v 0.144193 4.000760 1.447040
v -0.818669 3.982599 2.012556
v -0.475440 4.109195 2.722401
v -2.597608 4.123858 0.829549
v -2.105833 3.895831 -0.058787
v -1.700722 4.224652 0.374780
v -0.999686 4.212924 -0.397879
v 0.067222 4.046116 0.018509
v 1.044981 4.229461 -0.182771
v -1.539289 4.094623 2.052518
v -2.006488 3.894899 1.628485
v -2.783518 4.114791 1.640489
v -1.132154 4.281219 0.818038
v -0.974452 3.856290 0.829913
v -0.029621 4.036246 1.089670
v -1.765372 3.827335 1.570865
v -1.311301 3.818213 0.275533
v -0.385969 4.081773 0.992860
v -2.258132 3.797024 0.353113
v -1.422759 3.672289 0.889717
v -1.155620 4.014421 0.396656
v -0.676408 3.650437 -3.861187
v -2.345844 3.747794 -0.643177
v 0.608827 4.003408 -1.284134
v -0.800652 3.874965 0.630114
v -1.082710 4.250340 0.530231
v -1.396385 3.541674 0.356130
v -2.411673 3.958270 -0.680504
v -0.667920 3.946889 -2.521072
v -0.252448 3.821145 -1.825658
v 0.450557 4.025494 -1.596523
v 0.182358 3.993807 -0.541727
v 0.076974 3.760719 0.098822
v 0.031919 3.976613 0.975815
v -2.155757 3.747274 -1.783058
v -1.937739 4.066544 -2.051153
v -1.054829 3.840724 -2.157336
v -1.827362 3.816126 -1.610467
v -1.560251 4.037053 -0.802199
v -1.031825 3.850847 -0.362839
v -1.693366 3.881442 -1.700059
v -1.245700 3.906759 -2.034436
v -0.841173 4.267350 -0.542033
v -0.980508 3.973272 -1.880033
v -0.862832 3.885688 -1.749670
v 0.211387 4.014806 -1.342576
v -1.313347 3.153340 2.459788
v 1.183664 2.319378 2.459788
v -1.313347 2.785420 -0.037222
v 1.183664 2.379452 -0.037222
v 1.183664 3.413949 0.587031
v 1.183664 2.465364 1.211283
v 1.183664 3.393353 1.835536
v -1.313347 3.112622 1.835536
v -1.313347 3.041447 1.211283
v -1.313347 3.313118 0.587031
v -0.689094 3.421512 -0.037222
v -0.064841 2.494573 -0.037222
v 0.559411 2.987945 -0.037222
v 0.559411 2.538908 2.459788
v -0.064841 3.407576 2.459788
v -0.689094 3.389774 2.459788
v 0.559411 2.453300 1.835536
v 0.559411 2.876546 1.211283
v 0.559411 2.346224 0.587031
v -0.064841 2.720263 1.835536
v -0.064841 3.135655 1.211283
v -0.064841 2.919672 0.587031
v -0.689094 3.309698 1.835536
v -0.689094 3.417840 1.211283
v -0.689094 2.365654 0.587031
v 2.710042 3.091243 1.202549
v 2.710042 3.034384 -1.294462
v 0.213031 2.290188 1.202549
v 0.213031 2.855995 -1.294462
v 0.837284 2.784235 -1.294462
v 1.461537 2.385814 -1.294462
v 2.085789 2.969559 -1.294462
v 2.085788 2.965733 1.202549
v 1.461536 2.408401 1.202549
v 0.837284 3.362808 1.202549
v 0.213031 3.075448 0.578296
v 0.024836 3.068493 0.183434
v 0.024836 2.967105 -0.440819
v 2.710042 2.706605 -0.670209
v 2.710042 2.965072 -0.045957
v 2.710042 2.578681 0.578296
v 2.085789 3.329375 -0.670210
v 1.461536 2.531613 -0.670210
v 0.837284 2.782335 -0.670210
v 2.085789 2.524604 -0.045957
v 1.461536 2.287773 -0.045957
v 0.837284 3.058260 -0.045957
v 2.085789 3.152313 0.578296
v 1.461536 2.519445 0.578296
v 0.837284 2.815013 0.578296
v -2.684406 3.213306 -1.507090
v -2.716869 2.328118 0.989709
v -0.187606 3.044166 -1.474626
v -0.220070 3.333927 1.022173
v -0.844270 2.934412 1.014057
v -1.468470 3.289633 1.005941
v -2.092669 3.144281 0.997825
v -2.060206 2.587332 -1.498974
v -1.436006 2.975264 -1.490858
v -0.811806 3.277782 -1.482742
v -0.195722 2.531828 -0.850426
v 0.032344 2.920868 -0.016160
v 0.024228 3.392996 0.608040
v -2.708753 2.668232 0.365509
v -2.700638 2.755736 -0.258691
v -2.692522 2.523312 -0.882890
v -2.084553 3.419440 0.373625
v -1.460354 2.519327 0.381741
v -0.836154 2.654144 0.389857
v -2.076438 3.121002 -0.250575
v -1.452238 2.477924 -0.242459
v -0.828038 2.400693 -0.234343
v -2.068321 2.487541 -0.874775
v -1.444121 3.350757 -0.866658
v -0.819922 3.056699 -0.858542
v 1.522809 2.310554 -2.736857
v -0.968891 2.461265 -2.899620
v 1.360047 2.784063 -0.245157
v -1.131654 2.744642 -0.407920
v -1.090963 3.157115 -1.030845
v -1.050272 2.395779 -1.653769
v -1.009582 2.886801 -2.276695
v 1.482118 2.879335 -2.113932
v 1.441427 3.114342 -1.491007
v 1.400737 2.753243 -0.868083
v 0.737122 2.978872 -0.285848
v 0.171352 3.462911 0.056813
v -0.451574 3.379218 0.016123
v -0.345966 3.183152 -2.858929
v 0.276959 2.798337 -2.818239
v 0.899884 3.291703 -2.777548
v -0.386656 2.637225 -2.236004
v -0.427347 2.799079 -1.613079
v -0.468038 2.971707 -0.990154
v 0.236269 3.030734 -2.195314
v 0.195578 2.317967 -1.572388
v 0.154887 2.433367 -0.949464
v 0.859194 2.965717 -2.154623
v 0.818503 2.718840 -1.531698
v 0.777812 2.600119 -0.908773
v 0.453305 2.306915 1.646614
v 1.004235 5.654007 2.070708
v -0.253324 2.249374 -1.817388
v 0.297606 5.596466 -1.393294
v -0.146257 0.024492 0.146257
v -0.095279 0.703868 0.180231
v -0.146257 0.024492 -0.146257
v -0.095279 0.703868 -0.032352
v 0.146257 0.024492 0.146257
v 0.117304 0.703868 0.180231
v 0.146257 0.024492 -0.146257
v 0.117304 0.703868 -0.032352
v -0.111238 1.104071 0.012878
v -0.111238 1.104071 -0.199705
v 0.101345 1.104071 0.012878
v 0.101345 1.104071 -0.199705
v -0.079206 1.819100 -0.064879
v -0.079206 1.819100 -0.213211
v 0.069126 1.819100 -0.064879
v 0.069126 1.819100 -0.213211
v -0.044736 2.843507 0.090040
v -0.044736 2.843507 -0.040498
v 0.085802 2.843507 0.090040
v 0.085802 2.843507 -0.040498
v 0.035577 3.542526 0.086626
v 0.035577 3.542526 0.022252
v 0.099951 3.542526 0.086626
v 0.099951 3.542526 0.022252
v 0.132224 4.091405 0.206773
v 0.132224 4.091405 0.164717
v 0.174280 4.091405 0.206773
v 0.174280 4.091405 0.164717
v 1.861089 2.319063 -0.397792
v 1.511471 5.623508 -0.859732
v -1.600491 2.261522 0.320610
v -1.950108 5.565967 -0.141330
v -1.612273 2.203741 0.481187
v -1.705466 5.550832 1.069797
v 1.666291 2.146200 -0.841556
v 1.573098 5.493290 -0.252947
v -0.042770 2.203741 1.539470
v 0.498018 5.520333 1.095051
v -1.376653 2.146200 -1.734577
v -0.835865 5.462792 -2.178997
v -0.333688 2.827458 2.128794
v 0.228284 6.174550 2.327124
v -1.040316 2.769917 -1.335207
v -0.478345 6.117009 -1.136878
v 1.074567 2.827458 0.009063
v 0.735520 6.144051 -0.603315
v -2.387013 2.769917 0.727465
v -2.726059 6.086509 0.115087
v -2.388224 2.724283 0.737604
v -2.481417 6.071374 1.326213
v 0.890340 2.666742 -0.585140
v 0.797147 6.013833 0.003470
v -0.818721 2.724283 1.795887
v -0.277933 6.040876 1.351467
v -2.152604 2.666743 -1.478161
v -1.611816 5.983335 -1.922580
v 1.207316 2.725295 1.546495
v 1.769287 6.072387 1.744825
v 0.500687 2.667755 -1.917507
v 1.062658 6.014846 -1.719177
v 2.615570 2.725296 -0.573237
v 2.276524 6.041888 -1.185615
v -0.846009 2.667755 0.145166
v -1.185056 5.984347 -0.467213
v -0.847221 2.622121 0.155304
v -0.940414 5.969212 0.743914
v 2.431343 2.564580 -1.167439
v 2.338150 5.911671 -0.578830
v 0.722283 2.622121 1.213587
v 1.263070 5.938714 0.769168
v -0.611600 2.564580 -2.060461
v -0.070812 5.881172 -2.504880
v -1.239367 4.526552 0.251829
v -0.605831 5.381691 2.629225
v 1.822226 4.238369 -1.493320
v 2.455762 5.093509 0.884076
v -0.757398 3.485611 1.104687
v -2.977784 4.294400 -1.339471
v 2.086555 3.374532 -0.993296
v -0.133831 4.183321 -3.437454
vn -0.5003 -0.7248 -0.4736
vn -0.9803 -0.0798 -0.1805
vn -0.0517 0.9747 -0.2175
vn -0.0825 -0.9898 0.1164
vn 0.0695 0.9804 0.1842
vn -0.4666 -0.6519 -0.5978
vn -0.1648 0.9841 0.0657
vn -0.5701 -0.6655 0.4818
vn 0.5266 -0.7736 -0.3525
vn -0.2132 0.9748 -0.0653
vn 0.0822 0.9491 -0.3041
vn -0.2174 0.9761 -0.0058
vn -0.0460 0.7293 0.6827
vn 0.3702 0.9286 -0.0235
vn -0.4048 0.7143 -0.5709
vn 0.6702 0.7418 0.0247
vn 0.1315 0.9860 -0.1022
vn 0.0890 0.9709 -0.2221
vn -0.0495 0.9902 0.1309
vn -0.2165 -0.8417 0.4947
vn -0.5548 0.7364 0.3872
vn 0.0419 0.3867 -0.9213
vn -0.2507 0.9672 -0.0409
vn -0.0041 0.9887 0.1498
vn 0.1694 0.9851 -0.0291
vn -0.4989 0.8388 -0.2181
vn -0.3994 0.7817 -0.4790
vn 0.7140 0.3444 0.6096
vn 0.0688 0.9971 0.0312
vn 0.1467 0.9878 -0.0522
vn 0.3495 0.9363 -0.0340
vn -0.1211 0.9205 0.3714
vn 0.8495 -0.3114 0.4258
vn -0.1028 0.9947 -0.0001
vn 0.0028 0.9957 0.0926
vn 0.0295 0.9995 0.0116
vn 0.0778 0.9965 0.0290
vn 0.3235 0.8860 0.3322
vn -0.4253 0.4934 0.7588
vn 0.2616 0.9570 -0.1251
vn -0.0415 0.9695 -0.2416
vn 0.1632 -0.6088 0.7764
vn -0.5436 0.8158 -0.1976
vn -0.4733 0.7411 -0.4762
vn -0.4260 0.7777 0.4624
vn -0.1800 0.9472 0.2652
vn 0.9670 -0.0031 -0.2546
vn -0.1088 0.9934 -0.0353
vn 0.2699 0.9590 -0.0861
vn 0.0020 0.9824 0.1870
vn 0.2534 0.9484 0.1908
vn 0.0234 0.9991 0.0360
vn -0.4371 0.8747 -0.2096
vn 0.1939 0.9729 0.1262
vn -0.0636 0.9459 -0.3181
vn 0.0903 0.9952 0.0374
vn 0.0261 -0.9336 0.3573
vn 0.0728 0.9506 -0.3017
vn -0.3227 0.7859 0.5274
vn -0.2447 0.9608 -0.1303
vn -0.3282 0.9417 0.0735
vn -0.6260 0.7261 -0.2843
vn -0.0694 0.9858 0.1528
vn -0.5620 0.8242 0.0695
vn -0.3311 0.9001 -0.2832
vn 0.0631 0.9833 0.1706
vn 0.2576 0.8624 0.4357
vn 0.2239 0.8976 0.3797
vn -0.3267 0.9408 -0.0910
vn -0.4172 0.9084 0.0269
vn 0.3616 0.7906 -0.4942
vn 0.3634 0.7937 -0.4878
vn 0.5413 0.7754 0.3251
vn -0.1510 0.6935 -0.7044
vn 0.6118 0.6726 -0.4164
vn 0.3302 0.7836 0.5263
vn 0.4968 0.7449 -0.4453
vn -0.4122 0.7143 0.5655
vn -0.3655 0.8629 -0.3489
vn -0.4462 0.8486 0.2843
vn 0.1676 0.9845 -0.0514
vn 0.0332 0.9567 -0.2891
vn 0.2102 0.9602 0.1838
vn -0.5385 0.8278 0.1574
vn 0.3281 0.9140 -0.2386
vn -0.6800 0.7133 0.1700
vn 0.6868 0.6860 -0.2400
vn 0.1042 0.9765 -0.1887
vn -0.4977 0.7145 -0.4918
vn 0.6493 0.7605 0.0071
vn 0.1326 0.9080 0.3973
vn -0.5358 0.6466 0.5430
vn 0.6330 0.7739 -0.0199
vn 0.4079 0.9127 -0.0234
vn -0.7160 0.6471 -0.2620
vn 0.4589 0.8826 -0.1017
vn -0.5513 0.7786 -0.2999
vn -0.4485 0.7702 -0.4535
vn -0.0249 0.9827 0.1836
vn 0.4581 0.7638 0.4547
vn 0.4024 0.7713 0.4932
vn -0.6973 0.6979 -0.1632
vn -0.0051 0.9924 -0.1228
vn -0.2047 0.8031 -0.5597
vn -0.1730 0.9677 0.1833
vn 0.1749 0.6216 0.7635
vn -0.6597 0.7396 -0.1335
vn 0.7684 0.6200 -0.1588
vn -0.0419 0.9722 -0.2302
vn -0.7515 0.5956 0.2838
vn 0.4940 0.8104 -0.3150
vn 0.1421 0.7583 -0.6363
vn -0.3253 0.9456 -0.0020
vn 0.3170 0.7694 -0.5546
vn 0.0359 0.7563 -0.6532
vn 0.0519 0.9497 -0.3088
vn 0.6511 0.7519 -0.1040
vn -0.2404 0.9706 -0.0065
vn -0.4003 0.8636 0.3065
vn -0.3276 0.9435 0.0495
vn -0.2470 0.7754 0.5811
vn -0.4132 0.9103 -0.0246
vn -0.0226 0.9699 0.2426
vn 0.0377 0.9130 0.4062
vn 0.6328 0.7625 -0.1349
vn -0.3575 0.9315 0.0667
vn -0.1345 0.9602 0.2449
vn -0.0994 0.7930 -0.6010
vn -0.9713 0.1351 0.1959
vn -0.9972 0.0748 -0.0000
vn -0.0000 0.1654 -0.9862
vn 0.9991 0.0426 -0.0000
vn -0.0000 -0.0499 0.9988
vn -0.0000 0.3858 0.9226
vn -0.9992 -0.0398 -0.0000
vn -0.0000 -0.3858 -0.9226
vn 0.9992 0.0398 -0.0000
vn -0.0000 -0.0189 -0.9998
vn 0.9990 0.0450 -0.0000
vn -0.9990 0.0448 -0.0000
vn -0.0000 0.1081 0.9941
vn 0.9999 -0.0163 -0.0000
vn -0.9994 0.0336 -0.0000
vn -0.0000 -0.1495 0.9888
vn -0.0000 0.1663 -0.9861
vn -0.0000 0.0049 1.0000
vn -0.0000 0.0894 -0.9960
vn 0.9998 -0.0202 -0.0000
vn -0.9935 0.1141 -0.0000
vn 0.9910 -0.1342 -0.0000
vn -0.9848 0.1734 -0.0000
vn -0.0000 -0.2138 0.9769
vn -0.0000 0.2512 -0.9679
vn 0.1982 0.1562 0.9676
vn -0.3676 0.1511 -0.9176
vn -0.9091 0.1974 0.3669
vn -0.9691 0.1511 0.1952
vn 0.1961 0.1974 0.9605
vn -0.0909 0.9446 -0.3155
vn -0.1647 -0.9713 -0.1718
vt 0.746094 0.520930
vt 0.660156 0.520930
vt 0.660156 0.404651
vt 0.746094 0.404651
vt 0.832031 0.520930
vt 0.832031 0.404651
vt 0.914062 0.520930
vt 0.914062 0.404651
vt 1.000000 0.520930
vt 1.000000 0.404651
vt 1.000000 0.795349
vt 0.914062 0.795349
vt 0.914062 0.702326
vt 1.000000 0.702326
vt 0.914062 0.609302
vt 1.000000 0.609302
vt 0.832031 0.795349
vt 0.832031 0.702326
vt 0.832031 0.609302
vt 0.746094 0.795349
vt 0.746094 0.702326
vt 0.746094 0.609302
vt 0.660156 0.795349
vt 0.660156 0.702326
vt 0.660156 0.609302
vt 0.636719 0.404651
vt 0.636719 0.772093
vt 0.265625 0.772093
vt 0.265625 0.404651
vt 0.832031 0.855814
vt 0.832031 1.000000
vt 0.796875 1.000000
vt 0.781250 0.855814
vt 0.828125 0.851163
vt 0.824219 1.000000
vt 0.781250 1.000000
vt 0.781250 0.851163
vt 0.859375 0.869767
vt 0.777344 1.000000
vt 0.777344 0.869767
vt 0.832031 0.851163
vt 0.789062 1.000000
vt 0.773438 0.851163
vt 0.777344 0.855814
vt 0.832031 0.990698
vt 0.781250 0.879070
vt 0.816406 0.865116
vt 0.816406 0.981395
vt 0.781250 0.981395
vt 0.835938 0.851163
vt 0.835938 1.000000
vt 0.796875 0.865116
vt 0.832031 0.879070
vt 0.796875 0.962791
vt 0.789062 0.851163
vt 0.820312 0.851163
vt 0.816406 1.000000
vt 0.792969 1.000000
vt 0.785156 0.855814
vt 0.800781 1.000000
vt 0.753906 0.851163
vt 0.785156 0.851163
vt 0.773438 1.000000
vt 0.753906 1.000000
vt 0.796875 0.855814
vt 0.828125 0.855814
vt 0.820312 0.990698
vt 0.804688 0.990698
vt 0.785156 1.000000
vt 0.820312 0.855814
vt 0.820312 1.000000
vt 0.792969 0.851163
vt 0.816406 0.851163
vt 0.804688 0.851163
vt 0.828125 1.000000
vt 0.804688 0.855814
vt 0.792969 0.986046
vt 0.781250 0.986046
vt 0.792969 0.865116
vt 0.835938 0.865116
vt 0.792969 0.990698
vt 0.800781 0.855814
vt 0.804688 0.883721
vt 0.812500 0.879070
vt 0.812500 0.958140
vt 0.808594 0.958140
vt 0.847656 0.855814
vt 0.839844 1.000000
vt 0.820312 0.986046
vt 0.816406 0.986046
vt 0.851562 0.874419
vt 0.867188 0.874419
vt 0.867188 1.000000
vt 0.859375 1.000000
s 0
f 19/1/1 5/2/1 4/3/1 13/4/1
f 22/5/2 19/1/2 13/4/2 12/6/2
f 25/7/3 22/5/3 12/6/3 11/8/3
f 10/9/4 25/7/4 11/8/4 3/10/4
f 1/11/5 16/12/5 23/13/5 8/14/5
f 8/14/6 23/13/6 24/15/6 9/16/6
f 9/16/7 24/15/7 25/7/7 10/9/7
f 16/12/8 15/17/8 20/18/8 23/13/8
f 23/13/9 20/18/9 21/19/9 24/15/9
f 24/15/10 21/19/10 22/5/10 25/7/10
f 15/17/11 14/20/11 17/21/11 20/18/11
f 20/18/12 17/21/12 18/22/12 21/19/12
f 21/19/13 18/22/13 19/1/13 22/5/13
f 14/20/14 2/23/14 7/24/14 17/21/14
f 17/21/15 7/24/15 6/25/15 18/22/15
f 18/22/16 6/25/16 5/2/16 19/1/16
f 44/1/17 30/2/17 29/3/17 38/4/17
f 47/5/18 44/1/18 38/4/18 37/6/18
f 50/7/19 47/5/19 37/6/19 36/8/19
f 35/9/20 50/7/20 36/8/20 28/10/20
f 26/11/21 41/12/21 48/13/21 33/14/21
f 33/14/22 48/13/22 49/15/22 34/16/22
f 34/16/23 49/15/23 50/7/23 35/9/23
f 41/12/24 40/17/24 45/18/24 48/13/24
f 48/13/25 45/18/25 46/19/25 49/15/25
f 49/15/26 46/19/26 47/5/26 50/7/26
f 40/17/27 39/20/27 42/21/27 45/18/27
f 45/18/28 42/21/28 43/22/28 46/19/28
f 46/19/29 43/22/29 44/1/29 47/5/29
f 39/20/30 27/23/30 32/24/30 42/21/30
f 42/21/31 32/24/31 31/25/31 43/22/31
f 43/22/32 31/25/32 30/2/32 44/1/32
f 69/1/33 55/2/33 54/3/33 63/4/33
f 72/5/34 69/1/34 63/4/34 62/6/34
f 75/7/35 72/5/35 62/6/35 61/8/35
f 60/9/36 75/7/36 61/8/36 53/10/36
f 51/11/37 66/12/37 73/13/37 58/14/37
f 58/14/38 73/13/38 74/15/38 59/16/38
f 59/16/39 74/15/39 75/7/39 60/9/39
f 66/12/40 65/17/40 70/18/40 73/13/40
f 73/13/41 70/18/41 71/19/41 74/15/41
f 74/15/42 71/19/42 72/5/42 75/7/42
f 65/17/43 64/20/43 67/21/43 70/18/43
f 70/18/44 67/21/44 68/22/44 71/19/44
f 71/19/45 68/22/45 69/1/45 72/5/45
f 64/20/46 52/23/46 57/24/46 67/21/46
f 67/21/47 57/24/47 56/25/47 68/22/47
f 68/22/48 56/25/48 55/2/48 69/1/48
f 94/1/49 80/2/49 79/3/49 88/4/49
f 97/5/50 94/1/50 88/4/50 87/6/50
f 100/7/51 97/5/51 87/6/51 86/8/51
f 85/9/52 100/7/52 86/8/52 78/10/52
f 76/11/53 91/12/53 98/13/53 83/14/53
f 83/14/54 98/13/54 99/15/54 84/16/54
f 84/16/55 99/15/55 100/7/55 85/9/55
f 91/12/56 90/17/56 95/18/56 98/13/56
f 98/13/57 95/18/57 96/19/57 99/15/57
f 99/15/58 96/19/58 97/5/58 100/7/58
f 90/17/59 89/20/59 92/21/59 95/18/59
f 95/18/60 92/21/60 93/22/60 96/19/60
f 96/19/61 93/22/61 94/1/61 97/5/61
f 89/20/62 77/23/62 82/24/62 92/21/62
f 92/21/63 82/24/63 81/25/63 93/22/63
f 93/22/64 81/25/64 80/2/64 94/1/64
f 119/1/65 105/2/65 104/3/65 113/4/65
f 122/5/66 119/1/66 113/4/66 112/6/66
f 125/7/67 122/5/67 112/6/67 111/8/67
f 110/9/68 125/7/68 111/8/68 103/10/68
f 101/11/69 116/12/69 123/13/69 108/14/69
f 108/14/70 123/13/70 124/15/70 109/16/70
f 109/16/71 124/15/71 125/7/71 110/9/71
f 116/12/72 115/17/72 120/18/72 123/13/72
f 123/13/73 120/18/73 121/19/73 124/15/73
f 124/15/74 121/19/74 122/5/74 125/7/74
f 115/17/75 114/20/75 117/21/75 120/18/75
f 120/18/76 117/21/76 118/22/76 121/19/76
f 121/19/77 118/22/77 119/1/77 122/5/77
f 114/20/78 102/23/78 107/24/78 117/21/78
f 117/21/79 107/24/79 106/25/79 118/22/79
f 118/22/80 106/25/80 105/2/80 119/1/80
f 144/1/81 130/2/81 129/3/81 138/4/81
f 147/5/82 144/1/82 138/4/82 137/6/82
f 150/7/83 147/5/83 137/6/83 136/8/83
f 135/9/84 150/7/84 136/8/84 128/10/84
f 126/11/85 141/12/85 148/13/85 133/14/85
f 133/14/86 148/13/86 149/15/86 134/16/86
f 134/16/87 149/15/87 150/7/87 135/9/87
f 141/12/88 140/17/88 145/18/88 148/13/88
f 148/13/89 145/18/89 146/19/89 149/15/89
f 149/15/90 146/19/90 147/5/90 150/7/90
f 140/17/91 139/20/91 142/21/91 145/18/91
f 145/18/92 142/21/92 143/22/92 146/19/92
f 146/19/93 143/22/93 144/1/93 147/5/93
f 139/20/94 127/23/94 132/24/94 142/21/94
f 142/21/95 132/24/95 131/25/95 143/22/95
f 143/22/96 131/25/96 130/2/96 144/1/96
f 169/1/97 155/2/97 154/3/97 163/4/97
f 172/5/98 169/1/98 163/4/98 162/6/98
f 175/7/99 172/5/99 162/6/99 161/8/99
f 160/9/100 175/7/100 161/8/100 153/10/100
f 151/11/101 166/12/101 173/13/101 158/14/101
f 158/14/102 173/13/102 174/15/102 159/16/102
f 159/16/103 174/15/103 175/7/103 160/9/103
f 166/12/104 165/17/104 170/18/104 173/13/104
f 173/13/105 170/18/105 171/19/105 174/15/105
f 174/15/106 171/19/106 172/5/106 175/7/106
f 165/17/107 164/20/107 167/21/107 170/18/107
f 170/18/108 167/21/108 168/22/108 171/19/108
f 171/19/109 168/22/109 169/1/109 172/5/109
f 164/20/110 152/23/110 157/24/110 167/21/110
f 167/21/111 157/24/111 156/25/111 168/22/111
f 168/22/112 156/25/112 155/2/112 169/1/112
f 194/1/113 180/2/113 179/3/113 188/4/113
f 197/5/114 194/1/114 188/4/114 187/6/114
f 200/7/115 197/5/115 187/6/115 186/8/115
f 185/9/116 200/7/116 186/8/116 178/10/116
f 176/11/117 191/12/117 198/13/117 183/14/117
f 183/14/118 198/13/118 199/15/118 184/16/118
f 184/16/119 199/15/119 200/7/119 185/9/119
f 191/12/120 190/17/120 195/18/120 198/13/120
f 198/13/121 195/18/121 196/19/121 199/15/121
f 199/15/122 196/19/122 197/5/122 200/7/122
f 190/17/123 189/20/123 192/21/123 195/18/123
f 195/18/124 192/21/124 193/22/124 196/19/124
f 196/19/125 193/22/125 194/1/125 197/5/125
f 189/20/126 177/23/126 182/24/126 192/21/126
f 192/21/127 182/24/127 181/25/127 193/22/127
f 193/22/128 181/25/128 180/2/128 194/1/128
f 201/26/129 202/27/129 204/28/129 203/29/129
f 205/30/130 206/31/130 208/32/130 207/33/130
f 207/34/131 208/35/131 212/36/131 211/37/131
f 211/38/132 212/31/132 210/39/132 209/40/132
f 209/41/133 210/35/133 206/42/133 205/43/133
f 206/44/134 210/30/134 215/45/134 213/39/134
f 208/46/135 206/47/135 213/48/135 214/49/135
f 212/37/136 208/50/136 214/51/136 216/49/136
f 210/52/137 212/53/137 216/31/137 215/54/137
f 216/55/138 214/56/138 218/57/138 220/58/138
f 215/59/139 216/30/139 220/31/139 219/60/139
f 214/61/140 213/62/140 217/63/140 218/64/140
f 213/65/141 215/66/141 219/67/141 217/68/141
f 219/59/142 220/56/142 224/67/142 223/69/142
f 218/33/143 217/70/143 221/57/143 222/36/143
f 217/44/144 219/70/144 223/71/144 221/69/144
f 220/72/145 218/73/145 222/57/145 224/58/145
f 221/74/146 223/34/146 227/75/146 225/57/146
f 224/33/147 222/76/147 226/77/147 228/78/147
f 223/79/148 224/80/148 228/68/148 227/81/148
f 222/33/149 221/82/149 225/60/149 226/42/149
f 227/83/150 228/84/150 232/85/150 231/86/150
f 226/30/151 225/87/151 229/88/151 230/31/151
f 225/73/152 227/34/152 231/89/152 229/90/152
f 228/91/153 226/92/153 230/93/153 232/94/153
f 233/26/154 234/27/154 236/28/154 235/29/154
f 237/26/155 238/27/155 240/28/155 239/29/155
f 241/26/156 242/27/156 244/28/156 243/29/156
f 245/26/157 246/27/157 248/28/157 247/29/157
f 249/26/158 250/27/158 252/28/158 251/29/158
f 253/26/155 254/27/155 256/28/155 255/29/155
f 257/26/156 258/27/156 260/28/156 259/29/156
f 261/26/157 262/27/157 264/28/157 263/29/157
f 265/26/158 266/27/158 268/28/158 267/29/158
f 269/26/155 270/27/155 272/28/155 271/29/155
f 273/26/156 274/27/156 276/28/156 275/29/156
f 277/26/159 278/27/159 280/28/159 279/29/159
f 281/26/160 282/27/160 284/28/160 283/29/160
