# Blender 4.2.1 LTS
# www.blender.org
o ArvoreGrande
v -0.204780 6.596176 0.953308
v -0.078824 6.566101 -1.844035
v -3.002282 6.597583 0.827330
v -2.876327 6.567508 -1.970012
v -1.603149 6.984291 0.886171
v -1.477193 6.954216 -1.911172
v 0.378204 6.862471 -0.786388
v -2.938922 6.969957 -0.575489
v -1.540979 6.149211 -0.503720
v -0.270003 5.877200 0.910515
v -0.144047 5.847124 -1.886827
v -3.067505 5.878607 0.784537
v -2.941549 5.848532 -2.012805
v -1.669135 5.490491 0.851674
v -1.543180 5.460416 -1.945668
v -0.286257 5.429062 -1.104079
v -3.004909 5.476157 -0.609986
v -1.605350 6.295496 -0.555777
v -1.756272 5.330821 0.860161
v -1.805233 7.966875 1.610506
v -1.421161 5.582556 -1.608586
v -1.458984 7.492680 -2.483823
v 0.089617 4.853481 -0.834973
v -0.462476 7.486800 -0.288661
v -2.613946 4.911765 -0.587261
v -3.219198 7.686245 -0.527612
v -3.091319 5.379243 0.670785
v -2.553655 7.819324 0.445128
v -0.560650 5.405146 -0.842823
v -0.429942 7.793739 -1.546155
v -0.473029 5.261899 0.674746
v -0.627240 7.902935 0.479094
v -2.481556 5.106824 -1.695359
v -2.222389 7.896702 -1.215517
v -1.738646 4.997587 -0.440899
v 1.061692 4.997587 -0.440900
v -1.738646 4.997586 -3.241238
v 1.061692 4.997587 -3.241238
v -1.738646 5.385021 -1.841069
v 1.061692 5.385021 -1.841068
v 0.022550 5.283067 0.063097
v -0.338477 5.385021 -3.241237
v -0.338477 4.564930 -1.841069
v -1.691111 4.279046 -0.507621
v 1.109227 4.279046 -0.507621
v -1.691111 4.279046 -3.307958
v 1.109227 4.279046 -3.307958
v -1.691111 3.891612 -1.907789
v 1.109227 3.891612 -1.907789
v 0.325409 3.852487 -0.614263
v -0.290942 3.891612 -3.307958
v -0.290942 4.711702 -1.907789
v -1.646278 3.742235 -2.098749
v -2.426333 6.370055 -2.115229
v 0.776682 4.010255 -1.770792
v 1.628767 5.929603 -1.848909
v 0.088682 2.523366 -0.686273
v 0.165492 5.157824 0.082733
v -0.289997 3.327393 -2.916086
v -0.406603 6.100479 -3.519435
v -1.283446 3.780905 -3.442071
v -0.861426 6.059003 -2.778093
v 0.052348 3.825505 -0.876613
v 0.735154 6.221619 -0.778878
v -1.458118 3.666105 -0.720738
v -1.297976 6.308931 -0.884922
v 0.820776 3.534436 -2.833777
v 0.323141 6.319270 -2.554688
v -1.785295 4.997587 -0.300952
v 1.015043 4.997587 -0.300952
v -1.785295 4.997587 -3.101290
v 1.015043 4.997586 -3.101290
v -1.785295 5.385021 -1.701121
v 1.015043 5.385021 -1.701121
v -0.024099 5.283067 0.203044
v -0.385126 5.385021 -3.101290
v -0.385126 4.564931 -1.701121
v -1.737760 4.279046 -0.367673
v 1.062577 4.279046 -0.367673
v -1.737760 4.279046 -3.168011
v 1.062577 4.279046 -3.168011
v -1.737760 3.891612 -1.767842
v 1.062578 3.891612 -1.767842
v 0.278760 3.852487 -0.474316
v -0.337591 3.891612 -3.168011
v -0.337591 4.711702 -1.767842
v -1.710445 3.675206 -1.447456
v -2.490499 6.303025 -1.463937
v 0.730033 4.010256 -1.630844
v 1.582117 5.929603 -1.708962
v 0.352137 3.349535 0.095492
v -0.193546 6.032817 0.295140
v -0.336646 3.327393 -2.776138
v -0.453252 6.100479 -3.379488
v -1.841729 3.771211 -3.005544
v -1.618336 6.214097 -2.479802
v 0.005699 3.825505 -0.736666
v 0.688505 6.221619 -0.638930
v -1.504767 3.666105 -0.580791
v -1.344625 6.308931 -0.744975
v 0.774127 3.534436 -2.693830
v 0.276492 6.319270 -2.414741
v -0.442517 10.622880 1.740436
v 0.013080 6.062557 1.362216
v -0.442517 10.622880 -2.822827
v 0.013080 6.062558 -0.691481
v 0.202088 5.093932 1.285335
v 1.348387 8.398493 2.418290
v 0.202088 5.093933 -0.768362
v 1.348387 8.398493 -2.144974
v -2.040717 8.398493 1.244130
v 2.522546 8.398493 1.244130
v -0.931303 5.151280 0.828446
v 1.122393 5.151280 0.828446
v -0.985498 5.418777 0.106532
v 1.068198 5.418777 0.106532
v -2.040717 8.398493 -0.970815
v 2.522546 8.398493 -0.970815
v 1.696517 4.997587 0.775548
v -1.080599 4.997587 0.415658
v 1.336627 4.997587 3.552663
v -1.440488 4.997587 3.192773
v 1.516572 5.385021 2.164105
v -1.260543 5.385021 1.804216
v 0.014698 5.283067 0.049388
v -0.051931 5.385021 3.372718
v 0.128014 4.564931 1.984160
v 1.640802 4.279046 0.835606
v -1.136314 4.279046 0.475716
v 1.280912 4.279046 3.612722
v -1.496204 4.279046 3.252832
v 1.460857 3.891612 2.224164
v -1.316259 3.891612 1.864274
v -0.372702 3.852487 0.682208
v -0.107646 3.891612 3.432777
v 0.072299 4.711701 2.044219
v 1.460323 3.731774 2.311405
v 2.231791 6.359593 2.427999
v -0.968865 4.010255 1.771150
v -1.823923 5.929603 1.739113
v -0.070599 3.337223 0.370095
v 0.455383 5.963997 0.970956
v -0.058222 3.327393 3.044033
v -0.020123 6.100479 3.657364
v 1.160284 3.780905 3.625986
v 1.006311 6.223791 3.075893
v -0.135621 3.825505 0.977476
v -0.800204 6.221619 0.792799
v 1.382351 3.666105 1.017013
v 1.202437 6.308930 1.159255
v -1.149205 3.534436 2.819654
v -0.619829 6.319270 2.606833
v 0.009048 3.876105 0.078515
v -0.058952 3.600366 0.073366
v 0.188969 3.600377 0.064206
v 0.210918 3.876139 0.071058
v 0.336758 4.573622 -1.435572
v 0.347227 4.705150 -1.432304
v 0.250942 4.705134 -1.428747
v 0.218510 4.573617 -1.431204
v -0.107129 4.643540 -2.341230
v -0.102586 4.700619 -2.339812
v -0.144371 4.700612 -2.338268
v -0.158446 4.643538 -2.339334
v -0.284101 4.878513 -2.676313
v -0.279558 4.935592 -2.674895
v -0.321342 4.935585 -2.673351
v -0.335417 4.878510 -2.674417
v 0.009202 4.842973 -2.517286
v 0.012792 4.888084 -2.516166
v -0.020231 4.888078 -2.514946
v -0.031355 4.842971 -2.515788
v 0.546632 4.327652 -1.890579
v 0.551581 4.389835 -1.889034
v 0.506060 4.389827 -1.887352
v 0.490727 4.327649 -1.888513
v 0.678773 4.518651 -2.176016
v 0.681978 4.558920 -2.175015
v 0.652499 4.558916 -2.173926
v 0.642569 4.518649 -2.174678
v 0.095935 4.778536 0.369268
v 0.148464 4.565650 0.372828
v -0.042883 4.565658 0.381416
v -0.059870 4.778562 0.376261
v -0.122147 5.252926 1.527644
v -0.130249 5.354473 1.525185
v -0.055936 5.354461 1.521849
v -0.030882 5.252922 1.523547
v -0.654709 5.260602 1.862985
v -0.664059 5.306233 1.861114
v -0.634347 5.310250 1.877212
v -0.618220 5.265541 1.882755
v -0.351878 5.257702 1.720650
v -0.368680 5.325794 1.719512
v -0.418514 5.325803 1.721749
v -0.413081 5.257705 1.723398
v -0.680303 5.261576 2.056248
v -0.683157 5.297340 2.055381
v -0.656985 5.297336 2.054207
v -0.648161 5.261574 2.054805
v 0.018202 5.308449 1.879766
v 0.013972 5.361466 1.878482
v 0.052771 5.361460 1.876741
v 0.065852 5.308447 1.877628
v 0.193391 5.337514 2.034556
v 0.190967 5.367884 2.033820
v 0.213192 5.367881 2.032823
v 0.220686 5.337513 2.033331
v -0.099405 5.502425 2.086748
v -0.100771 5.519545 2.086333
v -0.088242 5.519543 2.085771
v -0.084018 5.502425 2.086057
v 0.150418 4.792245 1.075698
v 0.009112 4.792252 1.082040
v 0.111626 4.949457 1.073069
v -0.003433 4.949477 1.078233
v 0.160683 6.218903 0.215589
v 0.170249 6.048748 0.161507
v 0.277029 6.057801 0.275102
v 0.247625 6.226290 0.308085
v 1.038554 6.791146 -0.155566
v 1.021352 6.889711 -0.136270
v 0.970491 6.885390 -0.190381
v 0.976088 6.785849 -0.222019
v 1.629057 6.900661 0.032709
v 1.624488 6.945050 0.046194
v 1.616069 6.951217 0.013803
v 1.618717 6.908240 -0.007070
v 1.328308 6.850860 -0.105291
v 1.324556 6.917613 -0.084074
v 1.358663 6.920511 -0.047787
v 1.370199 6.854412 -0.060727
v 1.786745 6.946992 -0.072147
v 1.780686 6.981707 -0.065351
v 1.762773 6.980185 -0.084409
v 1.764744 6.945127 -0.095551
v 1.193060 6.918900 -0.482029
v 1.184079 6.970361 -0.471954
v 1.157525 6.968104 -0.500205
v 1.160447 6.916134 -0.516723
v 1.186072 6.974171 -0.710921
v 1.180927 7.003649 -0.705150
v 1.165716 7.002357 -0.721334
v 1.167390 6.972587 -0.730795
v 1.381418 7.160428 -0.504047
v 1.378518 7.177044 -0.500794
v 1.369944 7.176316 -0.509917
v 1.370887 7.159535 -0.515251
v 0.560607 6.752947 0.063453
v 0.629357 6.758775 0.136591
v 0.554447 6.862500 0.098273
v 0.610425 6.867256 0.157827
v 0.287968 3.922474 -0.795896
v 0.438886 3.922481 -0.801472
v 0.329361 4.090326 -0.792762
v 0.452247 4.090347 -0.797301
v -0.287599 -0.013299 0.409831
v -0.409943 -0.013299 0.074443
v -0.026500 7.119412 0.348629
v 0.049623 7.119412 0.424512
v -0.409943 -0.013299 -0.286793
v -0.287608 -0.013299 -0.410001
v 0.049617 7.119412 0.148385
v -0.026500 7.119412 0.225046
v 0.409888 -0.013299 0.167924
v 0.287954 -0.013299 0.409831
v 0.173758 7.119412 0.424512
v 0.249626 7.119412 0.348629
v 0.287955 -0.013299 -0.548957
v 0.539764 -0.013299 -0.286784
v 0.249626 7.119412 0.225051
v 0.173758 7.119412 0.148385
v -0.181126 0.469099 0.312448
v 0.021229 6.337877 0.410722
v -0.140655 1.882164 0.332103
v -0.100184 2.996092 0.351757
v -0.059713 4.110021 0.371412
v -0.019242 5.223948 0.391067
v -0.268830 0.469303 0.225017
v -0.056329 6.337673 0.333414
v -0.226330 1.882287 0.246696
v -0.183829 2.996133 0.268376
v -0.141329 4.109980 0.290055
v -0.098829 5.223827 0.311734
v 0.021199 6.337240 0.099363
v -0.181109 0.469737 -0.249635
v -0.019262 5.223567 0.029563
v -0.059724 4.109893 -0.040237
v -0.100185 2.996220 -0.110036
v -0.140647 1.882546 -0.179836
v -0.056340 6.337381 0.177469
v -0.268818 0.469595 -0.161314
v -0.098836 5.223651 0.109712
v -0.141331 4.109921 0.041956
v -0.183827 2.996191 -0.025801
v -0.226323 1.882462 -0.093557
v 0.255000 6.337651 0.177491
v 0.293284 0.469325 -0.161324
v 0.262657 5.223814 0.109728
v 0.270314 4.109976 0.041965
v 0.277970 2.996138 -0.025798
v 0.285627 1.882300 -0.093561
v 0.205866 0.469602 -0.249644
v 0.177712 6.337375 0.099371
v 0.200235 1.882466 -0.179841
v 0.194604 2.996193 -0.110038
v 0.188974 4.109921 -0.040235
v 0.183343 5.223648 0.029568
v 0.177709 6.337945 0.410723
v 0.205868 0.469031 0.312447
v 0.183341 5.223990 0.391068
v 0.188972 4.110035 0.371412
v 0.194604 2.996079 0.351757
v 0.200236 1.882124 0.332102
v 0.293285 0.469100 0.225013
v 0.254998 6.337876 0.333417
v 0.285628 1.882165 0.246694
v 0.277971 2.996093 0.268375
v 0.270313 4.110021 0.290056
v 0.262656 5.223948 0.311736
v 0.193586 4.745042 0.082262
v 0.201242 4.469303 0.014499
v 0.201242 4.469314 0.262590
v 0.193584 4.745076 0.284270
v 1.785237 5.252063 0.486656
v 1.781585 5.383591 0.496997
v 1.781586 5.383575 0.400646
v 1.785237 5.252058 0.368326
v 2.706666 5.321980 0.076509
v 2.705081 5.379059 0.080996
v 2.705081 5.379052 0.039183
v 2.706666 5.321978 0.025157
v 3.048055 5.556953 -0.087971
v 3.046470 5.614032 -0.083483
v 3.046471 5.614025 -0.125296
v 3.048055 5.556951 -0.139322
v 2.878308 5.521413 0.199261
v 2.877055 5.566525 0.202807
v 2.877055 5.566519 0.169761
v 2.878308 5.521411 0.158676
v 2.232185 5.006092 0.713186
v 2.230458 5.068275 0.718074
v 2.230458 5.068268 0.672522
v 2.232185 5.006090 0.657242
v 2.512548 5.197092 0.855775
v 2.511429 5.237361 0.858941
v 2.511430 5.237356 0.829442
v 2.512548 5.197089 0.819547
v -0.009481 5.456976 0.179359
v -0.014977 5.244090 0.231721
v -0.016495 5.244099 0.040187
v -0.010716 5.457002 0.023402
v -1.159015 5.931366 -0.081343
v -1.156258 6.032913 -0.089349
v -1.155669 6.032901 -0.014964
v -1.158291 5.931362 0.010011
v -1.474464 5.939043 -0.625924
v -1.472249 5.984673 -0.635198
v -1.489433 5.988691 -0.606100
v -1.495568 5.943982 -0.590189
v -1.343408 5.936142 -0.318044
v -1.341650 6.004235 -0.334792
v -1.342045 6.004243 -0.384676
v -1.343893 5.936145 -0.379307
v 0.023857 8.195299 0.326031
v 0.072228 8.195299 0.374249
v 0.072224 8.195299 0.198791
v 0.023857 8.195299 0.247503
v 0.151106 8.195299 0.374249
v 0.199315 8.195299 0.326031
v 0.199315 8.195299 0.247506
v 0.151106 8.195299 0.198791
v -1.666650 5.940016 -0.658637
v -1.665679 5.975780 -0.661456
v -1.665471 5.975776 -0.635258
v -1.666395 5.940015 -0.626462
v -1.516079 5.986890 0.045909
v -1.514639 6.039907 0.041730
v -1.514332 6.039900 0.080566
v -1.515701 5.986887 0.093605
v -1.677231 6.015955 0.215263
v -1.676407 6.046325 0.212869
v -1.676231 6.046321 0.235116
v -1.677015 6.015954 0.242585
v -1.718577 6.180866 -0.079260
v -1.718112 6.197985 -0.080609
v -1.718013 6.197983 -0.068069
v -1.718455 6.180865 -0.063858
v -0.717440 5.470686 0.207722
v -0.718561 5.470693 0.066278
v -0.713381 5.627898 0.169054
v -0.714293 5.627917 0.053883
v 0.221103 6.915685 0.304266
v 0.286956 6.706986 0.318441
v 0.142890 6.718091 0.444174
v 0.103794 6.924745 0.406641
v 0.480192 7.469586 1.140713
v 0.461545 7.568152 1.122811
v 0.517497 7.563831 1.073982
v 0.548906 7.464290 1.080743
v 0.270244 7.579101 1.723862
v 0.256937 7.623490 1.718799
v 0.289616 7.629658 1.711582
v 0.310377 7.586681 1.714998
v 0.419253 7.529301 1.428414
v 0.398190 7.596053 1.423880
v 0.360668 7.598952 1.456625
v 0.373173 7.532853 1.468630
v 0.369206 7.625432 1.885314
v 0.362638 7.660147 1.879008
v 0.382344 7.658625 1.861811
v 0.393406 7.623568 1.864192
v 0.800728 7.597341 1.307167
v 0.790992 7.648801 1.297821
v 0.820204 7.646544 1.272327
v 0.836603 7.594575 1.275857
v 1.029722 7.652612 1.308635
v 1.024145 7.682090 1.303281
v 1.040879 7.680798 1.288677
v 1.050273 7.651027 1.290699
v 0.815777 7.838869 1.496210
v 0.812633 7.855485 1.493192
v 0.822066 7.854757 1.484960
v 0.827361 7.837976 1.486099
v 0.463592 6.905349 0.725824
v 0.357202 6.913549 0.818676
v 0.414961 7.059469 0.715356
v 0.328331 7.066159 0.790958
v 0.997570 4.852367 0.366381
v 0.997569 4.852375 0.549591
v 0.991915 5.055995 0.416422
v 0.991914 5.056020 0.565602
v 0.816660 6.517144 -0.756081
v 0.414634 6.517144 2.015249
v 3.587990 6.517144 -0.354055
v 3.185964 6.517144 2.417274
v 2.202325 6.904578 -0.555068
v 1.800299 6.904578 2.216261
v 0.065042 6.802624 0.914516
v 3.386976 6.904578 1.031610
v 2.001312 6.084488 0.830597
v 0.875866 5.798603 -0.699460
v 0.473840 5.798603 2.071869
v 3.647195 5.798603 -0.297434
v 3.245169 5.798603 2.473896
v 2.261530 5.411169 -0.498447
v 1.859504 5.411169 2.272882
v 0.691905 5.372045 1.311482
v 3.446182 5.411169 1.088231
v 2.060517 6.231259 0.887218
v 2.348753 5.251331 -0.496588
v 2.477050 7.879150 -1.266197
v 1.771667 5.529813 1.924115
v 1.726647 7.449160 2.778587
v 0.343312 4.793985 1.012611
v 0.952091 7.420760 0.495815
v 3.058233 4.846951 1.032908
v 3.672072 7.620036 1.004129
v 3.658625 5.300463 -0.176619
v 3.106258 7.743349 -0.031018
v 0.990739 5.345062 1.078913
v 0.795990 7.741177 1.740614
v 1.053326 5.185662 -0.438284
v 1.192819 7.828488 -0.256230
v 2.817312 5.053993 2.120358
v 2.612555 7.838827 1.587811
v -0.174451 8.346240 2.480308
v -0.000083 7.674532 -0.232678
v -2.420666 9.930084 1.943796
v -2.246298 9.258375 -0.769190
v -1.067460 9.443860 2.151153
v -0.893092 8.772152 -0.561833
v 0.509028 7.863985 0.825736
v -2.103384 9.899928 0.526404
v -1.467330 8.460929 0.923566
v -0.651753 7.805624 2.534417
v -0.477385 7.133915 -0.178569
v -2.897969 9.389467 1.997905
v -2.723600 8.717758 -0.715081
v -2.004960 8.291847 2.327060
v -1.830591 7.620139 -0.385926
v -0.865066 7.045675 0.627416
v -3.040883 8.747915 0.702311
v -1.430721 8.603070 0.841661
v -2.170006 8.217264 2.345945
v -0.671126 10.487129 2.685455
v -1.670946 7.716034 -0.056157
v -0.540643 9.070256 -1.198322
v -0.912543 6.429123 1.030658
v 0.186473 8.944165 1.096716
v -3.061585 8.080863 0.865160
v -1.905861 10.638134 0.426645
v -3.209459 8.984341 1.956470
v -1.323001 10.560917 1.456787
v -1.108531 7.238266 0.845937
v 0.435442 8.909816 -0.173479
v -1.172220 7.386643 2.364206
v 0.275639 9.526365 1.762190
v -2.803437 7.931235 -0.227739
v -0.956636 10.090075 -0.129892
v 0.060282 8.193458 -2.166518
v -0.103126 7.521749 0.547151
v 2.308646 9.777302 -1.639084
v 2.145238 9.105593 1.074585
v 0.954613 9.291078 -1.840973
v 0.791205 8.619369 0.872696
v -0.616508 7.711202 -0.509198
v 1.997091 9.747146 -0.220421
v 1.359439 8.308146 -0.615011
v 0.537362 7.652841 -2.222555
v 0.373954 6.981132 0.491114
v 2.785726 9.236685 -1.695121
v 2.622318 8.564976 1.018548
v 1.891394 8.139065 -2.020665
v 1.727987 7.467356 0.693003
v 0.758376 6.892892 -0.316430
v 2.933873 8.595133 -0.400114
v 1.323161 8.450288 -0.532959
v 2.056363 8.064483 -2.040217
v 0.556124 10.334347 -2.373670
v 1.567010 7.563252 0.363881
v 0.441330 8.917474 1.510603
v 0.804224 6.276341 -0.719861
v -0.295051 8.791382 -0.781480
v 2.953918 7.928081 -0.563045
v 1.799973 10.485352 -0.119866
v 3.097382 8.831558 -1.654945
v 1.212957 10.408134 -1.147645
v 1.000956 7.085483 -0.535933
v -0.538886 8.757032 0.489711
v 1.058511 7.233860 -2.054447
v -0.386904 9.373583 -1.446588
v 2.700185 7.778453 0.530888
v 0.853004 9.937291 0.440501
v -0.078682 9.396594 1.775977
v -0.344421 8.711241 -0.926163
v 0.396344 12.060154 1.053694
v 0.130604 11.374800 -1.648447
v 0.538876 10.655474 1.395950
v 0.273137 9.970120 -1.306191
v -0.051269 8.432465 0.192619
v 0.643519 11.644577 -0.316262
v -0.398443 10.467105 0.084855
v -0.776711 9.583622 1.747926
v -1.042451 8.898269 -0.954215
v -0.301686 12.247181 1.025642
v -0.567425 11.561828 -1.676499
v -0.919244 10.988301 1.405669
v -1.184983 10.302948 -1.296472
v -1.368403 9.271795 -0.204597
v -0.814601 11.977404 -0.306543
v -0.247664 10.491317 0.014623
v -1.060332 11.103348 1.401436
v 1.594190 10.815485 2.021793
v -1.060284 10.231705 -0.946036
v 0.754849 9.736325 -1.881948
v -1.977917 9.071758 0.160741
v 0.745200 9.226543 0.474283
v -1.434622 11.710604 -0.178878
v 1.398988 11.791239 -0.357155
v -0.796655 12.339308 0.928745
v 1.489258 11.324921 0.729711
v -1.324455 9.593237 -0.007463
v 0.944586 8.882315 -0.757915
v -1.363921 9.844639 1.498011
v 1.241155 9.464338 1.172313
v -1.350898 11.321508 -1.239563
v 1.380705 10.653850 -0.823140
v -0.735371 8.381719 0.523688
v -1.137397 8.381719 3.295018
v 2.035958 8.381719 0.925714
v 1.633932 8.381719 3.697043
v 0.650293 8.769153 0.724701
v 0.248268 8.769153 3.496030
v -1.486990 8.667198 2.194285
v 1.834945 8.769153 2.311378
v 0.449281 7.949062 2.110365
v -0.676166 7.663178 0.580309
v -1.078191 7.663177 3.351638
v 2.095163 7.663178 0.982335
v 1.693138 7.663178 3.753664
v 0.709499 7.275743 0.781322
v 0.307473 7.275743 3.552651
v -0.860126 7.236619 2.591251
v 1.894151 7.275743 2.368000
v 0.508486 8.095834 2.166987
v 0.796722 7.115906 0.783181
v 0.925019 9.743725 0.013572
v 0.219636 7.394387 3.203884
v 0.174616 9.313734 4.058356
v -1.208719 6.658560 2.292380
v -0.599940 9.285335 1.775584
v 1.506202 6.711525 2.312677
v 2.120041 9.484612 2.283897
v 2.106594 7.165037 1.103150
v 1.554227 9.607924 1.248751
v -0.561292 7.209637 2.358682
v -0.756041 9.605751 3.020383
v -0.498705 7.050237 0.841485
v -0.359212 9.693063 1.023539
v 1.265280 6.918568 3.400126
v 1.060523 9.703402 2.867580
vn 0.4311 0.7747 0.4626
vn -0.2449 0.8464 0.4730
vn 0.2502 0.9410 0.2279
vn -0.2681 0.9341 0.2358
vn -0.2449 0.9285 -0.2790
vn 0.2652 0.8925 -0.3647
vn -0.3661 0.7904 -0.4912
vn 0.4717 0.7650 -0.4385
vn -0.4296 0.7655 -0.4791
vn 0.3374 0.8135 -0.4737
vn -0.2524 0.9450 -0.2082
vn 0.2699 0.9283 -0.2558
vn 0.2467 0.9338 0.2590
vn -0.2583 0.8709 0.4182
vn 0.6137 0.6731 0.4128
vn -0.4701 0.7751 0.4220
vn -0.9945 -0.0218 -0.1025
vn -0.0037 -0.1121 0.9937
vn -0.6001 -0.0703 -0.7969
vn -0.7477 -0.0203 0.6637
vn -0.4511 0.7701 0.4511
vn -0.4926 0.8410 -0.2238
vn -0.2265 0.9387 0.2598
vn -0.2577 0.9312 -0.2577
vn 0.2577 0.9312 -0.2577
vn 0.3667 0.8967 0.2481
vn 0.4658 0.7952 -0.3882
vn 0.4511 0.7701 0.4511
vn 0.4511 0.7701 -0.4511
vn 0.4796 0.8188 0.3154
vn 0.1864 0.9469 -0.2620
vn 0.2577 0.9312 0.2577
vn -0.2577 0.9312 0.2577
vn -0.4387 0.8661 -0.2396
vn -0.3920 0.6692 0.6313
vn -0.4511 0.7701 -0.4511
vn 0.0907 -0.0222 -0.9956
vn -0.9875 -0.0121 0.1574
vn 0.8384 -0.1112 -0.5336
vn -0.6964 -0.0281 -0.7171
vn -0.0657 -0.0197 -0.9976
vn -0.9839 -0.1089 0.1418
vn 0.7030 -0.0402 -0.7100
vn 0.9950 0.0994 -0.0000
vn -0.9448 0.3277 -0.0000
vn -0.0000 0.1270 -0.9919
vn -0.0000 0.3400 0.9404
vn 0.5053 0.7701 -0.3894
vn 0.4597 0.8410 0.2852
vn 0.2580 0.9387 -0.2285
vn 0.2224 0.9312 0.2887
vn -0.2887 0.9312 0.2224
vn -0.3317 0.8967 -0.2932
vn -0.5118 0.7952 0.3251
vn -0.3894 0.7701 -0.5053
vn -0.5053 0.7701 0.3894
vn -0.4351 0.8188 -0.3744
vn -0.2186 0.9469 0.2359
vn -0.2224 0.9312 -0.2887
vn 0.2887 0.9312 -0.2224
vn 0.4043 0.8661 0.2940
vn 0.4698 0.6692 -0.5757
vn 0.3894 0.7701 0.5053
vn -0.1857 -0.0217 0.9824
vn 0.9885 -0.1231 0.0883
vn -0.8450 -0.0623 0.5311
vn 0.5985 -0.0281 0.8006
vn 0.0208 0.8237 0.5666
vn -0.0003 1.0000 -0.0048
vn -0.0264 -0.6995 -0.7141
vn -0.9191 0.2206 0.3265
vn 0.0255 0.7203 0.6932
vn 0.9706 -0.0715 -0.2298
vn 0.8945 -0.0602 -0.4431
vn -0.0027 -0.9971 -0.0756
vn -0.8963 0.2138 0.3885
vn 0.8659 -0.0566 -0.4970
vn -0.0209 -0.8237 -0.5666
vn -0.8075 0.1887 0.5588
vn -0.0271 -0.6760 -0.7364
vn -0.8715 0.0814 -0.4836
vn 0.0280 0.6523 0.7574
vn 0.8938 -0.2276 0.3865
vn 0.0214 -0.8183 0.5745
vn -0.8874 0.0819 -0.4536
vn -0.0178 0.8761 -0.4818
vn 0.7885 -0.2053 0.5798
vn -0.9243 0.0828 -0.3725
vn 0.0207 0.8265 0.5626
vn 0.9148 -0.2318 0.3307
vn -0.0189 -0.8568 -0.5152
vn 0.0324 -0.6901 0.7230
vn 0.9604 0.2394 0.1426
vn -0.0302 0.7364 -0.6759
vn -0.9759 -0.0828 -0.2019
vn -0.0545 0.9982 0.0242
vn -0.4925 -0.0908 -0.8656
vn 0.0341 -0.9951 0.0928
vn 0.5030 0.1967 0.8416
vn 0.5195 0.1423 0.8426
vn 0.0011 -0.9997 0.0261
vn -0.5578 -0.0645 -0.8275
vn 0.0071 0.9880 0.1545
vn 0.9400 0.3034 0.1563
vn -0.0845 0.9952 0.0490
vn -0.9817 -0.1511 -0.1163
vn 0.0711 -0.9975 0.0026
vn 0.0007 -0.9998 0.0195
vn 0.9235 0.0645 -0.3782
vn -0.0068 0.9882 -0.1531
vn -0.9304 -0.2247 0.2894
vn -0.0078 0.9844 -0.1760
vn -0.6854 -0.1572 0.7110
vn 0.0016 -0.9992 0.0394
vn 0.6585 0.0343 -0.7518
vn 0.0311 -0.7204 0.6928
vn 0.8780 0.2237 0.4231
vn -0.0275 0.7883 -0.6147
vn -0.8976 -0.0821 -0.4331
vn -0.9922 -0.0768 0.0985
vn -0.0104 0.9718 -0.2358
vn 0.9681 0.2376 -0.0793
vn 0.0137 -0.9517 0.3068
vn 0.0811 -0.9967 0.0032
vn -0.5641 0.2211 -0.7955
vn -0.0667 0.9976 -0.0170
vn 0.5831 -0.0569 0.8104
vn -0.1501 0.9788 0.1396
vn -0.2930 -0.2626 0.9194
vn 0.2483 -0.9480 -0.1990
vn 0.2470 0.3596 -0.8998
vn 0.2481 0.3061 -0.9191
vn 0.2220 -0.9661 -0.1316
vn -0.2279 -0.2252 0.9473
vn -0.0930 0.9956 0.0079
vn -0.5602 0.2858 -0.7775
vn -0.1119 0.9829 0.1460
vn 0.5855 -0.1266 0.8007
vn 0.1588 -0.9727 -0.1692
vn 0.2174 -0.9678 -0.1271
vn -0.8913 -0.0678 -0.4483
vn -0.3087 0.9262 0.2164
vn 0.8636 -0.1080 0.4925
vn -0.3240 0.9173 0.2314
vn 0.9982 0.0423 0.0435
vn 0.2314 -0.9627 -0.1405
vn -0.9854 -0.1698 -0.0109
vn 0.6327 -0.5437 -0.5514
vn -0.3086 0.2723 -0.9114
vn -0.5918 0.6274 0.5061
vn 0.2852 -0.1360 0.9488
vn 0.5006 -0.0813 0.8618
vn -0.6499 0.5017 0.5708
vn -0.5852 0.2156 -0.7817
vn 0.6675 -0.4524 -0.5914
vn 0.9653 -0.0830 0.2478
vn 0.0088 0.9703 0.2418
vn -0.9297 0.2346 -0.2841
vn -0.0130 -0.9359 -0.3520
vn -0.9598 0.2806 0.0001
vn 0.7100 0.0476 -0.7026
vn -0.7079 0.0698 -0.7029
vn -0.0000 0.1979 0.9802
vn -0.0000 0.0626 -0.9980
vn 1.0000 0.0069 -0.0000
vn 0.7071 -0.0089 0.7070
vn -0.1290 0.4288 -0.8941
vn -0.9993 0.0381 -0.0000
vn 0.8281 0.1925 0.5264
vn 0.9348 0.3244 0.1444
vn -0.0000 -0.0176 0.9998
vn -0.6611 0.3637 -0.6562
vn 0.6297 0.4822 -0.6091
vn -0.8773 0.2010 0.4359
vn -0.9995 0.0301 -0.0000
vn 0.7072 -0.0070 0.7070
vn 0.7103 0.0376 -0.7029
vn -0.7085 0.0550 -0.7035
vn -0.7059 0.0132 0.7082
vn -0.7059 0.0104 0.7082
vn -0.0000 0.0493 -0.9988
vn 1.0000 0.0054 -0.0000
vn -0.0000 -0.0139 0.9999
vn -0.5670 0.8237 -0.0001
vn 0.0048 1.0000 -0.0002
vn 0.4525 -0.8918 -0.0000
vn -0.1163 0.2340 -0.9653
vn -0.3832 0.9237 -0.0002
vn 0.1170 -0.0746 0.9903
vn 0.4097 -0.0602 0.9102
vn 0.0757 -0.9971 -0.0000
vn -0.3551 0.2138 -0.9100
vn 0.4647 -0.0566 0.8837
vn 0.5670 -0.8237 -0.0000
vn -0.5286 0.1887 -0.8276
vn 0.7369 -0.6760 0.0001
vn 0.5155 0.0814 -0.8530
vn -0.7579 0.6523 -0.0000
vn -0.4192 -0.2276 0.8789
vn -0.5749 -0.8183 0.0001
vn 0.4861 0.0819 -0.8701
vn 0.4822 0.8761 -0.0000
vn -0.6085 -0.2053 0.7666
vn 0.4064 0.0828 -0.9100
vn -0.5630 0.8265 -0.0000
vn -0.3643 -0.2318 0.9020
vn 0.5156 -0.8568 0.0001
vn -0.7237 -0.6901 0.0057
vn -0.1779 0.2394 0.9545
vn 0.6765 0.7364 -0.0052
vn 0.2378 -0.0828 -0.9678
vn -0.0221 0.9982 -0.0554
vn 0.8832 -0.0908 -0.4602
vn -0.0940 -0.9951 0.0307
vn -0.8596 0.1967 0.4716
vn -0.8612 0.1423 0.4880
vn -0.0261 -0.9997 0.0002
vn 0.8475 -0.0645 -0.5269
vn -0.1547 0.9880 0.0014
vn -0.0000 0.0468 -0.9989
vn -0.7088 0.0479 -0.7038
vn -0.0000 0.0467 0.9989
vn -0.9989 0.0468 -0.0000
vn -0.7052 0.0479 0.7074
vn 0.7064 0.0479 0.7062
vn 0.9989 0.0467 -0.0000
vn 0.7100 0.0479 -0.7026
vn -0.1909 0.3034 0.9336
vn -0.0458 0.9952 -0.0863
vn 0.1525 -0.1511 -0.9767
vn -0.0053 -0.9975 0.0709
vn -0.0195 -0.9998 -0.0000
vn 0.3439 0.0645 0.9368
vn 0.1532 0.9882 -0.0012
vn -0.2549 -0.2247 -0.9405
vn 0.1761 0.9844 -0.0013
vn -0.6852 -0.1572 -0.7112
vn -0.0395 -0.9992 0.0002
vn 0.7269 0.0343 0.6858
vn -0.6935 -0.7204 0.0055
vn -0.4553 0.2237 0.8618
vn 0.6153 0.7883 -0.0047
vn 0.4659 -0.0821 -0.8810
vn -0.0618 -0.0768 -0.9951
vn 0.2360 0.9718 -0.0017
vn 0.0435 0.2376 0.9704
vn -0.3071 -0.9517 0.0024
vn 0.5441 -0.5074 0.6682
vn 0.8120 0.2195 -0.5408
vn -0.5183 0.5631 -0.6437
vn -0.8773 -0.0800 0.4732
vn -0.1339 0.9788 -0.1552
vn -0.9079 -0.2626 -0.3267
vn 0.1897 -0.9480 0.2555
vn 0.8901 0.3596 0.2801
vn 0.9093 0.3061 0.2819
vn 0.1233 -0.9661 0.2267
vn -0.9382 -0.2252 -0.2627
vn -0.0044 0.9956 -0.0932
vn 0.7977 0.2858 -0.5311
vn -0.1417 0.9829 -0.1172
vn -0.8218 -0.1266 0.5555
vn 0.1633 -0.9727 0.1649
vn 0.1190 -0.9678 0.2220
vn 0.4809 -0.0678 -0.8741
vn -0.2048 0.9262 -0.3165
vn -0.5241 -0.1080 0.8448
vn -0.2193 0.9173 -0.3323
vn -0.0803 0.0423 0.9959
vn 0.1319 -0.9627 0.2364
vn 0.0473 -0.1698 -0.9843
vn 0.5277 -0.5437 0.6526
vn 0.9221 0.2723 -0.2747
vn -0.4839 0.6274 -0.6101
vn -0.9586 -0.1360 0.2500
vn -0.8507 -0.0662 0.5214
vn -0.1539 0.9531 -0.2607
vn 0.8452 0.2341 -0.4804
vn 0.2298 -0.9105 0.3437
vn -0.3023 -0.0831 0.9496
vn -0.3629 0.9318 -0.0002
vn 0.2957 0.2357 -0.9257
vn 0.4335 -0.9012 -0.0000
vn -0.3816 0.7701 -0.5111
vn 0.2922 0.8410 -0.4554
vn -0.2245 0.9387 -0.2614
vn 0.2920 0.9312 -0.2180
vn 0.2180 0.9312 0.2920
vn -0.2982 0.8967 0.3273
vn 0.3173 0.7952 0.5167
vn -0.5111 0.7701 0.3816
vn 0.3816 0.7701 0.5111
vn -0.3810 0.8188 0.4294
vn 0.2325 0.9469 0.2221
vn -0.2920 0.9312 0.2180
vn -0.2180 0.9312 -0.2920
vn 0.3002 0.8661 -0.3998
vn -0.5685 0.6692 -0.4785
vn 0.5111 0.7701 -0.3816
vn 0.9794 -0.0217 0.2006
vn 0.1017 -0.1228 -0.9872
vn 0.5182 -0.0623 0.8530
vn 0.8096 -0.0281 -0.5863
vn 0.7911 0.4607 0.4024
vn 0.2893 0.9083 0.3021
vn 0.7518 0.6481 0.1216
vn 0.3303 0.9423 0.0539
vn 0.3624 0.8187 -0.4454
vn 0.7544 0.4792 -0.4486
vn 0.1899 0.7353 -0.6506
vn 0.8473 0.2443 -0.4716
vn 0.1237 0.7546 -0.6445
vn 0.7692 0.3527 -0.5329
vn 0.3638 0.8506 -0.3797
vn 0.7758 0.5272 -0.3466
vn 0.7437 0.6508 0.1526
vn 0.2948 0.9241 0.2430
vn 0.8794 0.2650 0.3955
vn 0.0675 0.9710 0.2295
vn -0.8099 0.5335 -0.2439
vn -0.1017 0.1178 0.9878
vn -0.4986 0.1255 -0.8577
vn -0.6353 0.5504 0.5417
vn -0.7927 0.4607 -0.3992
vn -0.2905 0.9083 -0.3010
vn -0.7523 0.6481 -0.1186
vn -0.3305 0.9423 -0.0526
vn -0.3606 0.8187 0.4468
vn -0.7526 0.4792 0.4517
vn -0.1873 0.7353 0.6514
vn -0.8454 0.2443 0.4750
vn -0.1210 0.7546 0.6450
vn -0.7670 0.3527 0.5360
vn -0.3623 0.8506 0.3811
vn -0.7744 0.5272 0.3498
vn -0.7443 0.6508 -0.1496
vn -0.2958 0.9241 -0.2418
vn -0.8810 0.2650 -0.3919
vn -0.0684 0.9710 -0.2292
vn 0.8108 0.5335 0.2406
vn 0.0977 0.1178 -0.9882
vn 0.5021 0.1255 0.8557
vn 0.6331 0.5504 -0.5443
vn 0.7217 -0.4635 0.5141
vn 0.9097 0.1752 0.3766
vn 0.8983 -0.3683 0.2398
vn 0.9816 0.1329 0.1368
vn 0.9327 0.0068 -0.3605
vn 0.8027 -0.4944 -0.3335
vn 0.8017 0.1056 -0.5883
vn 0.6361 -0.6843 -0.3564
vn 0.7891 0.1737 -0.5891
vn 0.7042 -0.5714 -0.4214
vn 0.9556 0.0254 -0.2936
vn 0.8453 -0.4834 -0.2276
vn 0.8942 -0.3572 0.2697
vn 0.9318 0.1724 0.3193
vn 0.5866 -0.6304 0.5084
vn 0.8747 0.3945 0.2814
vn 0.1425 0.9392 -0.3122
vn -0.0333 0.2267 0.9734
vn -0.0264 0.4276 -0.9036
vn 0.1601 0.8578 0.4884
vt 1.000000 0.241860
vt 0.812500 0.404651
vt 0.812500 0.232558
vt 0.812500 0.065116
vt 0.621094 0.237209
vt 0.621094 0.065116
vt 0.621094 0.404651
vt 1.000000 0.404651
vt 1.000000 0.065116
vt 1.000000 0.251163
vt 0.796875 0.404651
vt 0.808594 0.237209
vt 0.820312 0.065116
vt 0.621094 0.209302
vt 0.632812 0.046512
vt 0.609375 0.386046
vt 0.988281 0.423256
vt 1.011719 0.083721
vt 1.000000 0.046512
vt 0.996094 0.404651
vt 0.621094 0.400000
vt 0.621094 0.060465
vt 0.617188 0.404651
vt 1.000000 0.051163
vt 0.996094 0.400000
vt 0.621094 0.051163
vt 1.000000 0.041860
vt 0.652344 0.739535
vt 0.656250 0.404651
vt 0.984375 0.400000
vt 0.988281 0.734884
vt 0.937500 0.404651
vt 1.000000 0.725581
vt 0.609375 0.730233
vt 0.707031 0.404651
vt 1.031250 0.734884
vt 0.613281 0.734884
vt 0.707031 0.409302
vt 0.937500 0.409302
vt 0.699219 0.409302
vt 0.929688 0.409302
vt 1.023438 0.734884
vt 0.601562 0.734884
vt 0.816406 0.920930
vt 0.816406 0.925581
vt 0.816406 0.893023
vt 0.804688 0.930233
vt 0.800781 0.883721
vt 0.808594 0.883721
vt 0.808594 0.958140
vt 0.804688 0.962791
vt 0.796875 0.897674
vt 0.812500 0.897674
vt 0.812500 0.962791
vt 0.800781 0.962791
vt 0.781250 0.883721
vt 0.792969 0.897674
vt 0.792969 0.962791
vt 0.781250 0.948837
vt 0.816406 0.897674
vt 0.824219 0.893023
vt 0.824219 0.962791
vt 0.816406 0.962791
vt 0.785156 0.911628
vt 0.796875 0.911628
vt 0.796875 0.972093
vt 0.789062 0.976744
vt 0.773438 0.883721
vt 0.781250 0.962791
vt 0.777344 0.962791
vt 0.796875 0.893023
vt 0.800781 0.893023
vt 0.796875 0.962791
vt 0.792969 0.883721
vt 0.796875 0.958140
vt 0.792969 0.958140
vt 0.820312 0.893023
vt 0.812500 0.893023
vt 0.812500 0.869767
vt 0.820312 0.869767
vt 0.835938 0.916279
vt 0.832031 0.916279
vt 0.832031 0.879070
vt 0.835938 0.879070
vt 0.808594 0.930233
vt 0.812500 0.930233
vt 0.808594 0.962791
vt 0.851562 0.906977
vt 0.855469 0.906977
vt 0.855469 0.925581
vt 0.851562 0.925581
vt 0.824219 0.948837
vt 0.832031 0.948837
vt 0.832031 0.972093
vt 0.824219 0.972093
vt 0.855469 0.934884
vt 0.859375 0.944186
vt 0.859375 0.958140
vt 0.855469 0.958140
vt 0.812500 0.925581
vt 0.800781 0.869767
vt 0.796875 0.869767
vt 0.808594 0.888372
vt 0.812500 0.888372
vt 0.867188 0.934884
vt 0.859375 0.939535
vt 0.859375 0.897674
vt 0.863281 0.897674
vt 0.816406 0.934884
vt 0.812500 0.920930
vt 0.839844 0.893023
vt 0.847656 0.893023
vt 0.843750 0.934884
vt 0.839844 0.934884
vt 0.867188 0.897674
vt 0.871094 0.897674
vt 0.867188 0.930233
vt 0.859375 0.902326
vt 0.863281 0.902326
vt 0.863281 0.920930
vt 0.859375 0.920930
vt 0.761719 0.939535
vt 0.769531 0.939535
vt 0.769531 0.962791
vt 0.781250 0.939535
vt 0.785156 0.934884
vt 0.785156 0.962791
vt 0.851562 0.897674
vt 0.859375 0.948837
vt 0.855469 0.948837
vt 0.804688 0.888372
vt 0.812500 0.939535
vt 0.804688 0.934884
vt 0.847656 0.953488
vt 0.839844 0.948837
vt 0.839844 0.911628
vt 0.847656 0.911628
vt 0.828125 0.897674
vt 0.832031 0.883721
vt 0.832031 0.934884
vt 0.828125 0.939535
vt 0.753906 0.906977
vt 0.757812 0.906977
vt 0.757812 0.930233
vt 0.753906 0.930233
vt 0.804688 0.911628
vt 0.800781 0.911628
vt 0.800781 0.888372
vt 0.808594 0.869767
vt 0.808594 0.893023
vt 0.859375 0.911628
vt 0.863281 0.911628
vt 0.863281 0.930233
vt 0.859375 0.930233
vt 0.875000 0.934884
vt 0.875000 0.958140
vt 0.867188 0.958140
vt 0.769531 0.916279
vt 0.769531 0.906977
vt 0.769531 0.934884
vt 0.855469 0.911628
vt 0.855469 0.893023
vt 0.859375 0.893023
vt 0.812500 0.934884
vt 0.812500 0.958140
vt 0.863281 0.944186
vt 0.839844 0.972093
vt 0.835938 0.972093
vt 0.835938 0.958140
vt 0.839844 0.958140
vt 0.820312 0.976744
vt 0.816406 0.976744
vt 0.816406 0.967442
vt 0.820312 0.967442
vt 0.855469 0.888372
vt 0.859375 0.888372
vt 0.855469 0.902326
vt 0.792969 0.902326
vt 0.796875 0.902326
vt 0.792969 0.925581
vt 0.847656 0.925581
vt 0.851562 0.893023
vt 0.851562 0.972093
vt 0.847656 0.972093
vt 0.847656 0.944186
vt 0.855469 0.962791
vt 0.847656 0.962791
vt 0.828125 0.972093
vt 0.824219 0.976744
vt 0.824219 0.958140
vt 0.828125 0.958140
vt 0.820312 0.953488
vt 0.812500 0.953488
vt 0.820312 0.934884
vt 0.835938 0.976744
vt 0.800781 0.906977
vt 0.796875 0.906977
vt 0.796875 0.888372
vt 0.765625 0.930233
vt 0.750000 0.879070
vt 0.804688 0.948837
vt 0.808594 0.948837
vt 0.808594 0.976744
vt 0.804688 0.976744
vt 0.800781 0.902326
vt 0.796875 0.920930
vt 0.839844 0.953488
vt 0.863281 0.939535
vt 0.851562 0.939535
vt 0.851562 0.888372
vt 0.863281 0.888372
vt 0.835938 0.939535
vt 0.820312 0.939535
vt 0.820312 0.888372
vt 0.832031 0.888372
vt 0.777344 0.888372
vt 0.792969 0.893023
vt 0.792969 0.939535
vt 0.777344 0.939535
vt 0.816406 0.948837
vt 0.832031 0.893023
vt 0.859375 0.925581
vt 0.851562 0.934884
vt 0.785156 0.888372
vt 0.785156 0.916279
vt 0.863281 0.925581
vt 0.867188 0.967442
vt 0.863281 0.967442
vt 0.785156 0.893023
vt 0.792969 0.930233
vt 0.785156 0.865116
vt 0.785156 0.869767
vt 0.859375 0.934884
vt 0.812500 0.972093
vt 0.812500 0.976744
vt 0.812500 0.948837
vt 0.789062 0.888372
vt 0.789062 0.906977
vt 0.785156 0.906977
vt 0.839844 0.906977
vt 0.832031 0.902326
vt 0.871094 0.920930
vt 0.867188 0.925581
vt 0.867188 0.902326
vt 0.871094 0.925581
vt 0.781250 0.916279
vt 0.781250 0.934884
vt 0.820312 0.902326
vt 0.812500 0.967442
vt 0.847656 0.916279
vt 0.851562 0.916279
vt 0.832031 0.939535
vt 0.828125 0.967442
vt 0.808594 0.967442
vt 0.816406 0.939535
vt 0.832031 0.944186
vt 0.847656 0.958140
vt 0.777344 0.893023
vt 0.781250 0.893023
vt 0.781250 0.911628
vt 0.800781 0.916279
vt 0.800781 0.934884
vt 0.843750 0.925581
vt 0.804688 0.869767
vt 0.804688 0.893023
vt 0.824219 0.906977
vt 0.820312 0.906977
vt 0.824219 0.888372
vt 0.761719 0.893023
vt 0.750000 0.902326
vt 0.867188 0.893023
vt 0.867188 0.948837
vt 0.863281 0.962791
vt 0.808594 0.944186
vt 0.800781 0.939535
vt 0.832031 0.962791
vt 0.882812 0.897674
vt 0.882812 0.948837
vt 0.875000 0.948837
vt 0.765625 0.893023
vt 0.781250 0.958140
vt 0.769531 0.958140
vt 0.804688 0.958140
vt 0.863281 0.972093
vt 0.851562 0.962791
vt 0.750000 0.893023
vt 0.765625 0.962791
vt 0.757812 0.972093
vt 0.753906 0.893023
vt 0.777344 0.865116
vt 0.777344 0.902326
vt 0.792969 0.948837
vt 0.796875 0.944186
vt 0.777344 0.967442
vt 0.777344 0.916279
vt 0.785156 0.967442
vt 0.851562 0.948837
vt 0.773438 0.939535
vt 0.765625 0.939535
vt 0.765625 0.888372
vt 0.835938 0.897674
vt 0.792969 0.916279
vt 0.792969 0.967442
vt 0.761719 0.911628
vt 0.789062 0.916279
vt 0.761719 0.874419
vt 0.773438 0.902326
vt 0.785156 0.939535
vt 0.839844 0.897674
vt 0.835938 0.934884
vt 0.804688 0.902326
vt 0.773438 0.916279
vt 0.773438 0.967442
vt 0.765625 0.967442
vt 0.765625 0.916279
vt 0.847656 0.934884
vt 0.843750 0.902326
vt 0.781250 0.976744
vt 0.804688 0.939535
vt 0.792969 0.976744
vt 0.777344 0.976744
vt 0.769531 0.976744
vt 0.753906 0.939535
vt 0.843750 0.967442
vt 0.832031 0.967442
vt 0.828125 0.883721
vt 0.843750 0.883721
vt 0.835938 0.967442
vt 0.816406 0.883721
vt 0.835938 0.883721
vt 0.761719 0.967442
vt 0.761719 0.883721
vt 0.785156 0.883721
vt 0.753906 0.962791
vt 0.753906 0.860465
vt 0.777344 0.860465
vt 0.832031 0.869767
vt 0.839844 0.869767
vt 0.886719 0.888372
vt 0.894531 0.888372
vt 0.894531 0.962791
vt 0.886719 0.962791
vt 0.863281 0.883721
vt 0.871094 0.883721
vt 0.871094 0.967442
vt 0.871094 0.888372
vt 0.871094 0.972093
vt 0.765625 0.874419
vt 0.757812 0.874419
vt 0.859375 0.860465
vt 0.871094 0.860465
vt 0.859375 0.962791
vt 0.769531 0.883721
vt 0.777344 0.883721
vt 0.769531 0.967442
vt 0.835938 0.888372
vt 0.843750 0.888372
vt 0.843750 0.972093
vt 0.851562 0.883721
vt 0.851562 0.967442
vt 0.789062 0.962791
vt 0.875000 0.888372
vt 0.875000 0.962791
vt 0.875000 0.967442
vt 0.871094 0.962791
vt 0.867188 0.888372
vt 0.828125 0.962791
vt 0.820312 0.962791
vt 0.828125 0.888372
vt 0.828125 0.869767
vt 0.835938 0.869767
vt 0.824219 0.967442
vt 0.800781 0.972093
vt 0.781250 0.972093
vt 0.781250 0.888372
vt 0.859375 0.995349
vt 0.843750 0.995349
vt 0.804688 0.860465
vt 0.835938 0.860465
vt 0.804688 0.967442
vt 0.800781 0.967442
vt 0.757812 0.888372
vt 0.804688 0.972093
vt 0.789062 0.967442
vt 0.839844 0.962791
vt 0.796875 0.939535
vt 0.796875 0.879070
vt 0.855469 0.953488
vt 0.851562 0.953488
vt 0.777344 0.906977
vt 0.835938 0.893023
vt 0.851562 0.902326
vt 0.847656 0.967442
vt 0.835938 0.962791
vt 0.800781 0.897674
vt 0.800781 0.948837
vt 0.808594 0.911628
vt 0.800781 0.976744
vt 0.796875 0.976744
vt 0.832031 0.911628
vt 0.828125 0.911628
vt 0.835938 0.920930
vt 0.835938 0.953488
vt 0.832031 0.953488
vt 0.828125 0.948837
vt 0.832031 0.920930
vt 0.855469 0.865116
vt 0.859375 0.865116
vt 0.859375 0.967442
vt 0.816406 0.972093
vt 0.824219 0.879070
vt 0.839844 0.916279
vt 0.804688 0.883721
vt 0.800781 0.925581
vt 0.832031 0.925581
vt 0.839844 0.883721
vt 0.843750 0.916279
vt 0.843750 0.911628
vt 0.843750 0.879070
vt 0.847656 0.939535
vt 0.753906 0.953488
vt 0.792969 0.911628
vt 0.792969 0.888372
vt 0.796875 0.916279
vt 0.820312 0.911628
vt 0.816406 0.906977
vt 0.816406 0.888372
vt 0.839844 0.879070
vt 0.839844 0.902326
vt 0.812500 0.906977
vt 0.761719 0.906977
vt 0.769531 0.986046
vt 0.765625 0.986046
vt 0.781250 0.906977
vt 0.777344 0.986046
vt 0.773438 0.986046
vt 0.785156 0.986046
vt 0.781250 0.986046
vt 0.800781 0.944186
vt 0.859375 0.972093
vt 0.851562 0.944186
vt 0.871094 0.948837
vt 0.875000 0.897674
vt 0.875000 0.930233
vt 0.871094 0.930233
vt 0.820312 0.958140
vt 0.855469 0.883721
vt 0.753906 0.888372
vt 0.843750 0.897674
vt 0.812500 0.911628
vt 0.820312 0.920930
vt 0.843750 0.893023
vt 0.839844 0.939535
vt 0.804688 0.925581
vt 0.828125 0.953488
vt 0.753906 0.981395
vt 0.753906 0.972093
vt 0.757812 0.953488
vt 0.808594 0.906977
vt 0.832031 0.906977
vt 0.824219 0.902326
vt 0.828125 0.879070
vt 0.804688 0.944186
vt 0.800781 0.920930
vt 0.800781 0.930233
vt 0.792969 0.865116
vt 0.820312 0.948837
vt 0.843750 0.958140
vt 0.847656 0.883721
vt 0.828125 0.976744
vt 0.800781 0.953488
vt 0.769531 0.911628
vt 0.761719 0.934884
vt 0.871094 0.976744
vt 0.785156 0.972093
vt 0.828125 0.906977
vt 0.792969 0.972093
vt 0.777344 0.958140
vt 0.886719 0.948837
vt 0.882812 0.883721
s 0
f 6/1/1 8/2/1 9/3/1
f 7/4/2 6/1/2 9/3/2
f 7/4/3 5/5/3 1/6/3
f 5/5/4 8/2/4 3/7/4
f 6/1/5 4/8/5 8/2/5
f 7/4/6 2/9/6 6/1/6
f 7/4/7 9/3/7 5/5/7
f 5/5/8 9/3/8 8/2/8
f 15/10/9 17/11/9 18/12/9
f 16/13/10 15/10/10 18/12/10
f 16/13/11 14/14/11 10/15/11
f 14/14/12 17/11/12 12/16/12
f 15/10/13 13/17/13 17/11/13
f 16/13/14 11/18/14 15/10/14
f 16/13/15 18/12/15 14/14/15
f 14/14/16 18/12/16 17/11/16
f 19/19/17 20/20/17 22/21/17 21/22/17
f 23/22/18 24/19/18 26/8/18 25/23/18
f 27/24/19 28/25/19 30/23/19 29/26/19
f 31/23/20 32/6/20 34/27/20 33/8/20
f 40/1/21 42/2/21 43/3/21
f 41/4/22 40/1/22 43/3/22
f 41/4/23 39/5/23 35/6/23
f 39/5/24 42/2/24 37/7/24
f 40/1/25 38/8/25 42/2/25
f 41/4/26 36/9/26 40/1/26
f 41/4/27 43/3/27 39/5/27
f 39/5/28 43/3/28 42/2/28
f 49/10/29 51/11/29 52/12/29
f 50/13/30 49/10/30 52/12/30
f 50/13/31 48/14/31 44/15/31
f 48/14/32 51/11/32 46/16/32
f 49/10/33 47/17/33 51/11/33
f 50/13/34 45/18/34 49/10/34
f 50/13/35 52/12/35 48/14/35
f 48/14/36 52/12/36 51/11/36
f 53/19/37 54/20/37 56/21/37 55/22/37
f 57/22/38 58/19/38 60/8/38 59/23/38
f 61/23/39 62/22/39 64/19/39 63/20/39
f 65/23/40 66/6/40 68/27/40 67/8/40
f 74/1/21 76/2/21 77/3/21
f 75/4/22 74/1/22 77/3/22
f 75/4/23 73/5/23 69/6/23
f 73/5/24 76/2/24 71/7/24
f 74/1/25 72/8/25 76/2/25
f 75/4/26 70/9/26 74/1/26
f 75/4/27 77/3/27 73/5/27
f 73/5/28 77/3/28 76/2/28
f 83/10/29 85/11/29 86/12/29
f 84/13/30 83/10/30 86/12/30
f 84/13/31 82/14/31 78/15/31
f 82/14/32 85/11/32 80/16/32
f 83/10/33 81/17/33 85/11/33
f 84/13/34 79/18/34 83/10/34
f 84/13/35 86/12/35 82/14/35
f 82/14/36 86/12/36 85/11/36
f 87/19/41 88/20/41 90/21/41 89/22/41
f 91/22/42 92/19/42 94/8/42 93/23/42
f 95/23/43 96/22/43 98/19/43 97/20/43
f 99/23/40 100/6/40 102/27/40 101/8/40
f 103/28/44 104/29/44 106/30/44 105/31/44
f 107/32/45 108/33/45 110/34/45 109/35/45
f 111/36/46 112/37/46 114/38/46 113/39/46
f 115/40/47 116/41/47 118/42/47 117/43/47
f 124/1/48 126/2/48 127/3/48
f 125/4/49 124/1/49 127/3/49
f 125/4/50 123/5/50 119/6/50
f 123/5/51 126/2/51 121/7/51
f 124/1/52 122/8/52 126/2/52
f 125/4/53 120/9/53 124/1/53
f 125/4/54 127/3/54 123/5/54
f 123/5/55 127/3/55 126/2/55
f 133/10/56 135/11/56 136/12/56
f 134/13/57 133/10/57 136/12/57
f 134/13/58 132/14/58 128/15/58
f 132/14/59 135/11/59 130/16/59
f 133/10/60 131/17/60 135/11/60
f 134/13/61 129/18/61 133/10/61
f 134/13/62 136/12/62 132/14/62
f 132/14/63 136/12/63 135/11/63
f 137/19/64 138/20/64 140/21/64 139/22/64
f 141/22/65 142/19/65 144/8/65 143/23/65
f 145/23/66 146/22/66 148/19/66 147/20/66
f 149/23/67 150/6/67 152/27/67 151/8/67
f 163/44/68 162/45/68 166/46/68 167/47/68
f 159/48/69 158/49/69 162/50/69 163/51/69
f 254/52/70 253/53/70 160/54/70 157/55/70
f 253/56/71 255/57/71 159/58/71 160/59/71
f 255/60/72 256/61/72 158/62/72 159/63/72
f 256/64/73 254/65/73 157/66/73 158/67/73
f 158/68/74 157/56/74 161/69/74 162/70/74
f 157/71/75 160/72/75 164/55/75 161/73/75
f 160/74/76 159/48/76 163/75/76 164/76/76
f 162/77/77 161/78/77 165/79/77 166/80/77
f 161/81/78 164/82/78 168/83/78 165/84/78
f 164/85/79 163/86/79 167/47/79 168/87/79
f 162/88/80 163/89/80 171/90/80 170/91/80
f 161/92/81 162/93/81 170/94/81 169/95/81
f 164/96/82 161/97/82 169/98/82 172/99/82
f 163/100/83 164/100/83 172/101/83 171/102/83
f 158/103/84 159/104/84 175/100/84 174/85/84
f 157/105/85 158/106/85 174/107/85 173/108/85
f 160/104/86 157/77/86 173/109/86 176/110/86
f 159/111/87 160/112/87 176/113/87 175/114/87
f 173/115/88 174/116/88 178/117/88 177/117/88
f 176/118/89 173/119/89 177/120/89 180/121/89
f 175/122/90 176/123/90 180/124/90 179/124/90
f 174/125/91 175/126/91 179/127/91 178/127/91
f 214/128/92 213/107/92 188/129/92 185/130/92
f 213/131/93 215/78/93 187/132/93 188/133/93
f 215/134/94 216/135/94 186/136/94 187/137/94
f 216/138/95 214/139/95 185/140/95 186/141/95
f 194/142/96 195/143/96 190/144/96 191/145/96
f 195/146/97 196/147/97 189/148/97 190/131/97
f 196/149/98 193/79/98 192/78/98 189/150/98
f 193/151/99 194/152/99 191/153/99 192/154/99
f 188/105/100 187/155/100 194/156/100 193/157/100
f 185/158/101 188/159/101 193/160/101 196/123/101
f 186/151/102 185/161/102 196/162/102 195/163/102
f 187/164/103 186/164/103 195/165/103 194/165/103
f 192/166/104 191/97/104 199/154/104 200/153/104
f 191/167/105 190/168/105 198/169/105 199/170/105
f 190/171/106 189/172/106 197/173/106 198/174/106
f 189/175/107 192/176/107 200/118/107 197/177/107
f 186/178/108 187/179/108 203/180/108 202/180/108
f 185/90/109 186/181/109 202/112/109 201/182/109
f 188/183/110 185/184/110 201/185/110 204/185/110
f 187/186/111 188/187/111 204/181/111 203/91/111
f 204/188/112 201/189/112 205/190/112 208/191/112
f 203/192/113 204/193/113 208/164/113 207/194/113
f 202/169/114 203/169/114 207/195/114 206/168/114
f 201/196/115 202/197/115 206/198/115 205/198/115
f 201/144/116 204/199/116 212/200/116 209/200/116
f 204/201/117 203/202/117 211/203/117 212/204/117
f 203/179/118 202/205/118 210/206/118 211/206/118
f 202/207/119 201/134/119 209/184/119 210/167/119
f 184/208/120 183/209/120 214/210/120 216/211/120
f 181/212/121 184/213/121 216/214/121 215/215/121
f 182/216/122 181/217/122 215/218/122 213/219/122
f 183/93/123 182/220/123 213/46/123 214/221/123
f 250/128/124 249/163/124 224/222/124 221/223/124
f 249/108/125 251/224/125 223/225/125 224/226/125
f 251/227/126 252/228/126 222/153/126 223/117/126
f 252/229/127 250/216/127 221/230/127 222/231/127
f 230/232/128 231/232/128 226/229/128 227/229/128
f 231/161/129 232/151/129 225/233/129 226/96/129
f 232/234/130 229/235/130 228/236/130 225/236/130
f 229/224/131 230/237/131 227/238/131 228/239/131
f 224/240/132 223/241/132 230/83/132 229/84/132
f 221/242/133 224/243/133 229/244/133 232/116/133
f 222/177/134 221/118/134 232/222/134 231/90/134
f 223/245/135 222/242/135 231/116/135 230/116/135
f 228/226/136 227/246/136 235/247/136 236/166/136
f 227/248/137 226/248/137 234/214/137 235/214/137
f 226/172/138 225/235/138 233/249/138 234/173/138
f 225/250/139 228/251/139 236/91/139 233/181/139
f 222/141/140 223/252/140 239/253/140 238/253/140
f 221/173/141 222/254/141 238/132/141 237/255/141
f 224/256/142 221/114/142 237/167/142 240/168/142
f 223/99/143 224/257/143 240/223/143 239/223/143
f 240/190/144 237/190/144 241/95/144 244/189/144
f 239/258/145 240/259/145 244/260/145 243/260/145
f 238/261/146 239/261/146 243/262/146 242/262/146
f 237/181/147 238/263/147 242/250/147 241/250/147
f 237/92/148 240/92/148 248/95/148 245/95/148
f 240/264/149 239/149/149 247/150/149 248/265/149
f 239/266/150 238/267/150 246/268/150 247/268/150
f 238/269/151 237/200/151 245/270/151 246/270/151
f 220/118/152 219/271/152 250/272/152 252/273/152
f 217/48/153 220/49/153 252/274/153 251/275/153
f 218/61/154 217/241/154 251/276/154 249/92/154
f 219/116/155 218/277/155 249/278/155 250/279/155
f 156/280/156 155/259/156 254/281/156 256/282/156
f 153/283/157 156/76/157 256/71/157 255/265/157
f 154/182/158 153/116/158 255/284/158 253/285/158
f 155/286/159 154/280/159 253/287/159 254/288/159
f 258/289/160 279/199/160 292/290/160 261/291/160
f 271/292/161 297/57/161 304/71/161 272/293/161
f 263/294/162 285/295/162 291/225/162 264/296/162
f 266/255/163 310/297/163 273/183/163 257/172/163
f 285/216/164 263/298/164 272/299/164 304/300/164
f 297/301/165 271/169/165 268/191/165 316/138/165
f 267/296/166 309/225/166 316/302/166 268/303/166
f 262/304/167 286/305/167 303/229/167 269/306/167
f 280/46/168 259/220/168 264/202/168 291/265/168
f 310/219/169 266/307/169 265/178/169 315/308/169
f 270/309/170 298/310/170 315/133/170 265/311/170
f 309/312/171 267/313/171 260/314/171 274/315/171
f 286/316/172 262/317/172 261/118/172 292/233/172
f 298/318/173 270/219/173 269/319/173 303/320/173
f 257/219/174 273/321/174 279/322/174 258/323/174
f 280/324/168 291/325/168 293/326/168 284/327/168
f 284/328/168 293/174/168 294/329/168 283/330/168
f 283/253/168 294/249/168 295/49/168 282/326/168
f 282/296/168 295/331/168 296/332/168 281/333/168
f 281/70/175 296/334/175 292/335/175 279/336/175
f 310/337/176 315/338/176 317/167/176 314/94/176
f 314/339/166 317/340/166 318/341/166 313/342/166
f 313/343/166 318/344/166 319/345/166 312/228/166
f 312/211/166 319/346/166 320/347/166 311/284/166
f 311/284/166 320/347/166 316/348/166 309/349/166
f 298/350/177 303/351/177 305/136/177 302/352/177
f 302/353/161 305/354/161 306/294/161 301/355/161
f 301/49/161 306/329/161 307/173/161 300/254/161
f 300/356/161 307/357/161 308/358/161 299/168/161
f 299/327/161 308/359/161 304/360/161 297/324/161
f 286/80/178 292/337/178 296/94/178 290/95/178
f 290/237/162 296/198/162 295/73/162 289/361/162
f 289/198/162 295/103/162 294/87/162 288/73/162
f 288/362/162 294/339/162 293/342/162 287/363/162
f 287/359/162 293/343/162 291/228/162 285/360/162
f 274/364/179 280/365/179 284/366/179 278/362/179
f 278/273/179 284/186/179 283/175/179 277/211/179
f 277/367/179 283/368/179 282/214/179 276/369/179
f 276/368/179 282/54/179 281/104/179 275/214/179
f 275/168/180 281/188/180 279/370/180 273/371/180
f 285/187/164 304/276/164 308/215/164 287/210/164
f 287/372/164 308/254/164 307/49/164 288/326/164
f 288/373/164 307/374/164 306/375/164 289/148/164
f 289/376/164 306/377/164 305/136/164 290/152/164
f 290/276/181 305/87/181 303/378/181 286/379/181
f 297/168/165 316/95/165 320/268/165 299/356/165
f 299/380/165 320/303/165 319/74/165 300/49/165
f 300/381/165 319/294/165 318/354/165 301/48/165
f 301/374/165 318/288/165 317/382/165 302/375/165
f 302/51/182 317/70/182 315/336/182 298/378/182
f 309/284/171 274/184/171 278/357/171 311/211/171
f 311/324/171 278/325/171 277/326/171 312/327/171
f 312/95/171 277/383/171 276/148/171 313/268/171
f 313/254/171 276/384/171 275/333/171 314/49/171
f 314/352/183 275/385/183 273/379/183 310/350/183
f 274/131/179 260/319/179 259/386/179 280/387/179
f 331/86/184 330/86/184 334/54/184 335/54/184
f 327/388/185 326/389/185 330/210/185 331/210/185
f 430/318/186 429/322/186 328/159/186 325/390/186
f 429/391/187 431/392/187 327/393/187 328/394/187
f 431/395/188 432/78/188 326/202/188 327/396/188
f 432/75/189 430/127/189 325/239/189 326/57/189
f 326/76/190 325/281/190 329/259/190 330/229/190
f 325/280/191 328/258/191 332/124/191 329/287/191
f 328/65/192 327/397/192 331/398/192 332/399/192
f 330/369/193 329/215/193 333/400/193 334/401/193
f 329/82/194 332/402/194 336/403/194 333/404/194
f 332/93/195 331/405/195 335/401/195 336/406/195
f 330/407/196 331/408/196 339/176/196 338/176/196
f 329/252/197 330/252/197 338/276/197 337/276/197
f 332/97/198 329/166/198 337/409/198 340/409/198
f 331/236/199 332/220/199 340/410/199 339/235/199
f 326/243/200 327/153/200 343/211/200 342/366/200
f 325/337/201 326/411/201 342/412/201 341/240/201
f 328/48/202 325/413/202 341/414/202 344/414/202
f 327/263/203 328/415/203 344/416/203 343/327/203
f 341/327/204 342/327/204 346/417/204 345/417/204
f 344/418/205 341/136/205 345/419/205 348/419/205
f 343/220/206 344/236/206 348/100/206 347/45/206
f 342/186/207 343/285/207 347/223/207 346/96/207
f 390/406/208 389/412/208 356/268/208 353/214/208
f 389/357/209 391/182/209 355/420/209 356/113/209
f 391/114/210 392/140/210 354/391/210 355/111/210
f 392/401/211 390/136/211 353/207/211 354/169/211
f 362/421/212 363/421/212 358/145/212 359/144/212
f 363/65/213 364/422/213 357/423/213 358/198/213
f 364/424/214 361/65/214 360/386/214 357/386/214
f 361/425/215 362/426/215 359/427/215 360/214/215
f 356/181/216 355/90/216 362/428/216 361/83/216
f 353/246/217 356/239/217 361/126/217 364/126/217
f 354/317/218 353/429/218 364/428/218 363/419/218
f 355/53/219 354/430/219 363/164/219 362/86/219
f 272/431/220 263/159/220 367/432/220 372/433/220
f 263/111/221 264/182/221 368/184/221 367/167/221
f 260/159/222 267/434/222 369/435/222 366/436/222
f 264/434/223 259/238/223 365/437/223 368/438/223
f 259/78/224 260/46/224 366/410/224 365/410/224
f 267/46/225 268/221/225 370/94/225 369/410/225
f 268/391/226 271/111/226 371/167/226 370/168/226
f 271/72/227 272/78/227 372/234/227 371/383/227
f 360/246/228 359/225/228 375/126/228 376/247/228
f 359/205/229 358/196/229 374/148/229 375/148/229
f 358/254/230 357/254/230 373/203/230 374/203/230
f 357/414/231 360/414/231 376/439/231 373/439/231
f 354/113/232 355/185/232 379/184/232 378/358/232
f 353/440/233 354/183/233 378/441/233 377/441/233
f 356/243/234 353/245/234 377/442/234 380/442/234
f 355/116/235 356/443/235 380/444/235 379/445/235
f 380/446/236 377/190/236 381/95/236 384/171/236
f 379/259/237 380/229/237 384/64/237 383/64/237
f 378/195/238 379/188/238 383/169/238 382/169/238
f 377/223/239 378/316/239 382/181/239 381/91/239
f 377/213/240 380/141/240 388/367/240 385/368/240
f 380/202/241 379/236/241 387/203/241 388/203/241
f 379/89/242 378/392/242 386/447/242 387/447/242
f 378/136/243 377/418/243 385/263/243 386/263/243
f 352/448/244 351/300/244 390/299/244 392/323/244
f 349/389/245 352/403/245 392/309/245 391/449/245
f 350/174/246 349/50/246 391/450/246 389/425/246
f 351/49/247 350/326/247 389/213/247 390/132/247
f 426/110/248 425/451/248 400/103/248 397/131/248
f 425/356/249 427/452/249 399/453/249 400/310/249
f 427/454/250 428/100/250 398/198/250 399/423/250
f 428/425/251 426/401/251 397/455/251 398/190/251
f 406/456/252 407/457/252 402/421/252 403/458/252
f 407/131/253 408/103/253 401/459/253 402/146/253
f 408/87/254 405/254/254 404/274/254 401/274/254
f 405/207/255 406/207/255 403/167/255 404/167/255
f 400/460/256 399/461/256 406/411/256 405/462/256
f 397/212/257 400/256/257 405/406/257 408/81/257
f 398/90/258 397/222/258 408/419/258 407/428/258
f 399/65/259 398/65/259 407/198/259 406/198/259
f 404/463/260 403/439/260 411/414/260 412/454/260
f 403/223/261 402/223/261 410/91/261 411/91/261
f 402/235/262 401/203/262 409/254/262 410/249/262
f 401/206/263 404/464/263 412/386/263 409/386/263
f 398/465/264 399/466/264 415/237/264 414/224/264
f 397/189/265 398/172/265 414/220/265 413/467/265
f 400/468/266 397/167/266 413/114/266 416/114/266
f 399/251/267 400/417/267 416/469/267 415/359/267
f 416/188/268 413/470/268 417/191/268 420/191/268
f 415/208/269 416/106/269 420/121/269 419/120/269
f 414/471/270 415/396/270 419/262/270 418/262/270
f 413/263/271 414/263/271 418/417/271 417/417/271
f 413/255/272 416/213/272 424/368/272 421/368/272
f 416/96/273 415/233/273 423/130/273 424/130/273
f 415/431/274 414/472/274 422/473/274 423/473/274
f 414/102/275 413/101/275 421/148/275 422/148/275
f 396/393/276 395/325/276 426/310/276 428/181/276
f 393/172/277 396/383/277 428/319/277 427/132/277
f 394/474/278 393/183/278 427/209/278 425/208/278
f 395/137/279 394/151/279 425/441/279 426/185/279
f 324/475/280 323/322/280 430/472/280 432/260/280
f 321/53/281 324/476/281 432/62/281 431/54/281
f 322/258/282 321/52/282 431/477/282 429/478/282
f 323/479/283 322/365/283 429/344/283 430/480/283
f 438/1/284 440/2/284 441/3/284
f 439/4/285 438/1/285 441/3/285
f 439/4/286 437/5/286 433/6/286
f 437/5/287 440/2/287 435/7/287
f 438/1/288 436/8/288 440/2/288
f 439/4/289 434/9/289 438/1/289
f 439/4/290 441/3/290 437/5/290
f 437/5/291 441/3/291 440/2/291
f 447/10/292 449/11/292 450/12/292
f 448/13/293 447/10/293 450/12/293
f 448/13/294 446/14/294 442/15/294
f 446/14/295 449/11/295 444/16/295
f 447/10/296 445/17/296 449/11/296
f 448/13/297 443/18/297 447/10/297
f 448/13/298 450/12/298 446/14/298
f 446/14/299 450/12/299 449/11/299
f 451/19/300 452/20/300 454/21/300 453/22/300
f 455/22/301 456/19/301 458/8/301 457/23/301
f 459/23/302 460/22/302 462/19/302 461/20/302
f 463/23/303 464/6/303 466/27/303 465/8/303
f 472/1/304 474/2/304 475/3/304
f 473/4/305 472/1/305 475/3/305
f 473/4/306 471/5/306 467/6/306
f 471/5/307 474/2/307 469/7/307
f 472/1/308 470/8/308 474/2/308
f 473/4/309 468/9/309 472/1/309
f 473/4/310 475/3/310 471/5/310
f 471/5/311 475/3/311 474/2/311
f 481/10/312 483/11/312 484/12/312
f 482/13/313 481/10/313 484/12/313
f 482/13/314 480/14/314 476/15/314
f 480/14/315 483/11/315 478/16/315
f 481/10/316 479/17/316 483/11/316
f 482/13/317 477/18/317 481/10/317
f 482/13/318 484/12/318 480/14/318
f 480/14/319 484/12/319 483/11/319
f 485/19/320 486/20/320 488/21/320 487/22/320
f 489/22/321 490/19/321 492/8/321 491/23/321
f 493/23/322 494/22/322 496/19/322 495/20/322
f 497/23/323 498/6/323 500/27/323 499/8/323
f 506/1/324 508/2/324 509/3/324
f 507/4/325 506/1/325 509/3/325
f 507/4/326 505/5/326 501/6/326
f 505/5/327 508/2/327 503/7/327
f 506/1/328 504/8/328 508/2/328
f 507/4/329 502/9/329 506/1/329
f 507/4/330 509/3/330 505/5/330
f 505/5/331 509/3/331 508/2/331
f 515/10/332 517/11/332 518/12/332
f 516/13/333 515/10/333 518/12/333
f 516/13/334 514/14/334 510/15/334
f 514/14/335 517/11/335 512/16/335
f 515/10/336 513/17/336 517/11/336
f 516/13/337 511/18/337 515/10/337
f 516/13/338 518/12/338 514/14/338
f 514/14/339 518/12/339 517/11/339
f 519/19/340 520/20/340 522/21/340 521/22/340
f 523/22/341 524/19/341 526/8/341 525/23/341
f 527/23/342 528/22/342 530/19/342 529/20/342
f 531/23/343 532/6/343 534/27/343 533/8/343
f 540/1/344 542/2/344 543/3/344
f 541/4/345 540/1/345 543/3/345
f 541/4/346 539/5/346 535/6/346
f 539/5/347 542/2/347 537/7/347
f 540/1/348 538/8/348 542/2/348
f 541/4/349 536/9/349 540/1/349
f 541/4/350 543/3/350 539/5/350
f 539/5/351 543/3/351 542/2/351
f 549/10/352 551/11/352 552/12/352
f 550/13/353 549/10/353 552/12/353
f 550/13/354 548/14/354 544/15/354
f 548/14/355 551/11/355 546/16/355
f 549/10/356 547/17/356 551/11/356
f 550/13/357 545/18/357 549/10/357
f 550/13/358 552/12/358 548/14/358
f 548/14/359 552/12/359 551/11/359
f 553/19/360 554/20/360 556/21/360 555/22/360
f 557/22/361 558/19/361 560/8/361 559/23/361
f 561/23/362 562/22/362 564/19/362 563/20/362
f 565/23/363 566/6/363 568/27/363 567/8/363
f 574/1/284 576/2/284 577/3/284
f 575/4/285 574/1/285 577/3/285
f 575/4/286 573/5/286 569/6/286
f 573/5/287 576/2/287 571/7/287
f 574/1/288 572/8/288 576/2/288
f 575/4/289 570/9/289 574/1/289
f 575/4/290 577/3/290 573/5/290
f 573/5/291 577/3/291 576/2/291
f 583/10/292 585/11/292 586/12/292
f 584/13/293 583/10/293 586/12/293
f 584/13/294 582/14/294 578/15/294
f 582/14/295 585/11/295 580/16/295
f 583/10/296 581/17/296 585/11/296
f 584/13/297 579/18/297 583/10/297
f 584/13/298 586/12/298 582/14/298
f 582/14/299 586/12/299 585/11/299
f 587/19/300 588/20/300 590/21/300 589/22/300
f 591/22/301 592/19/301 594/8/301 593/23/301
f 595/23/302 596/22/302 598/19/302 597/20/302
f 599/23/303 600/6/303 602/27/303 601/8/303
