# Blender 4.2.1 LTS
# www.blender.org
o Bridge
v -96.245361 8.474315 -78.823410
v -96.185486 10.475127 -78.841187
v -96.686440 8.455628 -82.412102
v -96.626564 10.456442 -82.429878
v -96.159889 8.477936 -78.127998
v -96.100014 10.478748 -78.145775
v -96.712036 10.452820 -83.125290
v -96.771912 8.452008 -83.107513
v -96.602264 11.268425 -82.437096
v -96.161186 11.287111 -78.848396
v -96.687744 11.264805 -83.132507
v -96.075714 11.290732 -78.152992
v -94.145164 8.376809 -82.724037
v -94.085289 10.377622 -82.741814
v -93.704086 8.395495 -79.135338
v -93.644211 10.396308 -79.153122
v -94.230637 8.373188 -83.419449
v -94.170761 10.374001 -83.437225
v -93.618614 8.399117 -78.439934
v -93.558739 10.399929 -78.457710
v -94.060989 11.189606 -82.749031
v -93.619911 11.208292 -79.160332
v -94.146461 11.185985 -83.444435
v -93.534439 11.211912 -78.464920
v -94.058090 10.378774 -82.520538
v -93.671410 10.395156 -79.374390
v -96.686440 5.427162 -82.412102
v -96.245361 5.445848 -78.823410
v -94.145164 5.348342 -82.724037
v -94.230637 6.407582 -83.419449
v -96.771912 6.486402 -83.107513
v -96.159889 6.512329 -78.127998
v -93.704086 5.367028 -79.135345
v -93.618614 6.433510 -78.439934
v -95.848450 0.120820 -82.412102
v -95.655243 0.139506 -78.823410
v -94.735283 0.042000 -82.724037
v -94.542076 0.060686 -79.135338
v -91.742172 10.326172 -83.423660
v -94.283447 10.404991 -83.111725
v -94.343323 8.404179 -83.093948
v -91.802048 8.325359 -83.405884
v -93.821831 10.424547 -79.355927
v -91.280556 10.345728 -79.667862
v -91.340424 8.344915 -79.650085
v -93.881699 8.423735 -79.338150
v -91.667236 10.329346 -82.814003
v -94.208511 10.408166 -82.502075
v -94.268394 8.407352 -82.484291
v -91.727112 8.328533 -82.796227
v -93.806770 8.426908 -78.728493
v -91.265495 8.348089 -79.040428
v -91.205620 10.348902 -79.058205
v -93.746902 10.427722 -78.746269
v -94.184219 10.734100 -82.509285
v -91.642944 10.655280 -82.821220
v -91.256256 10.671662 -79.675072
v -93.797531 10.750482 -79.363144
v -94.259148 10.730926 -83.118942
v -91.717873 10.652105 -83.430878
v -91.181320 10.674836 -79.065422
v -93.722595 10.753656 -78.753487
v -91.727463 8.334188 -79.377968
v -91.667587 10.335001 -79.395744
v -92.168549 8.315502 -82.966660
v -92.108673 10.316315 -82.984436
v -91.641991 8.337810 -78.682556
v -91.582115 10.338622 -78.700333
v -92.194145 10.312695 -83.679848
v -92.254013 8.311882 -83.662071
v -92.084373 11.128299 -82.991653
v -91.643288 11.146985 -79.402954
v -92.169846 11.124678 -83.687065
v -91.557816 11.150606 -78.707550
v -89.627266 8.236683 -83.278595
v -89.567390 10.237495 -83.296371
v -89.186188 8.255369 -79.689896
v -89.126312 10.256182 -79.707672
v -89.712738 8.233062 -83.974007
v -89.652863 10.233874 -83.991783
v -89.100716 8.258990 -78.994492
v -89.040840 10.259802 -79.012268
v -89.543091 11.049479 -83.303589
v -89.102013 11.068165 -79.714890
v -89.628563 11.045858 -83.998993
v -89.016541 11.071786 -79.019478
v -89.540199 10.238647 -83.075096
v -89.153511 10.255030 -79.928947
v -92.168549 5.287035 -82.966660
v -91.727463 5.305721 -79.377968
v -89.627266 5.208216 -83.278595
v -89.712738 6.267456 -83.974007
v -92.254013 6.346275 -83.662071
v -91.641991 6.372203 -78.682556
v -89.186188 5.226902 -79.689896
v -89.100716 6.293384 -78.994492
v -91.330551 -0.019306 -82.966660
v -91.137344 -0.000620 -79.377968
v -90.217384 -0.098126 -83.278595
v -90.024178 -0.079440 -79.689896
v -87.224274 10.186046 -83.978218
v -89.765549 10.264865 -83.666283
v -89.825424 8.264052 -83.648506
v -87.284149 8.185232 -83.960442
v -89.303932 10.284421 -79.910484
v -86.762657 10.205602 -80.222420
v -86.822525 8.204788 -80.204636
v -89.363808 8.283608 -79.892708
v -87.149345 10.189220 -83.368561
v -89.690620 10.268040 -83.056633
v -89.750496 8.267226 -83.038849
v -87.209213 8.188407 -83.350784
v -89.288872 8.286782 -79.283051
v -86.747597 8.207963 -79.594986
v -86.687721 10.208776 -79.612762
v -89.229004 10.287596 -79.300827
v -89.666321 10.593973 -83.063843
v -87.125046 10.515154 -83.375778
v -86.738358 10.531536 -80.229630
v -89.279633 10.610355 -79.917694
v -89.741249 10.590799 -83.673500
v -87.199974 10.511980 -83.985435
v -86.663422 10.534710 -79.619980
v -89.204704 10.613529 -79.308044
v -85.473763 8.098394 -80.309746
v -84.657524 9.897619 -80.631760
v -85.102394 7.302189 -83.817139
v -84.286148 9.101415 -84.139145
v -85.545731 8.252681 -79.630089
v -84.729492 10.051907 -79.952103
v -84.214188 8.947127 -84.818802
v -85.030426 7.147902 -84.496788
v -83.954903 9.831589 -84.269829
v -84.326271 10.627794 -80.762436
v -83.882935 9.677301 -84.949486
v -84.398239 10.782082 -80.082787
v -82.778297 6.331322 -83.350655
v -81.962051 8.130548 -83.672668
v -83.149666 7.127527 -79.843269
v -82.333427 8.926753 -80.165283
v -82.706329 6.177035 -84.030312
v -81.890091 7.976261 -84.352325
v -83.221634 7.281815 -79.163612
v -82.405396 9.081040 -79.485626
v -81.630806 8.860723 -83.803352
v -82.002174 9.656927 -80.295959
v -81.558838 8.706435 -84.483009
v -82.074142 9.811214 -79.616310
v -86.250511 4.542734 -83.328415
v -86.621887 5.338939 -79.821030
v -83.926414 3.571868 -82.861938
v -83.451508 4.386029 -83.713112
v -85.775604 5.356895 -84.179588
v -86.290909 6.461674 -79.312889
v -84.297791 4.368073 -79.354553
v -83.966812 5.490808 -78.846413
v -87.508179 -0.562316 -82.225586
v -87.981415 0.121123 -78.717529
v -86.469070 -1.072951 -82.179237
v -87.063469 -0.196864 -78.744766
v -82.576553 0.848753 -75.140739
v -84.319321 2.345529 -76.273888
v -84.934731 0.793212 -77.377853
v -83.191963 -0.703563 -76.244705
v -86.836845 1.440331 -73.597656
v -85.094078 -0.056446 -72.464508
v -85.709488 -1.608763 -73.568474
v -87.452255 -0.111987 -74.701622
v -82.985207 0.701818 -74.706322
v -84.727974 2.198593 -75.839470
v -85.343384 0.646278 -76.943436
v -83.600616 -0.850499 -75.810287
v -87.860909 -0.258923 -74.267204
v -86.118141 -1.755699 -73.134056
v -85.502731 -0.203380 -72.030090
v -87.245499 1.293396 -73.163239
v -84.615730 2.443697 -75.654533
v -82.872971 0.946922 -74.521385
v -84.981842 0.188658 -72.279572
v -86.724602 1.685433 -73.412720
v -84.207085 2.590632 -76.088951
v -82.464317 1.093856 -74.955803
v -85.390495 0.041722 -71.845154
v -87.133255 1.538498 -72.978302
v -82.456779 8.046652 -80.515915
v -82.396904 10.047464 -80.533691
v -82.897858 8.027966 -84.104607
v -82.837982 10.028778 -84.122383
v -82.371307 8.050273 -79.820503
v -82.311432 10.051085 -79.838280
v -82.923454 10.025158 -84.817795
v -82.983330 8.024345 -84.800018
v -82.813683 10.840762 -84.129601
v -82.372604 10.859448 -80.540901
v -82.899155 10.837141 -84.825012
v -82.287132 10.863070 -79.845490
v -80.356583 7.949146 -84.416542
v -80.296707 9.949959 -84.434319
v -79.915497 7.967833 -80.827843
v -79.855621 9.968645 -80.845619
v -80.442055 7.945526 -85.111954
v -80.382179 9.946338 -85.129730
v -79.830025 7.971453 -80.132439
v -79.770157 9.972265 -80.150215
v -80.272408 10.761943 -84.441536
v -79.831329 10.780629 -80.852837
v -80.357880 10.758322 -85.136940
v -79.745857 10.784250 -80.157425
v -80.269508 9.951111 -84.213043
v -79.882820 9.967493 -81.066895
v -82.897858 4.999499 -84.104607
v -82.456779 5.018185 -80.515915
v -80.356583 4.920679 -84.416542
v -80.442055 5.979919 -85.111954
v -82.983330 6.058739 -84.800018
v -82.371307 6.084666 -79.820503
v -79.915497 4.939365 -80.827843
v -79.830025 6.005847 -80.132439
v -82.059860 -0.306843 -84.104607
v -81.866653 -0.288157 -80.515915
v -80.946693 -0.385663 -84.416542
v -80.753487 -0.366977 -80.827843
v -77.953583 9.898509 -85.116165
v -80.494858 9.977328 -84.804230
v -80.554741 7.976516 -84.786453
v -78.013458 7.897696 -85.098389
v -80.033241 9.996884 -81.048431
v -77.491966 9.918065 -81.360367
v -77.551842 7.917252 -81.342590
v -80.093117 7.996072 -81.030655
v -77.878654 9.901684 -84.506508
v -80.419930 9.980503 -84.194580
v -80.479805 7.979690 -84.176804
v -77.938530 7.900870 -84.488731
v -80.018188 7.999246 -80.420998
v -77.476913 7.920426 -80.732933
v -77.417038 9.921240 -80.750710
v -79.958313 10.000059 -80.438774
v -80.395630 10.306437 -84.201790
v -77.854355 10.227617 -84.513725
v -77.467667 10.243999 -81.367577
v -80.008942 10.322819 -81.055641
v -80.470566 10.303263 -84.811447
v -77.929291 10.224443 -85.123383
v -77.392738 10.247173 -80.757927
v -79.934013 10.325993 -80.445992
v -77.794312 7.902042 -81.088219
v -77.734436 9.902854 -81.105995
v -78.235390 7.883356 -84.676910
v -78.175514 9.884168 -84.694687
v -77.708839 7.905663 -80.392807
v -77.648964 9.906475 -80.410583
v -78.260986 9.880547 -85.390099
v -78.320862 7.879735 -85.372322
v -78.151215 10.696152 -84.701904
v -77.710136 10.714838 -81.113205
v -78.236687 10.692532 -85.397308
v -77.624664 10.718459 -80.417793
v -75.694107 7.804536 -84.988846
v -75.634232 9.805348 -85.006622
v -75.253029 7.823222 -81.400146
v -75.193153 9.824035 -81.417923
v -75.779579 7.800915 -85.684258
v -75.719711 9.801727 -85.702034
v -75.167557 7.826843 -80.704735
v -75.107681 9.827656 -80.722519
v -75.609940 10.617332 -85.013840
v -75.168854 10.636019 -81.425140
v -75.695412 10.613711 -85.709244
v -75.083389 10.639639 -80.729729
v -75.607040 9.806500 -84.785347
v -75.220352 9.822882 -81.639198
v -78.235390 4.854889 -84.676910
v -77.794312 4.873575 -81.088219
v -75.694115 4.776070 -84.988846
v -75.779587 5.835309 -85.684258
v -78.320862 5.914128 -85.372322
v -77.708839 5.940056 -80.392807
v -75.253029 4.794755 -81.400146
v -75.167557 5.861237 -80.704735
v -77.397392 -0.451453 -84.676910
v -77.204185 -0.432767 -81.088211
v -76.284225 -0.530272 -84.988846
v -76.091019 -0.511587 -81.400146
vn -0.9921 0.0308 0.1218
vn 0.9925 -0.0000 -0.1220
vn 0.0299 0.9995 -0.0089
vn 0.1220 0.0052 0.9925
vn -0.1220 -0.0052 -0.9925
vn 0.9921 -0.0308 -0.1218
vn 0.9924 -0.0205 -0.1217
vn -0.0299 -0.9995 0.0089
vn 0.9918 -0.0410 -0.1212
vn -0.0298 -0.9995 0.0098
vn -0.0297 -0.9995 0.0105
vn -0.0298 -0.9995 0.0101
vn -0.0303 -0.9995 0.0056
vn -0.9925 -0.0000 0.1220
vn 0.1218 -0.0000 0.9926
vn -0.1218 -0.0000 -0.9926
vn 0.9926 -0.0030 -0.1212
vn 0.9926 -0.0031 -0.1212
vn 0.1219 -0.0000 0.9925
vn 0.1218 -0.0000 0.9925
vn 0.1219 0.0002 0.9925
vn -0.9926 -0.0031 0.1212
vn -0.9926 -0.0032 0.1212
vn -0.1218 -0.0000 -0.9925
vn -0.1219 -0.0000 -0.9925
vn -0.1219 0.0002 -0.9925
vn 0.9897 -0.0765 -0.1212
vn 0.9911 -0.0765 -0.1092
vn 0.9911 -0.0760 -0.1092
vn 0.9882 -0.0761 -0.1333
vn 0.9881 -0.0767 -0.1333
vn -0.9911 0.0760 0.1092
vn -0.9911 0.0765 0.1092
vn -0.9882 0.0761 0.1333
vn -0.9881 0.0767 0.1333
vn -0.9897 0.0765 0.1212
vn -0.9917 0.0410 0.1215
vn -0.9924 0.0205 0.1214
vn -0.9073 0.3790 -0.1821
vn 0.9194 -0.3512 0.1771
vn 0.4078 0.8988 -0.1609
vn -0.1027 0.2202 0.9700
vn 0.1027 -0.2202 -0.9700
vn 0.9073 -0.3790 0.1821
vn 0.6804 -0.5843 0.4424
vn 0.6829 -0.5769 0.4482
vn 0.6781 -0.5916 0.4361
vn -0.3719 -0.9118 0.1739
vn -0.3716 -0.9118 0.1746
vn -0.2990 -0.9343 0.1944
vn -0.3000 -0.9339 0.1944
vn -0.4108 -0.8966 0.1652
vn -0.4158 -0.8947 0.1633
vn -0.4159 -0.8946 0.1632
vn -0.9194 0.3512 -0.1771
vn -0.1048 0.2156 0.9708
vn 0.1048 -0.2156 -0.9708
vn 0.9153 -0.3598 0.1811
vn 0.9154 -0.3595 0.1814
vn 0.9153 -0.3597 0.1812
vn 0.9154 -0.3599 0.1804
vn -0.0978 0.2208 0.9704
vn -0.0994 0.2167 0.9712
vn -0.1012 0.2145 0.9715
vn -0.0999 0.2133 0.9719
vn -0.9290 0.3360 -0.1548
vn -0.9300 0.3335 -0.1544
vn -0.9287 0.3359 -0.1570
vn -0.9294 0.3333 -0.1584
vn 0.1057 -0.2211 -0.9695
vn 0.1066 -0.2185 -0.9700
vn 0.1066 -0.2181 -0.9701
vn 0.1060 -0.2205 -0.9696
vn -0.6804 0.5843 -0.4424
vn -0.3074 -0.7755 -0.5515
vn 0.3074 0.7755 0.5515
vn 0.6656 -0.6192 0.4167
vn 0.6595 -0.6210 0.4236
vn 0.6600 -0.6199 0.4245
vn 0.6714 -0.6179 0.4092
vn 0.6716 -0.6175 0.4096
vn 0.6653 0.2392 -0.7072
vn -0.6653 -0.2392 0.7072
vn -0.6661 -0.2407 0.7059
vn -0.6665 -0.2404 0.7057
vn -0.6600 0.6199 -0.4245
vn -0.6595 0.6210 -0.4236
vn -0.6714 0.6179 -0.4092
vn -0.6716 0.6175 -0.4096
vn 0.6665 0.2404 -0.7057
vn 0.6661 0.2407 -0.7059
vn -0.6656 0.6192 -0.4167
vn -0.6776 0.5918 -0.4367
vn -0.6821 0.5771 -0.4491
vn -0.0303 -0.9995 0.0055
vn 0.9926 -0.0032 -0.1212
vt 0.263340 0.868577
vt 0.263340 0.878458
vt 0.241601 0.878458
vt 0.241601 0.868577
vt 0.314229 0.894269
vt 0.311265 0.894269
vt 0.311265 0.882905
vt 0.314229 0.886858
vt 0.308794 0.883399
vt 0.308794 0.892292
vt 0.292984 0.892292
vt 0.292984 0.883399
vt 0.308794 0.893775
vt 0.308794 0.882905
vt 0.321640 0.882905
vt 0.321640 0.893775
vt 0.237154 0.878458
vt 0.237154 0.868577
vt 0.267787 0.868577
vt 0.267787 0.878458
vt 0.296443 0.893281
vt 0.309289 0.893281
vt 0.309289 0.896739
vt 0.296443 0.896739
vt 0.258893 0.897233
vt 0.243577 0.897233
vt 0.243577 0.891304
vt 0.258893 0.891304
vt 0.264328 0.897233
vt 0.249506 0.897233
vt 0.249506 0.891304
vt 0.264328 0.891304
vt 0.294466 0.880435
vt 0.299407 0.880435
vt 0.299407 0.875000
vt 0.294466 0.875000
vt 0.289526 0.893281
vt 0.302372 0.893281
vt 0.302372 0.896739
vt 0.289526 0.896739
vt 0.256917 0.897233
vt 0.243083 0.897233
vt 0.243083 0.891304
vt 0.256917 0.891304
vt 0.325099 0.882411
vt 0.325099 0.893775
vt 0.314723 0.893775
vt 0.314723 0.882411
vt 0.294960 0.894269
vt 0.294960 0.882905
vt 0.242095 0.881917
vt 0.242095 0.867095
vt 0.245059 0.867095
vt 0.245059 0.881917
vt 0.198617 0.858202
vt 0.205534 0.857213
vt 0.204545 0.876976
vt 0.197628 0.876976
vt 0.334486 0.467885
vt 0.258893 0.867095
vt 0.258893 0.881917
vt 0.162549 0.858202
vt 0.162549 0.876976
vt 0.155632 0.877470
vt 0.155632 0.858202
vt 0.300395 0.883399
vt 0.314229 0.883399
vt 0.314723 0.891798
vt 0.300889 0.891798
vt 0.313241 0.883893
vt 0.330040 0.883893
vt 0.330040 0.893775
vt 0.313241 0.893775
vt 0.319170 0.894269
vt 0.316700 0.894269
vt 0.316700 0.883399
vt 0.319170 0.886858
vt 0.300889 0.894269
vt 0.298419 0.894269
vt 0.298419 0.886858
vt 0.300889 0.883399
vt 0.300889 0.893281
vt 0.290020 0.893281
vt 0.290020 0.883399
vt 0.291996 0.894269
vt 0.291996 0.886858
vt 0.299407 0.893281
vt 0.299407 0.882905
vt 0.309289 0.882905
vt 0.322628 0.893281
vt 0.315217 0.893281
vt 0.315217 0.883399
vt 0.322628 0.883399
vt 0.319664 0.882905
vt 0.319170 0.893775
vt 0.294960 0.888834
vt 0.294960 0.883893
vt 0.294466 0.882411
vt 0.304842 0.882411
vt 0.304348 0.894763
vt 0.294466 0.894763
vt 0.328063 0.893775
vt 0.317688 0.893775
vt 0.317688 0.882411
vt 0.322628 0.882411
vt 0.309289 0.880435
vt 0.309289 0.875000
vt 0.314229 0.875000
vt 0.314229 0.880435
vt 0.166008 0.853261
vt 0.185771 0.853261
vt 0.185771 0.889822
vt 0.166008 0.889822
vt 0.300395 0.892292
vt 0.297431 0.892292
vt 0.297431 0.883399
vt 0.315217 0.892292
vt 0.294960 0.891304
vt 0.294960 0.883399
vt 0.308794 0.891798
vt 0.154644 0.880929
vt 0.161561 0.879941
vt 0.197628 0.879941
vt 0.204545 0.879941
vt 0.306324 0.896739
vt 0.306324 0.881917
vt 0.322628 0.881917
vt 0.322628 0.896739
vt 0.306324 0.896245
vt 0.322628 0.896245
vt 0.318182 0.883399
vt 0.318182 0.892292
vt 0.285573 0.893281
vt 0.314723 0.893281
vt 0.314723 0.896739
vt 0.285573 0.896739
vt 0.304842 0.893281
vt 0.304842 0.896739
vt 0.189229 0.889822
vt 0.189229 0.896739
vt 0.185771 0.896739
vt 0.325099 0.896739
vt 0.293478 0.896739
vt 0.293478 0.893281
vt 0.325099 0.893281
vt 0.300889 0.893775
vt 0.322628 0.893775
vt 0.300889 0.896739
vt 0.189229 0.846344
vt 0.189229 0.853261
vt 0.185771 0.846344
vt 0.166008 0.846344
vt 0.166008 0.896739
vt 0.261858 0.867095
vt 0.261858 0.881917
s 0
f 1/1/1 2/2/1 4/3/1 3/4/1
f 17/5/2 13/6/2 29/7/2 30/8/2
f 14/9/3 4/10/3 2/11/3 16/12/3
f 19/13/4 20/14/4 6/15/4 5/16/4
f 3/4/1 4/3/1 7/17/1 8/18/1
f 2/2/1 1/1/1 5/19/1 6/20/1
f 22/21/3 10/22/3 12/23/3 24/24/3
f 18/25/5 7/26/5 11/27/5 23/28/5
f 16/29/5 2/30/5 10/31/5 22/32/5
f 7/33/1 4/34/1 9/35/1 11/36/1
f 2/36/1 6/35/1 12/34/1 10/33/1
f 4/29/4 14/30/4 21/31/4 9/32/4
f 9/37/3 21/38/3 23/39/3 11/40/3
f 6/41/4 20/42/4 24/43/4 12/44/4
f 8/45/5 7/46/5 18/47/5 17/48/5
f 13/6/2 15/49/2 33/50/2 29/7/2
f 17/51/6 18/52/6 14/53/6 13/54/6
f 50/55/6 42/56/6 39/57/6 47/58/7
f 14/59/8 16/59/8 26/59/8 25/59/8
f 13/54/6 14/53/6 16/60/6 15/61/6
f 45/62/6 44/63/9 53/64/6 52/65/6
f 44/63/6 45/62/6 50/55/6 47/58/6
f 29/66/10 27/67/11 31/68/10 30/69/12
f 28/70/13 33/71/13 34/72/13 32/73/13
f 5/74/14 1/75/14 28/76/14 32/77/14
f 3/78/14 8/79/14 31/80/14 27/81/14
f 19/82/15 5/83/15 32/84/15 34/81/15
f 1/75/14 3/78/14 27/81/14 28/76/14
f 15/49/2 19/85/2 34/86/2 33/50/2
f 8/22/16 17/87/16 30/88/16 31/89/16
f 29/90/17 33/91/18 38/92/17 37/93/18
f 33/94/15 28/95/19 36/96/20 38/97/21
f 28/98/22 27/99/23 35/100/22 36/101/22
f 27/102/24 29/103/25 37/104/25 35/105/26
f 22/106/6 24/107/6 20/108/6 16/109/6
f 21/109/6 14/106/6 18/107/6 23/108/6
f 46/110/1 43/111/1 48/112/1 49/113/1
f 46/66/8 45/114/8 52/115/8 51/116/8
f 49/92/8 50/117/8 45/114/8 46/66/8
f 47/118/3 48/119/3 43/9/3 44/120/3
f 61/121/27 53/64/28 44/63/29 57/122/27
f 56/123/30 47/58/28 39/57/29 60/124/31
f 41/125/5 40/126/5 39/127/5 42/128/5
f 52/129/4 53/126/4 54/127/4 51/130/4
f 50/117/8 49/92/8 41/131/8 42/132/8
f 54/133/4 53/134/4 61/135/4 62/136/4
f 57/137/3 58/90/3 62/128/3 61/138/3
f 55/128/3 56/138/3 60/137/3 59/90/3
f 55/139/32 59/140/33 40/141/34 48/112/35
f 39/142/5 40/143/5 59/144/5 60/145/5
f 44/146/5 43/147/5 58/128/5 57/148/5
f 48/146/4 47/147/4 56/128/4 55/148/4
f 62/149/36 58/150/36 43/111/34 54/151/35
f 46/110/1 51/152/1 54/151/37 43/111/1
f 40/141/38 41/153/1 49/113/1 48/112/37
f 20/154/6 19/155/6 15/61/6 16/60/6
f 63/1/1 64/2/1 66/3/1 65/4/1
f 79/5/2 75/6/2 91/7/2 92/8/2
f 76/9/3 66/10/3 64/11/3 78/12/3
f 81/13/4 82/14/4 68/15/4 67/16/4
f 65/4/1 66/3/1 69/17/1 70/18/1
f 64/2/1 63/1/1 67/19/1 68/20/1
f 84/21/3 72/22/3 74/23/3 86/24/3
f 80/25/5 69/26/5 73/27/5 85/28/5
f 78/29/5 64/30/5 72/31/5 84/32/5
f 69/33/1 66/34/1 71/35/1 73/36/1
f 64/36/1 68/35/1 74/34/1 72/33/1
f 66/29/4 76/30/4 83/31/4 71/32/4
f 71/37/3 83/38/3 85/39/3 73/40/3
f 68/41/4 82/42/4 86/43/4 74/44/4
f 70/45/5 69/46/5 80/47/5 79/48/5
f 75/6/2 77/49/2 95/50/2 91/7/2
f 79/51/6 80/52/6 76/53/6 75/54/6
f 112/55/6 104/56/6 101/57/6 109/58/7
f 76/59/8 78/59/8 88/59/8 87/59/8
f 75/54/6 76/53/6 78/60/6 77/61/6
f 107/62/6 106/63/9 115/64/6 114/65/6
f 106/63/6 107/62/6 112/55/6 109/58/6
f 91/66/10 89/67/11 93/68/10 92/69/12
f 90/70/13 95/71/13 96/72/13 94/73/13
f 67/74/14 63/75/14 90/76/14 94/77/14
f 65/78/14 70/79/14 93/80/14 89/81/14
f 81/82/15 67/83/15 94/84/15 96/81/15
f 63/75/14 65/78/14 89/81/14 90/76/14
f 77/49/2 81/85/2 96/86/2 95/50/2
f 70/22/16 79/87/16 92/88/16 93/89/16
f 91/90/17 95/91/18 100/92/17 99/93/18
f 95/94/15 90/95/19 98/96/20 100/97/21
f 90/98/22 89/99/23 97/100/22 98/101/22
f 89/102/24 91/103/25 99/104/25 97/105/26
f 84/106/6 86/107/6 82/108/6 78/109/6
f 83/109/6 76/106/6 80/107/6 85/108/6
f 108/110/1 105/111/1 110/112/1 111/113/1
f 108/66/8 107/114/8 114/115/8 113/116/8
f 111/92/8 112/117/8 107/114/8 108/66/8
f 109/118/3 110/119/3 105/9/3 106/120/3
f 123/121/27 115/64/28 106/63/29 119/122/27
f 118/123/30 109/58/28 101/57/29 122/124/31
f 103/125/5 102/126/5 101/127/5 104/128/5
f 114/129/4 115/126/4 116/127/4 113/130/4
f 112/117/8 111/92/8 103/131/8 104/132/8
f 116/133/4 115/134/4 123/135/4 124/136/4
f 119/137/3 120/90/3 124/128/3 123/138/3
f 117/128/3 118/138/3 122/137/3 121/90/3
f 117/139/32 121/140/33 102/141/34 110/112/35
f 101/142/5 102/143/5 121/144/5 122/145/5
f 106/146/5 105/147/5 120/128/5 119/148/5
f 110/146/4 109/147/4 118/128/4 117/148/4
f 124/149/36 120/150/36 105/111/34 116/151/35
f 108/110/1 113/152/1 116/151/37 105/111/1
f 102/141/38 103/153/1 111/113/1 110/112/37
f 82/154/6 81/155/6 77/61/6 78/60/6
f 125/1/39 126/2/39 128/3/39 127/4/39
f 141/5/40 137/6/40 151/7/40 152/8/40
f 138/9/41 128/10/41 126/11/41 140/12/41
f 143/13/42 144/14/42 130/15/42 129/16/42
f 127/4/39 128/3/39 131/17/39 132/18/39
f 126/2/39 125/1/39 129/19/39 130/20/39
f 146/21/41 134/22/41 136/23/41 148/24/41
f 142/25/43 131/26/43 135/27/43 147/28/43
f 140/29/43 126/30/43 134/31/43 146/32/43
f 131/33/39 128/34/39 133/35/39 135/36/39
f 126/36/39 130/35/39 136/34/39 134/33/39
f 128/29/42 138/30/42 145/31/42 133/32/42
f 133/37/41 145/38/41 147/39/41 135/40/41
f 130/41/42 144/42/42 148/43/42 136/44/42
f 132/45/43 131/46/43 142/47/43 141/48/43
f 137/6/40 139/49/40 155/50/40 151/7/40
f 141/51/44 142/52/44 138/53/44 137/54/44
f 172/55/45 164/56/45 161/57/45 169/58/46
f 137/54/44 138/53/44 140/60/44 139/61/44
f 167/62/45 166/63/47 175/64/45 174/65/45
f 166/63/45 167/62/45 172/55/45 169/58/45
f 151/66/48 149/67/49 153/68/50 152/69/51
f 150/70/52 155/71/52 156/72/53 154/73/54
f 129/74/55 125/75/55 150/76/55 154/77/55
f 127/78/55 132/79/55 153/80/55 149/81/55
f 143/82/56 129/83/56 154/84/56 156/81/56
f 125/75/55 127/78/55 149/81/55 150/76/55
f 139/49/40 143/85/40 156/86/40 155/50/40
f 132/22/57 141/87/57 152/88/57 153/89/57
f 151/90/58 155/91/59 160/92/60 159/93/61
f 155/94/62 150/95/63 158/96/64 160/97/65
f 150/98/66 149/99/67 157/100/68 158/101/69
f 149/102/70 151/103/71 159/104/72 157/105/73
f 146/106/44 148/107/44 144/108/44 140/109/44
f 145/109/44 138/106/44 142/107/44 147/108/44
f 168/110/74 165/111/74 170/112/74 171/113/74
f 168/66/75 167/114/75 174/115/75 173/116/75
f 171/92/75 172/117/75 167/114/75 168/66/75
f 169/118/76 170/119/76 165/9/76 166/120/76
f 183/121/77 175/64/78 166/63/79 179/122/77
f 178/123/80 169/58/78 161/57/79 182/124/81
f 163/125/82 162/126/82 161/127/82 164/128/82
f 174/129/83 175/126/83 176/127/83 173/130/83
f 172/117/75 171/92/75 163/131/75 164/132/75
f 176/133/84 175/134/84 183/135/85 184/136/85
f 179/137/76 180/90/76 184/128/76 183/138/76
f 177/128/76 178/138/76 182/137/76 181/90/76
f 177/139/86 181/140/87 162/141/88 170/112/89
f 161/142/90 162/143/90 181/144/91 182/145/91
f 166/146/90 165/147/90 180/128/91 179/148/91
f 170/146/84 169/147/84 178/128/85 177/148/85
f 184/149/92 180/150/92 165/111/88 176/151/89
f 168/110/74 173/152/74 176/151/93 165/111/74
f 162/141/94 163/153/74 171/113/74 170/112/93
f 144/154/44 143/155/44 139/61/44 140/60/44
f 185/1/1 186/2/1 188/3/1 187/4/1
f 201/5/2 197/6/2 213/7/2 214/8/2
f 198/9/3 188/10/3 186/11/3 200/12/3
f 203/13/4 204/14/4 190/15/4 189/16/4
f 187/4/1 188/3/1 191/17/1 192/18/1
f 186/2/1 185/1/1 189/19/1 190/20/1
f 206/21/3 194/22/3 196/23/3 208/24/3
f 202/25/5 191/26/5 195/27/5 207/28/5
f 200/29/5 186/30/5 194/31/5 206/32/5
f 191/33/1 188/34/1 193/35/1 195/36/1
f 186/36/1 190/35/1 196/34/1 194/33/1
f 188/29/4 198/30/4 205/31/4 193/32/4
f 193/37/3 205/38/3 207/39/3 195/40/3
f 190/41/4 204/42/4 208/43/4 196/44/4
f 192/45/5 191/46/5 202/47/5 201/48/5
f 197/6/2 199/49/2 217/50/2 213/7/2
f 201/51/6 202/52/6 198/53/6 197/54/6
f 234/55/6 226/56/6 223/57/6 231/58/7
f 198/59/3 200/59/3 210/59/3 209/59/3
f 197/54/6 198/53/6 200/60/6 199/61/6
f 229/62/6 228/63/9 237/64/6 236/65/6
f 228/63/6 229/62/6 234/55/6 231/58/6
f 213/66/10 211/67/11 215/68/10 214/69/12
f 212/70/13 217/71/13 218/72/13 216/73/13
f 189/74/14 185/75/14 212/76/14 216/77/14
f 187/78/14 192/79/14 215/80/14 211/81/14
f 203/82/15 189/83/15 216/84/15 218/81/15
f 185/75/14 187/78/14 211/81/14 212/76/14
f 199/49/2 203/85/2 218/86/2 217/50/2
f 192/22/16 201/87/16 214/88/16 215/89/16
f 213/90/17 217/91/18 222/92/17 221/93/18
f 217/94/15 212/95/19 220/96/20 222/97/21
f 212/98/22 211/99/23 219/100/22 220/101/22
f 211/102/24 213/103/25 221/104/25 219/105/26
f 206/106/6 208/107/6 204/108/6 200/109/6
f 205/109/6 198/106/6 202/107/6 207/108/6
f 230/110/1 227/111/1 232/112/1 233/113/1
f 230/66/8 229/114/8 236/115/8 235/116/8
f 233/92/8 234/117/8 229/114/8 230/66/8
f 231/118/3 232/119/3 227/9/3 228/120/3
f 245/121/27 237/64/28 228/63/29 241/122/27
f 240/123/30 231/58/28 223/57/29 244/124/31
f 225/125/5 224/126/5 223/127/5 226/128/5
f 236/129/4 237/126/4 238/127/4 235/130/4
f 234/117/8 233/92/8 225/131/8 226/132/8
f 238/133/4 237/134/4 245/135/4 246/136/4
f 241/137/3 242/90/3 246/128/3 245/138/3
f 239/128/3 240/138/3 244/137/3 243/90/3
f 239/139/32 243/140/33 224/141/34 232/112/35
f 223/142/5 224/143/5 243/144/5 244/145/5
f 228/146/5 227/147/5 242/128/5 241/148/5
f 232/146/4 231/147/4 240/128/4 239/148/4
f 246/149/36 242/150/36 227/111/34 238/151/35
f 230/110/1 235/152/1 238/151/37 227/111/1
f 224/141/38 225/153/1 233/113/1 232/112/37
f 204/154/6 203/155/6 199/61/6 200/60/6
f 247/1/1 248/2/1 250/3/1 249/4/1
f 263/5/2 259/6/2 275/7/2 276/8/2
f 260/9/3 250/10/3 248/11/3 262/12/3
f 265/13/4 266/14/4 252/15/4 251/16/4
f 249/4/1 250/3/1 253/17/1 254/18/1
f 248/2/1 247/1/1 251/19/1 252/20/1
f 268/21/3 256/22/3 258/23/3 270/24/3
f 264/25/5 253/26/5 257/27/5 269/28/5
f 262/29/5 248/30/5 256/31/5 268/32/5
f 253/33/1 250/34/1 255/35/1 257/36/1
f 248/36/1 252/35/1 258/34/1 256/33/1
f 250/29/4 260/30/4 267/31/4 255/32/4
f 255/37/3 267/38/3 269/39/3 257/40/3
f 252/41/4 266/42/4 270/43/4 258/44/4
f 254/45/5 253/46/5 264/47/5 263/48/5
f 259/6/2 261/49/2 279/50/2 275/7/2
f 263/51/6 264/52/6 260/53/6 259/54/6
f 260/59/3 262/59/3 272/59/3 271/59/3
f 259/54/6 260/53/6 262/60/6 261/61/6
f 275/66/10 273/67/11 277/68/10 276/69/12
f 274/70/95 279/71/95 280/72/95 278/73/95
f 251/74/14 247/75/14 274/76/14 278/77/14
f 249/78/14 254/79/14 277/80/14 273/81/14
f 265/82/15 251/83/15 278/84/15 280/81/15
f 247/75/14 249/78/14 273/81/14 274/76/14
f 261/49/2 265/85/2 280/86/2 279/50/2
f 254/22/16 263/87/16 276/88/16 277/89/16
f 275/90/18 279/91/96 284/92/18 283/93/96
f 279/94/15 274/95/19 282/96/20 284/97/21
f 274/98/22 273/99/23 281/100/22 282/101/23
f 273/102/24 275/103/25 283/104/25 281/105/26
f 268/106/6 270/107/6 266/108/6 262/109/6
f 267/109/6 260/106/6 264/107/6 269/108/6
f 266/154/6 265/155/6 261/61/6 262/60/6
