# Blender 4.2.3 LTS
# www.blender.org
o CogumelosVarA
v -0.030517 0.074477 0.042896
v -0.044880 0.075654 0.031753
v -0.020436 0.103438 0.032508
v -0.009473 0.104867 0.018031
v -0.023836 0.106044 0.006888
v -0.034799 0.104615 0.021366
v -0.047978 0.078029 0.008413
v -0.037014 0.079458 -0.006064
v 0.003518 0.076136 0.025380
v -0.007445 0.074706 0.039857
v -0.013942 0.079688 -0.009103
v 0.000421 0.078511 0.002040
v -0.028067 0.072960 0.034770
v -0.037903 0.073766 0.027139
v -0.040024 0.075392 0.011156
v -0.032516 0.076371 0.001242
v -0.004760 0.074096 0.022775
v -0.012267 0.073117 0.032689
v -0.016716 0.076528 -0.000838
v -0.006881 0.075722 0.006792
v -0.024142 0.077513 0.023050
v -0.027575 0.077795 0.020387
v -0.028315 0.078362 0.014809
v -0.025695 0.078704 0.011348
v -0.016007 0.077910 0.018864
v -0.018627 0.077568 0.022324
v -0.020180 0.078759 0.010622
v -0.016747 0.078477 0.013285
v 0.000418 0.063399 -0.018305
v -0.011473 0.064775 -0.029293
v 0.014233 0.075152 -0.032011
v 0.024272 0.070120 -0.043755
v 0.012382 0.071496 -0.054744
v 0.002343 0.076527 -0.043000
v -0.013159 0.061444 -0.050004
v -0.003120 0.056413 -0.061748
v 0.030435 0.052530 -0.030737
v 0.020396 0.057562 -0.018993
v 0.016858 0.050576 -0.062436
v 0.028749 0.049200 -0.051447
v 0.002474 0.060103 -0.024757
v -0.005669 0.061045 -0.032282
v -0.006824 0.058764 -0.046464
v 0.000051 0.055319 -0.054506
v 0.023029 0.052660 -0.033270
v 0.016155 0.056106 -0.025228
v 0.013732 0.051321 -0.054978
v 0.021875 0.050379 -0.047453
v 0.006911 0.059089 -0.035348
v 0.004069 0.059418 -0.037975
v 0.003666 0.058622 -0.042925
v 0.006066 0.057419 -0.045732
v 0.014086 0.056491 -0.038320
v 0.011686 0.057694 -0.035513
v 0.010841 0.056024 -0.045896
v 0.013683 0.055695 -0.043270
v -0.004422 -0.004422 0.004422
v -0.023693 0.083798 0.020781
v -0.004422 -0.004422 -0.004422
v -0.024048 0.084822 0.012003
v 0.004422 -0.004422 0.000000
v -0.015920 0.088183 0.016523
v -0.019903 0.057845 0.019541
v -0.011710 0.020337 0.012586
v -0.017125 0.038641 0.018673
v -0.011861 0.020852 0.003801
v -0.020108 0.058355 0.010704
v -0.017302 0.039153 0.009862
v -0.003375 0.022516 0.008376
v -0.011621 0.060051 0.015073
v -0.008816 0.040834 0.014333
v 0.005039 0.061321 -0.037927
v 0.003951 0.054611 -0.043587
v 0.012790 0.059044 -0.043630
v 0.006123 0.034645 -0.032403
v -0.001759 -0.003802 -0.010904
v 0.004507 0.010656 -0.022485
v -0.002737 -0.007941 -0.021201
v 0.007576 0.035009 -0.040942
v 0.003686 0.008738 -0.029881
v 0.004390 -0.005915 -0.018718
v 0.015143 0.035479 -0.035726
v 0.012791 0.009687 -0.026998
vn -0.2787 -0.4161 0.8655
vn -0.8040 -0.3752 0.4613
vn 0.0809 0.7379 0.6701
vn 0.5968 0.8024 0.0024
vn -0.0755 0.8578 -0.5084
vn -0.5914 0.7906 0.1589
vn -0.9038 -0.2999 -0.3051
vn -0.5020 -0.2498 -0.8280
vn 0.9019 -0.3623 0.2353
vn 0.5024 -0.4101 0.7612
vn 0.2765 -0.2437 -0.9296
vn 0.7988 -0.2870 -0.5287
vn -0.0196 -0.9994 -0.0295
vn -0.0672 -0.9954 -0.0689
vn -0.0678 -0.9915 -0.1106
vn -0.0306 -0.9881 -0.1510
vn 0.0559 -0.9945 -0.0885
vn 0.0272 -0.9989 -0.0388
vn 0.0072 -0.9883 -0.1526
vn 0.0463 -0.9914 -0.1226
vn 0.0596 -0.9370 -0.3441
vn 0.2268 -0.9489 -0.2193
vn 0.2550 -0.9664 -0.0316
vn 0.1272 -0.9818 0.1408
vn -0.2682 -0.9507 -0.1558
vn -0.1336 -0.9377 -0.3207
vn -0.0723 -0.9829 0.1694
vn -0.2461 -0.9685 0.0371
vn -0.3972 -0.0224 0.9175
vn -0.8798 0.0325 0.4743
vn 0.2729 0.8913 0.3620
vn 0.7308 0.6621 -0.1660
vn 0.1897 0.7270 -0.6599
vn -0.2688 0.9542 -0.1316
vn -0.9434 -0.0970 -0.3171
vn -0.5364 -0.3011 -0.7884
vn 0.7856 -0.4573 0.4168
vn 0.3807 -0.2512 0.8899
vn 0.2398 -0.5290 -0.8141
vn 0.7195 -0.5857 -0.3731
vn -0.2834 -0.9328 0.2228
vn -0.3149 -0.9295 0.1921
vn -0.3140 -0.9354 0.1624
vn -0.2870 -0.9481 0.1372
vn -0.2303 -0.9550 0.1869
vn -0.2518 -0.9426 0.2194
vn -0.2618 -0.9551 0.1387
vn -0.2359 -0.9582 0.1620
vn -0.2157 -0.9765 0.0031
vn -0.1058 -0.9892 0.1017
vn -0.0924 -0.9676 0.2349
vn -0.1848 -0.9196 0.3468
vn -0.4439 -0.8891 0.1117
vn -0.3471 -0.9378 0.0060
vn -0.3207 -0.8789 0.3530
vn -0.4349 -0.8656 0.2482
vn -0.4296 -0.3883 0.8153
vn -0.4008 -0.1034 0.9103
vn -0.3592 0.1840 -0.9149
vn -0.3955 -0.0104 -0.9184
vn 0.9376 0.3171 -0.1425
vn 0.9869 0.1516 -0.0557
vn -0.4996 -0.1119 0.8590
vn -0.4491 -0.3938 0.8020
vn -0.4751 -0.2493 0.8439
vn -0.5609 0.0994 -0.8219
vn -0.5283 -0.0379 -0.8482
vn -0.6031 0.0113 -0.7976
vn 0.9618 0.2717 0.0327
vn 0.9891 0.1469 -0.0100
vn 0.9788 0.1886 0.0793
vn -0.1833 0.2185 0.9585
vn -0.6760 -0.2311 -0.6997
vn 0.9596 0.1692 0.2246
vn -0.5470 0.2766 0.7901
vn -0.4820 0.5804 0.6564
vn -0.3870 0.4737 0.7911
vn -0.7607 -0.0489 -0.6472
vn -0.4587 -0.2734 -0.8455
vn -0.5139 -0.2707 -0.8140
vn 0.9278 -0.3715 -0.0350
vn 0.9996 -0.0106 -0.0267
vn 0.9723 -0.2335 -0.0058
vt 0.741385 0.987339
vt 0.738820 0.991517
vt 0.736405 0.987340
vt 0.743523 0.996169
vt 0.740122 0.993069
vt 0.743667 0.990525
vt 0.736317 0.998643
vt 0.738847 0.994718
vt 0.740923 0.998815
vt 0.734135 0.990403
vt 0.737477 0.993099
vt 0.734135 0.995650
vt 0.701418 0.895839
vt 0.709330 0.895841
vt 0.708156 0.899108
vt 0.702792 0.899103
vt 0.709346 0.915597
vt 0.701449 0.915628
vt 0.702812 0.912514
vt 0.708168 0.912490
vt 0.713677 0.901024
vt 0.711096 0.902622
vt 0.713677 0.910417
vt 0.711092 0.908983
vt 0.697081 0.910461
vt 0.699851 0.909022
vt 0.697062 0.901036
vt 0.699836 0.902624
vt 0.706242 0.907982
vt 0.707250 0.906783
vt 0.707243 0.904598
vt 0.703403 0.904609
vt 0.703403 0.906782
vt 0.706234 0.903404
vt 0.704409 0.907978
vt 0.704404 0.903413
vt 0.737176 0.998081
vt 0.738762 0.994910
vt 0.740891 0.997902
vt 0.735051 0.991155
vt 0.737419 0.993308
vt 0.735051 0.995816
vt 0.740843 0.988939
vt 0.738764 0.991694
vt 0.737185 0.988889
vt 0.742749 0.995459
vt 0.740208 0.993248
vt 0.742729 0.991277
vt 0.709005 0.916865
vt 0.700692 0.917036
vt 0.701878 0.913549
vt 0.707541 0.913436
vt 0.700699 0.896195
vt 0.709006 0.896012
vt 0.707543 0.899231
vt 0.701884 0.899358
vt 0.696128 0.911671
vt 0.698774 0.909894
vt 0.696135 0.901748
vt 0.698782 0.903138
vt 0.713578 0.901372
vt 0.710658 0.902876
vt 0.713578 0.911306
vt 0.710659 0.909648
vt 0.703952 0.904155
vt 0.702875 0.905461
vt 0.702878 0.907801
vt 0.706970 0.907706
vt 0.706977 0.905376
vt 0.703951 0.909059
vt 0.705908 0.904116
vt 0.705903 0.909012
vt 0.748462 0.957324
vt 0.748517 0.964886
vt 0.746170 0.965540
vt 0.746193 0.958578
vt 0.744090 0.964865
vt 0.744103 0.957744
vt 0.741635 0.964871
vt 0.741635 0.957302
vt 0.744271 0.974487
vt 0.744805 0.977890
vt 0.745244 0.981355
vt 0.742048 0.975080
vt 0.746032 0.974435
vt 0.745544 0.977793
vt 0.748189 0.974967
vt 0.746139 0.970309
vt 0.748401 0.970116
vt 0.741693 0.970104
vt 0.744134 0.970015
vt 0.743928 0.974465
vt 0.744751 0.977320
vt 0.744100 0.982069
vt 0.741206 0.974583
vt 0.745969 0.973440
vt 0.745310 0.977580
vt 0.748643 0.975052
vt 0.746643 0.964687
vt 0.749380 0.966317
vt 0.746958 0.957776
vt 0.749144 0.959850
vt 0.741206 0.965984
vt 0.744236 0.965421
vt 0.742004 0.959685
vt 0.744136 0.958730
s 1
f 10/1/10 3/2/3 1/3/1
f 12/4/12 4/5/4 9/6/9
f 8/7/8 5/8/5 11/9/11
f 2/10/2 6/11/6 7/12/7
f 3/2/3 4/5/4 5/8/5 6/11/6
f 1/3/1 3/2/3 6/11/6 2/10/2
f 5/8/5 8/7/8 7/12/7 6/11/6
f 4/5/4 12/4/12 11/9/11 5/8/5
f 3/2/3 10/1/10 9/6/9 4/5/4
f 12/13/12 9/14/9 17/15/17 20/16/20
f 2/17/2 7/18/7 15/19/15 14/20/14
f 9/14/9 10/21/10 18/22/18 17/15/17
f 10/21/10 1/23/1 13/24/13 18/22/18
f 7/18/7 8/25/8 16/26/16 15/19/15
f 8/25/8 11/27/11 19/28/19 16/26/16
f 1/23/1 2/17/2 14/20/14 13/24/13
f 11/27/11 12/13/12 20/16/20 19/28/19
f 13/24/13 14/20/14 22/29/22 21/30/21
f 18/22/18 13/24/13 21/30/21 26/31/26
f 16/26/16 19/28/19 27/32/27 24/33/24
f 17/15/17 18/22/18 26/31/26 25/34/25
f 15/19/15 16/26/16 24/33/24 23/35/23
f 20/16/20 17/15/17 25/34/25 28/36/28
f 14/20/14 15/19/15 23/35/23 22/29/22
f 19/28/19 20/16/20 28/36/28 27/32/27
f 38/37/38 31/38/31 29/39/29
f 40/40/40 32/41/32 37/42/37
f 36/43/36 33/44/33 39/45/39
f 30/46/30 34/47/34 35/48/35
f 31/38/31 32/41/32 33/44/33 34/47/34
f 29/39/29 31/38/31 34/47/34 30/46/30
f 33/44/33 36/43/36 35/48/35 34/47/34
f 32/41/32 40/40/40 39/45/39 33/44/33
f 31/38/31 38/37/38 37/42/37 32/41/32
f 40/49/40 37/50/37 45/51/45 48/52/48
f 30/53/30 35/54/35 43/55/43 42/56/42
f 37/50/37 38/57/38 46/58/46 45/51/45
f 38/57/38 29/59/29 41/60/41 46/58/46
f 35/54/35 36/61/36 44/62/44 43/55/43
f 36/61/36 39/63/39 47/64/47 44/62/44
f 29/59/29 30/53/30 42/56/42 41/60/41
f 39/63/39 40/49/40 48/52/48 47/64/47
f 41/60/41 42/56/42 50/65/50 49/66/49
f 46/58/46 41/60/41 49/66/49 54/67/54
f 44/62/44 47/64/47 55/68/55 52/69/52
f 45/51/45 46/58/46 54/67/54 53/70/53
f 43/55/43 44/62/44 52/69/52 51/71/51
f 48/52/48 45/51/45 53/70/53 56/72/56
f 42/56/42 43/55/43 51/71/51 50/65/50
f 47/64/47 48/52/48 56/72/56 55/68/55
f 61/73/61 69/74/69 64/75/64 57/76/57
f 57/76/57 64/75/64 66/77/66 59/78/59
f 59/78/59 66/77/66 69/79/69 61/80/61
f 67/81/67 60/82/60 62/83/62 70/84/70
f 63/85/63 58/86/58 60/82/60 67/81/67
f 70/87/70 63/85/63 65/88/65 71/89/71
f 71/89/71 65/88/65 64/75/64 69/74/69
f 67/81/67 70/84/70 71/90/71 68/91/68
f 68/91/68 71/90/71 69/79/69 66/77/66
f 63/85/63 67/81/67 68/91/68 65/88/65
f 65/88/65 68/91/68 66/77/66 64/75/64
f 70/87/70 62/83/62 58/86/58 63/85/63
f 79/92/79 73/93/73 74/94/74 82/95/82
f 75/96/75 72/97/72 73/93/73 79/92/79
f 82/98/82 75/96/75 77/99/77 83/100/83
f 83/100/83 77/99/77 76/101/76 81/102/81
f 79/92/79 82/95/82 83/103/83 80/104/80
f 80/104/80 83/103/83 81/105/81 78/106/78
f 75/96/75 79/92/79 80/104/80 77/99/77
f 77/99/77 80/104/80 78/106/78 76/101/76
f 82/98/82 74/94/74 72/97/72 75/96/75
