# Blender 4.2.1 LTS
# www.blender.org
o Grama
v -0.173043 0.005003 -0.030512
v -0.173043 0.356427 -0.030512
v 0.173043 0.005003 0.030512
v 0.173043 0.356427 0.030512
v 0.018252 0.005003 0.177537
v 0.086451 0.295337 0.177537
v 0.018252 0.005003 -0.173887
v 0.086451 0.295337 -0.173887
v 0.097354 0.005003 -0.141659
v 0.023674 0.309814 -0.141659
v -0.137510 0.005003 0.119756
v -0.211190 0.309814 0.119756
v 0.147322 0.005003 0.150789
v 0.095152 0.454999 0.158695
v -0.092473 0.005003 -0.106110
v -0.144644 0.454999 -0.098203
v 0.146593 0.005003 -0.102275
v 0.161653 0.544020 -0.040475
v -0.105068 0.005003 0.143012
v -0.090007 0.544020 0.204813
vn 0.1736 -0.0000 -0.9848
vn -0.9735 0.2287 -0.0000
vn 0.7321 0.1770 0.6578
vn -0.7276 -0.0963 0.6792
vn 0.6944 -0.1011 0.7124
vt 0.273438 0.841860
vt 0.273438 0.920930
vt 0.207031 0.920930
vt 0.207031 0.841860
vt 0.140625 0.920930
vt 0.140625 0.841860
vt 0.218750 0.744186
vt 0.218750 0.841860
vt 0.132812 0.841860
vt 0.132812 0.744186
vt 0.203125 0.632558
vt 0.203125 0.744186
vt 0.117188 0.744186
vt 0.117188 0.632558
s 0
f 1/1/1 2/2/1 4/3/1 3/4/1
f 5/4/2 6/3/2 8/5/2 7/6/2
f 9/4/3 10/3/3 12/5/3 11/6/3
f 13/7/4 14/8/4 16/9/4 15/10/4
f 17/11/5 18/12/5 20/13/5 19/14/5
