# Blender 4.2.1 LTS
# www.blender.org
o rock.004
v -0.163565 1.796269 -0.411377
v 0.714631 -0.030204 0.953662
v 0.531453 0.801806 -0.870226
v 1.187763 0.603247 -0.235178
v 0.065359 1.516219 -0.693230
v -0.844584 0.935485 -0.010850
v -0.502684 0.903860 0.981320
v -1.231963 0.599064 0.404451
v 1.458162 -0.162685 -1.123665
v 0.625343 1.031425 0.441018
v 0.732928 -0.585485 0.079917
v -0.192893 1.491342 0.745896
v 0.130500 1.719713 -0.375266
v 1.024150 0.536177 -0.757314
v 1.156312 0.105644 -1.404467
v -1.020350 0.315792 -1.080727
v -1.130269 0.411401 0.816840
v -1.373257 0.444553 -0.032935
v 0.022560 0.930450 1.230857
v -0.841973 0.111552 1.214311
v 0.259270 -0.559605 0.283122
v 1.007038 -0.324288 -1.337711
v -0.076676 -0.271717 -1.382072
v -1.218269 -0.219657 -1.258191
v -0.699173 -0.264538 -0.482502
v -1.478565 -0.239882 -0.121375
v 0.925409 0.854396 -0.002301
v -0.943208 0.758965 -0.875667
v -0.258693 1.016336 -0.910942
v -0.472593 1.383156 -0.513293
v 0.730731 -0.344737 0.598269
v 1.026464 -0.588861 0.124733
v 0.152124 -0.335677 -0.556751
v -0.193734 -0.221257 -0.810595
v -0.335541 -0.535932 0.183744
v -0.872385 -0.418970 0.449469
v 0.068769 -0.439020 0.902586
v -0.434523 -0.340249 0.882012
v 1.520604 0.316819 -0.110142
v 0.111866 -0.031315 -1.417792
v 0.697475 0.054337 -1.378418
v -0.184130 -0.159245 1.359062
v -0.219505 0.328364 1.430648
v 0.917511 0.435748 0.820788
v 0.404268 1.432119 0.179468
v 0.759449 1.084402 -0.411688
v 0.276981 1.234815 -0.701949
v -0.761435 0.997196 -0.652643
v -0.798222 1.106945 0.423516
v -0.512337 1.416583 0.543822
v 0.411978 1.085432 0.867515
v 0.968085 0.667861 0.730501
v 0.306274 -0.383871 -1.016961
v -1.132686 -0.428902 -0.063617
v -1.199265 -0.165177 0.539033
v 1.512156 -0.183403 0.176874
v -0.068321 0.588351 -1.105221
v -1.419176 0.063202 -0.405502
vn -0.2546 0.9239 -0.2857
vn 0.5174 -0.3337 0.7880
vn 0.3232 0.5966 -0.7345
vn 0.7168 0.6890 -0.1069
vn 0.2120 0.5765 -0.7891
vn -0.7561 0.6485 -0.0880
vn -0.5119 0.4917 0.7044
vn -0.8528 0.4686 0.2308
vn 0.8628 -0.2688 -0.4283
vn 0.7018 0.6713 0.2387
vn -0.0034 -0.9995 -0.0301
vn -0.0757 0.8301 0.5524
vn 0.4659 0.8677 -0.1733
vn 0.6256 0.6784 -0.3852
vn 0.4271 0.3197 -0.8458
vn -0.3082 0.4017 -0.8623
vn -0.8009 0.2749 0.5319
vn -0.9093 0.4159 0.0139
vn 0.1149 0.4464 0.8874
vn -0.5869 -0.1770 0.7901
vn 0.0121 -0.9975 0.0703
vn 0.1959 -0.7043 -0.6824
vn -0.1478 -0.5323 -0.8336
vn -0.5619 -0.4054 -0.7210
vn 0.0272 -0.9721 -0.2329
vn -0.8886 -0.4518 0.0787
vn 0.7322 0.6696 0.1244
vn -0.5831 0.5903 -0.5582
vn -0.1236 0.4993 -0.8575
vn -0.6477 0.6288 -0.4303
vn 0.3319 -0.7814 0.5285
vn 0.2938 -0.9342 0.2024
vn -0.1205 -0.9774 -0.1736
vn -0.1398 -0.9899 0.0220
vn -0.0734 -0.9968 -0.0328
vn -0.3203 -0.8916 0.3200
vn 0.0923 -0.9047 0.4159
vn -0.2650 -0.8764 0.4022
vn 0.9056 0.4218 0.0452
vn -0.1448 0.1401 -0.9795
vn -0.0086 0.2282 -0.9736
vn 0.0077 -0.5403 0.8415
vn -0.0147 0.1365 0.9905
vn 0.6098 0.0886 0.7876
vn 0.5997 0.7671 0.2280
vn 0.6907 0.6633 -0.2880
vn 0.4263 0.4862 -0.7628
vn -0.6053 0.7182 -0.3432
vn -0.7632 0.6461 0.0086
vn -0.6153 0.7193 0.3224
vn 0.5299 0.6498 0.5449
vn 0.7042 0.4588 0.5419
vn -0.0188 -0.9997 -0.0140
vn -0.2864 -0.9581 -0.0040
vn -0.7396 -0.4935 0.4576
vn 0.8656 -0.3563 0.3517
vn -0.0173 0.4238 -0.9056
vn -0.9558 0.1985 -0.2167
vt 0.028162 0.874012
vt 0.032115 0.866107
vt 0.040020 0.871542
vt 0.031621 0.849308
vt 0.014328 0.858202
vt 0.012846 0.854249
vt 0.019763 0.872036
vt 0.026186 0.880435
vt 0.018775 0.881423
vt 0.024704 0.861166
vt 0.034091 0.874012
vt 0.038043 0.870059
vt 0.043478 0.871047
vt 0.036067 0.861660
vt 0.043478 0.866107
vt 0.028162 0.865119
vt 0.028656 0.857213
vt 0.015316 0.853755
vt 0.005929 0.870059
vt 0.005929 0.851285
vt 0.033103 0.867589
vt 0.021739 0.867095
vt 0.032609 0.859190
vt 0.019269 0.878953
vt 0.035573 0.873518
vt 0.012846 0.874012
vt 0.014822 0.862648
vt 0.006423 0.861166
vt 0.005929 0.874506
vt 0.034091 0.880929
vt 0.043478 0.876482
vt 0.041996 0.882905
vt 0.014822 0.855237
vt 0.012846 0.850791
vt 0.032609 0.850296
vt 0.021739 0.885375
vt 0.026186 0.892292
vt 0.015316 0.894763
vt 0.038043 0.860178
vt 0.025198 0.874012
vt 0.028162 0.857213
vt 0.035079 0.871047
vt 0.049901 0.853261
vt 0.042984 0.872036
vt 0.021739 0.881917
vt 0.020751 0.886364
vt 0.014328 0.881917
vt 0.041008 0.879941
vt 0.047431 0.852273
vt 0.047431 0.887846
vt 0.031126 0.874012
vt 0.018775 0.875000
vt 0.020257 0.892787
vt 0.038538 0.892787
vt 0.041996 0.886858
vt 0.037549 0.876482
vt 0.042984 0.871047
vt 0.020257 0.866601
vt 0.035079 0.869071
vt 0.030632 0.861660
vt 0.041996 0.854743
vt 0.017292 0.858696
vt 0.024704 0.855237
vt 0.025692 0.850296
vt 0.010870 0.864625
vt 0.010375 0.872036
vt 0.012846 0.880435
vt 0.010870 0.889822
vt 0.016798 0.874012
vt 0.010870 0.872036
vt 0.017292 0.860672
vt 0.010870 0.862154
vt 0.030632 0.886364
vt 0.011858 0.851285
vt 0.024704 0.858202
vt 0.039032 0.888340
vt 0.012846 0.889822
vt 0.019269 0.894269
vt 0.009881 0.872530
vt 0.020751 0.869071
vt 0.011858 0.882411
vt 0.006423 0.888340
vt 0.010870 0.895751
vt 0.026680 0.878953
vt 0.019269 0.890316
vt 0.024704 0.886364
vt 0.039526 0.891304
vt 0.009387 0.884387
vt 0.034091 0.882905
vt 0.023715 0.887846
vt 0.013834 0.873518
vt 0.039526 0.864130
vt 0.023715 0.854743
vt 0.043478 0.853755
vt 0.038538 0.873024
vt 0.027174 0.873024
vt 0.031621 0.853755
vt 0.016304 0.853755
vt 0.004447 0.868083
vt 0.006917 0.858202
s 1
f 27/1/27 10/2/10 52/3/52
f 12/4/12 13/5/13 1/6/1
f 46/7/46 4/8/4 14/9/14
f 45/10/45 46/7/46 13/5/13
f 27/1/27 46/7/46 45/10/45
f 47/11/47 5/12/5 13/13/13
f 5/12/5 30/14/30 1/15/1
f 30/14/30 29/16/29 48/17/48
f 16/18/16 23/19/23 24/20/24
f 48/21/48 6/22/6 30/23/30
f 6/22/6 48/21/48 18/24/18
f 18/24/18 48/21/48 28/25/28
f 18/24/18 8/26/8 6/22/6
f 6/22/6 49/27/49 30/23/30
f 7/28/7 8/26/8 17/29/17
f 7/30/7 12/31/12 50/32/50
f 50/33/50 12/34/12 1/35/1
f 20/36/20 17/37/17 55/38/55
f 51/39/51 45/10/45 12/4/12
f 43/40/43 52/41/52 19/42/19
f 52/3/52 43/43/43 44/44/44
f 11/45/11 32/46/32 31/47/31
f 31/48/31 56/49/56 2/50/2
f 33/51/33 11/45/11 21/52/21
f 21/52/21 11/45/11 31/47/31
f 56/53/56 32/46/32 9/54/9
f 32/46/32 33/51/33 22/55/22
f 33/51/33 53/56/53 22/55/22
f 53/56/53 23/57/23 22/55/22
f 35/58/35 33/51/33 21/52/21
f 34/59/34 25/60/25 24/61/24
f 53/56/53 34/59/34 24/61/24
f 35/58/35 36/62/36 54/63/54
f 25/60/25 54/63/54 24/61/24
f 54/63/54 26/64/26 24/61/24
f 38/65/38 36/62/36 35/58/35
f 21/52/21 37/66/37 38/65/38
f 38/67/38 20/36/20 36/68/36
f 21/52/21 38/65/38 35/58/35
f 42/69/42 37/70/37 2/71/2
f 37/70/37 31/72/31 2/71/2
f 39/73/39 4/8/4 52/3/52
f 56/74/56 44/75/44 2/71/2
f 56/76/56 52/3/52 44/44/44
f 15/77/15 39/73/39 9/78/9
f 39/73/39 56/76/56 9/78/9
f 40/79/40 57/80/57 41/81/41
f 22/82/22 15/77/15 9/83/9
f 23/19/23 41/81/41 22/82/22
f 3/84/3 57/80/57 47/11/47
f 26/85/26 18/24/18 58/86/58
f 58/86/58 28/25/28 24/87/24
f 26/85/26 58/86/58 24/87/24
f 17/29/17 26/85/26 55/88/55
f 8/26/8 18/24/18 17/29/17
f 20/36/20 43/40/43 7/30/7
f 43/40/43 42/69/42 2/71/2
f 7/30/7 43/40/43 19/42/19
f 12/4/12 45/10/45 13/5/13
f 27/1/27 45/10/45 10/2/10
f 4/8/4 27/1/27 52/3/52
f 27/1/27 4/8/4 46/7/46
f 46/89/46 3/84/3 47/11/47
f 13/13/13 46/89/46 47/11/47
f 15/77/15 14/9/14 39/73/39
f 3/84/3 46/89/46 14/90/14
f 13/13/13 5/12/5 1/15/1
f 15/77/15 3/91/3 14/9/14
f 47/11/47 29/16/29 5/12/5
f 5/12/5 29/16/29 30/14/30
f 48/21/48 29/92/29 28/25/28
f 16/18/16 29/16/29 57/80/57
f 28/93/28 29/16/29 16/18/16
f 50/33/50 1/35/1 30/23/30
f 24/20/24 28/93/28 16/18/16
f 30/23/30 49/27/49 50/33/50
f 6/22/6 8/26/8 49/27/49
f 50/33/50 49/27/49 8/26/8
f 20/36/20 7/30/7 17/37/17
f 8/26/8 7/28/7 50/33/50
f 19/42/19 12/31/12 7/30/7
f 45/10/45 51/39/51 10/2/10
f 19/94/19 52/3/52 51/39/51
f 19/94/19 51/39/51 12/4/12
f 51/39/51 52/3/52 10/2/10
f 31/95/31 32/96/32 56/97/56
f 9/54/9 32/46/32 22/55/22
f 32/46/32 11/45/11 33/51/33
f 33/51/33 34/59/34 53/56/53
f 35/58/35 34/59/34 33/51/33
f 25/60/25 34/59/34 35/58/35
f 23/57/23 53/56/53 24/61/24
f 25/60/25 35/58/35 54/63/54
f 54/63/54 36/62/36 55/98/55
f 55/98/55 26/64/26 54/63/54
f 42/99/42 38/65/38 37/66/37
f 20/100/20 38/65/38 42/99/42
f 21/52/21 31/47/31 37/66/37
f 56/76/56 39/73/39 52/3/52
f 39/73/39 14/9/14 4/8/4
f 57/80/57 40/79/40 23/19/23
f 22/82/22 41/81/41 15/77/15
f 23/19/23 40/79/40 41/81/41
f 41/81/41 57/80/57 3/84/3
f 15/77/15 41/81/41 3/84/3
f 16/18/16 57/80/57 23/19/23
f 47/11/47 57/80/57 29/16/29
f 18/24/18 26/85/26 17/29/17
f 28/25/28 58/86/58 18/24/18
f 36/68/36 20/36/20 55/38/55
f 20/36/20 42/69/42 43/40/43
f 44/75/44 43/40/43 2/71/2
