# Blender 4.2.1 LTS
# www.blender.org
mtllib PedraMediaVarA.mtl
o rock.003
v -1.774915 0.453365 -0.344700
v -2.083164 0.308717 -0.235437
v -2.152270 0.337779 0.534260
v -2.184819 0.183031 -0.073336
v -1.400836 0.864729 0.455400
v -0.795718 0.743159 0.637841
v -1.247828 0.835825 0.004323
v -0.728265 0.767746 0.238592
v 0.153475 0.621202 0.647930
v 0.279019 0.586856 0.230291
v -0.388860 0.654522 0.816373
v -1.628504 0.858514 0.344401
v -1.488706 0.778050 -0.207140
v -0.648518 0.733291 0.046067
v -0.687942 0.560761 0.866183
v -1.357668 0.723308 -0.435168
v -1.637760 0.757477 0.378541
v -1.553444 0.776679 0.485252
v -1.646894 0.715952 -0.086641
v 0.979297 0.521113 0.790648
v 0.814891 0.518837 1.000677
v 1.338800 0.362278 0.998271
v 1.186809 0.452225 0.642678
v 0.566317 0.482402 1.171587
v 0.223717 0.571583 0.911587
v 1.192190 0.331480 1.184097
v 1.468724 0.327668 0.813597
v -0.065403 0.517869 1.050944
v 0.680899 0.328619 1.277346
v 1.726031 0.210462 1.047690
v 1.692182 0.090822 1.042837
v 1.683075 0.006672 1.056422
v -1.250660 0.561736 0.560736
v -1.548150 0.604232 0.058549
v -1.536259 0.529353 0.198483
v -1.310229 0.506172 0.469651
v -1.600173 0.528412 -0.108498
v -1.546686 0.484872 0.525447
v -1.069873 0.372399 0.609322
v -0.644834 0.283395 0.826517
v -1.790400 0.483759 0.605643
v -1.865107 0.459820 0.471472
v -0.946109 0.151155 1.207682
v -0.778729 0.176872 0.957892
v -0.154251 0.019588 0.988719
v -2.030995 0.322580 0.817400
v -1.688209 0.365382 0.904529
v 0.008833 -0.129586 0.862596
v -2.137865 0.272241 0.685609
v -0.396916 -0.015548 1.065858
v -1.355783 0.112945 1.251125
v -1.793426 0.163104 0.983583
v -0.888052 -0.025737 1.294555
v -0.443485 -0.103099 1.223745
v -0.098085 -0.249687 1.059229
v 0.886713 0.031680 1.366481
v 1.490338 -0.169657 1.223170
v 0.719566 -0.090036 1.328213
v 0.622274 -0.110803 1.259314
v 1.097164 -0.242875 1.294524
v 1.789399 -0.394148 0.998398
v 0.578532 -0.258439 0.832319
v 1.405841 -0.447981 0.989529
v 1.555919 -0.396622 1.142820
v 1.671743 -0.493048 0.865446
v 0.238145 -0.174586 0.804497
v 1.321373 -0.507655 0.691060
v 0.645442 -0.492565 0.736277
v 0.560291 -0.376758 0.734190
v 1.031431 -0.479437 0.653603
v -1.527280 0.414725 -1.016313
v -1.840302 0.198580 -0.869701
v -0.114672 0.598910 -0.036007
v 0.893405 0.362072 -0.382676
v 0.640911 0.293988 -0.654036
v -0.620247 0.521392 -0.703511
v 0.144632 0.332511 -0.762199
v -1.002317 0.535915 -0.791378
v 0.858378 0.095416 -1.109425
v 0.931760 0.527012 0.520304
v 1.088653 0.421718 0.003448
v 1.743276 0.188633 0.327604
v 1.345774 0.346489 0.003366
v 1.454328 0.214174 -0.402989
v 1.829059 0.111750 0.679797
v 2.014306 -0.002779 -0.475430
v 1.899010 0.018672 -0.631400
v 2.009238 0.007012 0.155276
v 1.339123 0.132757 -0.706393
v 2.257794 -0.257905 -0.509723
v 1.933419 -0.081216 -0.808779
v 1.183614 0.032727 -1.167670
v -1.304505 0.493601 -0.773420
v -0.994618 0.423272 -0.930372
v 0.287410 0.214515 -0.957520
v -1.548033 0.535350 -0.439839
v -1.404905 0.377596 -1.117618
v -0.803910 0.246857 -1.239856
v -0.393221 0.337939 -0.892703
v 0.051116 0.118887 -1.078288
v 0.815825 0.010459 -1.294324
v 0.607658 -0.049326 -1.341415
v -0.897616 0.181420 -1.300581
v 0.938335 -0.288332 -1.153740
v 0.202252 -0.067642 -1.213061
v -0.434512 0.015161 -1.333104
v 2.139080 -0.288604 0.439110
v 2.283988 -0.330380 -0.674451
v 1.575598 -0.233822 -1.235547
v 1.675675 -0.279841 -1.187815
v 2.211288 -0.395364 0.169237
v 2.199111 -0.440223 -0.389323
v 2.197546 -0.378177 -0.709075
v 2.124195 -0.460870 0.306282
v 1.629375 -0.463807 -0.858176
v 1.816968 -0.497749 -0.656199
v 1.317393 -0.293115 -1.226788
v 1.598462 -0.517346 0.635168
v 1.787308 -0.533635 -0.242934
v 1.222106 -0.390524 -1.038878
v 1.576457 -0.564585 0.416219
v 1.782809 -0.567129 -0.373626
v 1.114933 -0.586490 0.515834
v 1.434993 -0.632520 0.336994
v 1.738531 -0.644917 -0.236088
v 1.546983 -0.631183 -0.692166
v 1.010664 -0.461514 -0.981846
v -2.085433 0.127688 0.451497
v -2.174497 0.083364 -0.143204
v -2.071729 0.036963 -0.614708
v -2.025169 -0.061838 -0.616442
v -1.625942 -0.285827 -0.356123
v -1.384228 -0.063329 1.093446
v -1.050722 -0.099511 1.240175
v -1.818044 -0.016984 0.679251
v -0.974881 -0.258081 1.027904
v -0.115825 -0.463229 0.943689
v -1.499994 -0.224036 0.479854
v -1.100106 -0.310861 0.785845
v -0.460513 -0.457672 0.817644
v -1.011560 -0.401693 0.411749
v 0.107385 -0.572241 0.736248
v -1.343920 -0.323111 0.294742
v -0.214885 -0.322088 1.107877
v 0.430710 -0.548961 0.861870
v 0.209539 -0.572609 0.863383
v 0.485156 -0.632682 0.697542
v -1.844045 0.018864 -1.064739
v -1.898278 -0.082858 -0.973939
v -1.667910 -0.056140 -1.189376
v -1.522841 -0.219926 -1.226021
v -1.707164 -0.246853 -0.932864
v -1.723725 -0.276207 -0.716028
v 0.034248 -0.255947 -1.207567
v -1.086564 -0.198748 -1.388718
v -0.610380 -0.379822 -1.329527
v 0.201580 -0.522054 -1.140798
v -0.998202 -0.330206 -1.311710
v 0.072938 -0.574985 -1.160038
v 0.371237 -0.642850 -0.813718
v -1.340872 -0.319008 -1.133074
v -0.815398 -0.451360 -0.980101
v -0.313543 -0.514475 -1.161512
v -1.402263 -0.362936 -0.419840
v -0.788416 -0.467344 -0.784846
v -0.087937 -0.610189 -0.708339
v 1.540441 -0.695601 -0.243338
v 1.216976 -0.619859 -0.816737
v 0.965746 -0.650277 0.395885
v 1.610064 -0.677358 0.090023
v 0.683894 -0.693143 -0.411338
v 1.142128 -0.714462 -0.242899
v 1.080848 -0.681292 -0.619582
v 0.366697 -0.636297 0.004854
vn -0.2263 0.9641 -0.1389
vn -0.9958 -0.0603 0.0687
vn -0.7076 0.6214 0.3364
vn -0.8305 0.5488 -0.0953
vn 0.1087 0.9818 0.1558
vn 0.0034 0.9980 -0.0628
vn -0.9954 0.0949 0.0111
vn 0.1703 0.9814 0.0892
vn -0.4681 -0.1960 0.8617
vn -0.3107 0.7406 0.5959
vn 0.1979 0.8596 0.4711
vn -0.7794 0.2635 0.5684
vn -0.1930 0.5983 0.7777
vn 0.2686 0.8934 0.3600
vn -0.0360 0.7725 0.6340
vn 0.2956 0.8771 0.3786
vn 0.8088 -0.4014 0.4299
vn 0.0509 0.8919 0.4494
vn 0.3217 0.1169 0.9396
vn 0.2243 -0.1028 0.9691
vn -0.0998 0.9863 0.1310
vn -0.2334 0.3282 -0.9153
vn 0.1027 -0.0547 -0.9932
vn -0.2695 -0.9013 0.3392
vn 0.1337 0.6733 0.7272
vn -0.6039 0.6803 0.4153
vn -0.5684 -0.6047 0.5579
vn 0.0624 0.9837 0.1685
vn 0.5602 0.8283 -0.0084
vn -0.5263 -0.8149 0.2428
vn -0.7907 -0.6082 0.0698
vn -0.4175 0.1799 0.8907
vn -0.9554 0.2188 0.1983
vn -0.7083 0.6993 -0.0968
vn -0.1111 0.8243 0.5552
vn 0.3506 0.8782 0.3253
vn -0.8512 0.3184 0.4172
vn 0.5215 -0.1469 0.8405
vn -0.4032 0.9124 -0.0706
vn 0.1422 0.5562 -0.8188
vn 0.0898 -0.5839 0.8068
vn 0.4863 0.6028 0.6326
vn 0.1292 0.9309 0.3417
vn -0.1892 0.9405 0.2824
vn -0.1764 -0.3016 0.9370
vn -0.2721 0.4698 0.8398
vn 0.5320 0.6642 0.5252
vn -0.6762 -0.3118 0.6675
vn -0.0198 -0.5646 0.8251
vn 0.4746 0.6124 0.6322
vn -0.7975 -0.5977 0.0824
vn 0.4103 -0.8672 0.2821
vn 0.8556 -0.3604 0.3715
vn -0.8907 0.3564 -0.2822
vn -0.7614 -0.1965 0.6178
vn -0.0235 -0.2703 0.9625
vn -0.2500 -0.8827 0.3979
vn 0.1980 0.9452 -0.2597
vn -0.5113 0.7965 -0.3228
vn 0.2650 -0.8711 0.4135
vn -0.2564 -0.7639 0.5922
vn 0.2593 0.0784 0.9626
vn -0.8890 0.0700 -0.4526
vn -0.1534 -0.7921 0.5908
vn -0.0085 -0.9456 0.3252
vn -0.3795 -0.5820 0.7191
vn 0.3269 0.2567 0.9095
vn -0.7773 0.4895 -0.3952
vn -0.3446 -0.9359 -0.0732
vn -0.9747 0.0515 -0.2175
vn -0.0188 0.9697 -0.2436
vn -0.1623 0.7272 -0.6670
vn 0.1193 0.9228 -0.3664
vn 0.1055 0.9369 -0.3333
vn 0.1483 0.7723 -0.6177
vn 0.1634 0.7990 -0.5787
vn -0.1470 0.8074 -0.5714
vn 0.1179 0.8858 -0.4489
vn 0.1509 0.7940 -0.5889
vn 0.1455 0.9305 -0.3362
vn 0.3644 0.9279 0.0790
vn 0.3617 0.9288 0.0804
vn -0.0118 0.9410 0.3383
vn 0.4274 0.9039 -0.0172
vn 0.4196 0.9047 -0.0740
vn 0.1360 0.9664 -0.2181
vn 0.2696 0.9218 -0.2787
vn 0.3291 0.9202 -0.2117
vn 0.6807 0.7325 -0.0059
vn 0.2391 0.9403 -0.2423
vn 0.5796 0.8141 0.0365
vn 0.7231 0.6907 -0.0049
vn 0.3441 0.9304 -0.1264
vn 0.5695 0.7585 -0.3167
vn 0.9356 -0.0447 0.3502
vn 0.2292 0.9148 -0.3325
vn 0.0518 0.8711 -0.4884
vn 0.0462 0.9425 -0.3311
vn 0.0641 0.7176 -0.6935
vn 0.2180 0.8494 -0.4807
vn 0.0732 0.8997 -0.4303
vn -0.1177 0.9711 -0.2074
vn -0.0871 0.7856 -0.6126
vn -0.3465 0.9170 0.1976
vn 0.2275 0.9330 -0.2790
vn 0.0186 0.9458 -0.3242
vn 0.1034 0.8902 -0.4437
vn 0.1532 0.8962 -0.4164
vn -0.5746 0.4604 -0.6767
vn -0.2937 0.3919 -0.8718
vn -0.2237 0.2896 -0.9307
vn -0.0304 0.8117 -0.5832
vn -0.0009 0.6809 -0.7324
vn 0.0108 0.2208 -0.9753
vn -0.1649 -0.7287 -0.6647
vn 0.3275 0.8490 -0.4146
vn 0.1609 -0.1719 -0.9719
vn -0.2623 -0.9293 0.2600
vn 0.0951 0.8961 -0.4336
vn 0.1498 0.2349 -0.9604
vn 0.5419 -0.4806 -0.6894
vn 0.4323 -0.7333 -0.5248
vn 0.2960 -0.4772 -0.8275
vn 0.5269 -0.8339 -0.1644
vn -0.1394 -0.7236 -0.6760
vn 0.0798 -0.9009 -0.4266
vn 0.1967 -0.9779 -0.0708
vn 0.2466 -0.8606 -0.4456
vn -0.1354 -0.8760 -0.4629
vn 0.9544 -0.2954 0.0428
vn 0.2321 -0.9008 -0.3669
vn 0.0558 -0.8752 -0.4806
vn 0.9152 -0.3968 0.0702
vn 0.0400 -0.6954 -0.7175
vn 0.1992 -0.5709 -0.7965
vn 0.0318 -0.9936 0.1086
vn -0.1032 -0.9852 0.1368
vn -0.1509 -0.8228 0.5479
vn 0.2150 -0.8973 0.3855
vn -0.2509 -0.6093 -0.7522
vn 0.1955 -0.1213 -0.9732
vn 0.8886 -0.3731 0.2667
vn -0.4834 -0.5390 0.6898
vn 0.4113 -0.0521 0.9100
vn -0.3989 -0.8755 0.2729
vn 0.0749 -0.4042 0.9116
vn -0.6373 -0.7113 0.2964
vn -0.5209 -0.7155 0.4655
vn -0.1280 -0.8159 0.5638
vn -0.3067 -0.8118 0.4969
vn -0.5961 -0.6689 0.4441
vn -0.2810 -0.9457 0.1631
vn -0.1296 -0.7892 0.6002
vn -0.2285 -0.9571 0.1783
vn -0.1391 -0.9304 0.3393
vn -0.4175 -0.8994 0.1294
vn 0.4501 0.2160 0.8665
vn 0.3663 0.0339 0.9299
vn 0.0967 -0.8735 0.4771
vn 0.4484 0.2212 0.8660
vn 0.2053 -0.8428 0.4974
vn -0.2646 -0.9412 0.2099
vn -0.3438 -0.0955 -0.9342
vn -0.6328 -0.2998 -0.7139
vn -0.8691 -0.4046 -0.2847
vn -0.6072 -0.3820 -0.6967
vn -0.5423 -0.7343 -0.4084
vn 0.8214 0.3808 0.4246
vn 0.1999 -0.1183 -0.9726
vn -0.1090 -0.5560 -0.8240
vn -0.2723 0.0912 0.9579
vn -0.2691 -0.9515 -0.1494
vn -0.2015 -0.9794 0.0162
vn -0.1939 -0.9796 -0.0534
vn -0.2524 -0.8669 -0.4299
vn -0.0959 -0.9892 -0.1112
vn -0.0692 -0.9976 0.0076
vn -0.2043 -0.9768 -0.0642
vn -0.1529 -0.9796 -0.1308
vn 0.2460 -0.9080 0.3392
vn 0.0727 -0.6308 0.7726
vn -0.6579 0.5272 0.5379
vn 0.8071 -0.5274 0.2655
vn 0.2502 -0.9589 -0.1340
vn -0.5635 -0.8133 0.1450
vn 0.8464 -0.5317 -0.0282
vn 0.0637 -0.9644 -0.2565
vn 0.4556 -0.8632 -0.2173
vn 0.0470 -0.9943 -0.0952
vn 0.0842 -0.9865 -0.1404
vn 0.0473 -0.9979 0.0447
vn 0.0647 -0.9728 0.2225
vn -0.0150 -0.9962 -0.0853
vn -0.0252 -0.9942 -0.1047
vn -0.3459 -0.6438 0.6825
vn -0.1455 -0.9828 0.1141
vn 0.1401 0.6944 0.7058
vn 0.2478 -0.9688 0.0013
vn 0.1374 0.9904 -0.0169
vn -0.1345 0.7642 0.6307
vn -0.4487 -0.3422 0.8256
vn 0.2034 -0.0994 -0.9740
vn -0.4942 0.8047 -0.3290
vn 0.1421 0.9887 0.0478
vn 0.1747 0.9792 -0.1029
vn 0.1742 0.9806 0.0898
vn -0.3807 -0.1696 0.9090
vn -0.0898 0.9820 -0.1660
vn -0.1248 0.7457 0.6545
vn 0.1127 0.9926 0.0443
vn -0.2768 0.9608 -0.0128
vn 0.0450 0.9617 0.2705
vn -0.0528 0.9878 -0.1468
vn 0.2797 0.9324 0.2290
vn -0.1369 0.4900 0.8609
vn 0.3556 0.9316 0.0756
vn -0.5967 0.6171 -0.5129
vn 0.1362 0.6283 0.7660
vn -0.5127 0.8214 -0.2498
vn -0.2822 0.0342 0.9588
vn -0.5322 -0.5220 0.6665
vn 0.0756 0.7819 0.6188
vn -0.0578 0.9895 0.1328
vn 0.2033 0.9313 0.3023
vn 0.0077 0.7139 0.7002
vn -0.4403 0.8961 -0.0557
vn 0.1059 0.9364 0.3347
vn 0.2882 0.2659 0.9199
vn 0.3687 0.7625 0.5316
vn 0.3297 -0.3729 0.8673
vn -0.4061 0.5081 0.7596
vn 0.2194 0.4871 0.8453
vn 0.7738 0.1151 0.6228
vn -0.2839 0.0898 0.9546
vn 0.3403 0.4224 0.8401
vn -0.2723 -0.9017 0.3359
vn 0.0810 -0.3584 0.9301
vn -0.1498 -0.8840 0.4428
vn -0.8773 0.4625 -0.1284
vn -0.2117 -0.6044 0.7681
vn 0.1874 0.9665 -0.1754
vn 0.2281 0.6693 -0.7071
vn 0.1123 0.9925 -0.0479
vn 0.1607 0.9678 -0.1938
vn -0.6094 0.6213 -0.4926
vn 0.2114 0.9396 -0.2692
vn 0.1381 0.9448 -0.2973
vn 0.2999 0.9496 -0.0914
vn -0.1444 0.7648 -0.6278
vn 0.2949 0.9550 -0.0310
vn 0.1567 0.9760 -0.1513
vn 0.8849 0.4487 0.1252
vn 0.4165 0.9088 -0.0247
vn 0.4040 0.9134 -0.0506
vn 0.1789 0.9021 -0.3928
vn 0.9061 -0.2696 0.3261
vn 0.1389 0.9571 -0.2544
vn 0.8269 0.5336 0.1775
vn 0.5508 0.5244 -0.6493
vn 0.1912 0.9299 -0.3142
vn 0.2309 0.9142 -0.3330
vn 0.1827 -0.1911 -0.9644
vn -0.1710 -0.7439 -0.6461
vn 0.0065 -0.9948 0.1017
vn 0.2067 -0.1196 -0.9711
vn 0.9613 -0.2684 0.0622
vn 0.6635 0.6762 -0.3201
vn 0.3867 0.7166 -0.5805
vn 0.5893 0.4781 -0.6513
vn 0.6209 0.7491 -0.2309
vn 0.1974 -0.9784 0.0606
vn 0.2403 0.5560 -0.7957
vn 0.1088 -0.5918 -0.7987
vn 0.1429 -0.9880 0.0588
vn 0.6467 -0.7613 0.0470
vn 0.2711 -0.9447 -0.1846
vn 0.0420 -0.3225 -0.9457
vn 0.1256 -0.7560 -0.6424
vn 0.2194 -0.9756 -0.0053
vn -0.1072 -0.8594 -0.4999
vn -0.9090 -0.3959 0.1304
vn 0.0050 -0.9809 0.1947
vn 0.0082 -0.9776 0.2101
vn 0.2077 -0.1778 0.9619
vn -0.8949 -0.4190 -0.1538
vn -0.5316 -0.8421 0.0906
vn -0.3848 -0.8596 0.3362
vn -0.5209 -0.8447 0.1227
vn -0.6131 -0.7727 -0.1643
vn -0.4791 -0.8671 0.1363
vn -0.3491 -0.9163 0.1961
vn -0.2271 -0.9204 0.3182
vn -0.1703 -0.8883 0.4266
vn -0.1812 -0.9771 0.1112
vn -0.5468 -0.8277 0.1264
vn -0.2542 -0.9643 0.0745
vn -0.1527 -0.9879 0.0257
vn 0.1674 -0.7268 0.6662
vn -0.1146 -0.7865 0.6069
vn 0.0245 -0.9438 -0.3296
vn -0.1542 -0.9869 0.0468
vn -0.2111 -0.9742 -0.0800
vn -0.3369 -0.8945 -0.2940
vn -0.1858 -0.9355 -0.3006
vn -0.1650 -0.9522 -0.2569
vn -0.3069 -0.9491 0.0713
vn -0.1675 -0.9781 -0.1232
vn 0.3933 -0.7773 -0.4911
vn -0.0880 -0.9954 0.0385
vn -0.1675 -0.9858 0.0070
vn 0.0797 -0.9318 0.3542
vn 0.1568 -0.9395 0.3046
vn 0.1700 0.9477 -0.2702
vn -0.1547 -0.9874 0.0316
vt 0.029644 0.884881
vt 0.032115 0.882411
vt 0.032115 0.892292
vt 0.011858 0.867095
vt 0.021245 0.869071
vt 0.019269 0.871542
vt 0.023221 0.871047
vt 0.011364 0.872530
vt 0.021245 0.870059
vt 0.017292 0.875000
vt 0.018775 0.868083
vt 0.017292 0.890810
vt 0.017292 0.887352
vt 0.022727 0.887352
vt 0.017292 0.888834
vt 0.023221 0.889328
vt 0.023221 0.893281
vt 0.017787 0.880435
vt 0.022233 0.880929
vt 0.008893 0.880435
vt 0.015316 0.874506
vt 0.015316 0.884387
vt 0.005435 0.886364
vt 0.007411 0.890810
vt 0.004447 0.888834
vt 0.036561 0.888834
vt 0.032115 0.893281
vt 0.029150 0.890316
vt 0.024209 0.890810
vt 0.038043 0.890810
vt 0.014328 0.890810
vt 0.042490 0.887846
vt 0.026186 0.863142
vt 0.034091 0.864130
vt 0.032115 0.870553
vt 0.022233 0.887352
vt 0.025692 0.891304
vt 0.018775 0.890316
vt 0.041996 0.883399
vt 0.041502 0.879941
vt 0.022727 0.879941
vt 0.022727 0.884881
vt 0.020257 0.881917
vt 0.038043 0.889328
vt 0.022727 0.882905
vt 0.038043 0.882905
vt 0.024704 0.876976
vt 0.040514 0.876976
vt 0.028656 0.862648
vt 0.029150 0.868577
vt 0.020751 0.868083
vt 0.017787 0.865119
vt 0.013340 0.869565
vt 0.024209 0.884387
vt 0.018281 0.885375
vt 0.019269 0.882411
vt 0.020257 0.861166
vt 0.030632 0.885375
vt 0.033597 0.880929
vt 0.040020 0.881917
vt 0.007905 0.878458
vt 0.010375 0.875000
vt 0.015810 0.882905
vt 0.012846 0.883893
vt 0.011364 0.867589
vt 0.025692 0.874012
vt 0.023221 0.878458
vt 0.021245 0.877470
vt 0.039526 0.864625
vt 0.042490 0.866107
vt 0.039526 0.872530
vt 0.024704 0.863636
vt 0.022233 0.863636
vt 0.020751 0.858696
vt 0.004941 0.875988
vt 0.003458 0.870553
vt 0.011858 0.861660
vt 0.006917 0.863636
vt 0.009881 0.857708
vt -0.000494 0.866601
vt 0.001976 0.862154
vt 0.017292 0.861660
vt 0.024209 0.866107
vt 0.019269 0.855237
vt 0.029150 0.854743
vt 0.027668 0.858696
vt 0.035573 0.867589
vt 0.005435 0.863636
vt 0.023221 0.881917
vt 0.030632 0.870059
vt 0.034585 0.867095
vt 0.032609 0.875988
vt 0.027174 0.875494
vt 0.032115 0.884881
vt 0.024209 0.880929
vt 0.004941 0.871047
vt 0.012352 0.879447
vt 0.004941 0.880435
vt 0.024209 0.860672
vt 0.028162 0.858202
vt 0.001482 0.865119
vt 0.001482 0.861166
vt 0.033597 0.857708
vt 0.037055 0.858696
vt 0.041008 0.861660
vt 0.038043 0.861660
vt 0.006423 0.856719
vt 0.035573 0.885375
vt 0.034585 0.877470
vt 0.035573 0.875988
vt 0.010375 0.863636
vt 0.026186 0.891304
vt 0.023715 0.891304
vt 0.030138 0.891798
vt 0.037055 0.891304
vt 0.007905 0.880435
vt 0.010375 0.884881
vt 0.006917 0.888834
vt 0.000988 0.875000
vt 0.000988 0.864130
vt 0.005435 0.866601
vt 0.014822 0.884387
vt 0.012846 0.877964
vt 0.014822 0.887846
vt 0.008399 0.872036
vt 0.011364 0.870059
vt 0.010870 0.864130
vt 0.024704 0.859190
vt 0.023221 0.860672
vt 0.022233 0.856719
vt 0.024209 0.856225
vt 0.024209 0.887846
vt 0.032609 0.888834
vt 0.031621 0.862648
vt 0.026186 0.870553
vt 0.033103 0.879447
vt 0.033103 0.885375
vt 0.031126 0.881423
vt 0.029644 0.878458
vt 0.033103 0.871047
vt 0.033597 0.876482
vt 0.027174 0.882411
vt 0.035079 0.882411
vt 0.041996 0.874012
vt 0.035079 0.872036
vt 0.043972 0.878458
vt 0.041502 0.882411
vt 0.023221 0.879941
vt 0.023221 0.876976
vt 0.001482 0.857708
vt 0.005435 0.859190
vt 0.020257 0.888340
vt 0.016798 0.872530
vt 0.014328 0.864130
vt 0.025692 0.882905
vt 0.022727 0.885375
vt 0.022727 0.879447
vt 0.018281 0.866107
vt 0.010375 0.860672
vt 0.004941 0.852767
vt 0.024209 0.886364
vt 0.022727 0.870059
vt 0.024209 0.861660
vt 0.030138 0.859684
vt 0.008399 0.851779
vt 0.030632 0.871047
vt 0.031126 0.863142
vt 0.035079 0.863636
vt 0.029644 0.871047
vt 0.016798 0.855237
vt 0.014328 0.846838
vt 0.016798 0.847826
vt 0.017787 0.854249
vt 0.024704 0.851285
vt 0.032115 0.853261
vt 0.024704 0.853261
vt 0.034585 0.856719
vt 0.041502 0.867095
vt 0.044466 0.869565
vt 0.043972 0.872036
vt 0.021245 0.857708
vt 0.026186 0.858202
vt 0.014822 0.883399
vt 0.018775 0.879447
vt 0.018775 0.884881
vt 0.042984 0.873518
vt 0.042490 0.869071
vt 0.040020 0.860178
vt 0.041502 0.859190
vt 0.043972 0.862648
vt 0.040020 0.855731
vt 0.039526 0.868083
vt 0.026680 0.857708
vt 0.034091 0.859684
vt 0.036561 0.865613
vt 0.032115 0.860178
vt 0.035079 0.860178
vt 0.034585 0.854249
vt 0.033597 0.853261
vt 0.032609 0.856225
vt 0.029150 0.856225
vt 0.042490 0.881423
vt 0.042984 0.886858
vt 0.017292 0.854743
vt 0.021245 0.852767
vt 0.019763 0.860178
vt 0.017292 0.864625
vt 0.025692 0.859684
vt 0.010870 0.852273
vt 0.031621 0.885870
vt 0.033103 0.882411
vt 0.037549 0.882905
vt 0.020257 0.850791
vt 0.037549 0.875988
vt 0.022727 0.847826
vt 0.016304 0.848320
vt 0.007411 0.853755
vt 0.015316 0.852273
vt 0.026680 0.851285
vt 0.027174 0.848320
vt 0.024209 0.848814
vt 0.038538 0.868577
vt 0.039526 0.872036
vt 0.037055 0.869565
vt 0.041008 0.891304
vt 0.004941 0.860178
vt 0.045455 0.888340
vt 0.018281 0.889328
vt 0.016304 0.885375
vt 0.020751 0.889822
vt 0.021245 0.871542
vt 0.020257 0.879447
vt 0.017787 0.879447
vt 0.044960 0.884881
vt 0.020257 0.866107
vt 0.016304 0.869565
vt 0.029150 0.866601
vt 0.023715 0.886364
vt 0.016304 0.874012
vt 0.036561 0.853261
vt 0.035573 0.884387
vt 0.035573 0.880435
vt 0.044466 0.855731
vt 0.040020 0.852767
vt 0.022727 0.851779
vt 0.022727 0.857708
vt 0.020751 0.855731
vt 0.027174 0.852273
vt 0.031126 0.851779
vt 0.033597 0.853755
vt 0.024704 0.862648
vt 0.025692 0.862154
vt 0.017292 0.864130
vt 0.021245 0.884881
vt 0.022727 0.852767
vt 0.014822 0.891798
vt 0.009387 0.884387
vt 0.016798 0.892292
vt 0.002470 0.874012
vt 0.022233 0.868577
vt 0.005929 0.880929
vt 0.035079 0.876976
vt 0.036067 0.871047
vt 0.024704 0.890810
vt 0.030138 0.855237
vt 0.028656 0.884387
vt 0.025692 0.886858
vt 0.025692 0.879447
vt 0.030138 0.858202
vt 0.032115 0.852273
vt 0.029644 0.859190
vt 0.001482 0.855237
vt 0.009387 0.849802
vt 0.001482 0.855731
vt 0.003458 0.854249
vt 0.034091 0.887352
vt 0.038043 0.857708
vt 0.042490 0.865613
vt 0.045455 0.878458
vt 0.024704 0.888834
vt 0.014822 0.888340
vt 0.011858 0.881917
vt 0.014822 0.879447
vt 0.031126 0.883893
vt 0.028656 0.885870
vt 0.028656 0.879447
s 0
usemtl Mat_Rocks
f 1/1/1 37/2/1 71/3/1
f 4/4/2 49/5/2 3/6/2
f 49/5/3 46/7/3 3/6/3
f 3/6/4 2/8/4 4/4/4
f 9/9/5 11/10/5 25/11/5
f 12/12/6 5/13/6 7/14/6
f 19/15/7 17/16/7 12/17/7
f 6/18/8 8/19/8 5/13/8
f 33/20/9 40/21/9 15/22/9
f 18/23/10 5/24/10 12/25/10
f 26/26/11 21/27/11 24/28/11
f 18/29/12 12/17/12 17/16/12
f 5/24/13 18/23/13 15/22/13
f 21/27/14 26/26/14 22/30/14
f 15/22/15 6/31/15 5/24/15
f 30/32/16 22/30/16 26/26/16
f 61/33/17 114/34/17 107/35/17
f 28/36/18 25/37/18 11/38/18
f 31/39/19 26/26/19 32/40/19
f 30/32/20 26/26/20 31/39/20
f 35/41/21 42/42/21 38/43/21
f 150/44/22 103/45/22 155/46/22
f 106/47/23 156/48/23 155/46/23
f 62/49/24 59/50/24 45/51/24
f 50/52/25 45/51/25 44/53/25
f 33/54/26 34/55/26 35/56/26
f 18/29/27 17/16/27 33/54/27
f 9/9/28 25/11/28 21/57/28
f 82/58/29 88/59/29 86/60/29
f 33/54/30 17/16/30 34/55/30
f 19/15/31 34/55/31 17/16/31
f 36/61/32 39/62/32 40/21/32
f 34/55/33 37/63/33 35/56/33
f 34/55/34 96/64/34 37/63/34
f 40/21/35 39/62/35 44/53/35
f 43/65/36 50/52/36 44/53/36
f 47/66/37 41/67/37 42/68/37
f 64/69/38 61/70/38 57/71/38
f 42/68/39 2/8/39 3/6/39
f 103/45/40 98/43/40 106/47/40
f 66/72/41 45/51/41 48/73/41
f 55/74/42 48/73/42 50/52/42
f 43/65/43 38/75/43 47/76/43
f 47/66/44 42/68/44 46/7/44
f 53/77/45 51/78/45 134/79/45
f 47/76/46 46/80/46 52/81/46
f 55/74/47 50/52/47 54/82/47
f 52/83/48 46/7/48 49/5/48
f 134/79/49 144/84/49 53/77/49
f 68/85/50 48/73/50 55/74/50
f 96/64/51 34/55/51 19/15/51
f 65/86/52 114/34/52 61/33/52
f 114/34/53 111/87/53 107/35/53
f 130/88/54 4/4/54 2/8/54
f 36/89/55 33/54/55 35/56/55
f 58/90/56 60/91/56 56/92/56
f 66/72/57 62/49/57 45/51/57
f 73/93/58 76/94/58 14/95/58
f 72/96/59 1/97/59 97/98/59
f 65/86/60 61/33/60 64/99/60
f 60/91/61 58/90/61 59/50/61
f 69/100/62 66/72/62 48/73/62
f 148/101/63 149/102/63 130/88/63
f 70/103/64 67/104/64 62/49/64
f 65/105/65 64/69/65 63/106/65
f 134/79/66 51/78/66 133/107/66
f 48/73/67 68/85/67 69/100/67
f 72/96/68 148/101/68 130/88/68 2/8/68
f 1/108/69 71/109/69 97/110/69
f 130/88/70 129/111/70 4/4/70
f 7/14/71 16/112/71 13/113/71
f 72/114/72 150/44/72 148/115/72
f 76/116/73 78/117/73 16/118/73
f 73/119/74 74/120/74 75/121/74
f 94/122/75 78/117/75 99/123/75
f 76/116/76 99/123/76 78/117/76
f 78/117/77 93/124/77 16/118/77
f 77/125/78 95/126/78 99/123/78
f 77/125/79 99/123/79 76/116/79
f 77/125/80 75/121/80 79/127/80
f 23/128/81 20/129/81 22/130/81
f 23/128/82 22/130/82 27/131/82
f 25/37/83 28/36/83 24/28/83
f 82/58/84 27/132/84 30/42/84
f 86/60/85 83/133/85 82/58/85
f 81/134/86 74/91/86 10/135/86
f 83/136/87 74/137/87 81/138/87
f 83/139/88 86/140/88 84/141/88
f 82/58/89 30/42/89 85/142/89
f 83/139/90 84/141/90 74/143/90
f 82/58/91 85/142/91 88/59/91
f 90/144/92 86/60/92 88/59/92
f 86/140/93 87/145/93 84/141/93
f 86/60/94 91/146/94 87/147/94
f 85/142/95 31/148/95 32/149/95
f 84/150/96 89/151/96 74/120/96
f 95/126/97 77/125/97 79/127/97
f 97/152/98 93/124/98 94/122/98
f 95/126/99 100/153/99 99/123/99
f 100/153/100 98/43/100 99/123/100
f 79/127/101 101/154/101 95/126/101
f 93/155/102 71/156/102 96/157/102
f 95/126/103 101/154/103 102/158/103
f 46/7/104 42/68/104 3/6/104
f 92/159/105 89/151/105 87/160/105
f 97/161/106 71/156/106 93/155/106
f 98/43/107 97/152/107 94/122/107
f 98/43/108 94/122/108 99/123/108
f 150/44/109 72/114/109 97/152/109
f 102/158/110 105/162/110 100/153/110
f 97/152/111 103/45/111 150/44/111
f 102/158/112 100/153/112 95/126/112
f 98/43/113 103/45/113 97/152/113
f 103/45/114 106/47/114 155/46/114
f 104/163/115 127/164/115 105/162/115
f 87/160/116 91/165/116 92/159/116
f 106/47/117 105/162/117 154/166/117
f 67/167/118 63/168/118 62/169/118
f 92/159/119 101/154/119 79/127/119
f 102/158/120 101/154/120 109/170/120
f 108/171/121 113/172/121 110/173/121
f 116/174/122 126/175/122 115/176/122
f 126/175/123 168/177/123 127/164/123
f 112/178/124 113/179/124 108/180/124
f 117/181/125 104/163/125 102/158/125
f 120/182/126 117/181/126 110/173/126
f 116/183/127 112/184/127 119/185/127
f 113/172/128 115/176/128 110/173/128
f 163/186/129 156/48/129 159/187/129
f 119/188/130 122/189/130 116/190/130
f 116/174/131 115/176/131 113/172/131
f 110/173/132 115/176/132 120/182/132
f 122/189/133 119/188/133 125/191/133
f 104/163/134 120/182/134 127/164/134
f 127/164/135 168/177/135 157/192/135
f 172/193/136 169/194/136 147/195/136
f 63/168/137 118/196/137 65/197/137
f 123/198/138 67/104/138 70/103/138
f 124/199/139 121/200/139 67/201/139
f 155/46/140 158/202/140 151/203/140
f 157/192/141 159/187/141 154/166/141
f 125/191/142 119/188/142 121/200/142
f 51/78/143 52/81/143 133/107/143
f 144/84/144 55/74/144 54/82/144
f 138/204/145 139/205/145 135/206/145
f 54/82/146 53/77/146 144/84/146
f 49/5/147 128/207/147 135/206/147
f 52/83/148 135/206/148 133/208/148
f 144/84/149 134/79/149 136/209/149
f 136/209/150 134/79/150 133/107/150
f 52/83/151 49/5/151 135/206/151
f 143/210/152 141/211/152 139/212/152
f 137/213/153 144/84/153 136/209/153
f 141/211/154 140/214/154 139/212/154
f 142/215/155 137/213/155 140/216/155
f 132/217/156 143/218/156 138/204/156
f 123/198/157 68/85/157 145/219/157
f 144/84/158 145/219/158 55/74/158
f 147/220/159 145/219/159 146/221/159
f 68/85/160 55/74/160 145/219/160
f 147/220/161 123/198/161 145/219/161
f 146/222/162 137/223/162 142/224/162
f 150/44/163 155/46/163 151/203/163
f 150/44/164 149/225/164 148/115/164
f 131/226/165 130/88/165 149/102/165
f 151/203/166 149/225/166 150/44/166
f 152/227/167 149/225/167 151/203/167
f 107/35/168 85/142/168 32/149/168
f 154/166/169 127/164/169 157/192/169
f 155/46/170 156/48/170 158/202/170
f 29/58/171 15/22/171 58/90/171
f 152/228/172 161/229/172 153/230/172
f 166/231/173 141/211/173 165/232/173
f 162/233/174 166/231/174 165/232/174
f 158/202/175 161/234/175 151/203/175
f 160/235/176 166/231/176 159/236/176
f 174/237/177 166/231/177 160/235/177
f 165/232/178 164/238/178 153/230/178
f 163/239/179 159/236/179 166/231/179
f 124/199/180 170/240/180 121/200/180
f 145/219/181 144/84/181 146/221/181
f 169/241/182 67/110/182 123/242/182
f 121/200/183 170/240/183 125/191/183
f 126/243/184 125/191/184 167/244/184
f 129/111/185 135/206/185 128/207/185
f 116/190/186 122/189/186 125/191/186
f 126/245/187 173/246/187 168/247/187
f 116/190/188 125/191/188 126/243/188
f 167/248/189 172/193/189 173/246/189
f 167/248/190 173/246/190 126/245/190
f 172/193/191 167/248/191 170/249/191
f 170/249/192 124/250/192 169/194/192
f 171/251/193 173/246/193 172/193/193
f 173/246/194 171/251/194 160/235/194
f 45/51/195 59/50/195 58/90/195
f 142/224/196 147/195/196 146/222/196
f 44/53/197 45/51/197 40/21/197
f 125/191/198 170/240/198 167/244/198
f 7/14/199 5/13/199 8/19/199
f 28/36/200 11/38/200 15/22/200
f 18/23/201 33/20/201 15/22/201
f 156/48/202 106/47/202 154/166/202
f 72/96/203 2/8/203 1/97/203
f 9/9/204 10/135/204 8/19/204 11/10/204
f 7/14/205 8/19/205 14/95/205
f 8/19/206 6/18/206 11/10/206
f 45/51/207 58/90/207 15/22/207 40/21/207
f 13/113/208 12/12/208 7/14/208
f 11/38/209 6/31/209 15/22/209
f 21/57/210 20/129/210 80/252/210 9/9/210
f 35/56/211 37/63/211 1/97/211 42/68/211
f 21/57/212 25/11/212 24/253/212
f 42/42/213 41/254/213 38/43/213
f 22/130/214 20/129/214 21/57/214
f 24/28/215 28/36/215 29/58/215
f 27/131/216 22/130/216 30/255/216
f 96/64/217 16/256/217 93/257/217
f 26/26/218 24/28/218 29/58/218
f 19/15/219 12/17/219 13/258/219
f 29/58/220 28/36/220 15/22/220
f 36/61/221 40/21/221 33/20/221
f 38/75/222 39/62/222 36/61/222
f 35/41/223 38/43/223 36/184/223
f 43/65/224 44/53/224 39/62/224 38/75/224
f 51/78/225 53/77/225 43/65/225 47/76/225
f 42/68/226 1/97/226 2/8/226
f 47/76/227 38/75/227 41/259/227
f 29/58/228 56/92/228 32/40/228 26/26/228
f 54/82/229 50/52/229 43/65/229
f 48/73/230 45/51/230 50/52/230
f 51/78/231 47/76/231 52/81/231
f 54/82/232 43/65/232 53/77/232
f 57/260/233 61/33/233 107/35/233 32/149/233
f 56/92/234 29/58/234 58/90/234
f 57/71/235 32/40/235 56/92/235
f 60/91/236 59/50/236 62/49/236 63/106/236
f 69/100/237 68/85/237 70/103/237 62/49/237
f 60/91/238 63/106/238 64/69/238
f 71/261/239 37/63/239 96/64/239
f 69/100/240 62/49/240 66/72/240
f 8/19/241 10/135/241 73/93/241 14/95/241
f 105/162/242 106/47/242 98/43/242 100/153/242
f 10/135/243 9/9/243 80/252/243
f 74/91/244 73/93/244 10/135/244
f 19/15/245 13/258/245 16/256/245 96/64/245
f 76/94/246 73/93/246 77/262/246
f 75/263/247 77/262/247 73/93/247
f 80/252/248 23/128/248 83/196/248 81/134/248
f 93/124/249 78/117/249 94/122/249
f 80/252/250 20/129/250 23/128/250
f 81/134/251 10/135/251 80/252/251
f 90/144/252 88/59/252 107/35/252 111/87/252
f 82/58/253 23/264/253 27/132/253
f 83/196/254 23/128/254 82/265/254
f 75/121/255 74/120/255 89/151/255
f 85/142/256 30/42/256 31/148/256
f 92/266/257 79/267/257 89/268/257
f 107/35/258 88/59/258 85/142/258
f 109/170/259 91/165/259 110/173/259
f 75/121/260 89/151/260 79/127/260
f 87/160/261 89/151/261 84/150/261
f 127/164/262 154/166/262 105/162/262
f 102/158/263 104/163/263 105/162/263
f 170/249/264 169/194/264 172/193/264
f 156/48/265 154/166/265 159/187/265
f 112/178/266 108/180/266 90/144/266 111/87/266
f 86/60/267 90/144/267 91/146/267
f 92/159/268 91/165/268 109/170/268
f 91/165/269 108/171/269 110/173/269
f 91/146/270 90/144/270 108/180/270
f 121/200/271 119/188/271 114/34/271 118/269/271
f 109/170/272 101/154/272 92/159/272
f 110/173/273 117/181/273 109/170/273
f 114/270/274 65/197/274 118/196/274
f 111/87/275 114/34/275 112/178/275
f 116/190/276 113/179/276 112/178/276
f 102/158/277 109/170/277 117/181/277
f 120/182/278 115/176/278 126/175/278 127/164/278
f 119/188/279 112/178/279 114/34/279
f 120/182/280 104/163/280 117/181/280
f 128/207/281 49/5/281 4/4/281 129/111/281
f 67/167/282 118/196/282 63/168/282
f 121/271/283 118/196/283 67/167/283
f 57/71/284 56/92/284 60/91/284 64/69/284
f 130/88/285 131/226/285 129/111/285
f 129/111/286 131/226/286 132/217/286
f 133/107/287 135/272/287 139/273/287 136/209/287
f 132/217/288 135/206/288 129/111/288
f 131/226/289 149/102/289 152/274/289 153/275/289
f 132/217/290 138/204/290 135/206/290
f 139/212/291 138/276/291 143/210/291
f 136/209/292 139/273/292 140/216/292
f 137/213/293 136/209/293 140/216/293
f 142/224/294 140/214/294 141/211/294
f 132/217/295 131/226/295 153/275/295
f 164/238/296 141/211/296 143/210/296
f 165/232/297 141/211/297 164/238/297
f 123/198/298 70/103/298 68/85/298
f 146/221/299 144/84/299 137/213/299
f 157/192/300 168/177/300 173/277/300 160/278/300
f 174/237/301 142/224/301 141/211/301 166/231/301
f 165/232/302 153/230/302 161/229/302 162/233/302
f 151/203/303 161/234/303 152/227/303
f 162/279/304 158/202/304 156/48/304 163/186/304
f 158/202/305 162/279/305 161/234/305
f 132/280/306 153/230/306 164/238/306 143/210/306
f 166/231/307 162/233/307 163/239/307
f 157/192/308 160/278/308 159/187/308
f 174/237/309 171/251/309 172/193/309 147/195/309
f 174/237/310 160/235/310 171/251/310
f 169/281/311 124/282/311 67/283/311
f 169/284/312 123/285/312 147/286/312
f 14/95/313 76/94/313 16/112/313 7/14/313
f 174/237/314 147/195/314 142/224/314
