# Blender 4.2.1 LTS
# www.blender.org
o rock.002
v -0.163497 1.214916 1.656144
v 0.479700 0.218433 2.254405
v 0.407350 1.041414 0.575972
v -1.813146 0.540044 0.172959
v -2.212070 1.124363 0.671183
v -2.228802 0.351992 2.258082
v -1.881284 -0.492424 2.138127
v 0.616960 1.264116 -0.030847
v 1.555777 0.456335 1.147433
v 1.648026 0.414429 -0.945139
v -0.870477 -0.674366 -1.089408
v -1.403458 0.376321 -0.855972
v -1.482679 0.480849 0.830630
v -0.973594 -0.625009 1.320786
v 0.848379 0.261195 1.765199
v 0.620845 -0.232534 2.308754
v 1.312445 -0.211184 1.673628
v 0.428092 -0.350251 1.065078
v 0.309026 0.158165 0.927248
v -0.346648 0.128198 1.451188
v -0.315370 -0.470978 1.740812
v 0.442673 1.342271 0.865995
v 0.480973 0.673247 2.266614
v 0.791237 0.600385 1.348162
v -1.275884 1.432940 0.890128
v -0.684886 0.831165 0.148753
v -2.145774 0.868246 0.262257
v -1.242674 0.735247 2.401728
v -0.653370 -0.315804 2.404240
v -2.165124 -0.143365 2.303628
v -2.531421 0.735510 1.439954
v -2.055283 -0.093583 1.031944
v 1.435960 0.918305 -0.789343
v 1.606431 1.082101 0.970783
v 1.898181 0.373688 0.148414
v -0.549178 0.944512 -0.838587
v 0.415424 -0.260746 -1.257588
v -1.396462 -0.243867 -1.290359
v -0.592105 1.019522 0.733370
v 0.340412 -0.168383 1.495566
v -1.462392 -0.164252 1.334787
v -1.718681 0.407613 -0.013823
v -1.078426 -0.828343 0.058402
v 1.257467 0.077591 1.671271
v 0.755863 -0.006144 2.190926
v 1.016054 -0.338987 2.142941
v 0.671948 0.309960 1.172884
v 0.884144 -0.327588 1.332887
v 0.367667 -0.107829 0.910693
v 0.224719 0.312904 1.754644
v 0.157439 -0.415919 2.145989
v -0.393720 -0.212545 1.675235
v -0.090393 0.196380 1.031058
v 0.034653 -0.478131 1.378314
v 1.007582 1.005809 1.545409
v -0.886492 1.330650 0.175310
v -0.838513 0.050998 2.836978
v -1.792944 1.130514 1.626449
v -0.612602 0.098436 1.114849
v -2.685959 0.225134 1.187877
v 2.137423 1.007285 0.048992
v 0.032735 0.372980 -1.492230
v -0.000573 0.487165 1.707265
v -1.134933 1.001991 -0.090477
v 0.460139 -0.408849 0.082780
v -2.001970 -0.475779 0.023761
v 1.141085 -0.060655 2.110377
v 0.921750 0.027724 1.118119
v 0.124955 -0.101057 2.155271
v 0.293147 0.427692 1.204962
v 0.537869 -0.511509 1.803802
v -0.201601 -0.174820 1.076656
v 0.297257 1.385473 1.223200
v 0.471535 1.199019 0.663652
v 0.300815 0.980625 2.045819
v 0.549079 0.400070 2.334555
v 0.795203 0.328514 1.943357
v 0.736523 0.892525 0.800441
v -0.620235 1.483259 1.229888
v -1.854047 1.304383 0.697425
v 0.009302 0.969269 0.325215
v -1.348831 0.665233 0.118392
v -2.017322 0.691435 0.123306
v -2.296470 1.049260 0.406242
v -0.615988 1.038714 2.126898
v -1.854360 0.486352 2.410558
v 0.100955 -0.089440 2.438427
v -1.379542 -0.512049 2.342840
v -2.310547 0.091677 2.355154
v -2.048381 -0.379246 2.257114
v -2.523003 0.991899 0.936577
v -2.536573 0.491777 1.960656
v -2.019736 0.237490 0.429138
v -2.095812 -0.446260 1.675866
v 1.066471 1.147843 -0.458773
v 1.509715 0.616862 -0.894239
v 1.122365 1.254467 0.430124
v 1.540196 0.662762 1.100921
v 1.765304 0.416647 0.739680
v 1.866098 0.379591 -0.476144
v 0.066805 1.204239 -0.543210
v -1.072151 0.611893 -0.883474
v 1.182682 0.115438 -1.144820
v -0.350825 -0.542421 -1.214460
v -1.023896 -0.491251 -1.123911
v -1.468830 0.146528 -1.139711
v 0.012271 1.174386 0.422519
v -1.144252 0.730169 0.858987
v 1.060078 0.193724 1.329731
v -0.417109 -0.516192 1.556013
v -1.498695 0.215296 1.066580
v -1.126763 -0.448568 1.324394
v -1.573385 0.375374 -0.484469
v -1.737953 0.443260 0.476527
v -1.009373 -0.812262 -0.630389
v -1.072967 -0.775691 0.821513
v 1.087745 0.187985 1.715235
v 1.348183 -0.066948 1.686165
v 0.805780 0.132206 2.032647
v 0.717147 -0.139075 2.242275
v 0.800533 -0.303465 2.261764
v 1.212844 -0.300519 1.922245
v 0.818254 0.334458 1.440122
v 0.471309 0.231923 1.004956
v 1.115840 -0.276946 1.553554
v 0.627928 -0.348322 1.158939
v 0.397539 -0.243683 0.942262
v 0.330440 0.047836 0.890211
v 0.587234 0.318764 1.789262
v -0.150240 0.224121 1.608578
v 0.465288 -0.311766 2.228124
v -0.141229 -0.482708 1.968149
v -0.406442 -0.038964 1.573061
v -0.329686 -0.373996 1.759242
v 0.129702 0.187967 0.933355
v -0.281513 0.179867 1.207296
v 0.258833 -0.412480 1.177120
v -0.135462 -0.495603 1.619336
v 0.976899 0.903186 1.905323
v 1.044551 0.862839 1.474978
v 0.964263 1.222383 1.242767
v -0.138026 1.419301 0.438651
v -0.768598 1.118745 0.053983
v -1.600824 1.164543 0.043722
v -1.054625 1.501695 0.406837
v -1.014403 0.378743 2.760563
v -1.589288 -0.126036 2.677198
v -0.715331 -0.238366 2.810772
v -0.091585 0.363483 2.632409
v -1.595377 1.368333 1.289391
v -2.192445 0.976614 1.554243
v -1.584087 1.023579 2.039153
v -0.595593 -0.287590 1.840915
v -1.377991 -0.043377 1.050181
v -0.619995 0.462421 0.490378
v 0.238910 0.284199 1.195572
v -2.486078 0.019372 1.086315
v -2.681833 -0.088674 1.832395
v -2.801396 0.464037 1.305332
v -2.630101 0.546894 0.582156
v 1.997122 1.098696 0.425751
v 2.037193 0.712601 0.106247
v 1.927873 1.043825 -0.360307
v 0.781632 0.669738 -1.180148
v 0.244980 0.041856 -1.386626
v -0.757223 0.074463 -1.634805
v -0.229848 0.689443 -1.163721
v -0.283778 0.820584 1.188218
v -0.830046 0.106874 1.727995
v 0.225124 0.085859 1.729524
v 0.822963 0.832384 1.392843
v -0.888823 1.020986 -0.403406
v -1.490625 0.773384 -0.073858
v -0.908054 1.054800 0.276952
v 0.419751 -0.327601 0.751199
v -0.261568 -0.636007 0.041688
v 0.488785 -0.433119 -0.518708
v 1.175171 -0.083171 0.137491
v -1.530220 -0.717999 0.085952
v -1.840789 -0.362527 0.741746
v -1.873273 0.005702 -0.015467
v -1.903933 -0.445788 -0.737336
v 0.999679 -0.026854 2.169466
v 1.140846 -0.176708 2.158556
v 1.239834 0.010074 1.954822
v 1.139920 0.078493 1.371599
v 0.963955 -0.139946 1.163919
v 0.646799 -0.048630 0.968810
v 0.810840 0.167509 1.153758
v 0.150601 0.094984 2.043427
v -0.182210 -0.166648 1.960964
v 0.164306 -0.242979 2.143275
v 0.465766 -0.029923 2.201919
v 0.469971 0.383738 1.210194
v 0.093765 0.343580 1.107154
v 0.280258 0.433064 1.408095
v 0.348040 -0.529986 2.054489
v 0.279725 -0.523173 1.588558
v 0.721631 -0.451179 1.561779
v 0.793192 -0.475009 2.033980
v -0.130416 -0.348508 1.195647
v -0.373999 -0.202948 1.346717
v -0.193054 0.012365 1.021714
v 0.082664 -0.142520 0.942851
v 0.724134 1.159769 1.621375
v 1.028485 0.633399 1.987127
v 0.989960 1.110759 0.993259
v -0.308360 1.534980 0.760561
v -0.049649 1.224114 0.279271
v -1.469187 0.963677 -0.087615
v -1.755518 1.297871 0.307041
v -0.301801 0.704886 2.443265
v -1.751458 0.154228 2.667614
v -1.464199 -0.376548 2.621689
v 0.048444 0.055641 2.705083
v -1.044575 1.303388 1.704586
v -2.131103 1.215755 1.082891
v -2.166239 0.749364 2.087744
v 0.188982 0.003829 1.890445
v -1.415364 -0.443415 1.739827
v -1.365141 0.308449 0.453424
v 0.134576 0.659256 0.622067
v -2.426108 0.346882 0.473510
v -2.484998 -0.308983 1.737353
v -2.669929 0.211570 1.887017
v -2.646504 0.766011 0.768934
v 1.592747 1.231138 -0.046294
v 1.887482 0.723629 0.619869
v 1.905828 0.712001 -0.436866
v 0.435712 0.919875 -0.802014
v 0.938121 0.369490 -1.227763
v -0.450730 -0.255055 -1.379011
v -0.887249 0.398409 -1.278261
v 0.403808 1.055472 0.862163
v -0.970125 0.494064 1.282643
v -0.532022 -0.211932 1.656372
v 0.944303 0.426552 1.476363
v -0.420790 1.163174 -0.031349
v -1.296951 0.709708 -0.457833
v -1.388541 0.797596 0.413124
v 1.114165 -0.021446 0.759921
v -0.278441 -0.589043 0.752508
v -0.238819 -0.636336 -0.569497
v 1.182803 -0.081031 -0.457724
v -1.411635 -0.672662 -0.606730
v -1.441484 -0.626620 0.767235
v -1.797919 0.069825 0.583479
v -1.767312 0.009015 -0.619094
v 1.053824 0.088949 1.991485
v 0.941358 -0.159207 2.234329
v 1.290528 -0.131624 1.966906
v 1.038744 0.243967 1.379049
v 1.204886 -0.078714 1.394106
v 0.683810 -0.195227 1.003019
v 0.574741 0.092601 0.992205
v 0.522301 0.144759 2.066870
v -0.214665 0.006021 1.871601
v -0.123026 -0.322770 2.006153
v 0.454106 -0.175700 2.223102
v 0.584921 0.409822 1.458357
v 0.291588 0.303278 1.046779
v -0.059503 0.355629 1.269647
v 0.619050 -0.426646 2.168017
v 0.089219 -0.550431 1.845624
v 0.476086 -0.456211 1.357056
v 0.957879 -0.401174 1.779271
v 0.137138 -0.296337 1.030425
v -0.313088 -0.375049 1.451423
v -0.378593 -0.017792 1.258044
v 0.066535 0.025275 0.908971
vn 0.0990 0.8922 0.4407
vn 0.6473 -0.6907 0.3224
vn 0.5423 -0.1245 -0.8309
vn -0.0327 -0.5963 -0.8021
vn -0.5100 0.8486 -0.1408
vn -0.5458 0.3866 0.7434
vn -0.1701 -0.9795 0.1079
vn -0.0325 0.9994 -0.0135
vn 0.7070 -0.3377 0.6213
vn 0.6653 -0.4623 -0.5862
vn 0.0027 -0.8681 -0.4963
vn -0.6441 0.6411 -0.4172
vn -0.6201 0.6109 0.4922
vn -0.1984 -0.8534 0.4821
vn 0.2651 0.9039 0.3357
vn -0.1366 0.1643 0.9769
vn 0.6680 -0.6947 -0.2669
vn 0.1462 -0.8357 -0.5294
vn 0.1084 0.3781 -0.9194
vn -0.7159 0.6734 0.1846
vn -0.5833 -0.8115 0.0340
vn 0.3391 0.9257 -0.1674
vn 0.2967 0.5571 0.7757
vn 0.6078 -0.6980 -0.3787
vn -0.1668 0.9835 0.0704
vn 0.2481 -0.5065 -0.8258
vn -0.5733 0.2604 -0.7768
vn -0.1367 0.6874 0.7133
vn 0.2662 -0.9594 0.0931
vn -0.5828 -0.4217 0.6946
vn -0.7040 0.6453 0.2967
vn -0.0710 -0.8708 -0.4865
vn 0.3301 0.6468 -0.6875
vn 0.2578 0.8129 0.5222
vn 0.7658 -0.6420 0.0373
vn -0.2384 0.8259 -0.5109
vn 0.3441 -0.7741 -0.5314
vn -0.4114 -0.4771 -0.7766
vn -0.2356 0.8947 0.3795
vn 0.3959 -0.7479 0.5327
vn -0.6949 0.0162 0.7189
vn -0.8792 0.4563 -0.1372
vn -0.0043 -1.0000 0.0075
vn 0.7752 0.6313 0.0236
vn 0.0744 0.5755 0.8144
vn 0.4679 -0.7333 0.4933
vn 0.3274 0.7879 -0.5215
vn 0.4222 -0.8191 -0.3884
vn 0.0620 -0.1999 -0.9779
vn -0.2282 0.8775 0.4219
vn -0.2828 -0.4223 0.8612
vn -0.9500 -0.0643 0.3056
vn -0.4729 0.5579 -0.6820
vn -0.1174 -0.9409 -0.3175
vn 0.8578 0.4727 0.2019
vn 0.0497 0.7567 -0.6519
vn -0.0071 0.1296 0.9915
vn -0.3355 0.8567 0.3918
vn 0.2402 -0.8474 -0.4735
vn -0.8940 -0.3838 -0.2310
vn 0.9322 0.3619 0.0061
vn 0.1203 0.2740 -0.9542
vn -0.1075 0.6389 0.7618
vn -0.4021 0.9145 -0.0445
vn 0.3608 -0.9302 0.0676
vn -0.9127 -0.4074 0.0327
vn 0.4900 0.4884 0.7220
vn 0.5708 0.2098 -0.7938
vn -0.3570 0.3253 0.8756
vn -0.0198 0.9719 -0.2346
vn 0.1626 -0.9858 -0.0410
vn -0.5440 -0.4323 -0.7192
vn 0.1545 0.9573 0.2442
vn 0.5411 0.5011 -0.6753
vn 0.1383 0.7948 0.5909
vn 0.6080 -0.0557 0.7920
vn 0.6366 -0.7633 -0.1100
vn 0.5997 -0.5259 -0.6031
vn 0.0043 0.9649 0.2626
vn -0.3313 0.9420 -0.0533
vn 0.3993 -0.3761 -0.8361
vn 0.1296 -0.5834 -0.8018
vn -0.3423 -0.2457 -0.9069
vn -0.6096 0.6682 -0.4265
vn 0.0348 0.8096 0.5859
vn -0.3465 0.5381 0.7684
vn 0.4558 -0.8777 0.1477
vn 0.0853 -0.9930 0.0814
vn -0.6277 0.0688 0.7754
vn -0.4547 -0.7475 0.4842
vn -0.6478 0.7555 0.0983
vn -0.6747 0.5323 0.5113
vn -0.0480 -0.7860 -0.6163
vn -0.1097 -0.9474 -0.3007
vn 0.0784 0.9261 -0.3689
vn 0.5703 0.2910 -0.7682
vn 0.0016 0.9792 0.2029
vn 0.6463 0.0686 0.7600
vn 0.7503 -0.5804 0.3164
vn 0.7649 -0.5903 -0.2578
vn -0.0683 0.9586 -0.2765
vn -0.4702 0.7123 -0.5210
vn 0.4997 -0.6656 -0.5544
vn 0.1901 -0.8370 -0.5131
vn -0.2412 -0.7009 -0.6712
vn -0.6671 0.4612 -0.5850
vn -0.1005 0.9698 0.2224
vn -0.4241 0.7762 0.4665
vn 0.5153 -0.6102 0.6017
vn 0.1603 -0.8283 0.5369
vn -0.6861 0.4474 0.5736
vn -0.4288 -0.5642 0.7056
vn -0.7712 0.5532 -0.3150
vn -0.8041 0.5353 0.2585
vn -0.0300 -0.9750 -0.2200
vn -0.0399 -0.9859 0.1628
vn 0.4434 0.8708 0.2124
vn 0.9881 -0.0457 -0.1466
vn 0.1609 0.7971 0.5821
vn 0.0020 0.3142 0.9494
vn 0.1795 -0.4159 0.8915
vn 0.6135 -0.7860 0.0761
vn 0.3373 0.9407 -0.0362
vn 0.2611 0.5715 -0.7780
vn 0.5195 -0.7918 -0.3214
vn 0.2953 -0.8350 -0.4643
vn 0.0946 -0.6171 -0.7812
vn 0.1050 0.0714 -0.9919
vn 0.0462 0.9073 0.4180
vn -0.4697 0.8108 0.3494
vn -0.1861 -0.2519 0.9497
vn -0.4901 -0.6703 0.5573
vn -0.9054 0.3372 0.2581
vn -0.8952 -0.2970 0.3324
vn -0.1634 0.4859 -0.8586
vn -0.7203 0.6490 -0.2450
vn -0.0033 -0.9028 -0.4301
vn -0.2606 -0.9512 -0.1655
vn 0.5492 0.5983 0.5835
vn 0.9262 -0.3219 -0.1961
vn 0.5651 0.8241 0.0397
vn 0.2527 0.8602 -0.4429
vn 0.2091 0.0970 -0.9731
vn -0.2636 0.5717 -0.7770
vn -0.1117 0.9777 -0.1776
vn -0.0847 0.5022 0.8606
vn -0.3298 -0.2266 0.9164
vn 0.1587 -0.6219 0.7668
vn 0.2129 0.4071 0.8882
vn -0.2556 0.9300 0.2643
vn -0.4879 0.7944 0.3617
vn -0.2432 0.8055 0.5404
vn 0.2651 -0.9203 -0.2877
vn 0.1463 -0.8611 -0.4869
vn 0.2392 -0.7566 -0.6085
vn 0.3806 -0.8129 -0.4407
vn -0.5072 -0.7521 -0.4209
vn -0.8567 -0.4641 0.2251
vn -0.9594 0.2620 0.1045
vn -0.8234 -0.1304 -0.5523
vn 0.6395 0.7127 0.2882
vn 0.9701 -0.2423 -0.0128
vn 0.6767 0.5686 -0.4678
vn 0.1830 0.5638 -0.8054
vn 0.2187 -0.2359 -0.9469
vn -0.1005 -0.1786 -0.9788
vn -0.1021 0.7413 -0.6634
vn -0.1885 0.8280 0.5281
vn -0.3715 0.3882 0.8434
vn 0.2185 -0.1466 0.9648
vn 0.0439 0.7637 0.6441
vn -0.3465 0.8986 -0.2693
vn -0.6609 0.7430 -0.1057
vn -0.3158 0.9313 0.1818
vn 0.3842 -0.9075 0.1697
vn 0.2644 -0.9633 0.0471
vn 0.3756 -0.9172 -0.1332
vn 0.4817 -0.8740 0.0647
vn -0.3725 -0.9279 0.0156
vn -0.8852 -0.2523 0.3909
vn -0.9478 0.3163 -0.0406
vn -0.7328 -0.5427 -0.4104
vn 0.2445 0.5917 0.7682
vn 0.6180 -0.0669 0.7833
vn 0.6432 0.6237 0.4442
vn 0.7419 0.4388 -0.5070
vn 0.5829 -0.4990 -0.6412
vn 0.3637 0.0233 -0.9312
vn 0.4703 0.5311 -0.7048
vn -0.2987 0.7086 0.6392
vn -0.6685 0.1566 0.7271
vn -0.3507 -0.0200 0.9363
vn -0.0921 0.4690 0.8784
vn 0.1909 0.9085 -0.3716
vn -0.2298 0.8538 -0.4672
vn -0.1455 0.9757 0.1638
vn 0.0219 -0.9546 0.2972
vn 0.0548 -0.9864 -0.1548
vn 0.2745 -0.9412 -0.1970
vn 0.2681 -0.9533 0.1390
vn -0.3433 -0.7727 -0.5339
vn -0.8858 -0.3265 -0.3299
vn -0.6204 0.0251 -0.7839
vn -0.2251 -0.3960 -0.8902
vn 0.2365 0.8777 0.4168
vn 0.9129 -0.2805 0.2964
vn 0.8680 0.0426 -0.4947
vn 0.0807 0.9962 0.0312
vn 0.4094 0.3068 -0.8592
vn -0.0387 -0.0956 -0.9947
vn -0.3388 0.8840 -0.3222
vn 0.1010 0.6790 0.7271
vn -0.3647 0.2718 0.8906
vn -0.1768 -0.7143 0.6771
vn 0.4723 -0.3411 0.8127
vn -0.0897 0.9018 0.4228
vn -0.4356 0.8778 0.1992
vn -0.4440 0.7101 0.5465
vn 0.4049 -0.8842 -0.2329
vn 0.1432 -0.9353 -0.3235
vn 0.1500 -0.7888 -0.5960
vn 0.3740 -0.6922 -0.6172
vn -0.4789 -0.5823 -0.6570
vn -0.5513 -0.8304 -0.0802
vn -0.8822 0.1309 0.4522
vn -0.8766 0.4318 -0.2125
vn 0.1773 0.9802 -0.0883
vn 0.8967 -0.1030 0.4306
vn 0.8954 -0.0059 -0.4452
vn 0.0343 0.8204 -0.5708
vn 0.3128 0.1048 -0.9440
vn 0.0309 -0.4622 -0.8863
vn -0.3478 0.6324 -0.6922
vn -0.0817 0.9190 0.3857
vn -0.3970 0.6800 0.6165
vn -0.1023 -0.3502 0.9311
vn 0.4031 0.0256 0.9148
vn -0.1633 0.9866 0.0017
vn -0.6132 0.6762 -0.4083
vn -0.5347 0.8032 0.2626
vn 0.4783 -0.8513 0.2158
vn 0.2864 -0.9500 0.1247
vn 0.2623 -0.9583 -0.1131
vn 0.5003 -0.8546 -0.1391
vn -0.3233 -0.8957 -0.3054
vn -0.4800 -0.8198 0.3124
vn -0.9222 0.2715 0.2753
vn -0.8761 0.3971 -0.2733
vn 0.3264 0.8060 0.4938
vn 0.2744 0.1858 0.9435
vn 0.9088 -0.0710 0.4111
vn 0.5467 0.7931 -0.2686
vn 0.7612 -0.3051 -0.5722
vn 0.3901 -0.5586 -0.7320
vn 0.3456 0.3279 -0.8792
vn -0.0351 0.7614 0.6473
vn -0.5829 0.5823 0.5667
vn -0.6212 -0.0666 0.7808
vn -0.1999 0.1800 0.9631
vn 0.1592 0.9814 0.1078
vn 0.0308 0.7519 -0.6585
vn -0.4096 0.9115 0.0373
vn 0.0882 -0.8056 0.5858
vn -0.0658 -0.9971 0.0376
vn 0.1607 -0.9481 -0.2744
vn 0.3623 -0.9255 -0.1105
vn -0.1646 -0.7064 -0.6884
vn -0.6401 -0.6926 -0.3325
vn -0.9250 0.1082 -0.3641
vn -0.2422 -0.0146 -0.9701
vt 0.174407 0.868577
vt 0.173419 0.866601
vt 0.176877 0.864130
vt 0.176877 0.868083
vt 0.173419 0.863142
vt 0.176877 0.861660
vt 0.178854 0.863142
vt 0.179348 0.864130
vt 0.180336 0.867589
vt 0.183300 0.859684
vt 0.179842 0.859684
vt 0.179842 0.854249
vt 0.185277 0.856225
vt 0.175395 0.860672
vt 0.174407 0.854743
vt 0.176877 0.858202
vt 0.180336 0.859684
vt 0.173419 0.859684
vt 0.167984 0.862648
vt 0.165020 0.860672
vt 0.169466 0.856719
vt 0.171443 0.861660
vt 0.183794 0.867589
vt 0.182806 0.863142
vt 0.175889 0.871047
vt 0.174407 0.871542
vt 0.180336 0.871542
vt 0.178854 0.875000
vt 0.175395 0.874506
vt 0.173419 0.873518
vt 0.183794 0.871542
vt 0.167984 0.866601
vt 0.163043 0.866601
vt 0.168478 0.872036
vt 0.163043 0.873518
vt 0.182806 0.876976
vt 0.179348 0.881423
vt 0.175889 0.878458
vt 0.169466 0.876976
vt 0.165020 0.879941
vt 0.170455 0.880435
vt 0.168478 0.884387
vt 0.174407 0.882411
vt 0.173419 0.878458
vt 0.174407 0.875494
vt 0.172431 0.874506
vt 0.172431 0.876976
vt 0.171937 0.875494
vt 0.171937 0.871047
vt 0.171937 0.868083
vt 0.169960 0.871047
vt 0.168972 0.868577
vt 0.166502 0.867589
vt 0.169960 0.864130
vt 0.168972 0.871542
vt 0.167490 0.871542
vt 0.168972 0.872036
vt 0.167490 0.873518
vt 0.165020 0.873518
vt 0.165020 0.870059
vt 0.160573 0.868083
vt 0.163043 0.863142
vt 0.160573 0.873518
vt 0.193182 0.875494
vt 0.190217 0.881423
vt 0.186759 0.878458
vt 0.187253 0.874012
vt 0.193182 0.868083
vt 0.186759 0.868577
vt 0.168478 0.860672
vt 0.190711 0.860672
vt 0.185277 0.863636
vt 0.172431 0.871542
vt 0.172431 0.872036
vt 0.171937 0.873518
vt 0.170949 0.872036
vt 0.170949 0.875000
vt 0.171937 0.874506
vt 0.169960 0.874506
vt 0.170949 0.873518
vt 0.169960 0.873518
vt 0.168972 0.873518
vt 0.180830 0.864625
vt 0.181818 0.869071
vt 0.177372 0.870059
vt 0.176383 0.865119
vt 0.182806 0.874012
vt 0.183300 0.879447
vt 0.178854 0.880435
vt 0.177866 0.875000
vt 0.173419 0.875988
vt 0.172925 0.871047
vt 0.173913 0.880435
vt 0.172431 0.866107
vt 0.173419 0.886364
vt 0.179842 0.886858
vt 0.169960 0.883893
vt 0.165020 0.882411
vt 0.168478 0.878458
vt 0.169960 0.878953
vt 0.185771 0.884881
vt 0.161561 0.878458
vt 0.165514 0.875494
vt 0.168478 0.875000
vt 0.169960 0.875494
vt 0.170949 0.876976
vt 0.182312 0.882905
vt 0.182806 0.885375
vt 0.178854 0.887352
vt 0.177866 0.885375
vt 0.157115 0.864130
vt 0.160573 0.865613
vt 0.159091 0.872530
vt 0.155632 0.872530
vt 0.179348 0.889328
vt 0.175395 0.889822
vt 0.174901 0.888834
vt 0.172431 0.887352
vt 0.166008 0.873518
vt 0.165514 0.878458
vt 0.162549 0.875494
vt 0.164032 0.869565
vt 0.164032 0.884881
vt 0.160573 0.881423
vt 0.158597 0.877964
vt 0.160573 0.892292
vt 0.158597 0.888834
vt 0.159091 0.885870
vt 0.162549 0.890316
vt 0.168478 0.887846
vt 0.170455 0.889822
vt 0.157115 0.879941
vt 0.174901 0.882905
vt 0.179842 0.880435
vt 0.169960 0.884387
vt 0.166996 0.881423
vt 0.172431 0.879941
vt 0.177372 0.877964
vt 0.166008 0.885870
vt 0.166008 0.888834
vt 0.163538 0.887352
vt 0.161561 0.884387
vt 0.163538 0.882905
vt 0.162549 0.880435
vt 0.165514 0.877964
vt 0.161067 0.881423
vt 0.201581 0.865613
vt 0.199605 0.868577
vt 0.197628 0.865613
vt 0.196146 0.863142
vt 0.173419 0.888340
vt 0.169960 0.894763
vt 0.166502 0.893281
vt 0.168478 0.886364
vt 0.170455 0.876976
vt 0.175395 0.875988
vt 0.166008 0.875988
vt 0.170455 0.874506
vt 0.173419 0.874506
vt 0.184783 0.879941
vt 0.185277 0.881917
vt 0.192194 0.873518
vt 0.191206 0.877470
vt 0.186759 0.876482
vt 0.188241 0.871542
vt 0.159585 0.858202
vt 0.162549 0.854249
vt 0.166996 0.857708
vt 0.163538 0.860178
vt 0.190711 0.882411
vt 0.186759 0.882411
vt 0.191206 0.885870
vt 0.188735 0.887352
vt 0.185277 0.848320
vt 0.187747 0.846838
vt 0.189723 0.847332
vt 0.187253 0.849308
vt 0.184783 0.850791
vt 0.186265 0.851779
vt 0.190711 0.850791
vt 0.189229 0.853261
vt 0.192194 0.848814
vt 0.194664 0.849802
vt 0.193676 0.851779
vt 0.193182 0.854249
vt 0.167490 0.865613
vt 0.186759 0.854249
vt 0.189229 0.855731
vt 0.192688 0.855731
vt 0.190217 0.857708
vt 0.192194 0.857213
vt 0.183794 0.877964
vt 0.181324 0.875988
vt 0.183794 0.874506
vt 0.185277 0.875988
vt 0.187253 0.876976
vt 0.170949 0.870553
vt 0.168972 0.865119
vt 0.171443 0.860672
vt 0.173419 0.868577
vt 0.166502 0.858696
vt 0.169466 0.853755
vt 0.179348 0.874012
vt 0.182312 0.873518
vt 0.194170 0.883893
vt 0.193676 0.887846
vt 0.194664 0.879447
vt 0.197628 0.881423
vt 0.197628 0.884881
vt 0.164032 0.852273
vt 0.167490 0.848814
vt 0.196640 0.857213
vt 0.194664 0.858202
vt 0.197134 0.854743
vt 0.200593 0.854743
vt 0.200099 0.857213
vt 0.197628 0.858696
vt 0.197628 0.852273
vt 0.197628 0.849802
vt 0.201087 0.849802
vt 0.201581 0.852273
vt 0.204051 0.852273
vt 0.203557 0.854743
vt 0.203557 0.850296
vt 0.196640 0.870553
vt 0.194170 0.866601
vt 0.199605 0.875000
vt 0.203063 0.871542
vt 0.167490 0.887352
vt 0.165020 0.892787
vt 0.202569 0.857213
vt 0.202075 0.878458
vt 0.205040 0.875000
vt 0.162055 0.895257
vt 0.191700 0.862154
vt 0.199605 0.847826
vt 0.202569 0.848320
vt 0.162055 0.888340
vt 0.158103 0.880435
vt 0.164526 0.881423
vt 0.195652 0.847826
vt 0.193182 0.846344
vt 0.154644 0.872036
vt 0.157609 0.864625
vt 0.160573 0.857708
vt 0.163538 0.865119
vt 0.155632 0.857213
vt 0.159585 0.851779
vt 0.162549 0.849308
vt 0.166996 0.872530
vt 0.170949 0.877964
vt 0.162055 0.853261
vt 0.166008 0.852767
vt 0.165020 0.857708
vt 0.161067 0.859684
vt 0.168972 0.853755
vt 0.168478 0.858202
vt 0.167984 0.862154
vt 0.165020 0.863636
vt 0.161067 0.866601
vt 0.170949 0.881917
vt 0.169960 0.885375
vt 0.168478 0.882905
vt 0.169960 0.879941
vt 0.169960 0.889328
vt 0.167490 0.886364
vt 0.170455 0.860672
vt 0.167490 0.881423
vt 0.168972 0.877964
vt 0.164526 0.875494
vt 0.162055 0.872530
vt 0.166008 0.869071
vt 0.170455 0.869071
vt 0.157115 0.862648
vt 0.157609 0.855731
vt 0.158103 0.869565
vt 0.196640 0.884881
vt 0.196146 0.889822
vt 0.192194 0.891798
vt 0.193182 0.886364
vt 0.196640 0.878953
vt 0.193182 0.881423
vt 0.159091 0.875494
vt 0.163043 0.878458
vt 0.161561 0.880929
vt 0.158103 0.878458
vt 0.195652 0.893775
vt 0.191700 0.895257
vt 0.187747 0.895257
vt 0.188735 0.891798
vt 0.182312 0.865119
vt 0.178854 0.864625
vt 0.181324 0.860672
vt 0.183794 0.861166
vt 0.182312 0.857708
vt 0.184289 0.856719
vt 0.185277 0.894269
vt 0.185277 0.890810
vt 0.189723 0.887846
vt 0.189723 0.882905
vt 0.186759 0.887352
vt 0.187747 0.883893
vt 0.162549 0.847332
vt 0.166996 0.847826
vt 0.191206 0.873518
vt 0.190711 0.876482
vt 0.187747 0.873518
vt 0.174407 0.870553
vt 0.175395 0.873518
vt 0.171937 0.875000
vt 0.170455 0.850791
vt 0.190711 0.881423
vt 0.186759 0.881423
vt 0.198123 0.864130
vt 0.198617 0.868083
vt 0.195652 0.870553
vt 0.193182 0.866107
vt 0.193182 0.874506
vt 0.190711 0.870059
vt 0.178854 0.871047
vt 0.178854 0.874012
vt 0.179842 0.877964
vt 0.176383 0.877470
vt 0.183300 0.876482
vt 0.183300 0.880435
vt 0.182312 0.883399
vt 0.179842 0.882411
vt 0.176877 0.881917
vt 0.172925 0.877964
vt 0.173419 0.881917
vt 0.158103 0.849802
vt 0.192194 0.876976
vt 0.195652 0.874506
vt 0.191700 0.873518
vt 0.193182 0.871047
vt 0.194170 0.874506
vt 0.194170 0.876976
vt 0.186759 0.880929
vt 0.189723 0.878953
vt 0.185277 0.876976
vt 0.188735 0.875000
vt 0.203063 0.866601
vt 0.201581 0.871047
vt 0.194170 0.881423
vt 0.188735 0.870553
vt 0.185277 0.873024
vt 0.173913 0.886858
vt 0.177372 0.887846
vt 0.176877 0.892292
vt 0.173419 0.891304
vt 0.180830 0.887846
vt 0.183300 0.886858
vt 0.173419 0.847332
vt 0.177372 0.850791
vt 0.179842 0.892787
vt 0.171443 0.858202
vt 0.177866 0.858202
vt 0.174901 0.861660
vt 0.180336 0.854743
vt 0.172925 0.894763
vt 0.168972 0.892787
vt 0.176383 0.896245
vt 0.172431 0.864625
vt 0.176383 0.867095
vt 0.170455 0.867095
vt 0.173419 0.869071
vt 0.182806 0.852767
vt 0.197628 0.896245
vt 0.194664 0.892292
vt 0.197134 0.889328
vt 0.200099 0.893775
vt 0.200099 0.885375
vt 0.202075 0.889822
vt 0.183300 0.891304
vt 0.183300 0.887846
vt 0.191700 0.887352
vt 0.194170 0.884387
vt 0.190217 0.882411
vt 0.190711 0.878953
vt 0.196640 0.879941
vt 0.199111 0.875494
vt 0.202075 0.880435
vt 0.204051 0.875494
vt 0.184289 0.884387
vt 0.204051 0.884881
s 1
f 1/1/1 75/2/75 205/3/205 73/4/73
f 75/2/75 23/5/23 139/6/139 205/3/205
f 205/3/205 139/6/139 55/7/55 141/8/141
f 73/4/73 205/3/205 141/8/141 22/9/22
f 2/10/2 77/11/77 206/12/206 76/13/76
f 77/11/77 24/14/24 140/15/140 206/12/206
f 206/16/206 140/17/140 55/7/55 139/6/139
f 76/18/76 206/16/206 139/6/139 23/5/23
f 3/19/3 74/20/74 207/21/207 78/22/78
f 74/23/74 22/9/22 141/8/141 207/24/207
f 207/24/207 141/8/141 55/7/55 140/17/140
f 78/22/78 207/21/207 140/15/140 24/14/24
f 1/1/1 73/4/73 208/25/208 79/26/79
f 73/4/73 22/9/22 142/27/142 208/25/208
f 208/25/208 142/27/142 56/28/56 145/29/145
f 79/26/79 208/25/208 145/29/145 25/30/25
f 22/9/22 74/23/74 209/31/209 142/27/142
f 74/20/74 3/19/3 81/32/81 209/33/209
f 209/33/209 81/32/81 26/34/26 143/35/143
f 142/27/142 209/31/209 143/36/143 56/28/56
f 56/28/56 143/36/143 210/37/210 144/38/144
f 143/35/143 26/34/26 82/39/82 210/40/210
f 210/40/210 82/39/82 4/41/4 83/42/83
f 144/38/144 210/37/210 83/43/83 27/44/27
f 25/30/25 145/29/145 211/45/211 80/46/80
f 145/29/145 56/28/56 144/38/144 211/45/211
f 211/45/211 144/38/144 27/44/27 84/47/84
f 80/46/80 211/45/211 84/47/84 5/48/5
f 1/1/1 85/49/85 212/50/212 75/2/75
f 85/49/85 28/51/28 146/52/146 212/50/212
f 212/50/212 146/52/146 57/53/57 149/54/149
f 75/2/75 212/50/212 149/54/149 23/5/23
f 28/51/28 86/55/86 213/56/213 146/52/146
f 86/55/86 6/57/6 89/58/89 213/56/213
f 213/56/213 89/58/89 30/59/30 147/60/147
f 146/52/146 213/56/213 147/60/147 57/53/57
f 57/53/57 147/60/147 214/61/214 148/62/148
f 147/60/147 30/59/30 90/63/90 214/61/214
f 214/64/214 90/65/90 7/66/7 88/67/88
f 148/68/148 214/64/214 88/67/88 29/69/29
f 23/5/23 149/54/149 215/70/215 76/18/76
f 149/54/149 57/53/57 148/62/148 215/70/215
f 215/71/215 148/68/148 29/69/29 87/72/87
f 76/13/76 215/71/215 87/72/87 2/10/2
f 1/1/1 79/26/79 216/73/216 85/49/85
f 79/26/79 25/30/25 150/74/150 216/73/216
f 216/73/216 150/74/150 58/75/58 152/76/152
f 85/49/85 216/73/216 152/76/152 28/51/28
f 5/48/5 91/77/91 217/78/217 80/46/80
f 91/77/91 31/79/31 151/80/151 217/78/217
f 217/78/217 151/80/151 58/75/58 150/74/150
f 80/46/80 217/78/217 150/74/150 25/30/25
f 6/57/6 86/55/86 218/81/218 92/82/92
f 86/55/86 28/51/28 152/76/152 218/81/218
f 218/81/218 152/76/152 58/75/58 151/80/151
f 92/82/92 218/81/218 151/80/151 31/79/31
f 2/10/2 87/72/87 219/83/219 77/11/77
f 87/72/87 29/69/29 153/84/153 219/83/219
f 219/83/219 153/84/153 59/85/59 156/86/156
f 77/11/77 219/83/219 156/86/156 24/14/24
f 29/69/29 88/67/88 220/87/220 153/84/153
f 88/67/88 7/66/7 94/88/94 220/87/220
f 220/87/220 94/88/94 32/89/32 154/90/154
f 153/84/153 220/87/220 154/90/154 59/85/59
f 59/85/59 154/90/154 221/91/221 155/92/155
f 154/90/154 32/89/32 93/93/93 221/91/221
f 221/91/221 93/93/93 4/41/4 82/39/82
f 155/92/155 221/91/221 82/39/82 26/34/26
f 24/14/24 156/86/156 222/94/222 78/22/78
f 156/86/156 59/85/59 155/92/155 222/94/222
f 222/94/222 155/92/155 26/34/26 81/32/81
f 78/22/78 222/94/222 81/32/81 3/19/3
f 4/41/4 93/93/93 223/95/223 83/42/83
f 93/93/93 32/89/32 157/96/157 223/95/223
f 223/97/223 157/98/157 60/99/60 160/100/160
f 83/43/83 223/97/223 160/100/160 27/44/27
f 32/89/32 94/88/94 224/101/224 157/96/157
f 94/88/94 7/66/7 90/65/90 224/101/224
f 224/102/224 90/63/90 30/59/30 158/103/158
f 157/98/157 224/102/224 158/103/158 60/99/60
f 60/99/60 158/103/158 225/104/225 159/105/159
f 158/103/158 30/59/30 89/58/89 225/104/225
f 225/104/225 89/58/89 6/57/6 92/82/92
f 159/105/159 225/104/225 92/82/92 31/79/31
f 27/44/27 160/100/160 226/106/226 84/47/84
f 160/100/160 60/99/60 159/105/159 226/106/226
f 226/106/226 159/105/159 31/79/31 91/77/91
f 84/47/84 226/106/226 91/77/91 5/48/5
f 8/107/8 97/108/97 227/109/227 95/110/95
f 97/111/97 34/112/34 161/113/161 227/114/227
f 227/109/227 161/115/161 61/116/61 163/117/163
f 95/110/95 227/109/227 163/117/163 33/118/33
f 9/119/9 99/120/99 228/121/228 98/122/98
f 99/120/99 35/123/35 162/124/162 228/121/228
f 228/121/228 162/124/162 61/125/61 161/113/161
f 98/122/98 228/121/228 161/113/161 34/112/34
f 10/126/10 96/127/96 229/128/229 100/129/100
f 96/130/96 33/118/33 163/117/163 229/131/229
f 229/128/229 163/132/163 61/125/61 162/124/162
f 100/129/100 229/128/229 162/124/162 35/123/35
f 8/107/8 95/110/95 230/133/230 101/134/101
f 95/110/95 33/118/33 164/135/164 230/133/230
f 230/133/230 164/135/164 62/136/62 167/137/167
f 101/134/101 230/133/230 167/137/167 36/138/36
f 33/118/33 96/130/96 231/139/231 164/135/164
f 96/130/96 10/140/10 103/141/103 231/139/231
f 231/139/231 103/141/103 37/142/37 165/143/165
f 164/135/164 231/139/231 165/143/165 62/136/62
f 62/136/62 165/143/165 232/144/232 166/145/166
f 165/143/165 37/142/37 104/146/104 232/144/232
f 232/147/232 104/148/104 11/149/11 105/150/105
f 166/151/166 232/152/232 105/153/105 38/154/38
f 36/138/36 167/137/167 233/155/233 102/156/102
f 167/137/167 62/136/62 166/145/166 233/155/233
f 233/155/233 166/145/166 38/157/38 106/158/106
f 102/156/102 233/155/233 106/158/106 12/159/12
f 8/107/8 107/160/107 234/161/234 97/108/97
f 107/162/107 39/163/39 168/164/168 234/165/234
f 234/166/234 168/167/168 63/168/63 171/169/171
f 97/111/97 234/166/234 171/169/171 34/112/34
f 39/163/39 108/170/108 235/171/235 168/164/168
f 108/170/108 13/172/13 111/173/111 235/171/235
f 235/174/235 111/175/111 41/176/41 169/177/169
f 168/178/168 235/174/235 169/177/169 63/179/63
f 63/179/63 169/177/169 236/180/236 170/181/170
f 169/177/169 41/176/41 112/182/112 236/180/236
f 236/180/236 112/182/112 14/183/14 110/184/110
f 170/181/170 236/180/236 110/184/110 40/185/40
f 34/112/34 171/169/171 237/186/237 98/122/98
f 171/187/171 63/179/63 170/181/170 237/188/237
f 237/188/237 170/181/170 40/185/40 109/189/109
f 98/190/98 237/188/237 109/189/109 9/191/9
f 8/107/8 101/134/101 238/192/238 107/160/107
f 101/134/101 36/138/36 172/193/172 238/192/238
f 238/192/238 172/193/172 64/194/64 174/195/174
f 107/160/107 238/192/238 174/195/174 39/196/39
f 12/197/12 113/198/113 239/199/239 102/200/102
f 113/198/113 42/201/42 173/202/173 239/199/239
f 239/203/239 173/204/173 64/194/64 172/193/172
f 102/156/102 239/203/239 172/193/172 36/138/36
f 13/172/13 108/170/108 240/205/240 114/206/114
f 108/170/108 39/163/39 174/207/174 240/205/240
f 240/205/240 174/207/174 64/208/64 173/209/173
f 114/210/114 240/211/240 173/202/173 42/201/42
f 9/191/9 109/189/109 241/212/241 99/213/99
f 109/189/109 40/185/40 175/214/175 241/212/241
f 241/212/241 175/214/175 65/215/65 178/216/178
f 99/213/99 241/212/241 178/216/178 35/217/35
f 40/185/40 110/184/110 242/218/242 175/214/175
f 110/184/110 14/183/14 116/219/116 242/218/242
f 242/218/242 116/219/116 43/220/43 176/221/176
f 175/214/175 242/218/242 176/221/176 65/215/65
f 65/215/65 176/221/176 243/222/243 177/223/177
f 176/221/176 43/220/43 115/224/115 243/222/243
f 243/225/243 115/226/115 11/149/11 104/148/104
f 177/227/177 243/225/243 104/148/104 37/228/37
f 35/123/35 178/229/178 244/230/244 100/129/100
f 178/216/178 65/215/65 177/223/177 244/231/244
f 244/232/244 177/227/177 37/228/37 103/233/103
f 100/129/100 244/230/244 103/234/103 10/126/10
f 11/149/11 115/226/115 245/235/245 105/150/105
f 115/224/115 43/220/43 179/236/179 245/237/245
f 245/238/245 179/239/179 66/63/66 182/240/182
f 105/153/105 245/238/245 182/240/182 38/154/38
f 43/220/43 116/219/116 246/241/246 179/236/179
f 116/219/116 14/183/14 112/182/112 246/241/246
f 246/241/246 112/182/112 41/176/41 180/242/180
f 179/239/179 246/243/246 180/244/180 66/63/66
f 66/63/66 180/244/180 247/245/247 181/246/181
f 180/244/180 41/247/41 111/248/111 247/245/247
f 247/245/247 111/248/111 13/249/13 114/210/114
f 181/246/181 247/245/247 114/210/114 42/201/42
f 38/154/38 182/240/182 248/250/248 106/251/106
f 182/240/182 66/63/66 181/246/181 248/250/248
f 248/250/248 181/246/181 42/201/42 113/198/113
f 106/251/106 248/250/248 113/198/113 12/197/12
f 15/252/15 119/253/119 249/254/249 117/255/117
f 119/253/119 45/256/45 183/257/183 249/254/249
f 249/254/249 183/257/183 67/258/67 185/259/185
f 117/255/117 249/254/249 185/259/185 44/260/44
f 16/261/16 121/262/121 250/263/250 120/264/120
f 121/262/121 46/265/46 184/266/184 250/263/250
f 250/267/250 184/198/184 67/258/67 183/257/183
f 120/264/120 250/263/250 183/268/183 45/269/45
f 17/270/17 118/271/118 251/272/251 122/58/122
f 118/271/118 44/260/44 185/259/185 251/272/251
f 251/272/251 185/259/185 67/258/67 184/198/184
f 122/58/122 251/272/251 184/198/184 46/273/46
f 15/252/15 117/255/117 252/274/252 123/275/123
f 117/255/117 44/260/44 186/276/186 252/274/252
f 252/277/252 186/278/186 68/279/68 189/280/189
f 123/281/123 252/277/252 189/280/189 47/282/47
f 44/260/44 118/271/118 253/283/253 186/276/186
f 118/271/118 17/270/17 125/284/125 253/283/253
f 253/283/253 125/284/125 48/285/48 187/286/187
f 186/278/186 253/287/253 187/288/187 68/279/68
f 68/279/68 187/288/187 254/289/254 188/290/188
f 187/291/187 48/292/48 126/293/126 254/294/254
f 254/294/254 126/293/126 18/295/18 127/296/127
f 188/290/188 254/289/254 127/297/127 49/298/49
f 47/282/47 189/280/189 255/299/255 124/300/124
f 189/280/189 68/279/68 188/290/188 255/299/255
f 255/299/255 188/290/188 49/298/49 128/301/128
f 124/300/124 255/299/255 128/301/128 19/302/19
f 15/252/15 129/303/129 256/304/256 119/253/119
f 129/305/129 50/306/50 190/164/190 256/307/256
f 256/80/256 190/308/190 69/309/69 193/310/193
f 119/253/119 256/304/256 193/311/193 45/256/45
f 50/306/50 130/312/130 257/313/257 190/164/190
f 130/314/130 20/315/20 133/316/133 257/317/257
f 257/317/257 133/316/133 52/318/52 191/319/191
f 190/308/190 257/320/257 191/321/191 69/309/69
f 69/309/69 191/321/191 258/322/258 192/323/192
f 191/321/191 52/324/52 134/325/134 258/322/258
f 258/322/258 134/325/134 21/326/21 132/327/132
f 192/323/192 258/322/258 132/327/132 51/328/51
f 45/269/45 193/310/193 259/329/259 120/264/120
f 193/310/193 69/309/69 192/323/192 259/329/259
f 259/329/259 192/323/192 51/328/51 131/330/131
f 120/264/120 259/329/259 131/330/131 16/261/16
f 15/252/15 123/275/123 260/331/260 129/303/129
f 123/281/123 47/282/47 194/332/194 260/333/260
f 260/333/260 194/332/194 70/334/70 196/335/196
f 129/305/129 260/336/260 196/337/196 50/306/50
f 19/302/19 135/338/135 261/339/261 124/300/124
f 135/338/135 53/340/53 195/341/195 261/339/261
f 261/339/261 195/341/195 70/334/70 194/332/194
f 124/300/124 261/339/261 194/332/194 47/282/47
f 20/315/20 130/314/130 262/342/262 136/343/136
f 130/312/130 50/306/50 196/337/196 262/344/262
f 262/345/262 196/335/196 70/334/70 195/341/195
f 136/346/136 262/345/262 195/341/195 53/340/53
f 16/261/16 131/330/131 263/347/263 121/262/121
f 131/330/131 51/328/51 197/348/197 263/347/263
f 263/347/263 197/348/197 71/349/71 200/350/200
f 121/262/121 263/347/263 200/350/200 46/265/46
f 51/328/51 132/327/132 264/351/264 197/348/197
f 132/327/132 21/326/21 138/352/138 264/351/264
f 264/311/264 138/353/138 54/354/54 198/15/198
f 197/348/197 264/351/264 198/355/198 71/349/71
f 71/356/71 198/15/198 265/357/265 199/358/199
f 198/15/198 54/354/54 137/359/137 265/357/265
f 265/357/265 137/359/137 18/295/18 126/293/126
f 199/358/199 265/357/265 126/293/126 48/292/48
f 46/265/46 200/350/200 266/360/266 122/361/122
f 200/350/200 71/349/71 199/362/199 266/360/266
f 266/363/266 199/358/199 48/292/48 125/364/125
f 122/365/122 266/363/266 125/364/125 17/366/17
f 18/295/18 137/359/137 267/367/267 127/296/127
f 137/368/137 54/369/54 201/370/201 267/371/267
f 267/371/267 201/370/201 72/372/72 204/373/204
f 127/297/127 267/374/267 204/375/204 49/298/49
f 54/369/54 138/376/138 268/377/268 201/370/201
f 138/376/138 21/378/21 134/379/134 268/377/268
f 268/377/268 134/379/134 52/318/52 202/380/202
f 201/370/201 268/377/268 202/380/202 72/372/72
f 72/372/72 202/380/202 269/381/269 203/382/203
f 202/380/202 52/318/52 133/316/133 269/381/269
f 269/381/269 133/316/133 20/315/20 136/343/136
f 203/382/203 269/381/269 136/343/136 53/383/53
f 49/298/49 204/375/204 270/384/270 128/301/128
f 204/373/204 72/372/72 203/382/203 270/385/270
f 270/384/270 203/325/203 53/340/53 135/338/135
f 128/301/128 270/384/270 135/338/135 19/302/19
