# Blender 4.2.1 LTS
# www.blender.org
o Cube.014
v -0.240845 -0.020634 0.040548
v -0.240845 0.020634 0.040548
v -0.240845 -0.020634 -0.040548
v -0.240845 0.020634 -0.040548
v -0.175852 -0.020634 0.058152
v -0.175852 -0.000233 0.058152
v -0.175852 -0.020634 -0.022944
v -0.175852 -0.000233 -0.022944
v -0.064249 -0.029509 0.057987
v -0.064249 0.029509 0.057987
v -0.064249 -0.029509 -0.057987
v -0.064249 0.013144 -0.057987
v 0.064249 -0.029509 0.083163
v 0.064249 0.029509 0.083163
v 0.064249 -0.029509 -0.032812
v 0.064249 0.013144 -0.032812
v 0.087838 -0.020634 -0.162539
v 0.087838 0.020634 -0.162539
v 0.006800 -0.020634 -0.159478
v 0.006800 0.010060 -0.159478
v 0.082971 -0.020634 -0.228150
v 0.082971 0.020634 -0.228150
v 0.001933 -0.020634 -0.225089
v 0.001933 0.010060 -0.225089
v -0.084980 -0.029509 0.000000
v -0.084980 0.021326 0.000000
v 0.084980 -0.029509 0.025176
v 0.084980 0.021326 0.025176
vn -1.0000 -0.0000 -0.0000
vn 0.2614 -0.0000 -0.9652
vn 1.0000 -0.0000 -0.0000
vn -0.2614 -0.0000 0.9652
vn -0.0000 -1.0000 -0.0000
vn 0.3057 0.9521 -0.0000
vn -0.9416 -0.0000 -0.3366
vn 0.1923 -0.0000 -0.9813
vn 0.9416 -0.0000 0.3366
vn -0.1923 -0.0000 0.9813
vn 0.0236 0.9899 -0.1397
vn 0.0377 -0.0000 0.9993
vn -0.9973 -0.0000 0.0740
vn -0.0377 -0.0000 -0.9993
vn 0.9973 -0.0000 -0.0740
vn -0.1290 0.9916 0.0096
vn 0.9416 -0.0000 -0.3366
vn -0.9416 -0.0000 0.3366
vt 0.188241 0.867095
vt 0.190217 0.867095
vt 0.190217 0.869071
vt 0.188241 0.869071
vt 0.190217 0.870553
vt 0.188241 0.870553
vt 0.190217 0.872036
vt 0.188241 0.872036
vt 0.190217 0.874012
vt 0.188241 0.874012
vt 0.186759 0.870553
vt 0.186759 0.872036
vt 0.191700 0.870553
vt 0.191700 0.872036
vt 0.188241 0.868083
vt 0.190217 0.868083
vt 0.188241 0.871294
vt 0.190217 0.871294
vt 0.186759 0.871294
vt 0.191700 0.871294
s 0
f 1/1/1 2/2/1 4/3/1 3/4/1
f 3/4/2 4/3/2 8/5/2 7/6/2
f 7/6/3 8/5/3 6/7/3 5/8/3
f 5/8/4 6/7/4 2/9/4 1/10/4
f 3/11/5 7/6/5 5/8/5 1/12/5
f 8/5/6 4/13/6 2/14/6 6/7/6
f 25/15/7 26/16/7 12/3/7 11/4/7
f 11/4/8 12/3/8 16/5/8 15/6/8
f 27/17/9 28/18/9 14/7/9 13/8/9
f 13/8/10 14/7/10 10/9/10 9/10/10
f 25/19/5 27/17/5 13/8/5 9/12/5
f 28/18/11 26/20/11 10/14/11 14/7/11
f 17/1/12 18/2/12 20/3/12 19/4/12
f 19/4/13 20/3/13 24/5/13 23/6/13
f 23/6/14 24/5/14 22/7/14 21/8/14
f 21/8/15 22/7/15 18/9/15 17/10/15
f 19/11/5 23/6/5 21/8/5 17/12/5
f 24/5/16 20/13/16 18/14/16 22/7/16
f 16/5/11 12/13/11 26/20/11 28/18/11
f 11/11/5 15/6/5 27/17/5 25/19/5
f 15/6/17 16/5/17 28/18/17 27/17/17
f 9/1/18 10/2/18 26/16/18 25/15/18
