# Blender 4.2.1 LTS
# www.blender.org
mtllib PedraMediaVarB.mtl.mtl
o rock.001
v -0.920488 -0.366980 0.372281
v -0.784839 -0.008643 -0.454849
v -0.828698 0.779873 -0.201184
v -0.089161 0.576552 0.288032
v -0.241751 0.683891 -0.354368
v -0.128096 -0.069237 -0.444922
v -0.031368 -0.167464 0.259176
v -0.515812 0.171410 0.536979
v -0.920967 0.236566 0.016433
v -0.509013 0.855501 0.159302
v -0.311101 -0.384486 0.379888
v -0.025860 0.085598 0.344275
v -0.936853 -0.378827 -0.295494
v -0.450872 -0.058908 -0.488636
v 0.071611 -0.325701 -0.177846
v -0.552383 0.960812 -0.402495
v -0.127869 0.624031 -0.037389
v -0.846453 0.249786 -0.362207
v -0.087479 0.309216 -0.452576
v -0.690365 0.410442 0.238960
v -0.263168 -0.014077 0.499820
v -0.300030 -0.462470 -0.289654
v -0.350309 0.951152 -0.028823
v -1.037432 0.115524 -0.238797
v -0.488746 0.316908 -0.435654
v -0.019864 0.204481 -0.050693
v -0.731219 -0.005361 0.521043
v -0.291536 0.369831 0.417065
v -0.986641 0.043809 0.167097
v -0.871171 0.450528 -0.085677
v -0.701960 0.847242 -0.004535
v -0.289525 0.709938 0.196933
v -0.595099 -0.500683 0.406486
v -0.125890 -0.221622 0.315525
v -0.035968 0.313036 0.312554
v -0.030757 -0.058882 0.312927
v -0.932330 -0.393309 0.007860
v -0.858004 -0.126754 -0.419756
v -0.641717 -0.024478 -0.459250
v -0.263359 -0.064906 -0.475092
v -0.009328 -0.196233 -0.361578
v 0.003416 -0.244517 0.070918
v -0.715162 0.914573 -0.328178
v -0.391991 0.831953 -0.369156
v -0.102565 0.579919 0.085535
v -0.144801 0.698617 -0.176433
v -0.829021 0.097020 -0.443410
v -0.845740 0.471050 -0.284648
v -0.157837 0.499335 -0.399292
v -0.081913 0.091905 -0.477916
v -0.613165 0.314723 0.339723
v -0.634240 0.594335 0.212982
v -0.785886 0.312909 0.134320
v -0.292929 -0.135115 0.489372
v -0.161645 0.031875 0.441403
v -0.361703 0.039893 0.525233
v -0.623598 -0.413267 -0.270351
v -0.402240 -0.205785 -0.432893
v -0.050661 -0.429913 -0.256454
v -0.285785 -0.533546 0.034991
v -0.405790 0.937235 0.050420
v -0.237766 0.818615 -0.024378
v -0.434381 0.998619 -0.148113
v -0.998598 0.175741 -0.115462
v -0.958748 0.183752 -0.296935
v -1.082978 -0.085524 -0.282264
v -0.684118 0.301140 -0.461439
v -0.554855 0.567212 -0.424214
v -0.288251 0.318540 -0.446248
v -0.471567 0.104585 -0.457019
v -0.016399 0.148381 0.138623
v 0.028222 -0.051054 -0.094117
v 0.008109 0.258948 -0.261915
v -0.064780 0.418720 -0.045693
v -0.771784 0.185307 0.270968
v -0.453594 0.498980 0.279970
v -0.759538 0.530261 0.045817
v -0.502715 -0.170506 0.574166
v -0.137100 -0.077992 0.394664
v -0.210948 0.165138 0.413043
v -0.610572 -0.511966 0.029465
v -0.647696 -0.161158 -0.411100
v -0.152675 -0.243824 -0.451375
v -0.103190 -0.343202 0.061940
v -0.570012 0.988681 -0.090065
v -0.245333 0.754648 0.074114
v -0.287631 0.881763 -0.159779
v -1.118401 -0.081463 -0.046814
v -0.923643 0.310289 -0.182875
v -0.960587 0.028583 -0.395544
v -0.656914 0.100792 -0.471096
v -0.724407 0.558529 -0.398985
v -0.356971 0.547301 -0.434537
v -0.281070 0.107010 -0.447568
v -0.049685 0.368705 0.109716
v 0.039116 -0.076346 0.116878
v 0.006505 0.008028 -0.292804
v -0.055774 0.481082 -0.217932
v 0.094826 0.237519 0.348075
v 0.533031 0.046936 -0.419094
v 1.277474 -0.018135 -0.067898
v 0.939282 -0.475364 0.415667
v 1.139938 -0.420619 -0.211269
v 0.402496 -0.399713 -0.394105
v 0.209084 -0.413496 0.293083
v 0.557815 -0.108929 0.594674
v 0.729095 0.133780 0.073986
v 1.272774 -0.230161 0.309646
v 0.011765 -0.182405 0.374675
v 0.445456 -0.447759 0.410129
v 0.167530 0.212917 -0.314581
v 0.452429 -0.179673 -0.447313
v 0.097375 -0.487522 -0.156038
v 1.449832 -0.246370 -0.233996
v 1.030069 -0.473445 0.098541
v 0.780879 0.058919 -0.296244
v 0.769213 -0.481017 -0.351391
v 0.847030 -0.037888 0.324630
v 0.354065 -0.260479 0.542814
v 0.017085 -0.216933 -0.297308
v 1.372640 -0.364180 0.141461
v 0.654695 0.217063 -0.198190
v 0.817445 -0.202738 -0.347707
v 0.609899 -0.490714 0.034991
v 0.409890 0.064234 0.548546
v 0.742758 -0.298910 0.509529
v 0.528972 0.214666 0.195833
v 0.945646 0.063692 0.002349
v 1.305529 -0.104372 0.139759
v 1.102358 -0.360054 0.335760
v -0.074863 0.032307 0.376040
v 0.159237 -0.337204 0.338521
v 0.672875 -0.474199 0.407762
v 0.308561 -0.426011 0.360293
v 0.115388 0.228879 -0.016219
v 0.420992 0.116118 -0.402192
v 0.502824 -0.050405 -0.420482
v 0.424888 -0.308171 -0.428125
v 0.255332 -0.459740 -0.323901
v 0.153292 -0.437503 0.098130
v 1.412789 -0.122812 -0.172153
v 1.302587 -0.337831 -0.212041
v 0.969036 -0.477937 0.215325
v 1.122002 -0.479913 -0.029963
v 0.639662 0.063522 -0.395683
v 0.987598 0.031985 -0.190930
v 0.956056 -0.455673 -0.276599
v 0.559235 -0.456049 -0.404320
v 0.732733 -0.072448 0.414648
v 1.024091 -0.103894 0.324641
v 0.774773 0.036071 0.205184
v 0.240163 -0.223567 0.515809
v 0.395396 -0.340603 0.494516
v 0.414213 -0.198199 0.571470
v 0.097330 0.001793 -0.283189
v 0.296715 -0.189825 -0.409435
v 0.018221 -0.392608 -0.251533
v -0.094073 -0.198638 0.015148
v 1.355153 -0.319288 0.216108
v 1.230474 -0.423559 0.132686
v 1.442773 -0.319178 0.026648
v 0.694195 0.188681 -0.067055
v 0.720212 0.149698 -0.244136
v 0.468314 0.274207 -0.268740
v 0.826051 -0.066446 -0.382089
v 1.067864 -0.191077 -0.306387
v 0.798964 -0.342664 -0.350956
v 0.610615 -0.186298 -0.395653
v 0.531265 -0.474645 0.215138
v 0.360241 -0.490943 -0.039274
v 0.686290 -0.529600 -0.165935
v 0.823585 -0.489098 0.066026
v 0.631590 0.051748 0.324373
v 0.903290 -0.212176 0.384917
v 0.995459 -0.017455 0.146624
v 0.217449 -0.068316 0.587772
v 0.291112 -0.344967 0.434956
v 0.534483 -0.326548 0.481943
v -0.037643 0.023382 0.001097
v 0.363845 -0.024515 -0.390708
v 0.235180 -0.358717 -0.423891
v 0.069265 -0.350306 0.072774
v 1.440346 -0.220426 0.078036
v 1.156550 -0.403856 0.221589
v 1.314284 -0.405380 0.005157
v 0.446959 0.311476 -0.036552
v 0.826113 0.114149 -0.113741
v 0.580852 0.167026 -0.361777
v 0.628416 -0.057969 -0.416557
v 1.074339 -0.070814 -0.288488
v 1.028561 -0.326178 -0.312241
v 0.591499 -0.318269 -0.379322
v 0.753853 -0.483856 0.213826
v 0.308263 -0.483097 0.166556
v 0.444896 -0.495291 -0.228944
v 0.904901 -0.513729 -0.095983
vn -0.6920 -0.4561 0.5595
vn -0.1602 -0.1283 -0.9787
vn -0.9133 0.4049 -0.0439
vn 0.6231 0.5403 0.5655
vn 0.5743 0.4484 -0.6849
vn 0.4360 -0.0380 -0.8991
vn 0.7698 -0.4308 0.4709
vn -0.1472 0.3980 0.9055
vn -0.8098 0.4629 0.3606
vn -0.1882 0.6118 0.7683
vn 0.4484 -0.6792 0.5811
vn 0.8151 0.0828 0.5734
vn -0.4945 -0.6901 -0.5285
vn -0.0546 -0.1067 -0.9928
vn 0.9014 -0.4279 -0.0664
vn 0.0080 0.6873 -0.7263
vn 0.8973 0.4288 0.1052
vn -0.6315 0.2851 -0.7210
vn 0.5450 0.2054 -0.8129
vn -0.6380 0.3572 0.6822
vn 0.4408 0.0236 0.8973
vn 0.0638 -0.8485 -0.5253
vn 0.5174 0.8217 0.2389
vn -0.8774 0.3954 -0.2718
vn 0.0073 0.0757 -0.9971
vn 0.9841 0.1713 0.0475
vn -0.4902 0.1858 0.8516
vn 0.1030 0.4077 0.9073
vn -0.8568 0.2797 0.4333
vn -0.9189 0.3031 0.2523
vn -0.6821 0.5653 0.4639
vn 0.2706 0.6477 0.7122
vn -0.0885 -0.8131 0.5753
vn 0.6337 -0.5142 0.5780
vn 0.8383 0.1867 0.5122
vn 0.8266 -0.1626 0.5387
vn -0.6736 -0.7382 0.0375
vn -0.2648 -0.2861 -0.9209
vn -0.0828 -0.1534 -0.9847
vn 0.0650 -0.0551 -0.9964
vn 0.7854 -0.1326 -0.6047
vn 0.8381 -0.4529 0.3040
vn -0.5980 0.6381 -0.4851
vn 0.4446 0.4696 -0.7628
vn 0.8876 0.4566 0.0612
vn 0.8444 0.5080 -0.1701
vn -0.3757 0.1494 -0.9146
vn -0.8586 0.2136 -0.4661
vn 0.5546 0.3478 -0.7559
vn 0.4914 0.0194 -0.8707
vn -0.4780 0.5094 0.7156
vn -0.5007 0.3564 0.7888
vn -0.7414 0.4080 0.5328
vn 0.4484 -0.2727 0.8512
vn 0.5091 0.0400 0.8598
vn 0.2627 0.1324 0.9557
vn -0.1389 -0.8013 -0.5820
vn -0.0876 -0.4245 -0.9012
vn 0.5199 -0.7797 -0.3491
vn 0.2989 -0.9506 0.0839
vn 0.2098 0.8222 0.5292
vn 0.7629 0.6093 0.2159
vn 0.2821 0.9559 -0.0813
vn -0.8894 0.4529 0.0613
vn -0.7651 0.4224 -0.4859
vn -0.8972 -0.0893 -0.4325
vn -0.2431 0.1523 -0.9580
vn -0.0597 0.1148 -0.9916
vn -0.0026 0.0909 -0.9959
vn 0.0282 0.0937 -0.9952
vn 0.9878 0.1462 0.0535
vn 0.9953 0.0966 -0.0052
vn 0.9695 0.1856 -0.1601
vn 0.9670 0.2481 0.0581
vn -0.6863 0.4455 0.5749
vn -0.1885 0.4702 0.8622
vn -0.7929 0.3109 0.5240
vn 0.0485 -0.2231 0.9736
vn 0.5956 -0.2728 0.7556
vn 0.3951 0.2222 0.8914
vn -0.1429 -0.9890 -0.0388
vn -0.0864 -0.4126 -0.9068
vn 0.2666 -0.3533 -0.8967
vn 0.5853 -0.7557 0.2938
vn -0.3220 0.9203 0.2220
vn 0.6602 0.6516 0.3735
vn 0.7074 0.6712 -0.2215
vn -0.9928 -0.0317 0.1159
vn -0.9121 0.3857 -0.1389
vn -0.5938 0.1188 -0.7958
vn -0.0976 0.0751 -0.9924
vn -0.4865 0.1608 -0.8588
vn 0.1154 0.1594 -0.9804
vn -0.0085 0.0734 -0.9973
vn 0.9815 0.1907 -0.0157
vn 0.9852 0.0013 0.1715
vn 0.9500 0.0514 -0.3080
vn 0.9256 0.3522 -0.1382
vn -0.3578 0.8420 0.4037
vn 0.0322 0.1843 -0.9823
vn 0.4524 0.8914 -0.0273
vn 0.3425 -0.6605 0.6682
vn 0.3460 -0.7720 -0.5332
vn -0.0145 -0.5990 -0.8007
vn -0.5177 -0.7728 0.3671
vn 0.2985 0.1701 0.9391
vn 0.4474 0.8447 0.2938
vn 0.5393 0.1658 0.8256
vn -0.7667 -0.4335 0.4736
vn -0.1180 -0.8383 0.5323
vn -0.4939 0.6109 -0.6188
vn 0.0250 0.0233 -0.9994
vn -0.4896 -0.8705 -0.0500
vn 0.7541 -0.1725 -0.6337
vn 0.1678 -0.9734 0.1561
vn 0.4211 0.6663 -0.6154
vn 0.1818 -0.6560 -0.7325
vn 0.3358 0.7185 0.6090
vn -0.1710 -0.5074 0.8446
vn -0.7708 0.0131 -0.6370
vn 0.6453 -0.6820 0.3442
vn 0.4563 0.8660 -0.2043
vn 0.1950 -0.0889 -0.9768
vn -0.0292 -0.9958 0.0870
vn 0.1451 0.5925 0.7924
vn 0.2804 -0.1238 0.9519
vn 0.3114 0.8920 0.3278
vn 0.3357 0.9239 0.1835
vn 0.5474 0.7210 0.4249
vn 0.4631 -0.3922 0.7948
vn -0.8590 0.2645 0.4383
vn -0.5959 -0.6564 0.4627
vn -0.0396 -0.8590 0.5104
vn -0.3170 -0.8356 0.4485
vn -0.5422 0.8344 -0.0989
vn -0.1216 0.3269 -0.9372
vn -0.0127 0.0675 -0.9976
vn 0.0564 -0.1578 -0.9859
vn -0.1706 -0.8599 -0.4811
vn -0.5263 -0.8199 0.2252
vn 0.7264 0.5645 -0.3920
vn 0.4070 -0.6520 -0.6397
vn 0.2064 -0.9694 0.1331
vn 0.2701 -0.9615 -0.0507
vn 0.3157 0.4076 -0.8569
vn 0.3380 0.8608 -0.3804
vn 0.2820 -0.7224 -0.6313
vn 0.0426 -0.5828 -0.8115
vn 0.4684 0.5699 0.6752
vn 0.3113 0.5797 0.7530
vn 0.3932 0.8114 0.4325
vn -0.4259 -0.4822 0.7656
vn -0.1387 -0.5889 0.7962
vn -0.0253 -0.2842 0.9584
vn -0.6820 0.2695 -0.6799
vn -0.2907 0.1210 -0.9491
vn -0.7473 -0.5311 -0.3994
vn -0.9723 -0.2305 -0.0393
vn 0.7012 -0.3177 0.6383
vn 0.3323 -0.9026 0.2738
vn 0.8833 -0.4647 0.0615
vn 0.4623 0.8851 0.0537
vn 0.5035 0.7740 -0.3840
vn 0.1043 0.9070 -0.4080
vn 0.3036 0.2233 -0.9263
vn 0.2439 -0.0039 -0.9698
vn 0.2091 -0.0755 -0.9750
vn 0.2072 -0.1230 -0.9705
vn -0.0476 -0.9949 0.0889
vn -0.0780 -0.9960 0.0433
vn 0.0041 -0.9980 -0.0629
vn 0.0262 -0.9944 0.1021
vn 0.4230 0.7656 0.4848
vn 0.3871 0.2548 0.8861
vn 0.3170 0.8580 0.4041
vn -0.3570 0.0429 0.9331
vn -0.4162 -0.6423 0.6436
vn 0.0257 -0.4909 0.8708
vn -0.9272 0.3316 -0.1741
vn -0.2778 0.1192 -0.9532
vn -0.2915 -0.3412 -0.8937
vn -0.7777 -0.5980 0.1937
vn 0.9068 0.2816 0.3138
vn 0.3837 -0.8196 0.4256
vn 0.4421 -0.8934 -0.0799
vn 0.1127 0.9927 0.0432
vn 0.4329 0.8954 -0.1045
vn 0.2842 0.6381 -0.7156
vn 0.2131 0.0569 -0.9754
vn 0.3261 0.5043 -0.7996
vn 0.2490 -0.2494 -0.9358
vn 0.1941 -0.0659 -0.9788
vn -0.0096 -0.9990 0.0443
vn -0.1614 -0.9738 0.1602
vn -0.0795 -0.9790 -0.1875
vn 0.1290 -0.9910 -0.0369
vt 0.025692 0.886364
vt 0.022233 0.881423
vt 0.026186 0.876976
vt 0.029150 0.880929
vt 0.018775 0.875988
vt 0.023221 0.873024
vt 0.026186 0.871542
vt 0.028656 0.873518
vt 0.032115 0.875494
vt 0.016304 0.864625
vt 0.021245 0.863142
vt 0.022233 0.868577
vt 0.017292 0.870553
vt 0.025692 0.861660
vt 0.025692 0.867589
vt 0.035573 0.864130
vt 0.033597 0.870553
vt 0.030138 0.869071
vt 0.030632 0.862154
vt 0.041502 0.875494
vt 0.038043 0.879941
vt 0.034585 0.873024
vt 0.037055 0.869565
vt 0.033103 0.880435
vt 0.030138 0.874506
vt 0.028656 0.871047
vt 0.029644 0.868083
vt 0.032115 0.863142
vt 0.024209 0.878458
vt 0.022233 0.874506
vt 0.026186 0.874506
vt 0.028162 0.879447
vt 0.020257 0.869071
vt 0.025198 0.870059
vt 0.018281 0.856225
vt 0.025198 0.859190
vt 0.024704 0.864625
vt 0.018775 0.862154
vt 0.016304 0.865613
vt 0.024704 0.865119
vt 0.024704 0.873024
vt 0.015316 0.874012
vt 0.032115 0.864625
vt 0.032115 0.872036
vt 0.032609 0.879941
vt 0.024704 0.880929
vt 0.016798 0.880435
vt 0.012846 0.885375
vt 0.014328 0.881423
vt 0.017292 0.882411
vt 0.017292 0.886364
vt 0.015316 0.879941
vt 0.017787 0.879941
vt 0.021739 0.879941
vt 0.021245 0.882905
vt 0.021739 0.887846
vt 0.025692 0.883893
vt 0.026186 0.887352
vt 0.025198 0.878953
vt 0.028162 0.877964
vt 0.029644 0.881423
vt 0.024704 0.887846
vt 0.020751 0.883399
vt 0.023221 0.880435
vt 0.028162 0.883399
vt 0.032115 0.885375
vt 0.027174 0.882905
vt 0.032609 0.886858
vt 0.024704 0.885375
vt 0.025692 0.887846
vt 0.019269 0.885375
vt 0.031126 0.858696
vt 0.037055 0.860672
vt 0.026680 0.859190
vt 0.027174 0.860672
vt 0.028656 0.866601
vt 0.025198 0.866107
vt 0.023221 0.862154
vt 0.022233 0.857213
vt 0.017292 0.858202
vt 0.033103 0.883399
vt 0.027174 0.880435
vt 0.027668 0.873518
vt 0.033103 0.875494
vt 0.022233 0.876482
vt 0.023715 0.871047
vt 0.033103 0.868083
vt 0.012846 0.869565
vt 0.014822 0.863636
vt 0.019269 0.867095
vt 0.016798 0.873024
vt 0.032609 0.882905
vt 0.030138 0.886364
vt 0.034091 0.877964
vt 0.035573 0.878953
vt 0.035079 0.882411
vt 0.026186 0.858202
vt 0.032609 0.859190
vt 0.035573 0.873518
vt 0.012846 0.867589
vt 0.013340 0.872036
vt 0.011858 0.874506
vt 0.011364 0.871542
vt 0.036561 0.876482
vt 0.011858 0.878953
vt 0.014822 0.876482
vt 0.010375 0.880435
vt 0.010375 0.876976
vt 0.017292 0.875494
vt 0.016798 0.870553
vt 0.020257 0.870059
vt 0.021245 0.874506
vt 0.015316 0.864625
vt 0.011858 0.860672
vt 0.014328 0.857708
vt 0.019763 0.863636
vt 0.023715 0.863636
vt 0.024704 0.869071
vt 0.022727 0.858202
vt 0.025692 0.860672
vt 0.027174 0.864625
vt 0.028656 0.869071
vt 0.025198 0.874012
vt 0.029150 0.873518
vt 0.039032 0.858696
vt 0.039526 0.865613
vt 0.034585 0.863636
vt 0.033597 0.858696
vt 0.039526 0.872036
vt 0.034585 0.870059
vt 0.029644 0.869071
vt 0.029644 0.863142
vt 0.025198 0.885375
vt 0.019763 0.881917
vt 0.037055 0.877964
vt 0.034585 0.876482
vt 0.018281 0.876482
vt 0.032115 0.882411
vt 0.029644 0.874506
vt 0.025198 0.867095
vt 0.019763 0.876482
vt 0.019269 0.871542
vt 0.019763 0.865613
vt 0.014822 0.878458
vt 0.017787 0.886858
vt 0.012352 0.883399
vt 0.025198 0.861166
vt 0.019763 0.860672
vt 0.025198 0.855731
vt 0.019269 0.855731
vt 0.026186 0.872530
vt 0.028656 0.868083
vt 0.032609 0.868577
vt 0.032115 0.872530
vt 0.030138 0.863636
vt 0.034585 0.865613
vt 0.036561 0.866601
vt 0.036067 0.868577
vt 0.036561 0.872036
vt 0.036561 0.856719
vt 0.039526 0.859190
vt 0.036067 0.862154
vt 0.033103 0.860178
vt 0.042490 0.861660
vt 0.038538 0.864130
vt 0.044960 0.869071
vt 0.040514 0.870553
vt 0.039526 0.867589
vt 0.043972 0.864625
vt 0.024704 0.883893
vt 0.020751 0.881917
vt 0.025692 0.878458
vt 0.028656 0.879941
vt 0.020257 0.877964
vt 0.024209 0.875494
vt 0.026680 0.874012
vt 0.029150 0.874012
vt 0.033103 0.875988
vt 0.020751 0.871047
vt 0.023715 0.869565
vt 0.023715 0.872530
vt 0.020257 0.874012
vt 0.027668 0.867095
vt 0.027174 0.871047
vt 0.037055 0.864625
vt 0.035573 0.870059
vt 0.031126 0.870059
vt 0.032609 0.865613
vt 0.029644 0.864130
vt 0.024704 0.871047
vt 0.023221 0.864130
vt 0.031621 0.875988
vt 0.026680 0.876482
vt 0.020257 0.877470
vt 0.018775 0.871542
vt 0.018281 0.865613
vt 0.014328 0.863636
vt 0.017292 0.864130
vt 0.017292 0.866601
vt 0.013834 0.866601
vt 0.018281 0.864625
vt 0.018775 0.866601
vt 0.019269 0.869565
vt 0.017292 0.869565
vt 0.013340 0.870059
vt 0.013834 0.873518
vt 0.020257 0.872036
vt 0.021739 0.874012
vt 0.018775 0.875494
vt 0.013834 0.872530
vt 0.016798 0.869071
vt 0.018775 0.870553
vt 0.017292 0.874506
vt 0.016304 0.877470
vt 0.017292 0.874012
vt 0.015316 0.878458
vt 0.015316 0.872036
vt 0.013834 0.873024
vt 0.015316 0.868083
vt 0.018281 0.870059
vt 0.046443 0.863636
vt 0.047925 0.868083
vt 0.044466 0.860672
vt 0.034091 0.871542
vt 0.030138 0.873518
vt 0.030138 0.871047
vt 0.033103 0.869071
vt 0.036561 0.867589
vt 0.017787 0.878458
vt 0.019269 0.873518
vt 0.023715 0.877470
vt 0.021739 0.869565
vt 0.026186 0.870059
vt 0.029644 0.876976
vt 0.026680 0.861660
vt 0.031126 0.862648
vt 0.024209 0.864625
vt 0.028656 0.875000
vt 0.035079 0.874012
vt 0.036067 0.875494
vt 0.032609 0.875988
vt 0.036067 0.871047
vt 0.036067 0.875988
vt 0.041996 0.871542
vt 0.039032 0.873024
vt 0.027668 0.861660
vt 0.024704 0.862154
vt 0.022727 0.861660
vt 0.024704 0.860672
vt 0.038538 0.875000
vt 0.019269 0.861660
vt 0.021245 0.863636
vt 0.017787 0.860672
vt 0.020257 0.860672
vt 0.022233 0.865613
vt 0.026186 0.864625
vt 0.026680 0.867589
vt 0.023715 0.868577
vt 0.030138 0.863142
vt 0.035573 0.861660
vt 0.031126 0.866601
vt 0.031621 0.869565
vt 0.027668 0.870553
vt 0.036067 0.868083
vt 0.034091 0.870553
vt 0.031126 0.872036
vt 0.028162 0.873518
vt 0.024209 0.871542
vt 0.024704 0.874012
vt 0.037055 0.880435
vt 0.031621 0.881423
vt 0.033103 0.877470
vt 0.026680 0.882411
vt 0.027668 0.877964
vt 0.028162 0.874012
vt 0.033103 0.874012
vt 0.015316 0.872530
vt 0.017787 0.868083
vt 0.022233 0.880435
vt 0.023221 0.878953
vt 0.021739 0.866601
vt 0.018281 0.877470
vt 0.024209 0.875000
vt 0.029644 0.871047
vt 0.021739 0.867589
vt 0.025198 0.866601
vt 0.029644 0.866601
vt 0.019763 0.864130
vt 0.013834 0.867095
vt 0.015810 0.862648
vt 0.034091 0.870059
vt 0.033597 0.866107
vt 0.038043 0.870059
vt 0.037549 0.865119
s 1
usemtl Mat_Rocks
f 1/1/1 27/2/27 75/3/75 29/4/29
f 27/2/27 8/5/8 51/6/51 75/3/75
f 75/3/75 51/6/51 20/7/20 53/8/53
f 29/4/29 75/3/75 53/8/53 9/9/9
f 4/10/4 32/11/32 76/12/76 28/13/28
f 32/11/32 10/14/10 52/15/52 76/12/76
f 76/12/76 52/15/52 20/7/20 51/6/51
f 28/13/28 76/12/76 51/6/51 8/5/8
f 3/16/3 30/17/30 77/18/77 31/19/31
f 30/17/30 9/9/9 53/8/53 77/18/77
f 77/18/77 53/8/53 20/7/20 52/15/52
f 31/19/31 77/18/77 52/15/52 10/14/10
f 1/20/1 33/21/33 78/22/78 27/23/27
f 33/21/33 11/24/11 54/25/54 78/22/78
f 78/22/78 54/25/54 21/26/21 56/27/56
f 27/23/27 78/22/78 56/27/56 8/28/8
f 7/29/7 36/30/36 79/31/79 34/32/34
f 36/30/36 12/33/12 55/34/55 79/31/79
f 79/31/79 55/34/55 21/26/21 54/25/54
f 34/32/34 79/31/79 54/25/54 11/24/11
f 4/35/4 28/36/28 80/37/80 35/38/35
f 28/36/28 8/28/8 56/27/56 80/37/80
f 80/37/80 56/27/56 21/26/21 55/34/55
f 35/38/35 80/37/80 55/34/55 12/33/12
f 1/39/1 37/40/37 81/41/81 33/42/33
f 37/40/37 13/43/13 57/44/57 81/41/81
f 81/41/81 57/44/57 22/45/22 60/46/60
f 33/42/33 81/41/81 60/46/60 11/47/11
f 13/48/13 38/49/38 82/50/82 57/51/57
f 38/49/38 2/52/2 39/53/39 82/50/82
f 82/50/82 39/53/39 14/54/14 58/55/58
f 57/51/57 82/50/82 58/55/58 22/56/22
f 22/56/22 58/55/58 83/57/83 59/58/59
f 58/55/58 14/54/14 40/59/40 83/57/83
f 83/57/83 40/59/40 6/60/6 41/61/41
f 59/62/59 83/63/83 41/64/41 15/65/15
f 11/24/11 60/66/60 84/67/84 34/32/34
f 60/46/60 22/45/22 59/68/59 84/69/84
f 84/67/84 59/70/59 15/71/15 42/2/42
f 34/32/34 84/67/84 42/2/42 7/29/7
f 3/16/3 31/19/31 85/72/85 43/73/43
f 31/19/31 10/14/10 61/74/61 85/72/85
f 85/75/85 61/76/61 23/77/23 63/78/63
f 43/79/43 85/75/85 63/78/63 16/80/16
f 4/81/4 45/82/45 86/83/86 32/84/32
f 45/82/45 17/85/17 62/86/62 86/83/86
f 86/83/86 62/86/62 23/77/23 61/76/61
f 32/84/32 86/83/86 61/76/61 10/87/10
f 5/88/5 44/89/44 87/90/87 46/91/46
f 44/89/44 16/80/16 63/78/63 87/90/87
f 87/90/87 63/78/63 23/77/23 62/86/62
f 46/91/46 87/90/87 62/86/62 17/85/17
f 1/1/1 29/4/29 88/92/88 37/93/37
f 29/4/29 9/9/9 64/94/64 88/92/88
f 88/92/88 64/94/64 24/95/24 66/96/66
f 37/40/37 88/97/88 66/98/66 13/43/13
f 3/16/3 48/23/48 89/99/89 30/17/30
f 48/100/48 18/101/18 65/102/65 89/103/89
f 89/99/89 65/104/65 24/95/24 64/94/64
f 30/17/30 89/99/89 64/94/64 9/9/9
f 2/52/2 38/49/38 90/105/90 47/106/47
f 38/49/38 13/48/13 66/107/66 90/105/90
f 90/105/90 66/107/66 24/108/24 65/102/65
f 47/106/47 90/105/90 65/102/65 18/101/18
f 2/52/2 47/106/47 91/109/91 39/53/39
f 47/106/47 18/101/18 67/110/67 91/109/91
f 91/109/91 67/110/67 25/111/25 70/112/70
f 39/53/39 91/109/91 70/112/70 14/54/14
f 18/101/18 48/100/48 92/113/92 67/110/67
f 48/100/48 3/114/3 43/115/43 92/113/92
f 92/113/92 43/115/43 16/35/16 68/116/68
f 67/110/67 92/113/92 68/116/68 25/111/25
f 25/111/25 68/116/68 93/117/93 69/118/69
f 68/116/68 16/35/16 44/119/44 93/117/93
f 93/117/93 44/119/44 5/120/5 49/121/49
f 69/118/69 93/117/93 49/121/49 19/122/19
f 14/54/14 70/112/70 94/123/94 40/59/40
f 70/112/70 25/111/25 69/118/69 94/123/94
f 94/123/94 69/118/69 19/122/19 50/124/50
f 40/59/40 94/123/94 50/124/50 6/60/6
f 4/125/4 35/126/35 95/127/95 45/128/45
f 35/126/35 12/129/12 71/130/71 95/127/95
f 95/127/95 71/130/71 26/131/26 74/132/74
f 45/82/45 95/133/95 74/134/74 17/85/17
f 12/129/12 36/135/36 96/136/96 71/130/71
f 36/30/36 7/29/7 42/2/42 96/137/96
f 96/136/96 42/138/42 15/65/15 72/139/72
f 71/130/71 96/136/96 72/139/72 26/131/26
f 26/131/26 72/139/72 97/41/97 73/140/73
f 72/139/72 15/65/15 41/64/41 97/41/97
f 97/41/97 41/64/41 6/141/6 50/142/50
f 73/140/73 97/41/97 50/142/50 19/143/19
f 17/85/17 74/134/74 98/144/98 46/91/46
f 74/134/74 26/145/26 73/146/73 98/144/98
f 98/147/98 73/140/73 19/143/19 49/148/49
f 46/149/46 98/147/98 49/148/49 5/150/5
f 99/151/99 125/152/125 173/153/173 127/154/127
f 125/152/125 106/155/106 149/156/149 173/153/173
f 173/153/173 149/156/149 118/157/118 151/158/151
f 127/154/127 173/153/173 151/158/151 107/159/107
f 102/160/102 130/161/130 174/162/174 126/163/126
f 130/161/130 108/164/108 150/165/150 174/162/174
f 174/162/174 150/165/150 118/157/118 149/156/149
f 126/163/126 174/162/174 149/156/149 106/155/106
f 101/166/101 128/167/128 175/168/175 129/169/129
f 128/167/128 107/159/107 151/158/151 175/168/175
f 175/168/175 151/158/151 118/157/118 150/165/150
f 129/169/129 175/168/175 150/165/150 108/164/108
f 99/170/99 131/171/131 176/172/176 125/173/125
f 131/171/131 109/174/109 152/175/152 176/172/176
f 176/172/176 152/175/152 119/176/119 154/177/154
f 125/173/125 176/172/176 154/177/154 106/178/106
f 105/179/105 134/180/134 177/181/177 132/182/132
f 134/180/134 110/183/110 153/184/153 177/181/177
f 177/181/177 153/184/153 119/176/119 152/175/152
f 132/182/132 177/181/177 152/175/152 109/174/109
f 102/185/102 126/186/126 178/187/178 133/188/133
f 126/186/126 106/178/106 154/177/154 178/187/178
f 178/187/178 154/177/154 119/176/119 153/184/153
f 133/188/133 178/187/178 153/184/153 110/183/110
f 99/189/99 135/187/135 179/190/179 131/191/131
f 135/187/135 111/192/111 155/193/155 179/190/179
f 179/190/179 155/193/155 120/194/120 158/195/158
f 131/191/131 179/190/179 158/195/158 109/196/109
f 111/197/111 136/198/136 180/199/180 155/200/155
f 136/198/136 100/201/100 137/202/137 180/199/180
f 180/199/180 137/202/137 112/203/112 156/204/156
f 155/200/155 180/199/180 156/204/156 120/205/120
f 120/205/120 156/204/156 181/91/181 157/206/157
f 156/204/156 112/203/112 138/207/138 181/91/181
f 181/91/181 138/207/138 104/208/104 139/209/139
f 157/210/157 181/211/181 139/212/139 113/213/113
f 109/174/109 158/214/158 182/215/182 132/182/132
f 158/195/158 120/194/120 157/216/157 182/217/182
f 182/215/182 157/218/157 113/219/113 140/220/140
f 132/182/132 182/215/182 140/220/140 105/179/105
f 101/166/101 129/169/129 183/221/183 141/222/141
f 129/169/129 108/164/108 159/223/159 183/221/183
f 183/224/183 159/225/159 121/226/121 161/227/161
f 141/228/141 183/224/183 161/227/161 114/16/114
f 102/229/102 143/230/143 184/41/184 130/231/130
f 143/230/143 115/232/115 160/233/160 184/41/184
f 184/41/184 160/233/160 121/226/121 159/225/159
f 130/231/130 184/41/184 159/225/159 108/234/108
f 103/235/103 142/236/142 185/76/185 144/237/144
f 142/236/142 114/16/114 161/227/161 185/76/185
f 185/76/185 161/227/161 121/226/121 160/233/160
f 144/237/144 185/76/185 160/233/160 115/232/115
f 99/151/99 127/154/127 186/9/186 135/238/135
f 127/154/127 107/159/107 162/239/162 186/9/186
f 186/9/186 162/239/162 122/240/122 164/241/164
f 135/187/135 186/242/186 164/243/164 111/192/111
f 101/166/101 146/244/146 187/245/187 128/167/128
f 146/246/146 116/247/116 163/248/163 187/249/187
f 187/245/187 163/250/163 122/240/122 162/239/162
f 128/167/128 187/245/187 162/239/162 107/159/107
f 100/201/100 136/198/136 188/251/188 145/252/145
f 136/198/136 111/197/111 164/253/164 188/251/188
f 188/251/188 164/253/164 122/254/122 163/248/163
f 145/252/145 188/251/188 163/248/163 116/247/116
f 100/201/100 145/252/145 189/255/189 137/202/137
f 145/252/145 116/247/116 165/256/165 189/255/189
f 189/255/189 165/256/165 123/257/123 168/258/168
f 137/202/137 189/255/189 168/258/168 112/203/112
f 116/247/116 146/246/146 190/259/190 165/256/165
f 146/246/146 101/163/101 141/260/141 190/259/190
f 190/259/190 141/260/141 114/185/114 166/261/166
f 165/256/165 190/259/190 166/261/166 123/257/123
f 123/257/123 166/261/166 191/262/191 167/263/167
f 166/261/166 114/185/114 142/264/142 191/262/191
f 191/262/191 142/264/142 103/265/103 147/266/147
f 167/263/167 191/262/191 147/266/147 117/267/117
f 112/203/112 168/258/168 192/268/192 138/207/138
f 168/258/168 123/257/123 167/263/167 192/268/192
f 192/268/192 167/263/167 117/267/117 148/269/148
f 138/207/138 192/268/192 148/269/148 104/208/104
f 102/270/102 133/271/133 193/272/193 143/104/143
f 133/271/133 110/273/110 169/274/169 193/272/193
f 193/272/193 169/274/169 124/275/124 172/276/172
f 143/230/143 193/277/193 172/278/172 115/232/115
f 110/273/110 134/279/134 194/280/194 169/274/169
f 134/180/134 105/179/105 140/220/140 194/281/194
f 194/280/194 140/282/140 113/213/113 170/283/170
f 169/274/169 194/280/194 170/283/170 124/275/124
f 124/275/124 170/283/170 195/190/195 171/284/171
f 170/283/170 113/213/113 139/212/139 195/190/195
f 195/190/195 139/212/139 104/285/104 148/286/148
f 171/284/171 195/190/195 148/286/148 117/287/117
f 115/232/115 172/278/172 196/288/196 144/237/144
f 172/278/172 124/289/124 171/290/171 196/288/196
f 196/291/196 171/284/171 117/287/117 147/292/147
f 144/293/144 196/291/196 147/292/147 103/294/103
