# Blender 4.2.1 LTS
# www.blender.org
o Cube.014
v -0.483618 4.378201 0.836175
v -0.836175 4.378201 0.483618
v -0.836175 5.344719 0.483618
v -0.483618 5.344719 0.836175
v -0.836175 4.378201 -0.483618
v -0.483618 4.378201 -0.836175
v -0.483618 5.344719 -0.836175
v -0.836175 5.344719 -0.483618
v 0.836175 4.378201 0.483618
v 0.483618 4.378201 0.836175
v 0.483618 5.344719 0.836175
v 0.836175 5.344719 0.483618
v 0.483618 4.378201 -0.836175
v 0.836175 4.378201 -0.483618
v 0.836175 5.344719 -0.483618
v 0.483618 5.344719 -0.836175
v -0.424962 -0.000835 0.625000
v -0.625000 -0.000835 0.424962
v -0.625000 1.249165 0.424962
v -0.424962 1.249165 0.625000
v -0.625000 -0.000835 -0.424962
v -0.424962 -0.000835 -0.625000
v -0.424962 1.249165 -0.625000
v -0.625000 1.249165 -0.424962
v 0.625000 -0.000835 0.424962
v 0.424962 -0.000835 0.625000
v 0.424962 1.249165 0.625000
v 0.625000 1.249165 0.424962
v 0.424962 -0.000835 -0.625000
v 0.625000 -0.000835 -0.424962
v 0.625000 1.249165 -0.424962
v 0.424962 1.249165 -0.625000
v -0.427515 1.065083 0.625000
v -0.625000 1.065083 0.427515
v -0.625000 0.183247 0.427515
v -0.427515 0.183247 0.625000
v -0.427515 0.183247 -0.625000
v -0.625000 0.183247 -0.427515
v -0.625000 1.065083 -0.427515
v -0.427515 1.065083 -0.625000
v 0.625000 0.183247 -0.427515
v 0.427515 0.183247 -0.625000
v 0.427515 1.065083 -0.625000
v 0.625000 1.065083 -0.427515
v 0.427515 0.183247 0.625000
v 0.625000 0.183247 0.427515
v 0.625000 1.065083 0.427515
v 0.427515 1.065083 0.625000
v -0.734078 -0.016899 -0.535621
v -0.535621 -0.016899 -0.734078
v -0.535621 -0.016899 0.734078
v -0.734078 -0.016899 0.535621
v -0.734078 1.265228 0.535621
v -0.535621 1.265228 0.734078
v -0.535621 1.265228 -0.734078
v -0.734078 1.265228 -0.535621
v 0.734078 -0.016899 -0.535621
v 0.535621 -0.016899 -0.734078
v 0.535621 1.265228 -0.734078
v 0.734078 1.265228 -0.535621
v 0.734078 -0.016899 0.535621
v 0.535621 -0.016899 0.734078
v 0.535621 1.265228 0.734078
v 0.734078 1.265228 0.535621
v 0.536124 1.049019 0.734078
v 0.734078 1.049019 0.536124
v -0.734078 1.049019 0.536124
v -0.536124 1.049019 0.734078
v -0.536124 0.199310 0.734078
v -0.734078 0.199310 0.536124
v 0.536124 0.199310 0.734078
v 0.734078 0.199310 0.536124
v 0.734078 1.049019 -0.536124
v 0.536124 1.049019 -0.734078
v 0.734078 0.199310 -0.536124
v 0.536124 0.199310 -0.734078
v -0.536124 1.049019 -0.734078
v -0.734078 1.049019 -0.536124
v -0.734078 0.199310 -0.536124
v -0.536124 0.199310 -0.734078
v -0.625000 1.473407 0.424962
v -0.424962 1.473407 0.625000
v -0.424962 1.473407 -0.625000
v -0.625000 1.473407 -0.424962
v 0.424962 1.473407 0.625000
v 0.625000 1.473407 0.424962
v 0.625000 1.473407 -0.424962
v 0.424962 1.473407 -0.625000
v -0.424962 1.466242 0.625000
v -0.625000 1.466242 0.424962
v -0.625000 2.716242 0.424962
v -0.424962 2.716242 0.625000
v -0.625000 1.466242 -0.424962
v -0.424962 1.466242 -0.625000
v -0.424962 2.716242 -0.625000
v -0.625000 2.716242 -0.424962
v 0.625000 1.466242 0.424962
v 0.424962 1.466242 0.625000
v 0.424962 2.716242 0.625000
v 0.625000 2.716242 0.424962
v 0.424962 1.466242 -0.625000
v 0.625000 1.466242 -0.424962
v 0.625000 2.716242 -0.424962
v 0.424962 2.716242 -0.625000
v -0.427515 2.532160 0.625000
v -0.625000 2.532160 0.427515
v -0.625000 1.650323 0.427515
v -0.427515 1.650323 0.625000
v -0.427515 1.650323 -0.625000
v -0.625000 1.650323 -0.427515
v -0.625000 2.532160 -0.427515
v -0.427515 2.532160 -0.625000
v 0.625000 1.650323 -0.427515
v 0.427515 1.650323 -0.625000
v 0.427515 2.532160 -0.625000
v 0.625000 2.532160 -0.427515
v 0.427515 1.650323 0.625000
v 0.625000 1.650323 0.427515
v 0.625000 2.532160 0.427515
v 0.427515 2.532160 0.625000
v -0.734078 1.450178 -0.535621
v -0.535621 1.450178 -0.734078
v -0.535621 1.450178 0.734078
v -0.734078 1.450178 0.535621
v -0.734078 2.732305 0.535621
v -0.535621 2.732305 0.734078
v -0.535621 2.732305 -0.734078
v -0.734078 2.732305 -0.535621
v 0.734078 1.450178 -0.535621
v 0.535621 1.450178 -0.734078
v 0.535621 2.732305 -0.734078
v 0.734078 2.732305 -0.535621
v 0.734078 1.450178 0.535621
v 0.535621 1.450178 0.734078
v 0.535621 2.732305 0.734078
v 0.734078 2.732305 0.535621
v 0.536124 2.516096 0.734078
v 0.734078 2.516096 0.536124
v -0.734078 2.516096 0.536124
v -0.536124 2.516096 0.734078
v -0.536124 1.666387 0.734078
v -0.734078 1.666387 0.536124
v 0.536124 1.666387 0.734078
v 0.734078 1.666387 0.536124
v 0.734078 2.516096 -0.536124
v 0.536124 2.516096 -0.734078
v 0.734078 1.666387 -0.536124
v 0.536124 1.666387 -0.734078
v -0.536124 2.516096 -0.734078
v -0.734078 2.516096 -0.536124
v -0.734078 1.666387 -0.536124
v -0.536124 1.666387 -0.734078
v -0.625000 2.934882 0.424962
v -0.424962 2.934882 0.625000
v -0.424962 2.934882 -0.625000
v -0.625000 2.934882 -0.424962
v 0.424962 2.934882 0.625000
v 0.625000 2.934882 0.424962
v 0.625000 2.934882 -0.424962
v 0.424962 2.934882 -0.625000
v -0.424962 2.933319 0.625000
v -0.625000 2.933319 0.424962
v -0.625000 4.183319 0.424962
v -0.424962 4.183319 0.625000
v -0.625000 2.933319 -0.424962
v -0.424962 2.933319 -0.625000
v -0.424962 4.183319 -0.625000
v -0.625000 4.183319 -0.424962
v 0.625000 2.933319 0.424962
v 0.424962 2.933319 0.625000
v 0.424962 4.183319 0.625000
v 0.625000 4.183319 0.424962
v 0.424962 2.933319 -0.625000
v 0.625000 2.933319 -0.424962
v 0.625000 4.183319 -0.424962
v 0.424962 4.183319 -0.625000
v -0.427515 3.999237 0.625000
v -0.625000 3.999237 0.427515
v -0.625000 3.117401 0.427515
v -0.427515 3.117401 0.625000
v -0.427515 3.117401 -0.625000
v -0.625000 3.117401 -0.427515
v -0.625000 3.999237 -0.427515
v -0.427515 3.999237 -0.625000
v 0.625000 3.117401 -0.427515
v 0.427515 3.117401 -0.625000
v 0.427515 3.999237 -0.625000
v 0.625000 3.999237 -0.427515
v 0.427515 3.117401 0.625000
v 0.625000 3.117401 0.427515
v 0.625000 3.999237 0.427515
v 0.427515 3.999237 0.625000
v -0.734078 2.917255 -0.535621
v -0.535621 2.917255 -0.734078
v -0.535621 2.917255 0.734078
v -0.734078 2.917255 0.535621
v -0.734078 4.199382 0.535621
v -0.535621 4.199382 0.734078
v -0.535621 4.199382 -0.734078
v -0.734078 4.199382 -0.535621
v 0.734078 2.917255 -0.535621
v 0.535621 2.917255 -0.734078
v 0.535621 4.199382 -0.734078
v 0.734078 4.199382 -0.535621
v 0.734078 2.917255 0.535621
v 0.535621 2.917255 0.734078
v 0.535621 4.199382 0.734078
v 0.734078 4.199382 0.535621
v 0.536124 3.983174 0.734078
v 0.734078 3.983174 0.536124
v -0.734078 3.983174 0.536124
v -0.536124 3.983174 0.734078
v -0.536124 3.133464 0.734078
v -0.734078 3.133464 0.536124
v 0.536124 3.133464 0.734078
v 0.734078 3.133464 0.536124
v 0.734078 3.983174 -0.536124
v 0.536124 3.983174 -0.734078
v 0.734078 3.133464 -0.536124
v 0.536124 3.133464 -0.734078
v -0.536124 3.983174 -0.734078
v -0.734078 3.983174 -0.536124
v -0.734078 3.133464 -0.536124
v -0.536124 3.133464 -0.734078
v -0.625000 4.384333 0.424962
v -0.424962 4.384333 0.625000
v -0.424962 4.384333 -0.625000
v -0.625000 4.384333 -0.424962
v 0.424962 4.384333 0.625000
v 0.625000 4.384333 0.424962
v 0.625000 4.384333 -0.424962
v 0.424962 4.384333 -0.625000
v 0.667476 3.411346 0.427515
v 0.667476 3.705292 0.427515
v 0.427515 3.705292 0.656127
v 0.427515 3.411346 0.656127
v -0.661305 3.705292 0.427515
v -0.661305 3.411346 0.427515
v -0.427515 3.411346 0.656127
v -0.427515 3.705292 0.656127
v 0.427515 3.411346 -0.663382
v 0.427515 3.705292 -0.663382
v 0.667476 3.705292 -0.427515
v 0.667476 3.411346 -0.427515
v -0.661305 3.411346 -0.427515
v -0.661305 3.705292 -0.427515
v -0.427515 3.705292 -0.663382
v -0.427515 3.411346 -0.663382
v 0.655268 1.944269 0.427515
v 0.655268 2.238214 0.427515
v 0.427515 2.238214 0.646680
v 0.427515 1.944269 0.646680
v -0.646419 2.238214 0.427515
v -0.646419 1.944269 0.427515
v -0.427515 1.944269 0.646680
v -0.427515 2.238214 0.646680
v 0.427515 1.944269 -0.652548
v 0.427515 2.238214 -0.652548
v 0.655268 2.238214 -0.427515
v 0.655268 1.944269 -0.427515
v -0.646419 1.944269 -0.427515
v -0.646419 2.238214 -0.427515
v -0.427515 2.238214 -0.652548
v -0.427515 1.944269 -0.652548
v 0.652538 0.477192 0.427515
v 0.652538 0.771138 0.427515
v 0.427515 0.771138 0.657834
v 0.427515 0.477192 0.657834
v -0.662919 0.771138 0.427515
v -0.662919 0.477192 0.427515
v -0.427515 0.477192 0.657834
v -0.427515 0.771138 0.657834
v 0.427515 0.477192 -0.665662
v 0.427515 0.771138 -0.665662
v 0.652538 0.771138 -0.427515
v 0.652538 0.477192 -0.427515
v -0.662919 0.477192 -0.427515
v -0.662919 0.771138 -0.427515
v -0.427515 0.771138 -0.665662
v -0.427515 0.477192 -0.665662
v -0.141654 -0.000835 -0.625000
v 0.141654 -0.000835 -0.625000
v 0.141654 1.249165 -0.625000
v -0.141654 1.249165 -0.625000
v -0.178540 -0.016899 -0.734078
v 0.178540 -0.016899 -0.734078
v 0.178540 1.265228 -0.734078
v -0.178540 1.265228 -0.734078
v -0.142505 1.065083 -0.625000
v 0.142505 1.065083 -0.625000
v 0.142505 0.183247 -0.625000
v -0.142505 0.183247 -0.625000
v 0.178708 0.199310 -0.734078
v -0.178708 0.199310 -0.734078
v -0.178708 1.049019 -0.734078
v 0.178708 1.049019 -0.734078
v 0.141654 1.473407 -0.625000
v -0.141654 1.473407 -0.625000
v 0.142505 0.771138 -0.665662
v -0.142505 0.771138 -0.665662
v 0.142505 0.477192 -0.665662
v -0.142505 0.477192 -0.665662
v -0.141654 1.466242 -0.625000
v 0.141654 1.466242 -0.625000
v 0.141654 2.716242 -0.625000
v -0.141654 2.716242 -0.625000
v -0.178540 1.450178 -0.734078
v 0.178540 1.450178 -0.734078
v 0.178540 2.732305 -0.734078
v -0.178540 2.732305 -0.734078
v -0.142505 2.532160 -0.625000
v 0.142505 2.532160 -0.625000
v 0.142505 1.650323 -0.625000
v -0.142505 1.650323 -0.625000
v 0.178708 1.666387 -0.734078
v -0.178708 1.666387 -0.734078
v -0.178708 2.516096 -0.734078
v 0.178708 2.516096 -0.734078
v 0.141654 2.934882 -0.625000
v -0.141654 2.934882 -0.625000
v 0.142505 2.238214 -0.652548
v -0.142505 2.238214 -0.652548
v 0.142505 1.944269 -0.652548
v -0.142505 1.944269 -0.652548
v -0.134409 2.933319 -0.625000
v 0.148899 2.933319 -0.625000
v 0.148899 4.183319 -0.625000
v -0.134409 4.183319 -0.625000
v -0.169408 2.917255 -0.734078
v 0.187672 2.917255 -0.734078
v 0.187672 4.199382 -0.734078
v -0.169408 4.199382 -0.734078
v -0.135216 3.999237 -0.625000
v 0.149794 3.999237 -0.625000
v 0.149794 3.117401 -0.625000
v -0.135216 3.117401 -0.625000
v 0.187848 3.133464 -0.734078
v -0.169567 3.133464 -0.734078
v -0.169567 3.983174 -0.734078
v 0.187848 3.983174 -0.734078
v 0.148899 4.384333 -0.625000
v -0.134409 4.384333 -0.625000
v 0.149794 3.705292 -0.663382
v -0.135216 3.705292 -0.663382
v 0.149794 3.411346 -0.663382
v -0.135216 3.411346 -0.663382
v 0.149794 3.411346 -0.739879
v -0.135216 3.411346 -0.739879
v 0.141654 2.933319 0.625000
v -0.141654 2.933319 0.625000
v 0.178540 2.917255 0.734078
v -0.178540 2.917255 0.734078
v -0.141654 4.183319 0.625000
v 0.141654 4.183319 0.625000
v -0.178540 4.199382 0.734078
v 0.178540 4.199382 0.734078
v 0.142505 3.999237 0.625000
v -0.142505 3.999237 0.625000
v -0.142505 3.117401 0.625000
v 0.142505 3.117401 0.625000
v 0.178708 3.983174 0.734078
v -0.178708 3.983174 0.734078
v -0.178708 3.133464 0.734078
v 0.178708 3.133464 0.734078
v -0.141654 4.384333 0.625000
v 0.141654 4.384333 0.625000
v -0.142505 3.705292 0.656127
v 0.142505 3.705292 0.656127
v -0.142505 3.411346 0.656127
v 0.142505 3.411346 0.656127
v -0.625000 2.933319 -0.141654
v -0.625000 2.933319 0.141654
v -0.734078 2.917255 0.178540
v -0.734078 2.917255 -0.178540
v -0.625000 4.183319 0.141654
v -0.625000 4.183319 -0.141654
v -0.734078 4.199382 -0.178540
v -0.734078 4.199382 0.178540
v -0.625000 3.999237 0.142505
v -0.625000 3.999237 -0.142505
v -0.625000 3.117401 -0.142505
v -0.625000 3.117401 0.142505
v -0.734078 3.983174 0.178708
v -0.734078 3.983174 -0.178708
v -0.734078 3.133464 -0.178708
v -0.734078 3.133464 0.178708
v -0.625000 4.384333 0.141654
v -0.625000 4.384333 -0.141654
v -0.661305 3.705292 -0.142505
v -0.661305 3.705292 0.142505
v -0.661305 3.411346 -0.142505
v -0.661305 3.411346 0.142505
v -0.625000 -0.000835 -0.141654
v -0.625000 -0.000835 0.141654
v -0.734078 -0.016899 0.178540
v -0.734078 -0.016899 -0.178540
v -0.625000 1.249165 0.141654
v -0.625000 1.249165 -0.141654
v -0.734078 1.265228 -0.178540
v -0.734078 1.265228 0.178540
v -0.625000 1.065083 0.142505
v -0.625000 1.065083 -0.142505
v -0.625000 0.183247 -0.142505
v -0.625000 0.183247 0.142505
v -0.734078 1.049019 0.178708
v -0.734078 1.049019 -0.178708
v -0.734078 0.199310 -0.178708
v -0.734078 0.199310 0.178708
v -0.625000 1.473407 0.141654
v -0.625000 1.473407 -0.141654
v -0.662919 0.771138 -0.142505
v -0.662919 0.771138 0.142505
v -0.662919 0.477192 -0.142505
v -0.662919 0.477192 0.142505
v 0.141654 1.466242 0.625000
v -0.141654 1.466242 0.625000
v 0.178540 1.450178 0.734078
v -0.178540 1.450178 0.734078
v -0.141654 2.716242 0.625000
v 0.141654 2.716242 0.625000
v -0.178540 2.732305 0.734078
v 0.178540 2.732305 0.734078
v 0.142505 2.532160 0.625000
v -0.142505 2.532160 0.625000
v -0.142505 1.650323 0.625000
v 0.142505 1.650323 0.625000
v 0.178708 2.516096 0.734078
v -0.178708 2.516096 0.734078
v -0.178708 1.666387 0.734078
v 0.178708 1.666387 0.734078
v -0.141654 2.934882 0.625000
v 0.141654 2.934882 0.625000
v -0.142505 2.238214 0.646680
v 0.142505 2.238214 0.646680
v -0.142505 1.944269 0.646680
v 0.142505 1.944269 0.646680
v 0.625000 1.466242 -0.141654
v 0.625000 1.466242 0.141654
v 0.625000 2.716242 0.141654
v 0.625000 2.716242 -0.141654
v 0.734078 1.450178 -0.178540
v 0.734078 1.450178 0.178540
v 0.734078 2.732305 0.178540
v 0.734078 2.732305 -0.178540
v 0.625000 2.532160 -0.142505
v 0.625000 2.532160 0.142505
v 0.625000 1.650323 0.142505
v 0.625000 1.650323 -0.142505
v 0.734078 1.666387 0.178708
v 0.734078 1.666387 -0.178708
v 0.734078 2.516096 -0.178708
v 0.734078 2.516096 0.178708
v 0.625000 2.934882 0.141654
v 0.625000 2.934882 -0.141654
v 0.655268 2.238214 0.142505
v 0.655268 2.238214 -0.142505
v 0.655268 1.944269 0.142505
v 0.655268 1.944269 -0.142505
v 0.625000 -0.000835 -0.141654
v 0.625000 -0.000835 0.141654
v 0.625000 1.249165 0.141654
v 0.625000 1.249165 -0.141654
v 0.734078 -0.016899 -0.178540
v 0.734078 -0.016899 0.178540
v 0.734078 1.265228 0.178540
v 0.734078 1.265228 -0.178540
v 0.625000 1.065083 -0.142505
v 0.625000 1.065083 0.142505
v 0.625000 0.183247 0.142505
v 0.625000 0.183247 -0.142505
v 0.734078 0.199310 0.178708
v 0.734078 0.199310 -0.178708
v 0.734078 1.049019 -0.178708
v 0.734078 1.049019 0.178708
v 0.625000 1.473407 0.141654
v 0.625000 1.473407 -0.141654
v 0.652538 0.771138 0.142505
v 0.652538 0.771138 -0.142505
v 0.652538 0.477192 0.142505
v 0.652538 0.477192 -0.142505
v 0.747398 1.944269 0.142505
v 0.747398 1.944269 -0.142505
v 0.743444 0.477192 0.142505
v 0.743444 0.477192 -0.142505
v 0.142505 0.477192 -0.762818
v -0.142505 0.477192 -0.762818
v -0.751941 0.477192 -0.142505
v -0.751941 0.477192 0.142505
v -0.142505 3.411346 0.746271
v 0.142505 3.411346 0.746271
v -0.735481 3.411346 -0.142505
v -0.735481 3.411346 0.142505
v -0.142505 1.944269 0.736824
v 0.142505 1.944269 0.736824
v -0.498748 3.441288 0.765805
v -0.498748 4.214886 0.765805
v 0.468487 3.441288 0.765805
v 0.468487 4.214886 0.765805
v -0.746558 1.937771 -0.448297
v -0.746558 2.711369 -0.448297
v -0.746557 1.937771 0.518939
v -0.746557 2.711369 0.518939
v 0.520607 0.731007 -0.741366
v 0.520607 1.257737 -0.741366
v -0.446628 0.731007 -0.741366
v -0.446628 1.257737 -0.741366
v 0.815209 1.836023 0.472040
v 0.815209 2.715141 0.472040
v 0.815209 1.836023 -0.495195
v 0.815209 2.715141 -0.495195
v -0.516635 4.370557 0.893262
v -0.893262 4.370557 0.516635
v -0.893262 5.352364 0.516635
v -0.516635 5.352364 0.893262
v -0.893262 4.370557 -0.516635
v -0.516635 4.370557 -0.893262
v -0.516635 5.352364 -0.893262
v -0.893262 5.352364 -0.516635
v 0.893262 4.370557 0.516635
v 0.516635 4.370557 0.893262
v 0.516635 5.352364 0.893262
v 0.893262 5.352364 0.516635
v 0.516635 4.370557 -0.893262
v 0.893262 4.370557 -0.516635
v 0.893262 5.352364 -0.516635
v 0.516635 5.352364 -0.893262
vn -0.0000 -0.0000 1.0000
vn 1.0000 -0.0000 -0.0000
vn -0.0000 1.0000 -0.0000
vn -1.0000 -0.0000 -0.0000
vn -0.0000 -0.0000 -1.0000
vn -0.7071 -0.0000 0.7071
vn -0.7071 -0.0000 -0.7071
vn 0.7071 -0.0000 -0.7071
vn 0.7071 -0.0000 0.7071
vn -0.0000 -1.0000 -0.0000
vn -0.0000 0.9893 0.1457
vn -0.0000 0.9893 -0.1457
vn 0.9956 -0.0933 -0.0000
vn -0.0000 -0.9893 -0.1457
vn -0.0000 -0.9893 0.1457
vn -0.1457 -0.9893 -0.0000
vn -0.9918 -0.1279 -0.0000
vn -0.1457 0.9893 -0.0000
vn 0.1457 -0.9893 -0.0000
vn 0.1457 0.9893 -0.0000
vn -0.0000 -0.1370 -0.9906
vn -0.0000 -0.1110 0.9938
vn 0.7096 0.0724 0.7008
vn -0.7004 -0.0848 0.7087
vn 0.7154 0.0815 -0.6939
vn -0.7062 0.0941 -0.7017
vn 0.0727 0.9947 0.0727
vn 0.0727 -0.9947 0.0727
vn -0.0727 0.9947 -0.0727
vn 0.0727 0.9947 -0.0727
vn -0.0734 0.9946 0.0734
vn -0.0734 0.9946 -0.0734
vn 0.0727 -0.9947 -0.0727
vn -0.0727 -0.9947 -0.0727
vn 0.7071 0.0016 0.7071
vn -0.7071 0.0016 0.7071
vn -0.7071 -0.0016 0.7071
vn -0.7071 -0.0016 -0.7071
vn -0.7071 0.0016 -0.7071
vn 0.7071 -0.0016 0.7071
vn 0.7071 -0.0016 -0.7071
vn 0.7071 0.0016 -0.7071
vn 0.0734 -0.9946 0.0734
vn -0.0734 -0.9946 0.0734
vn -0.0734 -0.9946 -0.0734
vn 0.0734 -0.9946 -0.0734
vn -0.0727 -0.9947 0.0727
vn 0.0734 0.9946 0.0734
vn -0.0727 0.9947 0.0727
vn 0.0734 0.9946 -0.0734
vn 0.9947 -0.1024 -0.0000
vn -0.9974 -0.0727 -0.0000
vn -0.0000 -0.0933 -0.9956
vn -0.0000 -0.0736 0.9973
vn 0.6985 0.0623 0.7129
vn -0.7064 -0.0518 0.7059
vn 0.7031 0.0694 -0.7077
vn -0.7110 0.0587 -0.7007
vn 0.9897 -0.1430 -0.0000
vn -0.9925 -0.1226 -0.0000
vn -0.0000 -0.1295 -0.9916
vn -0.0000 -0.1053 0.9944
vn 0.6950 0.0880 0.7136
vn -0.7005 -0.0808 0.7090
vn 0.7005 0.0968 -0.7071
vn -0.7060 0.0895 -0.7026
vn -0.7060 -0.0895 -0.7026
vn -0.7102 -0.0000 -0.7040
vn 0.7005 -0.0968 -0.7071
vn 0.7010 -0.0000 -0.7132
vn -0.7005 0.0808 0.7090
vn -0.6991 -0.0000 0.7150
vn 0.6950 -0.0880 0.7136
vn 0.6898 -0.0000 0.7240
vn -0.0000 0.1053 0.9944
vn -0.0000 0.1295 -0.9916
vn -0.9925 0.1226 -0.0000
vn 0.9897 0.1430 -0.0000
vn -0.7110 -0.0587 -0.7007
vn -0.7168 -0.0000 -0.6973
vn 0.7031 -0.0694 -0.7077
vn 0.7028 -0.0000 -0.7113
vn -0.7064 0.0518 0.7059
vn -0.7075 -0.0000 0.7067
vn 0.6985 -0.0623 0.7129
vn 0.6934 -0.0000 0.7206
vn -0.0000 0.0736 0.9973
vn -0.0000 0.0933 -0.9956
vn -0.9974 0.0727 -0.0000
vn 0.9947 0.1024 -0.0000
vn -0.7062 -0.0941 -0.7017
vn -0.7112 -0.0000 -0.7030
vn 0.7154 -0.0815 -0.6939
vn 0.7269 -0.0000 -0.6868
vn -0.7004 0.0848 0.7087
vn -0.6993 -0.0000 0.7148
vn 0.7096 -0.0724 0.7008
vn 0.7153 -0.0000 0.6988
vn -0.0000 0.1110 0.9938
vn -0.0000 0.1370 -0.9906
vn -0.9918 0.1279 -0.0000
vn 0.9956 0.0933 -0.0000
vn -0.0000 0.2519 -0.9678
vn 0.9542 0.2991 -0.0000
vn 0.9554 0.2955 -0.0000
vn -0.0000 0.3138 -0.9495
vn -0.9571 0.2899 -0.0000
vn -0.0000 0.2932 0.9561
vn -0.9696 0.2447 -0.0000
vt 0.262352 0.845356
vt 0.262352 0.865613
vt 0.245059 0.865613
vt 0.245059 0.845356
vt 0.267292 0.865613
vt 0.266798 0.845356
vt 0.282609 0.845356
vt 0.282609 0.865613
vt 0.051877 0.877470
vt 0.053360 0.878953
vt 0.053360 0.885870
vt 0.051877 0.887352
vt 0.237154 0.865613
vt 0.237154 0.845356
vt 0.268775 0.845356
vt 0.268775 0.865613
vt 0.253458 0.881423
vt 0.253458 0.867589
vt 0.256423 0.871047
vt 0.256423 0.877964
vt 0.043478 0.878953
vt 0.045949 0.877470
vt 0.045949 0.887352
vt 0.043478 0.885870
vt 0.246047 0.867589
vt 0.246047 0.881423
vt 0.259881 0.867589
vt 0.259881 0.881423
vt 0.256094 0.866601
vt 0.261858 0.866601
vt 0.264328 0.869071
vt 0.257082 0.869071
vt 0.239625 0.878953
vt 0.262352 0.878953
vt 0.264822 0.881917
vt 0.237154 0.881917
vt 0.210804 0.886693
vt 0.205534 0.886693
vt 0.205534 0.881423
vt 0.210804 0.881423
vt 0.242095 0.870553
vt 0.260870 0.870553
vt 0.263340 0.873518
vt 0.239625 0.873518
vt 0.261858 0.873518
vt 0.244565 0.873518
vt 0.242589 0.871047
vt 0.264328 0.871047
vt 0.261364 0.886858
vt 0.267787 0.886858
vt 0.267787 0.891798
vt 0.261364 0.891798
vt 0.248024 0.868083
vt 0.241601 0.868083
vt 0.239625 0.865613
vt 0.247530 0.865613
vt 0.255270 0.866107
vt 0.261858 0.866107
vt 0.264328 0.868577
vt 0.256094 0.868577
vt 0.210968 0.886364
vt 0.205534 0.886364
vt 0.205534 0.880929
vt 0.210968 0.880929
vt 0.254776 0.875494
vt 0.262352 0.875494
vt 0.264822 0.878953
vt 0.255599 0.878788
vt 0.255105 0.875000
vt 0.262352 0.875000
vt 0.265810 0.877470
vt 0.256423 0.877470
vt 0.248682 0.871047
vt 0.242095 0.871047
vt 0.239625 0.868577
vt 0.247859 0.868577
vt 0.256094 0.869071
vt 0.261858 0.869071
vt 0.257082 0.871047
vt 0.250988 0.891304
vt 0.250988 0.897233
vt 0.242095 0.897233
vt 0.242095 0.891304
vt 0.257905 0.897233
vt 0.257905 0.891304
vt 0.266798 0.891304
vt 0.266798 0.897233
vt 0.249012 0.891304
vt 0.249012 0.897233
vt 0.240119 0.897233
vt 0.240119 0.891304
vt 0.248024 0.891304
vt 0.248024 0.897233
vt 0.237648 0.897233
vt 0.237648 0.891304
vt 0.248682 0.873518
vt 0.242095 0.873518
vt 0.239625 0.871047
vt 0.247859 0.871047
vt 0.254611 0.873518
vt 0.260870 0.873518
vt 0.263340 0.875494
vt 0.255435 0.875494
vt 0.264328 0.875988
vt 0.239625 0.875988
vt 0.255435 0.871871
vt 0.262846 0.872036
vt 0.265810 0.874506
vt 0.256423 0.874671
vt 0.250329 0.875988
vt 0.244565 0.875988
vt 0.242589 0.873518
vt 0.249835 0.873518
vt 0.237154 0.886693
vt 0.221344 0.886693
vt 0.221344 0.881423
vt 0.237154 0.881423
vt 0.211957 0.859025
vt 0.211957 0.865613
vt 0.206028 0.865613
vt 0.206028 0.859025
vt 0.206028 0.852437
vt 0.206028 0.845850
vt 0.211957 0.845850
vt 0.211957 0.852437
vt 0.258399 0.878458
vt 0.258399 0.875988
vt 0.264328 0.878458
vt 0.256917 0.875494
vt 0.256917 0.879447
vt 0.250494 0.879447
vt 0.250494 0.875494
vt 0.252470 0.882411
vt 0.252470 0.878458
vt 0.258399 0.881917
vt 0.252470 0.875988
vt 0.265316 0.870553
vt 0.265316 0.874506
vt 0.257905 0.875000
vt 0.257905 0.870553
vt 0.251976 0.875494
vt 0.252470 0.870553
vt 0.259881 0.870553
vt 0.259387 0.875494
vt 0.256917 0.882411
vt 0.263340 0.879447
vt 0.263340 0.882411
vt 0.246542 0.897233
vt 0.246542 0.891304
vt 0.252470 0.891304
vt 0.252470 0.897233
vt 0.240613 0.897233
vt 0.240613 0.891304
vt 0.250000 0.891798
vt 0.250000 0.897233
vt 0.244071 0.897233
vt 0.244071 0.891798
vt 0.267292 0.891304
vt 0.267292 0.897233
vt 0.261364 0.897233
vt 0.261364 0.891304
vt 0.250000 0.891304
vt 0.244071 0.891304
vt 0.252964 0.891304
vt 0.252964 0.897233
vt 0.247036 0.897233
vt 0.247036 0.891304
vt 0.264328 0.879447
vt 0.264328 0.882905
vt 0.257905 0.882905
vt 0.257905 0.879447
vt 0.257905 0.875988
vt 0.251482 0.882905
vt 0.251482 0.879447
vt 0.251482 0.875988
vt 0.250494 0.882411
vt 0.257411 0.878458
vt 0.257411 0.874506
vt 0.264822 0.874506
vt 0.264328 0.881917
vt 0.265316 0.874012
vt 0.265316 0.877964
vt 0.257905 0.877964
vt 0.257905 0.874506
vt 0.248353 0.870553
vt 0.239625 0.867589
vt 0.247530 0.867754
vt 0.268775 0.891798
vt 0.249506 0.891798
vt 0.249506 0.886858
vt 0.268775 0.886858
vt 0.252306 0.892292
vt 0.244565 0.892292
vt 0.244565 0.886858
vt 0.252306 0.886858
vt 0.252306 0.886858
vt 0.259881 0.886858
vt 0.259881 0.892292
vt 0.252306 0.892292
vt 0.243083 0.886858
vt 0.248518 0.886858
vt 0.248518 0.891798
vt 0.243083 0.891798
vt 0.252470 0.892292
vt 0.252470 0.886858
vt 0.250988 0.886858
vt 0.258893 0.886858
vt 0.258893 0.891798
vt 0.250988 0.891798
vt 0.250988 0.892292
vt 0.244071 0.892292
vt 0.244071 0.886858
vt 0.250988 0.886858
vt 0.248024 0.871706
vt 0.240613 0.871542
vt 0.237648 0.869071
vt 0.247036 0.869071
vt 0.254776 0.873024
vt 0.262352 0.873024
vt 0.265316 0.875494
vt 0.255929 0.875494
vt 0.210804 0.870883
vt 0.205534 0.870883
vt 0.205534 0.865613
vt 0.210804 0.865613
vt 0.247859 0.876976
vt 0.243083 0.876976
vt 0.241601 0.875494
vt 0.247365 0.875494
vt 0.255929 0.875494
vt 0.266798 0.877964
vt 0.257411 0.877964
vt 0.258399 0.887352
vt 0.263340 0.887352
vt 0.263340 0.891798
vt 0.258399 0.891798
vt 0.252635 0.871542
vt 0.257411 0.871542
vt 0.258893 0.873518
vt 0.253129 0.873518
vt 0.255435 0.866107
vt 0.261364 0.866107
vt 0.263834 0.868577
vt 0.256258 0.868577
vt 0.237154 0.886364
vt 0.221344 0.886364
vt 0.221344 0.880929
vt 0.237154 0.880929
vt 0.254776 0.870059
vt 0.262352 0.870059
vt 0.264822 0.873024
vt 0.255599 0.873024
vt 0.247200 0.870059
vt 0.239625 0.870059
vt 0.237154 0.867095
vt 0.246377 0.866930
vt 0.261364 0.871047
vt 0.243577 0.871047
vt 0.241107 0.868577
vt 0.241107 0.875494
vt 0.238636 0.872036
vt 0.266304 0.872036
vt 0.266304 0.881917
vt 0.266304 0.887846
vt 0.241107 0.887846
vt 0.241107 0.881917
vt 0.248353 0.891304
vt 0.248353 0.897233
vt 0.239130 0.897233
vt 0.239130 0.891304
vt 0.256588 0.887846
vt 0.256588 0.881917
vt 0.265810 0.881917
vt 0.265810 0.887846
vt 0.247036 0.891304
vt 0.247036 0.897233
vt 0.238142 0.897233
vt 0.238142 0.891304
vt 0.249506 0.873518
vt 0.243577 0.873518
vt 0.241107 0.871047
vt 0.248682 0.871047
vt 0.247859 0.875494
vt 0.243083 0.875494
vt 0.241601 0.873518
vt 0.247365 0.873518
vt 0.255435 0.873518
vt 0.261364 0.873518
vt 0.263834 0.875494
vt 0.256258 0.875494
vt 0.262846 0.875988
vt 0.240613 0.875988
vt 0.237648 0.873024
vt 0.265810 0.873024
vt 0.255435 0.870883
vt 0.262846 0.871047
vt 0.265810 0.873518
vt 0.256423 0.873518
vt 0.226614 0.886364
vt 0.226614 0.880929
vt 0.257411 0.876482
vt 0.256423 0.880929
vt 0.250000 0.880929
vt 0.249506 0.876482
vt 0.262846 0.869565
vt 0.262846 0.874012
vt 0.254447 0.874012
vt 0.254941 0.869565
vt 0.257905 0.868577
vt 0.257905 0.872530
vt 0.250494 0.872530
vt 0.250494 0.868577
vt 0.257905 0.872036
vt 0.256423 0.876482
vt 0.250494 0.876482
vt 0.249506 0.872036
vt 0.264822 0.870059
vt 0.257905 0.870059
vt 0.264822 0.872036
vt 0.264328 0.876482
vt 0.254447 0.869565
vt 0.247036 0.874012
vt 0.247036 0.869565
vt 0.254447 0.878458
vt 0.254941 0.874012
vt 0.262846 0.878458
vt 0.237154 0.897233
vt 0.237154 0.891304
vt 0.249506 0.891304
vt 0.249506 0.897233
vt 0.243577 0.897233
vt 0.243577 0.891304
vt 0.251482 0.891304
vt 0.251482 0.897233
vt 0.245553 0.897233
vt 0.245553 0.891304
vt 0.257905 0.882411
vt 0.257905 0.878953
vt 0.263834 0.878953
vt 0.263834 0.882411
vt 0.257905 0.875494
vt 0.251976 0.882411
vt 0.251976 0.878953
vt 0.247036 0.878458
vt 0.265316 0.878458
vt 0.250988 0.878953
vt 0.250494 0.875000
vt 0.264328 0.872036
vt 0.256423 0.875988
vt 0.256423 0.872036
vt 0.243083 0.869565
vt 0.257411 0.869565
vt 0.258893 0.871542
vt 0.241601 0.871542
vt 0.247036 0.892292
vt 0.240613 0.892292
vt 0.240613 0.886858
vt 0.247036 0.886858
vt 0.256258 0.891798
vt 0.250988 0.887352
vt 0.256258 0.887352
vt 0.268775 0.892292
vt 0.249506 0.892292
vt 0.262846 0.892292
vt 0.255929 0.892292
vt 0.255929 0.886858
vt 0.262846 0.886858
vt 0.260870 0.887352
vt 0.266304 0.887352
vt 0.266304 0.891798
vt 0.260870 0.891798
vt 0.258399 0.886858
vt 0.263834 0.886858
vt 0.263834 0.891798
vt 0.247834 0.871702
vt 0.237648 0.869565
vt 0.246796 0.869565
vt 0.255929 0.877470
vt 0.263340 0.877470
vt 0.266304 0.880435
vt 0.256917 0.880599
vt 0.237154 0.870883
vt 0.221344 0.870883
vt 0.221344 0.865613
vt 0.251318 0.877306
vt 0.246047 0.877470
vt 0.243577 0.875494
vt 0.250494 0.875329
vt 0.256258 0.875494
vt 0.257411 0.877964
vt 0.254941 0.887352
vt 0.260870 0.891304
vt 0.254941 0.891304
vt 0.255959 0.870722
vt 0.261364 0.870553
vt 0.263834 0.872530
vt 0.256740 0.872698
vt 0.262846 0.882905
vt 0.243083 0.882905
vt 0.240119 0.880435
vt 0.265810 0.880435
vt 0.210804 0.871212
vt 0.205534 0.871212
vt 0.266304 0.877470
vt 0.238142 0.877470
vt 0.248328 0.875494
vt 0.238142 0.872036
vt 0.247129 0.872036
vt 0.256258 0.875000
vt 0.262846 0.875000
vt 0.265810 0.877964
vt 0.257246 0.877964
vt 0.248682 0.875494
vt 0.238636 0.872530
vt 0.247859 0.872530
vt 0.249671 0.891304
vt 0.249671 0.897233
vt 0.249426 0.891304
vt 0.249426 0.897233
vt 0.256917 0.897233
vt 0.256917 0.891304
vt 0.268281 0.891304
vt 0.268281 0.897233
vt 0.248784 0.891304
vt 0.248784 0.897233
vt 0.256090 0.872530
vt 0.262846 0.872530
vt 0.265810 0.875000
vt 0.257027 0.875000
vt 0.261858 0.875000
vt 0.246047 0.875494
vt 0.243083 0.873024
vt 0.249671 0.880435
vt 0.243083 0.880435
vt 0.240119 0.877964
vt 0.248682 0.877964
vt 0.248518 0.871871
vt 0.241107 0.872036
vt 0.238142 0.869071
vt 0.247365 0.869071
vt 0.237648 0.875000
vt 0.210669 0.870883
vt 0.210669 0.865613
vt 0.210804 0.870883
vt 0.250494 0.870553
vt 0.251482 0.872036
vt 0.248518 0.872036
vt 0.248518 0.866601
vt 0.251482 0.866601
vt 0.250000 0.878458
vt 0.250000 0.874506
vt 0.250494 0.870059
vt 0.265316 0.870059
vt 0.250494 0.874506
vt 0.251482 0.877470
vt 0.248518 0.877470
vt 0.254447 0.872036
vt 0.254447 0.866601
vt 0.260870 0.897233
vt 0.253458 0.891304
vt 0.253458 0.897233
vt 0.268775 0.897233
vt 0.263834 0.897233
vt 0.247036 0.865613
vt 0.247036 0.869071
vt 0.240119 0.869071
vt 0.240119 0.865613
vt 0.240119 0.872530
vt 0.247036 0.872530
vt 0.253458 0.865613
vt 0.253458 0.869071
vt 0.253458 0.872530
vt 0.254447 0.877470
vt 0.256423 0.879941
vt 0.257905 0.876482
vt 0.264328 0.880929
vt 0.257411 0.880929
vt 0.256094 0.868742
vt 0.261364 0.868577
vt 0.263834 0.870553
vt 0.256917 0.870718
vt 0.255105 0.886858
vt 0.262846 0.891798
vt 0.255105 0.891798
vt 0.241601 0.886858
vt 0.264822 0.886858
vt 0.264822 0.891798
vt 0.241601 0.891798
vt 0.245883 0.891798
vt 0.238142 0.891798
vt 0.238142 0.886858
vt 0.245883 0.886858
vt 0.266798 0.887352
vt 0.249012 0.887352
vt 0.249012 0.891304
vt 0.243083 0.887352
vt 0.243083 0.891304
vt 0.249539 0.891798
vt 0.249539 0.886858
vt 0.205534 0.876153
vt 0.210804 0.876153
vt 0.210669 0.881423
vt 0.210669 0.876153
vt 0.210804 0.882411
vt 0.205534 0.882411
vt 0.205534 0.876812
vt 0.210804 0.876812
vt 0.221344 0.876153
vt 0.237154 0.876153
vt 0.210804 0.897233
vt 0.205534 0.897233
vt 0.205534 0.891963
vt 0.210804 0.891963
vt 0.226614 0.897233
vt 0.221344 0.897233
vt 0.221344 0.891798
vt 0.226614 0.891798
vt 0.237154 0.891798
vt 0.221344 0.891963
vt 0.237154 0.891963
vt 0.210968 0.897233
vt 0.205534 0.891798
vt 0.210968 0.891798
vt 0.216074 0.891963
vt 0.216074 0.886693
vt 0.216074 0.897233
vt 0.264822 0.892292
vt 0.257905 0.892292
vt 0.257905 0.886858
vt 0.216074 0.881423
vt 0.255270 0.873518
vt 0.256094 0.871047
vt 0.268775 0.891304
vt 0.258399 0.897233
vt 0.258399 0.891304
vt 0.240613 0.875000
vt 0.247859 0.875000
vt 0.247036 0.877470
vt 0.237648 0.877470
vt 0.260870 0.868083
vt 0.254447 0.868083
vt 0.255435 0.865613
vt 0.263340 0.865613
vt 0.244565 0.866601
vt 0.250329 0.866601
vt 0.249835 0.869071
vt 0.242589 0.869071
vt 0.231884 0.891798
vt 0.231884 0.886364
vt 0.231884 0.897233
vt 0.266798 0.891798
vt 0.261528 0.891798
vt 0.261528 0.887352
vt 0.231884 0.880929
vt 0.256258 0.871047
vt 0.263834 0.871047
vt 0.257576 0.897233
vt 0.257576 0.891304
vt 0.254776 0.870059
vt 0.255599 0.866765
vt 0.264822 0.866601
vt 0.243083 0.871542
vt 0.247859 0.871542
vt 0.247365 0.873518
vt 0.255435 0.871871
vt 0.256423 0.869071
vt 0.265810 0.869071
vt 0.221344 0.876153
vt 0.215939 0.876153
vt 0.215939 0.870883
vt 0.215939 0.881423
vt 0.257280 0.891798
vt 0.257280 0.886858
vt 0.215939 0.865613
vt 0.243083 0.872530
vt 0.249502 0.872530
vt 0.248463 0.875000
vt 0.240119 0.875000
vt 0.257678 0.897233
vt 0.257678 0.891304
vt 0.258978 0.897233
vt 0.258978 0.891304
vt 0.255739 0.875494
vt 0.256352 0.872036
vt 0.265810 0.872036
vt 0.245553 0.871047
vt 0.250689 0.870887
vt 0.249823 0.872863
vt 0.255245 0.871867
vt 0.256183 0.869565
vt 0.265810 0.869565
vt 0.216074 0.876153
vt 0.216074 0.870883
vt 0.239625 0.886858
vt 0.247365 0.886858
vt 0.247365 0.891798
vt 0.239625 0.891798
vt 0.216074 0.865613
vt 0.262846 0.880435
vt 0.256258 0.880435
vt 0.248024 0.877964
vt 0.238636 0.877964
vt 0.261858 0.876976
vt 0.256588 0.877141
vt 0.257411 0.875165
vt 0.264328 0.875000
vt 0.241107 0.877470
vt 0.248518 0.877470
vt 0.247530 0.880764
vt 0.238142 0.880929
vt 0.221344 0.876812
vt 0.216074 0.876812
vt 0.216074 0.871212
vt 0.221344 0.871212
vt 0.221344 0.882411
vt 0.216074 0.882411
vt 0.253623 0.891798
vt 0.253623 0.886858
vt 0.245553 0.869071
vt 0.250823 0.868906
vt 0.250000 0.870883
vt 0.243083 0.871047
vt 0.263340 0.871542
vt 0.255929 0.871706
vt 0.256588 0.869071
vt 0.259223 0.897233
vt 0.259223 0.891304
vt 0.257082 0.872530
vt 0.266304 0.872530
vt 0.243083 0.875000
vt 0.249671 0.875000
vt 0.221838 0.891798
vt 0.216403 0.891798
vt 0.216403 0.886364
vt 0.221838 0.886364
vt 0.221838 0.897233
vt 0.216403 0.897233
vt 0.237154 0.886858
vt 0.244730 0.886858
vt 0.244730 0.892292
vt 0.237154 0.892292
vt 0.254611 0.870553
vt 0.255435 0.867918
vt 0.263340 0.868083
vt 0.259881 0.897233
vt 0.259881 0.891304
vt 0.248024 0.871706
vt 0.247036 0.874835
vt 0.244565 0.869071
vt 0.250329 0.869071
vt 0.249835 0.871047
vt 0.261858 0.871047
vt 0.255270 0.871047
vt 0.256094 0.868577
vt 0.216403 0.880929
vt 0.221838 0.880929
vt 0.253458 0.892292
vt 0.253458 0.886858
vt 0.249506 0.873518
vt 0.248682 0.875494
vt 0.264822 0.891304
vt 0.264822 0.897233
vt 0.255929 0.897233
vt 0.255929 0.891304
vt 0.238142 0.887846
vt 0.238142 0.881917
vt 0.247365 0.881917
vt 0.247365 0.887846
vt 0.248518 0.875494
vt 0.257411 0.876976
vt 0.252635 0.876976
vt 0.253129 0.875494
vt 0.258893 0.875494
vt 0.239625 0.873024
vt 0.247200 0.873024
vt 0.246542 0.875494
vt 0.237154 0.875494
vt 0.216074 0.870883
vt 0.240613 0.870553
vt 0.248024 0.870718
vt 0.247036 0.873518
vt 0.237648 0.873518
vt 0.257411 0.875494
vt 0.252635 0.875494
vt 0.253129 0.873518
vt 0.247200 0.870059
vt 0.246377 0.873024
vt 0.237154 0.873024
vt 0.243577 0.866107
vt 0.249506 0.866107
vt 0.248682 0.868577
vt 0.216074 0.891963
vt 0.267787 0.892292
vt 0.260046 0.892292
vt 0.260046 0.886858
vt 0.261858 0.875988
vt 0.256094 0.875988
vt 0.257082 0.873518
vt 0.264328 0.873518
vt 0.248353 0.873518
vt 0.247530 0.875494
vt 0.239625 0.875494
vt 0.247200 0.875494
vt 0.246377 0.878623
vt 0.237154 0.878458
vt 0.242095 0.866107
vt 0.248682 0.866107
vt 0.247859 0.868577
vt 0.226285 0.857213
vt 0.226285 0.865613
vt 0.211957 0.857213
vt 0.237154 0.857213
vt 0.225296 0.865613
vt 0.225296 0.857213
vt 0.225296 0.851285
vt 0.215909 0.865613
vt 0.215909 0.851285
vt 0.236660 0.854743
vt 0.225791 0.865613
vt 0.225791 0.854743
vt 0.237154 0.851285
vt 0.228261 0.865613
vt 0.228261 0.851285
vt 0.212451 0.865613
vt 0.212451 0.851285
vt 0.229743 0.851285
vt 0.229743 0.865613
s 0
f 10/1/1 11/2/1 4/3/1 1/4/1
f 14/5/2 15/6/2 12/7/2 9/8/2
f 7/9/3 8/10/3 3/11/3 4/12/3
f 2/7/4 3/8/4 8/5/4 5/6/4
f 6/1/5 7/2/5 16/3/5 13/4/5
f 1/4/6 4/3/6 3/13/6 2/14/6
f 7/2/7 6/1/7 5/15/7 8/16/7
f 15/13/8 14/14/8 13/4/8 16/3/8
f 11/2/9 10/1/9 9/15/9 12/16/9
f 10/17/10 13/18/10 14/19/10 9/20/10
f 15/21/3 16/22/3 11/23/3 12/24/3
f 16/22/3 7/9/3 4/12/3 11/23/3
f 6/25/10 13/18/10 10/17/10 1/26/10
f 5/19/10 6/27/10 1/28/10 2/20/10
f 283/29/11 32/30/11 59/31/11 287/32/11
f 45/33/12 36/34/12 69/35/12 71/36/12
f 479/37/13 265/38/13 46/39/13 469/40/13
f 17/41/14 26/42/14 62/43/14 51/44/14
f 27/45/12 20/46/12 54/47/12 63/48/12
f 23/49/7 24/50/7 84/51/7 83/52/7
f 281/53/15 22/54/15 50/55/15 285/56/15
f 467/57/16 44/58/16 73/59/16 473/60/16
f 413/61/17 277/62/17 38/63/17 403/64/17
f 469/65/18 46/66/18 72/67/18 471/68/18
f 291/69/11 42/70/11 76/71/11 293/72/11
f 401/73/19 34/74/19 67/75/19 405/76/19
f 398/77/20 24/78/20 56/48/20 399/79/20
f 406/80/4 399/81/4 56/82/4 78/83/4
f 474/84/2 465/85/2 64/86/2 66/87/2
f 286/88/5 293/89/5 76/90/5 58/91/5
f 62/90/1 71/91/1 69/86/1 51/87/1
f 464/84/2 471/85/2 72/86/2 61/87/2
f 65/90/1 63/91/1 54/86/1 68/87/1
f 296/92/5 287/93/5 59/94/5 74/95/5
f 289/96/15 40/97/15 77/98/15 295/99/15
f 459/100/16 30/101/16 57/102/16 463/103/16
f 33/97/14 48/45/14 65/104/14 68/105/14
f 403/106/20 38/107/20 79/108/20 407/109/20
f 461/110/18 28/111/18 64/112/18 465/113/18
f 301/37/21 273/38/21 42/39/21 291/40/21
f 268/114/22 271/115/22 36/116/22 45/117/22
f 396/80/4 407/81/4 79/82/4 49/83/4
f 266/118/23 47/119/23 48/120/23 267/121/23
f 270/122/24 35/123/24 36/124/24 271/125/24
f 274/118/25 43/119/25 44/120/25 275/121/25
f 278/118/26 39/119/26 40/120/26 279/121/26
f 23/126/27 55/127/27 56/104/27 24/128/27
f 50/129/28 22/130/28 21/131/28 49/132/28
f 64/133/29 28/134/29 27/126/29 63/135/29
f 19/134/30 53/136/30 54/127/30 20/126/30
f 76/137/31 42/138/31 41/139/31 75/140/31
f 45/141/32 71/142/32 72/143/32 46/144/32
f 52/145/33 18/130/33 17/146/33 51/147/33
f 25/102/34 61/146/34 62/130/34 26/129/34
f 66/148/35 64/149/35 63/150/35 65/151/35
f 53/149/36 67/148/36 68/152/36 54/153/36
f 51/152/37 69/153/37 70/149/37 52/148/37
f 80/154/38 50/155/38 49/156/38 79/157/38
f 55/158/39 77/159/39 78/160/39 56/161/39
f 61/156/40 72/157/40 71/154/40 62/155/40
f 75/162/41 57/155/41 58/156/41 76/163/41
f 60/164/42 73/165/42 74/166/42 59/167/42
f 39/168/43 78/169/43 77/170/43 40/171/43
f 73/104/44 44/168/44 43/171/44 74/172/44
f 47/171/45 66/170/45 65/173/45 48/174/45
f 67/174/46 34/175/46 33/172/46 68/171/46
f 57/130/47 30/145/47 29/176/47 58/131/47
f 79/177/48 38/178/48 37/179/48 80/128/48
f 31/128/49 60/180/49 59/135/49 32/126/49
f 35/181/50 70/182/50 69/183/50 36/184/50
f 394/185/19 18/41/19 52/186/19 395/187/19
f 20/188/1 27/189/1 85/190/1 82/191/1
f 462/192/2 31/193/2 87/194/2 476/195/2
f 397/196/4 19/197/4 81/198/4 409/199/4
f 19/200/6 20/201/6 82/202/6 81/203/6
f 31/198/8 32/204/8 88/205/8 87/197/8
f 27/206/9 28/207/9 86/208/9 85/209/9
f 284/210/5 23/211/5 83/212/5 298/213/5
f 305/214/11 104/215/11 131/216/11 309/217/11
f 425/218/12 108/219/12 141/220/12 429/221/12
f 457/222/51 249/223/51 118/224/51 447/225/51
f 415/226/14 98/227/14 134/228/14 417/229/14
f 419/230/12 92/102/12 126/231/12 421/232/12
f 95/233/7 96/234/7 156/235/7 155/236/7
f 303/237/15 94/238/15 122/239/15 307/240/15
f 445/241/16 116/242/16 145/243/16 451/244/16
f 254/245/52 261/246/52 110/247/52 107/248/52
f 447/249/18 118/250/18 144/251/18 449/252/18
f 313/253/11 114/254/11 148/255/11 315/256/11
f 111/257/19 106/258/19 139/259/19 150/243/19
f 91/102/20 96/260/20 128/261/20 125/262/20
f 139/263/4 125/264/4 128/265/4 150/266/4
f 452/84/2 443/85/2 136/86/2 138/87/2
f 308/267/5 315/268/5 148/269/5 130/270/5
f 418/271/1 429/272/1 141/273/1 123/274/1
f 442/84/2 449/85/2 144/86/2 133/87/2
f 428/275/1 421/276/1 126/277/1 140/278/1
f 318/92/5 309/93/5 131/94/5 146/95/5
f 311/279/15 112/280/15 149/281/15 317/282/15
f 437/283/16 102/284/16 129/285/16 441/286/16
f 423/287/14 120/288/14 137/289/14 427/290/14
f 107/291/20 110/292/20 151/293/20 142/294/20
f 439/295/18 100/296/18 136/297/18 443/298/18
f 323/299/53 257/246/53 114/247/53 313/300/53
f 435/37/54 255/38/54 108/39/54 425/40/54
f 124/86/4 142/87/4 151/90/4 121/91/4
f 250/118/55 119/119/55 120/120/55 251/121/55
f 254/122/56 107/123/56 108/124/56 255/125/56
f 258/118/57 115/119/57 116/120/57 259/121/57
f 262/118/58 111/119/58 112/120/58 263/121/58
f 95/301/27 127/302/27 128/303/27 96/304/27
f 122/305/28 94/306/28 93/307/28 121/308/28
f 136/309/29 100/310/29 99/311/29 135/312/29
f 91/313/30 125/314/30 126/315/30 92/316/30
f 148/317/31 114/179/31 113/178/31 147/318/31
f 117/301/32 143/313/32 144/319/32 118/320/32
f 124/321/33 90/307/33 89/322/33 123/323/33
f 97/324/34 133/325/34 134/306/34 98/326/34
f 138/154/35 136/155/35 135/156/35 137/157/35
f 125/327/36 139/328/36 140/163/36 126/156/36
f 123/156/37 141/163/37 142/329/37 124/330/37
f 152/162/38 122/155/38 121/156/38 151/163/38
f 127/156/39 149/163/39 150/162/39 128/155/39
f 133/329/40 144/330/40 143/331/40 134/332/40
f 147/333/41 129/334/41 130/335/41 148/336/41
f 132/150/42 145/151/42 146/148/42 131/149/42
f 111/337/43 150/338/43 149/339/43 112/340/43
f 145/289/44 116/339/44 115/338/44 146/341/44
f 119/338/45 138/337/45 137/342/45 120/343/45
f 139/343/46 106/141/46 105/341/46 140/338/46
f 129/307/47 102/324/47 101/344/47 130/322/47
f 151/338/48 110/139/48 109/138/48 152/345/48
f 103/346/49 132/347/49 131/139/49 104/338/49
f 107/348/50 142/104/50 141/349/50 108/350/50
f 93/351/19 90/352/19 124/353/19 121/354/19
f 420/355/1 99/356/1 157/357/1 432/358/1
f 440/359/2 103/209/2 159/360/2 454/361/2
f 96/190/4 91/191/4 153/362/4 156/363/4
f 91/364/6 92/365/6 154/366/6 153/367/6
f 103/368/8 104/369/8 160/370/8 159/371/8
f 99/372/9 100/373/9 158/374/9 157/236/9
f 306/359/5 95/209/5 155/360/5 320/361/5
f 327/375/11 176/215/11 203/376/11 331/377/11
f 359/378/12 180/379/12 213/380/12 363/381/12
f 244/382/59 233/383/59 190/384/59 185/13/59
f 349/385/14 170/386/14 206/387/14 351/388/14
f 353/389/12 164/289/12 198/231/12 355/390/12
f 167/391/7 168/368/7 228/392/7 227/393/7
f 325/394/15 166/395/15 194/396/15 329/397/15
f 191/398/16 188/399/16 217/400/16 210/401/16
f 391/402/60 245/403/60 182/224/60 381/225/60
f 185/260/18 190/102/18 216/404/18 219/405/18
f 335/406/11 186/260/11 220/407/11 337/408/11
f 379/409/19 178/410/19 211/411/19 383/412/19
f 376/413/20 168/260/20 200/414/20 377/415/20
f 384/416/4 377/417/4 200/90/4 222/91/4
f 217/331/2 204/332/2 208/86/2 210/87/2
f 330/418/5 337/419/5 220/90/5 202/91/5
f 352/420/1 363/421/1 213/86/1 195/87/1
f 201/90/2 219/91/2 216/422/2 205/423/2
f 362/84/1 355/85/1 198/86/1 212/87/1
f 340/424/5 331/425/5 203/90/5 218/91/5
f 333/426/15 184/427/15 221/428/15 339/429/15
f 169/430/16 174/431/16 201/432/16 205/396/16
f 357/433/14 192/434/14 209/435/14 361/436/14
f 381/437/20 182/438/20 223/439/20 385/440/20
f 175/215/18 172/107/18 208/108/18 204/441/18
f 345/442/61 241/223/61 186/224/61 335/443/61
f 369/444/62 239/223/62 180/224/62 359/225/62
f 374/92/4 385/93/4 223/94/4 193/95/4
f 234/118/63 191/119/63 192/120/63 235/121/63
f 238/122/64 179/123/64 180/124/64 239/125/64
f 242/118/65 187/119/65 188/120/65 243/121/65
f 246/118/66 183/119/66 184/120/66 247/121/66
f 167/140/27 199/139/27 200/347/27 168/445/27
f 194/446/28 166/447/28 165/448/28 193/449/28
f 208/178/29 172/177/29 171/450/29 207/451/29
f 163/318/30 197/178/30 198/451/30 164/452/30
f 220/453/31 186/181/31 185/184/31 219/318/31
f 189/346/32 215/454/32 216/184/32 190/338/32
f 196/455/33 162/456/33 161/447/33 195/446/33
f 169/457/34 205/446/34 206/449/34 170/458/34
f 210/459/35 208/392/35 207/86/35 209/87/35
f 197/460/36 211/461/36 212/166/36 198/167/36
f 195/163/37 213/156/37 214/327/37 196/328/37
f 224/94/38 194/95/38 193/332/38 223/331/38
f 199/162/39 221/155/39 222/156/39 200/163/39
f 205/156/40 216/163/40 215/162/40 206/155/40
f 219/162/41 201/155/41 202/156/41 220/163/41
f 204/188/42 217/462/42 218/463/42 203/374/42
f 183/464/43 222/465/43 221/466/43 184/467/43
f 217/468/44 188/466/44 187/465/44 218/469/44
f 191/465/45 210/464/45 209/470/45 192/471/45
f 211/471/46 178/472/46 177/469/46 212/465/46
f 201/446/47 174/457/47 173/473/47 202/455/47
f 223/474/48 182/349/48 181/104/48 224/168/48
f 175/315/49 204/311/49 203/310/49 176/475/49
f 179/320/50 214/476/50 213/477/50 180/301/50
f 372/478/19 162/479/19 196/480/19 373/481/19
f 354/482/1 171/367/1 229/483/1 366/484/1
f 172/485/2 175/486/2 231/487/2 230/488/2
f 375/489/4 163/490/4 225/491/4 387/492/4
f 163/368/6 164/493/6 226/86/6 225/392/6
f 175/494/8 176/391/8 232/393/8 231/495/8
f 171/496/9 172/494/9 230/495/9 229/497/9
f 328/498/5 167/488/5 227/485/5 342/499/5
f 182/124/67 245/125/67 248/122/67 181/123/67
f 245/125/68 246/118/68 247/121/68 248/122/68
f 186/124/69 241/125/69 244/122/69 185/123/69
f 241/125/70 242/118/70 243/121/70 244/122/70
f 178/120/71 237/121/71 240/118/71 177/119/71
f 237/121/72 238/122/72 239/125/72 240/118/72
f 190/124/73 233/125/73 236/122/73 189/123/73
f 233/125/74 234/118/74 235/121/74 236/122/74
f 358/40/75 177/39/75 240/500/75 367/501/75
f 367/501/1 240/500/1 239/223/1 369/444/1
f 334/502/76 187/39/76 242/500/76 343/503/76
f 343/503/5 242/500/5 241/223/5 345/442/5
f 380/504/77 183/505/77 246/506/77 389/507/77
f 389/507/4 246/506/4 245/403/4 391/402/4
f 188/117/78 191/116/78 234/508/78 243/509/78
f 243/509/2 234/508/2 233/383/2 244/382/2
f 110/124/79 261/125/79 264/122/79 109/123/79
f 261/125/80 262/118/80 263/121/80 264/122/80
f 114/124/81 257/125/81 260/122/81 113/123/81
f 257/125/82 258/118/82 259/121/82 260/122/82
f 106/120/83 253/121/83 256/118/83 105/119/83
f 253/121/84 254/122/84 255/125/84 256/118/84
f 118/124/85 249/125/85 252/122/85 117/123/85
f 249/125/86 250/118/86 251/121/86 252/122/86
f 424/510/87 105/511/87 256/512/87 433/513/87
f 433/513/1 256/512/1 255/38/1 435/37/1
f 312/514/88 115/515/88 258/516/88 321/517/88
f 321/517/5 258/516/5 257/246/5 323/299/5
f 106/327/89 111/515/89 262/516/89 253/518/89
f 253/518/4 262/516/4 261/246/4 254/245/4
f 446/40/90 119/39/90 250/500/90 455/501/90
f 455/501/2 250/500/2 249/223/2 457/222/2
f 38/124/91 277/125/91 280/122/91 37/123/91
f 277/125/92 278/118/92 279/121/92 280/122/92
f 42/124/93 273/125/93 276/122/93 41/123/93
f 273/125/94 274/118/94 275/121/94 276/122/94
f 34/120/95 269/121/95 272/118/95 33/119/95
f 269/121/96 270/122/96 271/125/96 272/118/96
f 46/124/97 265/125/97 268/122/97 45/123/97
f 265/125/98 266/118/98 267/121/98 268/122/98
f 48/327/99 33/515/99 272/519/99 267/520/99
f 267/520/1 272/519/1 271/115/1 268/114/1
f 290/510/100 43/511/100 274/512/100 299/513/100
f 299/513/5 274/512/5 273/38/5 301/37/5
f 402/521/101 39/511/101 278/522/101 411/523/101
f 411/523/4 278/522/4 277/62/4 413/61/4
f 468/510/102 47/511/102 266/512/102 477/513/102
f 477/513/2 266/512/2 265/38/2 479/37/2
f 279/519/5 300/524/5 302/525/5 280/115/5
f 299/513/2 301/37/2 485/37/2
f 40/515/100 289/526/100 300/524/100 279/519/100
f 289/526/100 290/510/100 299/513/100 300/524/100
f 32/527/5 283/528/5 297/529/5 88/486/5
f 283/528/5 284/210/5 298/213/5 297/529/5
f 280/115/21 302/525/21 292/530/21 37/116/21
f 302/525/21 301/37/21 291/40/21 292/530/21
f 43/45/15 290/531/15 296/532/15 74/48/15
f 290/531/15 289/96/15 295/99/15 296/532/15
f 77/533/5 55/462/5 288/534/5 295/535/5
f 295/535/5 288/534/5 287/93/5 296/92/5
f 50/86/5 80/87/5 294/84/5 285/85/5
f 285/85/5 294/84/5 293/89/5 286/88/5
f 37/536/11 292/537/11 294/538/11 80/539/11
f 292/537/11 291/69/11 293/72/11 294/538/11
f 29/540/15 282/541/15 286/542/15 58/543/15
f 282/541/15 281/53/15 285/56/15 286/542/15
f 23/544/11 284/545/11 288/546/11 55/547/11
f 284/545/11 283/29/11 287/32/11 288/546/11
f 263/518/5 322/548/5 324/549/5 264/245/5
f 322/548/5 321/517/5 323/299/5 324/549/5
f 112/327/88 311/550/88 322/548/88 263/518/88
f 311/550/88 312/514/88 321/517/88 322/548/88
f 104/551/5 305/552/5 319/553/5 160/493/5
f 305/552/5 306/359/5 320/361/5 319/553/5
f 264/245/53 324/549/53 314/554/53 109/248/53
f 324/549/53 323/299/53 313/300/53 314/554/53
f 115/288/15 312/287/15 318/555/15 146/556/15
f 312/287/15 311/279/15 317/282/15 318/555/15
f 149/533/5 127/462/5 310/534/5 317/535/5
f 317/535/5 310/534/5 309/93/5 318/92/5
f 122/86/5 152/87/5 316/557/5 307/558/5
f 307/558/5 316/557/5 315/268/5 308/267/5
f 109/250/11 314/559/11 316/560/11 152/561/11
f 314/559/11 313/253/11 315/256/11 316/560/11
f 101/562/15 304/563/15 308/564/15 130/285/15
f 304/563/15 303/237/15 307/240/15 308/564/15
f 95/107/11 306/565/11 310/566/11 127/567/11
f 306/565/11 305/214/11 309/217/11 310/566/11
f 247/568/5 344/569/5 346/570/5 248/383/5
f 346/570/4 344/569/4 348/570/4
f 184/116/76 333/571/76 344/569/76 247/568/76
f 333/571/76 334/502/76 343/503/76 344/569/76
f 176/487/5 327/572/5 341/573/5 232/486/5
f 327/572/5 328/498/5 342/499/5 341/573/5
f 248/383/61 346/570/61 336/574/61 181/384/61
f 346/570/61 345/442/61 335/443/61 336/574/61
f 187/575/15 334/576/15 340/577/15 218/578/15
f 334/576/15 333/426/15 339/429/15 340/577/15
f 221/86/5 199/87/5 332/579/5 339/580/5
f 339/580/5 332/579/5 331/425/5 340/424/5
f 194/533/5 224/462/5 338/581/5 329/582/5
f 329/582/5 338/581/5 337/419/5 330/418/5
f 181/102/11 336/583/11 338/584/11 224/585/11
f 336/583/11 335/406/11 337/408/11 338/584/11
f 173/586/15 326/587/15 330/588/15 202/432/15
f 326/587/15 325/394/15 329/397/15 330/588/15
f 167/107/11 328/589/11 332/590/11 199/591/11
f 328/589/11 327/375/11 331/377/11 332/590/11
f 344/569/103 343/503/103 347/442/103 348/570/103
f 343/503/2 345/442/2 347/442/2
f 345/442/10 346/570/10 348/570/10 347/442/10
f 235/568/1 368/592/1 370/593/1 236/383/1
f 435/37/10 436/525/10 494/525/10 493/37/10
f 192/116/75 357/530/75 368/592/75 235/568/75
f 357/530/75 358/40/75 367/501/75 368/592/75
f 164/594/1 353/595/1 365/596/1 226/597/1
f 353/595/1 354/482/1 366/484/1 365/596/1
f 236/383/62 370/593/62 360/598/62 189/384/62
f 370/593/62 369/444/62 359/225/62 360/598/62
f 177/599/14 358/600/14 362/412/14 212/411/14
f 358/600/14 357/433/14 361/436/14 362/412/14
f 209/90/1 207/91/1 356/88/1 361/89/1
f 361/89/1 356/88/1 355/85/1 362/84/1
f 206/327/1 215/328/1 364/167/1 351/276/1
f 351/276/1 364/167/1 363/421/1 352/420/1
f 171/260/12 354/413/12 356/601/12 207/602/12
f 354/413/12 353/389/12 355/390/12 356/601/12
f 161/603/14 350/604/14 352/605/14 195/606/14
f 350/604/14 349/385/14 351/388/14 352/605/14
f 189/607/12 360/608/12 364/609/12 215/610/12
f 360/608/12 359/378/12 363/381/12 364/609/12
f 237/611/4 390/612/4 392/613/4 238/614/4
f 178/615/77 379/616/77 390/612/77 237/611/77
f 379/616/77 380/504/77 389/507/77 390/612/77
f 168/52/4 376/617/4 388/618/4 228/49/4
f 376/617/4 375/489/4 387/492/4 388/618/4
f 165/619/19 371/620/19 374/621/19 193/622/19
f 371/620/19 372/478/19 373/481/19 374/621/19
f 196/533/4 214/462/4 386/534/4 373/535/4
f 373/535/4 386/534/4 385/93/4 374/92/4
f 179/623/20 382/624/20 386/625/20 214/567/20
f 382/624/20 381/437/20 385/440/20 386/625/20
f 211/533/4 197/462/4 378/626/4 383/627/4
f 383/627/4 378/626/4 377/417/4 384/416/4
f 163/289/20 375/389/20 378/628/20 197/629/20
f 375/389/20 376/413/20 377/415/20 378/628/20
f 183/630/19 380/631/19 384/436/19 222/435/19
f 380/631/19 379/409/19 383/412/19 384/436/19
f 238/614/60 392/613/60 382/598/60 179/384/60
f 392/613/60 391/402/60 381/225/60 382/598/60
f 269/632/4 412/633/4 414/634/4 270/635/4
f 413/61/10 414/634/10 488/634/10 487/61/10
f 34/636/101 401/637/101 412/633/101 269/632/101
f 401/637/101 402/521/101 411/523/101 412/633/101
f 24/638/4 398/639/4 410/640/4 84/641/4
f 398/639/4 397/196/4 409/199/4 410/640/4
f 21/42/19 393/642/19 396/643/19 49/644/19
f 393/642/19 394/185/19 395/187/19 396/643/19
f 52/533/4 70/462/4 408/645/4 395/646/4
f 395/646/4 408/645/4 407/81/4 396/80/4
f 35/215/20 404/647/20 408/648/20 70/441/20
f 404/647/20 403/106/20 407/109/20 408/648/20
f 67/533/4 53/462/4 400/645/4 405/646/4
f 405/646/4 400/645/4 399/81/4 406/80/4
f 19/649/20 397/650/20 400/651/20 53/47/20
f 397/650/20 398/77/20 399/79/20 400/651/20
f 39/652/19 402/653/19 406/654/19 78/59/19
f 402/653/19 401/73/19 405/76/19 406/654/19
f 270/635/17 414/634/17 404/655/17 35/656/17
f 414/634/17 413/61/17 403/64/17 404/655/17
f 251/519/1 434/524/1 436/525/1 252/115/1
f 433/513/4 435/37/4 493/37/4
f 120/515/87 423/526/87 434/524/87 251/519/87
f 423/526/87 424/510/87 433/513/87 434/524/87
f 92/198/1 419/657/1 431/658/1 154/197/1
f 419/657/1 420/355/1 432/358/1 431/658/1
f 252/115/54 436/525/54 426/530/54 117/116/54
f 436/525/54 435/37/54 425/40/54 426/530/54
f 105/280/14 424/659/14 428/660/14 140/260/14
f 424/659/14 423/287/14 427/290/14 428/660/14
f 137/661/1 135/662/1 422/663/1 427/664/1
f 427/664/1 422/663/1 421/276/1 428/275/1
f 134/665/1 143/666/1 430/667/1 417/668/1
f 417/668/1 430/667/1 429/272/1 418/271/1
f 99/260/12 420/669/12 422/601/12 135/602/12
f 420/669/12 419/230/12 421/232/12 422/601/12
f 89/670/14 416/671/14 418/672/14 123/673/14
f 416/671/14 415/226/14 417/229/14 418/672/14
f 117/674/12 426/675/12 430/676/12 143/677/12
f 426/675/12 425/218/12 429/221/12 430/676/12
f 259/568/2 456/592/2 458/678/2 260/383/2
f 455/501/1 457/222/1 481/222/1
f 116/116/90 445/530/90 456/592/90 259/568/90
f 445/530/90 446/40/90 455/501/90 456/592/90
f 100/551/2 439/552/2 453/553/2 158/493/2
f 439/552/2 440/359/2 454/361/2 453/553/2
f 103/679/18 440/680/18 444/681/18 132/682/18
f 440/680/18 439/295/18 443/298/18 444/681/18
f 97/683/16 438/684/16 442/685/16 133/239/16
f 438/684/16 437/283/16 441/286/16 442/685/16
f 129/90/2 147/91/2 450/88/2 441/89/2
f 441/89/2 450/88/2 449/85/2 442/84/2
f 145/90/2 132/91/2 444/88/2 451/89/2
f 451/89/2 444/88/2 443/85/2 452/84/2
f 113/254/18 448/686/18 450/687/18 147/688/18
f 448/686/18 447/249/18 449/252/18 450/687/18
f 119/689/16 446/690/16 452/691/16 138/259/16
f 446/690/16 445/241/16 451/244/16 452/691/16
f 260/383/51 458/678/51 448/598/51 113/384/51
f 458/678/51 457/222/51 447/225/51 448/598/51
f 275/519/2 478/692/2 480/525/2 276/115/2
f 477/513/1 479/37/1 483/37/1
f 44/515/102 467/526/102 478/692/102 275/519/102
f 467/526/102 468/510/102 477/513/102 478/692/102
f 28/693/2 461/694/2 475/695/2 86/50/2
f 461/694/2 462/192/2 476/195/2 475/695/2
f 31/696/18 462/697/18 466/698/18 60/699/18
f 462/697/18 461/110/18 465/113/18 466/698/18
f 25/97/16 460/700/16 464/701/16 61/702/16
f 460/700/16 459/100/16 463/103/16 464/701/16
f 57/90/2 75/91/2 472/88/2 463/89/2
f 463/89/2 472/88/2 471/85/2 464/84/2
f 73/90/2 60/91/2 466/88/2 473/89/2
f 473/89/2 466/88/2 465/85/2 474/84/2
f 41/702/18 470/703/18 472/704/18 75/705/18
f 470/703/18 469/65/18 471/68/18 472/704/18
f 47/706/16 468/707/16 474/708/16 66/75/16
f 468/707/16 467/57/16 473/60/16 474/708/16
f 276/115/13 480/525/13 470/530/13 41/116/13
f 480/525/13 479/37/13 469/40/13 470/530/13
f 456/592/104 455/501/104 481/222/104 482/678/104
f 457/222/10 458/678/10 482/678/10 481/222/10
f 458/678/5 456/592/5 482/678/5
f 478/692/105 477/513/105 483/37/105 484/525/105
f 479/37/10 480/525/10 484/525/10 483/37/10
f 300/524/106 299/513/106 485/37/106 486/525/106
f 480/525/5 478/692/5 484/525/5
f 301/37/10 302/525/10 486/525/10 485/37/10
f 412/633/107 411/523/107 487/61/107 488/634/107
f 302/525/4 300/524/4 486/525/4
f 414/634/1 412/633/1 488/634/1
f 411/523/5 413/61/5 487/61/5
f 368/592/108 367/501/108 489/444/108 490/593/108
f 434/524/108 433/513/108 493/37/108 494/525/108
f 392/613/1 390/612/1 492/613/1
f 370/593/2 368/592/2 490/593/2
f 436/525/2 434/524/2 494/525/2
f 367/501/4 369/444/4 489/444/4
f 369/444/10 370/593/10 490/593/10 489/444/10
f 390/612/109 389/507/109 491/402/109 492/613/109
f 389/507/5 391/402/5 491/402/5
f 391/402/10 392/613/10 492/613/10 491/402/10
f 497/709/1 498/710/1 496/119/1 495/711/1
f 501/709/4 502/710/4 500/119/4 499/711/4
f 505/709/5 506/710/5 504/119/5 503/711/5
f 509/712/2 510/13/2 508/713/2 507/714/2
f 520/715/1 521/713/1 514/716/1 511/717/1
f 524/718/2 525/13/2 522/719/2 519/720/2
f 512/721/4 513/13/4 518/722/4 515/723/4
f 516/715/5 517/713/5 526/716/5 523/717/5
f 511/717/6 514/716/6 513/724/6 512/725/6
f 517/713/7 516/715/7 515/726/7 518/727/7
f 525/724/8 524/725/8 523/717/8 526/716/8
f 521/713/9 520/715/9 519/726/9 522/727/9
