# Blender 4.2.1 LTS
# www.blender.org
o PlantaBase
v -0.710884 0.000000 0.175630
v -0.078617 0.000000 0.175630
v -0.710884 0.000000 -0.175630
v -0.078617 0.000000 -0.175630
v 0.175630 0.000000 0.710884
v 0.175630 0.000000 0.078617
v -0.175630 0.000000 0.710884
v -0.175630 0.000000 0.078617
v 0.711204 -0.000080 -0.174329
v 0.078938 -0.000029 -0.175486
v 0.710561 -0.000033 0.176929
v 0.078296 0.000017 0.175773
v -0.174329 -0.000080 -0.711204
v -0.175486 -0.000029 -0.078938
v 0.176929 -0.000033 -0.710561
v 0.175773 0.000017 -0.078296
v -0.394750 0.123290 0.175630
v -0.394750 0.123290 -0.175630
v 0.175630 0.123290 0.394750
v -0.175630 0.123290 0.394750
v 0.395071 0.123235 -0.174908
v 0.394428 0.123281 0.176351
v -0.174907 0.123235 -0.395071
v 0.176351 0.123281 -0.394428
v -0.469754 0.037002 -0.232794
v -0.124196 -0.008700 0.059628
v -0.307297 0.037002 -0.424771
v 0.038261 -0.008700 -0.132349
v -0.232794 0.037002 0.469754
v 0.059628 -0.008700 0.124196
v -0.424771 0.037002 0.307297
v -0.132349 -0.008700 -0.038261
v 0.469328 0.036945 0.233653
v 0.124304 -0.008721 -0.059401
v 0.306520 0.036978 0.425332
v -0.038503 -0.008688 0.132278
v 0.233653 0.036945 -0.469328
v -0.059401 -0.008721 -0.124304
v 0.425332 0.036978 -0.306520
v 0.132278 -0.008688 0.038503
v -0.290476 0.203867 -0.094262
v -0.141016 0.203867 -0.270880
v -0.094262 0.203867 0.290476
v -0.270881 0.203867 0.141016
v 0.290304 0.203829 0.094793
v 0.140521 0.203859 0.271138
v 0.094793 0.203829 -0.290304
v 0.271138 0.203859 -0.140521
v -0.220771 0.160903 -0.347174
v -0.378913 0.160903 -0.160296
v -0.347174 0.160903 0.220771
v -0.160296 0.160903 0.378912
v 0.220135 0.160888 0.347578
v 0.378619 0.160856 0.160989
v 0.347578 0.160888 -0.220135
v 0.160989 0.160856 -0.378619
v -0.530179 0.000000 -0.757613
v -0.821275 0.000000 -0.466516
v 0.046718 0.000000 -0.180716
v -0.244378 0.000000 0.110380
v 0.422695 0.000000 0.843704
v 0.756118 0.000000 0.602243
v -0.055834 0.000000 0.182924
v 0.277589 0.000000 -0.058537
v 0.733167 -0.000000 -0.676830
v 0.373897 -0.000000 -0.877825
v 0.271068 0.000000 0.009650
v 0.018452 0.000000 -0.315402
v -0.863586 0.000000 0.445690
v -0.572226 0.000000 0.736522
v -0.287214 0.000000 -0.131731
v 0.004146 0.000000 0.159100
v -0.968763 0.000000 -0.168876
v -0.940727 0.000000 0.161399
v -0.154802 0.000000 -0.213555
v -0.126767 0.000000 0.116719
v -0.026518 0.000000 -0.959246
v -0.350867 0.000000 -0.890945
v 0.117580 0.000000 -0.156897
v -0.206769 0.000000 -0.088595
v 1.034490 0.000000 -0.045984
v 0.956919 0.000000 -0.368242
v 0.236601 0.000000 0.121055
v 0.159030 0.000000 -0.201203
v -0.230319 0.000000 0.820890
v 0.101084 0.000000 0.814600
v -0.221458 0.000000 0.005751
v 0.109945 0.000000 -0.000538
vn 0.3633 0.9317 -0.0000
vn -0.0000 0.9317 -0.3633
vn -0.3633 0.9317 -0.0008
vn -0.0008 0.9317 0.3633
vn -0.3633 0.9317 -0.0000
vn -0.0000 0.9317 0.3633
vn 0.3634 0.9316 0.0005
vn 0.0005 0.9316 -0.3634
vn 0.5226 0.7289 0.4422
vn 0.4422 0.7289 -0.5226
vn -0.5217 0.7290 -0.4432
vn -0.4432 0.7290 0.5217
vn -0.2774 0.9317 -0.2347
vn -0.2347 0.9317 0.2774
vn 0.2771 0.9316 0.2352
vn 0.2352 0.9316 -0.2771
vn -0.5569 0.6840 -0.4712
vn -0.4712 0.6840 0.5569
vn 0.5561 0.6840 0.4722
vn 0.4722 0.6840 -0.5561
vn -0.0000 1.0000 -0.0000
vt 0.070312 0.486046
vt 0.070312 0.520930
vt 0.035156 0.520930
vt 0.035156 0.486046
vt 0.070312 0.451163
vt 0.035156 0.451163
vt 0.070312 0.468605
vt 0.035156 0.468605
vt 0.035156 0.468605
vt 0.117188 0.404651
vt 0.070312 0.404651
vt 0.070312 0.516279
vt 0.117188 0.516279
vt 0.113281 0.404651
vt 0.152344 0.404651
vt 0.152344 0.511628
vt 0.113281 0.511628
s 0
f 17/1/1 2/2/1 4/3/1 18/4/1
f 19/1/2 6/2/2 8/3/2 20/4/2
f 21/1/3 10/2/3 12/3/3 22/4/3
f 23/1/4 14/2/4 16/3/4 24/4/4
f 1/5/5 17/1/5 18/4/5 3/6/5
f 5/5/6 19/1/6 20/4/6 7/6/6
f 9/5/7 21/1/7 22/4/7 11/6/7
f 13/5/8 23/1/8 24/4/8 15/6/8
f 41/1/9 26/2/9 28/3/9 42/4/9
f 43/1/10 30/2/10 32/3/10 44/4/10
f 45/1/11 34/2/11 36/3/11 46/4/11
f 47/1/12 38/2/12 40/3/12 48/4/12
f 50/7/13 41/1/13 42/4/13 49/8/13
f 52/7/14 43/1/14 44/4/14 51/8/14
f 54/7/15 45/1/15 46/4/15 53/8/15
f 56/7/16 47/1/16 48/4/16 55/9/16
f 25/5/17 50/7/17 49/8/17 27/6/17
f 29/5/18 52/7/18 51/8/18 31/6/18
f 33/5/19 54/7/19 53/8/19 35/6/19
f 37/5/20 56/7/20 55/9/20 39/6/20
f 57/10/21 58/11/21 60/12/21 59/13/21
f 61/11/21 62/10/21 64/13/21 63/12/21
f 65/10/21 66/11/21 68/12/21 67/13/21
f 69/11/21 70/10/21 72/13/21 71/12/21
f 73/14/21 74/15/21 76/16/21 75/17/21
f 77/14/21 78/15/21 80/16/21 79/17/21
f 81/14/21 82/15/21 84/16/21 83/17/21
f 85/15/21 86/14/21 88/17/21 87/16/21
