# Blender 4.2.1 LTS
# www.blender.org
o NurbsPath.005
v -0.722947 4.098948 0.421403
v -0.627852 4.162202 0.761760
v -1.017350 3.730701 0.574539
v -0.922256 3.793956 0.914896
v -1.019258 3.901858 0.512345
v -0.921123 4.024606 0.461299
v -0.826028 4.087861 0.801656
v -0.924163 3.965112 0.852702
v -0.755753 4.168048 0.672764
v -0.470898 4.263028 0.869547
v -0.823474 3.773679 0.965366
v -0.538620 3.868658 1.162149
v -0.889205 3.939167 0.927164
v -0.866631 4.070623 0.829630
v -0.581776 4.165603 1.026412
v -0.604350 4.034147 1.123947
v -0.340622 3.711900 1.841449
v -0.319779 3.711900 1.844303
v -0.310460 3.695593 1.853779
v -0.321983 3.679286 1.860401
v -0.342826 3.679286 1.857547
v -0.352146 3.695593 1.848072
v -0.300100 3.339469 1.710361
v -0.276948 3.342324 1.714377
v -0.269627 3.354139 1.733537
v -0.285459 3.363100 1.748682
v -0.308611 3.360245 1.744667
v -0.315932 3.348430 1.725506
v -0.336546 3.273366 2.076038
v -0.300034 3.279053 2.078249
v -0.285369 3.310445 2.065219
v -0.307216 3.336152 2.049979
v -0.343727 3.330465 2.047768
v -0.358393 3.299073 2.060798
v -0.386715 3.560243 2.269937
v -0.328900 3.565265 2.270642
v -0.299867 3.573340 2.221043
v -0.328649 3.576393 2.170738
v -0.386463 3.571372 2.170033
v -0.415496 3.563297 2.219632
v -0.412614 3.912235 2.173241
v -0.335534 3.914125 2.175526
v -0.294427 3.874233 2.123864
v -0.330400 3.832451 2.069917
v -0.407481 3.830561 2.067632
v -0.448587 3.870453 2.119294
v -0.407621 4.137594 1.856475
v -0.311038 4.137937 1.861979
v -0.260629 4.060858 1.832373
v -0.306803 3.983437 1.797264
v -0.403386 3.983095 1.791760
v -0.453795 4.060174 1.821365
v -0.400334 4.264006 1.444870
v -0.269175 4.266435 1.445496
v -0.201432 4.155550 1.427487
v -0.264847 4.042235 1.408853
v -0.396007 4.039806 1.408226
v -0.463750 4.150691 1.426235
v -0.453203 4.352322 1.002433
v -0.272873 4.359503 0.965994
v -0.177797 4.203878 0.940697
v -0.263052 4.041072 0.951841
v -0.443382 4.033891 0.988280
v -0.538457 4.189516 1.013577
v -0.660416 4.385896 0.509595
v -0.449622 4.393335 0.399569
v -0.329779 4.192001 0.358367
v -0.420731 3.983228 0.427191
v -0.631525 3.975789 0.537216
v -0.751367 4.177122 0.578419
v -1.087377 4.301745 -0.064955
v -0.876071 4.300419 -0.239137
v -0.733937 4.069981 -0.280223
v -0.803109 3.840870 -0.147127
v -1.014415 3.842196 0.027056
v -1.156549 4.072634 0.068141
v -1.676436 4.026599 -0.657046
v -1.468558 4.013418 -0.867600
v -1.285995 3.780589 -0.881089
v -1.311312 3.560942 -0.684025
v -1.519191 3.574123 -0.473472
v -1.701753 3.806952 -0.459983
v -2.252913 3.499082 -1.132706
v -2.030626 3.479368 -1.367173
v -1.770952 3.290030 -1.328501
v -1.733566 3.120406 -1.055362
v -1.955853 3.140120 -0.820895
v -2.215527 3.329458 -0.859567
v -2.586204 2.709476 -1.378156
v -2.328100 2.720296 -1.631047
v -1.980049 2.702420 -1.534977
v -1.890102 2.673724 -1.186014
v -2.148206 2.662905 -0.933122
v -2.496257 2.680780 -1.029193
v -2.357996 1.873741 -1.271942
v -2.097218 1.957906 -1.558384
v -1.798842 2.209005 -1.487255
v -1.761244 2.375939 -1.129683
v -2.022021 2.291774 -0.843240
v -2.320398 2.040675 -0.914369
v -1.613740 1.359997 -0.861673
v -1.375034 1.477078 -1.182231
v -1.204426 1.856968 -1.186971
v -1.272524 2.119777 -0.871155
v -1.511231 2.002695 -0.550597
v -1.681839 1.622805 -0.545856
v -0.726271 1.108472 -0.307878
v -0.473915 1.223842 -0.627182
v -0.341839 1.624518 -0.658244
v -0.462120 1.909822 -0.370002
v -0.714476 1.794451 -0.050698
v -0.846552 1.393775 -0.019636
v 0.019922 0.902778 0.263372
v 0.310291 1.004313 -0.028420
v 0.492170 1.387258 -0.022211
v 0.383680 1.668669 0.275789
v 0.093311 1.567134 0.567580
v -0.088568 1.184188 0.561372
v 0.475107 0.583724 0.679390
v 0.798778 0.656439 0.415333
v 1.098907 0.937024 0.520073
v 1.075365 1.144896 0.888870
v 0.751694 1.072181 1.152927
v 0.451565 0.791596 1.048187
v 0.685383 0.020028 0.841654
v 1.017921 0.071029 0.583598
v 1.402853 0.143970 0.745719
v 1.455246 0.165909 1.165897
v 1.122708 0.114908 1.423954
v 0.737776 0.041967 1.261833
v 0.682212 -0.646178 0.717739
v 1.014964 -0.589098 0.461235
v 1.391468 -0.755981 0.562085
v 1.435220 -0.979944 0.919440
v 1.102468 -1.037024 1.175944
v 0.725964 -0.870141 1.075093
v 0.470953 -0.934315 0.357911
v 0.808029 -0.871895 0.108392
v 1.054694 -1.199121 -0.000491
v 0.964283 -1.588766 0.140145
v 0.627208 -1.651186 0.389664
v 0.380543 -1.323960 0.498547
v -0.040140 -0.666645 -0.280662
v 0.280807 -0.601725 -0.550022
v 0.398623 -0.908975 -0.817404
v 0.195493 -1.281144 -0.815425
v -0.125453 -1.346065 -0.546065
v -0.243270 -1.038815 -0.278684
v -0.852941 -0.160445 -1.010225
v -0.603447 -0.068607 -1.340264
v -0.492014 -0.373321 -1.612916
v -0.630074 -0.769873 -1.555529
v -0.879567 -0.861710 -1.225490
v -0.991001 -0.556997 -0.952838
v -1.772889 -0.214524 -1.502540
v -1.645201 -0.143538 -1.894899
v -1.400257 -0.422155 -2.088971
v -1.283000 -0.771759 -1.890684
v -1.410689 -0.842745 -1.498324
v -1.655633 -0.564128 -1.304252
v -2.351191 -1.086926 -1.717090
v -2.245327 -1.040791 -2.092257
v -1.870012 -1.087307 -2.197429
v -1.600561 -1.179960 -1.927432
v -1.706425 -1.226095 -1.552265
v -2.081740 -1.179578 -1.447094
v -2.027089 -2.054935 -1.897614
v -1.964076 -1.920521 -2.186925
v -1.716540 -1.712096 -2.218919
v -1.532016 -1.638085 -1.961602
v -1.595028 -1.772501 -1.672290
v -1.842565 -1.980925 -1.640297
v -1.044980 -2.470351 -2.183629
v -1.055877 -2.340392 -2.363524
v -0.980966 -2.131410 -2.354309
v -0.895157 -2.052385 -2.165200
v -0.884260 -2.182344 -1.985304
v -0.959171 -2.391327 -1.994518
v -0.029686 -2.565403 -2.490067
v -0.045270 -2.491033 -2.586208
v -0.016189 -2.372331 -2.577199
v 0.028475 -2.327998 -2.472047
v 0.044058 -2.402368 -2.375906
v 0.014978 -2.521071 -2.384914
v 0.631801 -2.665217 -2.710697
v 0.631732 -2.630859 -2.761811
v 0.662302 -2.577408 -2.763027
v 0.692940 -2.558314 -2.713130
v 0.693009 -2.592671 -2.662016
v 0.662439 -2.646123 -2.660799
v 0.849222 -2.854739 -2.804353
v 0.859279 -2.847006 -2.842151
v 0.897083 -2.838275 -2.851336
v 0.924829 -2.837277 -2.822721
v 0.914773 -2.845012 -2.784922
v 0.876969 -2.853742 -2.775738
v 0.760900 -3.092431 -2.791502
v 0.765463 -3.104215 -2.825368
v 0.792234 -3.127261 -2.833031
v 0.814442 -3.138523 -2.806828
v 0.809878 -3.126739 -2.772964
v 0.783107 -3.103693 -2.765301
v 0.505840 -3.256594 -2.696492
v 0.496381 -3.276734 -2.724854
v 0.502001 -3.312339 -2.724353
v 0.517080 -3.327803 -2.695491
v 0.526539 -3.307662 -2.667130
v 0.520919 -3.272058 -2.667630
v 0.277861 -3.201501 -2.583137
v 0.247091 -3.205616 -2.598100
v 0.220409 -3.217318 -2.579695
v 0.224496 -3.224904 -2.546329
v 0.255266 -3.220789 -2.531367
v 0.281948 -3.209088 -2.549771
v 0.483168 -2.925634 -2.636720
v 0.471962 -2.910606 -2.647332
v 0.467123 -2.891964 -2.637687
v 0.473491 -2.888348 -2.617429
v 0.484697 -2.903375 -2.606816
v 0.489535 -2.922019 -2.616462
v -1.260578 1.800541 -0.372226
v -0.971131 1.736801 -0.169631
v -1.484381 2.009796 0.017459
v -1.194933 1.946056 0.220054
v -1.401880 2.047904 -0.140363
v -1.327279 1.978152 -0.270258
v -1.037832 1.914413 -0.067663
v -1.112433 1.984164 0.062232
v -1.050990 1.858800 -0.224876
v -0.795855 1.611567 -0.173217
v -1.156736 1.847479 0.259292
v -0.901601 1.600246 0.310952
v -1.075122 1.947411 0.130765
v -1.039873 1.951185 -0.030624
v -0.784738 1.703951 0.021035
v -0.819987 1.700177 0.182425
v -2.373335 2.929777 -1.182857
v -2.260546 3.270361 -1.169865
v -2.830105 3.078831 -1.060901
v -2.717316 3.419415 -1.047909
v -2.729013 3.019777 -1.200398
v -2.576757 2.970092 -1.241050
v -2.463968 3.310676 -1.228058
v -2.616225 3.360360 -1.187406
v -2.359210 3.182637 -1.252829
v -2.074857 3.378550 -1.154604
v -2.650478 3.468619 -0.971570
v -2.366124 3.664532 -0.873345
v -2.604008 3.434022 -1.144225
v -2.506919 3.338694 -1.237979
v -2.222565 3.534607 -1.139754
v -2.319654 3.629935 -1.046001
v -2.268188 1.916593 -1.080623
v -2.069914 1.859533 -0.786823
v -2.668542 1.750937 -0.839783
v -2.470268 1.693877 -0.545983
v -2.587996 1.902565 -0.900511
v -2.454545 1.957783 -0.980790
v -2.256271 1.900724 -0.686990
v -2.389722 1.845505 -0.606710
v -2.189024 1.949329 -0.832239
v -1.862200 1.838056 -0.733796
v -2.392040 1.614655 -0.528088
v -2.065215 1.503382 -0.429645
v -2.358150 1.792663 -0.546289
v -2.290478 1.904221 -0.647673
v -1.963654 1.792947 -0.549230
v -2.031325 1.681389 -0.447846
v -1.664897 3.835693 -0.693316
v -1.415018 4.031058 -0.525149
v -2.012058 4.157696 -0.546610
v -1.762179 4.353062 -0.378443
v -1.915180 4.104523 -0.691363
v -1.799460 3.997189 -0.740265
v -1.549581 4.192554 -0.572099
v -1.665301 4.299888 -0.523197
v -1.514774 4.045632 -0.644101
v -1.213526 4.007668 -0.452542
v -1.705152 4.328532 -0.284304
v -1.403903 4.290567 -0.092745
v -1.633007 4.335113 -0.451391
v -1.569548 4.240813 -0.571323
v -1.268299 4.202849 -0.379764
v -1.331758 4.297149 -0.259832
v -0.415551 1.229460 0.205313
v -0.217277 1.172400 0.499113
v -0.815905 1.063804 0.446153
v -0.617632 1.006744 0.739953
v -0.735359 1.215431 0.385426
v -0.601908 1.270650 0.305146
v -0.403634 1.213590 0.598946
v -0.537085 1.158372 0.679226
v -0.336387 1.262196 0.453698
v -0.009563 1.150923 0.552140
v -0.539403 0.927522 0.757849
v -0.212578 0.816249 0.856292
v -0.505513 1.105530 0.739647
v -0.437842 1.217088 0.638264
v -0.111017 1.105814 0.736706
v -0.178689 0.994256 0.838090
v 0.496920 0.980668 1.080417
v 0.781222 0.817607 1.226945
v 0.435284 1.242355 1.496891
v 0.719587 1.079294 1.643419
v 0.493993 1.254737 1.324943
v 0.514539 1.167508 1.186118
v 0.798841 1.004447 1.332646
v 0.778295 1.091676 1.471471
v 0.737968 0.960844 1.183063
v 0.900145 0.640784 1.195183
v 0.729219 0.972577 1.678558
v 0.891397 0.652517 1.690678
v 0.813473 1.042639 1.533097
v 0.816389 1.038729 1.367932
v 0.978566 0.718668 1.380052
v 0.975650 0.722579 1.545217
v 0.818500 -0.024963 0.945677
v 0.659857 -0.344302 0.987419
v 0.372873 0.188937 0.908363
v 0.214230 -0.130401 0.950105
v 0.514179 0.166418 1.021021
v 0.662721 0.095118 1.033459
v 0.504078 -0.224221 1.075201
v 0.355536 -0.152921 1.062763
v 0.670034 -0.207810 1.062117
v 0.710818 -0.553124 0.972775
v 0.209922 -0.216893 0.877878
v 0.250706 -0.562207 0.788536
v 0.303898 -0.215678 1.033870
v 0.457269 -0.212650 1.095283
v 0.498053 -0.557965 1.005941
v 0.344683 -0.560992 0.944528
v 0.198014 -1.290649 0.021015
v 0.358034 -1.469969 0.287707
v -0.166767 -1.626285 0.017331
v -0.006746 -1.805605 0.284024
v -0.126516 -1.456099 0.068152
v -0.004923 -1.344220 0.069380
v 0.155098 -1.523540 0.336073
v 0.033505 -1.635418 0.334845
v 0.225894 -1.391243 0.262131
v 0.552440 -1.483149 0.379636
v 0.087810 -1.866966 0.280854
v 0.414357 -1.958871 0.398359
v 0.069883 -1.707075 0.366177
v 0.115910 -1.548501 0.359936
v 0.442457 -1.640407 0.477441
v 0.396429 -1.798982 0.483682
v -0.587163 -0.553369 -0.797417
v -0.362841 -0.600798 -0.521162
v -0.959222 -0.476255 -0.479053
v -0.734899 -0.523685 -0.202798
v -0.846512 -0.391194 -0.594064
v -0.722493 -0.416899 -0.700185
v -0.498170 -0.464327 -0.423930
v -0.622189 -0.438622 -0.317809
v -0.450802 -0.487683 -0.582651
v -0.168788 -0.686509 -0.483539
v -0.686584 -0.619026 -0.166857
v -0.404571 -0.817852 -0.067744
v -0.598541 -0.480887 -0.246434
v -0.519947 -0.437106 -0.385032
v -0.237933 -0.635932 -0.285920
v -0.316527 -0.679713 -0.147322
v -1.861432 -1.209862 -1.509223
v -1.644077 -0.928449 -1.459719
v -1.913089 -1.253397 -1.018137
v -1.695734 -0.971984 -0.968633
v -1.998977 -1.197942 -1.168850
v -1.981758 -1.183430 -1.332545
v -1.764403 -0.902017 -1.283041
v -1.781622 -0.916529 -1.119346
v -1.792867 -0.967543 -1.434295
v -1.496968 -0.816535 -1.570410
v -1.584300 -0.965379 -0.984601
v -1.288401 -0.814372 -1.120716
v -1.709607 -0.881806 -1.086974
v -1.779129 -0.882528 -1.236873
v -1.483230 -0.731519 -1.372987
v -1.413707 -0.730798 -1.223089
v -1.552534 -2.193710 -1.961815
v -1.209454 -2.288474 -1.914882
v -1.682131 -2.482867 -1.580603
v -1.339051 -2.577632 -1.533670
v -1.658117 -2.309079 -1.629463
v -1.614918 -2.212693 -1.756534
v -1.271838 -2.307458 -1.709602
v -1.315037 -2.403844 -1.582531
v -1.321616 -2.212311 -1.837862
v -1.024639 -2.286136 -2.025589
v -1.274766 -2.643849 -1.598468
v -0.977788 -2.717674 -1.786195
v -1.253335 -2.464025 -1.579226
v -1.268951 -2.320178 -1.659024
v -0.971974 -2.394003 -1.846751
v -0.956357 -2.537849 -1.766952
vn 0.3629 -0.9291 0.0713
vn 0.9637 -0.0816 -0.2541
vn 0.8998 -0.3986 -0.1773
vn 0.5887 -0.8082 -0.0143
vn 0.5725 -0.8199 -0.0076
vn 0.9113 -0.3671 -0.1864
vn 0.4443 -0.8673 -0.2246
vn 0.5609 0.0318 -0.8273
vn 0.6074 -0.2858 -0.7412
vn 0.5394 -0.7228 -0.4320
vn 0.5334 -0.7361 -0.4168
vn 0.6056 -0.2537 -0.7542
vn -0.1902 0.3083 -0.9321
vn 0.4194 0.3444 -0.8399
vn 0.9812 0.1555 -0.1145
vn 0.3414 -0.2767 0.8983
vn -0.6189 -0.3194 0.7176
vn -0.8714 0.0779 -0.4844
vn -0.2499 -0.4892 -0.8356
vn 0.5992 -0.3918 -0.6982
vn 0.9978 0.0070 -0.0663
vn 0.5087 0.4647 0.7248
vn -0.8434 0.2769 0.4605
vn -0.9029 -0.2150 -0.3722
vn -0.3271 -0.8869 0.3262
vn 0.5187 -0.7647 0.3822
vn 0.9943 -0.0464 0.0960
vn 0.4880 0.7886 -0.3741
vn -0.6805 0.5908 -0.4334
vn -0.9402 -0.3398 -0.0230
vn -0.4525 -0.1889 0.8715
vn 0.4411 -0.1126 0.8904
vn 0.9901 0.0098 0.1403
vn 0.5614 0.0649 -0.8250
vn -0.5625 -0.0316 -0.8262
vn -0.9809 -0.1588 0.1124
vn -0.4994 0.4884 0.7156
vn 0.4184 0.5149 0.7482
vn 0.9875 0.0459 0.1511
vn 0.5780 -0.5530 -0.6001
vn -0.5283 -0.5728 -0.6268
vn -0.9961 -0.0047 0.0879
vn -0.5016 0.7805 0.3731
vn 0.4482 0.7855 0.4267
vn 0.9895 0.0272 0.1420
vn 0.5387 -0.8121 -0.2243
vn -0.5027 -0.8165 -0.2840
vn -0.9994 0.0181 0.0295
vn -0.4875 0.8405 0.2364
vn 0.4900 0.8404 0.2318
vn 0.9948 0.0230 0.0996
vn 0.5397 -0.8412 -0.0333
vn -0.4717 -0.8811 -0.0354
vn -0.9946 -0.0143 0.1024
vn -0.4474 0.8633 0.2337
vn 0.5067 0.8617 0.0271
vn 0.9932 0.0508 -0.1044
vn 0.5742 -0.8176 -0.0419
vn -0.4057 -0.8985 0.1677
vn -0.9493 -0.0233 0.3134
vn -0.4343 0.8741 0.2177
vn 0.4306 0.8704 -0.2387
vn 0.9132 0.0553 -0.4039
vn 0.5675 -0.8136 -0.1269
vn -0.3219 -0.8793 0.3511
vn -0.8461 -0.0014 0.5330
vn -0.4764 0.8654 0.1551
vn 0.2774 0.8421 -0.4626
vn 0.7891 0.0306 -0.6135
vn 0.5626 -0.8143 -0.1427
vn -0.2222 -0.8283 0.5144
vn -0.7496 0.0437 0.6604
vn -0.5859 0.8097 0.0341
vn 0.0894 0.7599 -0.6438
vn 0.7045 0.0113 -0.7096
vn 0.6512 -0.7569 -0.0548
vn -0.0769 -0.7187 0.6910
vn -0.6973 0.1030 0.7093
vn -0.7785 0.6117 -0.1405
vn -0.1370 0.5604 -0.8168
vn 0.6642 0.0189 -0.7473
vn 0.8337 -0.5426 0.1024
vn 0.1007 -0.4728 0.8754
vn -0.7097 0.1405 0.6903
vn -0.9539 0.0810 -0.2891
vn -0.3173 0.1153 -0.9413
vn 0.6154 0.0961 -0.7823
vn 0.9748 0.0290 0.2214
vn 0.1421 -0.0068 0.9898
vn -0.7870 0.0207 0.6166
vn -0.7670 -0.6067 -0.2089
vn -0.1724 -0.4241 -0.8891
vn 0.5690 0.1771 -0.8031
vn 0.7157 0.6872 0.1244
vn -0.0180 0.4208 0.9070
vn -0.7244 -0.2383 0.6469
vn -0.4206 -0.9071 -0.0150
vn 0.1315 -0.6423 -0.7551
vn 0.5507 0.2538 -0.7952
vn 0.3896 0.9201 -0.0407
vn -0.1968 0.6265 0.7541
vn -0.5949 -0.3135 0.7401
vn -0.3070 -0.9499 0.0589
vn 0.2852 -0.6684 -0.6870
vn 0.5938 0.2698 -0.7580
vn 0.3164 0.9446 -0.0868
vn -0.2815 0.6836 0.6734
vn -0.5994 -0.2780 0.7506
vn -0.4212 -0.9069 -0.0114
vn 0.2832 -0.6412 -0.7132
vn 0.6897 0.2729 -0.6707
vn 0.4322 0.9016 0.0205
vn -0.2249 0.6882 0.6897
vn -0.6780 -0.2019 0.7068
vn -0.7249 -0.6571 -0.2066
vn 0.1237 -0.4551 -0.8818
vn 0.7955 0.2321 -0.5597
vn 0.6963 0.6637 0.2734
vn -0.0079 0.5105 0.8598
vn -0.7195 -0.1053 0.6865
vn -0.9238 -0.1775 -0.3393
vn -0.0735 -0.0496 -0.9961
vn 0.8371 0.1316 -0.5309
vn 0.8912 0.1675 0.4216
vn 0.1687 0.0543 0.9842
vn -0.7247 -0.1107 0.6801
vn -0.9193 0.3534 -0.1731
vn -0.0371 0.5083 -0.8604
vn 0.8514 0.0618 -0.5209
vn 0.8620 -0.4209 0.2827
vn 0.1467 -0.5403 0.8285
vn -0.7106 -0.2011 0.6742
vn -0.6307 0.7105 0.3121
vn 0.2947 0.8800 -0.3725
vn 0.8178 0.0123 -0.5754
vn 0.5542 -0.8024 -0.2215
vn -0.1685 -0.9338 0.3158
vn -0.7559 -0.2750 0.5941
vn -0.2598 0.7287 0.6337
vn 0.4985 0.8667 -0.0171
vn 0.7551 0.1302 -0.6426
vn 0.2784 -0.7316 -0.6223
vn -0.4535 -0.8911 -0.0158
vn -0.7590 -0.1848 0.6244
vn -0.2329 0.7715 0.5921
vn 0.3166 0.9365 -0.1508
vn 0.5832 0.2734 -0.7650
vn 0.2913 -0.6680 -0.6848
vn -0.3353 -0.9364 0.1030
vn -0.5942 -0.1493 0.7904
vn -0.6039 0.7014 0.3786
vn -0.2991 0.8314 -0.4683
vn 0.2447 0.2523 -0.9362
vn 0.5540 -0.5971 -0.5801
vn 0.2340 -0.8430 0.4844
vn -0.4077 -0.0437 0.9121
vn -0.9690 0.0838 0.2324
vn -0.7390 0.2080 -0.6408
vn 0.1253 0.0995 -0.9871
vn 0.9222 -0.1950 -0.3340
vn 0.5985 -0.2989 0.7432
vn -0.3781 -0.1540 0.9129
vn -0.7231 -0.6852 0.0870
vn -0.5827 -0.3405 -0.7379
vn 0.1448 0.2570 -0.9555
vn 0.8319 0.5426 -0.1162
vn 0.5574 0.0674 0.8275
vn -0.2155 -0.5147 0.8298
vn -0.2610 -0.9637 -0.0554
vn -0.3109 -0.4323 -0.8464
vn 0.0292 0.5193 -0.8541
vn 0.4312 0.9020 0.0197
vn 0.4687 0.2807 0.8376
vn 0.1096 -0.6445 0.7567
vn -0.1506 -0.9838 -0.0969
vn -0.2781 -0.3802 -0.8821
vn -0.0399 0.5912 -0.8055
vn 0.3209 0.9459 0.0488
vn 0.4466 0.3443 0.8258
vn 0.2112 -0.6211 0.7548
vn -0.4228 -0.9062 -0.0086
vn -0.4080 -0.2835 -0.8679
vn 0.0997 0.5690 -0.8163
vn 0.5526 0.8322 -0.0444
vn 0.5740 0.3331 0.7481
vn 0.1066 -0.5435 0.8326
vn -0.9460 -0.2593 0.1945
vn -0.5337 -0.0154 -0.8456
vn 0.3656 0.1783 -0.9135
vn 0.9504 0.1920 -0.2448
vn 0.7889 0.0293 0.6139
vn -0.0517 -0.1975 0.9789
vn -0.7477 0.6344 0.1959
vn -0.5638 0.2480 -0.7878
vn 0.1907 -0.3733 -0.9079
vn 0.7356 -0.6372 -0.2300
vn 0.6642 -0.3703 0.6494
vn -0.0615 0.2741 0.9597
vn -0.1734 0.9846 -0.0210
vn -0.4311 0.3176 -0.8446
vn -0.2433 -0.6458 -0.7237
vn 0.1231 -0.9924 -0.0053
vn 0.3932 -0.5455 0.7402
vn 0.2841 0.4926 0.8226
vn 0.6722 0.3625 -0.6455
vn -0.3989 0.1562 -0.9036
vn -0.9290 -0.1325 -0.3455
vn -0.7868 -0.3188 0.5285
vn -0.0469 -0.2417 0.9692
vn 0.7086 0.0160 0.7055
vn 0.6127 -0.5579 -0.5597
vn -0.2771 0.0431 -0.9599
vn -0.7991 0.5729 -0.1822
vn -0.6292 0.5805 0.5168
vn -0.0274 0.2433 0.9696
vn 0.7795 -0.4673 0.4172
vn -0.5540 -0.5611 0.6150
vn -0.0362 -0.9669 -0.2524
vn -0.2278 -0.9735 0.0191
vn -0.4783 -0.7570 0.4452
vn -0.4855 -0.7436 0.4598
vn -0.2087 -0.9779 -0.0095
vn -0.6885 -0.6388 0.3432
vn -0.4124 -0.5735 -0.7078
vn -0.5764 -0.6872 -0.4421
vn -0.7021 -0.7073 0.0823
vn -0.7029 -0.7038 0.1031
vn -0.5621 -0.6788 -0.4725
vn -0.2653 0.0511 0.9628
vn 0.7244 -0.2642 0.6368
vn 0.4833 -0.1926 0.8540
vn -0.0117 -0.0343 0.9993
vn -0.0317 -0.0276 0.9991
vn 0.5113 -0.2012 0.8355
vn -0.1620 -0.2443 0.9561
vn 0.4715 -0.8316 0.2935
vn 0.3184 -0.7517 0.5775
vn 0.0015 -0.4499 0.8931
vn -0.0114 -0.4348 0.9004
vn 0.3363 -0.7641 0.5505
vn -0.2321 -0.9722 -0.0322
vn 0.6367 -0.5533 -0.5371
vn 0.4251 -0.7907 -0.4405
vn -0.0094 -0.9828 -0.1845
vn -0.0270 -0.9846 -0.1730
vn 0.4497 -0.7698 -0.4530
vn -0.2099 -0.9169 -0.3395
vn 0.2402 -0.1439 -0.9600
vn 0.1165 -0.4439 -0.8885
vn -0.1068 -0.8161 -0.5679
vn -0.1152 -0.8263 -0.5514
vn 0.1302 -0.4145 -0.9007
vn -0.4738 -0.1421 0.8691
vn 0.2997 -0.8130 0.4992
vn 0.0693 -0.7002 0.7105
vn -0.3121 -0.3582 0.8799
vn -0.3257 -0.3421 0.8814
vn 0.0940 -0.7158 0.6919
vn -0.5236 -0.4227 0.7397
vn -0.0788 -0.9942 -0.0732
vn -0.2508 -0.9457 0.2070
vn -0.4651 -0.6482 0.6029
vn -0.4709 -0.6321 0.6153
vn -0.2339 -0.9557 0.1785
vn -0.5818 -0.3582 0.7302
vn -0.4064 -0.8909 -0.2029
vn -0.5333 -0.8400 0.1000
vn -0.6102 -0.5635 0.5569
vn -0.6096 -0.5488 0.5721
vn -0.5227 -0.8498 0.0685
vn -0.7839 -0.3786 0.4920
vn -0.7083 -0.3814 -0.5940
vn -0.8470 -0.4404 -0.2978
vn -0.8693 -0.4314 0.2413
vn -0.8649 -0.4283 0.2617
vn -0.8367 -0.4365 -0.3307
vn -0.4309 0.0968 -0.8972
vn 0.5430 -0.3684 -0.7547
vn 0.2790 -0.2594 -0.9246
vn -0.2047 -0.0262 -0.9785
vn -0.2231 -0.0166 -0.9747
vn 0.3083 -0.2723 -0.9115
vn -0.1550 0.2303 -0.9607
vn 0.8331 0.2287 -0.5037
vn 0.6097 0.2653 -0.7470
vn 0.1133 0.2614 -0.9586
vn 0.0924 0.2596 -0.9613
vn 0.6365 0.2628 -0.7251
vn 0.0732 -0.8067 -0.5864
vn 0.8446 -0.0403 -0.5339
vn 0.7007 -0.3217 -0.6368
vn 0.3093 -0.6928 -0.6514
vn 0.2915 -0.7036 -0.6480
vn 0.7196 -0.2936 -0.6292
vn 0.1238 -0.5850 -0.8015
vn 0.4127 0.4644 -0.7836
vn 0.3740 0.1609 -0.9134
vn 0.2254 -0.3578 -0.9062
vn 0.2180 -0.3767 -0.9003
vn 0.3800 0.1939 -0.9044
vn -0.5518 -0.7720 0.3155
vn 0.2796 -0.8823 -0.3785
vn 0.0253 -0.9816 -0.1891
vn -0.3839 -0.9102 0.1554
vn -0.3981 -0.9017 0.1685
vn 0.0523 -0.9763 -0.2101
vn -0.5778 -0.8162 0.0067
vn -0.0330 -0.4830 -0.8750
vn -0.2337 -0.6786 -0.6963
vn -0.4974 -0.8305 -0.2507
vn -0.5051 -0.8316 -0.2311
vn -0.2137 -0.6615 -0.7189
vn 0.6313 -0.5785 0.5165
vn 0.6998 -0.4418 -0.5614
vn 0.7854 -0.5604 -0.2629
vn 0.7380 -0.6178 0.2715
vn 0.7315 -0.6163 0.2916
vn 0.7805 -0.5508 -0.2959
vn 0.5397 -0.7862 0.3010
vn 0.0633 -0.7338 -0.6765
vn 0.2442 -0.8681 -0.4322
vn 0.4741 -0.8787 0.0559
vn 0.4806 -0.8737 0.0754
vn 0.2264 -0.8584 -0.4603
vn -0.2421 -0.9566 -0.1620
vn 0.0546 -0.2772 -0.9592
vn -0.0432 -0.5647 -0.8242
vn -0.1883 -0.8888 -0.4179
vn -0.1931 -0.8965 -0.3988
vn -0.0331 -0.5372 -0.8428
vn -0.4363 -0.8216 -0.3671
vn -0.5011 0.1509 -0.8521
vn -0.5567 -0.1743 -0.8122
vn -0.5151 -0.6493 -0.5595
vn -0.5103 -0.6646 -0.5458
vn -0.5538 -0.1408 -0.8207
vt 0.351562 0.306977
vt 0.410156 0.306977
vt 0.410156 0.334884
vt 0.351562 0.334884
vt 0.351562 0.251163
vt 0.410156 0.251163
vt 0.410156 0.279070
vt 0.351562 0.279070
vt 0.250000 0.325581
vt 0.250000 0.302326
vt 0.261719 0.302326
vt 0.261719 0.325581
vt 0.332031 0.325581
vt 0.332031 0.302326
vt 0.351562 0.302326
vt 0.351562 0.325581
vt 0.312500 0.325581
vt 0.312500 0.302326
vt 0.296875 0.325581
vt 0.296875 0.302326
vt 0.281250 0.325581
vt 0.281250 0.302326
vt 0.250000 0.279070
vt 0.261719 0.279070
vt 0.332031 0.279070
vt 0.312500 0.279070
vt 0.296875 0.279070
vt 0.281250 0.279070
vt 0.250000 0.260465
vt 0.261719 0.260465
vt 0.332031 0.260465
vt 0.351562 0.260465
vt 0.312500 0.260465
vt 0.296875 0.260465
vt 0.281250 0.260465
vt 0.246094 0.241860
vt 0.261719 0.241860
vt 0.332031 0.241860
vt 0.343750 0.241860
vt 0.312500 0.241860
vt 0.296875 0.241860
vt 0.281250 0.241860
vt 0.246094 0.232558
vt 0.261719 0.232558
vt 0.332031 0.223256
vt 0.343750 0.232558
vt 0.312500 0.223256
vt 0.296875 0.223256
vt 0.281250 0.232558
vt 0.246094 0.213953
vt 0.261719 0.213953
vt 0.332031 0.213953
vt 0.343750 0.213953
vt 0.312500 0.209302
vt 0.296875 0.213953
vt 0.281250 0.213953
vt 0.246094 0.311628
vt 0.246094 0.293023
vt 0.261719 0.293023
vt 0.261719 0.311628
vt 0.332031 0.311628
vt 0.332031 0.288372
vt 0.343750 0.293023
vt 0.343750 0.311628
vt 0.312500 0.306977
vt 0.312500 0.288372
vt 0.296875 0.311628
vt 0.296875 0.293023
vt 0.281250 0.311628
vt 0.281250 0.288372
vt 0.246094 0.274419
vt 0.261719 0.274419
vt 0.332031 0.274419
vt 0.343750 0.274419
vt 0.312500 0.274419
vt 0.296875 0.269767
vt 0.281250 0.274419
vt 0.246094 0.306977
vt 0.246094 0.283721
vt 0.261719 0.306977
vt 0.332031 0.306977
vt 0.343750 0.279070
vt 0.343750 0.306977
vt 0.281250 0.306977
vt 0.246094 0.265116
vt 0.261719 0.255814
vt 0.261719 0.288372
vt 0.332031 0.255814
vt 0.343750 0.255814
vt 0.343750 0.288372
vt 0.312500 0.255814
vt 0.296875 0.288372
vt 0.296875 0.255814
vt 0.281250 0.255814
vt 0.246094 0.269767
vt 0.261719 0.269767
vt 0.261719 0.297674
vt 0.332031 0.297674
vt 0.332031 0.269767
vt 0.343750 0.269767
vt 0.343750 0.297674
vt 0.312500 0.297674
vt 0.312500 0.265116
vt 0.296875 0.297674
vt 0.296875 0.265116
vt 0.281250 0.297674
vt 0.281250 0.265116
vt 0.246094 0.255814
vt 0.261719 0.283721
vt 0.332031 0.283721
vt 0.332031 0.246512
vt 0.343750 0.246512
vt 0.343750 0.283721
vt 0.312500 0.246512
vt 0.296875 0.246512
vt 0.281250 0.246512
vt 0.246094 0.297674
vt 0.261719 0.265116
vt 0.343750 0.260465
vt 0.242188 0.302326
vt 0.242188 0.269767
vt 0.257812 0.269767
vt 0.257812 0.302326
vt 0.328125 0.297674
vt 0.328125 0.269767
vt 0.339844 0.260465
vt 0.339844 0.297674
vt 0.308594 0.302326
vt 0.308594 0.269767
vt 0.292969 0.302326
vt 0.292969 0.269767
vt 0.277344 0.302326
vt 0.277344 0.274419
vt 0.242188 0.274419
vt 0.312500 0.311628
vt 0.296875 0.274419
vt 0.242188 0.297674
vt 0.242188 0.265116
vt 0.242188 0.241860
vt 0.242188 0.279070
vt 0.242188 0.255814
vt 0.242188 0.260465
vt 0.261719 0.237209
vt 0.332031 0.237209
vt 0.343750 0.237209
vt 0.312500 0.237209
vt 0.296875 0.237209
vt 0.281250 0.237209
vt 0.332031 0.293023
vt 0.312500 0.293023
vt 0.296875 0.251163
vt 0.281250 0.293023
vt 0.242188 0.288372
vt 0.238281 0.237209
vt 0.332031 0.232558
vt 0.312500 0.227907
vt 0.296875 0.227907
vt 0.281250 0.227907
vt 0.238281 0.297674
vt 0.238281 0.251163
vt 0.261719 0.251163
vt 0.332031 0.251163
vt 0.343750 0.251163
vt 0.281250 0.251163
vt 0.238281 0.293023
vt 0.238281 0.246512
vt 0.238281 0.269767
vt 0.238281 0.227907
vt 0.332031 0.227907
vt 0.343750 0.227907
vt 0.312500 0.269767
vt 0.312500 0.232558
vt 0.238281 0.288372
vt 0.238281 0.241860
vt 0.238281 0.218605
vt 0.261719 0.218605
vt 0.332031 0.218605
vt 0.343750 0.218605
vt 0.312500 0.218605
vt 0.296875 0.218605
vt 0.281250 0.218605
vt 0.238281 0.260465
vt 0.312500 0.251163
vt 0.296875 0.232558
vt 0.234375 0.218605
vt 0.234375 0.209302
vt 0.261719 0.209302
vt 0.332031 0.209302
vt 0.343750 0.209302
vt 0.296875 0.209302
vt 0.281250 0.209302
vt 0.234375 0.190698
vt 0.261719 0.190698
vt 0.332031 0.190698
vt 0.343750 0.190698
vt 0.312500 0.190698
vt 0.296875 0.190698
vt 0.281250 0.190698
s 1
f 5/1/3 8/2/6 4/3/2 3/4/2
f 1/5/1 2/6/1 7/7/5 6/8/4
f 6/8/4 7/7/5 8/2/6 5/1/3
f 13/1/9 16/2/12 12/3/8 11/4/8
f 9/5/7 10/6/7 15/7/11 14/8/10
f 14/8/10 15/7/11 16/2/12 13/1/9
f 17/9/13 23/10/19 28/11/24 22/12/18
f 18/13/14 24/14/20 23/15/19 17/16/13
f 19/17/15 25/18/21 24/14/20 18/13/14
f 20/19/16 26/20/22 25/18/21 19/17/15
f 21/21/17 27/22/23 26/20/22 20/19/16
f 22/12/18 28/11/24 27/22/23 21/21/17
f 23/10/19 29/23/25 34/24/30 28/11/24
f 24/14/20 30/25/26 29/8/25 23/15/19
f 25/18/21 31/26/27 30/25/26 24/14/20
f 26/20/22 32/27/28 31/26/27 25/18/21
f 27/22/23 33/28/29 32/27/28 26/20/22
f 28/11/24 34/24/30 33/28/29 27/22/23
f 29/23/25 35/29/31 40/30/36 34/24/30
f 30/25/26 36/31/32 35/32/31 29/8/25
f 31/26/27 37/33/33 36/31/32 30/25/26
f 32/27/28 38/34/34 37/33/33 31/26/27
f 33/28/29 39/35/35 38/34/34 32/27/28
f 34/24/30 40/30/36 39/35/35 33/28/29
f 35/29/31 41/36/37 46/37/42 40/30/36
f 36/31/32 42/38/38 41/39/37 35/32/31
f 37/33/33 43/40/39 42/38/38 36/31/32
f 38/34/34 44/41/40 43/40/39 37/33/33
f 39/35/35 45/42/41 44/41/40 38/34/34
f 40/30/36 46/37/42 45/42/41 39/35/35
f 41/36/37 47/43/43 52/44/48 46/37/42
f 42/38/38 48/45/44 47/46/43 41/39/37
f 43/40/39 49/47/45 48/45/44 42/38/38
f 44/41/40 50/48/46 49/47/45 43/40/39
f 45/42/41 51/49/47 50/48/46 44/41/40
f 46/37/42 52/44/48 51/49/47 45/42/41
f 47/43/43 53/50/49 58/51/54 52/44/48
f 48/45/44 54/52/50 53/53/49 47/46/43
f 49/47/45 55/54/51 54/52/50 48/45/44
f 50/48/46 56/55/52 55/54/51 49/47/45
f 51/49/47 57/56/53 56/55/52 50/48/46
f 52/44/48 58/51/54 57/56/53 51/49/47
f 53/57/49 59/58/55 64/59/60 58/60/54
f 54/61/50 60/62/56 59/63/55 53/64/49
f 55/65/51 61/66/57 60/62/56 54/61/50
f 56/67/52 62/68/58 61/66/57 55/65/51
f 57/69/53 63/70/59 62/68/58 56/67/52
f 58/60/54 64/59/60 63/70/59 57/69/53
f 59/58/55 65/71/61 70/72/66 64/59/60
f 60/62/56 66/73/62 65/74/61 59/63/55
f 61/66/57 67/75/63 66/73/62 60/62/56
f 62/68/58 68/76/64 67/75/63 61/66/57
f 63/70/59 69/77/65 68/76/64 62/68/58
f 64/59/60 70/72/66 69/77/65 63/70/59
f 65/78/61 71/79/67 76/24/72 70/80/66
f 66/81/62 72/25/68 71/82/67 65/83/61
f 67/65/63 73/26/69 72/25/68 66/81/62
f 68/20/64 74/27/70 73/26/69 67/65/63
f 69/84/65 75/28/71 74/27/70 68/20/64
f 70/80/66 76/24/72 75/28/71 69/84/65
f 71/58/67 77/85/73 82/86/78 76/87/72
f 72/62/68 78/88/74 77/89/73 71/90/67
f 73/66/69 79/91/75 78/88/74 72/62/68
f 74/92/70 80/93/76 79/91/75 73/66/69
f 75/70/71 81/94/77 80/93/76 74/92/70
f 76/87/72 82/86/78 81/94/77 75/70/71
f 77/78/73 83/95/79 88/96/84 82/97/78
f 78/98/74 84/99/80 83/100/79 77/101/73
f 79/102/75 85/103/81 84/99/80 78/98/74
f 80/104/76 86/105/82 85/103/81 79/102/75
f 81/106/77 87/107/83 86/105/82 80/104/76
f 82/97/78 88/96/84 87/107/83 81/106/77
f 83/79/79 89/108/85 94/86/90 88/109/84
f 84/110/80 90/111/86 89/112/85 83/113/79
f 85/26/81 91/114/87 90/111/86 84/110/80
f 86/27/82 92/115/88 91/114/87 85/26/81
f 87/28/83 93/116/89 92/115/88 86/27/82
f 88/109/84 94/86/90 93/116/89 87/28/83
f 89/117/85 95/85/91 100/118/96 94/97/90
f 90/62/86 96/31/92 95/119/91 89/90/85
f 91/66/87 97/103/93 96/31/92 90/62/86
f 92/92/88 98/105/94 97/103/93 91/66/87
f 93/70/89 99/107/95 98/105/94 92/92/88
f 94/97/90 100/118/96 99/107/95 93/70/89
f 95/120/91 101/121/97 106/122/102 100/123/96
f 96/124/92 102/125/98 101/126/97 95/127/91
f 97/128/93 103/129/99 102/125/98 96/124/92
f 98/130/94 104/131/100 103/129/99 97/128/93
f 99/132/95 105/133/101 104/131/100 98/130/94
f 100/123/96 106/122/102 105/133/101 99/132/95
f 101/117/97 107/108/103 112/30/108 106/97/102
f 102/98/98 108/88/104 107/89/103 101/90/97
f 103/102/99 109/33/105 108/88/104 102/98/98
f 104/104/100 110/34/106 109/33/105 103/102/99
f 105/22/101 111/35/107 110/34/106 104/104/100
f 106/97/102 112/30/108 111/35/107 105/22/101
f 107/78/103 113/134/109 118/72/114 112/60/108
f 108/81/104 114/73/110 113/74/109 107/83/103
f 109/135/105 115/75/111 114/73/110 108/81/104
f 110/67/106 116/136/112 115/75/111 109/135/105
f 111/69/107 117/77/113 116/136/112 110/67/106
f 112/60/108 118/72/114 117/77/113 111/69/107
f 113/137/109 119/134/115 124/72/120 118/97/114
f 114/98/110 120/99/116 119/100/115 113/101/109
f 115/102/111 121/75/117 120/99/116 114/98/110
f 116/104/112 122/136/118 121/75/117 115/102/111
f 117/106/113 123/77/119 122/136/118 116/104/112
f 118/97/114 124/72/120 123/77/119 117/106/113
f 119/138/115 125/139/121 130/37/126 124/118/120
f 120/31/116 126/38/122 125/39/121 119/119/115
f 121/103/117 127/40/123 126/38/122 120/31/116
f 122/105/118 128/41/124 127/40/123 121/103/117
f 123/107/119 129/42/125 128/41/124 122/105/118
f 124/118/120 130/37/126 129/42/125 123/107/119
f 125/140/121 131/141/127 136/86/132 130/24/126
f 126/25/122 132/88/128 131/89/127 125/82/121
f 127/26/123 133/91/129 132/88/128 126/25/122
f 128/27/124 134/93/130 133/91/129 127/26/123
f 129/28/125 135/94/131 134/93/130 128/27/124
f 130/24/126 136/86/132 135/94/131 129/28/125
f 131/142/127 137/139/133 142/143/138 136/30/132
f 132/31/128 138/144/134 137/145/133 131/119/127
f 133/33/129 139/146/135 138/144/134 132/31/128
f 134/34/130 140/147/136 139/146/135 133/33/129
f 135/35/131 141/148/137 140/147/136 134/34/130
f 136/30/132 142/143/138 141/148/137 135/35/131
f 137/137/133 143/138/139 148/86/144 142/59/138
f 138/149/134 144/88/140 143/89/139 137/63/133
f 139/150/135 145/91/141 144/88/140 138/149/134
f 140/68/136 146/151/142 145/91/141 139/150/135
f 141/152/137 147/94/143 146/151/142 140/68/136
f 142/59/138 148/86/144 147/94/143 141/152/137
f 143/153/139 149/154/145 154/44/150 148/24/144
f 144/25/140 150/155/146 149/46/145 143/82/139
f 145/26/141 151/156/147 150/155/146 144/25/140
f 146/136/142 152/157/148 151/156/147 145/26/141
f 147/28/143 153/158/149 152/157/148 146/136/142
f 148/24/144 154/44/150 153/158/149 147/28/143
f 149/159/145 155/160/151 160/161/156 154/59/150
f 150/149/146 156/162/152 155/163/151 149/63/145
f 151/66/147 157/114/153 156/162/152 150/149/146
f 152/92/148 158/115/154 157/114/153 151/66/147
f 153/70/149 159/164/155 158/115/154 152/92/148
f 154/59/150 160/161/156 159/164/155 153/70/149
f 155/165/151 161/166/157 166/161/162 160/59/156
f 156/149/152 162/111/158 161/112/157 155/63/151
f 157/66/153 163/114/159 162/111/158 156/149/152
f 158/92/154 164/151/160 163/114/159 157/66/153
f 159/152/155 165/164/161 164/151/160 158/92/154
f 160/59/156 166/161/162 165/164/161 159/152/155
f 161/167/157 167/168/163 172/44/168 166/72/162
f 162/99/158 168/169/164 167/170/163 161/100/157
f 163/171/159 169/172/165 168/169/164 162/99/158
f 164/136/160 170/41/166 169/172/165 163/171/159
f 165/77/161 171/42/167 170/41/166 164/136/160
f 166/72/162 172/44/168 171/42/167 165/77/161
f 167/173/163 173/174/169 178/37/174 172/59/168
f 168/62/164 174/38/170 173/39/169 167/90/163
f 169/150/165 175/114/171 174/38/170 168/62/164
f 170/20/166 176/115/172 175/114/171 169/150/165
f 171/22/167 177/116/173 176/115/172 170/20/166
f 172/59/168 178/37/174 177/116/173 171/22/167
f 173/159/169 179/160/175 184/86/180 178/97/174
f 174/98/170 180/88/176 179/163/175 173/101/169
f 175/18/171 181/91/177 180/88/176 174/98/170
f 176/20/172 182/93/178 181/91/177 175/18/171
f 177/22/173 183/94/179 182/93/178 176/20/172
f 178/97/174 184/86/180 183/94/179 177/22/173
f 179/160/175 185/175/181 190/176/186 184/86/180
f 180/88/176 186/177/182 185/178/181 179/163/175
f 181/91/177 187/179/183 186/177/182 180/88/176
f 182/93/178 188/180/184 187/179/183 181/91/177
f 183/94/179 189/181/185 188/180/184 182/93/178
f 184/86/180 190/176/186 189/181/185 183/94/179
f 185/182/181 191/174/187 196/37/192 190/30/186
f 186/31/182 192/38/188 191/39/187 185/119/181
f 187/33/183 193/183/189 192/38/188 186/31/182
f 188/34/184 194/41/190 193/183/189 187/33/183
f 189/35/185 195/164/191 194/41/190 188/34/184
f 190/30/186 196/37/192 195/164/191 189/35/185
f 191/174/187 197/154/193 202/143/198 196/37/192
f 192/38/188 198/144/194 197/145/193 191/39/187
f 193/183/189 199/146/195 198/144/194 192/38/188
f 194/41/190 200/184/196 199/146/195 193/183/189
f 195/164/191 201/148/197 200/184/196 194/41/190
f 196/37/192 202/143/198 201/148/197 195/164/191
f 197/154/193 203/185/199 208/176/204 202/143/198
f 198/144/194 204/177/200 203/178/199 197/145/193
f 199/146/195 205/179/201 204/177/200 198/144/194
f 200/184/196 206/180/202 205/179/201 199/146/195
f 201/148/197 207/181/203 206/180/202 200/184/196
f 202/143/198 208/176/204 207/181/203 201/148/197
f 203/185/199 209/186/205 214/187/210 208/176/204
f 204/177/200 210/188/206 209/189/205 203/178/199
f 205/179/201 211/54/207 210/188/206 204/177/200
f 206/180/202 212/190/208 211/54/207 205/179/201
f 207/181/203 213/191/209 212/190/208 206/180/202
f 208/176/204 214/187/210 213/191/209 207/181/203
f 209/186/205 215/192/211 220/193/216 214/187/210
f 210/188/206 216/194/212 215/195/211 209/189/205
f 211/54/207 217/196/213 216/194/212 210/188/206
f 212/190/208 218/197/214 217/196/213 211/54/207
f 213/191/209 219/198/215 218/197/214 212/190/208
f 214/187/210 220/193/216 219/198/215 213/191/209
f 225/1/219 228/2/222 224/3/218 223/4/218
f 221/5/217 222/6/217 227/7/221 226/8/220
f 226/8/220 227/7/221 228/2/222 225/1/219
f 233/1/225 236/2/228 232/3/224 231/4/224
f 229/5/223 230/6/223 235/7/227 234/8/226
f 234/8/226 235/7/227 236/2/228 233/1/225
f 241/1/231 244/2/234 240/3/230 239/4/230
f 237/5/229 238/6/229 243/7/233 242/8/232
f 242/8/232 243/7/233 244/2/234 241/1/231
f 249/1/237 252/2/240 248/3/236 247/4/236
f 245/5/235 246/6/235 251/7/239 250/8/238
f 250/8/238 251/7/239 252/2/240 249/1/237
f 257/1/243 260/2/246 256/3/242 255/4/242
f 253/5/241 254/6/241 259/7/245 258/8/244
f 258/8/244 259/7/245 260/2/246 257/1/243
f 265/1/249 268/2/252 264/3/248 263/4/248
f 261/5/247 262/6/247 267/7/251 266/8/250
f 266/8/250 267/7/251 268/2/252 265/1/249
f 273/1/255 276/2/258 272/3/254 271/4/254
f 269/5/253 270/6/253 275/7/257 274/8/256
f 274/8/256 275/7/257 276/2/258 273/1/255
f 281/1/261 284/2/264 280/3/260 279/4/260
f 277/5/259 278/6/259 283/7/263 282/8/262
f 282/8/262 283/7/263 284/2/264 281/1/261
f 289/1/243 292/2/246 288/3/242 287/4/242
f 285/5/241 286/6/241 291/7/245 290/8/244
f 290/8/244 291/7/245 292/2/246 289/1/243
f 297/1/249 300/2/252 296/3/248 295/4/248
f 293/5/247 294/6/247 299/7/251 298/8/250
f 298/8/250 299/7/251 300/2/252 297/1/249
f 305/1/267 308/2/270 304/3/266 303/4/266
f 301/5/265 302/6/265 307/7/269 306/8/268
f 306/8/268 307/7/269 308/2/270 305/1/267
f 313/1/273 316/2/276 312/3/272 311/4/272
f 309/5/271 310/6/271 315/7/275 314/8/274
f 314/8/274 315/7/275 316/2/276 313/1/273
f 321/1/279 324/2/282 320/3/278 319/4/278
f 317/5/277 318/6/277 323/7/281 322/8/280
f 322/8/280 323/7/281 324/2/282 321/1/279
f 329/1/285 332/2/288 328/3/284 327/4/284
f 325/5/283 326/6/283 331/7/287 330/8/286
f 330/8/286 331/7/287 332/2/288 329/1/285
f 337/1/291 340/2/294 336/3/290 335/4/290
f 333/5/289 334/6/289 339/7/293 338/8/292
f 338/8/292 339/7/293 340/2/294 337/1/291
f 345/1/297 348/2/300 344/3/296 343/4/296
f 341/5/295 342/6/295 347/7/299 346/8/298
f 346/8/298 347/7/299 348/2/300 345/1/297
f 353/1/303 356/2/306 352/3/302 351/4/302
f 349/5/301 350/6/301 355/7/305 354/8/304
f 354/8/304 355/7/305 356/2/306 353/1/303
f 361/1/309 364/2/312 360/3/308 359/4/308
f 357/5/307 358/6/307 363/7/311 362/8/310
f 362/8/310 363/7/311 364/2/312 361/1/309
f 369/1/315 372/2/318 368/3/314 367/4/314
f 365/5/313 366/6/313 371/7/317 370/8/316
f 370/8/316 371/7/317 372/2/318 369/1/315
f 377/1/321 380/2/324 376/3/320 375/4/320
f 373/5/319 374/6/319 379/7/323 378/8/322
f 378/8/322 379/7/323 380/2/324 377/1/321
f 385/1/327 388/2/330 384/3/326 383/4/326
f 381/5/325 382/6/325 387/7/329 386/8/328
f 386/8/328 387/7/329 388/2/330 385/1/327
f 393/1/333 396/2/336 392/3/332 391/4/332
f 389/5/331 390/6/331 395/7/335 394/8/334
f 394/8/334 395/7/335 396/2/336 393/1/333
