# Blender 4.2.1 LTS
# www.blender.org
o Relvas
v 0.357191 -1.500324 0.434089
v 0.477388 -1.500324 0.207174
v 0.357191 1.833310 0.434089
v 0.477388 1.833310 0.207174
v 0.639428 -1.500325 -0.041060
v 0.759625 -1.500325 -0.267975
v 0.639428 1.833309 -0.041060
v 0.759625 1.833309 -0.267975
v 0.522835 -1.500324 0.247525
v 0.311744 -1.500324 0.393738
v 0.522835 1.833310 0.247525
v 0.311744 1.833310 0.393738
v 0.805072 -1.500325 -0.227624
v 0.593981 -1.500325 -0.081410
v 0.805072 1.833309 -0.227624
v 0.593981 1.833309 -0.081410
v -0.050264 -1.011040 0.107712
v 0.206520 -1.011040 0.107712
v -0.050264 1.214791 0.107712
v 0.206520 1.214791 0.107712
v 0.501728 -1.011040 0.134709
v 0.758511 -1.011040 0.134709
v 0.501728 1.214791 0.134709
v 0.758511 1.214791 0.134709
v 0.192136 -1.011040 0.166760
v -0.035880 -1.011040 0.048664
v 0.192136 1.214791 0.166760
v -0.035880 1.214791 0.048664
v 0.744127 -1.011040 0.193757
v 0.516112 -1.011040 0.075661
v 0.744127 1.214791 0.193757
v 0.516112 1.214791 0.075660
v 0.306962 -0.998933 0.691200
v 0.114634 -0.998933 0.521060
v 0.275468 1.981980 0.629185
v 0.083140 1.981980 0.459045
v -0.088587 -0.998933 0.305240
v -0.280915 -0.998933 0.135100
v -0.088587 1.226898 0.305240
v -0.280915 1.226898 0.135100
v 0.164531 -0.998933 0.486364
v 0.257064 -0.998933 0.725896
v 0.133038 1.981980 0.424349
v 0.225570 1.981980 0.663881
v -0.231017 -0.998933 0.100404
v -0.138485 -0.998933 0.339936
v -0.262511 1.981979 0.038389
v -0.169978 1.981979 0.277921
v 0.163644 -0.388893 0.357254
v 0.061890 -0.388893 0.593016
v 0.163644 1.836938 0.357254
v 0.061890 1.836938 0.593016
v -0.079878 -0.388894 0.853360
v -0.181633 -0.388894 1.089122
v -0.079878 1.836937 0.853360
v -0.181633 1.836937 1.089122
v 0.013375 -0.388893 0.556411
v 0.212159 -0.388893 0.393860
v 0.013375 1.836938 0.556411
v 0.212159 1.836938 0.393860
v -0.230147 -0.388894 1.052516
v -0.031364 -0.388894 0.889965
v -0.230147 1.836937 1.052516
v -0.031364 1.836937 0.889965
v 0.459151 -0.095876 -0.227548
v 0.357396 -0.095876 0.008214
v 0.459151 2.129955 -0.227548
v 0.357396 2.129955 0.008214
v 0.215628 -0.095877 0.268557
v 0.113874 -0.095877 0.504320
v 0.215628 2.129954 0.268557
v 0.113874 2.129954 0.504320
v 0.308882 -0.095876 -0.028391
v 0.507665 -0.095876 -0.190943
v 0.308882 2.129955 -0.028391
v 0.507665 2.129955 -0.190943
v 0.065359 -0.095877 0.467714
v 0.264143 -0.095877 0.305163
v 0.065359 2.129954 0.467714
v 0.264143 2.129954 0.305163
vn 0.8837 -0.0000 0.4681
vn -0.5694 -0.0000 -0.8221
vn -0.0000 -0.0000 1.0000
vn 0.4599 -0.0000 -0.8880
vn 0.6626 -0.0086 -0.7490
vn 0.6626 -0.0000 -0.7490
vn -0.9328 -0.0024 0.3604
vn -0.9181 -0.0000 -0.3963
vn 0.6330 -0.0000 0.7741
vt 0.031250 0.520930
vt 0.054688 0.520930
vt 0.054688 0.739535
vt 0.031250 0.739535
vt 0.000000 0.520930
vt 0.000000 0.739535
s 0
f 1/1/1 2/2/1 4/3/1 3/4/1
f 5/5/1 6/1/1 8/4/1 7/6/1
f 9/1/2 10/2/2 12/3/2 11/4/2
f 13/5/2 14/1/2 16/4/2 15/6/2
f 17/1/3 18/2/3 20/3/3 19/4/3
f 21/5/3 22/1/3 24/4/3 23/6/3
f 25/1/4 26/2/4 28/3/4 27/4/4
f 29/5/4 30/1/4 32/4/4 31/6/4
f 33/1/5 34/2/5 36/3/5 35/4/5
f 37/5/6 38/1/6 40/4/6 39/6/6
f 41/1/7 42/2/7 44/3/7 43/4/7
f 45/5/7 46/1/7 48/4/7 47/6/7
f 49/1/8 50/2/8 52/3/8 51/4/8
f 53/5/8 54/1/8 56/4/8 55/6/8
f 57/1/9 58/2/9 60/3/9 59/4/9
f 61/5/9 62/1/9 64/4/9 63/6/9
f 65/1/8 66/2/8 68/3/8 67/4/8
f 69/5/8 70/1/8 72/4/8 71/6/8
f 73/1/9 74/2/9 76/3/9 75/4/9
f 77/5/9 78/1/9 80/4/9 79/6/9
