# Blender 4.2.3 LTS
# www.blender.org
o Cube
v 0.586080 -0.313470 1.468999
v 1.315068 -0.292072 1.215644
v 1.936660 2.887419 0.148781
v -0.428261 2.170911 1.697616
v -1.243266 -0.016620 1.480112
v -1.077367 2.063308 1.213847
v -1.844788 0.889007 0.189779
v -0.399256 2.607815 -1.964838
v -1.555742 0.429048 -0.529684
v -1.946522 1.547650 -0.951432
v 1.203062 2.580142 -1.906392
v 0.613100 1.046068 -2.495468
v 1.681385 -0.024373 0.383857
v 1.898250 0.051939 0.000854
v -0.055540 2.864572 1.416098
v -1.378516 -0.340254 0.986054
v -1.550522 2.863105 0.816100
v -1.734966 2.872717 0.291063
v -1.069733 2.878167 -2.136973
v -1.622542 -0.325094 -1.585563
v -1.643817 2.867456 -1.537226
v 1.290932 -0.275555 -2.065626
v 1.082181 2.877911 -2.127271
v 1.773365 -0.299976 0.725298
v 1.725857 2.845955 0.689374
v 0.056884 -0.273663 -2.229995
v 1.911157 -0.292332 -0.970605
v 1.899102 -0.291704 0.144056
v 0.036514 -0.280083 1.426513
v -1.746728 2.837621 -0.316912
v 1.961856 2.841403 -0.434832
v 1.932273 2.885370 -0.813960
v -0.309466 2.864773 -2.261089
v 0.560458 2.845768 -2.251181
v 1.517618 2.845382 0.961676
v 1.832944 2.856640 -1.211723
v -1.100008 -0.281893 1.243660
v -1.099692 -0.273292 -2.049658
v -1.748608 -0.300496 -0.937157
v 1.990783 0.474349 0.189966
v 1.895081 0.534534 0.861163
v 1.873879 0.874101 0.062324
v 1.822981 1.072933 0.422000
v 1.838036 0.927091 0.822604
v 1.826560 1.480961 -0.056568
v 1.925062 1.574827 0.518974
v 1.986334 1.531646 0.940905
v 1.828485 1.995470 0.405601
v 1.618430 2.098587 0.656147
v 2.216170 2.582706 0.134406
v 1.579340 2.558790 0.712772
v 1.536637 0.549161 1.084724
v 1.396964 0.996018 1.508448
v 1.286384 1.555068 1.264934
v 1.550980 2.027620 1.003486
v 1.344680 2.053845 1.443078
v 1.373617 2.575230 1.403849
v 0.812120 0.209641 1.288976
v 0.625777 -0.046269 1.547356
v 1.169413 -0.005220 1.166136
v 1.240116 0.361901 1.265730
v 0.641277 0.508626 1.156349
v 0.422514 0.939591 1.268275
v 0.953007 0.996410 1.373525
v 0.922085 1.538540 1.247847
v 0.543300 1.534396 1.209322
v 0.704481 2.060574 1.554486
v 0.979147 2.648335 1.336046
v 0.553445 2.584941 1.331899
v 1.434880 -0.023211 -2.351150
v 1.109477 -0.011817 -2.357073
v 0.715570 0.135651 -2.343024
v 0.623225 0.616693 -2.460258
v 1.077555 0.804660 -2.340143
v 1.342001 0.490841 -2.244561
v 1.386481 0.875286 -2.299844
v 0.662781 1.544347 -2.450046
v 1.350772 1.454596 -2.310416
v 1.035323 1.968127 -2.183506
v 1.078449 2.423287 -2.055744
v 1.349477 2.047482 -2.218020
v 1.507532 0.012405 -1.426085
v 1.478078 -0.145833 -1.830562
v 1.607996 0.504315 -1.443469
v 1.539576 1.449057 -1.753188
v 1.571401 2.069412 -1.807205
v 1.529135 2.297162 -1.894229
v 1.965199 2.603795 -1.711958
v 2.146563 -0.012129 -0.934242
v 1.888812 -0.135737 -1.133105
v 1.949536 0.575240 -1.177353
v 2.132000 0.545179 -0.918809
v 1.864075 1.364703 -0.901500
v 1.633984 1.539634 -1.153490
v 1.905261 2.352447 -1.389324
v 2.107040 2.028498 -0.949177
v 2.025893 2.322080 -1.024975
v -1.709818 -0.011035 -1.666515
v -1.511801 -0.008126 -0.888820
v -1.520289 0.608322 -1.580991
v -1.570804 0.995917 -0.955295
v -1.321792 1.015052 -1.410573
v -1.587008 1.541082 -1.608420
v -1.961818 2.058482 -0.991546
v -1.506276 2.030440 -1.468540
v -1.529453 2.578778 -0.961150
v -1.544458 2.560322 -1.602905
v -1.167166 0.552173 -2.181259
v -1.043647 1.021006 -1.992094
v -1.218057 1.543021 -2.267437
v -1.022999 2.076124 -1.860107
v -1.071934 2.624694 -2.081135
v -0.747997 -0.004330 -2.051266
v -0.955260 0.451807 -2.176850
v -0.505855 0.455782 -2.121068
v -0.500843 0.976597 -2.161063
v -0.881863 1.469327 -2.181611
v -0.402087 1.443806 -2.028159
v -0.818299 2.566599 -2.023462
v -1.487658 2.273882 0.700566
v -1.904810 2.595449 0.138900
v -1.511832 2.055388 0.489521
v -1.444940 2.020176 0.785516
v -1.919876 1.578935 0.567047
v -1.776336 1.514502 0.876230
v -1.868240 1.062318 0.232702
v -1.775558 1.032134 0.915922
v -1.472966 0.493329 0.759896
v -1.643058 -0.027015 0.689234
v -1.154054 1.868825 1.315786
v -1.251898 1.564808 1.512751
v -1.458146 0.925756 1.001568
v -1.080720 1.004888 1.183730
v -1.308181 0.664643 1.152084
v -1.176300 0.490955 1.408500
v -1.402423 -0.052147 1.105685
v -0.500840 2.554937 1.736708
v -0.838840 2.686978 1.374671
v -0.784798 1.917394 1.403514
v -0.571309 1.704038 1.357954
v -0.928609 1.539270 1.406705
v -0.378032 1.551225 1.209530
v -0.692086 1.046912 1.181416
v -0.444827 0.513435 1.621707
v -0.513078 0.303810 1.515011
v -0.502202 -0.026081 1.369930
v 0.589317 2.059762 -1.977944
v -0.414608 2.056903 -2.227364
v -1.640866 2.048611 0.161075
v -2.073104 1.541415 0.123253
v -1.718948 -0.092774 -0.401476
v -1.976879 -0.025297 0.161330
v 1.743415 1.534499 -0.681997
v 1.907682 1.101310 -0.195156
v 2.165542 1.014028 -0.962138
v 2.034981 0.495950 -0.240054
v -0.097600 2.059015 1.653956
v 0.230767 1.543248 1.212394
v 0.223556 0.535966 1.320698
v -0.098141 0.197872 1.471346
v -0.448589 2.846101 1.426021
v -1.066031 2.857065 1.261269
v -1.545596 2.607641 0.747850
v -1.783265 -0.293359 0.098433
v -1.756819 2.855643 -0.912723
v 0.560002 -0.320931 -2.294011
v 1.755850 -0.324824 -1.614161
v 1.747350 2.890025 -1.614062
v 1.973534 2.625652 -1.101644
v -1.570497 -0.276204 0.728773
v 0.090459 2.718289 -2.206031
v 2.017343 -0.083760 -0.537642
v 0.891559 2.684097 -2.201117
v 0.876305 -0.302336 1.350836
v 1.895125 2.737046 0.377062
v 0.558107 2.881800 1.450526
v 1.234015 2.837867 1.249065
v -0.416413 -0.332547 1.419058
v 1.576710 -0.098010 0.728608
v 1.363908 -0.014872 0.815062
v 0.830068 -0.155097 -2.266514
v 1.488463 2.836327 -1.833013
v -1.684842 -0.220495 -1.337798
v -1.377678 -0.150389 -1.800359
v 0.107656 2.719827 1.439823
v -0.477391 -0.292255 -2.249006
v -1.707758 2.735847 -0.526149
v -0.780095 -0.103537 1.377034
v 1.942998 1.896947 0.166297
v 2.102511 2.226379 0.123041
v 1.674819 1.160264 1.110570
v 1.517649 1.721460 1.131266
v 0.928173 2.298195 -2.124852
v 0.616374 2.557720 -2.446726
v 1.446776 0.324135 -1.838864
v 1.511444 1.004992 -1.959393
v 1.833367 1.026760 -1.437825
v 1.669929 1.833742 -1.452337
v -1.488564 0.629761 -1.255569
v -1.664662 1.799494 -1.387473
v -1.587017 2.296488 -1.292336
v -1.369909 0.176942 -1.874000
v -1.392182 0.455584 -1.862414
v -0.764371 0.776034 -2.119121
v -0.718826 1.204248 -2.090647
v -0.724700 1.787417 -2.127471
v -0.657661 2.191124 -2.039215
v -1.634185 0.513849 0.100371
v -1.487869 1.291558 1.094519
v -1.023880 0.167920 1.459210
v 0.159285 2.379004 -2.194328
v 0.265143 1.827409 -2.142450
v -0.005466 1.547249 -2.161573
v 0.083348 0.447078 -2.232879
v -1.745460 2.357522 -0.546327
v -1.855945 1.909093 -0.397373
v -1.987472 1.544461 -0.425137
v -1.733366 1.031685 -0.397092
v -0.082282 0.818895 1.296360
v 0.506068 2.920811 1.223958
v -0.400803 2.888773 1.193193
v 0.483143 2.947830 0.848462
v -0.617935 2.905455 0.742252
v 0.614174 2.998483 0.239812
v -0.584116 2.930420 0.146799
v 0.703341 2.963220 -0.434190
v -0.483889 2.896415 -0.513097
v 0.751872 3.006700 -0.962333
v -0.402892 2.930712 -1.085541
v 0.821671 2.989209 -1.495324
v -0.230586 2.924947 -1.657336
v 1.028849 2.978067 -1.976428
v 0.199171 2.913642 -2.157864
vn 0.0402 -0.8167 0.5757
vn 0.5432 0.4743 0.6928
vn 0.4831 0.8620 0.1532
vn -0.1266 -0.2234 0.9665
vn -0.4988 -0.2628 0.8259
vn -0.6102 0.2399 0.7551
vn -0.9272 -0.3746 -0.0023
vn -0.0915 -0.2649 -0.9599
vn -0.9765 0.0158 -0.2150
vn -0.9397 -0.2272 -0.2555
vn 0.4727 0.0438 -0.8801
vn -0.0259 0.0232 -0.9994
vn 0.9043 -0.0343 0.4255
vn 0.9536 -0.0885 0.2878
vn -0.0250 0.7111 0.7026
vn -0.7209 -0.3159 0.6168
vn -0.6692 0.5688 0.4782
vn -0.6042 0.7729 0.1940
vn -0.3307 0.5208 -0.7870
vn -0.8245 -0.2807 -0.4913
vn -0.8070 0.5188 -0.2823
vn 0.5039 -0.6308 -0.5900
vn 0.4393 0.3590 -0.8235
vn 0.6819 0.6588 0.3178
vn 0.6992 0.5082 0.5029
vn -0.0596 -0.0141 -0.9981
vn 0.8532 -0.4729 -0.2203
vn 0.9215 0.2067 0.3289
vn -0.0694 0.0312 0.9971
vn -0.6694 0.7327 -0.1227
vn 0.5562 0.8291 -0.0571
vn 0.6464 0.7620 -0.0391
vn -0.0699 0.2144 -0.9742
vn 0.0586 0.6730 -0.7373
vn 0.6604 0.6596 0.3589
vn 0.5727 0.8113 -0.1173
vn -0.3713 -0.5815 0.7239
vn -0.4247 0.4397 -0.7914
vn -0.8320 0.5470 -0.0927
vn 0.9853 -0.0447 0.1647
vn 0.8298 -0.1684 0.5320
vn 0.9684 0.1940 0.1568
vn 0.9998 -0.0007 -0.0209
vn 0.9382 -0.0678 0.3394
vn 0.9980 -0.0309 -0.0555
vn 0.9972 0.0708 -0.0232
vn 0.9002 0.1369 0.4134
vn 0.8291 0.0971 0.5507
vn 0.8872 0.2307 0.3996
vn 0.9498 0.1451 0.2773
vn 0.8634 -0.0964 0.4952
vn 0.6490 -0.3347 0.6833
vn 0.3400 -0.0138 0.9403
vn 0.2831 0.0351 0.9585
vn 0.8764 0.2375 0.4190
vn 0.5017 -0.0825 0.8611
vn 0.4971 0.2605 0.8276
vn 0.2246 0.3603 0.9054
vn 0.2061 0.1330 0.9694
vn 0.6298 0.0715 0.7735
vn 0.3418 -0.3271 0.8810
vn 0.0975 0.1195 0.9880
vn -0.0193 0.0201 0.9996
vn -0.2475 -0.0348 0.9683
vn -0.0797 -0.1142 0.9902
vn -0.0291 -0.2433 0.9695
vn 0.1267 -0.0549 0.9904
vn 0.0598 0.1082 0.9923
vn 0.1198 0.0159 0.9927
vn 0.6194 -0.2555 -0.7424
vn 0.0405 -0.3213 -0.9461
vn -0.0568 -0.1281 -0.9901
vn -0.0341 -0.1570 -0.9870
vn 0.2221 -0.0527 -0.9736
vn 0.7171 0.0077 -0.6969
vn 0.6449 -0.0827 -0.7597
vn -0.0717 0.2941 -0.9531
vn 0.6043 0.0891 -0.7918
vn -0.1256 0.2842 -0.9505
vn 0.4876 0.2624 -0.8327
vn 0.4376 0.2537 -0.8626
vn 0.8343 0.2063 -0.5113
vn 0.9120 0.1544 -0.3800
vn 0.7926 -0.2059 -0.5739
vn 0.9434 0.0737 -0.3233
vn 0.8617 -0.1648 -0.4800
vn 0.5318 0.1115 -0.8395
vn 0.8467 0.1172 -0.5190
vn 0.9354 -0.2732 -0.2245
vn 0.8082 -0.0842 -0.5829
vn 0.7276 -0.1224 -0.6749
vn 0.9779 -0.0544 -0.2019
vn 0.7791 0.6089 -0.1494
vn 0.9514 -0.0031 -0.3079
vn 0.9175 -0.2591 -0.3016
vn 0.9517 -0.2345 -0.1982
vn 0.9691 0.1723 -0.1767
vn -0.9025 -0.0296 -0.4297
vn -0.9392 0.3358 -0.0715
vn -0.8965 0.3817 -0.2250
vn -0.8998 -0.3096 -0.3074
vn -0.9091 -0.0683 -0.4109
vn -0.8557 -0.1998 -0.4773
vn -0.9336 0.2659 -0.2401
vn -0.7144 0.0643 -0.6968
vn -0.9833 -0.0242 -0.1805
vn -0.8689 -0.1820 -0.4604
vn -0.4914 -0.1264 -0.8617
vn -0.5640 -0.0108 -0.8257
vn -0.4435 0.0152 -0.8962
vn -0.5176 0.1610 -0.8403
vn -0.2959 -0.2767 -0.9143
vn -0.3317 0.0735 -0.9405
vn -0.1102 -0.1809 -0.9773
vn -0.1105 0.0013 -0.9939
vn -0.2116 0.0917 -0.9730
vn 0.2015 -0.1662 -0.9653
vn -0.0972 -0.0388 -0.9945
vn -0.0028 -0.3076 -0.9515
vn -0.8899 -0.1133 0.4418
vn -0.9898 0.0238 0.1402
vn -0.9250 0.1906 0.3287
vn -0.8230 0.3243 0.4664
vn -0.9081 0.2791 0.3123
vn -0.7877 0.2440 0.5658
vn -0.9716 -0.2121 0.1054
vn -0.7565 -0.2761 0.5928
vn -0.9100 -0.1024 0.4018
vn -0.8751 0.0827 0.4768
vn -0.4221 0.4951 0.7594
vn -0.2876 0.0559 0.9561
vn -0.5166 -0.2161 0.8285
vn -0.2289 -0.0136 0.9733
vn -0.9083 -0.2576 0.3297
vn -0.5615 0.2326 0.7941
vn -0.8448 -0.1381 0.5169
vn -0.1800 0.2719 0.9453
vn -0.4660 0.1902 0.8641
vn -0.3428 -0.0796 0.9360
vn 0.0807 -0.4640 0.8822
vn 0.1845 -0.1445 0.9722
vn 0.0980 -0.3773 0.9209
vn 0.0249 0.1422 0.9895
vn 0.0429 0.1561 0.9868
vn 0.0123 -0.4226 0.9062
vn 0.0092 -0.1498 0.9887
vn -0.0768 0.0600 -0.9952
vn -0.1743 0.0675 -0.9824
vn -0.9417 -0.1709 0.2898
vn -0.9886 0.1108 0.1018
vn -0.9480 0.1963 -0.2506
vn -0.9956 -0.0154 0.0923
vn 0.9948 0.0557 -0.0850
vn 0.9551 0.2179 0.2006
vn 0.9365 0.2924 -0.1934
vn 0.9857 -0.0340 0.1651
vn 0.1004 -0.2322 0.9675
vn -0.0209 -0.3230 0.9462
vn 0.2561 0.1980 0.9461
vn 0.0897 -0.0838 0.9924
vn -0.0772 0.8552 0.5125
vn -0.4426 0.6269 0.6412
vn -0.7856 -0.1719 0.5944
vn -0.8629 -0.5051 -0.0188
vn -0.9063 0.4114 -0.0971
vn 0.0216 -0.1387 -0.9901
vn 0.7167 0.5553 -0.4219
vn 0.4754 0.8408 -0.2589
vn 0.9587 0.2380 -0.1555
vn -0.8375 -0.2550 0.4833
vn -0.2304 -0.2321 -0.9450
vn 0.9518 -0.2672 0.1506
vn 0.5105 0.1092 -0.8529
vn 0.4756 -0.1369 0.8690
vn 0.7790 0.2642 0.5687
vn 0.1049 0.5184 0.8487
vn 0.2381 0.7890 0.5664
vn -0.0687 0.0857 0.9940
vn 0.5889 0.7017 0.4011
vn 0.7586 0.1045 0.6431
vn 0.1540 -0.3535 -0.9227
vn 0.4136 0.4367 -0.7989
vn -0.9978 0.0649 -0.0130
vn -0.5198 -0.0712 -0.8513
vn 0.1376 0.1557 0.9782
vn -0.2228 0.1560 -0.9623
vn -0.9448 -0.2805 -0.1696
vn -0.0498 -0.2752 0.9601
vn 0.9648 -0.2256 0.1356
vn 0.9119 -0.2804 0.2999
vn 0.7020 -0.0521 0.7102
vn 0.6023 0.0723 0.7950
vn 0.1353 -0.1525 -0.9790
vn 0.1158 -0.0407 -0.9924
vn 0.9752 -0.0358 -0.2183
vn 0.9210 -0.0345 -0.3881
vn 0.8493 0.1120 -0.5158
vn 0.8836 -0.2918 -0.3662
vn -0.9831 0.1740 -0.0571
vn -0.7843 0.2005 -0.5871
vn -0.9084 0.2321 -0.3478
vn -0.4594 -0.1324 -0.8783
vn -0.7417 0.1138 -0.6610
vn -0.0909 0.1429 -0.9855
vn -0.0415 -0.0598 -0.9973
vn -0.0934 0.1578 -0.9831
vn -0.3759 0.1912 -0.9067
vn -0.9992 0.0039 0.0401
vn -0.5656 -0.2893 0.7723
vn -0.0281 -0.0636 0.9976
vn -0.1591 -0.2275 -0.9607
vn -0.0593 0.3817 -0.9224
vn -0.2462 0.1198 -0.9618
vn -0.2140 -0.0698 -0.9743
vn -0.9520 0.3019 -0.0503
vn -0.9294 0.3444 0.1325
vn -0.9912 -0.0435 -0.1254
vn -0.8970 -0.3903 -0.2075
vn 0.1049 0.4222 0.9004
vn 0.0262 0.9929 0.1158
vn -0.0383 0.9926 0.1155
vn 0.0164 0.9973 0.0717
vn -0.0449 0.9976 0.0525
vn 0.0210 0.9996 0.0166
vn -0.0518 0.9986 -0.0094
vn 0.0165 0.9998 0.0095
vn -0.0543 0.9985 -0.0000
vn 0.0224 0.9996 0.0178
vn -0.0547 0.9984 0.0152
vn 0.0226 0.9993 -0.0290
vn -0.0482 0.9983 -0.0329
vn 0.1406 0.9455 -0.2936
vn -0.0238 0.9685 -0.2479
vt 0.089239 0.895275
vt 0.093819 0.891795
vt 0.093457 0.896159
vt 0.052983 0.851155
vt 0.051423 0.854912
vt 0.056338 0.851990
vt 0.056853 0.855239
vt 0.078947 0.891349
vt 0.085819 0.894894
vt 0.080423 0.894447
vt 0.087132 0.891056
vt 0.077613 0.896318
vt 0.069235 0.885271
vt 0.069630 0.896040
vt 0.082707 0.853600
vt 0.086497 0.852732
vt 0.086464 0.848945
vt 0.075104 0.849145
vt 0.063700 0.895753
vt 0.080184 0.891400
vt 0.072024 0.895247
vt 0.078885 0.896042
vt 0.063737 0.855262
vt 0.064557 0.851767
vt 0.071075 0.854382
vt 0.078059 0.851674
vt 0.140624 0.894089
vt 0.144202 0.890324
vt 0.137442 0.891997
vt 0.069128 0.851334
vt 0.062106 0.849429
vt 0.061270 0.853733
vt 0.078372 0.889215
vt 0.072700 0.891263
vt 0.077741 0.892825
vt 0.071383 0.855011
vt 0.064160 0.856831
vt 0.062240 0.852222
vt 0.075089 0.894832
vt 0.070004 0.894242
vt 0.062176 0.894859
vt 0.062369 0.890773
vt 0.052504 0.853398
vt 0.057158 0.851845
vt 0.054310 0.848949
vt 0.059305 0.895585
vt 0.054865 0.891084
vt 0.063099 0.891706
vt 0.057747 0.850892
vt 0.053887 0.848021
vt 0.064124 0.847356
vt 0.064608 0.876820
vt 0.075729 0.877145
vt 0.070147 0.879886
vt 0.059115 0.892843
vt 0.054926 0.894303
vt 0.063034 0.889074
vt 0.090817 0.893590
vt 0.081216 0.886538
vt 0.059024 0.855807
vt 0.012533 0.851066
vt 0.023671 0.871798
vt 0.014612 0.868118
vt 0.048532 0.856064
vt 0.047868 0.852217
vt 0.053240 0.855935
vt 0.129023 0.848176
vt 0.129383 0.846349
vt 0.134076 0.848613
vt 0.045344 0.890673
vt 0.054612 0.890452
vt 0.051274 0.894296
vt 0.051191 0.896068
vt 0.058077 0.894268
vt 0.053902 0.892127
vt 0.020006 0.859404
vt 0.002186 0.888026
vt 0.034142 0.887444
vt 0.059788 0.889924
vt 0.085821 0.851778
vt 0.088723 0.854178
vt 0.083298 0.856301
vt 0.091876 0.852438
vt 0.095705 0.855823
vt 0.044371 0.848768
vt 0.041116 0.853045
vt 0.048239 0.849570
vt 0.047632 0.857626
vt 0.086514 0.851353
vt 0.083283 0.852717
vt 0.087569 0.855448
vt 0.077429 0.855486
vt 0.081657 0.892016
vt 0.086912 0.896034
vt 0.091065 0.894198
vt 0.094724 0.896809
vt 0.096028 0.892116
vt 0.093558 0.853694
vt 0.093703 0.893119
vt 0.086740 0.888975
vt 0.085883 0.892979
vt 0.073419 0.847617
vt 0.070947 0.849809
vt 0.116281 0.855486
vt 0.110820 0.860125
vt 0.107904 0.857591
vt 0.062045 0.893048
vt 0.069972 0.892590
vt 0.064029 0.889433
vt 0.077189 0.852213
vt 0.079369 0.854314
vt 0.076702 0.855971
vt 0.084393 0.892573
vt 0.061624 0.862496
vt 0.052622 0.863303
vt 0.063336 0.867857
vt 0.058512 0.870524
vt 0.064931 0.875996
vt 0.057212 0.877255
vt 0.053139 0.868568
vt 0.051553 0.876676
vt 0.055372 0.884280
vt 0.062522 0.885994
vt 0.058732 0.882897
vt 0.047196 0.860988
vt 0.028127 0.886474
vt 0.037223 0.866156
vt 0.043450 0.876699
vt 0.029089 0.877285
vt 0.022168 0.854687
vt 0.049624 0.863499
vt 0.049277 0.871695
vt 0.043941 0.869492
vt 0.047207 0.876990
vt 0.049000 0.879222
vt 0.050713 0.883328
vt 0.044818 0.883680
vt 0.053093 0.867451
vt 0.049590 0.864931
vt 0.052210 0.859897
vt 0.060277 0.887830
vt 0.053794 0.885524
vt 0.058143 0.875913
vt 0.062864 0.883301
vt 0.058611 0.867702
vt 0.061907 0.859795
vt 0.064348 0.867765
vt 0.051772 0.851999
vt 0.064195 0.851852
vt 0.054379 0.879928
vt 0.050428 0.884617
vt 0.049040 0.892298
vt 0.049763 0.878872
vt 0.050297 0.870216
vt 0.066518 0.864646
vt 0.055010 0.862543
vt 0.060577 0.868875
vt 0.050316 0.861357
vt 0.061674 0.861174
vt 0.056611 0.857611
vt 0.054366 0.855742
vt 0.088834 0.860481
vt 0.094275 0.862717
vt 0.083531 0.862898
vt 0.090451 0.869613
vt 0.083456 0.869905
vt 0.095159 0.875643
vt 0.087685 0.875568
vt 0.088410 0.883888
vt 0.093919 0.883594
vt 0.089577 0.886943
vt 0.079962 0.863849
vt 0.076495 0.863446
vt 0.073963 0.879117
vt 0.060785 0.876380
vt 0.069481 0.896539
vt 0.079642 0.876783
vt 0.073319 0.876714
vt 0.076263 0.874437
vt 0.083650 0.880728
vt 0.076902 0.883340
vt 0.082805 0.887685
vt 0.077919 0.887277
vt 0.072746 0.861186
vt 0.078296 0.868577
vt 0.082211 0.863803
vt 0.084232 0.868827
vt 0.086454 0.863523
vt 0.086812 0.875685
vt 0.078245 0.875771
vt 0.083931 0.879055
vt 0.078769 0.882431
vt 0.084988 0.882066
vt 0.082690 0.885535
vt 0.090949 0.889307
vt 0.091282 0.885143
vt 0.090123 0.861532
vt 0.049546 0.885682
vt 0.010740 0.857755
vt 0.030725 0.886074
vt 0.091814 0.868904
vt 0.094281 0.862791
vt 0.095404 0.875711
vt 0.090093 0.882661
vt 0.078039 0.885141
vt 0.084754 0.885200
vt 0.081901 0.880355
vt 0.077964 0.877358
vt 0.086074 0.876695
vt 0.081221 0.873957
vt 0.083657 0.869996
vt 0.076488 0.870377
vt 0.088680 0.868895
vt 0.081309 0.865243
vt 0.085766 0.860929
vt 0.080307 0.859211
vt 0.076675 0.861216
vt 0.076446 0.852985
vt 0.056089 0.889592
vt 0.059457 0.882391
vt 0.055598 0.881932
vt 0.056706 0.885240
vt 0.058447 0.876179
vt 0.054415 0.875339
vt 0.053898 0.869049
vt 0.063366 0.867183
vt 0.055932 0.862024
vt 0.064531 0.862291
vt 0.049395 0.892844
vt 0.096062 0.847639
vt 0.095110 0.856564
vt 0.088724 0.847731
vt 0.095988 0.851509
vt 0.048684 0.879959
vt 0.046116 0.875995
vt 0.051569 0.872432
vt 0.099471 0.875372
vt 0.094663 0.876983
vt 0.095114 0.871443
vt 0.088947 0.875785
vt 0.091539 0.867304
vt 0.052781 0.867662
vt 0.050818 0.864258
vt 0.090394 0.883569
vt 0.047475 0.861993
vt 0.088896 0.859753
vt 0.084464 0.861963
vt 0.085283 0.850307
vt 0.090057 0.862699
vt 0.086643 0.867691
vt 0.081231 0.865195
vt 0.079064 0.858124
vt 0.078303 0.867510
vt 0.083060 0.875148
vt 0.079315 0.883228
vt 0.088086 0.888462
vt 0.091409 0.891257
vt 0.080349 0.886404
vt 0.068100 0.856403
vt 0.070562 0.868832
vt 0.061319 0.876320
vt 0.061168 0.882736
vt 0.072963 0.886331
vt 0.071021 0.880484
vt 0.063740 0.882303
vt 0.071383 0.875729
vt 0.064233 0.875690
vt 0.071018 0.869043
vt 0.062806 0.869443
vt 0.066789 0.870905
vt 0.077076 0.869734
vt 0.067391 0.862786
vt 0.074056 0.859818
vt 0.080163 0.852307
vt 0.069082 0.867630
vt 0.066178 0.876774
vt 0.073824 0.878602
vt 0.069191 0.882887
vt 0.074064 0.888008
vt 0.107311 0.863776
vt 0.079372 0.847897
vt 0.049840 0.877178
vt 0.037268 0.856428
vt 0.023301 0.889286
vt 0.062112 0.896746
vt 0.133700 0.895950
vt 0.052659 0.895429
vt 0.054400 0.854820
vt 0.054444 0.852111
vt 0.055199 0.892923
vt 0.053802 0.869171
vt 0.067885 0.858350
vt 0.062974 0.876118
vt 0.061942 0.881576
vt 0.073693 0.870940
vt 0.041164 0.892427
vt 0.047210 0.873431
vt 0.042492 0.867806
vt 0.049086 0.860294
vt 0.051418 0.875919
vt 0.018754 0.860744
vt 0.025233 0.857456
vt 0.034147 0.861565
vt 0.095017 0.867873
vt 0.047000 0.861029
vt 0.071620 0.851683
vt 0.056908 0.857399
vt 0.081566 0.856452
vt 0.095354 0.865063
vt 0.092987 0.861612
vt 0.087920 0.883700
vt 0.050013 0.882494
vt 0.099483 0.868066
vt 0.094888 0.883533
vt 0.046541 0.855375
vt 0.032447 0.874071
vt 0.031934 0.860403
vt 0.026017 0.871726
vt 0.121931 0.854313
vt 0.120706 0.851735
vt 0.138258 0.849517
vt 0.124595 0.858072
vt 0.144533 0.852954
vt 0.130597 0.862803
vt 0.149282 0.858304
vt 0.136682 0.868495
vt 0.151908 0.862152
vt 0.141238 0.873129
vt 0.153979 0.866743
vt 0.146043 0.877636
vt 0.156222 0.871265
vt 0.151824 0.880536
vt 0.155318 0.875447
vt 0.153520 0.881539
vt 0.113093 0.861954
vt 0.114830 0.857035
vt 0.114394 0.868005
vt 0.119321 0.873398
vt 0.125409 0.878866
vt 0.130630 0.883658
vt 0.136761 0.887704
vt 0.144919 0.888985
vt 0.149253 0.886946
vt 0.105911 0.866696
vt 0.104492 0.874858
vt 0.106692 0.881350
vt 0.111259 0.887231
vt 0.115749 0.892983
vt 0.121381 0.895366
vt 0.131747 0.896422
s 1
f 37/1/37 136/2/136 16/3/16
f 16/4/16 136/5/136 170/6/170
f 136/5/136 129/7/129 170/6/170
f 169/8/169 168/9/168 36/10/36
f 88/11/88 168/9/168 169/8/169
f 186/12/186 214/13/214 26/14/26
f 119/15/119 112/16/112 19/17/19
f 119/15/119 19/17/19 33/18/33
f 1/19/1 146/20/146 29/21/29
f 29/21/29 146/20/146 178/22/178
f 129/7/129 152/23/152 170/6/170
f 152/23/152 164/24/164 170/6/170
f 164/24/164 151/25/151 39/26/39
f 33/27/33 171/28/171 8/29/8
f 171/30/171 34/31/34 194/32/194
f 106/33/106 187/34/187 165/35/165
f 172/36/172 14/37/14 28/38/28
f 169/8/169 32/39/32 31/40/31
f 31/40/31 3/41/3 50/42/50
f 169/8/169 31/40/31 50/42/50
f 11/43/11 173/44/173 23/45/23
f 194/32/194 34/31/34 173/44/173
f 173/44/173 34/31/34 23/45/23
f 174/46/174 60/47/60 59/48/59
f 68/49/68 177/50/177 176/51/176
f 51/52/51 50/53/50 175/54/175
f 175/55/175 3/41/3 25/56/25
f 29/57/29 174/58/174 1/59/1
f 28/38/28 14/37/14 13/60/13
f 2/61/2 179/62/179 180/63/180
f 60/64/60 2/65/2 180/66/180
f 177/67/177 57/68/57 35/69/35
f 57/70/57 51/71/51 35/72/35
f 35/72/35 51/71/51 25/56/25
f 22/73/22 181/74/181 71/75/71
f 22/76/22 71/77/71 70/78/70
f 181/74/181 72/79/72 71/75/71
f 167/80/167 83/81/83 82/82/82
f 83/81/83 22/83/22 70/84/70
f 168/85/168 88/86/88 182/87/182
f 88/86/88 87/88/87 182/87/182
f 182/87/182 11/43/11 23/45/23
f 20/89/20 183/90/183 98/91/98
f 20/89/20 39/26/39 183/90/183
f 183/90/183 39/26/39 99/92/99
f 98/91/98 183/90/183 99/92/99
f 113/93/113 38/94/38 184/95/184
f 184/95/184 20/96/20 98/97/98
f 19/17/19 112/16/112 107/98/107
f 19/99/19 107/100/107 21/101/21
f 176/51/176 15/102/15 185/103/185
f 185/104/185 161/105/161 137/106/137
f 18/107/18 30/108/30 121/109/121
f 187/34/187 106/33/106 121/109/121
f 27/110/27 90/111/90 89/112/89
f 146/20/146 188/113/188 178/22/178
f 188/113/188 37/1/37 178/22/178
f 13/60/13 40/114/40 41/115/41
f 42/116/42 43/117/43 41/115/41
f 43/117/43 45/118/45 46/119/46
f 44/120/44 46/119/46 47/121/47
f 46/119/46 49/122/49 47/121/47
f 190/123/190 51/71/51 48/124/48
f 48/124/48 51/71/51 49/122/49
f 60/64/60 180/66/180 61/125/61
f 13/126/13 41/127/41 180/63/180
f 41/128/41 52/129/52 180/130/180
f 52/131/52 44/120/44 191/132/191
f 52/131/52 191/132/191 53/133/53
f 61/125/61 52/131/52 53/133/53
f 44/120/44 47/121/47 191/132/191
f 191/132/191 54/134/54 53/133/53
f 192/135/192 55/136/55 56/137/56
f 47/121/47 49/122/49 55/136/55
f 54/138/54 192/139/192 56/140/56
f 49/122/49 51/71/51 55/136/55
f 60/47/60 58/141/58 59/48/59
f 61/142/61 64/143/64 62/144/62
f 54/138/54 56/140/56 65/145/65
f 65/145/65 67/146/67 66/147/66
f 56/140/56 57/148/57 68/49/68
f 67/146/67 56/140/56 69/149/69
f 72/79/72 74/150/74 71/75/71
f 71/75/71 75/151/75 70/152/70
f 75/151/75 74/150/74 76/153/76
f 74/150/74 78/154/78 76/153/76
f 212/155/212 79/156/79 77/157/77
f 79/156/79 81/158/81 78/154/78
f 147/159/147 193/160/193 79/156/79
f 194/32/194 173/44/173 80/161/80
f 193/160/193 80/161/80 81/158/81
f 83/81/83 70/84/70 195/162/195
f 70/84/70 75/163/75 195/162/195
f 195/162/195 84/164/84 82/82/82
f 75/163/75 196/165/196 195/162/195
f 196/165/196 197/166/197 84/164/84
f 196/165/196 78/167/78 85/168/85
f 85/168/85 78/167/78 86/169/86
f 86/169/86 81/170/81 87/171/87
f 81/158/81 80/161/80 87/88/87
f 80/161/80 11/43/11 87/88/87
f 91/172/91 92/173/92 89/112/89
f 91/174/91 84/175/84 197/176/197
f 94/177/94 153/178/153 93/179/93
f 94/177/94 198/180/198 96/181/96
f 198/180/198 86/169/86 95/182/95
f 95/182/95 97/183/97 96/181/96
f 86/169/86 88/11/88 95/182/95
f 95/182/95 169/8/169 97/183/97
f 9/184/9 101/185/101 199/186/199
f 199/186/199 102/187/102 100/188/100
f 101/185/101 103/189/103 102/187/102
f 103/189/103 10/190/10 200/191/200
f 200/191/200 104/192/104 105/193/105
f 201/194/201 106/33/106 107/100/107
f 105/193/105 201/194/201 107/100/107
f 202/195/202 98/97/98 203/196/203
f 184/95/184 202/195/202 113/93/113
f 184/95/184 98/97/98 202/195/202
f 98/91/98 100/188/100 203/197/203
f 114/198/114 203/199/203 108/200/108
f 100/188/100 109/201/109 108/202/108
f 102/187/102 110/203/110 109/201/109
f 200/191/200 111/204/111 110/203/110
f 113/93/113 115/205/115 186/12/186
f 115/205/115 114/206/114 204/207/204
f 115/205/115 204/207/204 116/208/116
f 109/209/109 205/210/205 116/208/116
f 109/209/109 117/211/117 205/210/205
f 205/210/205 118/212/118 116/208/116
f 117/211/117 110/213/110 206/214/206
f 110/213/110 111/215/111 206/214/206
f 206/214/206 111/215/111 207/216/207
f 206/214/206 207/216/207 148/217/148
f 111/215/111 119/15/119 207/216/207
f 111/215/111 112/16/112 119/15/119
f 207/216/207 8/218/8 148/217/148
f 163/219/163 121/109/121 122/220/122
f 122/220/122 123/221/123 120/222/120
f 163/219/163 122/220/122 120/222/120
f 123/221/123 124/223/124 125/224/125
f 125/224/125 124/223/124 127/225/127
f 7/226/7 128/227/128 127/225/127
f 208/228/208 129/7/129 128/227/128
f 152/23/152 129/7/129 208/228/208
f 162/229/162 120/222/120 123/221/123
f 17/230/17 120/231/120 162/232/162
f 17/230/17 163/233/163 120/231/120
f 130/234/130 125/224/125 131/235/131
f 125/224/125 209/236/209 131/235/131
f 127/237/127 132/238/132 209/239/209
f 209/239/209 133/240/133 131/241/131
f 132/242/132 128/227/128 134/243/134
f 133/240/133 132/238/132 135/244/135
f 128/227/128 129/7/129 136/5/136
f 134/243/134 128/227/128 135/245/135
f 6/246/6 139/247/139 138/248/138
f 130/249/130 141/250/141 139/247/139
f 139/247/139 140/251/140 4/252/4
f 6/246/6 130/249/130 139/247/139
f 140/251/140 141/250/141 142/253/142
f 141/250/141 133/240/133 143/254/143
f 135/244/135 144/255/144 143/254/143
f 135/244/135 210/256/210 144/255/144
f 5/257/5 188/113/188 210/256/210
f 145/258/145 188/113/188 146/20/146
f 211/259/211 147/159/147 148/217/148
f 8/218/8 211/259/211 148/217/148
f 147/159/147 212/155/212 148/217/148
f 206/214/206 213/260/213 118/212/118
f 212/155/212 206/214/206 148/217/148
f 77/157/77 12/261/12 213/260/213
f 12/261/12 73/262/73 214/13/214
f 116/208/116 214/13/214 115/205/115
f 214/13/214 72/79/72 26/14/26
f 115/205/115 214/13/214 186/12/186
f 106/33/106 215/263/215 121/109/121
f 104/192/104 216/264/216 215/263/215
f 216/264/216 149/265/149 215/263/215
f 215/263/215 149/265/149 121/109/121
f 216/264/216 104/192/104 10/190/10
f 216/264/216 217/266/217 150/267/150
f 216/264/216 150/267/150 122/220/122
f 218/268/218 7/226/7 217/266/217
f 10/190/10 218/268/218 217/266/217
f 217/266/217 126/269/126 150/267/150
f 9/184/9 151/25/151 152/23/152
f 208/228/208 9/184/9 152/23/152
f 9/184/9 99/92/99 151/25/151
f 93/179/93 154/270/154 155/271/155
f 153/178/153 45/118/45 93/179/93
f 45/118/45 42/116/42 154/270/154
f 154/270/154 42/116/42 155/271/155
f 42/116/42 40/114/40 156/272/156
f 156/272/156 14/37/14 92/173/92
f 156/272/156 40/114/40 14/37/14
f 14/37/14 172/36/172 92/173/92
f 185/103/185 157/273/157 69/149/69
f 137/274/137 4/252/4 185/103/185
f 157/273/157 67/146/67 69/149/69
f 157/273/157 142/253/142 158/275/158
f 157/273/157 140/251/140 142/253/142
f 157/273/157 66/147/66 67/146/67
f 143/254/143 158/275/158 142/253/142
f 158/275/158 143/254/143 63/276/63
f 143/254/143 219/277/219 63/276/63
f 144/255/144 159/278/159 219/277/219
f 159/278/159 62/144/62 63/276/63
f 159/278/159 58/141/58 62/144/62
f 159/278/159 144/255/144 160/279/160
f 144/255/144 145/258/145 160/279/160
f 58/141/58 160/279/160 59/48/59
f 161/105/161 138/280/138 137/106/137
f 161/281/161 162/232/162 138/248/138
f 37/282/37 5/283/5 136/284/136
f 32/39/32 169/8/169 36/10/36
f 26/14/26 72/79/72 166/285/166
f 33/27/33 8/29/8 119/286/119
f 1/19/1 160/279/160 146/20/146
f 1/19/1 59/48/59 160/279/160
f 164/24/164 152/23/152 151/25/151
f 151/25/151 99/92/99 39/26/39
f 171/30/171 33/18/33 34/31/34
f 107/100/107 106/33/106 21/101/21
f 165/35/165 21/101/21 106/33/106
f 27/110/27 89/112/89 172/36/172
f 27/110/27 172/36/172 28/38/28
f 174/46/174 2/287/2 60/47/60
f 1/19/1 174/46/174 59/48/59
f 176/51/176 69/149/69 68/49/68
f 68/49/68 57/148/57 177/50/177
f 51/71/51 175/55/175 25/56/25
f 175/55/175 50/42/50 3/41/3
f 179/288/179 24/289/24 28/38/28
f 179/288/179 28/38/28 13/60/13
f 2/65/2 24/289/24 179/288/179
f 180/63/180 179/62/179 13/126/13
f 22/73/22 166/285/166 181/74/181
f 181/74/181 166/285/166 72/79/72
f 83/81/83 167/80/167 22/83/22
f 182/87/182 87/88/87 11/43/11
f 184/95/184 38/94/38 20/96/20
f 163/219/163 18/107/18 121/109/121
f 163/219/163 17/290/17 18/107/18
f 69/149/69 176/51/176 185/103/185
f 185/103/185 15/102/15 161/281/161
f 186/12/186 38/94/38 113/93/113
f 121/109/121 30/108/30 187/34/187
f 30/108/30 165/35/165 187/34/187
f 27/110/27 167/80/167 90/111/90
f 82/291/82 90/292/90 167/293/167
f 188/113/188 5/257/5 37/1/37
f 14/37/14 40/114/40 13/60/13
f 40/114/40 42/116/42 41/115/41
f 41/115/41 43/117/43 44/120/44
f 43/117/43 42/116/42 45/118/45
f 44/120/44 43/117/43 46/119/46
f 46/119/46 189/294/189 48/124/48
f 46/119/46 45/118/45 189/294/189
f 46/119/46 48/124/48 49/122/49
f 190/295/190 50/53/50 51/52/51
f 189/294/189 190/123/190 48/124/48
f 61/125/61 180/66/180 52/131/52
f 52/129/52 41/128/41 44/296/44
f 191/297/191 47/298/47 54/138/54
f 192/139/192 47/298/47 55/299/55
f 54/138/54 47/298/47 192/139/192
f 55/136/55 51/71/51 57/70/57
f 55/136/55 57/70/57 56/137/56
f 60/47/60 61/142/61 58/141/58
f 58/141/58 61/142/61 62/144/62
f 62/144/62 64/143/64 63/276/63
f 61/142/61 53/300/53 64/143/64
f 63/276/63 64/143/64 65/145/65
f 64/143/64 53/300/53 65/145/65
f 65/145/65 53/300/53 54/138/54
f 66/147/66 63/276/63 65/145/65
f 65/145/65 56/140/56 67/146/67
f 69/149/69 56/140/56 68/49/68
f 72/79/72 73/262/73 74/150/74
f 71/75/71 74/150/74 75/151/75
f 74/150/74 73/262/73 12/261/12
f 74/150/74 77/157/77 78/154/78
f 74/150/74 12/261/12 77/157/77
f 77/157/77 79/156/79 78/154/78
f 212/301/212 147/302/147 79/303/79
f 193/160/193 194/32/194 80/161/80
f 79/156/79 193/160/193 81/158/81
f 147/159/147 194/32/194 193/160/193
f 80/161/80 173/44/173 11/43/11
f 82/82/82 83/81/83 195/162/195
f 195/162/195 196/165/196 84/164/84
f 75/163/75 76/304/76 196/165/196
f 197/166/197 196/165/196 85/168/85
f 196/165/196 76/304/76 78/167/78
f 85/168/85 86/169/86 198/180/198
f 86/169/86 78/167/78 81/170/81
f 88/86/88 86/305/86 87/88/87
f 91/174/91 90/306/90 84/175/84
f 90/306/90 82/307/82 84/175/84
f 90/306/90 91/174/91 89/308/89
f 92/173/92 197/166/197 155/271/155
f 92/173/92 91/172/91 197/166/197
f 197/166/197 85/168/85 94/177/94
f 155/271/155 197/166/197 93/179/93
f 197/166/197 94/177/94 93/179/93
f 85/168/85 198/180/198 94/177/94
f 96/181/96 198/180/198 95/182/95
f 153/178/153 94/177/94 96/181/96
f 95/182/95 88/11/88 169/8/169
f 99/92/99 199/186/199 98/91/98
f 99/92/99 9/184/9 199/186/199
f 98/91/98 199/186/199 100/188/100
f 199/186/199 101/185/101 102/187/102
f 101/185/101 10/190/10 103/189/103
f 200/191/200 10/190/10 104/192/104
f 201/194/201 104/192/104 106/33/106
f 105/193/105 104/192/104 201/194/201
f 113/93/113 202/195/202 114/206/114
f 114/206/114 202/195/202 203/196/203
f 100/188/100 102/187/102 109/201/109
f 203/197/203 100/188/100 108/202/108
f 110/203/110 102/187/102 103/189/103
f 200/309/200 105/310/105 111/215/111
f 103/189/103 200/191/200 110/203/110
f 111/215/111 105/310/105 107/98/107
f 111/215/111 107/98/107 112/16/112
f 113/93/113 114/206/114 115/205/115
f 114/206/114 108/311/108 204/207/204
f 204/207/204 108/311/108 109/209/109
f 116/208/116 204/207/204 109/209/109
f 109/209/109 110/213/110 117/211/117
f 118/212/118 117/211/117 206/214/206
f 205/210/205 117/211/117 118/212/118
f 207/216/207 119/15/119 8/218/8
f 122/220/122 121/109/121 149/265/149
f 123/221/123 122/220/122 124/223/124
f 122/220/122 150/267/150 124/223/124
f 124/223/124 150/267/150 126/269/126
f 127/225/127 124/223/124 126/269/126
f 7/226/7 208/228/208 128/227/128
f 126/269/126 7/226/7 127/225/127
f 6/312/6 162/229/162 123/221/123
f 6/312/6 123/221/123 130/234/130
f 130/234/130 123/221/123 125/224/125
f 125/313/125 127/237/127 209/239/209
f 133/240/133 209/239/209 132/238/132
f 132/238/132 127/237/127 128/314/128
f 135/245/135 132/242/132 134/243/134
f 135/245/135 128/227/128 136/5/136
f 5/315/5 135/245/135 136/5/136
f 138/316/138 139/317/139 137/318/137
f 162/232/162 6/246/6 138/248/138
f 137/274/137 139/247/139 4/252/4
f 139/247/139 141/250/141 140/251/140
f 130/249/130 131/241/131 141/250/141
f 141/250/141 131/241/131 133/240/133
f 142/253/142 141/250/141 143/254/143
f 133/240/133 135/244/135 143/254/143
f 145/258/145 210/256/210 188/113/188
f 144/255/144 210/256/210 145/258/145
f 135/244/135 5/257/5 210/256/210
f 8/218/8 171/30/171 211/259/211
f 171/30/171 194/32/194 211/259/211
f 211/259/211 194/32/194 147/159/147
f 212/155/212 77/157/77 213/260/213
f 206/214/206 212/155/212 213/260/213
f 213/260/213 12/261/12 118/212/118
f 118/212/118 12/261/12 116/208/116
f 116/208/116 12/261/12 214/13/214
f 214/13/214 73/262/73 72/79/72
f 106/33/106 104/192/104 215/263/215
f 149/265/149 216/264/216 122/220/122
f 216/264/216 10/190/10 217/266/217
f 10/190/10 101/185/101 218/268/218
f 217/266/217 7/226/7 126/269/126
f 101/185/101 9/184/9 218/268/218
f 218/268/218 9/184/9 208/228/208
f 218/268/218 208/228/208 7/226/7
f 169/8/169 50/42/50 190/123/190
f 97/183/97 190/123/190 96/181/96
f 97/183/97 169/8/169 190/123/190
f 153/178/153 189/294/189 45/118/45
f 190/123/190 189/294/189 153/178/153
f 190/123/190 153/178/153 96/181/96
f 93/179/93 45/118/45 154/270/154
f 155/271/155 42/116/42 156/272/156
f 155/271/155 156/272/156 92/173/92
f 92/173/92 172/36/172 89/112/89
f 185/103/185 4/252/4 157/273/157
f 66/147/66 157/273/157 158/275/158
f 157/273/157 4/252/4 140/251/140
f 66/147/66 158/275/158 63/276/63
f 143/254/143 144/255/144 219/277/219
f 63/276/63 219/277/219 159/278/159
f 159/278/159 160/279/160 58/141/58
f 160/279/160 145/258/145 146/20/146
f 177/67/177 35/69/35 220/319/220 176/320/176
f 35/69/35 25/321/25 222/322/222 220/319/220
f 25/321/25 3/323/3 224/324/224 222/322/222
f 3/323/3 31/325/31 226/326/226 224/324/224
f 31/325/31 32/327/32 228/328/228 226/326/226
f 32/327/32 36/329/36 230/330/230 228/328/228
f 36/329/36 168/331/168 232/332/232 230/330/230
f 168/331/168 182/333/182 23/334/23 232/332/232
f 176/320/176 220/319/220 221/335/221 15/336/15
f 220/319/220 222/322/222 223/337/223 221/335/221
f 222/322/222 224/324/224 225/338/225 223/337/223
f 224/324/224 226/326/226 227/339/227 225/338/225
f 226/326/226 228/328/228 229/340/229 227/339/227
f 228/328/228 230/330/230 231/341/231 229/340/229
f 230/330/230 232/332/232 233/342/233 231/341/231
f 232/332/232 23/334/23 34/343/34 233/342/233
f 15/336/15 221/335/221 162/344/162 161/105/161
f 221/335/221 223/337/223 17/345/17 162/344/162
f 223/337/223 225/338/225 18/346/18 17/345/17
f 225/338/225 227/339/227 30/347/30 18/346/18
f 227/339/227 229/340/229 165/348/165 30/347/30
f 229/340/229 231/341/231 21/349/21 165/348/165
f 231/341/231 233/342/233 19/350/19 21/349/21
f 233/342/233 34/343/34 33/27/33 19/350/19
