# Blender 4.2.3 LTS
# www.blender.org
o Plane
v 2.709154 -1.387920 0.180299
v 2.706151 1.388517 0.068034
v -2.707873 1.235949 0.059096
v -2.707817 0.989126 0.159905
v -2.708575 0.895582 0.139924
v -2.709054 0.475396 -0.107595
v -2.709665 0.247379 -0.066642
v -2.708562 -0.202745 0.102879
v -2.709451 -0.467096 0.049012
v -2.710684 -0.702837 0.069314
v -2.712054 -0.926312 0.208038
v -2.710474 -1.094152 0.192678
v -2.710110 -1.386874 0.066318
v -1.991195 -1.387955 -0.049526
v -1.702758 -1.388730 -0.114607
v -1.075944 -1.388011 0.087956
v -0.631693 -1.387861 0.185848
v 0.644371 -1.387906 -0.106208
v 1.364489 -1.387933 -0.136369
v 2.707464 -1.225701 0.147785
v 2.710285 -1.054493 0.229012
v 2.709648 -0.936043 0.216259
v 2.708280 -0.684313 0.043595
v 2.709869 -0.414046 0.091935
v 2.709373 -0.172851 -0.007710
v 2.708592 0.079126 -0.065972
v 2.709365 0.545398 0.166563
v 2.710061 0.852954 0.020349
v 2.708389 1.083020 0.144460
v 2.707353 1.222703 0.141616
v 2.055807 1.387774 -0.135138
v 1.206708 1.387954 0.158450
v 0.753662 1.387391 0.146227
v 0.124189 1.387960 -0.080331
v -0.472962 1.387591 0.060088
v -0.931529 1.388050 0.041055
v -1.423082 1.388794 0.163760
v -1.758827 1.388101 0.139229
v -2.231426 1.387959 -0.015973
v -2.709120 1.388091 0.096317
v -0.464358 -1.228786 0.160231
v 0.073603 -1.389365 0.029592
v 0.530750 -1.291958 -0.113140
v 1.310670 -1.314080 -0.120855
v 2.376063 -1.387853 0.251599
v -1.473475 -1.120528 -0.081672
v 1.505780 -1.221094 -0.091157
v 2.112361 -1.258504 0.148001
v -2.330505 -0.996231 0.271376
v -0.820551 -1.181657 0.139203
v 0.494733 -0.987300 0.078189
v 2.490247 -1.113201 0.135910
v -2.415631 -1.039373 0.275205
v -1.379063 -0.962381 -0.115254
v -0.055272 -0.965087 -0.067937
v 0.134516 -1.109836 -0.058020
v 1.652324 -1.123424 -0.065983
v 1.844784 -0.979809 -0.074078
v -1.738074 -0.900571 0.035391
v -0.760912 -0.886969 -0.033862
v -0.216480 -0.849328 -0.114585
v 2.049702 -0.977275 -0.036734
v -2.174943 -0.818996 0.168571
v -1.405441 -0.764913 0.012821
v 0.912833 -0.838724 0.285369
v 1.997909 -0.780941 -0.108179
v -2.067626 -0.595997 0.285191
v 0.061592 -0.790501 -0.028513
v 1.029651 -0.798745 0.276517
v -0.184767 -0.721309 -0.074645
v 1.654512 -0.663706 0.020190
v -1.001787 -0.527434 0.251033
v 0.029188 -0.562666 -0.107787
v 0.841814 -0.757491 0.263700
v 1.084402 -0.489079 0.079180
v 1.392292 -0.590484 0.083755
v 2.316712 -0.659946 -0.065343
v -2.160173 -0.592355 0.286390
v -1.597288 -0.421182 0.082216
v -0.834854 -0.454022 0.245568
v 1.612899 -0.293911 0.287313
v 2.348696 -0.441391 -0.030922
v 0.521609 -0.449335 -0.002472
v 1.486880 -0.324508 0.293626
v -1.018417 -0.442112 0.278921
v -0.005663 -0.400150 -0.083893
v 0.541645 -0.185085 0.182232
v -2.343766 -0.320251 0.089343
v -1.811907 -0.177747 -0.049329
v -1.277779 -0.298737 0.138359
v -0.499311 -0.192644 0.040979
v 2.433919 -0.205868 -0.050242
v -2.464859 -0.148299 0.087094
v -1.455267 -0.114998 -0.024116
v -0.841079 -0.142578 0.075104
v -0.200901 -0.255037 -0.044190
v 1.016427 -0.252828 0.125247
v 1.511382 -0.260628 0.301790
v -1.164163 -0.079599 0.005768
v 0.066360 -0.005942 0.036157
v 0.500025 -0.052316 0.183449
v 0.779203 -0.057515 0.217276
v 1.184744 -0.100382 0.114808
v 2.358765 0.011224 -0.093862
v -2.365121 -0.002125 0.030204
v -0.486036 0.089503 0.234680
v 0.084872 0.089728 0.041089
v 1.318112 0.061118 0.030307
v -1.210604 0.090287 0.059216
v -0.690898 0.130706 0.258951
v 0.537809 0.155198 0.107219
v 1.650054 0.175852 -0.055759
v 1.974097 0.102496 -0.038757
v -2.238558 0.079346 0.061945
v -0.040265 0.212523 0.100815
v 0.198740 0.177732 0.118126
v 1.166550 0.185572 0.015827
v 1.929003 0.182841 -0.033543
v 2.364439 0.373879 0.171388
v -1.798225 0.251087 0.276726
v -1.694744 0.317971 0.266828
v -1.089427 0.374771 0.056315
v 1.688318 0.387913 0.049612
v -0.613689 0.199634 0.270267
v -0.209333 0.370416 0.102917
v 0.356112 0.401719 0.284463
v 0.906667 0.292163 0.066131
v -1.904558 0.354807 0.234067
v -0.430613 0.552669 -0.005304
v 0.778438 0.549626 0.132464
v 1.300717 0.466603 0.183550
v 2.337769 0.494505 0.225178
v -0.987999 0.654565 -0.124306
v 0.303983 0.432875 0.299117
v 1.234583 0.586515 0.209718
v 1.794949 0.524453 0.063915
v -2.414880 0.599981 -0.059489
v 0.144247 0.555448 0.190717
v -1.427005 0.740027 -0.066093
v 0.626562 0.934786 -0.101034
v 1.831667 0.712800 0.023358
v -0.616822 0.844514 -0.206781
v 1.144858 0.692434 0.160061
v 2.319805 0.608420 0.205527
v -1.946293 0.782355 -0.094954
v -1.440803 0.917547 -0.077175
v 1.085857 1.005571 -0.053818
v 2.047698 0.990461 -0.098840
v 2.423790 0.913468 -0.004079
v -1.826047 1.053488 -0.127143
v -1.452666 1.044101 -0.114534
v -0.972845 0.964839 -0.133602
v 0.054687 1.053111 -0.212033
v 0.490398 0.991580 -0.132059
v 1.468079 1.027823 -0.093241
v 1.704700 1.113739 -0.097548
v -0.643051 1.137813 -0.072311
v 0.114092 1.259882 -0.109807
v 0.985826 1.276584 0.123459
v -1.002859 1.212964 -0.041306
v -2.179295 1.258912 -0.059301
v 2.977599 -1.526997 -0.103928
v 2.974300 1.522346 -0.227229
v -2.971886 1.354781 -0.237044
v -2.971824 1.083697 -0.126326
v -2.972657 0.980958 -0.148272
v -2.973183 0.519471 -0.420121
v -2.973854 0.269041 -0.375142
v -2.972642 -0.225327 -0.188958
v -2.973618 -0.515662 -0.248120
v -2.974973 -0.774574 -0.225822
v -2.976477 -1.020016 -0.073463
v -2.974743 -1.204353 -0.090333
v -2.974343 -1.525847 -0.229113
v -2.184763 -1.527035 -0.356344
v -1.867974 -1.527887 -0.427821
v -1.179549 -1.527097 -0.205348
v -0.691632 -1.526932 -0.097834
v 0.709861 -1.526981 -0.418597
v 1.500762 -1.527011 -0.451723
v 2.975742 -1.348832 -0.139638
v 2.978841 -1.160796 -0.050427
v 2.978141 -1.030703 -0.064434
v 2.976639 -0.754230 -0.254069
v 2.978384 -0.457397 -0.200978
v 2.977840 -0.192495 -0.310417
v 2.976982 0.084250 -0.374406
v 2.977830 0.596353 -0.119014
v 2.978595 0.934140 -0.279600
v 2.976758 1.186820 -0.143290
v 2.975620 1.340232 -0.146414
v 2.260032 1.521530 -0.450370
v 1.327472 1.521727 -0.127925
v 0.829895 1.521109 -0.141349
v 0.138549 1.521734 -0.390176
v -0.517297 1.521328 -0.235955
v -1.020939 1.521833 -0.256859
v -1.560808 1.522650 -0.122093
v -1.929555 1.521889 -0.149035
v -2.448607 1.521733 -0.319493
v -2.973255 1.521878 -0.196165
v 0.082991 -1.528584 -0.269448
v 2.611767 -1.526923 -0.025619
v 2.535043 -1.289655 -0.381867
v 2.532248 1.293960 -0.486335
v -2.505775 1.151987 -0.494652
v -2.505723 0.922306 -0.400844
v -2.506429 0.835258 -0.419438
v -2.506874 0.444254 -0.649767
v -2.507442 0.232073 -0.611658
v -2.506416 -0.186790 -0.453910
v -2.507243 -0.432782 -0.504036
v -2.508390 -0.652150 -0.485143
v -2.509665 -0.860106 -0.356054
v -2.508195 -1.016289 -0.370348
v -2.507857 -1.288681 -0.487932
v -1.838870 -1.289687 -0.595730
v -1.570464 -1.290409 -0.656291
v -0.987183 -1.289740 -0.467797
v -0.573785 -1.289600 -0.376703
v 0.613657 -1.289642 -0.648476
v 1.283764 -1.289667 -0.676543
v 2.533470 -1.138702 -0.412123
v 2.536096 -0.979384 -0.336537
v 2.535502 -0.869161 -0.348404
v 2.534230 -0.634913 -0.509077
v 2.535708 -0.383416 -0.464094
v 2.535247 -0.158972 -0.556819
v 2.534520 0.075505 -0.611034
v 2.535239 0.509395 -0.394648
v 2.535887 0.795591 -0.530708
v 2.534331 1.009679 -0.415217
v 2.533366 1.139661 -0.417863
v 1.927070 1.293268 -0.675396
v 1.136941 1.293436 -0.402198
v 0.715359 1.292912 -0.413572
v 0.129602 1.293441 -0.624396
v -0.426077 1.293098 -0.493729
v -0.852797 1.293525 -0.511440
v -1.310212 1.294217 -0.397257
v -1.622640 1.293573 -0.420084
v -2.062417 1.293441 -0.564508
v -2.506935 1.293563 -0.460016
v 0.082529 -1.291000 -0.522107
v 2.225085 -1.289593 -0.315518
vn 0.4182 -0.3983 0.8164
vn 0.1045 0.7377 0.6670
vn -0.3166 0.1407 0.9381
vn -0.2882 0.0382 0.9568
vn -0.3254 -0.3274 0.8871
vn -0.5582 -0.0342 0.8290
vn -0.5485 0.1505 0.8225
vn -0.4150 0.0873 0.9056
vn -0.5370 0.0388 0.8427
vn -0.5449 0.1753 0.8199
vn -0.4598 0.3039 0.8344
vn -0.4731 -0.2204 0.8530
vn -0.1791 -0.7296 0.6600
vn 0.1139 -0.8143 0.5691
vn -0.0174 -0.7416 0.6707
vn -0.2127 -0.5996 0.7715
vn 0.0003 -0.6352 0.7723
vn 0.0896 -0.6452 0.7587
vn -0.0870 -0.7389 0.6682
vn 0.4114 -0.0619 0.9094
vn 0.2192 -0.0867 0.9718
vn 0.2662 0.3282 0.9063
vn 0.3332 0.2095 0.9193
vn 0.2832 0.1080 0.9530
vn 0.3435 0.2825 0.8957
vn 0.4488 -0.2117 0.8682
vn 0.4810 0.0079 0.8767
vn 0.4097 0.0944 0.9073
vn 0.2892 -0.2191 0.9319
vn 0.2326 0.1693 0.9577
vn 0.0185 0.7025 0.7114
vn 0.1161 0.5261 0.8425
vn -0.1584 0.5591 0.8139
vn -0.0466 0.6703 0.7406
vn 0.0764 0.5407 0.8377
vn 0.0697 0.5754 0.8149
vn 0.0764 0.4661 0.8814
vn -0.1450 0.4143 0.8985
vn -0.0625 0.5869 0.8072
vn -0.2172 0.5390 0.8138
vn 0.1308 0.2725 0.9532
vn 0.1934 -0.6142 0.7651
vn 0.0714 -0.1348 0.9883
vn 0.0292 -0.3740 0.9270
vn -0.0837 -0.5943 0.7999
vn 0.0191 0.0320 0.9993
vn -0.0795 -0.2523 0.9644
vn -0.2620 0.2934 0.9194
vn 0.1496 0.0929 0.9844
vn -0.1410 0.3253 0.9350
vn -0.2499 -0.3997 0.8819
vn -0.2208 0.1457 0.9644
vn 0.0067 -0.2338 0.9723
vn 0.0586 -0.0991 0.9933
vn -0.0404 0.2085 0.9772
vn 0.0499 -0.0365 0.9981
vn -0.0373 -0.0562 0.9977
vn 0.0478 0.1298 0.9904
vn 0.3068 -0.2570 0.9164
vn 0.0296 -0.0313 0.9991
vn -0.0157 0.0567 0.9983
vn -0.2386 0.3554 0.9037
vn 0.0738 -0.0527 0.9959
vn 0.0638 -0.4679 0.8815
vn -0.0591 -0.2933 0.9542
vn 0.0271 -0.0163 0.9995
vn 0.1460 0.0501 0.9880
vn -0.2759 0.0465 0.9601
vn 0.1977 0.0805 0.9770
vn 0.0865 -0.1979 0.9764
vn 0.2101 -0.2782 0.9373
vn -0.0346 -0.4521 0.8913
vn -0.0056 0.0492 0.9988
vn -0.1621 0.3280 0.9307
vn -0.1195 0.0312 0.9923
vn -0.2477 -0.9415 0.2284
vn -0.2135 0.1204 0.9695
vn -0.1300 0.0902 0.9874
vn -0.0309 0.2604 0.9650
vn 0.2550 -0.0094 0.9669
vn 0.2511 -0.0926 0.9635
vn -0.0055 -0.1417 0.9899
vn -0.1821 -0.0510 0.9820
vn -0.0888 -0.3634 0.9274
vn -0.0728 0.1117 0.9911
vn 0.0459 -0.1633 0.9855
vn -0.1430 -0.3491 0.9261
vn 0.0025 0.2963 0.9551
vn 0.0196 0.0496 0.9986
vn -0.2116 0.4873 0.8472
vn 0.1967 -0.1199 0.9731
vn 0.0501 0.2197 0.9743
vn 0.0852 0.2343 0.9684
vn -0.0665 -0.0471 0.9967
vn -0.0540 0.0383 0.9978
vn 0.1848 -0.1243 0.9749
vn -0.1201 -0.1975 0.9729
vn -0.0380 0.2971 0.9541
vn -0.1739 0.0338 0.9842
vn -0.0268 -0.1797 0.9834
vn -0.2207 0.1385 0.9655
vn 0.0745 0.1271 0.9891
vn -0.0119 0.3344 0.9424
vn 0.0752 -0.0424 0.9963
vn -0.0079 0.0934 0.9956
vn 0.1553 -0.3532 0.9226
vn 0.0594 -0.2525 0.9658
vn 0.0863 0.4656 0.8808
vn -0.0502 -0.2838 0.9576
vn -0.1711 -0.2119 0.9622
vn 0.0301 -0.0756 0.9967
vn 0.0611 0.0205 0.9979
vn 0.1380 0.3007 0.9437
vn -0.2026 -0.3265 0.9232
vn 0.0406 -0.2471 0.9681
vn -0.0708 -0.5874 0.8062
vn 0.1277 -0.0489 0.9906
vn -0.0869 -0.3328 0.9390
vn 0.0042 -0.4711 0.8821
vn -0.0578 -0.2453 0.9677
vn 0.1403 0.2450 0.9593
vn 0.0192 0.3864 0.9221
vn 0.1730 -0.3404 0.9242
vn -0.0139 0.2567 0.9664
vn -0.0837 0.2450 0.9659
vn 0.1363 -0.3308 0.9338
vn 0.1062 -0.2896 0.9512
vn -0.1924 0.3797 0.9049
vn -0.1516 0.4900 0.8584
vn 0.0369 0.2137 0.9762
vn 0.0708 -0.3213 0.9443
vn -0.0562 -0.1584 0.9858
vn 0.0667 0.4288 0.9009
vn -0.0555 0.0917 0.9942
vn 0.0308 0.1239 0.9918
vn -0.0020 -0.0618 0.9981
vn -0.0635 0.0208 0.9978
vn -0.1953 0.4912 0.8489
vn 0.0989 0.3324 0.9379
vn -0.0598 0.4558 0.8881
vn -0.0249 0.4002 0.9161
vn -0.0241 0.1509 0.9883
vn -0.0539 0.4659 0.8832
vn -0.0533 0.3690 0.9279
vn 0.0638 0.2238 0.9725
vn 0.0372 0.1511 0.9878
vn -0.0239 0.0079 0.9997
vn -0.1335 0.2404 0.9615
vn -0.1450 0.1089 0.9834
vn 0.0482 -0.1969 0.9792
vn 0.0136 -0.2208 0.9752
vn 0.0660 -0.2587 0.9637
vn -0.0755 -0.0335 0.9966
vn -0.1139 0.0962 0.9888
vn 0.1179 0.0257 0.9927
vn 0.1304 -0.1524 0.9797
vn 0.0560 -0.4387 0.8969
vn -0.0706 -0.3529 0.9330
vn -0.0181 -0.4607 0.8874
vn 0.0538 -0.4690 0.8815
vn 0.0361 -0.2108 0.9769
vn 0.4501 -0.8916 -0.0492
vn 0.4589 0.8875 -0.0421
vn -0.9801 0.0199 -0.1976
vn -0.9997 0.0032 -0.0251
vn -0.9907 0.0356 -0.1314
vn -0.9664 0.0909 -0.2403
vn -0.9866 -0.0453 -0.1568
vn -0.9974 0.0013 -0.0726
vn -0.9879 0.0072 -0.1549
vn -0.9691 -0.1128 -0.2192
vn -0.9979 0.0007 -0.0645
vn -0.9999 -0.0048 -0.0164
vn -0.4597 -0.8864 -0.0545
vn -0.0180 -0.9950 -0.0984
vn -0.0160 -0.9909 -0.1337
vn 0.0059 -0.9997 -0.0242
vn 0.0005 -0.9999 -0.0108
vn -0.0120 -0.9960 -0.0884
vn 0.0419 -0.9891 -0.1411
vn 0.9863 -0.0142 -0.1644
vn 0.9997 -0.0216 0.0145
vn 0.9960 0.0009 -0.0894
vn 0.9644 -0.1253 -0.2331
vn 0.9979 0.0017 -0.0646
vn 0.9864 -0.0546 -0.1549
vn 0.9783 0.0385 -0.2038
vn 1.0000 -0.0023 -0.0058
vn 0.9683 0.0837 -0.2353
vn 0.9966 0.0045 -0.0820
vn 0.9999 0.0116 -0.0031
vn 0.0291 0.9870 -0.1583
vn 0.0051 1.0000 -0.0025
vn 0.0010 0.9993 -0.0378
vn 0.0104 0.9916 -0.1291
vn 0.0002 0.9991 -0.0431
vn -0.0180 0.9945 -0.1027
vn 0.0014 0.9995 -0.0318
vn -0.0047 1.0000 0.0022
vn -0.0204 0.9907 -0.1348
vn -0.4578 0.8888 -0.0212
vn -0.0136 -0.9980 -0.0622
vn 0.0016 -0.9999 0.0134
vn 0.1430 -0.6286 -0.7645
vn 0.4702 0.0863 -0.8783
vn -0.5330 -0.1727 -0.8283
vn -0.5038 0.0140 -0.8637
vn -0.3662 0.3957 -0.8422
vn -0.4238 0.1156 -0.8984
vn -0.4540 -0.2431 -0.8572
vn -0.4853 -0.1007 -0.8686
vn -0.4900 0.0762 -0.8684
vn -0.4251 -0.2327 -0.8747
vn -0.3997 -0.3385 -0.8518
vn -0.5542 0.1580 -0.8173
vn -0.3946 -0.2020 -0.8964
vn -0.1679 -0.5680 -0.8057
vn 0.0854 -0.7443 -0.6624
vn 0.1572 -0.7870 -0.5966
vn -0.0229 -0.7565 -0.6535
vn -0.1015 -0.7131 -0.6937
vn 0.0822 -0.6447 -0.7600
vn 0.5822 0.2054 -0.7866
vn 0.5580 0.0561 -0.8279
vn 0.3759 -0.4210 -0.8255
vn 0.4744 -0.1080 -0.8736
vn 0.4862 -0.1516 -0.8606
vn 0.4539 -0.2635 -0.8512
vn 0.4674 0.1043 -0.8779
vn 0.5113 0.1025 -0.8533
vn 0.5145 -0.1007 -0.8516
vn 0.3969 0.3259 -0.8581
vn 0.5568 -0.1143 -0.8227
vn -0.0821 0.7579 -0.6472
vn -0.0720 0.7906 -0.6081
vn 0.1494 0.7259 -0.6714
vn 0.0368 0.7149 -0.6982
vn -0.0780 0.7326 -0.6762
vn -0.0473 0.7279 -0.6840
vn -0.0959 0.7212 -0.6861
vn 0.0908 0.8099 -0.5794
vn 0.0896 0.7952 -0.5997
vn -0.2942 0.4014 -0.8674
vn -0.1555 -0.7198 -0.6766
vn 0.1603 -0.6482 -0.7444
vt 0.085467 0.876266
vt 0.089887 0.876763
vt 0.088178 0.878100
vt 0.083508 0.861684
vt 0.086723 0.859725
vt 0.087666 0.865198
vt 0.086010 0.856937
vt 0.083680 0.858239
vt 0.084751 0.848791
vt 0.087847 0.851941
vt 0.083377 0.852694
vt 0.074268 0.857877
vt 0.073869 0.869484
vt 0.065853 0.862111
vt 0.086275 0.869133
vt 0.091518 0.868653
vt 0.090779 0.876445
vt 0.077636 0.857729
vt 0.094468 0.868795
vt 0.090217 0.853456
vt 0.068559 0.881871
vt 0.073354 0.882268
vt 0.073399 0.884081
vt 0.070483 0.878324
vt 0.094235 0.872212
vt 0.091510 0.859288
vt 0.090261 0.864487
vt 0.092138 0.854720
vt 0.068356 0.868404
vt 0.062839 0.871280
vt 0.063517 0.867561
vt 0.080313 0.859607
vt 0.083196 0.861205
vt 0.075323 0.869740
vt 0.061202 0.891645
vt 0.063796 0.889753
vt 0.063680 0.895224
vt 0.094059 0.876602
vt 0.071595 0.872388
vt 0.074798 0.873005
vt 0.072418 0.875527
vt 0.087133 0.866742
vt 0.083798 0.862156
vt 0.087026 0.861479
vt 0.065572 0.874234
vt 0.084621 0.866241
vt 0.066916 0.895425
vt 0.063797 0.896938
vt 0.090163 0.879533
vt 0.093177 0.882133
vt 0.077048 0.878679
vt 0.080942 0.866412
vt 0.073498 0.879237
vt 0.077040 0.879400
vt 0.085890 0.872068
vt 0.063275 0.877860
vt 0.062134 0.874312
vt 0.082875 0.869477
vt 0.073866 0.871314
vt 0.073227 0.878955
vt 0.066794 0.880147
vt 0.078630 0.875561
vt 0.093203 0.867106
vt 0.091515 0.870727
vt 0.090136 0.860953
vt 0.080111 0.875034
vt 0.078051 0.862181
vt 0.083937 0.874499
vt 0.080223 0.867990
vt 0.091381 0.860819
vt 0.094634 0.864639
vt 0.085418 0.866905
vt 0.086309 0.892997
vt 0.083733 0.891011
vt 0.083529 0.887515
vt 0.078728 0.884119
vt 0.081296 0.881223
vt 0.079641 0.866661
vt 0.083249 0.878948
vt 0.081340 0.874931
vt 0.096241 0.861562
vt 0.080586 0.887086
vt 0.055657 0.867514
vt 0.056494 0.872931
vt 0.051830 0.868628
vt 0.062401 0.870537
vt 0.061724 0.867327
vt 0.094533 0.857465
vt 0.083972 0.876991
vt 0.078641 0.874021
vt 0.090621 0.859978
vt 0.082490 0.863555
vt 0.083972 0.882411
vt 0.082985 0.884327
vt 0.073545 0.864581
vt 0.073727 0.861479
vt 0.077002 0.871867
vt 0.075443 0.869354
vt 0.090436 0.866226
vt 0.087673 0.861713
vt 0.089997 0.860865
vt 0.076908 0.865255
vt 0.073673 0.867061
vt 0.065320 0.889155
vt 0.060947 0.885765
vt 0.065646 0.884583
vt 0.051390 0.876195
vt 0.091724 0.855841
vt 0.089102 0.853882
vt 0.081000 0.859737
vt 0.095052 0.875232
vt 0.091873 0.872210
vt 0.092938 0.870907
vt 0.095547 0.877838
vt 0.089933 0.876325
vt 0.095932 0.882864
vt 0.094618 0.886661
vt 0.067309 0.884092
vt 0.068177 0.888563
vt 0.060916 0.884233
vt 0.056269 0.879878
vt 0.051742 0.877693
vt 0.062157 0.882355
vt 0.066793 0.882994
vt 0.079233 0.863189
vt 0.081695 0.861881
vt 0.083104 0.862951
vt 0.064809 0.875738
vt 0.063839 0.878202
vt 0.058631 0.874636
vt 0.085264 0.853618
vt 0.089174 0.851172
vt 0.082919 0.854876
vt 0.083314 0.856385
vt 0.090049 0.887182
vt 0.089099 0.877325
vt 0.070971 0.880555
vt 0.079254 0.858962
vt 0.083311 0.882864
vt 0.086669 0.883476
vt 0.083298 0.886851
vt 0.061139 0.850335
vt 0.059044 0.854109
vt 0.058581 0.850254
vt 0.088200 0.875819
vt 0.063779 0.879952
vt 0.079473 0.858377
vt 0.083364 0.860692
vt 0.075624 0.862220
vt 0.086204 0.886399
vt 0.065866 0.877110
vt 0.065104 0.853762
vt 0.064893 0.855796
vt 0.083780 0.857797
vt 0.080035 0.856115
vt 0.084506 0.854353
vt 0.075234 0.857976
vt 0.082491 0.888285
vt 0.081200 0.883888
vt 0.081270 0.876808
vt 0.082815 0.880859
vt 0.084805 0.884186
vt 0.086479 0.888379
vt 0.060106 0.856513
vt 0.064815 0.857671
vt 0.060623 0.859832
vt 0.074219 0.851547
vt 0.075946 0.887179
vt 0.079860 0.890106
vt 0.073657 0.891906
vt 0.079541 0.887116
vt 0.081573 0.889526
vt 0.077253 0.892008
vt 0.087691 0.889361
vt 0.088295 0.882571
vt 0.090981 0.883381
vt 0.086151 0.890945
vt 0.082710 0.894604
vt 0.073659 0.893312
vt 0.074964 0.850275
vt 0.077977 0.848036
vt 0.080196 0.893672
vt 0.086371 0.881977
vt 0.086976 0.879010
vt 0.090106 0.888196
vt 0.090448 0.883419
vt 0.093100 0.886274
vt 0.084643 0.884710
vt 0.076158 0.892573
vt 0.074064 0.864768
vt 0.072162 0.861817
vt 0.073631 0.859888
vt 0.080843 0.894539
vt 0.077753 0.897777
vt 0.073977 0.856720
vt 0.069635 0.855926
vt 0.073357 0.897134
vt 0.069456 0.867457
vt 0.072682 0.863640
vt 0.075408 0.867571
vt 0.084334 0.881282
vt 0.089178 0.879449
vt 0.067949 0.854201
vt 0.069622 0.848810
vt 0.072997 0.848036
vt 0.074157 0.851722
vt 0.075280 0.870276
vt 0.069475 0.870780
vt 0.067537 0.864561
vt 0.067946 0.857588
vt 0.062975 0.864597
vt 0.068536 0.866778
vt 0.065635 0.871105
vt 0.085793 0.871805
vt 0.083207 0.866926
vt 0.083156 0.847971
vt 0.066697 0.894994
vt 0.067712 0.888913
vt 0.068438 0.895939
vt 0.066393 0.888476
vt 0.069280 0.887159
vt 0.068042 0.876909
vt 0.066639 0.880155
vt 0.082808 0.883794
vt 0.080494 0.879267
vt 0.083384 0.880303
vt 0.068015 0.856519
vt 0.066061 0.862851
vt 0.092806 0.879359
vt 0.093419 0.882224
vt 0.073433 0.878383
vt 0.075217 0.874236
vt 0.075452 0.877524
vt 0.073474 0.885216
vt 0.088423 0.868895
vt 0.084818 0.869627
vt 0.090827 0.858878
vt 0.083632 0.858998
vt 0.070925 0.885860
vt 0.068592 0.892582
vt 0.074949 0.883770
vt 0.087830 0.871263
vt 0.081251 0.872437
vt 0.080411 0.891266
vt 0.062742 0.889994
vt 0.060916 0.892171
vt 0.056443 0.875019
vt 0.063319 0.873288
vt 0.070954 0.887863
vt 0.071533 0.885167
vt 0.065090 0.847230
vt 0.068274 0.848488
vt 0.074219 0.864577
vt 0.070676 0.875826
vt 0.083392 0.872431
vt 0.067946 0.872388
vt 0.091375 0.887181
vt 0.084362 0.849254
vt 0.091375 0.879137
vt 0.086595 0.886051
vt 0.086760 0.895026
vt 0.068423 0.865093
vt 0.068339 0.863103
vt 0.073081 0.873955
vt 0.065888 0.878199
vt 0.059383 0.889828
vt 0.062060 0.889792
vt 0.067781 0.889360
vt 0.080517 0.883320
vt 0.068451 0.861678
vt 0.069030 0.868393
vt 0.067547 0.849069
vt 0.084370 0.879211
vt 0.075862 0.863358
vt 0.089991 0.884378
vt 0.087177 0.880760
vt 0.089414 0.876609
vt 0.093491 0.876465
vt 0.077476 0.892352
vt 0.077730 0.887659
vt 0.085494 0.878695
vt 0.079119 0.864151
vt 0.078240 0.868936
vt 0.077520 0.883427
vt 0.084229 0.876677
vt 0.077872 0.872044
vt 0.077486 0.879010
vt 0.082804 0.873171
vt 0.077711 0.875982
vt 0.071631 0.848259
vt 0.071041 0.857295
vt 0.082158 0.870200
vt 0.076962 0.877965
vt 0.071504 0.862944
vt 0.080264 0.868591
vt 0.080683 0.862746
vt 0.070679 0.866390
vt 0.080889 0.858723
vt 0.070431 0.899085
vt 0.070847 0.894691
vt 0.070322 0.867930
vt 0.080457 0.852420
vt 0.080145 0.847230
vt 0.070804 0.893038
vt 0.070097 0.868902
vt 0.063375 0.894524
vt 0.062965 0.887553
vt 0.070365 0.885523
vt 0.069177 0.872667
vt 0.064262 0.879236
vt 0.083379 0.866869
vt 0.087338 0.866065
vt 0.064722 0.866558
vt 0.065291 0.858673
vt 0.064232 0.877904
vt 0.064191 0.875861
vt 0.082924 0.856108
vt 0.090827 0.855976
vt 0.065158 0.854666
vt 0.057181 0.887005
vt 0.060267 0.887150
vt 0.082339 0.887165
vt 0.077705 0.886995
vt 0.064593 0.848867
vt 0.062351 0.886990
vt 0.073596 0.886610
vt 0.076759 0.879837
vt 0.084034 0.876307
vt 0.066874 0.886289
vt 0.077033 0.871443
vt 0.076035 0.868653
vt 0.082499 0.874388
vt 0.080736 0.878330
vt 0.075511 0.855780
vt 0.075973 0.861032
vt 0.076035 0.866263
vt 0.076450 0.861277
vt 0.076675 0.857825
vt 0.076328 0.852376
vt 0.075188 0.865025
vt 0.059750 0.880713
vt 0.060433 0.878039
vt 0.066285 0.895736
vt 0.066664 0.892024
vt 0.074497 0.867145
vt 0.076035 0.847954
vt 0.082105 0.880179
vt 0.066650 0.890638
vt 0.073397 0.869591
vt 0.058857 0.895545
vt 0.058581 0.889452
vt 0.066285 0.884221
vt 0.074134 0.875799
vt 0.083611 0.862559
vt 0.086965 0.861878
vt 0.060604 0.864013
vt 0.061177 0.857237
vt 0.058581 0.876234
vt 0.083193 0.851990
vt 0.089888 0.851878
vt 0.061106 0.853753
vt 0.060364 0.882740
vt 0.062977 0.882898
vt 0.082650 0.891395
vt 0.078719 0.891249
vt 0.060604 0.848755
vt 0.064728 0.882777
vt 0.075230 0.890933
vt 0.084034 0.872388
vt 0.088598 0.872641
vt 0.068592 0.882182
vt 0.087417 0.889740
vt 0.084952 0.886081
vt 0.092041 0.872522
vt 0.073545 0.890393
vt 0.073763 0.886406
vt 0.083051 0.883599
vt 0.083752 0.863103
vt 0.082952 0.867294
vt 0.073591 0.882789
vt 0.080206 0.878380
vt 0.082679 0.870132
vt 0.073545 0.879039
vt 0.075973 0.848006
s 1
f 13/1/13 53/2/53 12/3/12
f 16/4/16 50/5/50 46/6/46
f 41/7/41 50/5/50 17/8/17
f 43/9/43 56/10/56 42/11/42
f 44/12/44 65/13/65 43/14/43
f 15/15/15 46/16/46 49/17/49
f 44/12/44 47/18/47 65/13/65
f 46/16/46 54/19/54 49/17/49
f 56/10/56 55/20/55 41/7/41
f 48/21/48 62/22/62 58/23/58
f 48/21/48 52/24/52 62/22/62
f 49/17/49 54/19/54 59/25/59
f 50/5/50 60/26/60 54/27/54
f 41/7/41 60/26/60 50/5/50
f 55/20/55 61/28/61 41/7/41
f 51/29/51 55/30/55 56/31/56
f 57/32/57 58/33/58 69/34/69
f 52/35/52 22/36/22 62/37/62
f 59/25/59 63/38/63 49/17/49
f 54/39/54 64/40/64 59/41/59
f 60/42/60 64/43/64 54/44/54
f 51/29/51 68/45/68 55/30/55
f 58/33/58 66/46/66 69/34/69
f 62/37/62 66/47/66 58/48/58
f 62/37/62 22/36/22 66/47/66
f 11/49/11 63/38/63 10/50/10
f 59/41/59 64/40/64 67/51/67
f 60/42/60 72/52/72 64/43/64
f 63/53/63 67/51/67 78/54/78
f 60/42/60 70/55/70 72/52/72
f 68/45/68 70/56/70 61/57/61
f 66/46/66 71/58/71 69/34/69
f 74/59/74 83/60/83 73/61/73
f 71/58/71 75/62/75 69/34/69
f 71/63/71 66/64/66 81/65/81
f 64/40/64 79/66/79 67/51/67
f 72/52/72 79/67/79 64/43/64
f 70/55/70 73/68/73 80/69/80
f 71/63/71 84/70/84 76/71/76
f 71/63/71 81/65/81 84/70/84
f 66/64/66 82/72/82 81/65/81
f 66/73/66 77/74/77 82/75/82
f 9/76/9 78/54/78 88/77/88
f 72/52/72 80/69/80 85/78/85
f 83/79/83 86/80/86 73/68/73
f 76/71/76 84/70/84 75/81/75
f 24/82/24 82/75/82 77/74/77
f 78/54/78 67/51/67 88/77/88
f 83/83/83 87/84/87 86/85/86
f 83/83/83 97/86/97 87/84/87
f 75/87/75 97/86/97 83/83/83
f 84/70/84 97/88/97 75/81/75
f 79/66/79 89/89/89 67/51/67
f 86/80/86 96/90/96 80/69/80
f 84/70/84 81/65/81 98/91/98
f 82/72/82 92/92/92 81/65/81
f 88/77/88 93/93/93 8/94/8
f 89/89/89 93/93/93 88/77/88
f 79/67/79 94/95/94 89/96/89
f 91/97/91 95/98/95 85/78/85
f 89/99/89 105/100/105 93/101/93
f 90/102/90 95/98/95 99/103/99
f 91/104/91 100/105/100 106/106/106
f 87/84/87 100/107/100 86/85/86
f 103/108/103 98/91/98 108/109/108
f 92/92/92 104/110/104 81/65/81
f 89/111/89 114/112/114 105/113/105
f 89/111/89 94/114/94 120/115/120
f 99/116/99 109/117/109 94/114/94
f 91/104/91 110/118/110 95/119/95
f 106/106/106 110/118/110 91/104/91
f 100/105/100 107/120/107 106/106/106
f 94/114/94 109/117/109 120/115/120
f 100/107/100 111/121/111 107/122/107
f 106/106/106 115/123/115 124/124/124
f 111/125/111 116/126/116 107/127/107
f 108/128/108 117/129/117 102/130/102
f 112/131/112 117/132/117 108/109/108
f 104/110/104 118/133/118 113/134/113
f 109/117/109 122/135/122 121/136/121
f 110/118/110 124/124/124 122/137/122
f 116/126/116 111/125/111 126/138/126
f 117/139/117 112/140/112 131/141/131
f 118/142/118 123/143/123 112/144/112
f 120/115/120 121/136/121 128/145/128
f 115/123/115 125/146/125 124/124/124
f 116/126/116 134/147/134 115/148/115
f 126/138/126 134/147/134 116/126/116
f 111/125/111 127/149/127 126/138/126
f 112/140/112 123/150/123 131/141/131
f 125/146/125 129/151/129 124/124/124
f 119/152/119 132/153/132 118/142/118
f 125/154/125 138/155/138 129/156/129
f 130/157/130 134/147/134 126/138/126
f 131/141/131 135/158/135 127/159/127
f 128/145/128 121/136/121 145/160/145
f 122/135/122 139/161/139 121/136/121
f 133/162/133 139/161/139 122/135/122
f 136/163/136 135/158/135 131/141/131
f 136/164/136 144/165/144 141/166/141
f 130/157/130 140/167/140 134/147/134
f 137/168/137 145/169/145 5/170/5
f 130/171/130 143/172/143 140/173/140
f 142/174/142 146/175/146 139/176/139
f 141/177/141 155/178/155 135/158/135
f 5/170/5 145/169/145 4/179/4
f 138/155/138 154/180/154 153/181/153
f 140/167/140 154/180/154 134/147/134
f 155/178/155 147/182/147 143/172/143
f 146/175/146 151/183/151 150/184/150
f 142/185/142 157/186/157 152/187/152
f 142/185/142 153/188/153 157/186/157
f 147/182/147 154/189/154 140/173/140
f 148/190/148 156/191/156 155/192/155
f 150/193/150 161/194/161 4/179/4
f 147/195/147 155/192/155 159/196/159
f 161/194/161 3/197/3 4/179/4
f 151/198/151 160/199/160 37/200/37
f 153/188/153 158/201/158 35/202/35
f 33/203/33 158/204/158 153/205/153
f 159/196/159 33/203/33 154/206/154
f 37/200/37 38/207/38 150/208/150
f 156/191/156 31/209/31 32/210/32
f 148/211/148 30/212/30 31/213/31
f 14/214/14 15/15/15 53/2/53
f 16/4/16 46/6/46 15/215/15
f 17/8/17 42/11/42 41/7/41
f 18/216/18 43/9/43 42/11/42
f 18/217/18 44/218/44 43/219/43
f 19/220/19 48/21/48 47/221/47
f 20/222/20 52/24/52 45/223/45
f 92/224/92 26/225/26 104/226/104
f 119/152/119 27/227/27 132/153/132
f 27/227/27 144/165/144 132/153/132
f 27/227/27 149/228/149 144/165/144
f 35/202/35 36/229/36 160/230/160
f 3/231/3 39/232/39 40/233/40
f 6/234/6 137/168/137 5/170/5
f 7/235/7 128/145/128 6/236/6
f 8/237/8 105/100/105 7/238/7
f 88/77/88 8/94/8 9/76/9
f 53/2/53 11/49/11 12/3/12
f 16/4/16 17/8/17 50/5/50
f 42/11/42 56/10/56 41/7/41
f 47/221/47 48/21/48 57/239/57
f 53/2/53 15/15/15 49/17/49
f 43/14/43 51/29/51 56/31/56
f 48/21/48 45/223/45 52/24/52
f 43/14/43 65/13/65 51/29/51
f 65/13/65 47/18/47 57/32/57
f 57/239/57 48/21/48 58/23/58
f 53/2/53 49/17/49 11/49/11
f 46/6/46 50/5/50 54/27/54
f 41/7/41 61/28/61 60/26/60
f 65/13/65 57/32/57 69/34/69
f 11/49/11 49/17/49 63/38/63
f 51/29/51 65/13/65 68/45/68
f 63/53/63 59/41/59 67/51/67
f 61/57/61 55/30/55 68/45/68
f 65/13/65 74/59/74 68/45/68
f 65/13/65 69/34/69 74/59/74
f 66/47/66 22/36/22 77/240/77
f 63/53/63 78/54/78 10/241/10
f 60/42/60 61/242/61 70/55/70
f 70/56/70 68/45/68 73/61/73
f 68/45/68 74/59/74 73/61/73
f 74/59/74 69/34/69 75/62/75
f 71/58/71 76/243/76 75/62/75
f 72/52/72 85/78/85 79/67/79
f 72/52/72 70/55/70 80/69/80
f 23/244/23 24/82/24 77/74/77
f 80/69/80 73/68/73 86/80/86
f 74/59/74 75/62/75 83/60/83
f 79/67/79 85/78/85 90/102/90
f 67/51/67 89/89/89 88/77/88
f 79/67/79 90/102/90 94/95/94
f 80/69/80 91/97/91 85/78/85
f 80/69/80 96/90/96 91/97/91
f 84/70/84 98/91/98 97/88/97
f 82/75/82 24/82/24 92/224/92
f 90/102/90 85/78/85 95/98/95
f 87/84/87 97/86/97 102/130/102
f 97/88/97 98/91/98 103/108/103
f 94/95/94 90/102/90 99/103/99
f 91/104/91 96/245/96 100/105/100
f 96/245/96 86/246/86 100/105/100
f 87/84/87 101/247/101 100/107/100
f 87/84/87 102/130/102 101/247/101
f 102/130/102 97/86/97 103/248/103
f 81/65/81 104/110/104 98/91/98
f 89/111/89 120/115/120 114/112/114
f 95/119/95 110/118/110 99/249/99
f 103/248/103 108/128/108 102/130/102
f 104/110/104 113/134/113 98/91/98
f 99/249/99 110/118/110 109/250/109
f 100/107/100 101/247/101 111/121/111
f 101/247/101 102/130/102 111/121/111
f 108/109/108 98/91/98 112/131/112
f 98/91/98 113/134/113 112/131/112
f 106/106/106 124/124/124 110/118/110
f 106/106/106 107/120/107 115/123/115
f 107/127/107 116/126/116 115/148/115
f 102/130/102 117/129/117 111/121/111
f 113/134/113 118/133/118 112/131/112
f 104/251/104 119/152/119 118/142/118
f 104/251/104 26/252/26 119/152/119
f 114/112/114 120/115/120 7/235/7
f 120/115/120 109/117/109 121/136/121
f 109/250/109 110/118/110 122/137/122
f 111/125/111 117/253/117 127/149/127
f 7/235/7 120/115/120 128/145/128
f 115/148/115 134/147/134 125/154/125
f 117/139/117 131/141/131 127/159/127
f 126/138/126 127/149/127 130/157/130
f 118/142/118 136/164/136 123/143/123
f 118/142/118 132/153/132 136/164/136
f 122/137/122 124/124/124 133/254/133
f 125/154/125 134/147/134 138/155/138
f 127/159/127 135/158/135 130/171/130
f 131/141/131 123/150/123 136/163/136
f 133/254/133 124/124/124 129/151/129
f 136/164/136 132/153/132 144/165/144
f 137/255/137 128/145/128 145/160/145
f 145/160/145 121/136/121 139/161/139
f 133/254/133 129/151/129 142/256/142
f 130/171/130 135/158/135 143/172/143
f 136/163/136 141/177/141 135/158/135
f 139/176/139 133/257/133 142/174/142
f 129/156/129 138/155/138 142/258/142
f 145/259/145 139/176/139 146/175/146
f 142/174/142 152/260/152 146/175/146
f 135/158/135 155/178/155 143/172/143
f 142/258/142 138/155/138 153/181/153
f 138/155/138 134/147/134 154/180/154
f 140/173/140 143/172/143 147/182/147
f 141/177/141 148/261/148 155/178/155
f 141/166/141 144/165/144 148/211/148
f 144/165/144 149/228/149 148/211/148
f 145/169/145 150/193/150 4/179/4
f 145/259/145 146/175/146 150/184/150
f 146/175/146 152/260/152 151/183/151
f 149/228/149 29/262/29 148/211/148
f 151/198/151 152/263/152 160/199/160
f 152/187/152 157/186/157 160/230/160
f 157/186/157 153/188/153 35/202/35
f 154/206/154 33/203/33 153/205/153
f 147/195/147 159/196/159 154/206/154
f 150/208/150 38/207/38 161/264/161
f 151/198/151 37/200/37 150/208/150
f 159/196/159 155/192/155 32/210/32
f 155/192/155 156/191/156 32/210/32
f 148/211/148 29/262/29 30/212/30
f 157/186/157 35/202/35 160/230/160
f 156/191/156 148/190/148 31/209/31
f 13/1/13 14/214/14 53/2/53
f 18/217/18 19/220/19 44/218/44
f 19/220/19 47/221/47 44/218/44
f 19/220/19 45/223/45 48/21/48
f 1/265/1 20/222/20 45/223/45
f 20/266/20 21/267/21 52/35/52
f 52/35/52 21/267/21 22/36/22
f 77/240/77 22/36/22 23/268/23
f 92/224/92 24/82/24 25/269/25
f 92/224/92 25/269/25 26/225/26
f 119/152/119 26/252/26 27/227/27
f 27/227/27 28/270/28 149/228/149
f 28/270/28 29/262/29 149/228/149
f 31/213/31 30/212/30 2/271/2
f 159/196/159 32/210/32 33/203/33
f 158/204/158 33/203/33 34/272/34
f 35/202/35 158/201/158 34/273/34
f 37/200/37 160/199/160 36/274/36
f 161/264/161 38/207/38 39/232/39
f 3/231/3 161/264/161 39/232/39
f 6/236/6 128/145/128 137/255/137
f 7/235/7 105/113/105 114/112/114
f 8/237/8 93/101/93 105/100/105
f 10/241/10 78/54/78 9/76/9
f 11/49/11 10/50/10 171/275/171 172/276/172
f 36/229/36 35/202/35 196/277/196 197/278/197
f 24/82/24 23/244/23 184/279/184 185/280/185
f 12/3/12 11/49/11 172/276/172 173/281/173
f 37/200/37 36/274/36 197/282/197 198/283/198
f 25/269/25 24/82/24 185/280/185 186/284/186
f 13/1/13 12/3/12 173/281/173 174/285/174
f 38/207/38 37/200/37 198/283/198 199/286/199
f 26/225/26 25/269/25 186/284/186 187/287/187
f 14/214/14 13/1/13 174/285/174 175/288/175
f 39/232/39 38/207/38 199/286/199 200/289/200
f 27/227/27 26/252/26 187/290/187 188/291/188
f 15/15/15 14/214/14 175/288/175 176/292/176
f 40/233/40 39/232/39 200/289/200 201/293/201
f 28/270/28 27/227/27 188/291/188 189/294/189
f 16/4/16 15/215/15 176/295/176 177/296/177
f 29/262/29 28/270/28 189/294/189 190/297/190
f 17/8/17 16/4/16 177/296/177 178/298/178
f 4/179/4 3/197/3 164/299/164 165/300/165
f 30/212/30 29/262/29 190/297/190 191/301/191
f 18/216/18 42/11/42 202/302/202 179/303/179
f 5/170/5 4/179/4 165/300/165 166/304/166
f 2/271/2 30/212/30 191/301/191 163/305/163
f 19/220/19 18/217/18 179/306/179 180/307/180
f 6/234/6 5/170/5 166/304/166 167/308/167
f 31/213/31 2/271/2 163/305/163 192/309/192
f 42/11/42 17/8/17 178/298/178 202/302/202
f 45/223/45 19/220/19 180/307/180 203/310/203
f 7/235/7 6/236/6 167/311/167 168/312/168
f 32/210/32 31/209/31 192/313/192 193/314/193
f 20/222/20 1/265/1 162/315/162 181/316/181
f 8/237/8 7/238/7 168/317/168 169/318/169
f 33/203/33 32/210/32 193/314/193 194/319/194
f 21/267/21 20/266/20 181/320/181 182/321/182
f 9/76/9 8/94/8 169/322/169 170/323/170
f 34/272/34 33/203/33 194/319/194 195/324/195
f 22/36/22 21/267/21 182/321/182 183/325/183
f 10/241/10 9/76/9 170/323/170 171/326/171
f 3/231/3 40/233/40 201/293/201 164/327/164
f 35/202/35 34/273/34 195/328/195 196/277/196
f 1/265/1 45/223/45 203/310/203 162/315/162
f 23/268/23 22/36/22 183/325/183 184/329/184
f 176/292/176 175/288/175 217/330/217 218/331/218
f 201/293/201 200/289/200 242/332/242 243/333/243
f 189/294/189 188/291/188 230/334/230 231/335/231
f 177/296/177 176/295/176 218/336/218 219/337/219
f 202/302/202 178/298/178 220/338/220 244/339/244
f 190/297/190 189/294/189 231/335/231 232/340/232
f 178/298/178 177/296/177 219/337/219 220/338/220
f 162/315/162 203/310/203 245/341/245 204/342/204
f 165/300/165 164/299/164 206/343/206 207/344/207
f 191/301/191 190/297/190 232/340/232 233/345/233
f 179/303/179 202/302/202 244/339/244 221/346/221
f 164/327/164 201/293/201 243/333/243 206/347/206
f 166/304/166 165/300/165 207/344/207 208/348/208
f 163/305/163 191/301/191 233/345/233 205/349/205
f 180/307/180 179/306/179 221/350/221 222/351/222
f 167/308/167 166/304/166 208/348/208 209/352/209
f 192/309/192 163/305/163 205/349/205 234/353/234
f 203/310/203 180/307/180 222/351/222 245/341/245
f 168/312/168 167/311/167 209/354/209 210/355/210
f 193/314/193 192/313/192 234/356/234 235/357/235
f 181/316/181 162/315/162 204/342/204 223/358/223
f 169/318/169 168/317/168 210/359/210 211/360/211
f 194/319/194 193/314/193 235/357/235 236/361/236
f 182/321/182 181/320/181 223/362/223 224/363/224
f 170/323/170 169/322/169 211/364/211 212/365/212
f 195/324/195 194/319/194 236/361/236 237/366/237
f 183/325/183 182/321/182 224/363/224 225/367/225
f 171/326/171 170/323/170 212/365/212 213/368/213
f 196/277/196 195/328/195 237/369/237 238/370/238
f 184/329/184 183/325/183 225/367/225 226/371/226
f 172/276/172 171/275/171 213/372/213 214/373/214
f 197/278/197 196/277/196 238/370/238 239/374/239
f 185/280/185 184/279/184 226/375/226 227/376/227
f 173/281/173 172/276/172 214/373/214 215/377/215
f 198/283/198 197/282/197 239/378/239 240/379/240
f 186/284/186 185/280/185 227/376/227 228/380/228
f 174/285/174 173/281/173 215/377/215 216/381/216
f 199/286/199 198/283/198 240/379/240 241/382/241
f 187/287/187 186/284/186 228/380/228 229/383/229
f 175/288/175 174/285/174 216/381/216 217/330/217
f 200/289/200 199/286/199 241/382/241 242/332/242
f 188/291/188 187/290/187 229/384/229 230/334/230
