# Blender 4.2.3 LTS
# www.blender.org
o Cube
v -0.947615 -0.064896 0.339396
v -0.947615 -0.002242 0.402051
v -1.010270 -0.002242 0.339396
v -0.947615 0.676550 0.402051
v -0.947615 0.739205 0.339396
v -1.010270 0.676550 0.339396
v -0.947615 -0.064896 -0.339396
v -1.010270 -0.002242 -0.339396
v -0.947615 -0.002242 -0.402051
v -0.947615 0.739205 -0.339396
v -0.947615 0.676550 -0.402051
v -1.010270 0.676550 -0.339396
v 0.627114 -0.064896 0.339396
v 0.689769 -0.002242 0.339396
v 0.627114 -0.002242 0.402051
v 0.627114 0.739205 0.339396
v 0.627114 0.676550 0.402051
v 0.689769 0.676550 0.339396
v 0.627114 -0.064896 -0.339396
v 0.627114 -0.002242 -0.402051
v 0.689769 -0.002242 -0.339396
v 0.627114 0.739205 -0.339396
v 0.689769 0.676550 -0.339396
v 0.627114 0.676550 -0.402051
v -1.786942 0.021922 0.339396
v -1.823030 0.073140 0.402051
v -1.874248 0.037052 0.339396
v -2.214007 0.628024 0.402051
v -2.250096 0.679241 0.339396
v -2.265225 0.591935 0.339396
v -1.786942 0.021922 -0.339396
v -1.874248 0.037052 -0.339396
v -1.823030 0.073140 -0.402051
v -2.250096 0.679241 -0.339396
v -2.214007 0.628024 -0.402051
v -2.265225 0.591935 -0.339396
v -1.143305 0.475436 -0.339396
v -0.970197 0.636710 -0.380077
v -1.606459 1.132755 -0.339396
v -1.361174 1.191594 -0.380077
v -1.143305 0.475436 0.339396
v -1.179394 0.526654 0.402051
v -1.708674 1.061560 0.326097
v -1.654629 0.981103 0.388744
v -1.086152 0.676682 -0.171111
v -0.973393 0.716753 -0.205883
v -1.465827 1.176950 -0.151273
v -1.248014 0.990785 -0.212013
v -1.072772 0.735526 0.189185
v -1.121761 0.783551 0.223182
v -1.464539 1.079808 0.191048
v -1.418664 1.007735 0.223163
v -1.609993 -0.064896 0.751708
v -1.648019 -0.002242 0.801504
v -1.659789 -0.002242 0.713682
v -1.648019 0.676550 0.801504
v -1.609993 0.739205 0.751708
v -1.659789 0.676550 0.713682
v -1.198029 -0.064896 0.212223
v -1.247825 -0.002242 0.174197
v -1.160003 -0.002242 0.162427
v -1.198029 0.739205 0.212223
v -1.160003 0.676550 0.162427
v -1.247825 0.676550 0.174197
v -0.358442 -0.064896 1.707424
v -0.308646 -0.002242 1.745449
v -0.396468 -0.002242 1.757220
v -0.358442 0.739205 1.707424
v -0.396468 0.676550 1.757220
v -0.308646 0.676550 1.745449
v 0.053522 -0.064896 1.167939
v 0.091548 -0.002242 1.118142
v 0.103319 -0.002242 1.205964
v 0.053522 0.739205 1.167939
v 0.103319 0.676550 1.205964
v 0.091548 0.676550 1.118142
v 0.437103 -0.033802 1.196326
v 0.437103 0.009858 1.239985
v 0.393443 0.009858 1.196326
v 0.437103 0.482862 1.239985
v 0.437103 0.526522 1.196326
v 0.393443 0.482862 1.196326
v 0.437103 -0.033802 0.723321
v 0.393443 0.009858 0.723321
v 0.437103 0.009858 0.679661
v 0.437103 0.526522 0.723321
v 0.437103 0.482862 0.679661
v 0.393443 0.482862 0.723321
v 1.534426 -0.033802 1.196326
v 1.578085 0.009858 1.196326
v 1.534426 0.009858 1.239985
v 1.534426 0.526522 1.196326
v 1.534426 0.482862 1.239985
v 1.578085 0.482862 1.196326
v 1.534426 -0.033802 0.723321
v 1.534426 0.009858 0.679661
v 1.578085 0.009858 0.723321
v 1.534426 0.526522 0.723321
v 1.578085 0.482862 0.723321
v 1.534426 0.482862 0.679661
v 1.262923 -0.024530 0.312469
v 1.287965 0.019129 0.348233
v 1.227159 0.019129 0.337511
v 1.287965 0.492134 0.348233
v 1.262923 0.535794 0.312469
v 1.227159 0.492134 0.337511
v 0.991619 -0.024530 -0.074994
v 0.955855 0.019129 -0.049951
v 0.966577 0.019129 -0.110758
v 0.991619 0.535794 -0.074994
v 0.966577 0.492134 -0.110758
v 0.955855 0.492134 -0.049951
v 2.161797 -0.024530 -0.316930
v 2.197561 0.019129 -0.341972
v 2.186839 0.019129 -0.281166
v 2.161797 0.535794 -0.316930
v 2.186839 0.492134 -0.281166
v 2.197561 0.492134 -0.341972
v 1.890493 -0.024530 -0.704392
v 1.865451 0.019129 -0.740156
v 1.926257 0.019129 -0.729434
v 1.890493 0.535794 -0.704392
v 1.926257 0.492134 -0.729434
v 1.865451 0.492134 -0.740156
vn -0.0000 -0.0000 1.0000
vn 1.0000 -0.0000 -0.0000
vn -0.0000 1.0000 -0.0000
vn -1.0000 -0.0000 -0.0000
vn -0.0000 -0.0000 -1.0000
vn -0.5774 -0.5774 0.5773
vn -0.5773 0.5774 0.5773
vn -0.5774 -0.5774 -0.5773
vn -0.5773 0.5774 -0.5773
vn 0.5774 -0.5774 0.5773
vn 0.5773 0.5774 0.5773
vn 0.5774 -0.5774 -0.5773
vn 0.5773 0.5774 -0.5773
vn -0.7071 -0.7071 -0.0000
vn -0.7071 -0.0000 0.7071
vn -0.7071 0.7071 -0.0000
vn -0.7071 -0.0000 -0.7071
vn -0.0000 -0.7071 -0.7071
vn -0.0000 0.7071 -0.7071
vn 0.7071 -0.0000 -0.7071
vn 0.7071 -0.7071 -0.0000
vn 0.7071 0.7071 -0.0000
vn 0.7071 -0.0000 0.7071
vn -0.0000 -0.7071 0.7071
vn -0.0000 0.7071 0.7071
vn -0.0000 -1.0000 -0.0000
vn 0.0014 0.0144 0.9999
vn -0.5764 0.8172 -0.0005
vn -0.8175 -0.5760 -0.0000
vn -0.1394 -0.8045 0.5774
vn -0.8045 0.1394 0.5773
vn -0.1394 -0.8045 -0.5774
vn -0.8045 0.1394 -0.5774
vn -0.1707 -0.9853 -0.0000
vn -0.5780 -0.4073 0.7071
vn -0.9853 0.1707 -0.0000
vn -0.5780 -0.4073 -0.7071
vn 0.4185 -0.6010 -0.6810
vn -0.3300 0.5224 0.7863
vn 0.5760 -0.8175 -0.0000
vn 0.4073 -0.5780 0.7071
vn -0.3139 0.4796 -0.8194
vn 0.0176 0.0124 -0.9998
vn 0.2998 0.9335 0.1969
vn 0.3584 0.6507 0.6695
vn -0.1779 0.9733 0.1448
vn 0.5899 -0.6671 0.4550
vn 0.8147 0.1539 0.5591
vn 0.9637 -0.2668 0.0027
vn 0.4195 0.4922 0.7627
vn 0.7795 0.6257 -0.0297
vn 0.6944 0.6845 0.2219
vn 0.6469 0.7441 0.1667
vn 0.7901 -0.5699 0.2258
vn -0.6069 -0.0000 0.7948
vn 0.7948 -0.0000 0.6069
vn -0.7948 -0.0000 -0.6069
vn 0.6069 -0.0000 -0.7948
vn -0.8093 -0.5774 0.1085
vn -0.8093 0.5774 0.1085
vn -0.1085 -0.5773 -0.8093
vn -0.1085 0.5773 -0.8093
vn 0.1085 -0.5774 0.8093
vn 0.1085 0.5774 0.8093
vn 0.8093 -0.5774 -0.1085
vn 0.8093 0.5774 -0.1085
vn -0.5620 -0.7071 -0.4291
vn -0.9911 -0.0000 0.1328
vn -0.5620 0.7071 -0.4291
vn -0.1328 -0.0000 -0.9911
vn 0.4291 -0.7071 -0.5620
vn 0.4291 0.7071 -0.5620
vn 0.9911 -0.0000 -0.1328
vn 0.5620 -0.7071 0.4291
vn 0.5620 0.7071 0.4291
vn 0.1328 -0.0000 0.9911
vn -0.4291 -0.7071 0.5620
vn -0.4291 0.7071 0.5620
vn -0.5774 -0.5773 0.5774
vn -0.5774 0.5773 0.5774
vn -0.5773 -0.5774 -0.5774
vn -0.5773 0.5773 -0.5774
vn 0.5774 -0.5773 0.5774
vn 0.5774 0.5773 0.5774
vn 0.5774 -0.5773 -0.5774
vn 0.5774 0.5773 -0.5774
vn 0.5736 -0.0000 0.8192
vn 0.8192 -0.0000 -0.5736
vn -0.8192 -0.0000 0.5736
vn -0.5736 -0.0000 -0.8192
vn -0.1418 -0.5774 0.8041
vn -0.1418 0.5774 0.8041
vn -0.8041 -0.5774 -0.1418
vn -0.8041 0.5774 -0.1418
vn 0.8041 -0.5774 0.1418
vn 0.8041 0.5774 0.1418
vn 0.1418 -0.5774 -0.8041
vn 0.1418 0.5774 -0.8041
vn -0.5792 -0.7071 0.4056
vn -0.1736 -0.0000 0.9848
vn -0.5792 0.7071 0.4056
vn -0.9848 -0.0000 -0.1736
vn -0.4056 -0.7071 -0.5792
vn -0.4056 0.7071 -0.5792
vn 0.1736 -0.0000 -0.9848
vn 0.5792 -0.7071 -0.4056
vn 0.5792 0.7071 -0.4056
vn 0.9848 -0.0000 0.1737
vn 0.4056 -0.7071 0.5792
vn 0.4056 0.7071 0.5792
vt 0.376576 0.910445
vt 0.376704 0.905708
vt 0.387387 0.905729
vt 0.387259 0.910466
vt 0.406194 0.906664
vt 0.406194 0.911384
vt 0.401474 0.911384
vt 0.401474 0.906664
vt 0.404151 0.909910
vt 0.393201 0.909910
vt 0.393201 0.905190
vt 0.404151 0.905190
vt 0.404944 0.898150
vt 0.404944 0.904262
vt 0.398832 0.904262
vt 0.398832 0.898150
vt 0.387387 0.899670
vt 0.387259 0.904407
vt 0.376576 0.904386
vt 0.376704 0.899649
vt 0.387387 0.911098
vt 0.387922 0.910591
vt 0.387518 0.905076
vt 0.388029 0.905611
vt 0.387518 0.899017
vt 0.388029 0.899553
vt 0.387387 0.905039
vt 0.387922 0.904532
vt 0.376445 0.911098
vt 0.375934 0.910562
vt 0.376576 0.905076
vt 0.376042 0.905583
vt 0.376576 0.899017
vt 0.376042 0.899524
vt 0.376445 0.905039
vt 0.375934 0.904504
vt 0.398832 0.897352
vt 0.404944 0.897352
vt 0.404944 0.905060
vt 0.398832 0.905060
vt 0.401474 0.906048
vt 0.406194 0.906048
vt 0.406194 0.912001
vt 0.401474 0.912001
vt 0.404151 0.905153
vt 0.393201 0.905153
vt 0.393201 0.900433
vt 0.404151 0.900433
vt 0.403588 0.898663
vt 0.402608 0.903651
vt 0.397501 0.903909
vt 0.397502 0.898663
vt 0.396125 0.905884
vt 0.396125 0.911969
vt 0.390879 0.911969
vt 0.390981 0.906847
vt 0.397501 0.910532
vt 0.397501 0.905286
vt 0.402748 0.905286
vt 0.402748 0.910532
vt 0.403789 0.904601
vt 0.404131 0.905194
vt 0.403447 0.905194
vt 0.404131 0.910440
vt 0.403789 0.911033
vt 0.403447 0.910440
vt 0.403097 0.904601
vt 0.403439 0.905194
vt 0.402755 0.905194
vt 0.403097 0.911033
vt 0.402755 0.910440
vt 0.403439 0.910440
vt 0.402748 0.911217
vt 0.397501 0.911217
vt 0.397501 0.904601
vt 0.402748 0.904601
vt 0.390916 0.904068
vt 0.390879 0.897982
vt 0.391563 0.897978
vt 0.391327 0.905877
vt 0.402645 0.904542
vt 0.397521 0.904594
vt 0.408841 0.897978
vt 0.408841 0.904063
vt 0.403595 0.904063
vt 0.403595 0.897978
vt 0.397502 0.897978
vt 0.403588 0.897978
vt 0.397494 0.897991
vt 0.397382 0.904075
vt 0.396574 0.905877
vt 0.396810 0.897978
vt 0.480559 0.922506
vt 0.478855 0.926056
vt 0.476838 0.923138
vt 0.478070 0.918972
vt 0.469057 0.924494
vt 0.468018 0.923035
vt 0.471498 0.920582
vt 0.472031 0.921759
vt 0.479643 0.908973
vt 0.480559 0.912381
vt 0.477995 0.913392
vt 0.477026 0.911927
vt 0.467824 0.913352
vt 0.468401 0.912193
vt 0.472330 0.914403
vt 0.471887 0.915391
vt 0.469028 0.911369
vt 0.478394 0.908273
vt 0.394118 0.911312
vt 0.394213 0.905486
vt 0.407535 0.905239
vt 0.407453 0.911230
vt 0.389397 0.905743
vt 0.389397 0.911288
vt 0.383852 0.911288
vt 0.383852 0.905743
vt 0.409640 0.912178
vt 0.392764 0.912178
vt 0.392764 0.904904
vt 0.409640 0.904904
vt 0.384157 0.903199
vt 0.384157 0.908907
vt 0.378450 0.908907
vt 0.378450 0.903199
vt 0.394021 0.911195
vt 0.394113 0.905566
vt 0.406984 0.905327
vt 0.406905 0.911116
vt 0.407624 0.912073
vt 0.408315 0.911391
vt 0.407685 0.904417
vt 0.408342 0.905077
vt 0.393872 0.911930
vt 0.393279 0.911332
vt 0.393947 0.904811
vt 0.393321 0.905429
vt 0.393964 0.912073
vt 0.393350 0.911453
vt 0.394041 0.904704
vt 0.393394 0.905344
vt 0.407070 0.911930
vt 0.407737 0.911272
vt 0.407128 0.904534
vt 0.407763 0.905171
vt 0.378450 0.902454
vt 0.384157 0.902454
vt 0.384157 0.909651
vt 0.378450 0.909651
vt 0.383852 0.905019
vt 0.389397 0.905019
vt 0.389397 0.912012
vt 0.383852 0.912012
vt 0.393849 0.897695
vt 0.409785 0.897695
vt 0.409785 0.904564
vt 0.393849 0.904564
vt 0.388641 0.898699
vt 0.388493 0.904184
vt 0.376126 0.904160
vt 0.376274 0.898675
vt 0.398393 0.899227
vt 0.403857 0.899227
vt 0.403857 0.904692
vt 0.398393 0.904692
vt 0.394973 0.905525
vt 0.407650 0.905525
vt 0.407650 0.910989
vt 0.394973 0.910989
vt 0.383112 0.905214
vt 0.388576 0.905214
vt 0.388576 0.910678
vt 0.383112 0.910678
vt 0.377664 0.910578
vt 0.377812 0.905093
vt 0.390180 0.905117
vt 0.390031 0.910602
vt 0.376126 0.897943
vt 0.375507 0.898530
vt 0.375974 0.904916
vt 0.375383 0.904295
vt 0.377513 0.911334
vt 0.376921 0.910714
vt 0.377664 0.904362
vt 0.377045 0.904948
vt 0.388793 0.897943
vt 0.389384 0.898564
vt 0.388641 0.904916
vt 0.389260 0.904329
vt 0.390180 0.911334
vt 0.390798 0.910747
vt 0.390331 0.904362
vt 0.390923 0.904982
vt 0.382398 0.910678
vt 0.382398 0.905214
vt 0.389289 0.905214
vt 0.389289 0.910678
vt 0.397680 0.904692
vt 0.397680 0.899227
vt 0.404570 0.899227
vt 0.404570 0.904692
vt 0.407650 0.905464
vt 0.394973 0.905464
vt 0.394973 0.900000
vt 0.407650 0.900000
vt 0.375911 0.911210
vt 0.376068 0.905401
vt 0.389168 0.905426
vt 0.389011 0.911236
vt 0.394876 0.903042
vt 0.400664 0.903042
vt 0.400664 0.908830
vt 0.394876 0.908830
vt 0.394110 0.903032
vt 0.380682 0.903032
vt 0.380682 0.897244
vt 0.394110 0.897244
vt 0.396509 0.912011
vt 0.390721 0.912011
vt 0.390721 0.906223
vt 0.396509 0.906223
vt 0.393698 0.910979
vt 0.393855 0.905169
vt 0.406954 0.905195
vt 0.406797 0.911004
vt 0.389168 0.912011
vt 0.389823 0.911389
vt 0.389328 0.904626
vt 0.389955 0.905282
vt 0.393537 0.911779
vt 0.392910 0.911122
vt 0.393698 0.904394
vt 0.393042 0.905015
vt 0.375750 0.912011
vt 0.375124 0.911354
vt 0.375911 0.904625
vt 0.375255 0.905247
vt 0.406954 0.911779
vt 0.407610 0.911158
vt 0.407115 0.904394
vt 0.407741 0.905051
vt 0.397264 0.906223
vt 0.397264 0.912011
vt 0.389965 0.912011
vt 0.389965 0.906223
vt 0.394120 0.908830
vt 0.394120 0.903042
vt 0.401419 0.903042
vt 0.401419 0.908830
vt 0.394110 0.908830
vt 0.380682 0.908830
vt 0.380682 0.903042
vt 0.394110 0.903042
s 0
f 15/1/1 17/2/1 4/3/1 2/4/1
f 21/5/2 23/6/2 18/7/2 14/8/2
f 22/9/3 10/10/3 5/11/3 16/12/3
f 3/13/4 6/14/4 12/15/4 8/16/4
f 9/17/5 11/18/5 24/19/5 20/20/5
f 1/21/6 2/4/6 3/22/6
f 4/3/7 5/23/7 6/24/7
f 7/25/8 8/26/8 9/17/8
f 10/27/9 11/18/9 12/28/9
f 13/29/10 14/30/10 15/1/10
f 16/31/11 17/2/11 18/32/11
f 19/33/12 20/20/12 21/34/12
f 22/35/13 23/36/13 24/19/13
f 7/37/14 1/38/14 3/13/14 8/16/14
f 2/4/15 4/3/15 6/24/15 3/22/15
f 5/39/16 10/40/16 12/15/16 6/14/16
f 11/18/17 9/17/17 8/26/17 12/28/17
f 19/33/18 7/25/18 9/17/18 20/20/18
f 10/27/19 22/35/19 24/19/19 11/18/19
f 23/36/20 21/34/20 20/20/20 24/19/20
f 13/41/21 19/42/21 21/5/21 14/8/21
f 22/43/22 16/44/22 18/7/22 23/6/22
f 17/2/23 15/1/23 14/30/23 18/32/23
f 1/21/24 13/29/24 15/1/24 2/4/24
f 16/31/25 5/23/25 4/3/25 17/2/25
f 7/45/26 19/46/26 13/47/26 1/48/26
f 42/49/27 44/50/27 28/51/27 26/52/27
f 39/53/28 34/54/28 29/55/28 43/56/28
f 27/57/29 30/58/29 36/59/29 32/60/29
f 25/61/30 26/62/30 27/63/30
f 28/64/31 29/65/31 30/66/31
f 31/67/32 32/68/32 33/69/32
f 34/70/33 35/71/33 36/72/33
f 31/73/34 25/74/34 27/57/34 32/60/34
f 26/62/35 28/64/35 30/66/35 27/63/35
f 29/75/36 34/76/36 36/59/36 30/58/36
f 35/71/37 33/69/37 32/68/37 36/72/37
f 37/77/38 31/78/38 33/79/38 38/80/38
f 43/81/39 29/82/39 28/51/39 44/50/39
f 31/83/40 37/84/40 41/85/40 25/86/40
f 25/87/41 41/88/41 42/49/41 26/52/41
f 34/89/42 39/90/42 40/91/42 35/92/42
f 33/79/43 35/92/43 40/91/43 38/80/43
f 40/93/44 39/94/44 47/95/44 48/96/44
f 43/97/45 44/98/45 52/99/45 51/100/45
f 39/94/46 43/97/46 51/100/46 47/95/46
f 37/101/47 38/102/47 46/103/47 45/104/47
f 42/105/48 41/106/48 49/107/48 50/108/48
f 41/109/49 37/110/49 45/104/49 49/107/49
f 44/98/50 42/105/50 50/108/50 52/99/50
f 38/102/51 40/93/51 48/96/51 46/103/51
f 52/99/52 48/96/52 47/95/52 51/100/52
f 46/103/53 48/96/53 52/99/53 50/108/53
f 49/107/54 45/104/54 46/103/54 50/108/54
f 67/111/55 69/112/55 56/113/55 54/114/55
f 73/115/56 75/116/56 70/117/56 66/118/56
f 74/119/3 62/120/3 57/121/3 68/122/3
f 55/123/57 58/124/57 64/125/57 60/126/57
f 61/127/58 63/128/58 76/129/58 72/130/58
f 53/131/59 54/114/59 55/132/59
f 56/113/60 57/133/60 58/134/60
f 59/135/61 60/136/61 61/127/61
f 62/137/62 63/128/62 64/138/62
f 65/139/63 66/140/63 67/111/63
f 68/141/64 69/112/64 70/142/64
f 71/143/65 72/130/65 73/144/65
f 74/145/66 75/146/66 76/129/66
f 59/147/67 53/148/67 55/123/67 60/126/67
f 54/114/68 56/113/68 58/134/68 55/132/68
f 57/149/69 62/150/69 64/125/69 58/124/69
f 63/128/70 61/127/70 60/136/70 64/138/70
f 71/143/71 59/135/71 61/127/71 72/130/71
f 62/137/72 74/145/72 76/129/72 63/128/72
f 75/146/73 73/144/73 72/130/73 76/129/73
f 65/151/74 71/152/74 73/115/74 66/118/74
f 74/153/75 68/154/75 70/117/75 75/116/75
f 69/112/76 67/111/76 66/140/76 70/142/76
f 53/131/77 65/139/77 67/111/77 54/114/77
f 68/141/78 57/133/78 56/113/78 69/112/78
f 59/155/26 71/156/26 65/157/26 53/158/26
f 91/159/1 93/160/1 80/161/1 78/162/1
f 97/163/2 99/164/2 94/165/2 90/166/2
f 98/167/3 86/168/3 81/169/3 92/170/3
f 79/171/4 82/172/4 88/173/4 84/174/4
f 85/175/5 87/176/5 100/177/5 96/178/5
f 77/179/79 78/162/79 79/180/79
f 80/161/80 81/181/80 82/182/80
f 83/183/81 84/184/81 85/175/81
f 86/185/82 87/176/82 88/186/82
f 89/187/83 90/188/83 91/159/83
f 92/189/84 93/160/84 94/190/84
f 95/191/85 96/178/85 97/192/85
f 98/193/86 99/194/86 100/177/86
f 83/195/14 77/196/14 79/171/14 84/174/14
f 78/162/15 80/161/15 82/182/15 79/180/15
f 81/197/16 86/198/16 88/173/16 82/172/16
f 87/176/17 85/175/17 84/184/17 88/186/17
f 95/191/18 83/183/18 85/175/18 96/178/18
f 86/185/19 98/193/19 100/177/19 87/176/19
f 99/194/20 97/192/20 96/178/20 100/177/20
f 89/199/21 95/200/21 97/163/21 90/166/21
f 98/201/22 92/202/22 94/165/22 99/164/22
f 93/160/23 91/159/23 90/188/23 94/190/23
f 77/179/24 89/187/24 91/159/24 78/162/24
f 92/189/25 81/181/25 80/161/25 93/160/25
f 83/203/26 95/204/26 89/205/26 77/206/26
f 115/207/87 117/208/87 104/209/87 102/210/87
f 121/211/88 123/212/88 118/213/88 114/214/88
f 122/215/3 110/216/3 105/217/3 116/218/3
f 103/219/89 106/220/89 112/221/89 108/222/89
f 109/223/90 111/224/90 124/225/90 120/226/90
f 101/227/91 102/210/91 103/228/91
f 104/209/92 105/229/92 106/230/92
f 107/231/93 108/232/93 109/223/93
f 110/233/94 111/224/94 112/234/94
f 113/235/95 114/236/95 115/207/95
f 116/237/96 117/208/96 118/238/96
f 119/239/97 120/226/97 121/240/97
f 122/241/98 123/242/98 124/225/98
f 107/243/99 101/244/99 103/219/99 108/222/99
f 102/210/100 104/209/100 106/230/100 103/228/100
f 105/245/101 110/246/101 112/221/101 106/220/101
f 111/224/102 109/223/102 108/232/102 112/234/102
f 119/239/103 107/231/103 109/223/103 120/226/103
f 110/233/104 122/241/104 124/225/104 111/224/104
f 123/242/105 121/240/105 120/226/105 124/225/105
f 113/247/106 119/248/106 121/211/106 114/214/106
f 122/249/107 116/250/107 118/213/107 123/212/107
f 117/208/108 115/207/108 114/236/108 118/238/108
f 101/227/109 113/235/109 115/207/109 102/210/109
f 116/237/110 105/229/110 104/209/110 117/208/110
f 107/251/26 119/252/26 113/253/26 101/254/26
