# Blender 4.2.3 LTS
# www.blender.org
o Cylinder.002
v 0.894063 -0.079105 -0.581653
v 0.894063 0.165698 -0.360809
v 1.246544 -0.079105 -0.435650
v 1.090384 0.165698 -0.279490
v 1.392547 -0.079105 -0.083169
v 1.171703 0.165698 -0.083169
v 1.246544 -0.079105 0.269313
v 1.090384 0.165698 0.113153
v 0.894063 -0.079105 0.415316
v 0.894063 0.165698 0.194472
v 0.541581 -0.079105 0.269313
v 0.697741 0.165698 0.113153
v 0.395578 -0.079105 -0.083169
v 0.616422 0.165698 -0.083169
v 0.541581 -0.079105 -0.435650
v 0.697741 0.165698 -0.279490
v 0.889626 0.695914 -0.248326
v 0.988171 0.695914 -0.207507
v 1.028990 0.695914 -0.108962
v 0.988171 0.695914 -0.010417
v 0.889626 0.695914 0.030402
v 0.791081 0.695914 -0.010417
v 0.750262 0.695914 -0.108962
v 0.791081 0.695914 -0.207507
v 0.890094 1.199803 -0.208709
v 0.954214 1.199793 -0.182565
v 0.980771 1.199793 -0.118451
v 0.954214 1.199793 -0.054337
v 0.890100 1.199793 -0.027780
v 0.825985 1.199793 -0.054337
v 0.799429 1.199793 -0.118451
v 0.825986 1.199793 -0.182565
v 0.888906 1.369657 -0.106397
v 1.030925 0.378131 -0.241038
v 0.890716 0.378131 -0.299114
v 0.890716 0.378131 0.097457
v 1.030925 0.378131 0.039381
v 0.750507 0.378131 -0.241038
v 0.692430 0.378131 -0.100829
v 1.089001 0.378131 -0.100829
v 0.750507 0.378131 0.039381
v 0.971601 0.956984 -0.201079
v 0.888987 0.956990 -0.235031
v 0.806380 0.956984 -0.201079
v 0.772162 0.956984 -0.118469
v 0.806380 0.956984 -0.035858
v 0.888991 0.956984 -0.001640
v 0.971601 0.956984 -0.035858
v 1.005820 0.956984 -0.118469
v -0.000000 -0.085454 -0.826601
v -0.000000 0.273291 -0.460391
v 0.584495 -0.085454 -0.584495
v 0.325546 0.273291 -0.325546
v 0.826601 -0.085453 0.000000
v 0.460391 0.273291 0.000000
v 0.584495 -0.085454 0.584495
v 0.325546 0.273291 0.325546
v -0.000000 -0.085453 0.826601
v -0.000000 0.273291 0.460391
v -0.584495 -0.085454 0.584495
v -0.325546 0.273291 0.325546
v -0.826601 -0.085454 0.000000
v -0.460391 0.273291 0.000000
v -0.584495 -0.085453 -0.584495
v -0.325546 0.273291 -0.325546
v -0.007357 0.867487 -0.296667
v 0.172174 0.867487 -0.222303
v 0.246539 0.867487 -0.042771
v 0.172174 0.867487 0.136761
v -0.007357 0.867487 0.211125
v -0.186889 0.867487 0.136761
v -0.261253 0.867487 -0.042771
v -0.186889 0.867487 -0.222303
v -0.006581 1.873297 -0.208174
v 0.099744 1.873283 -0.164822
v 0.143782 1.873283 -0.058507
v 0.099744 1.873283 0.047809
v -0.006572 1.873283 0.091847
v -0.112888 1.873283 0.047809
v -0.156925 1.873283 -0.058507
v -0.112888 1.873283 -0.164822
v -0.008551 2.037622 -0.038519
v 0.226949 0.584599 -0.261783
v -0.005550 0.584599 -0.358087
v -0.005550 0.584599 0.299519
v 0.226949 0.584599 0.203215
v -0.238049 0.584599 -0.261783
v -0.334353 0.584599 -0.029284
v 0.323253 0.584599 -0.029284
v -0.238049 0.584599 0.203215
v 0.128576 1.432874 -0.195523
v -0.008417 1.432883 -0.251823
v -0.145398 1.432874 -0.195523
v -0.202140 1.432874 -0.058536
v -0.145398 1.432874 0.078451
v -0.008411 1.432874 0.135193
v 0.128576 1.432874 0.078451
v 0.185318 1.432874 -0.058536
v -0.000000 -0.079105 -1.226210
v -0.000000 0.165698 -1.005366
v 0.352482 -0.079105 -1.080207
v 0.196322 0.165698 -0.924047
v 0.498484 -0.079105 -0.727726
v 0.277641 0.165698 -0.727726
v 0.352482 -0.079105 -0.375244
v 0.196322 0.165698 -0.531404
v -0.000000 -0.079105 -0.229241
v -0.000000 0.165698 -0.450085
v -0.352482 -0.079105 -0.375244
v -0.196322 0.165698 -0.531404
v -0.498485 -0.079105 -0.727726
v -0.277641 0.165698 -0.727726
v -0.352482 -0.079105 -1.080207
v -0.196322 0.165698 -0.924047
v -0.004437 0.571171 -0.906632
v 0.103830 0.571171 -0.861786
v 0.148676 0.571171 -0.753519
v 0.103830 0.571171 -0.645252
v -0.004437 0.571171 -0.600406
v -0.112704 0.571171 -0.645252
v -0.157550 0.571171 -0.753519
v -0.112704 0.571171 -0.861786
v -0.003969 1.262431 -0.853266
v 0.060151 1.262425 -0.827122
v 0.086708 1.262425 -0.763008
v 0.060151 1.262425 -0.698894
v -0.003963 1.262425 -0.672337
v -0.068077 1.262425 -0.698894
v -0.094634 1.262425 -0.763008
v -0.068077 1.262425 -0.827122
v -0.005157 1.330365 -0.750954
v 0.136862 0.378131 -0.885595
v -0.003347 0.378131 -0.943671
v -0.003347 0.378131 -0.547100
v 0.136862 0.378131 -0.605176
v -0.143556 0.378131 -0.885595
v -0.201633 0.378131 -0.745385
v 0.194939 0.378131 -0.745385
v -0.143556 0.378131 -0.605176
v 0.077538 0.956984 -0.845636
v -0.005076 0.956990 -0.879588
v -0.087683 0.956984 -0.845636
v -0.121901 0.956984 -0.763026
v -0.087683 0.956984 -0.680415
v -0.005072 0.956984 -0.646197
v 0.077538 0.956984 -0.680415
v 0.111757 0.956984 -0.763026
v -0.679211 -0.079105 -0.103433
v -0.679211 0.165698 0.117410
v -0.326729 -0.079105 0.042569
v -0.482889 0.165698 0.198729
v -0.180726 -0.079105 0.395051
v -0.401570 0.165698 0.395051
v -0.326729 -0.079105 0.747533
v -0.482889 0.165698 0.591373
v -0.679211 -0.079105 0.893535
v -0.679211 0.165698 0.672692
v -1.031693 -0.079105 0.747533
v -0.875532 0.165698 0.591373
v -1.177695 -0.079105 0.395051
v -0.956851 0.165698 0.395051
v -1.031693 -0.079105 0.042569
v -0.875532 0.165698 0.198729
v -0.683647 0.706145 0.224613
v -0.581368 0.706145 0.266978
v -0.539002 0.706145 0.369258
v -0.581368 0.706145 0.471537
v -0.683647 0.706145 0.513903
v -0.785927 0.706145 0.471537
v -0.828292 0.706145 0.369258
v -0.785927 0.706145 0.266978
v -0.683179 1.257523 0.269511
v -0.619059 1.257513 0.295654
v -0.592502 1.257513 0.359768
v -0.619059 1.257513 0.423883
v -0.683174 1.257513 0.450440
v -0.747288 1.257513 0.423883
v -0.773845 1.257513 0.359768
v -0.747288 1.257513 0.295654
v -0.684367 1.369657 0.371822
v -0.542348 0.378131 0.237182
v -0.682558 0.378131 0.179105
v -0.682558 0.378131 0.575677
v -0.542348 0.378131 0.517600
v -0.822767 0.378131 0.237182
v -0.880843 0.378131 0.377391
v -0.484272 0.378131 0.377391
v -0.822767 0.378131 0.517600
v -0.601672 0.956984 0.277140
v -0.684286 0.956990 0.243188
v -0.766893 0.956984 0.277140
v -0.801112 0.956984 0.359751
v -0.766893 0.956984 0.442361
v -0.684283 0.956984 0.476580
v -0.601672 0.956984 0.442361
v -0.567454 0.956984 0.359751
vn 0.2940 0.6402 -0.7097
vn 0.7097 0.6402 -0.2940
vn 0.7097 0.6402 0.2940
vn 0.2940 0.6402 0.7097
vn -0.2940 0.6402 0.7097
vn -0.7097 0.6402 0.2940
vn -0.7097 0.6402 -0.2940
vn -0.2940 0.6402 -0.7097
vn 0.3785 0.1473 -0.9138
vn 0.3755 0.1926 0.9066
vn -0.9125 0.1564 -0.3780
vn 0.9116 0.1625 -0.3776
vn -0.3757 0.1901 0.9070
vn -0.3787 0.1448 -0.9141
vn 0.9086 0.1812 0.3763
vn -0.9096 0.1752 0.3768
vn 0.3772 0.0977 -0.9210
vn -0.3771 0.1011 -0.9206
vn -0.9190 0.1032 0.3806
vn 0.3809 0.0973 0.9195
vn 0.9197 0.0949 -0.3810
vn -0.9189 0.1032 -0.3806
vn -0.3807 0.1007 0.9192
vn 0.9197 0.0949 0.3810
vn 0.8174 0.4661 -0.3386
vn 0.3515 0.3952 0.8487
vn 0.3294 0.4889 -0.8078
vn -0.8217 0.4570 -0.3404
vn -0.8686 0.3407 0.3598
vn 0.8603 0.3645 0.3563
vn -0.3702 0.2537 -0.8937
vn -0.3533 0.3840 0.8530
vn 0.8779 0.3115 -0.3636
vn -0.8852 0.2862 -0.3667
vn 0.3518 0.3934 0.8494
vn 0.3690 0.2646 -0.8910
vn 0.9197 0.0955 0.3809
vn -0.3803 0.1118 0.9181
vn -0.9220 0.0634 -0.3819
vn 0.9217 0.0679 -0.3818
vn 0.3802 0.1136 0.9179
vn -0.9200 0.0911 0.3811
vn -0.3811 0.0456 -0.9234
vn 0.3811 0.0474 -0.9233
vn 0.8353 0.4272 0.3460
vn -0.3522 0.3911 0.8503
vn -0.3302 0.4853 -0.8096
vn -0.8395 0.4175 0.3477
vn 0.2784 0.6861 -0.6721
vn 0.6721 0.6861 -0.2784
vn 0.6721 0.6861 0.2784
vn 0.2784 0.6861 0.6721
vn -0.2784 0.6861 0.6721
vn -0.6721 0.6861 0.2784
vn -0.6721 0.6861 -0.2784
vn -0.2784 0.6861 -0.6721
vn 0.3750 0.1990 -0.9054
vn 0.3674 0.2795 0.8871
vn -0.9022 0.2153 -0.3737
vn 0.8999 0.2263 -0.3728
vn -0.3679 0.2752 0.8882
vn -0.3754 0.1944 -0.9063
vn 0.8922 0.2596 0.3696
vn -0.8948 0.2489 0.3706
vn 0.3775 0.0894 -0.9217
vn -0.3774 0.0925 -0.9214
vn -0.9198 0.0944 0.3810
vn 0.3812 0.0890 0.9202
vn 0.9204 0.0868 -0.3812
vn -0.9197 0.0945 -0.3810
vn -0.3811 0.0921 0.9199
vn 0.9204 0.0868 0.3812
vn 0.6857 0.6702 -0.2840
vn 0.3080 0.5935 0.7435
vn 0.2724 0.6927 -0.6678
vn -0.6933 0.6609 -0.2872
vn -0.8548 0.3794 0.3541
vn 0.8447 0.4050 0.3499
vn -0.3669 0.2845 -0.8857
vn -0.3463 0.4258 0.8359
vn 0.8662 0.3478 -0.3588
vn -0.8752 0.3202 -0.3625
vn 0.3444 0.4358 0.8315
vn 0.3655 0.2965 -0.8823
vn 0.9183 0.1100 0.3804
vn -0.3798 0.1224 0.9169
vn -0.9205 0.0856 -0.3813
vn 0.9202 0.0890 -0.3812
vn 0.3797 0.1238 0.9168
vn -0.9186 0.1067 0.3805
vn -0.3806 0.0720 -0.9219
vn 0.3805 0.0734 -0.9218
vn 0.7180 0.6293 0.2974
vn -0.3093 0.5887 0.7468
vn -0.2736 0.6893 -0.6708
vn -0.7258 0.6187 0.3006
vn 0.3767 0.1766 -0.9094
vn 0.3706 0.2492 0.8947
vn -0.9068 0.1913 -0.3756
vn 0.9050 0.2011 -0.3749
vn -0.3710 0.2452 0.8957
vn -0.3769 0.1725 -0.9100
vn 0.8989 0.2311 0.3723
vn -0.9009 0.2215 0.3732
vn 0.3779 0.0778 -0.9226
vn -0.3778 0.0805 -0.9224
vn -0.9208 0.0822 0.3814
vn 0.3815 0.0774 0.9211
vn 0.9212 0.0756 -0.3816
vn -0.9208 0.0822 -0.3814
vn -0.3815 0.0802 0.9209
vn 0.9212 0.0755 0.3816
vn 0.5587 0.7965 -0.2314
vn 0.2605 0.7324 0.6290
vn 0.2194 0.8140 -0.5379
vn -0.5675 0.7891 -0.2351
vn 0.9195 0.0974 0.3809
vn -0.3804 0.1084 0.9184
vn -0.9212 0.0757 -0.3816
vn 0.9210 0.0787 -0.3815
vn 0.3804 0.1096 0.9183
vn -0.3808 0.0637 -0.9225
vn 0.3808 0.0649 -0.9224
vn 0.5969 0.7633 0.2473
vn -0.2623 0.7282 0.6332
vn -0.2208 0.8113 -0.5413
vn -0.6066 0.7543 0.2513
vn 0.3795 0.1284 -0.9162
vn 0.3769 0.1726 0.9100
vn -0.9151 0.1372 -0.3791
vn 0.9144 0.1432 -0.3787
vn -0.3771 0.1702 0.9104
vn -0.3796 0.1259 -0.9165
vn 0.9118 0.1615 0.3777
vn -0.9126 0.1556 0.3780
vn 0.3778 0.0790 -0.9225
vn -0.3778 0.0818 -0.9223
vn -0.9207 0.0835 0.3813
vn 0.3815 0.0787 0.9210
vn 0.9212 0.0768 -0.3816
vn -0.9206 0.0836 -0.3813
vn -0.3814 0.0815 0.9208
vn 0.9212 0.0768 0.3816
vn 0.7222 0.6237 -0.2991
vn 0.3206 0.5460 0.7740
vn 0.2879 0.6471 -0.7059
vn -0.7291 0.6142 -0.3020
vn 0.9174 0.1185 0.3800
vn -0.3792 0.1352 0.9154
vn -0.9205 0.0853 -0.3813
vn 0.9201 0.0899 -0.3811
vn 0.3791 0.1371 0.9152
vn -0.9179 0.1139 0.3802
vn -0.3807 0.0668 -0.9223
vn 0.3806 0.0687 -0.9222
vn 0.7513 0.5820 0.3112
vn -0.3218 0.5412 0.7769
vn -0.2891 0.6436 -0.7087
vn -0.7583 0.5713 0.3141
vt 0.464342 0.907879
vt 0.466685 0.915260
vt 0.461262 0.917292
vt 0.457044 0.911110
vt 0.456799 0.920633
vt 0.451153 0.916263
vt 0.454371 0.924966
vt 0.447628 0.923913
vt 0.496714 0.925139
vt 0.489775 0.925751
vt 0.487659 0.921443
vt 0.493646 0.917108
vt 0.483641 0.917715
vt 0.487677 0.911291
vt 0.478381 0.915232
vt 0.480420 0.907914
vt 0.472494 0.914775
vt 0.472465 0.906832
vt 0.464022 0.921989
vt 0.467984 0.920657
vt 0.469320 0.928058
vt 0.466789 0.928691
vt 0.483598 0.924761
vt 0.485763 0.927552
vt 0.481164 0.931691
vt 0.479304 0.930191
vt 0.472255 0.920293
vt 0.476520 0.920811
vt 0.474607 0.928190
vt 0.471971 0.927886
vt 0.460696 0.924067
vt 0.464496 0.929690
vt 0.480443 0.922361
vt 0.477098 0.928978
vt 0.458337 0.926610
vt 0.462541 0.930936
vt 0.468336 0.933440
vt 0.470023 0.933062
vt 0.470543 0.936494
vt 0.469601 0.936862
vt 0.471712 0.932947
vt 0.471519 0.936402
vt 0.473403 0.933153
vt 0.475089 0.933686
vt 0.473442 0.937084
vt 0.472509 0.936588
vt 0.476707 0.934556
vt 0.478213 0.935713
vt 0.475089 0.938986
vt 0.474308 0.937863
vt 0.466669 0.934128
vt 0.468715 0.937538
vt 0.465107 0.935047
vt 0.467816 0.938627
vt 0.471445 0.939591
vt 0.458393 0.911785
vt 0.462462 0.918167
vt 0.458238 0.922165
vt 0.452101 0.918098
vt 0.455795 0.926889
vt 0.449052 0.926165
vt 0.497343 0.925690
vt 0.490913 0.925815
vt 0.489057 0.921429
vt 0.494757 0.917698
vt 0.485244 0.917534
vt 0.489254 0.911902
vt 0.479863 0.915308
vt 0.482210 0.908446
vt 0.474037 0.914795
vt 0.474102 0.907205
vt 0.467974 0.915418
vt 0.465901 0.908270
vt 0.462020 0.924990
vt 0.465285 0.922411
vt 0.467388 0.926233
vt 0.464774 0.927892
vt 0.482269 0.922010
vt 0.485435 0.924491
vt 0.482781 0.927516
vt 0.480161 0.925914
vt 0.469347 0.920662
vt 0.473798 0.919990
vt 0.473759 0.924603
vt 0.470452 0.925088
vt 0.459819 0.927946
vt 0.462711 0.929764
vt 0.478244 0.920420
vt 0.477088 0.924877
vt 0.487441 0.927378
vt 0.484813 0.929422
vt 0.468516 0.933865
vt 0.470199 0.932932
vt 0.472007 0.936521
vt 0.471271 0.937341
vt 0.471940 0.932314
vt 0.472853 0.936058
vt 0.473747 0.932071
vt 0.475600 0.932210
vt 0.474704 0.936101
vt 0.473774 0.935906
vt 0.477433 0.932771
vt 0.479144 0.933732
vt 0.476410 0.937414
vt 0.475595 0.936590
vt 0.466922 0.935125
vt 0.470726 0.938679
vt 0.480752 0.934984
vt 0.477094 0.938721
vt 0.473908 0.938389
vt 0.464600 0.907398
vt 0.467322 0.914672
vt 0.461874 0.916893
vt 0.457440 0.910918
vt 0.457512 0.920310
vt 0.451795 0.916334
vt 0.454914 0.924590
vt 0.448590 0.923406
vt 0.498666 0.924193
vt 0.491418 0.924998
vt 0.489124 0.920549
vt 0.495266 0.915861
vt 0.484842 0.916806
vt 0.488806 0.909918
vt 0.479344 0.914565
vt 0.480878 0.906671
vt 0.473311 0.913892
vt 0.472575 0.905935
vt 0.464745 0.921610
vt 0.468781 0.920196
vt 0.469797 0.925053
vt 0.466743 0.925913
vt 0.484995 0.924081
vt 0.487243 0.926937
vt 0.484224 0.929406
vt 0.482054 0.927583
vt 0.473171 0.919725
vt 0.477581 0.920197
vt 0.476313 0.925111
vt 0.473051 0.924778
vt 0.461383 0.923740
vt 0.464045 0.927213
vt 0.481668 0.921685
vt 0.479387 0.926074
vt 0.458998 0.926338
vt 0.461842 0.928767
vt 0.469136 0.933560
vt 0.470948 0.933136
vt 0.471672 0.937365
vt 0.470853 0.937773
vt 0.472759 0.933006
vt 0.472529 0.937257
vt 0.474569 0.933220
vt 0.476384 0.933780
vt 0.474233 0.937988
vt 0.473411 0.937448
vt 0.478146 0.934703
vt 0.479808 0.935929
vt 0.475588 0.940352
vt 0.474981 0.938887
vt 0.467341 0.934322
vt 0.470103 0.938560
vt 0.465673 0.935315
vt 0.469373 0.940114
vt 0.472566 0.939755
vt 0.460669 0.912459
vt 0.464291 0.918605
vt 0.460171 0.921989
vt 0.454699 0.917610
vt 0.457443 0.925990
vt 0.451181 0.924477
vt 0.497863 0.925841
vt 0.491318 0.926496
vt 0.489272 0.922427
vt 0.494876 0.918293
vt 0.485498 0.919009
vt 0.489222 0.912900
vt 0.480588 0.916763
vt 0.482293 0.909764
vt 0.475072 0.915855
vt 0.475038 0.908724
vt 0.469566 0.916875
vt 0.467670 0.909693
vt 0.463632 0.925306
vt 0.466823 0.923258
vt 0.469474 0.929885
vt 0.467228 0.930888
vt 0.482568 0.923572
vt 0.485625 0.925790
vt 0.481593 0.931217
vt 0.479447 0.930021
vt 0.470637 0.921989
vt 0.474734 0.921507
vt 0.474482 0.928994
vt 0.471925 0.929225
vt 0.461247 0.927689
vt 0.465258 0.932118
vt 0.478843 0.922038
vt 0.477036 0.929255
vt 0.487742 0.928419
vt 0.483427 0.932692
vt 0.469322 0.934977
vt 0.470928 0.934291
vt 0.472421 0.938191
vt 0.471669 0.938868
vt 0.472568 0.933855
vt 0.473235 0.937830
vt 0.474249 0.933722
vt 0.475958 0.933904
vt 0.474938 0.937952
vt 0.474090 0.937743
vt 0.477642 0.934436
vt 0.479223 0.935300
vt 0.476503 0.939166
vt 0.475750 0.938413
vt 0.467763 0.935923
vt 0.471022 0.940010
vt 0.480697 0.936409
vt 0.477157 0.940339
vt 0.474085 0.940137
s 0
f 1/1/1 2/2/1 4/3/1 3/4/1
f 3/4/2 4/3/2 6/5/2 5/6/2
f 5/6/3 6/5/3 8/7/3 7/8/3
f 7/9/4 8/10/4 10/11/4 9/12/4
f 9/12/5 10/11/5 12/13/5 11/14/5
f 11/14/6 12/13/6 14/15/6 13/16/6
f 13/16/7 14/15/7 16/17/7 15/18/7
f 15/18/8 16/17/8 2/2/8 1/1/8
f 34/19/9 35/20/9 17/21/9 18/22/9
f 36/23/10 37/24/10 20/25/10 21/26/10
f 38/27/11 39/28/11 23/29/11 24/30/11
f 40/31/12 34/19/12 18/22/12 19/32/12
f 41/33/13 36/23/13 21/26/13 22/34/13
f 35/20/14 38/27/14 24/30/14 17/21/14
f 37/35/15 40/31/15 19/32/15 20/36/15
f 39/28/16 41/33/16 22/34/16 23/29/16
f 42/37/17 43/38/17 25/39/17 26/40/17
f 43/38/18 44/41/18 32/42/18 25/39/18
f 45/43/19 46/44/19 30/45/19 31/46/19
f 47/47/20 48/48/20 28/49/20 29/50/20
f 49/51/21 42/37/21 26/40/21 27/52/21
f 44/41/22 45/43/22 31/46/22 32/42/22
f 46/44/23 47/47/23 29/50/23 30/45/23
f 48/53/24 49/51/24 27/52/24 28/54/24
f 33/55/25 27/52/25 26/40/25
f 33/55/26 29/50/26 28/49/26
f 25/39/27 33/55/27 26/40/27
f 31/46/28 33/55/28 32/42/28
f 14/15/29 12/13/29 41/33/29 39/28/29
f 8/7/30 6/5/30 40/31/30 37/35/30
f 2/2/31 16/17/31 38/27/31 35/20/31
f 12/13/32 10/11/32 36/23/32 41/33/32
f 6/5/33 4/3/33 34/19/33 40/31/33
f 16/17/34 14/15/34 39/28/34 38/27/34
f 10/11/35 8/10/35 37/24/35 36/23/35
f 4/3/36 2/2/36 35/20/36 34/19/36
f 20/36/37 19/32/37 49/51/37 48/53/37
f 22/34/38 21/26/38 47/47/38 46/44/38
f 24/30/39 23/29/39 45/43/39 44/41/39
f 19/32/40 18/22/40 42/37/40 49/51/40
f 21/26/41 20/25/41 48/48/41 47/47/41
f 23/29/42 22/34/42 46/44/42 45/43/42
f 17/21/43 24/30/43 44/41/43 43/38/43
f 18/22/44 17/21/44 43/38/44 42/37/44
f 33/55/45 28/54/45 27/52/45
f 33/55/46 30/45/46 29/50/46
f 25/39/47 32/42/47 33/55/47
f 31/46/48 30/45/48 33/55/48
f 50/56/49 51/57/49 53/58/49 52/59/49
f 52/59/50 53/58/50 55/60/50 54/61/50
f 54/62/51 55/63/51 57/64/51 56/65/51
f 56/65/52 57/64/52 59/66/52 58/67/52
f 58/67/53 59/66/53 61/68/53 60/69/53
f 60/69/54 61/68/54 63/70/54 62/71/54
f 62/71/55 63/70/55 65/72/55 64/73/55
f 64/73/56 65/72/56 51/57/56 50/56/56
f 83/74/57 84/75/57 66/76/57 67/77/57
f 85/78/58 86/79/58 69/80/58 70/81/58
f 87/82/59 88/83/59 72/84/59 73/85/59
f 89/86/60 83/74/60 67/77/60 68/87/60
f 90/88/61 85/78/61 70/81/61 71/89/61
f 84/75/62 87/82/62 73/85/62 66/76/62
f 86/79/63 89/90/63 68/91/63 69/80/63
f 88/83/64 90/88/64 71/89/64 72/84/64
f 91/92/65 92/93/65 74/94/65 75/95/65
f 92/93/66 93/96/66 81/97/66 74/94/66
f 94/98/67 95/99/67 79/100/67 80/101/67
f 96/102/68 97/103/68 77/104/68 78/105/68
f 98/106/69 91/92/69 75/95/69 76/107/69
f 93/96/70 94/98/70 80/101/70 81/97/70
f 95/99/71 96/102/71 78/105/71 79/100/71
f 97/103/72 98/108/72 76/109/72 77/104/72
f 82/110/73 76/107/73 75/95/73
f 82/110/74 78/105/74 77/104/74
f 74/94/75 82/110/75 75/95/75
f 80/101/76 82/110/76 81/97/76
f 63/70/77 61/68/77 90/88/77 88/83/77
f 57/64/78 55/63/78 89/90/78 86/79/78
f 51/57/79 65/72/79 87/82/79 84/75/79
f 61/68/80 59/66/80 85/78/80 90/88/80
f 55/60/81 53/58/81 83/74/81 89/86/81
f 65/72/82 63/70/82 88/83/82 87/82/82
f 59/66/83 57/64/83 86/79/83 85/78/83
f 53/58/84 51/57/84 84/75/84 83/74/84
f 69/80/85 68/91/85 98/108/85 97/103/85
f 71/89/86 70/81/86 96/102/86 95/99/86
f 73/85/87 72/84/87 94/98/87 93/96/87
f 68/87/88 67/77/88 91/92/88 98/106/88
f 70/81/89 69/80/89 97/103/89 96/102/89
f 72/84/90 71/89/90 95/99/90 94/98/90
f 66/76/91 73/85/91 93/96/91 92/93/91
f 67/77/92 66/76/92 92/93/92 91/92/92
f 82/110/93 77/104/93 76/109/93
f 82/110/94 79/100/94 78/105/94
f 74/94/95 81/97/95 82/110/95
f 80/101/96 79/100/96 82/110/96
f 99/111/1 100/112/1 102/113/1 101/114/1
f 101/114/2 102/113/2 104/115/2 103/116/2
f 103/116/3 104/115/3 106/117/3 105/118/3
f 105/119/4 106/120/4 108/121/4 107/122/4
f 107/122/5 108/121/5 110/123/5 109/124/5
f 109/124/6 110/123/6 112/125/6 111/126/6
f 111/126/7 112/125/7 114/127/7 113/128/7
f 113/128/8 114/127/8 100/112/8 99/111/8
f 132/129/97 133/130/97 115/131/97 116/132/97
f 134/133/98 135/134/98 118/135/98 119/136/98
f 136/137/99 137/138/99 121/139/99 122/140/99
f 138/141/100 132/129/100 116/132/100 117/142/100
f 139/143/101 134/133/101 119/136/101 120/144/101
f 133/130/102 136/137/102 122/140/102 115/131/102
f 135/145/103 138/141/103 117/142/103 118/146/103
f 137/138/104 139/143/104 120/144/104 121/139/104
f 140/147/105 141/148/105 123/149/105 124/150/105
f 141/148/106 142/151/106 130/152/106 123/149/106
f 143/153/107 144/154/107 128/155/107 129/156/107
f 145/157/108 146/158/108 126/159/108 127/160/108
f 147/161/109 140/147/109 124/150/109 125/162/109
f 142/151/110 143/153/110 129/156/110 130/152/110
f 144/154/111 145/157/111 127/160/111 128/155/111
f 146/163/112 147/161/112 125/162/112 126/164/112
f 131/165/113 125/162/113 124/150/113
f 131/165/114 127/160/114 126/159/114
f 123/149/115 131/165/115 124/150/115
f 129/156/116 131/165/116 130/152/116
f 112/125/29 110/123/29 139/143/29 137/138/29
f 106/117/30 104/115/30 138/141/30 135/145/30
f 100/112/31 114/127/31 136/137/31 133/130/31
f 110/123/32 108/121/32 134/133/32 139/143/32
f 104/115/33 102/113/33 132/129/33 138/141/33
f 114/127/34 112/125/34 137/138/34 136/137/34
f 108/121/35 106/120/35 135/134/35 134/133/35
f 102/113/36 100/112/36 133/130/36 132/129/36
f 118/146/117 117/142/117 147/161/117 146/163/117
f 120/144/118 119/136/118 145/157/118 144/154/118
f 122/140/119 121/139/119 143/153/119 142/151/119
f 117/142/120 116/132/120 140/147/120 147/161/120
f 119/136/121 118/135/121 146/158/121 145/157/121
f 121/139/67 120/144/67 144/154/67 143/153/67
f 115/131/122 122/140/122 142/151/122 141/148/122
f 116/132/123 115/131/123 141/148/123 140/147/123
f 131/165/124 126/164/124 125/162/124
f 131/165/125 128/155/125 127/160/125
f 123/149/126 130/152/126 131/165/126
f 129/156/127 128/155/127 131/165/127
f 148/166/1 149/167/1 151/168/1 150/169/1
f 150/169/2 151/168/2 153/170/2 152/171/2
f 152/172/3 153/173/3 155/174/3 154/175/3
f 154/175/4 155/174/4 157/176/4 156/177/4
f 156/177/5 157/176/5 159/178/5 158/179/5
f 158/179/6 159/178/6 161/180/6 160/181/6
f 160/181/7 161/180/7 163/182/7 162/183/7
f 162/183/8 163/182/8 149/167/8 148/166/8
f 181/184/128 182/185/128 164/186/128 165/187/128
f 183/188/129 184/189/129 167/190/129 168/191/129
f 185/192/130 186/193/130 170/194/130 171/195/130
f 187/196/131 181/184/131 165/187/131 166/197/131
f 188/198/132 183/188/132 168/191/132 169/199/132
f 182/185/133 185/192/133 171/195/133 164/186/133
f 184/189/134 187/200/134 166/201/134 167/190/134
f 186/193/135 188/198/135 169/199/135 170/194/135
f 189/202/136 190/203/136 172/204/136 173/205/136
f 190/203/137 191/206/137 179/207/137 172/204/137
f 192/208/138 193/209/138 177/210/138 178/211/138
f 194/212/139 195/213/139 175/214/139 176/215/139
f 196/216/140 189/202/140 173/205/140 174/217/140
f 191/206/141 192/208/141 178/211/141 179/207/141
f 193/209/142 194/212/142 176/215/142 177/210/142
f 195/213/143 196/218/143 174/219/143 175/214/143
f 180/220/144 174/217/144 173/205/144
f 180/220/145 176/215/145 175/214/145
f 172/204/146 180/220/146 173/205/146
f 178/211/147 180/220/147 179/207/147
f 161/180/29 159/178/29 188/198/29 186/193/29
f 155/174/30 153/173/30 187/200/30 184/189/30
f 149/167/31 163/182/31 185/192/31 182/185/31
f 159/178/32 157/176/32 183/188/32 188/198/32
f 153/170/33 151/168/33 181/184/33 187/196/33
f 163/182/34 161/180/34 186/193/34 185/192/34
f 157/176/35 155/174/35 184/189/35 183/188/35
f 151/168/36 149/167/36 182/185/36 181/184/36
f 167/190/148 166/201/148 196/218/148 195/213/148
f 169/199/149 168/191/149 194/212/149 193/209/149
f 171/195/150 170/194/150 192/208/150 191/206/150
f 166/197/151 165/187/151 189/202/151 196/216/151
f 168/191/152 167/190/152 195/213/152 194/212/152
f 170/194/153 169/199/153 193/209/153 192/208/153
f 164/186/154 171/195/154 191/206/154 190/203/154
f 165/187/155 164/186/155 190/203/155 189/202/155
f 180/220/156 175/214/156 174/219/156
f 180/220/157 177/210/157 176/215/157
f 172/204/158 179/207/158 180/220/158
f 178/211/159 177/210/159 180/220/159
