# Blender 4.2.1 LTS
# www.blender.org
o Cube.019
v -0.472485 3.712604 -0.211890
v -0.943362 2.442457 0.266590
v -1.146272 0.994172 -0.512498
v 0.934555 2.936209 -0.070306
v 1.034010 0.910893 0.553466
v -0.963646 2.786725 0.249745
v -0.825589 3.050144 0.246041
v -0.508237 3.578375 0.146816
v -0.905108 0.310940 -0.511653
v 0.449303 0.243081 -0.592029
v -0.101788 3.979015 -0.188081
v 0.162541 3.887483 -0.167872
v 1.071212 0.342253 -0.266153
v 0.925153 0.162104 0.012874
v 0.874054 0.182530 -0.232235
v 0.978439 0.582122 0.566527
v 0.890148 0.294263 0.542935
v 0.364269 0.129342 0.558483
v -0.101452 3.886971 0.315890
v -1.036438 1.947763 0.341516
v -0.966825 3.044260 -0.354925
v -1.101858 2.630726 -0.374392
v -1.078641 2.140106 -0.449920
v -1.124503 1.541397 -0.400302
v 0.837547 2.315529 -0.296784
v 0.819692 1.879379 0.367379
v 0.583173 1.021290 0.645800
v -0.037827 1.329075 0.518978
v -0.621099 0.943342 0.540376
v 0.463215 2.841460 0.571530
v 0.029780 2.592322 0.617952
v -0.477269 2.520182 0.460459
v 1.167781 1.380516 -0.317678
v -0.710064 1.523900 -0.521232
v 0.006123 1.592003 -0.507188
v 0.599681 1.578116 -0.522421
v -0.532252 2.571545 -0.444338
v -0.178460 2.843415 -0.351978
v 0.454892 2.873824 -0.229318
v -1.338537 0.958751 0.254203
v -1.481148 0.938426 -0.014647
v -1.288025 2.173034 -0.254728
v -1.038557 3.017580 -0.250033
v -0.838268 3.319259 -0.199650
v -0.427242 3.416426 -0.288457
v 0.266208 3.345336 -0.182356
v 0.018749 3.017953 0.596682
v -0.041758 3.342700 0.422440
v -0.076894 3.647060 0.402167
v -0.332781 3.437936 0.310189
v -0.488169 -0.005991 -0.324705
v 0.005754 -0.002966 -0.299593
v 0.479301 0.051981 -0.286242
v 0.139329 0.033871 0.297714
v -0.090576 4.076990 -0.054196
v -0.397464 3.825345 0.089951
v 0.555800 0.578494 0.719999
v 0.073226 0.458303 0.658634
v -0.500616 0.558314 0.572282
v 0.376199 1.947508 0.465153
v -0.014930 1.892848 0.517834
v -0.556947 1.786300 0.455201
v 1.148062 0.842447 -0.297157
v 1.164015 0.338656 0.013663
v 1.109049 0.340269 0.282181
v 1.196779 1.839850 -0.147975
v 1.193284 1.608893 0.052714
v -0.501949 0.297248 -0.710966
v -0.617892 0.882867 -0.668279
v 0.020059 0.571630 -0.762230
v -0.006678 0.889905 -0.758810
v 0.539049 0.574986 -0.712846
v 0.552583 0.898268 -0.703258
v -0.630645 2.186478 -0.535825
v 0.439008 2.460746 -0.359743
v 0.530342 2.009708 -0.486170
v -1.277387 0.390470 0.016314
v -1.128367 0.340491 -0.251453
v -1.286432 1.580341 0.197572
v -1.415734 1.544152 -0.035599
v -0.873134 0.139147 -0.308121
v 0.851083 0.160610 0.357276
v -1.065131 1.121470 0.429152
v 0.862487 2.901934 0.574426
v -0.957833 0.130677 -0.047606
v -0.750502 0.079213 0.299790
v -0.935493 0.163521 0.299945
v -0.050804 0.220707 -0.661581
v 0.109842 0.103975 -0.540950
v -0.483934 0.069615 -0.557982
v 0.914902 0.990930 -0.560742
v 0.958577 0.782016 -0.524449
v -0.363191 0.174058 0.492136
v 0.521770 0.072469 0.402415
v -0.826144 0.249075 0.452671
v -0.959320 0.825102 0.495217
v -1.026260 0.364815 0.387678
v -1.133404 0.868877 0.422641
v -1.036412 1.555985 0.362815
v 1.021057 1.661841 -0.376589
v 0.821032 2.265132 0.451488
v 1.238955 0.903443 0.393573
v 1.107342 2.882813 0.053897
v 1.149082 2.842945 0.287929
v 1.013269 2.802608 0.485466
v -1.375918 0.932725 -0.352676
v -1.111108 2.437829 0.166220
v -1.183426 2.715310 -0.011498
v -1.037366 3.057199 0.030304
v -1.167024 2.724412 -0.176369
v -0.845959 3.329592 -0.009220
v -0.113944 4.050113 0.166896
v -0.412678 3.818401 -0.111743
v 0.502543 0.209938 0.644973
v 0.550995 0.320015 0.703701
v -0.063616 0.310766 0.615435
v 1.265894 0.536775 0.009092
v 1.317969 0.967716 0.025823
v 1.246540 0.547659 0.318340
v 1.299946 0.915709 0.278358
v 1.036607 2.456374 -0.030091
v 1.036645 1.571154 0.274197
v 1.172218 1.960273 0.082184
v 1.090839 2.317304 0.124757
v 0.984333 1.937249 0.255978
v -1.148278 0.330089 0.266675
v -1.283946 0.534805 -0.269318
v -1.451272 0.944910 -0.239200
v -1.254742 2.092542 0.180554
v -1.306121 2.181232 0.064524
v -1.360629 2.117262 -0.040635
v -1.345216 1.557633 -0.280780
v -1.339830 1.942917 -0.226769
v 1.423345 0.481454 1.872077
v 1.432829 0.516016 1.078010
v 0.849713 0.572573 1.060119
v 0.975520 0.657533 1.895950
v 1.562266 0.262672 2.096989
v 1.576879 0.315926 0.873481
v 0.678407 0.403070 0.845913
v 0.872252 0.533977 2.133773
v 1.548042 0.073237 2.058219
v 1.560712 0.119411 0.997375
v 0.781690 0.194969 0.973472
v 0.949764 0.308473 2.090113
v 1.967169 0.402843 1.804985
v 1.912978 0.404153 1.398514
v 1.722696 0.393107 1.848756
v 1.967614 0.278088 1.804581
v 1.723141 0.268352 1.848351
v 1.913423 0.279398 1.398109
v 1.999748 0.524937 1.418701
v 1.942219 0.686206 0.606511
v 1.370410 0.732838 0.680653
v 1.834176 0.744741 1.390789
v 2.152014 0.323256 1.650842
v 1.998356 0.225345 0.439717
v 1.105029 0.390462 0.514169
v 1.689436 0.494884 1.648301
v 2.186711 0.124420 1.597464
v 2.033053 0.026510 0.386339
v 1.139726 0.191626 0.460791
v 1.724133 0.296049 1.594923
vn -0.4496 0.5323 -0.7173
vn -0.4537 0.1221 0.8828
vn -0.4338 0.0108 -0.9009
vn 0.3447 0.8021 -0.4877
vn 0.4534 0.0992 0.8858
vn -0.5782 0.1804 0.7957
vn -0.5120 0.3502 0.7844
vn -0.5640 0.4033 0.7206
vn -0.5266 -0.4285 -0.7343
vn 0.2853 -0.5793 -0.7635
vn -0.0612 0.5846 -0.8090
vn 0.7684 0.4377 -0.4668
vn 0.6822 -0.5145 -0.5195
vn 0.4441 -0.8957 -0.0243
vn 0.4458 -0.8174 -0.3648
vn 0.5086 -0.1390 0.8497
vn 0.5140 -0.5096 0.6901
vn -0.0214 -0.8051 0.5927
vn 0.1227 0.5929 0.7959
vn -0.4053 0.0960 0.9091
vn -0.4503 0.3263 -0.8311
vn -0.5575 0.2352 -0.7962
vn -0.4230 0.0385 -0.9053
vn -0.3865 0.1165 -0.9149
vn 0.4707 0.2640 -0.8419
vn 0.4157 0.0361 0.9088
vn 0.0886 0.1733 0.9809
vn -0.0721 0.1124 0.9910
vn -0.1298 0.1032 0.9862
vn 0.2267 0.4674 0.8545
vn -0.0557 -0.0377 0.9977
vn -0.3290 0.0664 0.9420
vn 0.8245 0.1044 -0.5561
vn -0.1586 0.1245 -0.9795
vn 0.0189 0.1927 -0.9811
vn 0.1493 0.1783 -0.9726
vn -0.0041 0.2876 -0.9577
vn 0.1016 0.1931 -0.9759
vn 0.3602 0.6087 -0.7069
vn -0.7699 -0.0241 0.6377
vn -0.9797 -0.1149 0.1641
vn -0.8402 0.1553 -0.5196
vn -0.8571 0.4349 -0.2762
vn -0.7435 0.6091 -0.2762
vn 0.0405 0.1782 -0.9832
vn 0.7352 0.4318 -0.5225
vn 0.1635 0.3561 0.9200
vn 0.3890 0.3295 0.8603
vn 0.2299 0.2951 0.9274
vn -0.4103 0.2911 0.8642
vn -0.1498 -0.9789 -0.1391
vn 0.0655 -0.9856 -0.1561
vn 0.2319 -0.9379 -0.2582
vn -0.0021 -0.9756 0.2198
vn 0.1095 0.9907 -0.0805
vn -0.6840 0.6367 0.3561
vn 0.1143 0.0363 0.9928
vn -0.1273 -0.0476 0.9907
vn -0.1753 -0.0934 0.9801
vn 0.1389 -0.0250 0.9900
vn 0.0209 -0.0729 0.9971
vn -0.1730 0.0307 0.9844
vn 0.8352 -0.0959 -0.5415
vn 0.7698 -0.6366 -0.0463
vn 0.7103 -0.6237 0.3263
vn 0.9167 0.1775 -0.3581
vn 0.9513 0.1271 0.2810
vn -0.2199 -0.2918 -0.9309
vn -0.2277 0.0724 -0.9710
vn 0.0233 -0.1197 -0.9925
vn -0.0141 0.1560 -0.9877
vn 0.2882 -0.2121 -0.9338
vn 0.2058 0.1370 -0.9690
vn -0.0463 0.1009 -0.9938
vn 0.1683 0.2519 -0.9530
vn 0.1033 0.2076 -0.9727
vn -0.8252 -0.5626 0.0500
vn -0.6653 -0.6552 -0.3579
vn -0.7339 0.0948 0.6726
vn -0.9865 0.1103 0.1207
vn -0.4930 -0.8071 -0.3250
vn 0.4124 -0.8695 0.2717
vn -0.3962 0.1514 0.9056
vn 0.1136 0.6756 0.7285
vn -0.4952 -0.8675 -0.0481
vn -0.2284 -0.9009 0.3690
vn -0.5003 -0.7640 0.4075
vn 0.0827 -0.4862 -0.8700
vn 0.1285 -0.8007 -0.5851
vn -0.1786 -0.7877 -0.5896
vn 0.4880 0.0812 -0.8690
vn 0.6151 -0.1435 -0.7753
vn -0.1327 -0.6251 0.7692
vn 0.1859 -0.9459 0.2661
vn -0.3073 -0.4469 0.8401
vn -0.2869 -0.0094 0.9579
vn -0.5253 -0.3074 0.7934
vn -0.5362 -0.0396 0.8432
vn -0.3899 0.0991 0.9155
vn 0.5101 0.2052 -0.8353
vn 0.3454 -0.2155 0.9134
vn 0.7507 0.0941 0.6539
vn 0.7072 0.6581 -0.2584
vn 0.7724 0.5728 0.2744
vn 0.5476 0.4329 0.7161
vn -0.6993 -0.1123 -0.7060
vn -0.6004 0.2091 0.7719
vn -0.9219 0.2867 0.2604
vn -0.8245 0.4670 0.3194
vn -0.9207 0.2953 -0.2552
vn -0.7604 0.6036 0.2397
vn 0.2087 0.8764 0.4340
vn -0.6361 0.7404 -0.2174
vn 0.0932 -0.6447 0.7587
vn 0.1377 -0.2922 0.9464
vn -0.1503 -0.3300 0.9319
vn 0.9436 -0.2843 -0.1695
vn 0.9877 0.0185 -0.1553
vn 0.8378 -0.3407 0.4265
vn 0.9516 0.0783 0.2971
vn 0.8724 0.0694 -0.4838
vn 0.7190 0.2470 0.6497
vn 0.9066 0.1044 0.4090
vn 0.9959 0.0133 0.0895
vn 0.6669 -0.0222 0.7448
vn -0.7129 -0.5208 0.4696
vn -0.7792 -0.4053 -0.4781
vn -0.9338 -0.1071 -0.3414
vn -0.7100 0.1575 0.6864
vn -0.8837 0.2192 0.4136
vn -0.9789 0.1824 0.0924
vn -0.7593 0.1357 -0.6364
vn -0.8534 0.0787 -0.5153
vn 0.5630 0.7912 0.2387
vn 0.4430 0.8523 -0.2780
vn -0.2798 0.9159 -0.2877
vn -0.1418 0.9652 0.2196
vn 0.6511 0.2057 0.7306
vn 0.6135 0.1341 -0.7782
vn -0.6625 0.1524 -0.7334
vn -0.5033 0.3945 0.7688
vn 0.7701 -0.1829 0.6112
vn 0.7700 -0.3844 -0.5093
vn -0.6211 -0.6099 -0.4921
vn -0.5030 -0.3277 0.7997
vn -0.6078 -0.6181 -0.4986
vn -0.0906 -0.5490 0.8309
vn 0.6099 -0.5553 -0.5653
vn -0.6341 0.5925 -0.4969
vn 0.5878 0.5940 -0.5493
vn -0.0960 0.5335 0.8403
vn 0.7745 0.5761 0.2613
vn 0.4789 0.7170 -0.5065
vn -0.4156 0.8576 -0.3028
vn 0.0731 0.9146 0.3978
vn 0.6334 0.1591 0.7573
vn 0.5658 0.3625 -0.7406
vn -0.8303 0.3132 -0.4610
vn -0.4068 0.2978 0.8636
vn 0.8979 0.0390 0.4385
vn 0.5977 0.3035 -0.7421
vn -0.6417 0.0924 -0.7613
vn -0.4876 -0.3047 0.8182
vt 0.191206 0.893281
vt 0.190711 0.889328
vt 0.190217 0.888834
vt 0.185771 0.886364
vt 0.183794 0.882905
vt 0.186759 0.885870
vt 0.185277 0.882411
vt 0.187747 0.885375
vt 0.187747 0.881917
vt 0.189723 0.885375
vt 0.184289 0.881917
vt 0.182806 0.878953
vt 0.184289 0.879447
vt 0.181818 0.879447
vt 0.198123 0.881423
vt 0.196640 0.884387
vt 0.195652 0.880435
vt 0.193676 0.884387
vt 0.192688 0.881423
vt 0.174407 0.863142
vt 0.174407 0.862154
vt 0.177372 0.861660
vt 0.168478 0.859190
vt 0.164526 0.854743
vt 0.167490 0.855237
vt 0.166996 0.853261
vt 0.168972 0.857213
vt 0.166996 0.852767
vt 0.168972 0.854743
vt 0.170949 0.859190
vt 0.188241 0.863142
vt 0.187253 0.856225
vt 0.191206 0.861166
vt 0.191700 0.853261
vt 0.193182 0.859684
vt 0.180830 0.860672
vt 0.180336 0.859190
vt 0.181324 0.859190
vt 0.192194 0.875988
vt 0.189723 0.873024
vt 0.186759 0.864625
vt 0.188735 0.865119
vt 0.183300 0.856719
vt 0.199111 0.890810
vt 0.195158 0.886364
vt 0.197134 0.888340
vt 0.176383 0.852273
vt 0.177866 0.855237
vt 0.198617 0.884387
vt 0.198617 0.883893
vt 0.179348 0.876482
vt 0.172431 0.877470
vt 0.170455 0.875494
vt 0.167984 0.876976
vt 0.190217 0.871047
vt 0.190711 0.872036
vt 0.165020 0.871542
vt 0.165020 0.867589
vt 0.167490 0.870553
vt 0.173419 0.851779
vt 0.177866 0.852767
vt 0.176383 0.856225
vt 0.173419 0.855731
vt 0.172925 0.851779
vt 0.178854 0.859190
vt 0.197628 0.891304
vt 0.196146 0.892292
vt 0.194664 0.886858
vt 0.201087 0.886364
vt 0.172431 0.856719
vt 0.170455 0.852767
vt 0.176877 0.861166
vt 0.178360 0.860178
vt 0.180830 0.865613
vt 0.179842 0.865613
vt 0.179348 0.862648
vt 0.171443 0.860178
vt 0.173913 0.858202
vt 0.168972 0.852767
vt 0.252964 0.872036
vt 0.249506 0.876482
vt 0.247036 0.874012
vt 0.180830 0.861166
vt 0.181324 0.864625
vt 0.255435 0.875000
vt 0.178854 0.860672
vt 0.186265 0.860672
vt 0.184783 0.865613
vt 0.180336 0.868577
vt 0.182806 0.868083
vt 0.184289 0.865613
vt 0.185771 0.867589
vt 0.180830 0.872530
vt 0.178360 0.868083
vt 0.172925 0.861660
vt 0.180830 0.869565
vt 0.190711 0.878458
vt 0.188241 0.874012
vt 0.188241 0.871542
vt 0.192688 0.877964
vt 0.187747 0.872530
vt 0.244565 0.875494
vt 0.245553 0.881423
vt 0.241601 0.877470
vt 0.191206 0.864130
vt 0.195158 0.863636
vt 0.186759 0.879447
vt 0.183300 0.874506
vt 0.183300 0.874012
vt 0.185277 0.873024
vt 0.190711 0.878953
vt 0.189229 0.881423
vt 0.185771 0.880435
vt 0.259881 0.867589
vt 0.265810 0.869565
vt 0.260375 0.871047
vt 0.182806 0.869071
vt 0.193676 0.880435
vt 0.172431 0.848814
vt 0.175889 0.850791
vt 0.170949 0.849802
vt 0.191700 0.881423
vt 0.192194 0.880435
vt 0.194170 0.855731
vt 0.197628 0.858696
vt 0.190711 0.882905
vt 0.169960 0.849802
vt 0.191206 0.886858
vt 0.191700 0.885870
vt 0.191700 0.888834
vt 0.194170 0.893281
vt 0.193676 0.891798
vt 0.189723 0.886364
vt 0.182806 0.857213
vt 0.192688 0.864130
vt 0.185771 0.870553
vt 0.188241 0.852767
vt 0.191206 0.850791
vt 0.180830 0.857213
vt 0.199111 0.887846
vt 0.201087 0.887846
vt 0.264328 0.869565
vt 0.257905 0.879447
vt 0.259881 0.869565
vt 0.177866 0.865613
vt 0.175395 0.865613
vt 0.192194 0.892787
vt 0.196146 0.879447
vt 0.169960 0.859190
vt 0.248024 0.877964
vt 0.169466 0.880435
vt 0.163538 0.874012
vt 0.162549 0.870553
vt 0.246047 0.870553
vt 0.241601 0.881423
vt 0.240613 0.876482
vt 0.242589 0.871542
vt 0.256423 0.870059
vt 0.182312 0.864130
vt 0.182312 0.874506
vt 0.263340 0.866107
vt 0.191700 0.852767
vt 0.191206 0.852273
vt 0.164526 0.897233
vt 0.166502 0.895257
vt 0.166502 0.896245
vt 0.266798 0.871542
vt 0.263834 0.878953
vt 0.253953 0.867095
vt 0.251482 0.878458
vt 0.250000 0.869565
vt 0.241107 0.873518
vt 0.266798 0.876976
vt 0.267787 0.874506
vt 0.259881 0.876976
vt 0.255435 0.877470
vt 0.255435 0.869565
vt 0.260375 0.869565
vt 0.252964 0.880435
vt 0.252964 0.867095
vt 0.261364 0.879941
vt 0.262846 0.866601
s 1
f 8/1/8 111/2/111 109/3/109
f 113/4/113 1/5/1 44/6/44
f 44/6/44 21/7/21 43/8/43
f 43/8/43 22/9/22 42/10/42
f 45/11/45 46/12/46 38/13/38
f 21/7/21 38/13/38 22/9/22
f 1/5/1 45/11/45 21/7/21
f 1/5/1 11/14/11 45/11/45
f 85/15/85 77/16/77 78/17/78
f 41/18/41 80/18/80 128/19/128
f 105/20/105 101/21/101 125/22/125
f 49/23/49 8/24/8 50/25/50
f 50/25/50 8/24/8 7/26/7
f 47/27/47 7/26/7 6/28/6
f 32/29/32 6/28/6 2/28/2
f 47/27/47 32/29/32 31/30/31
f 53/31/53 54/32/54 52/33/52
f 54/32/54 86/34/86 51/35/51
f 65/36/65 17/37/17 82/38/82
f 68/39/68 88/40/88 90/39/90
f 15/41/15 53/31/53 10/42/10
f 53/31/53 82/38/82 94/43/94
f 83/44/83 40/45/40 98/46/98
f 116/47/116 18/48/18 114/48/114
f 126/49/126 85/15/85 87/50/87
f 12/51/12 11/52/11 55/53/55
f 11/52/11 113/54/113 55/53/55
f 10/55/10 89/56/89 88/40/88
f 56/57/56 19/58/19 112/59/112
f 59/60/59 116/47/116 58/61/58
f 57/62/57 28/63/28 58/61/58
f 58/61/58 29/64/29 59/60/59
f 16/65/16 27/62/27 57/62/57
f 99/66/99 40/45/40 83/44/83
f 99/66/99 20/67/20 79/68/79
f 97/69/97 40/45/40 126/49/126
f 61/70/61 62/71/62 28/63/28
f 31/30/31 62/71/62 61/70/61
f 26/72/26 27/62/27 5/73/5
f 118/74/118 67/75/67 120/76/120
f 30/77/30 31/30/31 60/78/60
f 32/29/32 2/28/2 20/79/20
f 32/29/32 20/79/20 62/71/62
f 36/80/36 91/81/91 73/82/73
f 28/63/28 62/71/62 29/64/29
f 60/78/60 28/63/28 27/62/27
f 118/74/118 119/83/119 117/84/117
f 119/83/119 65/36/65 117/84/117
f 36/80/36 100/85/100 91/81/91
f 16/65/16 65/36/65 119/83/119
f 122/86/122 5/73/5 102/86/102
f 119/83/119 5/73/5 16/65/16
f 14/87/14 65/36/65 82/38/82
f 13/88/13 14/87/14 15/41/15
f 66/89/66 123/75/123 67/75/67
f 125/22/125 26/72/26 122/86/122
f 33/90/33 63/91/63 92/92/92
f 25/93/25 121/94/121 66/89/66
f 84/95/84 60/78/60 101/21/101
f 103/94/103 25/93/25 4/96/4
f 33/90/33 67/75/67 118/74/118
f 69/97/69 70/40/70 68/39/68
f 70/40/70 10/55/10 88/40/88
f 71/98/71 72/99/72 70/40/70
f 9/100/9 69/97/69 68/39/68
f 34/97/34 71/98/71 69/97/69
f 35/98/35 73/101/73 71/98/71
f 72/102/72 13/103/13 10/104/10
f 89/105/89 53/31/53 52/33/52
f 90/106/90 52/33/52 51/35/51
f 74/107/74 75/108/75 35/98/35
f 35/98/35 76/109/76 36/110/36
f 35/98/35 75/108/75 76/109/76
f 24/111/24 34/97/34 3/111/3
f 24/111/24 74/107/74 34/97/34
f 22/9/22 74/107/74 23/112/23
f 37/113/37 75/108/75 74/107/74
f 75/114/75 4/115/4 25/116/25
f 100/117/100 25/93/25 66/89/66
f 41/18/41 127/118/127 77/16/77
f 126/49/126 41/18/41 77/16/77
f 127/118/127 3/111/3 9/100/9
f 59/60/59 95/119/95 93/120/93
f 29/64/29 96/119/96 59/60/59
f 29/64/29 83/121/83 96/119/96
f 132/122/132 3/111/3 106/123/106
f 9/100/9 78/17/78 127/118/127
f 9/100/9 68/39/68 90/39/90
f 85/124/85 81/125/81 51/35/51
f 51/35/51 86/34/86 85/124/85
f 133/126/133 24/111/24 132/122/132
f 29/64/29 99/127/99 83/121/83
f 130/128/130 131/129/131 129/130/129
f 2/131/2 6/132/6 107/130/107
f 110/133/110 43/8/43 42/10/42
f 42/10/42 22/9/22 23/112/23
f 133/126/133 42/10/42 23/112/23
f 20/67/20 107/130/107 129/130/129
f 40/45/40 80/18/80 41/18/41
f 94/43/94 114/134/114 18/43/18
f 89/105/89 90/106/90 88/135/88
f 92/92/92 91/136/91 33/90/33
f 86/34/86 93/137/93 95/138/95
f 94/43/94 17/139/17 114/134/114
f 96/140/96 97/69/97 95/141/95
f 96/140/96 98/46/98 97/69/97
f 96/140/96 83/44/83 98/46/98
f 101/21/101 105/20/105 84/95/84
f 6/132/6 109/3/109 108/128/108
f 108/128/108 43/8/43 110/133/110
f 109/3/109 44/6/44 43/8/43
f 44/6/44 111/2/111 113/4/113
f 84/142/84 39/143/39 30/144/30
f 113/54/113 112/59/112 55/53/55
f 58/61/58 114/48/114 115/48/115
f 67/75/67 125/22/125 122/86/122
f 124/145/124 125/22/125 123/75/123
f 124/145/124 103/94/103 104/146/104
f 125/22/125 104/146/104 105/20/105
f 120/76/120 122/86/122 102/86/102
f 133/126/133 132/122/132 80/18/80
f 108/128/108 129/130/129 107/130/107
f 110/133/110 130/128/130 108/128/108
f 128/19/128 132/122/132 106/123/106
f 97/69/97 126/49/126 87/50/87
f 7/147/7 8/1/8 109/3/109
f 44/6/44 1/5/1 21/7/21
f 43/8/43 21/7/21 22/9/22
f 6/132/6 7/147/7 109/3/109
f 131/129/131 110/133/110 42/10/42
f 45/11/45 11/14/11 46/12/46
f 46/12/46 11/14/11 12/51/12
f 22/9/22 38/13/38 37/113/37
f 21/7/21 45/11/45 38/13/38
f 81/148/81 85/15/85 78/17/78
f 47/27/47 48/149/48 50/25/50
f 48/149/48 49/23/49 50/25/50
f 49/23/49 19/23/19 8/24/8
f 47/27/47 50/25/50 7/26/7
f 32/29/32 47/27/47 6/28/6
f 30/77/30 47/27/47 31/30/31
f 51/35/51 52/33/52 54/32/54
f 54/32/54 53/31/53 94/43/94
f 92/150/92 72/102/72 91/81/91
f 72/102/72 73/82/73 91/81/91
f 15/41/15 14/87/14 53/31/53
f 53/31/53 14/87/14 82/38/82
f 126/49/126 77/16/77 85/15/85
f 115/48/115 17/37/17 57/62/57
f 17/37/17 16/65/16 57/62/57
f 11/52/11 1/151/1 113/54/113
f 56/57/56 111/152/111 8/153/8
f 56/57/56 8/153/8 19/58/19
f 49/154/49 12/155/12 55/156/55 19/157/19
f 93/120/93 18/48/18 116/47/116
f 93/120/93 116/47/116 59/60/59
f 57/62/57 27/62/27 28/63/28
f 63/91/63 118/74/118 117/84/117
f 58/61/58 28/63/28 29/64/29
f 115/48/115 57/62/57 58/61/58
f 16/65/16 5/73/5 27/62/27
f 99/66/99 79/68/79 40/45/40
f 97/69/97 98/46/98 40/45/40
f 78/17/78 9/100/9 81/148/81
f 93/137/93 86/34/86 54/32/54
f 54/32/54 18/43/18 93/137/93
f 54/32/54 94/43/94 18/43/18
f 60/78/60 61/70/61 28/63/28
f 60/78/60 31/30/31 61/70/61
f 31/30/31 32/29/32 62/71/62
f 26/72/26 60/78/60 27/62/27
f 100/85/100 36/80/36 76/158/76
f 76/158/76 25/116/25 100/85/100
f 118/74/118 120/76/120 119/83/119
f 64/159/64 13/88/13 117/84/117
f 13/88/13 63/91/63 117/84/117
f 118/74/118 63/91/63 33/90/33
f 65/36/65 64/159/64 117/84/117
f 92/92/92 63/91/63 13/88/13
f 17/37/17 65/36/65 16/65/16
f 122/86/122 26/72/26 5/73/5
f 123/75/123 66/89/66 124/145/124
f 66/89/66 121/94/121 124/145/124
f 119/83/119 102/86/102 5/73/5
f 114/48/114 17/37/17 115/48/115
f 14/87/14 64/159/64 65/36/65
f 13/88/13 64/159/64 14/87/14
f 26/72/26 125/22/125 101/21/101
f 84/95/84 30/77/30 60/78/60
f 60/78/60 26/72/26 101/21/101
f 121/94/121 25/93/25 103/94/103
f 33/90/33 66/89/66 67/75/67
f 69/97/69 71/98/71 70/40/70
f 70/40/70 72/99/72 10/55/10
f 71/98/71 73/101/73 72/99/72
f 81/125/81 90/106/90 51/35/51
f 88/40/88 68/39/68 70/40/70
f 9/100/9 3/111/3 69/97/69
f 3/111/3 34/97/34 69/97/69
f 34/97/34 35/98/35 71/98/71
f 35/98/35 36/110/36 73/101/73
f 100/117/100 66/89/66 33/90/33
f 72/102/72 92/150/92 13/103/13
f 10/55/10 13/88/13 15/41/15
f 89/105/89 10/42/10 53/31/53
f 90/106/90 89/105/89 52/33/52
f 34/97/34 74/107/74 35/98/35
f 24/111/24 23/112/23 74/107/74
f 22/9/22 37/113/37 74/107/74
f 37/113/37 38/13/38 75/108/75
f 75/108/75 38/13/38 39/160/39
f 75/114/75 39/161/39 4/115/4
f 76/158/76 75/114/75 25/116/25
f 41/18/41 128/19/128 127/118/127
f 126/49/126 40/45/40 41/18/41
f 127/118/127 106/123/106 3/111/3
f 78/17/78 77/16/77 127/118/127
f 59/60/59 96/119/96 95/119/95
f 132/122/132 24/111/24 3/111/3
f 79/68/79 20/67/20 129/130/129
f 79/68/79 131/129/131 80/18/80
f 131/129/131 42/10/42 133/126/133
f 133/126/133 23/112/23 24/111/24
f 131/129/131 133/126/133 80/18/80
f 29/64/29 62/71/62 99/127/99
f 62/71/62 20/79/20 99/127/99
f 79/68/79 129/130/129 131/129/131
f 20/67/20 2/131/2 107/130/107
f 40/45/40 79/68/79 80/18/80
f 85/124/85 86/34/86 87/162/87
f 86/34/86 95/138/95 87/163/87
f 81/164/81 9/165/9 90/166/90
f 94/43/94 82/38/82 17/139/17
f 33/90/33 91/136/91 100/117/100
f 108/128/108 109/3/109 43/8/43
f 109/3/109 111/2/111 44/6/44
f 107/130/107 6/132/6 108/128/108
f 39/143/39 84/142/84 105/167/105 4/168/4
f 113/54/113 56/57/56 112/59/112
f 111/152/111 56/57/56 113/54/113
f 58/61/58 116/47/116 114/48/114
f 119/83/119 120/76/120 102/86/102
f 67/75/67 123/75/123 125/22/125
f 124/145/124 121/94/121 103/94/103
f 125/22/125 124/145/124 104/146/104
f 120/76/120 67/75/67 122/86/122
f 127/118/127 128/19/128 106/123/106
f 108/128/108 130/128/130 129/130/129
f 110/133/110 131/129/131 130/128/130
f 128/19/128 80/18/80 132/122/132
f 95/141/95 97/69/97 87/50/87
f 39/160/39 38/13/38 46/12/46
f 47/169/47 30/144/30 39/143/39 46/170/46
f 47/169/47 46/170/46 12/155/12 48/171/48
f 49/154/49 48/171/48 12/155/12
f 55/156/55 112/172/112 19/157/19
f 103/173/103 4/168/4 105/167/105 104/174/104
f 137/175/137 134/176/134 135/177/135
f 136/178/136 137/175/137 135/177/135
f 135/177/135 134/176/134 138/179/138 139/180/139
f 134/176/134 137/175/137 141/181/141 138/179/138
f 137/175/137 136/178/136 140/182/140 141/181/141
f 136/178/136 135/177/135 139/180/139 140/182/140
f 140/170/140 139/143/139 143/143/143 144/170/144
f 139/143/139 138/144/138 142/144/142 143/143/143
f 138/144/138 141/169/141 145/169/145 142/144/142
f 141/169/141 140/170/140 144/170/144 145/169/145
f 148/169/148 147/143/147 146/144/146
f 150/169/150 149/144/149 151/143/151
f 147/143/147 148/169/148 150/169/150 151/143/151
f 146/144/146 147/143/147 151/143/151 149/144/149
f 148/169/148 146/144/146 149/144/149 150/169/150
f 155/175/155 152/176/152 153/177/153
f 154/178/154 155/175/155 153/177/153
f 153/177/153 152/176/152 156/179/156 157/180/157
f 152/176/152 155/175/155 159/181/159 156/179/156
f 155/175/155 154/178/154 158/182/158 159/181/159
f 154/178/154 153/177/153 157/180/157 158/182/158
f 157/180/157 156/179/156 160/179/160 161/180/161
f 156/179/156 159/181/159 163/181/163 160/179/160
f 159/181/159 158/182/158 162/182/162 163/181/163
f 158/182/158 157/180/157 161/180/161 162/182/162
