# Blender 4.2.1 LTS
# www.blender.org
o Cube.019
v -0.378724 3.837878 -0.143269
v 0.371888 3.774196 0.295602
v 0.422855 3.844376 -0.147908
v -0.722328 2.579098 0.347032
v -0.836845 0.987993 -0.501547
v 0.840335 2.606802 -0.236043
v 0.981502 0.917039 0.572419
v -0.776606 3.020454 0.378200
v -0.676183 3.310286 0.386378
v -0.402698 3.749468 0.240213
v -0.766538 0.309308 -0.508761
v 0.409075 0.243378 -0.591115
v -0.039326 3.904536 -0.209929
v 0.201302 3.924119 -0.202756
v 0.994933 0.345636 -0.255718
v 0.843367 0.162858 0.015197
v 0.799630 0.183629 -0.228844
v 0.903125 0.584443 0.573686
v 0.808090 0.294529 0.543755
v 0.329891 0.129342 0.558483
v -0.015960 3.852023 0.323397
v -0.763664 1.961287 0.360955
v -0.797120 3.293691 -0.219626
v -0.864876 2.795770 -0.279091
v -0.770926 2.169551 -0.420083
v -0.752386 1.533230 -0.385827
v 0.631698 3.296925 -0.268516
v 0.834074 2.930077 -0.232763
v 0.783508 2.131085 -0.357881
v 0.603853 3.336167 0.292111
v 0.793541 1.833937 0.376222
v 0.556742 1.025189 0.657827
v 0.011797 1.335473 0.576003
v -0.495076 0.961260 0.705114
v 0.405812 2.649746 0.470253
v 0.029755 2.542720 0.591680
v -0.369754 2.593610 0.502821
v 1.017131 1.328651 -0.295685
v -0.438692 1.517625 -0.510111
v 0.086585 1.575501 -0.495972
v 0.505439 1.519655 -0.509605
v -0.396675 2.583661 -0.432535
v -0.145179 2.762410 -0.394157
v 0.401556 2.578293 -0.380488
v -1.057319 0.959026 0.303174
v -1.161188 0.933188 -0.002470
v -0.953661 2.217288 -0.216690
v -0.854622 3.287404 -0.103522
v -0.691286 3.585973 -0.056249
v -0.344652 3.506501 -0.239580
v 0.030280 3.129405 -0.405856
v 0.380938 3.183804 -0.404504
v 0.887235 3.126341 -0.157654
v 0.497908 3.806565 0.161525
v 0.340791 3.516470 0.357940
v -0.166733 3.009521 0.483892
v -0.009978 3.295714 0.402118
v -0.014006 3.610026 0.398895
v -0.253398 3.534424 0.364722
v -0.438403 -0.006104 -0.324504
v 0.005211 -0.002966 -0.299593
v 0.434067 0.051981 -0.286242
v 0.126180 0.033871 0.297714
v 0.276413 3.961724 -0.068503
v -0.013509 4.010099 -0.064699
v -0.297328 3.933046 0.156863
v 0.505902 0.578842 0.721073
v 0.063378 0.462185 0.689026
v -0.435268 0.571855 0.686867
v 0.384643 1.906969 0.460635
v 0.032333 1.876783 0.515999
v -0.387742 1.786064 0.481400
v 1.087951 0.838532 -0.268049
v 1.075081 0.341508 0.022459
v 1.017431 0.342048 0.287668
v 1.057399 1.752840 -0.144587
v 1.087071 1.570374 0.078835
v -0.429266 0.296471 -0.709588
v -0.436171 0.879078 -0.661564
v 0.032992 0.571348 -0.761044
v 0.042519 0.890078 -0.752520
v 0.513580 0.578449 -0.702165
v 0.528634 0.893997 -0.684573
v -0.428667 2.175040 -0.531944
v 0.427559 2.254642 -0.448780
v 0.469012 1.890318 -0.512010
v -1.089654 0.388408 0.019969
v -0.955523 0.338454 -0.247842
v -0.936082 1.574733 0.221494
v -1.018612 1.536064 -0.021233
v -0.762736 0.138288 -0.306597
v 0.771571 0.160720 0.357617
v -0.823277 1.130304 0.543002
v 0.763489 2.663213 0.449617
v -0.841694 0.129886 -0.046205
v -0.672945 0.079586 0.304825
v -0.830398 0.163835 0.307551
v -0.044731 0.220668 -0.661511
v 0.099475 0.103975 -0.540950
v -0.431599 0.069410 -0.557619
v 0.842208 0.970784 -0.536488
v 0.908905 0.778500 -0.499660
v -0.330274 0.177190 0.516964
v 0.472527 0.072469 0.402415
v -0.733950 0.252560 0.485046
v -0.784034 0.837653 0.621947
v -0.893326 0.367535 0.420495
v -0.916284 0.876622 0.518309
v -0.753293 1.555817 0.417398
v 0.841960 1.571912 -0.371163
v 0.795443 2.158850 0.417067
v 1.181698 0.911577 0.418662
v 1.005796 2.593882 -0.088568
v 1.042313 2.594439 0.165090
v 0.914124 2.579559 0.373439
v -1.049145 0.926679 -0.341960
v -0.857372 2.579527 0.250517
v -0.950139 2.938884 0.113527
v -0.856902 3.351293 0.189245
v -0.932887 2.942182 -0.054210
v -0.695327 3.612435 0.142826
v 0.995250 2.957791 -0.076593
v 0.998007 2.961208 0.112946
v 0.848651 3.302669 -0.049119
v 0.827086 3.312632 0.148787
v 0.510806 3.796443 -0.059024
v 0.899381 3.039498 0.219407
v 0.272678 3.967443 0.174230
v -0.021742 4.012312 0.176149
v -0.319729 3.920698 -0.051432
v 0.455115 0.209938 0.644973
v 0.498995 0.320015 0.703701
v -0.060306 0.314327 0.643318
v 1.188766 0.542548 0.026895
v 1.261291 0.970778 0.059479
v 1.158422 0.551684 0.330754
v 1.245200 0.924506 0.307313
v 0.998426 2.270827 -0.097992
v 0.977744 1.553971 0.304792
v 1.099656 1.886810 0.086820
v 1.054722 2.182126 0.086032
v 0.938113 1.874100 0.260809
v -0.997943 0.329904 0.277851
v -1.055736 0.531519 -0.263494
v -1.118234 0.938890 -0.228530
v -0.944414 2.129878 0.213516
v -0.989271 2.236959 0.107185
v -1.020939 2.154002 -0.006619
v -0.899554 1.531855 -0.263213
v -0.965743 1.947235 -0.207082
vn -0.4476 0.6032 -0.6601
vn 0.3826 0.4222 0.8218
vn 0.5509 0.6109 -0.5686
vn -0.4913 -0.0334 0.8704
vn -0.5024 0.1084 -0.8578
vn 0.5148 0.0897 -0.8526
vn 0.4575 0.0697 0.8865
vn -0.5733 0.0520 0.8177
vn -0.4069 0.2999 0.8628
vn -0.3732 0.4925 0.7862
vn -0.6115 -0.3367 -0.7161
vn 0.3103 -0.5733 -0.7583
vn -0.1157 0.5779 -0.8079
vn 0.1182 0.7081 -0.6961
vn 0.7052 -0.5100 -0.4925
vn 0.4671 -0.8840 -0.0193
vn 0.4720 -0.8063 -0.3565
vn 0.5114 -0.1850 0.8392
vn 0.5313 -0.5130 0.6743
vn -0.0087 -0.8160 0.5780
vn -0.0684 0.4912 0.8683
vn -0.4898 0.0391 0.8710
vn -0.5825 0.3081 -0.7522
vn -0.6726 0.1727 -0.7196
vn -0.5215 0.0329 -0.8526
vn -0.5076 0.1123 -0.8542
vn 0.4797 0.3085 -0.8214
vn 0.5283 0.0598 -0.8469
vn 0.5222 0.1349 -0.8421
vn 0.4345 0.2631 0.8614
vn 0.4373 0.0881 0.8950
vn 0.1207 0.1654 0.9788
vn 0.0177 0.1784 0.9838
vn -0.1227 0.1274 0.9842
vn 0.1544 0.1107 0.9818
vn 0.0586 0.0800 0.9951
vn -0.2673 0.0386 0.9628
vn 0.7914 0.1747 -0.5858
vn -0.1972 0.1331 -0.9713
vn 0.0174 0.1597 -0.9870
vn 0.1839 0.1537 -0.9708
vn -0.0835 0.2736 -0.9582
vn -0.0571 0.1365 -0.9890
vn 0.1904 0.1138 -0.9751
vn -0.8870 0.0862 0.4537
vn -0.9968 0.0477 0.0643
vn -0.8717 0.0505 -0.4874
vn -0.9086 0.3294 -0.2568
vn -0.7324 0.6047 -0.3130
vn -0.1848 0.2172 -0.9585
vn -0.1185 0.1091 -0.9869
vn 0.1875 0.1410 -0.9721
vn 0.7154 0.3056 -0.6284
vn 0.6934 0.6275 0.3541
vn 0.2295 0.1610 0.9599
vn -0.0302 0.1743 0.9842
vn -0.0077 0.2050 0.9787
vn -0.0415 0.1767 0.9834
vn -0.1424 0.2715 0.9518
vn -0.1761 -0.9742 -0.1415
vn 0.0725 -0.9851 -0.1558
vn 0.2538 -0.9325 -0.2568
vn 0.0013 -0.9766 0.2151
vn 0.3439 0.9155 -0.2088
vn -0.0539 0.9515 -0.3030
vn -0.4263 0.8181 0.3860
vn 0.1477 0.0146 0.9889
vn -0.0430 -0.0972 0.9943
vn -0.1689 -0.2163 0.9616
vn 0.1615 0.0503 0.9856
vn 0.0404 -0.0065 0.9992
vn -0.1855 0.0973 0.9778
vn 0.8436 -0.0385 -0.5356
vn 0.7678 -0.6400 -0.0303
vn 0.7111 -0.6238 0.3244
vn 0.8897 0.0728 -0.4507
vn 0.9798 0.1518 0.1304
vn -0.2677 -0.2581 -0.9283
vn -0.2798 0.1180 -0.9528
vn 0.0203 -0.1059 -0.9942
vn -0.0124 0.1722 -0.9850
vn 0.3305 -0.1967 -0.9231
vn 0.2597 0.1589 -0.9525
vn -0.1174 0.0923 -0.9888
vn 0.1707 0.1730 -0.9700
vn 0.1232 0.1027 -0.9870
vn -0.9142 -0.4052 0.0059
vn -0.7619 -0.5311 -0.3708
vn -0.8468 0.1210 0.5180
vn -0.9908 0.1254 -0.0511
vn -0.5760 -0.7471 -0.3318
vn 0.4365 -0.8588 0.2682
vn -0.5638 0.2733 0.7793
vn 0.3041 0.1471 0.9412
vn -0.5742 -0.8161 -0.0661
vn -0.2620 -0.9041 0.3377
vn -0.5754 -0.7356 0.3576
vn 0.0914 -0.4863 -0.8690
vn 0.1423 -0.7990 -0.5843
vn -0.2181 -0.7750 -0.5932
vn 0.5330 0.1388 -0.8347
vn 0.6549 -0.0947 -0.7498
vn -0.1235 -0.6908 0.7125
vn 0.2039 -0.9425 0.2648
vn -0.3824 -0.5141 0.7678
vn -0.4612 -0.0336 0.8866
vn -0.6628 -0.3016 0.6854
vn -0.7402 0.0106 0.6723
vn -0.5274 0.2145 0.8221
vn 0.5202 0.1583 -0.8393
vn 0.3997 -0.0882 0.9124
vn 0.7472 0.0548 0.6624
vn 0.8871 0.0602 -0.4576
vn 0.9698 0.0725 0.2328
vn 0.6796 0.0700 0.7302
vn -0.7338 0.0490 -0.6776
vn -0.6724 0.0217 0.7399
vn -0.9692 0.1001 0.2250
vn -0.8584 0.3917 0.3313
vn -0.9537 0.1371 -0.2676
vn -0.7040 0.6196 0.3472
vn 0.9163 0.1723 -0.3616
vn 0.9379 0.2481 0.2426
vn 0.8411 0.4962 -0.2154
vn 0.7740 0.4571 0.4382
vn 0.7407 0.6318 -0.2286
vn 0.6814 0.3075 0.6641
vn 0.3391 0.8592 0.3832
vn -0.0723 0.9202 0.3847
vn -0.4403 0.8645 -0.2423
vn 0.1214 -0.6529 0.7477
vn 0.1749 -0.2993 0.9380
vn -0.0991 -0.4143 0.9047
vn 0.9386 -0.3129 -0.1454
vn 0.9835 0.0617 -0.1700
vn 0.8244 -0.3801 0.4194
vn 0.9547 0.0515 0.2932
vn 0.8783 0.0489 -0.4756
vn 0.7667 0.2735 0.5808
vn 0.9647 0.0674 0.2545
vn 0.9900 0.0381 0.1361
vn 0.7216 0.0346 0.6914
vn -0.8200 -0.4219 0.3868
vn -0.8506 -0.2249 -0.4753
vn -0.9290 0.0773 -0.3618
vn -0.8046 0.0154 0.5936
vn -0.9520 0.0353 0.3040
vn -0.9995 0.0323 0.0072
vn -0.7669 0.1247 -0.6295
vn -0.8632 -0.0176 -0.5046
vt 0.178854 0.849802
vt 0.178360 0.853261
vt 0.178360 0.854249
vt 0.182806 0.858202
vt 0.183300 0.861660
vt 0.181324 0.858202
vt 0.182312 0.861660
vt 0.180336 0.858202
vt 0.179842 0.861660
vt 0.178360 0.857708
vt 0.182806 0.862154
vt 0.183300 0.865613
vt 0.182312 0.865119
vt 0.186265 0.868577
vt 0.184289 0.870059
vt 0.184783 0.865613
vt 0.187747 0.871542
vt 0.185771 0.872530
vt 0.183794 0.875494
vt 0.183300 0.870059
vt 0.185771 0.875494
vt 0.189723 0.873024
vt 0.187747 0.876976
vt 0.185277 0.876976
vt 0.192688 0.880435
vt 0.189723 0.882905
vt 0.189229 0.879941
vt 0.169466 0.859684
vt 0.171443 0.857213
vt 0.171937 0.861660
vt 0.173913 0.857708
vt 0.174407 0.857708
vt 0.174407 0.861166
vt 0.192194 0.885870
vt 0.191700 0.889822
vt 0.190217 0.886364
vt 0.187747 0.882905
vt 0.187747 0.883893
vt 0.184783 0.883399
vt 0.192688 0.880929
vt 0.192194 0.884387
vt 0.193182 0.888340
vt 0.195652 0.893281
vt 0.192688 0.891798
vt 0.192688 0.894269
vt 0.192688 0.894763
vt 0.191206 0.892787
vt 0.190217 0.887846
vt 0.174407 0.879447
vt 0.173913 0.886364
vt 0.171443 0.880929
vt 0.169466 0.888834
vt 0.168972 0.881917
vt 0.180830 0.883893
vt 0.181324 0.885375
vt 0.180336 0.884881
vt 0.173913 0.866107
vt 0.175395 0.869565
vt 0.176383 0.878458
vt 0.174407 0.877470
vt 0.177866 0.886858
vt 0.170455 0.850296
vt 0.172925 0.855731
vt 0.171937 0.853261
vt 0.183794 0.893281
vt 0.182806 0.889822
vt 0.169466 0.856719
vt 0.169466 0.857213
vt 0.191700 0.873024
vt 0.193182 0.869565
vt 0.191206 0.871047
vt 0.197628 0.871047
vt 0.194664 0.872036
vt 0.174901 0.871542
vt 0.174407 0.870553
vt 0.199111 0.876976
vt 0.198123 0.880435
vt 0.196146 0.877470
vt 0.194170 0.879447
vt 0.186265 0.894269
vt 0.182312 0.892292
vt 0.184289 0.889328
vt 0.187253 0.890316
vt 0.186759 0.894269
vt 0.182806 0.885870
vt 0.172431 0.850296
vt 0.173419 0.849308
vt 0.173913 0.855237
vt 0.167984 0.854249
vt 0.188241 0.889822
vt 0.189723 0.893775
vt 0.184783 0.884387
vt 0.183300 0.884881
vt 0.182312 0.878953
vt 0.183300 0.879447
vt 0.183300 0.882411
vt 0.188735 0.884881
vt 0.187253 0.887846
vt 0.191206 0.894269
vt 0.179348 0.871047
vt 0.178854 0.873024
vt 0.177372 0.870553
vt 0.181818 0.883893
vt 0.181324 0.879941
vt 0.181324 0.875494
vt 0.183300 0.884387
vt 0.175889 0.882411
vt 0.178360 0.877964
vt 0.183300 0.876482
vt 0.180830 0.876482
vt 0.179348 0.877964
vt 0.178360 0.875988
vt 0.183794 0.872530
vt 0.175889 0.864625
vt 0.177372 0.869071
vt 0.176877 0.871542
vt 0.173419 0.864130
vt 0.171937 0.877964
vt 0.167984 0.877964
vt 0.179842 0.864130
vt 0.182312 0.870059
vt 0.181818 0.870059
vt 0.175889 0.863636
vt 0.177866 0.861660
vt 0.180830 0.863142
vt 0.173419 0.861660
vt 0.186265 0.897233
vt 0.183794 0.894269
vt 0.188241 0.896739
vt 0.175395 0.861166
vt 0.174901 0.861660
vt 0.166996 0.885375
vt 0.165020 0.882411
vt 0.176383 0.860178
vt 0.189229 0.896739
vt 0.176877 0.856225
vt 0.176383 0.856719
vt 0.176877 0.853755
vt 0.176383 0.849802
vt 0.176383 0.850791
vt 0.178360 0.856719
vt 0.178360 0.886858
vt 0.170455 0.877964
vt 0.172431 0.889822
vt 0.168972 0.890810
vt 0.180336 0.886858
vt 0.169960 0.853261
vt 0.167984 0.852767
vt 0.187747 0.879941
vt 0.185277 0.879447
vt 0.177372 0.849802
vt 0.170949 0.862154
vt 0.191700 0.888340
vt 0.197134 0.867589
vt 0.201581 0.875000
vt 0.201087 0.878458
vt 0.180830 0.879941
vt 0.168972 0.888834
vt 0.168972 0.889822
vt 0.206028 0.852273
vt 0.203063 0.853261
vt 0.203557 0.852273
s 1
f 10/1/10 121/2/121 119/3/119
f 130/4/130 1/5/1 49/6/49
f 49/6/49 23/7/23 48/8/48
f 48/8/48 24/9/24 47/10/47
f 50/11/50 51/12/51 43/13/43
f 51/12/51 14/14/14 52/15/52
f 23/7/23 43/13/43 24/9/24
f 1/5/1 50/11/50 23/7/23
f 1/5/1 13/16/13 50/11/50
f 52/15/52 3/17/3 27/18/27
f 52/15/52 27/18/27 28/19/28
f 44/20/44 28/19/28 6/19/6
f 43/13/43 52/15/52 44/20/44
f 53/21/53 126/22/126 124/23/124
f 53/21/53 124/23/124 122/24/122
f 27/18/27 126/22/126 53/21/53
f 54/25/54 30/26/30 125/27/125
f 95/28/95 87/29/87 88/30/88
f 46/31/46 90/32/90 145/33/145
f 55/34/55 56/35/56 35/36/35
f 115/37/115 111/38/111 142/39/142
f 2/40/2 55/34/55 30/26/30
f 2/41/2 58/42/58 55/34/55
f 58/42/58 10/43/10 59/44/59
f 59/44/59 10/43/10 9/45/9
f 56/35/56 9/45/9 8/46/8
f 37/47/37 8/46/8 4/46/4
f 56/35/56 37/47/37 36/48/36
f 62/49/62 63/50/63 61/51/61
f 63/50/63 96/52/96 60/53/60
f 75/54/75 19/55/19 92/56/92
f 78/57/78 98/58/98 100/57/100
f 17/59/17 62/49/62 12/60/12
f 62/49/62 92/56/92 104/61/104
f 93/62/93 45/63/45 108/64/108
f 133/65/133 20/66/20 131/66/131
f 143/67/143 95/28/95 97/68/97
f 3/17/3 64/69/64 126/22/126
f 13/70/13 64/69/64 14/71/14
f 13/70/13 130/72/130 65/73/65
f 12/74/12 99/75/99 98/58/98
f 66/76/66 21/77/21 129/78/129
f 128/79/128 21/77/21 2/40/2
f 128/79/128 2/40/2 54/25/54
f 69/80/69 133/65/133 68/81/68
f 67/82/67 33/83/33 68/81/68
f 68/81/68 34/84/34 69/80/69
f 18/85/18 32/82/32 67/82/67
f 109/86/109 45/63/45 93/62/93
f 109/86/109 22/87/22 89/88/89
f 107/89/107 45/63/45 143/67/143
f 71/90/71 72/91/72 33/83/33
f 36/48/36 72/91/72 71/90/71
f 31/92/31 32/82/32 7/93/7
f 135/94/135 77/95/77 137/96/137
f 127/27/127 30/26/30 94/97/94
f 35/36/35 36/48/36 70/98/70
f 37/47/37 4/46/4 22/99/22
f 37/47/37 22/99/22 72/91/72
f 41/100/41 101/101/101 83/102/83
f 33/83/33 72/91/72 34/84/34
f 70/98/70 33/83/33 32/82/32
f 135/94/135 136/103/136 134/104/134
f 136/103/136 75/54/75 134/104/134
f 41/100/41 110/105/110 101/101/101
f 18/85/18 75/54/75 136/103/136
f 139/106/139 7/93/7 112/106/112
f 136/103/136 7/93/7 18/85/18
f 16/107/16 75/54/75 92/56/92
f 15/108/15 16/107/16 17/59/17
f 76/109/76 140/95/140 77/95/77
f 142/39/142 31/92/31 139/106/139
f 38/110/38 73/111/73 102/112/102
f 29/113/29 138/24/138 76/109/76
f 94/97/94 70/98/70 111/38/111
f 113/24/113 29/113/29 6/19/6
f 38/110/38 77/95/77 135/94/135
f 79/114/79 80/58/80 78/57/78
f 80/58/80 12/74/12 98/58/98
f 81/115/81 82/116/82 80/58/80
f 11/117/11 79/114/79 78/57/78
f 39/114/39 81/115/81 79/114/79
f 40/115/40 83/102/83 81/115/81
f 82/116/82 15/108/15 12/74/12
f 99/118/99 62/49/62 61/51/61
f 100/119/100 61/51/61 60/53/60
f 84/120/84 85/121/85 40/115/40
f 40/115/40 86/122/86 41/100/41
f 40/115/40 85/121/85 86/122/86
f 26/123/26 39/114/39 5/123/5
f 26/123/26 84/120/84 39/114/39
f 24/9/24 84/120/84 25/124/25
f 42/125/42 85/121/85 84/120/84
f 85/121/85 6/19/6 29/113/29
f 110/105/110 29/113/29 76/109/76
f 35/36/35 94/97/94 30/26/30
f 46/31/46 144/126/144 87/29/87
f 143/67/143 46/31/46 87/29/87
f 144/126/144 5/123/5 11/117/11
f 69/80/69 105/127/105 103/128/103
f 34/84/34 106/127/106 69/80/69
f 34/84/34 93/129/93 106/127/106
f 149/130/149 5/123/5 116/131/116
f 11/117/11 88/30/88 144/126/144
f 11/117/11 78/57/78 100/57/100
f 95/132/95 91/133/91 60/53/60
f 60/53/60 96/52/96 95/132/95
f 150/134/150 26/123/26 149/130/149
f 34/84/34 109/135/109 93/129/93
f 147/136/147 148/137/148 146/138/146
f 4/139/4 8/140/8 117/138/117
f 120/141/120 48/8/48 47/10/47
f 47/10/47 24/9/24 25/124/25
f 150/134/150 47/10/47 25/124/25
f 22/87/22 117/138/117 146/138/146
f 45/63/45 90/32/90 46/31/46
f 104/61/104 131/142/131 20/61/20
f 122/24/122 28/19/28 53/21/53
f 99/118/99 100/119/100 98/143/98
f 102/112/102 101/101/101 38/110/38
f 96/52/96 103/144/103 105/145/105
f 104/61/104 19/146/19 131/142/131
f 106/147/106 107/89/107 105/148/105
f 106/147/106 108/64/108 107/89/107
f 106/147/106 93/62/93 108/64/108
f 111/38/111 115/37/115 94/97/94
f 8/140/8 119/3/119 118/136/118
f 118/136/118 48/8/48 120/141/120
f 119/3/119 49/6/49 48/8/48
f 49/6/49 121/2/121 130/4/130
f 124/23/124 123/149/123 122/24/122
f 126/22/126 125/27/125 124/23/124
f 123/149/123 115/37/115 114/149/114
f 113/24/113 123/149/123 114/149/114
f 6/19/6 122/24/122 113/24/113
f 65/73/65 128/79/128 64/69/64
f 130/72/130 129/78/129 65/73/65
f 64/69/64 54/25/54 126/22/126
f 68/81/68 131/66/131 132/66/132
f 77/95/77 142/39/142 139/106/139
f 141/150/141 142/39/142 140/95/140
f 141/150/141 113/24/113 114/149/114
f 142/39/142 114/149/114 115/37/115
f 137/96/137 139/106/139 112/106/112
f 150/134/150 149/130/149 90/32/90
f 118/136/118 146/138/146 117/138/117
f 120/141/120 147/136/147 118/136/118
f 145/33/145 149/130/149 116/131/116
f 107/89/107 143/67/143 97/68/97
f 9/151/9 10/1/10 119/3/119
f 28/19/28 27/18/27 53/21/53
f 49/6/49 1/5/1 23/7/23
f 48/8/48 23/7/23 24/9/24
f 8/140/8 9/151/9 119/3/119
f 148/137/148 120/141/120 47/10/47
f 50/11/50 13/16/13 51/12/51
f 51/12/51 13/16/13 14/14/14
f 24/9/24 43/13/43 42/125/42
f 23/7/23 50/11/50 43/13/43
f 52/15/52 14/14/14 3/17/3
f 44/20/44 52/15/52 28/19/28
f 43/13/43 51/12/51 52/15/52
f 123/149/123 125/27/125 127/27/127
f 127/27/127 125/27/125 30/26/30
f 27/18/27 3/17/3 126/22/126
f 54/25/54 2/40/2 30/26/30
f 91/152/91 95/28/95 88/30/88
f 55/34/55 57/153/57 56/35/56
f 55/34/55 58/42/58 57/153/57
f 56/35/56 57/153/57 59/44/59
f 57/153/57 58/42/58 59/44/59
f 30/26/30 55/34/55 35/36/35
f 2/41/2 21/42/21 58/42/58
f 58/42/58 21/42/21 10/43/10
f 56/35/56 59/44/59 9/45/9
f 37/47/37 56/35/56 8/46/8
f 35/36/35 56/35/56 36/48/36
f 60/53/60 61/51/61 63/50/63
f 63/50/63 62/49/62 104/61/104
f 102/112/102 82/116/82 101/101/101
f 82/116/82 83/102/83 101/101/101
f 17/59/17 16/107/16 62/49/62
f 62/49/62 16/107/16 92/56/92
f 143/67/143 87/29/87 95/28/95
f 132/66/132 19/55/19 67/82/67
f 19/55/19 18/85/18 67/82/67
f 3/17/3 14/71/14 64/69/64
f 13/70/13 65/73/65 64/69/64
f 13/70/13 1/154/1 130/72/130
f 66/76/66 121/155/121 10/156/10
f 66/76/66 10/156/10 21/77/21
f 128/79/128 129/78/129 21/77/21
f 103/128/103 20/66/20 133/65/133
f 103/128/103 133/65/133 69/80/69
f 67/82/67 32/82/32 33/83/33
f 73/111/73 135/94/135 134/104/134
f 68/81/68 33/83/33 34/84/34
f 132/66/132 67/82/67 68/81/68
f 18/85/18 7/93/7 32/82/32
f 109/86/109 89/88/89 45/63/45
f 107/89/107 108/64/108 45/63/45
f 88/30/88 11/117/11 91/152/91
f 103/144/103 96/52/96 63/50/63
f 63/50/63 20/61/20 103/144/103
f 63/50/63 104/61/104 20/61/20
f 70/98/70 71/90/71 33/83/33
f 70/98/70 36/48/36 71/90/71
f 36/48/36 37/47/37 72/91/72
f 31/92/31 70/98/70 32/82/32
f 115/37/115 127/27/127 94/97/94
f 110/105/110 41/100/41 86/122/86
f 86/122/86 29/113/29 110/105/110
f 135/94/135 137/96/137 136/103/136
f 74/157/74 15/108/15 134/104/134
f 15/108/15 73/111/73 134/104/134
f 135/94/135 73/111/73 38/110/38
f 75/54/75 74/157/74 134/104/134
f 102/112/102 73/111/73 15/108/15
f 19/55/19 75/54/75 18/85/18
f 139/106/139 31/92/31 7/93/7
f 140/95/140 76/109/76 141/150/141
f 76/109/76 138/24/138 141/150/141
f 136/103/136 112/106/112 7/93/7
f 131/66/131 19/55/19 132/66/132
f 16/107/16 74/157/74 75/54/75
f 15/108/15 74/157/74 16/107/16
f 31/92/31 142/39/142 111/38/111
f 94/97/94 35/36/35 70/98/70
f 70/98/70 31/92/31 111/38/111
f 138/24/138 29/113/29 113/24/113
f 38/110/38 76/109/76 77/95/77
f 79/114/79 81/115/81 80/58/80
f 80/58/80 82/116/82 12/74/12
f 81/115/81 83/102/83 82/116/82
f 91/133/91 100/119/100 60/53/60
f 98/58/98 78/57/78 80/58/80
f 11/117/11 5/123/5 79/114/79
f 5/123/5 39/114/39 79/114/79
f 39/114/39 40/115/40 81/115/81
f 40/115/40 41/100/41 83/102/83
f 110/105/110 76/109/76 38/110/38
f 82/116/82 102/112/102 15/108/15
f 12/74/12 15/108/15 17/59/17
f 99/118/99 12/60/12 62/49/62
f 100/119/100 99/118/99 61/51/61
f 39/114/39 84/120/84 40/115/40
f 26/123/26 25/124/25 84/120/84
f 24/9/24 42/125/42 84/120/84
f 42/125/42 43/13/43 85/121/85
f 85/121/85 43/13/43 44/20/44
f 85/121/85 44/20/44 6/19/6
f 86/122/86 85/121/85 29/113/29
f 46/31/46 145/33/145 144/126/144
f 143/67/143 45/63/45 46/31/46
f 144/126/144 116/131/116 5/123/5
f 88/30/88 87/29/87 144/126/144
f 69/80/69 106/127/106 105/127/105
f 149/130/149 26/123/26 5/123/5
f 89/88/89 22/87/22 146/138/146
f 89/88/89 148/137/148 90/32/90
f 148/137/148 47/10/47 150/134/150
f 150/134/150 25/124/25 26/123/26
f 148/137/148 150/134/150 90/32/90
f 34/84/34 72/91/72 109/135/109
f 72/91/72 22/99/22 109/135/109
f 89/88/89 146/138/146 148/137/148
f 22/87/22 4/139/4 117/138/117
f 45/63/45 89/88/89 90/32/90
f 95/132/95 96/52/96 97/158/97
f 96/52/96 105/145/105 97/159/97
f 91/160/91 11/161/11 100/162/100
f 104/61/104 92/56/92 19/146/19
f 38/110/38 101/101/101 110/105/110
f 118/136/118 119/3/119 48/8/48
f 119/3/119 121/2/121 49/6/49
f 117/138/117 8/140/8 118/136/118
f 124/23/124 125/27/125 123/149/123
f 126/22/126 54/25/54 125/27/125
f 123/149/123 127/27/127 115/37/115
f 113/24/113 122/24/122 123/149/123
f 6/19/6 28/19/28 122/24/122
f 65/73/65 129/78/129 128/79/128
f 130/72/130 66/76/66 129/78/129
f 121/155/121 66/76/66 130/72/130
f 64/69/64 128/79/128 54/25/54
f 68/81/68 133/65/133 131/66/131
f 136/103/136 137/96/137 112/106/112
f 77/95/77 140/95/140 142/39/142
f 141/150/141 138/24/138 113/24/113
f 142/39/142 141/150/141 114/149/114
f 137/96/137 77/95/77 139/106/139
f 144/126/144 145/33/145 116/131/116
f 118/136/118 147/136/147 146/138/146
f 120/141/120 148/137/148 147/136/147
f 145/33/145 90/32/90 149/130/149
f 105/148/105 107/89/107 97/68/97
