# Blender 4.2.1 LTS
# www.blender.org
o Cube.019
v -0.470404 3.712221 -0.211184
v 0.420984 3.988303 0.409676
v 0.489026 4.134069 0.006607
v -0.833745 2.439409 0.271992
v -0.924053 0.987993 -0.501547
v 0.967097 2.940227 -0.057915
v 1.083785 0.917039 0.572419
v -0.918626 2.785473 0.251964
v -0.817530 3.049920 0.246438
v -0.505635 3.577896 0.147699
v -0.846420 0.309308 -0.508761
v 0.451705 0.243378 -0.591115
v -0.062032 3.971701 -0.174602
v 0.226106 4.112770 -0.102356
v 1.098616 0.345636 -0.255718
v 0.931255 0.162858 0.015197
v 0.882960 0.183629 -0.228844
v 0.997240 0.584443 0.573686
v 0.892302 0.294529 0.543755
v 0.364269 0.129342 0.558483
v -0.042944 3.876207 0.335727
v -0.847984 1.942522 0.350803
v -0.947258 3.043716 -0.353961
v -0.998459 2.627851 -0.369296
v -0.860288 2.134034 -0.439159
v -0.830792 1.533230 -0.385827
v 0.744102 3.733811 -0.035216
v 0.969648 3.346336 -0.010388
v 0.961306 2.330808 -0.249660
v 0.698596 3.665036 0.467662
v 0.927866 1.892734 0.408569
v 0.614760 1.025189 0.657827
v 0.018479 1.328947 0.524904
v -0.529571 0.940797 0.544887
v 0.466574 2.841874 0.572809
v 0.030271 2.592320 0.618002
v -0.433890 2.518976 0.462597
v 1.339466 1.401711 -0.252305
v -0.484408 1.517625 -0.510111
v 0.134027 1.596039 -0.484246
v 0.751880 1.596906 -0.464468
v -0.453713 2.569361 -0.440467
v -0.166459 2.843081 -0.351386
v 0.476058 2.876437 -0.221258
v -1.163200 0.953875 0.262844
v -1.281945 0.932887 -0.004830
v -1.065806 2.166855 -0.243776
v -1.014466 3.016910 -0.248846
v -0.838268 3.319259 -0.199650
v -0.427242 3.416426 -0.288457
v 0.035107 3.302449 -0.313800
v 0.453814 3.545524 -0.211455
v 1.029780 3.555999 0.071876
v 0.571418 4.081155 0.307998
v 0.386276 3.736172 0.474981
v -0.212975 2.975181 0.465026
v -0.032091 3.340922 0.425718
v -0.040506 3.640365 0.414505
v -0.327698 3.437001 0.311912
v -0.484090 -0.006104 -0.324504
v 0.005754 -0.002966 -0.299593
v 0.479301 0.051981 -0.286242
v 0.139329 0.033871 0.297714
v 0.312431 4.163648 0.039026
v -0.034117 4.066602 -0.035054
v -0.377771 3.821721 0.096628
v 0.558622 0.578842 0.721073
v 0.073226 0.458303 0.658634
v -0.468569 0.557423 0.573862
v 0.431982 1.954162 0.485883
v 0.037659 1.893422 0.524888
v -0.426331 1.782668 0.461638
v 1.250294 0.855068 -0.258230
v 1.187115 0.341508 0.022459
v 1.123458 0.342048 0.287668
v 1.367657 1.860946 -0.082910
v 1.351200 1.628389 0.112844
v -0.474000 0.296471 -0.709588
v -0.481625 0.879078 -0.661564
v 0.036430 0.571348 -0.761044
v 0.046950 0.890078 -0.752520
v 0.567101 0.578449 -0.702165
v 0.621599 0.906789 -0.676978
v -0.476002 2.182178 -0.528204
v 0.506553 2.469085 -0.334024
v 0.659206 2.025618 -0.437103
v -1.203207 0.388408 0.019969
v -1.055098 0.338454 -0.247842
v -1.032415 1.573277 0.210090
v -1.124759 1.536061 -0.021259
v -0.842221 0.138288 -0.306597
v 0.851977 0.160720 0.357617
v -0.897803 1.116817 0.437398
v 0.871136 2.903002 0.577719
v -0.929408 0.129886 -0.046205
v -0.742577 0.078993 0.300180
v -0.916224 0.162985 0.300895
v -0.049393 0.220668 -0.661511
v 0.109842 0.103975 -0.540950
v -0.476576 0.069410 -0.557619
v 1.032691 1.005472 -0.515892
v 1.045988 0.792807 -0.491165
v -0.362048 0.174026 0.492192
v 0.521770 0.072469 0.402415
v -0.807081 0.248545 0.453610
v -0.852777 0.822139 0.500467
v -0.983145 0.363616 0.389803
v -1.002252 0.865229 0.429104
v -0.827071 1.550164 0.373132
v 1.208559 1.684990 -0.305193
v 0.892065 2.273901 0.478536
v 1.304843 0.911577 0.418662
v 1.145119 2.887477 0.068281
v 1.180599 2.846836 0.299930
v 1.035931 2.805406 0.494095
v -1.158477 0.926679 -0.341960
v -0.983513 2.434281 0.172508
v -1.106403 2.713168 -0.007702
v -1.022513 3.056786 0.031036
v -1.086173 2.722164 -0.172384
v -0.845959 3.329592 -0.009220
v 1.143607 3.337597 0.126313
v 1.143129 3.311041 0.299839
v 0.985506 3.726427 0.177239
v 0.956671 3.697934 0.354590
v 0.591432 4.113205 0.109996
v 1.034322 3.392810 0.408153
v 0.303365 4.133413 0.262536
v -0.047900 4.037961 0.189289
v -0.401468 3.816338 -0.107942
v 0.502543 0.209938 0.644973
v 0.550995 0.320015 0.703701
v -0.063616 0.310766 0.615435
v 1.312648 0.542548 0.026895
v 1.421521 0.980500 0.065252
v 1.279142 0.551684 0.330754
v 1.377130 0.925238 0.307747
v 1.136506 2.468707 0.007948
v 1.168647 1.587451 0.324460
v 1.317778 1.978244 0.137610
v 1.198303 2.330571 0.165676
v 1.111236 1.952917 0.304299
v -1.100996 0.328774 0.269005
v -1.165755 0.531519 -0.263494
v -1.234766 0.938890 -0.228530
v -1.053695 2.086952 0.190462
v -1.107861 2.175719 0.074294
v -1.138195 2.111077 -0.029673
v -0.993297 1.531855 -0.263213
v -1.069380 1.935397 -0.213441
vn -0.4445 0.5604 -0.6988
vn 0.0040 0.4838 0.8752
vn 0.3678 0.7777 -0.5099
vn -0.4941 0.0470 0.8681
vn -0.4657 0.1110 -0.8780
vn 0.4558 0.1761 -0.8725
vn 0.4139 0.0323 0.9098
vn -0.6005 0.1003 0.7933
vn -0.5097 0.3089 0.8030
vn -0.5607 0.4215 0.7127
vn -0.5734 -0.3486 -0.7414
vn 0.2835 -0.5783 -0.7650
vn -0.1630 0.5792 -0.7987
vn -0.0642 0.7561 -0.6513
vn 0.6598 -0.5522 -0.5097
vn 0.4316 -0.9018 -0.0197
vn 0.4363 -0.8230 -0.3638
vn 0.4745 -0.1895 0.8596
vn 0.4938 -0.5265 0.6921
vn -0.0214 -0.8051 0.5927
vn -0.3950 0.4471 0.8026
vn -0.4475 0.0485 0.8930
vn -0.4832 0.2744 -0.8314
vn -0.6048 0.1005 -0.7900
vn -0.4486 -0.0494 -0.8923
vn -0.4685 0.1063 -0.8770
vn 0.4688 0.3476 -0.8121
vn 0.4938 0.1159 -0.8618
vn 0.4755 0.2806 -0.8338
vn 0.2098 0.2608 0.9423
vn 0.3462 0.0460 0.9370
vn 0.0615 0.1437 0.9877
vn -0.0861 0.1091 0.9903
vn -0.1411 0.1158 0.9832
vn -0.0165 0.0488 0.9987
vn -0.0898 0.0620 0.9940
vn -0.3455 0.0729 0.9356
vn 0.8464 0.0569 -0.5295
vn -0.1740 0.1389 -0.9749
vn 0.0508 0.1967 -0.9791
vn 0.1819 0.1819 -0.9663
vn -0.0041 0.2725 -0.9621
vn 0.0875 0.1485 -0.9850
vn 0.2481 0.1631 -0.9549
vn -0.8126 0.0992 0.5744
vn -0.9938 0.0570 0.0957
vn -0.8452 -0.0438 -0.5326
vn -0.9006 0.3188 -0.2955
vn -0.7446 0.5934 -0.3056
vn -0.0233 0.1902 -0.9815
vn 0.1158 0.0885 -0.9893
vn 0.2710 0.1648 -0.9484
vn 0.7041 0.3409 -0.6229
vn 0.3613 0.7790 0.5124
vn -0.0670 0.1921 0.9791
vn -0.2550 0.1930 0.9475
vn -0.3173 0.1895 0.9292
vn -0.3179 0.1747 0.9319
vn -0.3996 0.2643 0.8777
vn -0.1599 -0.9769 -0.1419
vn 0.0657 -0.9856 -0.1559
vn 0.2312 -0.9380 -0.2583
vn -0.0021 -0.9755 0.2198
vn -0.0537 0.9949 -0.0856
vn -0.3495 0.9092 -0.2262
vn -0.6423 0.6699 0.3723
vn 0.0993 0.0201 0.9949
vn -0.1297 -0.0467 0.9905
vn -0.1845 -0.0804 0.9795
vn 0.0984 -0.0126 0.9951
vn -0.0033 -0.0684 0.9977
vn -0.1938 0.0213 0.9808
vn 0.8301 -0.1765 -0.5290
vn 0.7354 -0.6769 -0.0321
vn 0.6754 -0.6543 0.3402
vn 0.9277 0.2130 -0.3066
vn 0.9277 0.0907 0.3622
vn -0.2440 -0.2598 -0.9343
vn -0.2552 0.1188 -0.9596
vn 0.0184 -0.1059 -0.9942
vn -0.0117 0.1722 -0.9850
vn 0.2940 -0.2053 -0.9335
vn 0.2225 0.1505 -0.9632
vn -0.0456 0.0808 -0.9957
vn 0.1830 0.2406 -0.9532
vn 0.1417 0.1921 -0.9711
vn -0.8990 -0.4378 0.0126
vn -0.7291 -0.5612 -0.3918
vn -0.7914 0.0990 0.6032
vn -0.9910 0.1280 -0.0395
vn -0.5379 -0.7704 -0.3422
vn 0.4022 -0.8739 0.2729
vn -0.4188 0.1972 0.8864
vn 0.2341 0.0400 0.9714
vn -0.5366 -0.8411 -0.0678
vn -0.2399 -0.8986 0.3674
vn -0.5355 -0.7416 0.4040
vn 0.0828 -0.4867 -0.8697
vn 0.1291 -0.8004 -0.5854
vn -0.1984 -0.7783 -0.5957
vn 0.4904 0.0606 -0.8694
vn 0.6034 -0.1825 -0.7763
vn -0.1341 -0.6216 0.7718
vn 0.1853 -0.9460 0.2658
vn -0.3267 -0.4274 0.8430
vn -0.3089 0.0298 0.9506
vn -0.5659 -0.2371 0.7896
vn -0.5805 0.0473 0.8129
vn -0.4337 0.1130 0.8939
vn 0.5262 0.2087 -0.8244
vn 0.2963 -0.1521 0.9429
vn 0.7093 -0.0001 0.7049
vn 0.8644 0.1167 -0.4891
vn 0.9614 0.0385 0.2726
vn 0.6145 -0.0277 0.7884
vn -0.6993 0.0516 -0.7130
vn -0.6401 0.0922 0.7628
vn -0.9680 0.1019 0.2291
vn -0.8660 0.3912 0.3114
vn -0.9384 0.0873 -0.3343
vn -0.7654 0.5897 0.2577
vn 0.9045 0.1857 -0.3840
vn 0.9250 0.1820 0.3334
vn 0.7932 0.5893 -0.1532
vn 0.6452 0.4813 0.5933
vn 0.5183 0.8439 -0.1385
vn 0.5876 0.2252 0.7772
vn -0.1187 0.8841 0.4519
vn -0.4438 0.8038 0.3961
vn -0.6001 0.7758 -0.1949
vn 0.0922 -0.6448 0.7588
vn 0.1345 -0.2948 0.9461
vn -0.1538 -0.3271 0.9324
vn 0.9159 -0.3762 -0.1401
vn 0.9922 -0.0840 -0.0919
vn 0.7891 -0.4135 0.4542
vn 0.9253 -0.0263 0.3783
vn 0.8751 0.1602 -0.4567
vn 0.6427 0.1969 0.7403
vn 0.8645 0.1721 0.4721
vn 0.9739 0.1276 0.1879
vn 0.6027 0.0297 0.7974
vn -0.7789 -0.4315 0.4550
vn -0.8258 -0.2412 -0.5097
vn -0.9152 0.0842 -0.3941
vn -0.7650 0.0545 0.6418
vn -0.9411 0.0252 0.3372
vn -1.0000 0.0013 0.0091
vn -0.7354 0.1233 -0.6663
vn -0.8373 -0.0621 -0.5433
vt 0.194170 0.856225
vt 0.190711 0.858202
vt 0.190217 0.858696
vt 0.189723 0.864130
vt 0.187253 0.867095
vt 0.188735 0.863142
vt 0.186265 0.866107
vt 0.188241 0.862648
vt 0.184783 0.864130
vt 0.187253 0.860672
vt 0.186265 0.867095
vt 0.183794 0.869565
vt 0.183794 0.868083
vt 0.183300 0.873518
vt 0.180830 0.873024
vt 0.184783 0.870553
vt 0.181818 0.876482
vt 0.179842 0.875000
vt 0.176383 0.875000
vt 0.180336 0.871542
vt 0.177372 0.877470
vt 0.181818 0.878458
vt 0.177372 0.879941
vt 0.175889 0.877964
vt 0.177866 0.885870
vt 0.173913 0.884881
vt 0.175889 0.882905
vt 0.180336 0.854743
vt 0.183794 0.854743
vt 0.180336 0.857213
vt 0.184783 0.857213
vt 0.182312 0.859684
vt 0.172925 0.888834
vt 0.169466 0.890810
vt 0.171443 0.887352
vt 0.172925 0.883399
vt 0.171937 0.883893
vt 0.170455 0.881423
vt 0.177372 0.885870
vt 0.174407 0.887846
vt 0.171443 0.890810
vt 0.168972 0.895751
vt 0.168478 0.892787
vt 0.166502 0.894269
vt 0.166008 0.894269
vt 0.166996 0.891798
vt 0.170455 0.888340
vt 0.167490 0.870553
vt 0.161561 0.874506
vt 0.164526 0.869071
vt 0.157115 0.871542
vt 0.162055 0.867589
vt 0.167984 0.878458
vt 0.166996 0.879447
vt 0.166502 0.878458
vt 0.177866 0.862154
vt 0.175889 0.865613
vt 0.169466 0.871542
vt 0.168972 0.869565
vt 0.163538 0.877964
vt 0.188735 0.849802
vt 0.185771 0.855237
vt 0.187253 0.852767
vt 0.162055 0.885870
vt 0.164032 0.883399
vt 0.182806 0.852767
vt 0.182312 0.853261
vt 0.182806 0.880435
vt 0.186759 0.879447
vt 0.184289 0.878458
vt 0.188241 0.883893
vt 0.185771 0.882411
vt 0.173913 0.866107
vt 0.174407 0.865119
vt 0.184289 0.888834
vt 0.180830 0.890316
vt 0.182312 0.886858
vt 0.179348 0.885870
vt 0.162549 0.888834
vt 0.162055 0.884387
vt 0.165514 0.884387
vt 0.166502 0.887352
vt 0.163043 0.889328
vt 0.167490 0.880929
vt 0.189723 0.851285
vt 0.191206 0.851779
vt 0.186759 0.855731
vt 0.183794 0.849802
vt 0.167490 0.887846
vt 0.165020 0.891304
vt 0.169960 0.881917
vt 0.168478 0.880929
vt 0.172431 0.876482
vt 0.172925 0.877470
vt 0.170455 0.879447
vt 0.171937 0.885375
vt 0.168478 0.885870
vt 0.165514 0.892787
vt 0.177372 0.869565
vt 0.175395 0.870059
vt 0.176383 0.867589
vt 0.168478 0.878458
vt 0.171443 0.876482
vt 0.174901 0.873518
vt 0.168972 0.880435
vt 0.166008 0.873518
vt 0.170949 0.873024
vt 0.175395 0.875988
vt 0.173913 0.874012
vt 0.171443 0.873518
vt 0.172431 0.871542
vt 0.178854 0.874012
vt 0.180336 0.862648
vt 0.177372 0.866601
vt 0.175395 0.867589
vt 0.179348 0.860672
vt 0.166996 0.867589
vt 0.165020 0.864130
vt 0.182806 0.865613
vt 0.179842 0.871047
vt 0.179348 0.871047
vt 0.180830 0.862154
vt 0.183794 0.862648
vt 0.184289 0.866107
vt 0.181324 0.859190
vt 0.160573 0.890810
vt 0.161067 0.886858
vt 0.162055 0.891798
vt 0.182806 0.860178
vt 0.181818 0.860178
vt 0.158103 0.868083
vt 0.159585 0.864130
vt 0.184289 0.860672
vt 0.162549 0.892787
vt 0.187747 0.858696
vt 0.186759 0.858696
vt 0.189723 0.857213
vt 0.192688 0.853755
vt 0.191700 0.854743
vt 0.188241 0.860178
vt 0.164032 0.877964
vt 0.166502 0.866601
vt 0.158103 0.875000
vt 0.155138 0.873024
vt 0.165020 0.879941
vt 0.185771 0.851285
vt 0.185277 0.849308
vt 0.174901 0.881423
vt 0.173913 0.879447
vt 0.193182 0.855237
vt 0.179348 0.857213
vt 0.170949 0.889328
vt 0.190711 0.881423
vt 0.187253 0.889328
vt 0.184289 0.891304
vt 0.170949 0.875988
vt 0.156621 0.871542
vt 0.156126 0.872530
vt 0.208004 0.879447
vt 0.205534 0.877964
vt 0.206522 0.877470
s 1
f 10/1/10 121/2/121 119/3/119
f 130/4/130 1/5/1 49/6/49
f 49/6/49 23/7/23 48/8/48
f 48/8/48 24/9/24 47/10/47
f 50/11/50 51/12/51 43/13/43
f 51/12/51 14/14/14 52/15/52
f 23/7/23 43/13/43 24/9/24
f 1/5/1 50/11/50 23/7/23
f 1/5/1 13/16/13 50/11/50
f 52/15/52 3/17/3 27/18/27
f 52/15/52 27/18/27 28/19/28
f 44/20/44 28/19/28 6/19/6
f 43/13/43 52/15/52 44/20/44
f 53/21/53 126/22/126 124/23/124
f 53/21/53 124/23/124 122/24/122
f 27/18/27 126/22/126 53/21/53
f 54/25/54 30/26/30 125/27/125
f 95/28/95 87/29/87 88/30/88
f 46/31/46 90/31/90 145/32/145
f 55/33/55 56/34/56 35/35/35
f 115/36/115 111/37/111 142/38/142
f 2/39/2 55/33/55 30/26/30
f 2/40/2 58/41/58 55/33/55
f 58/41/58 10/42/10 59/43/59
f 59/43/59 10/42/10 9/44/9
f 56/34/56 9/44/9 8/45/8
f 37/46/37 8/45/8 4/45/4
f 56/34/56 37/46/37 36/47/36
f 62/48/62 63/49/63 61/50/61
f 63/49/63 96/51/96 60/52/60
f 75/53/75 19/54/19 92/55/92
f 78/56/78 98/57/98 100/56/100
f 17/58/17 62/48/62 12/59/12
f 62/48/62 92/55/92 104/60/104
f 93/61/93 45/62/45 108/63/108
f 133/64/133 20/65/20 131/65/131
f 143/66/143 95/28/95 97/67/97
f 3/17/3 64/68/64 126/22/126
f 13/69/13 64/68/64 14/70/14
f 13/69/13 130/71/130 65/72/65
f 12/73/12 99/74/99 98/57/98
f 66/75/66 21/76/21 129/77/129
f 128/78/128 21/76/21 2/39/2
f 128/78/128 2/39/2 54/25/54
f 69/79/69 133/64/133 68/80/68
f 67/81/67 33/82/33 68/80/68
f 68/80/68 34/83/34 69/79/69
f 18/84/18 32/81/32 67/81/67
f 109/85/109 45/62/45 93/61/93
f 109/85/109 22/86/22 89/87/89
f 107/88/107 45/62/45 143/66/143
f 71/89/71 72/90/72 33/82/33
f 36/47/36 72/90/72 71/89/71
f 31/91/31 32/81/32 7/92/7
f 135/93/135 77/94/77 137/95/137
f 127/27/127 30/26/30 94/96/94
f 35/35/35 36/47/36 70/97/70
f 37/46/37 4/45/4 22/98/22
f 37/46/37 22/98/22 72/90/72
f 41/99/41 101/100/101 83/101/83
f 33/82/33 72/90/72 34/83/34
f 70/97/70 33/82/33 32/81/32
f 135/93/135 136/102/136 134/103/134
f 136/102/136 75/53/75 134/103/134
f 41/99/41 110/104/110 101/100/101
f 18/84/18 75/53/75 136/102/136
f 139/105/139 7/92/7 112/105/112
f 136/102/136 7/92/7 18/84/18
f 16/106/16 75/53/75 92/55/92
f 15/107/15 16/106/16 17/58/17
f 76/108/76 140/94/140 77/94/77
f 142/38/142 31/91/31 139/105/139
f 38/109/38 73/110/73 102/111/102
f 29/112/29 138/24/138 76/108/76
f 94/96/94 70/97/70 111/37/111
f 113/24/113 29/112/29 6/19/6
f 38/109/38 77/94/77 135/93/135
f 79/113/79 80/57/80 78/56/78
f 80/57/80 12/73/12 98/57/98
f 81/114/81 82/115/82 80/57/80
f 11/116/11 79/113/79 78/56/78
f 39/113/39 81/114/81 79/113/79
f 40/114/40 83/101/83 81/114/81
f 82/115/82 15/107/15 12/73/12
f 99/117/99 62/48/62 61/50/61
f 100/118/100 61/50/61 60/52/60
f 84/119/84 85/120/85 40/114/40
f 40/114/40 86/121/86 41/99/41
f 40/114/40 85/120/85 86/121/86
f 26/122/26 39/113/39 5/122/5
f 26/122/26 84/119/84 39/113/39
f 24/9/24 84/119/84 25/123/25
f 42/124/42 85/120/85 84/119/84
f 85/120/85 6/19/6 29/112/29
f 110/104/110 29/112/29 76/108/76
f 35/35/35 94/96/94 30/26/30
f 46/31/46 144/125/144 87/29/87
f 143/66/143 46/31/46 87/29/87
f 144/125/144 5/122/5 11/116/11
f 69/79/69 105/126/105 103/127/103
f 34/83/34 106/126/106 69/79/69
f 34/83/34 93/128/93 106/126/106
f 149/129/149 5/122/5 116/130/116
f 11/116/11 88/30/88 144/125/144
f 11/116/11 78/56/78 100/56/100
f 95/131/95 91/132/91 60/52/60
f 60/52/60 96/51/96 95/131/95
f 150/133/150 26/122/26 149/129/149
f 34/83/34 109/134/109 93/128/93
f 147/135/147 148/136/148 146/137/146
f 4/138/4 8/139/8 117/137/117
f 120/140/120 48/8/48 47/10/47
f 47/10/47 24/9/24 25/123/25
f 150/133/150 47/10/47 25/123/25
f 22/86/22 117/137/117 146/137/146
f 45/62/45 90/31/90 46/31/46
f 104/60/104 131/141/131 20/60/20
f 122/24/122 28/19/28 53/21/53
f 99/117/99 100/118/100 98/142/98
f 102/111/102 101/100/101 38/109/38
f 96/51/96 103/143/103 105/144/105
f 104/60/104 19/145/19 131/141/131
f 106/146/106 107/88/107 105/147/105
f 106/146/106 108/63/108 107/88/107
f 106/146/106 93/61/93 108/63/108
f 111/37/111 115/36/115 94/96/94
f 8/139/8 119/3/119 118/135/118
f 118/135/118 48/8/48 120/140/120
f 119/3/119 49/6/49 48/8/48
f 49/6/49 121/2/121 130/4/130
f 124/23/124 123/148/123 122/24/122
f 126/22/126 125/27/125 124/23/124
f 123/148/123 115/36/115 114/148/114
f 113/24/113 123/148/123 114/148/114
f 6/19/6 122/24/122 113/24/113
f 65/72/65 128/78/128 64/68/64
f 130/71/130 129/77/129 65/72/65
f 64/68/64 54/25/54 126/22/126
f 68/80/68 131/65/131 132/65/132
f 77/94/77 142/38/142 139/105/139
f 141/149/141 142/38/142 140/94/140
f 141/149/141 113/24/113 114/148/114
f 142/38/142 114/148/114 115/36/115
f 137/95/137 139/105/139 112/105/112
f 150/133/150 149/129/149 90/31/90
f 118/135/118 146/137/146 117/137/117
f 120/140/120 147/135/147 118/135/118
f 145/32/145 149/129/149 116/130/116
f 107/88/107 143/66/143 97/67/97
f 9/150/9 10/1/10 119/3/119
f 28/19/28 27/18/27 53/21/53
f 49/6/49 1/5/1 23/7/23
f 48/8/48 23/7/23 24/9/24
f 8/139/8 9/150/9 119/3/119
f 148/136/148 120/140/120 47/10/47
f 50/11/50 13/16/13 51/12/51
f 51/12/51 13/16/13 14/14/14
f 24/9/24 43/13/43 42/124/42
f 23/7/23 50/11/50 43/13/43
f 52/15/52 14/14/14 3/17/3
f 44/20/44 52/15/52 28/19/28
f 43/13/43 51/12/51 52/15/52
f 123/148/123 125/27/125 127/27/127
f 127/27/127 125/27/125 30/26/30
f 27/18/27 3/17/3 126/22/126
f 54/25/54 2/39/2 30/26/30
f 91/151/91 95/28/95 88/30/88
f 55/33/55 57/152/57 56/34/56
f 55/33/55 58/41/58 57/152/57
f 56/34/56 57/152/57 59/43/59
f 57/152/57 58/41/58 59/43/59
f 30/26/30 55/33/55 35/35/35
f 2/40/2 21/41/21 58/41/58
f 58/41/58 21/41/21 10/42/10
f 56/34/56 59/43/59 9/44/9
f 37/46/37 56/34/56 8/45/8
f 35/35/35 56/34/56 36/47/36
f 60/52/60 61/50/61 63/49/63
f 63/49/63 62/48/62 104/60/104
f 102/111/102 82/115/82 101/100/101
f 82/115/82 83/101/83 101/100/101
f 17/58/17 16/106/16 62/48/62
f 62/48/62 16/106/16 92/55/92
f 143/66/143 87/29/87 95/28/95
f 132/65/132 19/54/19 67/81/67
f 19/54/19 18/84/18 67/81/67
f 3/17/3 14/70/14 64/68/64
f 13/69/13 65/72/65 64/68/64
f 13/69/13 1/153/1 130/71/130
f 66/75/66 121/154/121 10/155/10
f 66/75/66 10/155/10 21/76/21
f 128/78/128 129/77/129 21/76/21
f 103/127/103 20/65/20 133/64/133
f 103/127/103 133/64/133 69/79/69
f 67/81/67 32/81/32 33/82/33
f 73/110/73 135/93/135 134/103/134
f 68/80/68 33/82/33 34/83/34
f 132/65/132 67/81/67 68/80/68
f 18/84/18 7/92/7 32/81/32
f 109/85/109 89/87/89 45/62/45
f 107/88/107 108/63/108 45/62/45
f 88/30/88 11/116/11 91/151/91
f 103/143/103 96/51/96 63/49/63
f 63/49/63 20/60/20 103/143/103
f 63/49/63 104/60/104 20/60/20
f 70/97/70 71/89/71 33/82/33
f 70/97/70 36/47/36 71/89/71
f 36/47/36 37/46/37 72/90/72
f 31/91/31 70/97/70 32/81/32
f 115/36/115 127/27/127 94/96/94
f 110/104/110 41/99/41 86/121/86
f 86/121/86 29/112/29 110/104/110
f 135/93/135 137/95/137 136/102/136
f 74/156/74 15/107/15 134/103/134
f 15/107/15 73/110/73 134/103/134
f 135/93/135 73/110/73 38/109/38
f 75/53/75 74/156/74 134/103/134
f 102/111/102 73/110/73 15/107/15
f 19/54/19 75/53/75 18/84/18
f 139/105/139 31/91/31 7/92/7
f 140/94/140 76/108/76 141/149/141
f 76/108/76 138/24/138 141/149/141
f 136/102/136 112/105/112 7/92/7
f 131/65/131 19/54/19 132/65/132
f 16/106/16 74/156/74 75/53/75
f 15/107/15 74/156/74 16/106/16
f 31/91/31 142/38/142 111/37/111
f 94/96/94 35/35/35 70/97/70
f 70/97/70 31/91/31 111/37/111
f 138/24/138 29/112/29 113/24/113
f 38/109/38 76/108/76 77/94/77
f 79/113/79 81/114/81 80/57/80
f 80/57/80 82/115/82 12/73/12
f 81/114/81 83/101/83 82/115/82
f 91/132/91 100/118/100 60/52/60
f 98/57/98 78/56/78 80/57/80
f 11/116/11 5/122/5 79/113/79
f 5/122/5 39/113/39 79/113/79
f 39/113/39 40/114/40 81/114/81
f 40/114/40 41/99/41 83/101/83
f 110/104/110 76/108/76 38/109/38
f 82/115/82 102/111/102 15/107/15
f 12/73/12 15/107/15 17/58/17
f 99/117/99 12/59/12 62/48/62
f 100/118/100 99/117/99 61/50/61
f 39/113/39 84/119/84 40/114/40
f 26/122/26 25/123/25 84/119/84
f 24/9/24 42/124/42 84/119/84
f 42/124/42 43/13/43 85/120/85
f 85/120/85 43/13/43 44/20/44
f 85/120/85 44/20/44 6/19/6
f 86/121/86 85/120/85 29/112/29
f 46/31/46 145/32/145 144/125/144
f 143/66/143 45/62/45 46/31/46
f 144/125/144 116/130/116 5/122/5
f 88/30/88 87/29/87 144/125/144
f 69/79/69 106/126/106 105/126/105
f 149/129/149 26/122/26 5/122/5
f 89/87/89 22/86/22 146/137/146
f 89/87/89 148/136/148 90/31/90
f 148/136/148 47/10/47 150/133/150
f 150/133/150 25/123/25 26/122/26
f 148/136/148 150/133/150 90/31/90
f 34/83/34 72/90/72 109/134/109
f 72/90/72 22/98/22 109/134/109
f 89/87/89 146/137/146 148/136/148
f 22/86/22 4/138/4 117/137/117
f 45/62/45 89/87/89 90/31/90
f 95/131/95 96/51/96 97/157/97
f 96/51/96 105/144/105 97/158/97
f 91/159/91 11/160/11 100/161/100
f 104/60/104 92/55/92 19/145/19
f 38/109/38 101/100/101 110/104/110
f 118/135/118 119/3/119 48/8/48
f 119/3/119 121/2/121 49/6/49
f 117/137/117 8/139/8 118/135/118
f 124/23/124 125/27/125 123/148/123
f 126/22/126 54/25/54 125/27/125
f 123/148/123 127/27/127 115/36/115
f 113/24/113 122/24/122 123/148/123
f 6/19/6 28/19/28 122/24/122
f 65/72/65 129/77/129 128/78/128
f 130/71/130 66/75/66 129/77/129
f 121/154/121 66/75/66 130/71/130
f 64/68/64 128/78/128 54/25/54
f 68/80/68 133/64/133 131/65/131
f 136/102/136 137/95/137 112/105/112
f 77/94/77 140/94/140 142/38/142
f 141/149/141 138/24/138 113/24/113
f 142/38/142 141/149/141 114/148/114
f 137/95/137 77/94/77 139/105/139
f 144/125/144 145/32/145 116/130/116
f 118/135/118 147/135/147 146/137/146
f 120/140/120 148/136/148 147/135/147
f 145/32/145 90/31/90 149/129/149
f 105/147/105 107/88/107 97/67/97
