# Blender 4.2.1 LTS
# www.blender.org
o Cube.020
v -0.513762 -0.052652 0.513762
v -0.513762 0.974873 0.513762
v -0.513762 -0.052652 -0.513762
v -0.513762 0.974873 -0.513762
v 0.513762 -0.052652 0.513762
v 0.513762 0.974873 0.513762
v 0.513762 -0.052652 -0.513762
v 0.513762 0.974873 -0.513762
v -0.675031 0.910403 0.675031
v -0.675031 0.910403 -0.675031
v 0.675031 0.910403 -0.675031
v 0.675031 0.910403 0.675031
v -0.675031 1.450114 0.675031
v -0.675031 1.450114 -0.675031
v 0.675031 1.450114 -0.675031
v 0.675031 1.450114 0.675031
vn -1.0000 -0.0000 -0.0000
vn -0.0000 -0.0000 -1.0000
vn 1.0000 -0.0000 -0.0000
vn -0.0000 -0.0000 1.0000
vn -0.0000 -0.9286 0.3712
vn -0.0000 -0.9286 -0.3712
vn -0.3712 -0.9286 -0.0000
vn -0.0000 1.0000 -0.0000
vn 0.3712 -0.9286 -0.0000
vt 0.403656 0.898221
vt 0.403656 0.903656
vt 0.410079 0.903656
vt 0.410079 0.898221
vt 0.410079 0.898715
vt 0.405138 0.898715
vt 0.405138 0.903656
vt 0.398715 0.898221
vt 0.398715 0.903656
vt 0.405138 0.898221
vt 0.258399 0.903656
vt 0.258399 0.900198
vt 0.257411 0.900198
vt 0.257411 0.903656
vt 0.249506 0.909091
vt 0.252470 0.909091
vt 0.252470 0.907115
vt 0.249506 0.907115
vt 0.154150 0.912055
vt 0.172431 0.912055
vt 0.172431 0.905632
vt 0.154150 0.905632
vt 0.260375 0.903656
vt 0.260375 0.900198
vt 0.213933 0.925395
vt 0.204545 0.925395
vt 0.204545 0.934783
vt 0.213933 0.934783
vt 0.249506 0.910573
vt 0.252470 0.910573
s 0
f 1/1/1 2/2/1 4/3/1 3/4/1
f 3/5/2 4/6/2 8/7/2 7/3/2
f 7/8/3 8/9/3 6/7/3 5/10/3
f 5/10/4 6/7/4 2/3/4 1/4/4
f 8/11/5 4/12/5 10/13/5 11/14/5
f 2/15/6 6/16/6 12/17/6 9/18/6
f 9/19/4 12/20/4 16/21/4 13/22/4
f 11/19/2 10/20/2 14/21/2 15/22/2
f 12/19/3 11/20/3 15/21/3 16/22/3
f 10/19/1 9/20/1 13/21/1 14/22/1
f 6/23/7 8/24/7 11/12/7 12/11/7
f 13/25/8 16/26/8 15/27/8 14/28/8
f 4/29/9 2/30/9 9/16/9 10/15/9
