# Blender 4.2.1 LTS
# www.blender.org
o Plane.002
v -0.437805 8.471297 -0.176117
v -2.117924 -0.031218 -0.846110
v 0.425954 8.471297 -0.176117
v 2.150473 -0.031218 -0.846110
v -0.176314 8.471297 0.480253
v -0.836783 -0.031218 2.407848
v -0.176314 8.471297 -0.489488
v -0.836783 -0.031218 -2.384273
v 0.150592 8.471297 0.480253
v 0.778675 -0.031218 2.407849
v 0.150592 8.471297 -0.489488
v 0.778675 -0.031218 -2.384273
v -0.437805 8.471297 0.158383
v -2.117924 -0.031218 0.806873
v 0.425954 8.471297 0.158383
v 2.150473 -0.031218 0.806873
vn -0.0000 -0.0786 0.9969
vn 0.9970 -0.0774 -0.0000
vn 0.9973 0.0737 -0.0000
vn -0.0000 0.0760 0.9971
vt -0.000000 1.000000
vt 0.000000 -0.000000
vt 1.000000 0.000000
vt 1.000000 1.000000
s 0
f 1/1/1 2/2/1 4/3/1 3/4/1
f 5/1/2 6/2/2 8/3/2 7/4/2
f 9/1/3 10/2/3 12/3/3 11/4/3
f 13/1/4 14/2/4 16/3/4 15/4/4
