# Blender 4.2.1 LTS
# www.blender.org
o Retopo_Plane.004
v -23.583086 14.106919 -52.311176
v -33.371326 14.053154 -47.567219
v -11.546676 14.171035 -56.032261
v 1.435143 14.237921 -57.657047
v 14.850927 14.304680 -56.839573
v 27.606764 14.365894 -53.676685
v 39.507179 14.420747 -48.345081
v 50.170509 14.467519 -41.056171
v 60.523079 14.509760 -30.637823
v 69.415680 14.541387 -16.770437
v 73.749580 14.552654 -5.638158
v 76.851151 14.550847 12.748881
v 75.455460 14.527961 29.490000
v 70.876625 14.490927 44.250500
v 64.091537 14.445101 56.570118
v 55.528702 14.392202 66.908340
v -28.833817 -21.394697 -187.308914
v -55.526222 -21.541315 -174.372208
v 3.989304 -21.219856 -197.456268
v 39.390541 -21.037457 -201.887024
v 75.975197 -20.855408 -199.657791
v 110.760185 -20.688480 -191.032623
v 143.212448 -20.538893 -176.493423
v 172.291199 -20.411346 -156.616669
v 200.522522 -20.296160 -128.205978
v 224.772522 -20.209915 -90.389816
v 236.591003 -20.179184 -60.032253
v 245.048950 -20.184113 -9.891059
v 241.242920 -20.246523 35.761738
v 228.756470 -20.347517 76.013397
v 210.253647 -20.472481 109.608856
v 186.902924 -20.616732 137.801025
vn -0.0170 0.9702 -0.2418
vn 0.0266 0.9732 -0.2282
vn 0.0328 0.9737 -0.2256
vn -0.0089 0.9708 -0.2398
vn 0.1543 0.9797 -0.1281
vn 0.1759 0.9801 -0.0915
vn 0.1762 0.9802 -0.0909
vn 0.1553 0.9797 -0.1266
vn 0.1972 0.9762 0.0903
vn 0.1840 0.9738 0.1339
vn 0.1865 0.9742 0.1275
vn 0.1984 0.9765 0.0846
vn 0.0980 0.9774 -0.1873
vn 0.1275 0.9787 -0.1607
vn 0.1295 0.9788 -0.1585
vn 0.1012 0.9776 -0.1848
vn 0.2015 0.9795 -0.0061
vn 0.2035 0.9781 0.0439
vn 0.2037 0.9782 0.0394
vn 0.2011 0.9795 -0.0090
vn -0.1082 0.9625 -0.2489
vn -0.0636 0.9665 -0.2488
vn -0.0543 0.9672 -0.2480
vn -0.0994 0.9633 -0.2495
vn 0.0648 0.9756 -0.2098
vn 0.0694 0.9759 -0.2071
vn 0.1915 0.9801 -0.0525
vn 0.1911 0.9801 -0.0538
vn 0.1772 0.9724 0.1518
vn -0.4953 0.6752 0.5466
vn -0.7243 0.6861 -0.0680
vt 0.043478 0.005435
vt 0.044466 0.006423
vt 0.035573 0.018775
vt 0.032609 0.015810
vt 0.048913 0.008893
vt 0.050395 0.009387
vt 0.050889 0.026680
vt 0.046937 0.026186
vt 0.056324 0.006423
vt 0.056324 0.004941
vt 0.068182 0.015810
vt 0.066206 0.018281
vt 0.045949 0.007905
vt 0.047431 0.008893
vt 0.043478 0.024704
vt 0.041008 0.024209
vt 0.052866 0.007905
vt 0.054842 0.007411
vt 0.063241 0.021739
vt 0.059783 0.023715
vt 0.042984 0.002470
vt 0.042984 0.004447
vt 0.031621 0.012846
vt 0.030632 0.009387
vt 0.044960 0.007905
vt 0.037549 0.020751
vt 0.051383 0.008893
vt 0.054842 0.025692
vt 0.057312 0.003458
vt 0.069664 0.011858
vt 0.043478 0.001482
vt 0.030138 0.006423
s 1
f 4/1/1 5/2/2 21/3/3 20/4/4
f 9/5/5 10/6/6 26/7/7 25/8/8
f 14/9/9 15/10/10 31/11/11 30/12/12
f 7/13/13 8/14/14 24/15/15 23/16/16
f 12/17/17 13/18/18 29/19/19 28/20/20
f 1/21/21 3/22/22 19/23/23 17/24/24
f 5/2/2 6/25/25 22/26/26 21/3/3
f 10/6/6 11/27/27 27/28/28 26/7/7
f 15/10/10 16/29/29 32/30/29 31/11/11
f 3/22/22 4/1/1 20/4/4 19/23/23
f 8/14/14 9/5/5 25/8/8 24/15/15
f 13/18/18 14/9/9 30/12/12 29/19/19
f 6/25/25 7/13/13 23/16/16 22/26/26
f 11/27/27 12/17/17 28/20/20 27/28/28
f 2/31/30 1/21/21 17/24/24 18/32/31
