# Blender 4.2.1 LTS
# www.blender.org
o Collider
v -31.186178 10.604935 5.359174
v -31.581594 8.222110 11.822050
v -30.714254 13.168278 -3.941975
v -30.548738 14.328650 -13.135120
v -30.565676 14.375639 -21.451496
v -31.306919 14.290441 -29.032337
v -32.058350 14.204069 -35.778919
v -31.359612 8.007836 17.470594
v -30.562126 12.201189 30.390881
v -30.843632 9.524325 23.335432
v -32.741158 14.125588 -41.909412
v -23.583086 14.106923 -52.311176
v -33.371326 14.053158 -47.567219
v -11.546676 14.171039 -56.032261
v 1.435143 14.237926 -57.657047
v 14.850927 14.304684 -56.839573
v 27.606764 14.365898 -53.676685
v 39.507179 14.420751 -48.345081
v 50.170509 14.467522 -41.056171
v 60.523079 14.509762 -30.637821
v 69.415680 14.541388 -16.770435
v 73.749580 14.552654 -5.638157
v 76.851151 14.550846 12.748882
v 75.455460 14.527959 29.490002
v 70.876625 14.490923 44.250500
v 64.091537 14.445097 56.570118
v 55.528702 14.392198 66.908340
v -31.186178 26.097107 5.359174
v -31.581594 23.714283 11.822050
v -30.714254 28.660448 -3.941975
v -30.548738 29.820824 -13.135120
v -30.565676 29.867811 -21.451496
v -31.306919 29.782614 -29.032337
v -32.058350 29.696241 -35.778919
v -31.359612 23.500010 17.470594
v -30.562126 27.693359 30.390881
v -30.843632 25.016497 23.335430
v -32.741158 29.617760 -41.909412
v -23.583086 29.599094 -52.311176
v -33.371326 29.545330 -47.567219
v -11.546676 29.663212 -56.032261
v 1.435143 29.730097 -57.657047
v 14.850927 29.796856 -56.839573
v 27.606764 29.858070 -53.676685
v 39.507179 29.912924 -48.345081
v 50.170509 29.959694 -41.056171
v 60.523079 30.001932 -30.637821
v 69.415680 30.033562 -16.770435
v 73.749580 30.044827 -5.638157
v 76.851151 30.043018 12.748882
v 75.455460 30.020130 29.490002
v 70.876625 29.983095 44.250500
v 64.091537 29.937267 56.570118
v 55.528702 29.884369 66.908348
vn 0.9993 -0.0000 0.0363
vn 1.0000 -0.0000 0.0084
vn 1.0000 -0.0000 0.0075
vn 0.9995 -0.0000 0.0322
vn -0.3258 -0.0000 0.9454
vn -0.4883 -0.0000 0.8727
vn -0.4887 -0.0000 0.8724
vn -0.3263 -0.0000 0.9453
vn -0.9640 -0.0000 0.2660
vn -0.9991 -0.0000 0.0419
vn -0.9991 -0.0000 0.0420
vn -0.9640 -0.0000 0.2659
vn 0.9976 -0.0000 -0.0686
vn 0.9981 -0.0000 -0.0617
vn 0.9979 -0.0000 -0.0650
vn 0.9982 -0.0000 -0.0593
vn 0.9946 -0.0000 -0.1041
vn 0.9939 -0.0000 -0.1107
vn 0.9946 -0.0000 -0.1040
vn 0.0321 -0.0000 0.9995
vn -0.1511 -0.0000 0.9885
vn -0.1516 -0.0000 0.9884
vn 0.0315 -0.0000 0.9995
vn -0.7798 -0.0000 0.6260
vn -0.8912 -0.0000 0.4536
vn -0.8913 -0.0000 0.4535
vn -0.7800 -0.0000 0.6257
vn -0.9202 -0.0000 -0.3915
vn -0.8266 -0.0000 -0.5628
vn -0.8268 -0.0000 -0.5625
vn -0.9203 -0.0000 -0.3912
vn 0.9985 -0.0000 0.0548
vn 0.9984 -0.0000 0.0569
vn 0.9988 -0.0000 -0.0498
vn 0.9988 -0.0000 -0.0496
vn 0.3670 -0.0000 0.9302
vn 0.2109 -0.0000 0.9775
vn 0.2103 -0.0000 0.9776
vn 0.3666 -0.0000 0.9304
vn -0.6395 -0.0000 0.7688
vn -0.6398 -0.0000 0.7685
vn 1.0000 -0.0000 0.0040
vn 0.9999 -0.0000 0.0166
vn -0.9816 -0.0000 -0.1909
vn -0.9817 -0.0000 -0.1907
vn 0.8747 -0.0000 0.4847
vn 0.8764 -0.0000 0.4817
vn -0.7701 -0.0000 -0.6379
vn 0.9992 -0.0000 -0.0399
vt 0.085968 0.856225
vt 0.085968 0.868577
vt 0.031106 0.004537
vt 0.031106 0.027677
vt 0.028721 0.002701
vt 0.028721 0.029514
vt 0.085968 0.864625
vt 0.082510 0.875000
vt 0.086462 0.858696
vt 0.086462 0.868083
vt 0.032091 0.003894
vt 0.032091 0.028320
vt 0.029699 0.004720
vt 0.029699 0.027495
vt 0.027146 0.004201
vt 0.027146 0.028012
vt 0.140316 0.000000
vt 0.163538 0.000000
vt 0.085968 0.879941
vt 0.086462 0.849802
vt 0.104743 0.000000
vt 0.128458 0.000000
vt 0.033052 0.004768
vt 0.033052 0.027446
vt 0.030634 0.005034
vt 0.030634 0.027180
vt 0.082510 0.883893
vt 0.028173 0.003226
vt 0.028173 0.028988
vt 0.031592 0.004373
vt 0.031592 0.027841
vt 0.029231 0.005037
vt 0.029231 0.027177
vt 0.033560 0.003031
vt 0.033560 0.029183
vt 0.026651 0.004226
vt 0.026651 0.027986
vt 0.081522 0.864130
vt 0.077569 0.873518
vt 0.072858 0.003029
vt 0.032580 0.004821
vt 0.032580 0.027393
vt 0.030170 0.004880
vt 0.030170 0.027334
vt 0.027650 0.003852
vt 0.027650 0.028361
vt 0.137352 0.000000
vt 0.170949 0.000000
s 1
f 3/1/1 4/2/2 31/2/3 30/1/4
f 17/3/5 18/4/6 45/4/7 44/3/8
f 22/5/9 23/6/10 50/6/11 49/5/12
f 10/7/13 8/8/14 35/8/15 37/7/16
f 6/9/17 7/10/18 34/10/18 33/9/19
f 15/11/20 16/12/21 43/12/22 42/11/23
f 20/13/24 21/14/25 48/14/26 47/13/27
f 25/15/28 26/16/29 53/16/30 52/15/31
f 3/17/1 30/17/4 28/18/32 1/18/33
f 4/2/2 5/19/34 32/19/35 31/2/3
f 5/20/34 6/9/17 33/9/19 32/20/35
f 11/21/18 38/21/18 34/22/18 7/22/18
f 12/23/36 14/24/37 41/24/38 39/23/39
f 18/25/6 19/26/40 46/26/41 45/25/7
f 8/8/14 2/27/42 29/27/43 35/8/15
f 23/28/10 24/29/44 51/29/45 50/28/11
f 16/30/21 17/31/5 44/31/8 43/30/22
f 21/32/25 22/33/9 49/33/12 48/32/26
f 13/34/46 12/35/36 39/35/39 40/34/47
f 26/36/29 27/37/48 54/37/48 53/36/30
f 9/38/49 10/39/13 37/39/16 36/38/49
f 13/34/46 40/34/47 38/40/18 11/40/18
f 14/41/37 15/42/20 42/42/23 41/41/38
f 19/43/40 20/44/24 47/44/27 46/43/41
f 24/45/44 25/46/28 52/46/31 51/45/45
f 1/47/33 28/47/32 29/48/43 2/48/42
