# Blender 4.2.1 LTS
# www.blender.org
o Retopo_Plane.002
v 43.780876 9.126688 5.861021
v -24.773870 8.739652 4.371427
v -9.719353 9.340708 5.089597
v 29.218100 12.468904 43.485203
v -30.617125 2.347872 -15.933915
v -30.559858 7.347231 -29.980333
v -27.702785 -18.632036 -33.229092
v -32.404579 -42.435574 -25.946396
v -30.542023 14.378381 46.707592
v -22.938259 14.361605 44.606007
v 51.372612 11.204762 3.457927
v 47.503433 11.502997 -4.031590
v 39.569962 8.026713 2.298718
v 36.192749 8.549828 10.291073
v 43.964325 9.530448 12.326092
v -22.085239 6.152975 8.079756
v -14.836484 9.805117 0.046490
v -21.828880 11.189891 -3.104451
v -31.186178 10.604935 5.359173
v -31.581594 8.222111 11.822049
v -30.714254 13.168278 -3.941976
v -3.538467 12.138598 -8.562642
v -11.213471 12.522812 -10.939794
v -20.031542 5.424815 12.902342
v -10.464133 9.502184 17.566023
v -3.124611 9.797802 16.794813
v -1.169626 10.823561 5.589291
v -20.064888 7.787532 20.796690
v 3.139095 11.776111 -5.721577
v 23.667440 11.989352 44.344799
v 24.283583 13.243458 51.366642
v 31.414518 13.294283 47.963406
v 36.693939 13.365546 42.294384
v 30.972597 12.064425 38.807362
v 23.781790 10.479002 37.811405
v -32.878429 -7.084067 -11.867566
v -33.827450 -4.906246 -3.644438
v -32.187416 3.628915 -4.563341
v -30.118458 5.398810 -24.606127
v -29.672180 -1.310751 -32.003494
v -29.259247 -6.624439 -26.833830
v -29.978310 -12.041601 -21.605099
v -30.548738 14.328650 -13.135121
v -30.565676 14.375637 -21.451498
v -30.767330 4.721327 -35.166672
v -31.306919 14.290439 -29.032339
v -32.058350 14.204066 -35.778919
v -28.735378 -12.623363 -37.186230
v -26.687567 -15.643517 -45.850521
v -25.718721 -19.948196 -45.601665
v -26.760263 -28.434147 -37.758884
v -28.340504 -30.337576 -30.636511
v -30.335449 -23.992319 -23.580191
v -34.795021 -40.194763 -21.895889
v -31.402302 -34.396042 -24.912342
v -29.561699 -40.182713 -29.528488
v -29.185303 -46.950237 -31.707396
v -33.059959 -47.227299 -26.482664
v -36.702190 -46.809319 -20.870558
v -39.402466 -46.061985 -14.711057
v -37.121735 -37.710041 -15.843874
v -34.152756 -54.354786 -27.219387
v -38.066021 -54.380241 -21.150387
v -41.207275 -54.401829 -15.053143
v -43.797638 -54.420902 -8.673901
v -41.571590 -45.252163 -8.453460
v -43.189167 -44.508293 -1.977157
v -40.525978 -34.623894 -2.872683
v -39.068504 -35.900692 -9.410570
v -45.742477 -54.436920 -2.109432
v -47.047417 -54.449852 4.599247
v -44.287247 -43.996056 4.610428
v -44.871937 -43.756397 11.396393
v -42.076443 -33.383121 10.782605
v -41.532421 -33.776543 3.818692
v -47.769947 -54.459995 11.466267
v -47.831245 -54.467052 18.598698
v -44.973854 -43.782619 18.459885
v -44.565399 -44.018681 25.947237
v -42.174072 -33.955509 25.928280
v -42.267101 -33.474163 18.098568
v -47.102242 -54.470440 26.050617
v -45.498199 -54.469700 33.785610
v -43.236549 -44.358513 33.833206
v -41.122154 -44.685120 41.588943
v -39.086624 -34.999161 42.436974
v -41.062729 -34.716728 34.313614
v -43.111938 -54.464714 41.214275
v -35.909492 -15.993514 41.719265
v -37.410248 -25.500486 42.460934
v -37.087231 -15.828584 33.180614
v -39.091759 -25.434820 34.194828
v -37.424080 -14.818068 24.471640
v -39.841663 -24.285896 25.347727
v -37.162804 -14.152073 15.616399
v -39.637005 -23.528639 17.143715
v -36.932808 -13.966632 7.171880
v -39.407623 -23.378262 9.344705
v -36.182377 -14.384462 -0.787089
v -38.821457 -23.875288 2.052178
v -35.186398 -15.859689 -7.964151
v -37.834141 -25.034847 -4.864905
v -33.823738 -19.299530 -15.923988
v -36.436729 -27.142954 -11.977453
v -34.563843 -30.222181 -18.991934
v -34.721954 -5.346261 5.073503
v -35.070259 -6.064736 13.756258
v -33.214294 1.430413 12.257294
v -32.858910 2.721711 4.227492
v -33.169033 0.904011 20.230026
v -31.359612 8.007837 17.470594
v -35.082375 -6.184342 22.864794
v -34.996201 -6.163390 31.601671
v -32.912132 2.552845 27.985703
v -32.640881 3.723246 36.162834
v -30.562126 12.201191 30.390881
v -30.843632 9.524327 23.335432
v -34.359093 -6.222667 40.203003
v -30.542192 14.218305 38.856075
v -22.523565 13.889612 36.396641
v -21.314785 10.998878 28.339336
v -14.114639 14.119827 35.555515
v -12.152629 12.355518 27.229000
v -5.791267 13.361322 35.943752
v -4.681303 11.318308 27.078243
v 1.795746 11.410488 36.638203
v 2.423016 8.695461 27.748640
v 3.957832 7.832855 17.594694
v 10.001741 6.913486 28.886457
v 11.734407 6.234743 19.337004
v 14.184893 8.168659 10.301877
v 6.703766 9.509151 7.589611
v 17.860117 10.399244 1.438534
v 10.529333 11.052527 -2.107685
v 23.108358 12.083783 -8.075246
v 16.362509 13.065544 -11.433492
v 9.080957 13.516583 -15.553334
v 20.850145 14.328385 -22.113272
v 12.128675 14.333521 -25.193884
v 1.509649 14.338644 -27.976858
v 0.387819 13.958426 -19.530935
v -9.137775 14.328382 -29.262350
v -9.527244 14.120865 -20.705832
v -20.049141 14.301086 -29.266150
v -19.848522 14.246448 -21.137701
v -20.259817 13.237309 -12.483953
v -9.396215 14.285946 -37.965809
v -20.636137 14.246994 -36.952778
v -10.154067 14.232011 -46.744862
v -21.666399 14.181145 -44.493137
v -32.741158 14.125586 -41.909412
v -23.583086 14.106919 -52.311176
v -33.371326 14.053154 -47.567219
v -30.957020 3.326123 -46.947113
v -31.259928 3.584357 -41.252716
v -28.778141 -6.354866 -46.387466
v -29.865059 -5.669484 -39.592957
v -11.546676 14.171035 -56.032261
v 1.665308 14.278290 -47.326298
v 1.435143 14.237921 -57.657047
v 13.254004 14.322337 -46.095478
v 14.850927 14.304680 -56.839573
v 24.292620 14.363432 -43.253834
v 27.606764 14.365894 -53.676685
v 34.831932 14.395952 -38.874439
v 39.507179 14.420747 -48.345081
v 44.905075 14.416699 -32.999256
v 50.170509 14.467519 -41.056171
v 54.328743 14.589122 -24.635519
v 60.523079 14.509760 -30.637823
v 61.993866 14.550786 -13.837239
v 69.415680 14.541387 -16.770437
v 66.830841 14.581739 -1.474691
v 73.749580 14.552654 -5.638158
v 69.187042 14.151624 13.075801
v 76.851151 14.550847 12.748881
v 67.983124 14.254270 27.476252
v 75.455460 14.527961 29.490000
v 63.617523 14.209264 40.236652
v 70.876625 14.490927 44.250500
v 57.417763 14.258344 51.151508
v 64.091537 14.445101 56.570118
v 49.817337 14.356833 60.358288
v 55.528702 14.392202 66.908340
v -7.033300 14.227157 43.903622
v -15.412437 14.355667 43.432613
v 1.129175 13.699470 44.938900
v 8.741087 13.863619 53.520382
v 8.866934 12.650665 45.426075
v 9.140177 9.895428 37.397663
v 16.349852 11.983162 45.224743
v 16.474005 9.466810 37.729610
v 17.628466 7.101943 29.845076
v 24.944906 9.016459 30.802427
v 26.495111 8.291278 23.224318
v 19.232798 6.555486 21.330915
v 28.125124 8.923931 15.530529
v 21.263121 7.939748 12.966687
v 30.391497 8.998530 7.532971
v 24.383253 9.734651 4.603466
v 35.045395 8.195426 -1.808246
v 29.262209 9.953679 -5.052448
v 42.068810 11.968259 -9.835088
v 35.522827 13.240774 -14.304677
v 28.720671 14.211535 -18.460318
v 40.681175 14.304132 -24.014273
v 31.865755 14.373554 -28.948721
v 22.276190 14.367308 -32.807362
v 12.395056 14.344421 -35.714130
v 1.700890 14.316566 -37.580250
v 48.649727 14.003876 -17.493093
v 55.089607 13.716347 -8.960988
v 59.401672 13.585666 1.299190
v 61.302879 13.305830 12.980113
v 53.243813 11.442433 12.763821
v 52.714981 11.920249 22.485058
v 60.285591 13.610805 24.812342
v 44.161324 10.135931 20.339567
v 42.389282 11.603575 28.109295
v 50.275047 13.152441 31.716043
v 35.387260 9.007044 17.986204
v 34.167648 9.862402 25.362715
v 32.478882 11.159541 32.505810
v 40.143532 13.064214 35.501064
v 40.787277 14.090865 48.012943
v 46.256302 14.149885 40.329891
v 45.065880 14.307274 54.120441
v 51.739594 14.156371 45.648762
v 57.162804 13.862947 35.965778
v 37.386627 14.195800 61.269886
v 33.997688 13.932508 54.430210
v 26.002573 13.709992 58.696545
v 17.620974 13.630889 60.892849
v 16.663561 13.407518 53.058559
v -30.061283 -54.329288 -32.388561
v -25.602856 -46.582947 -36.575516
v -26.132883 -54.305565 -36.568874
v -23.615995 -46.813919 -40.535202
v -22.762699 -54.285583 -39.755215
v -19.723719 -46.584641 -44.061859
v -17.996712 -54.257919 -43.618282
v -25.308531 -37.787453 -40.224579
v -21.701920 -37.795288 -44.569977
v -23.720112 -28.828239 -45.088322
v -26.156805 -37.831566 -35.415283
vn -0.2082 0.9781 0.0077
vn -0.2436 0.9670 0.0747
vn -0.2076 0.9629 0.1724
vn -0.1163 0.9906 0.0717
vn -0.0225 0.9984 -0.0516
vn -0.1651 0.9846 -0.0574
vn 0.2115 0.9060 0.3666
vn 0.0855 0.9630 0.2555
vn -0.0307 0.9630 0.2678
vn 0.1232 0.9506 0.2851
vn 0.2816 0.8971 0.3404
vn 0.2719 0.9479 0.1659
vn 0.1855 0.9508 0.2481
vn -0.1475 0.9835 0.1044
vn -0.0416 0.9868 0.1566
vn 0.0067 0.9827 0.1851
vn -0.0807 0.9961 -0.0344
vn -0.1625 0.9732 -0.1628
vn 0.1025 0.9946 -0.0136
vn 0.0067 0.9937 0.1120
vn -0.1059 0.9501 -0.2934
vn -0.0159 0.9887 0.1492
vn -0.1302 0.9791 -0.1561
vn -0.0864 0.9756 -0.2018
vn -0.0393 0.9934 -0.1074
vn -0.0888 0.9911 -0.0989
vn -0.1183 0.9877 -0.1023
vn -0.1657 0.9714 -0.1698
vn -0.1531 0.9588 -0.2394
vn -0.9926 0.0482 -0.1112
vn -0.9656 0.1444 -0.2164
vn -0.9737 0.1912 -0.1236
vn -0.9842 0.1553 -0.0851
vn -0.9977 -0.0670 0.0089
vn -0.9939 -0.1023 0.0409
vn -0.9954 -0.0521 -0.0809
vn -0.9678 0.0563 -0.2453
vn -0.9900 0.1283 -0.0586
vn -0.9973 0.0427 -0.0602
vn -0.9990 -0.0429 0.0120
vn -0.9900 -0.1134 0.0844
vn -0.9874 -0.1255 0.0961
vn -0.9900 -0.1082 0.0910
vn -0.9860 -0.1272 0.1077
vn -0.9781 -0.0703 -0.1957
vn -0.9821 -0.1682 -0.0849
vn -0.9748 -0.2231 -0.0032
vn -0.9810 -0.1918 -0.0289
vn -0.9548 -0.0856 -0.2848
vn -0.9387 0.0226 -0.3440
vn -0.9234 0.1042 -0.3693
vn -0.8121 0.1625 -0.5605
vn -0.8499 0.1712 -0.4984
vn -0.8611 0.1366 -0.4897
vn -0.8441 0.1056 -0.5256
vn -0.8036 0.1171 -0.5835
vn -0.8083 0.1636 -0.5655
vn -0.8574 0.1805 -0.4819
vn -0.9006 0.2032 -0.3842
vn -0.9026 0.1853 -0.3886
vn -0.8052 0.1701 -0.5681
vn -0.8554 0.1844 -0.4840
vn -0.8960 0.2071 -0.3927
vn -0.9222 0.2301 -0.3108
vn -0.9259 0.2242 -0.3041
vn -0.9457 0.2398 -0.2196
vn -0.9498 0.2288 -0.2133
vn -0.9336 0.2077 -0.2921
vn -0.9436 0.2443 -0.2237
vn -0.9575 0.2534 -0.1379
vn -0.9585 0.2508 -0.1352
vn -0.9650 0.2568 -0.0533
vn -0.9660 0.2527 -0.0550
vn -0.9608 0.2437 -0.1321
vn -0.9645 0.2586 -0.0529
vn -0.9667 0.2538 0.0336
vn -0.9675 0.2518 0.0232
vn -0.9653 0.2339 0.1163
vn -0.9685 0.2335 0.0871
vn -0.9682 0.2500 0.0037
vn -0.9629 0.2362 0.1303
vn -0.9498 0.2101 0.2319
vn -0.9534 0.2073 0.2193
vn -0.9445 0.1920 0.2665
vn -0.9538 0.1883 0.2342
vn -0.9600 0.2049 0.1910
vn -0.9393 0.1948 0.2825
vn -0.9627 0.1900 0.1927
vn -0.9708 0.1959 0.1387
vn -0.9710 0.2164 0.1012
vn -0.9659 0.2088 0.1530
vn -0.9690 0.2453 0.0282
vn -0.9694 0.2389 0.0561
vn -0.9679 0.2509 -0.0126
vn -0.9680 0.2506 -0.0099
vn -0.9695 0.2380 -0.0590
vn -0.9673 0.2469 -0.0579
vn -0.9675 0.2141 -0.1342
vn -0.9633 0.2327 -0.1341
vn -0.9559 0.1919 -0.2224
vn -0.9541 0.2134 -0.2101
vn -0.9312 0.1607 -0.3273
vn -0.9320 0.1915 -0.3077
vn -0.8897 0.1686 -0.4243
vn -0.9734 0.2230 -0.0522
vn -0.9691 0.2467 -0.0062
vn -0.9713 0.2375 0.0082
vn -0.9781 0.2060 -0.0290
vn -0.9727 0.2314 0.0168
vn -0.9802 0.1977 -0.0131
vn -0.9676 0.2525 0.0068
vn -0.9671 0.2539 0.0158
vn -0.9686 0.2484 0.0081
vn -0.9735 0.2242 0.0453
vn -0.9705 0.2409 -0.0025
vn -0.9741 0.2256 0.0137
vn -0.9697 0.2427 -0.0261
vn -0.9670 0.2542 -0.0146
vn -0.9755 0.2058 0.0782
vn 0.0108 0.9902 -0.1394
vn 0.0107 0.9992 -0.0390
vn -0.0021 0.9991 -0.0420
vn -0.0254 0.9843 -0.1748
vn -0.0659 0.9410 -0.3320
vn 0.0282 0.9465 -0.3216
vn 0.0002 0.9873 -0.1586
vn -0.0499 0.9621 -0.2683
vn 0.0722 0.9417 -0.3287
vn 0.1627 0.9731 -0.1632
vn 0.1921 0.9655 -0.1759
vn 0.2276 0.9441 -0.2386
vn 0.2731 0.9502 -0.1501
vn 0.2107 0.9748 0.0737
vn 0.1247 0.9765 -0.1760
vn 0.0692 0.9950 0.0719
vn 0.0219 0.9782 0.2064
vn 0.1054 0.9771 0.1849
vn 0.0403 0.9788 0.2006
vn 0.0291 0.9823 0.1852
vn 0.0524 0.9768 0.2075
vn -0.0042 0.9869 0.1611
vn -0.0131 0.9919 0.1260
vn -0.0038 0.9979 0.0654
vn -0.0044 0.9992 0.0401
vn 0.0001 0.9997 0.0229
vn -0.0042 0.9949 0.1011
vn 0.0006 1.0000 0.0098
vn 0.0079 0.9961 0.0880
vn 0.0008 1.0000 -0.0005
vn 0.0232 0.9982 0.0552
vn 0.0689 0.9852 0.1573
vn 0.0290 0.9992 0.0289
vn 0.0969 0.9880 0.1203
vn 0.0010 1.0000 -0.0061
vn -0.0033 1.0000 -0.0052
vn -0.0043 1.0000 -0.0079
vn -0.0045 0.9999 -0.0096
vn -0.0050 1.0000 -0.0057
vn -0.0065 0.9999 -0.0081
vn -0.0072 0.9999 -0.0096
vn -0.0074 0.9999 -0.0078
vn -0.6969 0.5664 -0.4400
vn -0.9855 -0.1550 0.0692
vn -0.7763 0.6191 0.1184
vn -0.9786 -0.1994 0.0510
vn -0.9866 -0.1598 0.0334
vn -0.9776 -0.2104 0.0060
vn -0.9861 -0.1630 -0.0325
vn -0.0057 1.0000 -0.0057
vn -0.0039 1.0000 -0.0039
vn -0.0046 1.0000 -0.0039
vn -0.0034 1.0000 -0.0024
vn -0.0040 1.0000 -0.0023
vn -0.0031 1.0000 -0.0008
vn -0.0039 1.0000 -0.0009
vn -0.0030 1.0000 0.0020
vn -0.0041 1.0000 0.0008
vn -0.0068 1.0000 0.0070
vn -0.0047 1.0000 -0.0018
vn -0.0167 0.9997 0.0177
vn -0.0005 1.0000 -0.0046
vn -0.0342 0.9992 0.0228
vn 0.0030 1.0000 -0.0026
vn -0.0558 0.9981 0.0258
vn -0.0074 1.0000 0.0053
vn -0.0639 0.9979 0.0073
vn -0.0320 0.9995 0.0051
vn -0.0545 0.9984 -0.0154
vn -0.0388 0.9992 -0.0072
vn -0.0318 0.9993 -0.0180
vn -0.0290 0.9995 -0.0111
vn -0.0121 0.9998 -0.0151
vn -0.0161 0.9998 -0.0115
vn -0.0046 0.9999 -0.0113
vn -0.0087 0.9999 -0.0095
vn 0.0133 0.9985 -0.0523
vn 0.1116 0.9874 -0.1124
vn 0.1776 0.9582 -0.2243
vn 0.1078 0.9614 -0.2533
vn 0.1372 0.9447 -0.2978
vn 0.0112 0.9721 -0.2342
vn -0.0309 0.9551 -0.2947
vn -0.0910 0.9772 -0.1919
vn -0.1965 0.9613 -0.1934
vn -0.1810 0.9814 -0.0632
vn -0.1265 0.9919 0.0141
vn -0.0861 0.9958 0.0304
vn -0.0882 0.9860 0.1415
vn 0.0571 0.9980 0.0281
vn 0.0566 0.9889 0.1376
vn 0.0096 0.9833 0.1817
vn 0.0917 0.9691 0.2290
vn -0.0918 0.9662 0.2408
vn 0.0153 0.9735 0.2283
vn 0.0223 0.9908 0.1336
vn -0.0034 0.9979 0.0646
vn 0.0051 0.9998 0.0199
vn -0.0012 1.0000 0.0024
vn -0.0020 1.0000 -0.0009
vn -0.0022 1.0000 -0.0031
vn -0.0564 0.9932 0.1020
vn -0.1282 0.9870 0.0970
vn -0.1682 0.9836 0.0648
vn -0.1619 0.9868 0.0045
vn -0.2229 0.9747 -0.0173
vn -0.1658 0.9810 -0.1009
vn -0.1161 0.9920 -0.0505
vn -0.1407 0.9823 -0.1235
vn -0.1176 0.9745 -0.1913
vn -0.0837 0.9874 -0.1343
vn -0.0764 0.9944 -0.0731
vn -0.1377 0.9786 -0.1529
vn -0.1739 0.9659 -0.1916
vn -0.1160 0.9802 -0.1604
vn -0.0525 0.9978 -0.0403
vn -0.0439 0.9956 -0.0826
vn -0.0142 0.9998 -0.0143
vn -0.0073 0.9996 -0.0289
vn -0.0456 0.9975 -0.0538
vn -0.0526 0.9976 -0.0457
vn -0.0343 0.9993 -0.0167
vn -0.0258 0.9982 -0.0533
vn 0.0143 0.9920 -0.1251
vn -0.0055 0.9990 -0.0445
vn 0.0647 0.9844 -0.1638
vn 0.1537 0.9762 -0.1528
vn -0.7771 0.1327 -0.6153
vn -0.8570 -0.0000 -0.5154
vn -0.7856 0.0285 -0.6180
vn -0.7850 -0.1206 -0.6076
vn -0.7236 -0.1100 -0.6813
vn -0.9207 -0.2090 -0.3297
vn -0.9436 -0.2189 -0.2484
vn -0.8915 -0.1204 -0.4368
vn -0.9501 -0.1869 -0.2496
vn -0.9785 -0.1649 -0.1236
vn -0.9317 -0.0360 -0.3616
vt 0.139822 0.001482
vt 0.168972 0.000988
vt 0.168478 0.030138
vt 0.139822 0.030138
vt 0.170455 0.001482
vt 0.170455 0.030138
vt 0.137846 0.030138
vt 0.137846 0.001482
vt 0.139822 0.030632
vt 0.168972 0.000494
vt 0.167984 0.030632
vt 0.144763 0.031126
vt 0.137352 0.000000
vt 0.170949 0.000000
vt 0.165514 0.031126
vt 0.165020 0.031126
vt 0.143775 0.031126
vt 0.140316 0.000000
vt 0.163538 0.000000
vt 0.137846 0.000988
vt 0.170455 0.000988
vt 0.169960 0.030632
vt 0.137846 0.030632
vt 0.139822 0.000988
vt 0.169960 0.028162
vt 0.140238 0.028106
vt 0.138834 0.000494
vt 0.169882 0.001920
vt 0.169960 0.000494
vt 0.169466 0.030632
vt 0.138834 0.030632
vt 0.138834 0.000988
vt 0.139497 0.028106
vt 0.137846 0.000494
vt 0.170455 0.000494
vt 0.170455 0.028162
vt 0.168400 0.002661
vt 0.168400 0.027365
vt 0.141720 0.027365
vt 0.141720 0.002661
vt 0.142461 0.026871
vt 0.142461 0.003155
vt 0.167659 0.003155
vt 0.167659 0.026871
vt 0.142461 0.002661
vt 0.167659 0.002661
vt 0.167659 0.027365
vt 0.142461 0.027365
vt 0.070652 0.871542
vt 0.056818 0.866107
vt 0.060771 0.854743
vt 0.072134 0.856225
vt 0.075099 0.883893
vt 0.065217 0.893775
vt 0.058300 0.886858
vt 0.049901 0.879941
vt 0.085968 0.856225
vt 0.085968 0.868577
vt 0.085968 0.879941
vt 0.078557 0.860178
vt 0.074605 0.866601
vt 0.066700 0.862648
vt 0.076087 0.853755
vt 0.086462 0.858696
vt 0.086462 0.868083
vt 0.086462 0.849802
vt 0.071640 0.866107
vt 0.078557 0.851779
vt 0.085968 0.857708
vt 0.078557 0.870553
vt 0.075099 0.881423
vt 0.070652 0.879941
vt 0.090909 0.878458
vt 0.077569 0.883893
vt 0.075099 0.874506
vt 0.084486 0.865119
vt 0.086462 0.865119
vt 0.089427 0.859190
vt 0.098320 0.865119
vt 0.089427 0.872530
vt 0.080534 0.875494
vt 0.079051 0.866601
vt 0.079051 0.856225
vt 0.068676 0.880929
vt 0.070158 0.870553
vt 0.083498 0.873518
vt 0.079051 0.883893
vt 0.069170 0.866601
vt 0.067688 0.856225
vt 0.056818 0.880929
vt 0.056818 0.870553
vt 0.056818 0.860178
vt 0.071640 0.861660
vt 0.054348 0.886858
vt 0.054348 0.875494
vt 0.070652 0.878458
vt 0.069170 0.890316
vt 0.084980 0.864625
vt 0.074605 0.894269
vt 0.060277 0.892787
vt 0.060277 0.884387
vt 0.074605 0.884387
vt 0.060277 0.874506
vt 0.076087 0.875494
vt 0.055830 0.865119
vt 0.057312 0.853755
vt 0.074111 0.857213
vt 0.074111 0.867095
vt 0.061759 0.864130
vt 0.077569 0.865613
vt 0.063241 0.854249
vt 0.077569 0.855731
vt 0.058794 0.863636
vt 0.068676 0.859684
vt 0.076087 0.872530
vt 0.065217 0.878458
vt 0.053854 0.883399
vt 0.049407 0.868577
vt 0.082510 0.891304
vt 0.065217 0.889822
vt 0.065217 0.877470
vt 0.084486 0.879447
vt 0.084486 0.864130
vt 0.079051 0.853755
vt 0.090415 0.848814
vt 0.097826 0.861660
vt 0.086462 0.866601
vt 0.068676 0.850296
vt 0.086462 0.850296
vt 0.061265 0.848814
vt 0.074605 0.850296
vt 0.074605 0.862154
vt 0.059783 0.860672
vt 0.102767 0.875000
vt 0.091897 0.879447
vt 0.074605 0.875494
vt 0.061265 0.874012
vt 0.080534 0.887352
vt 0.074605 0.888340
vt 0.061265 0.885375
vt 0.070158 0.893281
vt 0.061759 0.852767
vt 0.073617 0.855237
vt 0.073617 0.865613
vt 0.060277 0.861660
vt 0.060277 0.897233
vt 0.072134 0.875988
vt 0.060277 0.872036
vt 0.090909 0.858696
vt 0.090909 0.872036
vt 0.059783 0.856225
vt 0.071640 0.860178
vt 0.068676 0.870553
vt 0.057312 0.865119
vt 0.087451 0.883399
vt 0.064723 0.879941
vt 0.054348 0.874506
vt 0.083992 0.895257
vt 0.079051 0.847826
vt 0.089921 0.853261
vt 0.075099 0.857213
vt 0.098320 0.869071
vt 0.093874 0.879447
vt 0.069664 0.866601
vt 0.087945 0.889822
vt 0.080534 0.875988
vt 0.074111 0.888834
vt 0.099308 0.862154
vt 0.084980 0.869565
vt 0.084980 0.880929
vt 0.064229 0.873518
vt 0.064229 0.862154
vt 0.073123 0.864625
vt 0.074111 0.874506
vt 0.074111 0.885870
vt 0.064229 0.884881
vt 0.084980 0.857708
vt 0.082016 0.865613
vt 0.083004 0.873518
vt 0.086957 0.885870
vt 0.070158 0.881917
vt 0.070158 0.870059
vt 0.082510 0.875000
vt 0.082510 0.883893
vt 0.058300 0.878458
vt 0.058300 0.864625
vt 0.058300 0.849308
vt 0.073617 0.856225
vt 0.087945 0.879941
vt 0.087945 0.891304
vt 0.087945 0.866601
vt 0.068182 0.866601
vt 0.071146 0.856225
vt 0.081522 0.864130
vt 0.077569 0.873518
vt 0.085968 0.864625
vt 0.056324 0.861166
vt 0.057806 0.850791
vt 0.089427 0.854743
vt 0.167984 0.032115
vt 0.140810 0.029150
vt 0.140810 0.001482
vt 0.168972 0.001482
vt 0.167490 0.003458
vt 0.167490 0.027668
vt 0.140316 0.027668
vt 0.140316 0.003458
vt 0.170455 0.031621
vt 0.138340 0.031621
vt 0.170455 0.000000
vt 0.139328 0.030632
vt 0.139328 0.000988
vt 0.169466 0.000494
vt 0.168972 0.030632
vt 0.167984 0.031621
vt 0.141304 0.031621
vt 0.143281 0.000494
vt 0.167984 0.000494
vt 0.168972 0.028162
vt 0.140979 0.028106
vt 0.139328 0.000494
vt 0.169141 0.001920
vt 0.140732 0.028106
vt 0.169388 0.001920
vt 0.169466 0.028162
vt 0.168478 0.031126
vt 0.139328 0.031126
vt 0.169466 0.000000
vt 0.168972 0.031126
vt 0.169960 0.001976
vt 0.169960 0.031126
vt 0.169960 0.000000
vt 0.169466 0.031126
vt 0.138834 0.031126
vt 0.137846 0.031126
vt 0.170455 0.031126
vt 0.139822 0.031126
vt 0.168972 0.000000
vt 0.139822 0.000494
vt 0.168894 0.001920
vt 0.141226 0.028106
vt 0.139250 0.028106
vt 0.168478 0.030632
vt 0.170455 0.030632
vt 0.138340 0.030632
vt 0.169466 0.000988
vt 0.142787 0.031126
vt 0.135870 0.000000
vt 0.159585 0.000000
vt 0.143775 0.000000
vt 0.169960 0.031621
vt 0.148221 0.031621
vt 0.149209 0.000494
vt 0.131423 0.000000
vt 0.131423 0.031126
vt 0.101779 0.031126
vt 0.101779 -0.000000
vt 0.129941 0.031126
vt 0.105237 0.031126
vt 0.104743 0.000000
vt 0.128458 0.000000
vt 0.072858 0.003029
vt 0.073948 0.029181
vt 0.033560 0.029183
vt 0.033560 0.003031
vt 0.086462 0.875494
vt 0.073123 0.881917
vt 0.073123 0.874506
vt 0.060277 0.881917
vt 0.061759 0.873024
vt 0.086957 0.873024
vt 0.085968 0.881423
vt 0.091897 0.863636
vt 0.033052 0.004768
vt 0.073439 0.004766
vt 0.074384 0.027444
vt 0.033052 0.027446
vt 0.032580 0.004821
vt 0.073912 0.004819
vt 0.074853 0.027391
vt 0.032580 0.027393
vt 0.032091 0.003894
vt 0.074363 0.003892
vt 0.075381 0.028318
vt 0.032091 0.028320
vt 0.031592 0.004373
vt 0.074882 0.004371
vt 0.075860 0.027839
vt 0.031592 0.027841
vt 0.031106 0.004537
vt 0.075375 0.004535
vt 0.076339 0.027675
vt 0.031106 0.027677
vt 0.030634 0.005034
vt 0.075867 0.005032
vt 0.076790 0.027178
vt 0.030634 0.027180
vt 0.030170 0.004880
vt 0.076325 0.004878
vt 0.077261 0.027332
vt 0.030170 0.027334
vt 0.029699 0.004720
vt 0.076790 0.004717
vt 0.077739 0.027492
vt 0.029699 0.027495
vt 0.029231 0.005037
vt 0.077271 0.005035
vt 0.078193 0.027175
vt 0.029231 0.027177
vt 0.028721 0.002701
vt 0.077683 0.002698
vt 0.078801 0.029512
vt 0.028721 0.029514
vt 0.028173 0.003226
vt 0.078253 0.003224
vt 0.079327 0.028986
vt 0.028173 0.028988
vt 0.027650 0.003852
vt 0.078803 0.003851
vt 0.079824 0.028360
vt 0.027650 0.028361
vt 0.027146 0.004201
vt 0.079321 0.004200
vt 0.080313 0.028011
vt 0.027146 0.028012
vt 0.026651 0.004226
vt 0.079817 0.004226
vt 0.080807 0.027986
vt 0.026651 0.027986
vt 0.142461 0.028106
vt 0.142461 0.001920
vt 0.167659 0.001920
vt 0.167659 0.028106
vt 0.138340 0.000000
vt 0.142461 0.027612
vt 0.142461 0.002414
vt 0.167659 0.002414
vt 0.167659 0.027612
vt 0.166996 0.030138
vt 0.140810 0.030138
vt 0.167984 0.000988
vt 0.139328 0.030138
vt 0.139328 0.001482
vt 0.168972 0.030138
vt 0.136858 0.031126
vt 0.137352 0.000988
vt 0.169960 0.030138
vt 0.129941 0.000494
vt 0.129941 0.031621
vt 0.102767 0.031621
vt 0.102767 0.000494
vt 0.103755 0.031126
vt 0.103755 0.000000
vt 0.129941 0.000000
vt 0.130435 0.031126
vt 0.104743 0.031126
vt 0.130435 0.000000
vt 0.168972 0.027668
vt 0.130929 0.031621
vt 0.102273 0.031621
vt 0.102273 0.000000
vt 0.130929 0.000494
vt 0.130929 0.000000
vt 0.130929 0.031126
vt 0.130929 0.000988
vt 0.102767 0.030632
vt 0.101779 0.031621
vt 0.101779 0.000494
vt 0.168894 0.026871
vt 0.141226 0.026871
vt 0.141226 0.003155
vt 0.168894 0.003155
vt 0.129447 0.000494
vt 0.129447 0.031621
vt 0.105237 0.031621
vt 0.105237 0.000494
vt 0.170871 0.002661
vt 0.170871 0.027365
vt 0.139250 0.027365
vt 0.139250 0.002661
vt 0.170624 0.027365
vt 0.139497 0.027365
vt 0.139497 0.002661
vt 0.170624 0.002661
vt 0.169960 0.000988
vt 0.169466 0.030138
vt 0.138834 0.030138
vt 0.138834 0.001482
vt 0.137846 0.001976
vt 0.169960 0.001482
vt 0.169960 0.029150
vt 0.139328 0.029150
vt 0.169141 0.027365
vt 0.140979 0.027365
vt 0.140979 0.002661
vt 0.169141 0.002661
vt 0.140732 0.027365
vt 0.140732 0.002661
vt 0.169388 0.002661
vt 0.169388 0.027365
vt 0.103261 0.031126
vt 0.104249 0.000000
vt 0.105237 0.030632
vt 0.105237 0.000000
vt 0.131423 0.000494
vt 0.140238 0.002661
vt 0.169882 0.002661
vt 0.169882 0.027365
vt 0.140238 0.027365
vt 0.131423 0.031621
vt 0.104249 0.031621
vt 0.104249 0.000494
vt 0.141226 0.002661
vt 0.168894 0.002661
vt 0.168894 0.027365
vt 0.141226 0.027365
vt 0.140316 0.030632
vt 0.140316 0.000988
vt 0.168478 0.000494
vt 0.141720 0.003155
vt 0.168400 0.003155
vt 0.168400 0.026871
vt 0.141720 0.026871
vt 0.169960 0.029644
vt 0.137846 0.029644
vt 0.108202 0.031126
vt 0.108202 0.000000
vt 0.166996 0.030632
vt 0.140810 0.030632
vt 0.140810 0.000988
vt 0.166008 0.031621
vt 0.137352 0.031621
vt 0.134387 0.000988
vt 0.162549 0.000988
vt 0.161561 0.031621
vt 0.135870 0.031621
vt 0.141798 0.000494
vt 0.069170 0.875494
vt 0.056324 0.864130
vt 0.070158 0.864130
vt 0.070158 0.875000
vt 0.057806 0.875000
vt 0.057806 0.881917
vt 0.070158 0.892292
vt 0.056324 0.892292
vt 0.085968 0.890810
vt 0.065711 0.895751
vt 0.065711 0.887846
vt 0.076581 0.895751
vt 0.089921 0.894269
vt 0.085968 0.873024
vt 0.065711 0.882411
vt 0.081028 0.860672
s 1
f 1/1/1 11/2/2 12/3/3 13/4/4
f 1/5/1 13/6/4 14/7/5 15/8/6
f 2/9/7 16/1/8 17/10/9 18/11/10
f 2/12/7 19/13/11 20/14/12 16/15/8
f 2/16/7 18/17/10 21/18/13 19/19/11
f 3/20/14 22/21/15 23/22/16 17/23/9
f 3/10/14 17/11/9 16/9/8 24/24/17
f 3/25/14 25/26/18 26/27/19 27/28/20
f 3/29/14 24/30/17 28/31/21 25/32/18
f 3/33/14 27/34/20 29/35/22 22/36/15
f 4/37/23 30/38/24 31/39/25 32/40/26
f 4/41/23 32/42/26 33/43/27 34/44/28
f 4/45/23 34/46/28 35/47/29 30/48/24
f 5/49/30 36/50/31 37/51/32 38/52/33
f 5/49/30 39/53/34 40/54/35 41/55/36
f 5/49/30 41/55/36 42/56/37 36/50/31
f 5/49/30 38/52/33 21/57/38 43/58/39
f 5/49/30 43/58/39 44/59/40 39/53/34
f 6/60/41 45/61/42 40/62/35 39/63/34
f 6/60/41 46/64/43 47/65/44 45/61/42
f 6/60/41 39/63/34 44/66/40 46/64/43
f 7/67/45 42/68/37 41/69/36 48/70/46
f 7/67/45 48/70/46 49/71/47 50/72/48
f 7/73/45 51/74/49 52/75/50 53/76/51
f 8/77/52 54/78/53 55/79/54 56/80/55
f 8/77/52 56/80/55 57/81/56 58/82/57
f 8/77/52 58/82/57 59/83/58 54/78/53
f 59/84/58 60/85/59 61/86/60 54/87/53
f 59/83/58 58/82/57 62/88/61 63/89/62
f 59/84/58 63/90/62 64/91/63 60/85/59
f 64/91/63 65/92/64 66/93/65 60/85/59
f 66/94/65 67/95/66 68/96/67 69/97/68
f 66/93/65 69/98/68 61/86/60 60/85/59
f 66/99/65 65/100/64 70/101/69 67/102/66
f 70/101/69 71/103/70 72/104/71 67/102/66
f 72/105/71 73/106/72 74/107/73 75/108/74
f 72/105/71 75/108/74 68/96/67 67/95/66
f 72/104/71 71/103/70 76/109/75 73/110/72
f 76/109/75 77/111/76 78/112/77 73/110/72
f 78/113/77 79/114/78 80/115/79 81/116/80
f 78/113/77 81/116/80 74/117/73 73/118/72
f 78/119/77 77/120/76 82/121/81 79/122/78
f 82/121/81 83/62/82 84/123/83 79/122/78
f 84/124/83 85/125/84 86/126/85 87/127/86
f 84/124/83 87/127/86 80/115/79 79/114/78
f 84/123/83 83/62/82 88/128/87 85/129/84
f 90/130/88 89/131/89 91/132/90 92/133/91
f 90/134/88 92/135/91 87/127/86 86/126/85
f 92/133/91 91/132/90 93/136/92 94/137/93
f 92/135/91 94/138/93 80/115/79 87/127/86
f 94/137/93 93/136/92 95/139/94 96/140/95
f 94/138/93 96/141/95 81/116/80 80/115/79
f 96/142/95 95/143/94 97/144/96 98/145/97
f 96/141/95 98/146/97 74/117/73 81/116/80
f 98/145/97 97/144/96 99/147/98 100/148/99
f 98/149/97 100/150/99 75/108/74 74/107/73
f 100/151/99 99/152/98 101/153/100 102/154/101
f 100/150/99 102/155/101 68/96/67 75/108/74
f 102/154/101 101/153/100 103/156/102 104/157/103
f 102/155/101 104/158/103 69/97/68 68/96/67
f 104/159/103 103/160/102 53/76/51 105/161/104
f 104/162/103 105/163/104 61/86/60 69/98/68
f 105/161/104 53/76/51 52/75/50 55/164/54
f 105/163/104 55/165/54 54/87/53 61/86/60
f 103/156/102 101/153/100 36/166/31 42/167/37
f 103/160/102 42/168/37 7/73/45 53/76/51
f 101/153/100 99/152/98 37/76/32 36/166/31
f 99/147/98 97/144/96 106/169/105 37/170/32
f 106/171/105 107/172/106 108/173/107 109/174/108
f 106/171/105 109/174/108 38/175/33 37/176/32
f 106/169/105 97/144/96 95/143/94 107/177/106
f 109/174/108 108/173/107 20/178/109 19/179/110
f 109/174/108 19/179/110 21/180/38 38/175/33
f 108/181/107 110/182/111 111/183/112 20/184/109
f 108/181/107 107/185/106 112/186/113 110/182/111
f 112/186/113 113/187/114 114/188/115 110/182/111
f 112/189/113 107/190/106 95/139/94 93/136/92
f 112/189/113 93/136/92 91/132/90 113/191/114
f 114/192/115 115/193/116 116/194/117 117/195/118
f 114/188/115 117/196/118 111/183/112 110/182/111
f 114/192/115 113/197/114 118/198/119 115/193/116
f 118/199/119 113/191/114 91/132/90 89/131/89
f 119/200/120 9/201/121 10/202/122 120/203/123
f 119/204/120 120/205/123 121/206/124 116/207/125
f 121/208/124 120/209/123 122/13/126 123/210/127
f 121/211/124 123/212/127 25/213/18 28/214/21
f 121/215/124 28/216/21 117/217/128 116/218/125
f 123/219/127 122/220/126 124/221/129 125/222/130
f 123/223/127 125/221/130 26/224/19 25/225/18
f 125/226/130 124/227/129 126/212/131 127/228/132
f 125/227/130 127/212/132 128/228/133 26/229/19
f 128/229/133 127/227/132 129/212/134 130/228/135
f 128/209/133 130/32/135 131/230/136 132/231/137
f 128/32/133 132/232/137 27/233/20 26/234/19
f 132/235/137 131/20/136 133/21/138 134/231/139
f 132/20/137 134/21/139 29/231/22 27/235/20
f 134/235/139 133/20/138 135/21/140 136/236/141
f 134/20/139 136/21/141 137/236/142 29/235/22
f 137/237/142 136/24/141 138/238/143 139/226/144
f 137/239/142 139/240/144 140/219/145 141/241/146
f 137/35/142 141/236/146 22/242/15 29/34/22
f 141/24/146 140/10/145 142/243/147 143/9/148
f 141/21/146 143/244/148 23/23/16 22/20/15
f 143/1/148 142/10/147 144/243/149 145/9/150
f 143/5/148 145/244/150 146/23/151 23/8/16
f 146/22/151 18/23/10 17/8/9 23/5/16
f 146/236/151 145/245/150 44/27/152 43/246/153
f 146/247/151 43/248/153 21/249/13 18/229/10
f 145/231/150 144/12/149 46/250/154 44/238/152
f 144/9/149 142/1/147 147/10/155 148/243/156
f 144/251/149 148/252/156 47/253/157 46/213/154
f 148/254/156 147/255/155 149/256/158 150/257/159
f 148/258/156 150/259/159 151/260/160 47/261/157
f 151/262/160 150/263/159 152/264/161 153/265/162
f 151/266/163 153/155/164 154/267/165 155/268/166
f 151/266/163 155/268/166 45/61/42 47/65/44
f 155/268/166 154/267/165 156/269/167 157/270/168
f 155/268/166 157/270/168 40/62/35 45/61/42
f 157/271/168 156/272/167 49/71/47 48/70/46
f 157/271/168 48/70/46 41/69/36 40/273/35
f 152/274/161 150/275/159 149/276/158 158/277/169
f 158/278/169 149/279/158 159/280/170 160/281/171
f 160/282/171 159/283/170 161/284/172 162/285/173
f 162/286/173 161/287/172 163/288/174 164/289/175
f 164/290/175 163/291/174 165/292/176 166/293/177
f 166/294/177 165/295/176 167/296/178 168/297/179
f 168/298/179 167/299/178 169/300/180 170/301/181
f 170/302/181 169/303/180 171/304/182 172/305/183
f 172/306/183 171/307/182 173/308/184 174/309/185
f 174/310/185 173/311/184 175/312/186 176/313/187
f 176/314/187 175/315/186 177/316/188 178/317/189
f 178/318/189 177/319/188 179/320/190 180/321/191
f 180/322/191 179/323/190 181/324/192 182/325/193
f 182/326/193 181/327/192 183/328/194 184/329/195
f 186/330/196 185/331/197 124/332/129 122/333/126
f 186/334/196 122/210/126 120/208/123 10/209/122
f 185/335/197 187/336/198 126/337/131 124/338/129
f 187/335/198 189/336/199 190/337/200 126/338/131
f 190/339/200 189/340/199 191/202/201 192/341/202
f 190/342/200 192/343/202 193/246/203 129/3/134
f 190/212/200 129/228/134 127/226/132 126/227/131
f 193/243/203 192/211/202 35/212/29 194/213/204
f 193/211/203 194/212/204 195/213/205 196/214/206
f 193/343/203 196/246/206 130/344/135 129/342/134
f 196/345/206 195/13/205 197/21/207 198/244/208
f 196/346/206 198/29/208 131/244/136 130/345/135
f 198/23/208 197/20/207 199/21/209 200/22/210
f 198/8/208 200/5/210 133/347/138 131/7/136
f 200/23/210 199/20/209 201/21/211 202/244/212
f 200/8/210 202/5/212 135/6/140 133/7/138
f 202/9/212 201/24/211 203/10/213 204/243/214
f 202/1/212 204/2/214 205/3/215 135/4/140
f 205/4/215 204/1/214 206/2/216 207/3/217
f 205/24/215 207/238/217 208/226/218 138/237/143
f 205/238/215 138/226/143 136/237/141 135/24/140
f 208/348/218 207/349/217 165/350/176 163/351/174
f 208/258/218 163/352/174 161/353/172 209/354/219
f 208/238/218 209/226/219 139/237/144 138/24/143
f 209/355/219 161/356/172 159/260/170 210/357/220
f 209/240/219 210/358/220 140/241/145 139/239/144
f 210/359/220 159/360/170 149/361/158 147/362/155
f 210/238/220 147/243/155 142/9/147 140/24/145
f 207/363/217 206/364/216 167/256/178 165/257/176
f 206/243/216 204/9/214 203/24/213 211/10/221
f 206/365/216 211/364/221 169/366/180 167/351/178
f 211/243/221 203/9/213 12/24/3 212/10/222
f 211/348/221 212/349/222 171/367/182 169/368/180
f 212/369/222 12/370/3 11/371/2 213/372/223
f 212/362/222 213/359/223 173/350/184 171/351/182
f 213/373/223 214/374/224 175/375/186 173/376/184
f 213/377/223 11/378/2 215/379/225 214/380/224
f 215/381/225 216/382/226 217/383/227 214/384/224
f 215/20/225 11/21/2 1/244/1 15/23/6
f 215/21/225 15/22/6 218/23/228 216/20/226
f 218/30/228 219/31/229 220/32/230 216/29/226
f 218/8/228 15/5/6 14/347/5 221/7/231
f 218/385/228 221/386/231 222/387/232 219/388/229
f 222/344/232 223/342/233 224/343/234 219/246/229
f 222/389/232 221/390/231 197/391/207 195/392/205
f 222/213/232 195/214/205 194/211/204 223/212/233
f 224/243/234 33/211/27 225/212/235 226/213/236
f 224/211/234 226/212/236 220/213/230 219/214/229
f 224/246/234 223/3/233 34/342/28 33/343/27
f 226/393/236 225/394/235 227/395/237 228/396/238
f 226/397/236 228/398/238 229/399/239 220/400/230
f 229/254/239 228/355/238 181/401/192 179/402/190
f 229/255/239 179/403/190 177/404/188 217/405/227
f 229/406/239 217/407/227 216/408/226 220/409/230
f 228/405/238 227/410/237 183/411/194 181/412/192
f 227/46/237 225/47/235 231/48/240 230/45/241
f 231/45/240 225/46/235 33/47/27 32/48/26
f 231/413/240 32/414/26 31/415/25 232/416/242
f 234/415/243 233/416/244 232/413/242 31/414/25
f 234/417/243 31/418/25 30/419/24 191/11/201
f 234/420/243 191/421/201 189/422/199 188/423/245
f 223/213/233 194/243/204 35/211/29 34/212/28
f 221/346/231 14/385/5 199/424/209 197/425/207
f 217/255/227 177/426/188 175/427/186 214/405/224
f 203/243/213 201/9/211 13/24/4 12/10/3
f 201/244/211 199/23/209 14/20/5 13/21/4
f 192/428/202 191/429/201 30/430/24 35/218/29
f 117/218/128 28/431/21 24/432/17 111/433/246
f 111/434/246 24/435/17 16/436/8 20/437/12
f 62/88/61 58/82/57 57/81/56 235/438/247
f 235/439/247 57/440/56 236/441/248 237/442/249
f 237/442/249 236/441/248 238/181/250 239/443/251
f 239/443/251 238/181/250 240/444/252 241/445/253
f 240/444/252 238/181/250 242/59/254 243/446/255
f 243/447/255 242/448/254 51/74/49 244/449/256
f 244/449/256 51/74/49 7/73/45 50/450/48
f 242/59/254 238/181/250 236/441/248 245/451/257
f 242/448/254 245/452/257 52/75/50 51/74/49
f 245/451/257 236/441/248 57/440/56 56/453/55
f 245/452/257 56/270/55 55/164/54 52/75/50
