# Blender 4.2.1 LTS
# www.blender.org
o Retopo_Plane.003
v -12.219633 -11.975082 -53.794014
v -22.007874 -12.028847 -49.050056
v -0.183223 -11.910965 -57.515099
v 12.798595 -11.844078 -59.139885
v 26.214380 -11.777321 -58.322411
v 38.970215 -11.716106 -55.159523
v 50.870632 -11.661255 -49.827919
v 61.533962 -11.614483 -42.539009
v 71.886536 -11.572243 -32.120659
v 80.779129 -11.540615 -18.253273
v 85.113037 -11.529346 -7.120994
v 88.214600 -11.531155 11.266046
v 86.818909 -11.554039 28.007164
v 82.240082 -11.591072 42.767662
v 75.454987 -11.636902 55.087280
v 66.892151 -11.689800 65.425507
v -17.470364 -47.476700 -188.791748
v -44.162769 -47.623314 -175.855042
v 15.352757 -47.301857 -198.939102
v 50.753994 -47.119457 -203.369858
v 87.338654 -46.937408 -201.140625
v 122.123642 -46.770481 -192.515457
v 154.575897 -46.620895 -177.976257
v 183.654648 -46.493347 -158.099503
v 211.885971 -46.378162 -129.688812
v 236.135971 -46.291916 -91.872650
v 247.954453 -46.261185 -61.515087
v 256.412415 -46.266113 -11.373896
v 252.606369 -46.328522 34.278904
v 240.119919 -46.429520 74.530563
v 221.617096 -46.554482 108.126022
v 198.266373 -46.698730 136.318192
v -12.219635 39.518375 -53.794014
v -22.007874 39.518696 -49.050056
v -0.183220 39.517994 -57.515099
v 12.798592 39.517605 -59.139885
v 26.214378 39.517216 -58.322411
v 38.970215 39.516857 -55.159523
v 50.870632 39.516544 -49.827919
v 61.533962 39.516270 -42.539009
v 71.886536 39.516026 -32.120659
v 80.779129 39.515842 -18.253273
v 85.113037 39.515774 -7.120994
v 88.214600 39.515781 11.266046
v 86.818909 39.515911 28.007164
v 82.240082 39.516125 42.767662
v 75.454987 39.516399 55.087280
v 66.892151 39.516712 65.425507
v -44.162773 39.726650 -175.855042
v -17.470360 39.725796 -188.791748
v 15.352760 39.724773 -198.939102
v 50.753994 39.723713 -203.369858
v 87.338654 39.722645 -201.140625
v 122.123642 39.721668 -192.515457
v 154.575897 39.720791 -177.976257
v 183.654648 39.720051 -158.099503
v 211.885971 39.719379 -129.688812
v 236.135986 39.718876 -91.872650
v 247.954468 39.718693 -61.515091
v 256.412415 39.718723 -11.373897
v 252.606384 39.719082 34.278900
v 240.119934 39.719677 74.530556
v 221.617096 39.720409 108.126015
v 198.266373 39.721249 136.318192
vn 0.0309 -0.6337 0.7729
vn -0.0197 -0.7653 -0.6434
vn 0.0991 -0.7619 -0.6401
vn -0.1109 -0.6387 0.7614
vn -0.5887 -0.6538 0.4754
vn 0.5168 -0.7497 -0.4134
vn 0.5893 -0.7505 -0.2991
vn -0.6741 -0.6534 0.3445
vn -0.7008 -0.6461 -0.3024
vn 0.6028 -0.7556 0.2564
vn 0.5369 -0.7605 0.3652
vn -0.6324 -0.6401 -0.4363
vn -0.3694 -0.6459 0.6682
vn 0.3205 -0.7568 -0.5697
vn 0.4214 -0.7537 -0.5043
vn -0.4838 -0.6495 0.5865
vn -0.7529 -0.6574 0.0300
vn 0.6659 -0.7456 -0.0275
vn 0.6478 -0.7513 0.1262
vn -0.7444 -0.6512 -0.1477
vn 0.2941 -0.6180 0.7291
vn -0.2298 -0.7782 -0.5844
vn -0.1337 -0.7708 -0.6229
vn 0.1705 -0.6266 0.7605
vn 0.2134 -0.7593 -0.6148
vn -0.2452 -0.6425 0.7260
vn 0.6379 -0.7500 -0.1752
vn -0.7295 -0.6538 0.2010
vn 0.1000 -0.6640 0.7411
vn -0.8559 -0.4980 0.1396
vn -0.5279 -0.7447 -0.4084
vn 0.1629 -0.6944 -0.7009
vn 0.0219 0.7280 0.6852
vn -0.1038 0.7277 0.6780
vn 0.1099 0.6877 -0.7177
vn -0.0231 0.6873 -0.7260
vn -0.5320 0.7313 0.4269
vn -0.6094 0.7297 0.3101
vn 0.6486 0.6858 -0.3301
vn 0.5686 0.6845 -0.4563
vn -0.6288 0.7301 -0.2674
vn -0.5664 0.7284 -0.3855
vn 0.6007 0.6870 0.4088
vn 0.6700 0.6855 0.2850
vn -0.3353 0.7273 0.5989
vn -0.4382 0.7285 0.5265
vn 0.4649 0.6869 -0.5586
vn 0.3545 0.6880 -0.6332
vn -0.6765 0.7359 0.0284
vn -0.6688 0.7319 -0.1300
vn 0.7162 0.6839 0.1392
vn 0.7321 0.6805 -0.0307
vn 0.2531 0.7239 0.6418
vn 0.1447 0.7268 0.6714
vn -0.1527 0.6884 -0.7090
vn -0.2651 0.6910 -0.6724
vn -0.2238 0.7272 0.6489
vn 0.2366 0.6881 -0.6860
vn -0.6585 0.7303 0.1817
vn 0.7020 0.6853 -0.1937
vn -0.8084 0.5673 0.1571
vn 0.1541 0.5889 0.7934
vn 0.7754 0.5959 0.2088
vn -0.5840 0.6148 0.5301
vt 0.043478 0.005435
vt 0.032609 0.015810
vt 0.035573 0.018775
vt 0.044466 0.006423
vt 0.048913 0.008893
vt 0.046937 0.026186
vt 0.050889 0.026680
vt 0.050395 0.009387
vt 0.056324 0.006423
vt 0.066206 0.018281
vt 0.068182 0.015810
vt 0.056324 0.004941
vt 0.045949 0.007905
vt 0.041008 0.024209
vt 0.043478 0.024704
vt 0.047431 0.008893
vt 0.052866 0.007905
vt 0.059783 0.023715
vt 0.063241 0.021739
vt 0.054842 0.007411
vt 0.042984 0.002470
vt 0.030632 0.009387
vt 0.031621 0.012846
vt 0.042984 0.004447
vt 0.037549 0.020751
vt 0.044960 0.007905
vt 0.054842 0.025692
vt 0.051383 0.008893
vt 0.069664 0.011858
vt 0.057312 0.003458
vt 0.043478 0.001482
vt 0.030138 0.006423
s 1
f 4/1/1 20/2/2 21/3/3 5/4/4
f 9/5/5 25/6/6 26/7/7 10/8/8
f 14/9/9 30/10/10 31/11/11 15/12/12
f 7/13/13 23/14/14 24/15/15 8/16/16
f 12/17/17 28/18/18 29/19/19 13/20/20
f 1/21/21 17/22/22 19/23/23 3/24/24
f 5/4/4 21/3/3 22/25/25 6/26/26
f 10/8/8 26/7/7 27/27/27 11/28/28
f 15/12/12 31/11/11 32/29/29 16/30/30
f 3/24/24 19/23/23 20/2/2 4/1/1
f 8/16/16 24/15/15 25/6/6 9/5/5
f 13/20/20 29/19/19 30/10/10 14/9/9
f 6/26/26 22/25/25 23/14/14 7/13/13
f 11/28/28 27/27/27 28/18/18 12/17/17
f 2/31/31 18/32/32 17/22/22 1/21/21
f 36/1/33 37/4/34 53/3/35 52/2/36
f 41/5/37 42/8/38 58/7/39 57/6/40
f 46/9/41 47/12/42 63/11/43 62/10/44
f 39/13/45 40/16/46 56/15/47 55/14/48
f 44/17/49 45/20/50 61/19/51 60/18/52
f 33/21/53 35/24/54 51/23/55 50/22/56
f 37/4/34 38/26/57 54/25/58 53/3/35
f 42/8/38 43/28/59 59/27/60 58/7/39
f 47/12/42 48/30/61 64/29/62 63/11/43
f 35/24/54 36/1/33 52/2/36 51/23/55
f 40/16/46 41/5/37 57/6/40 56/15/47
f 45/20/50 46/9/41 62/10/44 61/19/51
f 38/26/57 39/13/45 55/14/48 54/25/58
f 43/28/59 44/17/49 60/18/52 59/27/60
f 34/31/63 33/21/53 50/22/56 49/32/64
f 13/20/20 14/9/9 46/9/41 45/20/50
f 29/19/19 28/18/18 60/18/52 61/19/51
f 14/9/9 15/12/12 47/12/42 46/9/41
f 2/31/31 1/21/21 33/21/53 34/31/63
f 30/10/10 29/19/19 61/19/51 62/10/44
f 15/12/12 16/30/30 48/30/61 47/12/42
f 1/21/21 3/24/24 35/24/54 33/21/53
f 31/11/11 30/10/10 62/10/44 63/11/43
f 17/22/22 18/32/32 49/32/64 50/22/56
f 3/24/24 4/1/1 36/1/33 35/24/54
f 32/29/29 31/11/11 63/11/43 64/29/62
f 19/23/23 17/22/22 50/22/56 51/23/55
f 4/1/1 5/4/4 37/4/34 36/1/33
f 20/2/2 19/23/23 51/23/55 52/2/36
f 5/4/4 6/26/26 38/26/57 37/4/34
f 21/3/3 20/2/2 52/2/36 53/3/35
f 16/30/30 32/29/29 64/29/62 48/30/61
f 6/26/26 7/13/13 39/13/45 38/26/57
f 22/25/25 21/3/3 53/3/35 54/25/58
f 7/13/13 8/16/16 40/16/46 39/13/45
f 23/14/14 22/25/25 54/25/58 55/14/48
f 8/16/16 9/5/5 41/5/37 40/16/46
f 24/15/15 23/14/14 55/14/48 56/15/47
f 9/5/5 10/8/8 42/8/38 41/5/37
f 25/6/6 24/15/15 56/15/47 57/6/40
f 10/8/8 11/28/28 43/28/59 42/8/38
f 18/32/32 2/31/31 34/31/63 49/32/64
f 26/7/7 25/6/6 57/6/40 58/7/39
f 11/28/28 12/17/17 44/17/49 43/28/59
f 27/27/27 26/7/7 58/7/39 59/27/60
f 12/17/17 13/20/20 45/20/50 44/17/49
f 28/18/18 27/27/27 59/27/60 60/18/52
