# Blender 4.2.1 LTS
# www.blender.org
o LargeRockWall
v -12.766313 12.512740 0.813112
v -12.737125 11.805069 0.386576
v -12.729755 10.236696 -0.282945
v -12.739274 6.212541 0.094345
v -12.725609 2.291896 -0.352344
v 12.080572 0.049329 0.118549
v 7.149315 -0.034856 -0.712084
v 3.368028 0.165336 -0.979245
v 0.703888 -0.007812 -0.732591
v -0.973296 0.009779 -0.192064
v -5.053122 0.014739 -0.476555
v -8.874228 0.080354 0.321736
v -11.099554 -0.016497 -0.259337
v -8.592682 12.593862 0.526163
v 1.575697 12.559015 0.148704
v 10.244370 12.535155 -0.336819
v 14.549005 11.571970 -0.395544
v 14.542891 9.532672 -0.762420
v 14.549752 7.510329 -0.955657
v 14.543221 5.433247 0.168683
v 14.557144 4.075897 -0.502324
v 14.511268 0.615635 -0.673388
v -12.720588 0.286272 0.174976
v -11.230995 1.544226 -0.552871
v -10.681863 3.346589 0.589887
v -12.731375 4.527288 -0.768494
v -12.732704 8.269857 -0.122053
v -10.997006 10.280015 -0.286119
v -10.630959 0.549257 0.024582
v -10.723742 6.952273 -0.561621
v -11.102409 7.772144 -0.273115
v -10.731643 8.626279 -0.932719
v -11.304572 9.738775 -0.304195
v -10.840385 12.588041 0.521282
v -10.110916 4.816070 0.367259
v -11.213224 5.627009 0.211715
v -9.319752 2.095267 -0.149893
v -8.759733 3.605896 0.313759
v -8.708998 5.269475 0.157720
v -8.261658 7.347306 -0.323342
v -9.314612 8.474634 -0.479546
v -8.101994 2.535283 -0.396619
v -8.942587 6.447190 -0.729182
v -7.706549 8.199197 -0.981774
v -9.733970 10.924084 -0.989255
v -7.989736 11.113320 -0.511490
v -7.089071 1.800016 -0.269607
v -6.748823 5.999129 0.119513
v -6.776470 0.646578 -0.190451
v -5.135331 2.156529 0.235907
v -6.266315 3.251530 0.180441
v -6.145775 9.359897 0.041867
v -7.607685 9.661407 0.300017
v -6.315470 10.992043 -0.972360
v -6.203847 12.124769 -0.180085
v -5.011902 1.104524 -0.033096
v -6.562338 4.629765 0.148672
v -6.379772 7.212031 0.012885
v -5.648234 8.436750 -0.198947
v -4.317656 6.516803 -0.639645
v -4.576043 10.844401 -0.405262
v -3.483135 2.687732 0.048321
v -4.690131 7.834495 0.082832
v -5.472520 9.881323 -0.149252
v -3.424940 0.754425 -0.177062
v -2.785656 1.538164 -0.623925
v -3.845982 3.903738 -1.033722
v -2.783181 5.206424 0.054508
v -2.819625 6.429977 -0.431017
v -2.311685 8.226359 -0.006875
v -4.139009 9.106291 -0.506820
v -3.314381 11.322299 -0.109980
v -2.985553 12.112654 -0.617196
v -1.259392 6.116628 -0.879422
v -0.986658 7.524924 0.216846
v -1.550280 9.044916 0.147452
v -1.516966 10.164221 -0.368949
v -3.302168 10.159568 -1.004384
v 0.116109 1.199731 0.242287
v -0.048636 2.476620 0.197034
v 0.660575 9.930482 -1.014560
v -0.475439 11.452637 0.391427
v -0.861259 3.367148 0.347928
v -0.784025 4.627692 0.355419
v 0.576115 6.096351 -0.366694
v -0.259915 8.567580 0.204269
v 1.748630 3.375320 0.231582
v 3.467347 1.216082 -0.600670
v 1.731245 4.720228 0.110498
v 2.388457 9.005499 0.102832
v 2.045793 11.104018 -0.019819
v 2.550649 6.058136 -0.286848
v 1.347598 6.647659 -0.039311
v 3.362491 7.407264 -0.422139
v 1.790673 7.803242 -0.725471
v 2.596156 1.953156 -0.967850
v 4.208137 4.970240 0.460046
v 4.277833 9.002508 0.557863
v 4.788342 2.837887 0.054475
v 3.913697 3.714196 0.361466
v 4.075154 6.572384 -0.812309
v 5.660505 1.702614 0.145634
v 5.649247 5.944018 -0.176202
v 4.615584 10.687183 0.655356
v 6.552130 12.019981 -0.613986
v 5.926477 4.474398 -0.038053
v 5.993038 7.145703 -0.087959
v 5.517691 8.485605 0.284010
v 6.825956 0.345383 -0.992745
v 7.690306 5.255401 -0.928908
v 8.476460 7.397542 0.037419
v 8.275072 8.074724 0.199542
v 8.435897 10.305268 -0.975540
v 7.850882 11.269179 -0.356402
v 7.762541 1.744080 0.110810
v 7.076518 3.411637 -0.915007
v 7.666409 5.663608 -0.807909
v 8.253550 9.930429 -0.794970
v 8.182506 12.163640 -1.023227
v 9.647411 0.488504 -0.016367
v 8.268099 2.435316 -0.044660
v 10.468388 4.053557 0.253240
v 8.494409 4.207918 -0.281324
v 8.061894 6.210053 -0.960118
v 7.722616 9.422556 -0.917113
v 11.046808 3.215577 0.331759
v 11.149322 5.357607 0.258221
v 11.197044 7.582671 -1.015661
v 9.379807 8.560908 0.004747
v 10.700773 1.627837 -1.011875
v 10.360562 11.418711 -0.005414
v 11.958526 12.175201 -0.985794
v 12.495152 1.157443 -0.207781
v 12.420672 2.445544 -0.170527
v 13.314719 4.155095 -0.673954
v 12.923231 5.983377 -0.231979
v 10.573939 6.531600 -0.054309
v 11.514815 9.597353 0.319310
v 12.237922 10.621258 0.278993
v 12.869860 7.288961 -0.308280
v 12.641671 8.797078 0.070614
v 13.158897 3.472827 -0.398839
v 12.950629 11.750082 -0.496683
v -12.728006 10.279910 0.210345
v -12.726761 7.814882 0.482451
v -12.727847 5.772432 0.509252
v -12.727880 4.569117 -0.317879
v -12.727777 3.335660 0.564016
v -12.727844 3.104704 0.086562
v -12.740087 0.073092 0.668925
v 9.999895 -0.043142 -0.287313
v 5.218345 -0.005102 -0.335662
v 1.830396 -0.017672 -0.591196
v -3.956656 -0.045678 -0.113160
v -5.105668 12.641181 -0.444540
v -1.209400 12.640918 -0.283886
v 4.260140 12.660149 0.398999
v 8.111423 12.677854 -0.673999
v 11.813629 12.675675 -0.689261
v 14.569590 12.634622 -0.066100
v 14.565019 10.873671 0.199834
v 14.548096 9.592832 -0.263025
v 14.584786 8.737042 0.029344
v 14.537065 7.425278 -0.509891
v 14.546524 5.737488 0.781040
v 14.546968 3.905211 -0.011669
v 14.591019 2.917204 -0.891487
v 14.598270 1.664827 0.191480
v 14.586869 -0.075918 -0.084536
v -12.248017 12.410281 1.059356
v 14.048833 12.378740 0.521115
v -12.213889 11.732592 1.194479
v -12.262515 10.173517 0.617323
v -12.241120 9.001023 0.759303
v -12.260396 8.327335 0.710182
v -12.231289 7.431936 0.933873
v -12.243819 6.291107 0.817205
v -12.211509 5.871927 0.864605
v -12.328541 4.598816 0.209802
v -12.160151 3.491351 0.750435
v -12.259578 2.570607 0.510642
v -12.244339 1.667395 0.668256
v -12.231588 0.650805 0.995862
v 11.606051 0.168225 0.936692
v 10.161559 0.202653 0.454189
v 9.161636 0.101380 0.492329
v 8.297347 0.211989 0.605898
v 6.791988 0.193863 0.140104
v 5.832422 0.211987 0.267742
v 5.036162 0.149759 0.615273
v 3.440830 0.117464 0.233099
v 2.222286 0.230031 0.313293
v 0.732380 0.192928 0.117960
v -0.717324 0.114096 0.664715
v -2.132421 0.216239 0.814552
v -3.558635 0.214507 0.649234
v -5.144619 0.197637 0.463197
v -7.034989 0.219356 0.934570
v -9.054003 0.127542 1.013855
v -10.351289 0.193685 0.640625
v -12.211931 0.200639 0.791683
v -10.600402 12.378738 1.380989
v -9.262853 12.490666 1.345047
v -8.094919 12.375305 1.337999
v -5.830689 12.380492 0.502888
v -4.848911 12.378740 0.337556
v -4.027273 12.378740 0.434123
v -2.885327 12.391448 0.284200
v -1.562350 12.378740 0.521004
v -0.488553 12.385291 0.510723
v 1.407133 12.422682 1.042679
v 2.926806 12.382486 0.940749
v 4.293199 12.345016 1.119420
v 6.525984 12.380741 0.340177
v 8.222920 12.384437 0.135539
v 9.893794 12.366051 0.581194
v 10.789420 12.483378 0.349607
v 11.798183 12.432093 0.121197
v 13.227191 12.378740 0.593973
v 14.048831 11.998528 0.678901
v 14.081893 11.484664 0.524869
v 14.048495 10.479308 0.853016
v 14.127422 9.539710 0.256897
v 14.038883 8.558687 0.716462
v 14.099218 7.517515 -0.026339
v 14.031556 6.391570 0.797940
v 14.007900 5.487286 0.971575
v 14.056372 4.456571 0.421951
v 14.034582 3.730899 0.356052
v 14.121436 2.967524 0.061895
v 13.973467 2.013226 0.654848
v 14.061970 1.012035 0.330320
v 14.053565 0.224014 0.525030
vn 0.0009 -0.5016 -0.8651
vn -0.4403 -0.1094 -0.8911
vn -0.1873 0.5890 -0.7861
vn 0.0261 0.5296 -0.8478
vn 0.3500 0.3060 -0.8854
vn 0.1685 -0.6472 -0.7434
vn -0.1868 0.4609 -0.8676
vn -0.1283 -0.0996 -0.9867
vn -0.1190 -0.0891 -0.9889
vn -0.0585 -0.2641 -0.9627
vn -0.0439 -0.1772 -0.9832
vn 0.1465 0.5427 -0.8270
vn -0.1626 -0.2588 -0.9521
vn 0.1479 0.6073 -0.7806
vn -0.0647 -0.0858 -0.9942
vn -0.0893 -0.2877 -0.9536
vn -0.0317 -0.0924 -0.9952
vn 0.1947 -0.5651 -0.8017
vn 0.2237 0.1416 -0.9643
vn 0.3227 -0.1799 -0.9292
vn 0.1883 0.2817 -0.9408
vn 0.0031 0.6591 -0.7521
vn -0.2613 -0.5224 -0.8117
vn -0.1780 0.5757 -0.7980
vn 0.0994 -0.0413 -0.9942
vn 0.2276 0.1867 -0.9557
vn -0.2995 0.0072 -0.9541
vn 0.2891 0.3845 -0.8767
vn -0.0154 0.3774 -0.9259
vn 0.1961 0.2645 -0.9443
vn 0.1295 -0.2436 -0.9612
vn 0.1733 0.5530 -0.8150
vn -0.0697 -0.3332 -0.9403
vn -0.2257 0.3861 -0.8944
vn -0.1235 0.6936 -0.7097
vn -0.1286 0.4486 -0.8844
vn -0.3762 0.1055 -0.9205
vn -0.0452 0.6088 -0.7920
vn -0.1882 -0.4738 -0.8603
vn -0.3236 -0.3573 -0.8762
vn 0.0108 -0.2852 -0.9584
vn 0.2137 -0.4145 -0.8846
vn 0.2744 -0.5803 -0.7668
vn 0.2651 0.4815 -0.8354
vn -0.0979 0.6230 -0.7760
vn 0.2697 0.5889 -0.7619
vn 0.2709 -0.3437 -0.8992
vn 0.2864 0.0030 -0.9581
vn 0.4170 -0.0202 -0.9087
vn -0.0746 -0.6506 -0.7558
vn 0.1173 -0.0937 -0.9887
vn 0.0838 0.1088 -0.9905
vn 0.1395 0.4173 -0.8980
vn -0.2553 0.5291 -0.8093
vn 0.2127 -0.5826 -0.7844
vn 0.1354 0.5922 -0.7944
vn -0.3331 0.2211 -0.9166
vn -0.1814 -0.5846 -0.7908
vn -0.1681 0.5983 -0.7835
vn -0.4158 -0.0857 -0.9054
vn -0.0446 0.1272 -0.9909
vn -0.0441 -0.0901 -0.9950
vn -0.0756 -0.3827 -0.9208
vn -0.1519 0.0652 -0.9863
vn -0.2338 0.3032 -0.9238
vn -0.1907 -0.6090 -0.7699
vn -0.2507 0.5325 -0.8085
vn 0.0879 -0.6963 -0.7123
vn -0.2681 0.3489 -0.8980
vn 0.1665 -0.3730 -0.9128
vn -0.2733 -0.1593 -0.9487
vn -0.2606 0.2172 -0.9407
vn 0.1964 0.4929 -0.8476
vn 0.2049 0.4850 -0.8502
vn 0.2341 0.0093 -0.9722
vn 0.2928 0.3932 -0.8716
vn 0.2407 -0.0823 -0.9671
vn 0.0866 0.1422 -0.9860
vn 0.3381 0.2906 -0.8951
vn 0.3355 -0.0714 -0.9393
vn 0.3490 0.1945 -0.9167
vn -0.3144 -0.1475 -0.9378
vn 0.1584 0.5258 -0.8357
vn -0.1193 0.2261 -0.9668
vn -0.4413 -0.1934 -0.8763
vn -0.4186 0.3451 -0.8400
vn -0.3153 0.3773 -0.8708
vn -0.2407 0.1319 -0.9616
vn -0.3883 -0.1586 -0.9078
vn -0.2553 0.2610 -0.9310
vn -0.3210 0.1604 -0.9334
vn 0.0109 0.2711 -0.9625
vn -0.3352 -0.3383 -0.8793
vn -0.3366 0.3557 -0.8719
vn -0.1568 -0.5521 -0.8189
vn -0.0253 0.6296 -0.7765
vn -0.1368 -0.5947 -0.7922
vn -0.0274 0.6486 -0.7607
vn -0.4014 -0.2316 -0.8861
vn 0.2646 0.4819 -0.8353
vn 0.3028 0.1204 -0.9454
vn 0.2330 -0.4138 -0.8800
vn 0.2075 0.5857 -0.7835
vn 0.1445 -0.6253 -0.7669
vn -0.0818 0.6542 -0.7519
vn 0.3471 -0.0787 -0.9345
vn -0.3093 0.3484 -0.8848
vn 0.3126 -0.0996 -0.9447
vn 0.3448 -0.2340 -0.9091
vn -0.0353 0.6893 -0.7236
vn -0.0020 0.2942 -0.9557
vn 0.2730 0.3189 -0.9076
vn -0.3922 -0.2990 -0.8699
vn 0.0745 0.6347 -0.7692
vn -0.2878 -0.2843 -0.9145
vn -0.3108 0.1659 -0.9359
vn -0.1581 -0.6403 -0.7517
vn -0.2668 -0.1791 -0.9470
vn 0.4194 0.0505 -0.9064
vn -0.2782 -0.3039 -0.9112
vn -0.0896 -0.0618 -0.9941
vn -0.3263 0.1940 -0.9251
vn -0.3188 0.0185 -0.9476
vn -0.0344 0.5729 -0.8189
vn -0.0076 -0.6032 -0.7975
vn -0.3739 0.1724 -0.9113
vn -0.3342 -0.1833 -0.9245
vn -0.2491 -0.2468 -0.9365
vn -0.3577 0.1586 -0.9203
vn -0.1230 -0.1034 -0.9870
vn -0.4030 0.2840 -0.8700
vn -0.0027 0.0349 -0.9994
vn -0.0115 0.3925 -0.9197
vn -0.2508 0.5199 -0.8166
vn 0.1654 0.5696 -0.8051
vn -0.2340 0.4446 -0.8646
vn 0.0929 0.2932 -0.9515
vn -0.0906 0.5816 -0.8084
vn -0.0368 -0.7059 -0.7074
vn 0.1504 0.4394 -0.8856
vn 0.1774 0.0387 -0.9834
vn -0.0936 -0.6514 -0.7530
vn 0.1409 0.5221 -0.8412
vn 0.1277 0.5163 -0.8469
vn -0.1524 -0.6675 -0.7288
vn -0.0252 -0.0629 -0.9977
vn -0.2050 -0.1193 -0.9715
vn 0.2315 0.2763 -0.9328
vn -0.9998 -0.0185 0.0052
vn 0.9988 -0.0445 0.0199
vn 0.0240 -0.9970 0.0742
vn 0.0049 -0.9945 0.1046
vn -0.9999 0.0046 0.0133
vn -0.0162 0.9889 0.1480
vn -0.9996 0.0009 0.0285
vn -0.0028 0.9924 0.1227
vn 0.0055 0.9884 0.1518
vn -0.9989 -0.0145 -0.0457
vn -0.0398 -0.9918 0.1211
vn 0.0627 0.9977 0.0254
vn -0.0260 -0.9876 0.1551
vn 0.9993 -0.0081 -0.0364
vn 0.1067 -0.9932 -0.0456
vn 0.9999 -0.0099 -0.0092
vn -0.6889 0.2145 0.6924
vn 0.0598 0.8209 0.5679
vn -0.1099 -0.4145 0.9034
vn -0.1352 -0.9313 0.3382
vn 0.1074 -0.9505 0.2917
vn -0.0819 -0.9499 0.3017
vn 0.0242 -0.9483 0.3165
vn 0.6490 0.2916 0.7026
vn 0.7071 0.1981 0.6788
vn -0.6704 -0.2041 0.7134
vn 0.7879 -0.2584 0.5589
vn -0.6403 0.0840 0.7635
vn 0.2547 0.1759 0.9509
vn -0.0719 -0.5209 0.8506
vn 0.1865 -0.2650 -0.9461
vn 0.0526 0.9518 0.3021
vn -0.0387 0.9434 0.3293
vn 0.4101 -0.1454 0.9004
vn -0.0431 0.9554 0.2923
vn -0.0029 0.9512 0.3086
vn -0.5795 0.1306 0.8044
vn -0.1127 -0.4694 -0.8758
vn -0.2366 -0.5274 -0.8160
vn 0.4073 -0.2895 -0.8662
vn -0.2059 -0.4354 -0.8764
vn 0.1744 -0.5443 -0.8206
vn -0.2774 0.2470 -0.9285
vn -0.1042 -0.6114 -0.7844
vn 0.0352 0.3462 -0.9375
vn 0.3162 0.1596 -0.9352
vn -0.5868 0.3577 -0.7264
vn -0.0001 0.6721 -0.7405
vn 0.0255 0.3948 -0.9184
vn -0.3354 -0.4295 -0.8385
vn 0.0368 0.5681 -0.8221
vn -0.0584 -0.0355 -0.9977
vn -0.0110 -0.0228 -0.9997
vn -0.1191 0.6590 -0.7426
vn 0.0927 0.4487 -0.8889
vn 0.0893 -0.6449 -0.7591
vn -0.1438 0.5280 -0.8370
vn -0.4215 -0.1113 -0.9000
vn 0.3674 -0.3672 -0.8545
vn -0.0950 -0.6382 -0.7640
vn -0.0722 -0.1247 -0.9896
vn -0.1721 -0.6830 -0.7099
vn -0.0212 -0.0242 -0.9995
vn -0.1287 -0.5777 -0.8060
vn -0.2481 0.1171 -0.9616
vn -0.1942 -0.1067 -0.9751
vn 0.2414 -0.4528 -0.8583
vn 0.2902 -0.1862 -0.9387
vn -0.0009 0.3769 -0.9262
vn -0.1668 -0.3822 -0.9089
vn -0.2882 0.2053 -0.9353
vn 0.0019 -0.4213 -0.9069
vn -0.2650 -0.0112 -0.9642
vn 0.1078 -0.3639 -0.9252
vn 0.0375 -0.4337 -0.9003
vn -0.3433 -0.1641 -0.9248
vn 0.0648 0.4142 -0.9079
vn 0.2438 -0.0441 -0.9688
vn 0.2431 -0.6033 -0.7595
vn 0.1674 -0.5809 -0.7966
vn 0.0785 0.2777 -0.9575
vn 0.1677 -0.5879 -0.7913
vn -0.0328 -0.1402 -0.9896
vn -0.2999 -0.3923 -0.8696
vn -0.0973 0.0119 -0.9952
vn 0.2661 0.1889 -0.9452
vn 0.1262 -0.4301 -0.8939
vn -0.2535 -0.4202 -0.8713
vn -0.0294 0.6663 -0.7451
vn 0.0998 0.6540 -0.7499
vn 0.0327 -0.3029 -0.9525
vn 0.0448 0.4630 -0.8852
vn -0.1302 0.6056 -0.7850
vn 0.0734 -0.0885 -0.9934
vn 0.1350 0.0460 -0.9898
vn 0.0338 -0.5198 -0.8536
vn -0.0513 0.6258 -0.7783
vn 0.2056 0.4838 -0.8507
vn 0.4178 -0.2681 -0.8681
vn 0.0092 -0.5564 -0.8308
vn -0.0012 -0.7129 -0.7012
vn 0.0769 -0.3957 -0.9151
vn 0.2773 0.1934 -0.9411
vn -0.3781 -0.0536 -0.9242
vn -0.4038 0.1333 -0.9051
vn 0.3623 -0.0353 -0.9314
vn 0.1435 0.4900 -0.8598
vn -0.1036 -0.7293 -0.6763
vn -0.3042 -0.0449 -0.9515
vn 0.0247 0.2397 -0.9705
vn -0.0080 0.6313 -0.7755
vn -0.1213 -0.6623 -0.7394
vn -0.2443 0.4607 -0.8533
vn -0.1569 -0.5523 -0.8188
vn 0.2713 0.2554 -0.9280
vn 0.1258 -0.6018 -0.7887
vn -0.3381 -0.4223 -0.8410
vn 0.2450 -0.4612 -0.8528
vn 0.2120 -0.3910 -0.8957
vn 0.3033 0.2871 -0.9086
vn 0.0800 0.5726 -0.8159
vn -0.3548 0.0495 -0.9336
vn 0.3245 -0.1659 -0.9312
vn -0.2656 -0.5602 -0.7846
vn -0.3653 0.1126 -0.9240
vn 0.3042 -0.3589 -0.8824
vn 0.3052 -0.5297 -0.7914
vn 0.2914 -0.2423 -0.9254
vn 0.0021 -0.2832 -0.9591
vn 0.1215 -0.7144 -0.6891
vn -0.1456 -0.3205 -0.9360
vn -0.3297 0.0272 -0.9437
vn 0.1612 -0.7164 -0.6788
vn 0.4152 0.2803 -0.8655
vn 0.1220 -0.6133 -0.7804
vn 0.3576 -0.2118 -0.9095
vn 0.0159 -0.6040 -0.7968
vn 0.2623 -0.4967 -0.8274
vn 0.2367 0.4437 -0.8644
vn -0.0433 -0.0814 -0.9957
vn -0.1485 0.5060 -0.8497
vn -0.2683 0.0790 -0.9601
vn 0.0370 0.4413 -0.8966
vn -0.2368 0.4845 -0.8421
vn 0.1932 0.5409 -0.8186
vn 0.0310 -0.2225 -0.9744
vn 0.0028 0.6261 -0.7798
vn 0.0578 -0.9809 -0.1855
vn -0.0248 -0.9997 0.0090
vn 0.1013 -0.3919 -0.9144
vn -0.2011 0.3066 -0.9304
vn -0.1083 -0.6506 -0.7517
vn -0.0071 0.6364 -0.7713
vn 0.3205 -0.3709 -0.8716
vn 0.2900 -0.2661 -0.9193
vn -0.1268 0.5268 -0.8405
vn 0.9992 0.0377 -0.0150
vn -1.0000 0.0011 0.0074
vn 1.0000 0.0017 0.0060
vn 1.0000 0.0011 -0.0059
vn -0.2691 -0.8804 -0.3906
vn -0.9999 -0.0101 0.0126
vn 0.9994 0.0199 0.0277
vn -1.0000 0.0010 0.0036
vn 0.0275 0.9887 0.1471
vn -0.0539 -0.9975 0.0466
vn 0.9934 0.0116 -0.1140
vn -1.0000 0.0023 -0.0093
vn -0.0504 0.9887 0.1413
vn 0.0143 -0.9883 0.1519
vn -0.0610 0.9905 0.1232
vn 0.0050 -0.9945 0.1042
vn 0.0031 -0.9959 0.0900
vn 0.1216 0.8968 0.4254
vn 0.0215 -0.9932 0.1145
vn -0.9758 0.0820 -0.2028
vn -0.1331 0.9019 0.4109
vn -0.0274 0.9154 0.4017
vn -0.0635 0.9437 0.3245
vn 0.1055 -0.8526 0.5118
vn 0.0384 0.9411 0.3358
vn -0.0513 0.9591 0.2784
vn -0.1342 -0.6744 0.7261
vn 0.1135 0.9509 0.2880
vn 0.1579 -0.9694 0.1881
vn 0.7281 0.0428 0.6841
vn 0.0379 0.9033 0.4272
vn -0.0386 -0.9594 0.2795
vn 0.8011 -0.2393 0.5487
vn 0.2828 -0.7072 0.6479
vn -0.0351 -0.9416 0.3349
vn -0.3976 0.1601 0.9035
vn 0.7351 0.2390 0.6345
vn -0.7406 -0.2128 0.6374
vn 0.0808 -0.8838 0.4608
vn -0.0295 -0.9412 0.3366
vn 0.6281 -0.4275 0.6502
vn 0.6631 0.4410 0.6048
vn -0.6456 0.0802 0.7594
vn 0.3937 -0.3847 0.8349
vn -0.3878 -0.0560 0.9201
vn 0.0140 0.9918 0.1270
vn -0.5835 0.1789 0.7922
vn -0.0686 0.8803 0.4695
vn -0.6109 -0.0197 0.7915
vn 0.7768 -0.3095 0.5484
vn 0.6007 -0.0902 0.7943
vn -0.5726 0.0484 0.8184
vn -0.6121 -0.3846 0.6910
vn 0.1097 0.9396 0.3241
vn 0.7882 0.3396 0.5133
vn -0.5948 0.3858 0.7053
vn 0.4947 -0.2281 0.8386
vn -0.0030 0.9431 0.3325
vn -0.5693 -0.3986 0.7190
vn 0.7786 0.1427 0.6110
vn -0.5226 0.1629 0.8369
vt 0.058066 0.850034
vt 0.054298 0.850742
vt 0.052874 0.846851
vt 0.098332 0.847317
vt 0.095084 0.852050
vt 0.092039 0.850251
vt 0.101073 0.850378
vt 0.065010 0.850709
vt 0.059469 0.852697
vt 0.083498 0.877964
vt 0.078063 0.881917
vt 0.079545 0.874506
vt 0.082613 0.850238
vt 0.085879 0.850713
vt 0.084697 0.853381
vt 0.076581 0.847826
vt 0.075593 0.857213
vt 0.066206 0.857213
vt 0.071146 0.886364
vt 0.069664 0.880435
vt 0.080040 0.886858
vt 0.079642 0.856188
vt 0.090108 0.850087
vt 0.090090 0.856913
vt 0.054350 0.857878
vt 0.052665 0.854343
vt 0.101369 0.855811
vt 0.095844 0.856488
vt 0.059231 0.857323
vt 0.060277 0.857708
vt 0.063241 0.848814
vt 0.071943 0.854995
vt 0.069597 0.858886
vt 0.065931 0.854628
vt 0.077569 0.888340
vt 0.076087 0.878953
vt 0.082510 0.882905
vt 0.061265 0.867095
vt 0.082510 0.875988
vt 0.078557 0.875494
vt 0.088244 0.858754
vt 0.084406 0.856689
vt 0.095211 0.858339
vt 0.099008 0.858690
vt 0.055990 0.861305
vt 0.068182 0.863142
vt 0.086462 0.867095
vt 0.087945 0.874012
vt 0.081522 0.869565
vt 0.084974 0.859571
vt 0.052478 0.861350
vt 0.061058 0.861363
vt 0.079328 0.858457
vt 0.082657 0.862190
vt 0.096882 0.864134
vt 0.101263 0.861476
vt 0.097332 0.859684
vt 0.095356 0.864130
vt 0.087945 0.858202
vt 0.083498 0.864130
vt 0.080040 0.874506
vt 0.077075 0.868083
vt 0.093379 0.869071
vt 0.087945 0.863636
vt 0.090415 0.865613
vt 0.088439 0.867589
vt 0.096344 0.868083
vt 0.099017 0.864566
vt 0.089921 0.875988
vt 0.090909 0.881423
vt 0.083004 0.880929
vt 0.072134 0.856225
vt 0.076581 0.865119
vt 0.067688 0.872036
vt 0.081522 0.866107
vt 0.088933 0.873024
vt 0.081028 0.873024
vt 0.071640 0.876482
vt 0.096344 0.877964
vt 0.099992 0.867823
vt 0.097444 0.869814
vt 0.084486 0.867095
vt 0.081028 0.858696
vt 0.085474 0.884881
vt 0.077569 0.875494
vt 0.082016 0.868577
vt 0.096838 0.876482
vt 0.051998 0.868782
vt 0.055770 0.870130
vt 0.051551 0.871609
vt 0.093874 0.885870
vt 0.095850 0.883893
vt 0.080040 0.856225
vt 0.089427 0.854249
vt 0.086462 0.859684
vt 0.087945 0.878953
vt 0.078557 0.876976
vt 0.064723 0.877470
vt 0.063241 0.884881
vt 0.056324 0.879447
vt 0.065391 0.869144
vt 0.064756 0.873782
vt 0.061734 0.869992
vt 0.059289 0.870059
vt 0.070652 0.867095
vt 0.065217 0.877964
vt 0.075593 0.858696
vt 0.064723 0.865613
vt 0.099958 0.873079
vt 0.095160 0.874064
vt 0.056090 0.876673
vt 0.051438 0.873694
vt 0.056818 0.887846
vt 0.069170 0.882411
vt 0.080534 0.883893
vt 0.052975 0.876887
vt 0.081522 0.862648
vt 0.087451 0.862154
vt 0.072134 0.870553
vt 0.076087 0.858696
vt 0.080040 0.873518
vt 0.072628 0.887846
vt 0.067688 0.890316
vt 0.096344 0.862154
vt 0.087945 0.871542
vt 0.086424 0.874633
vt 0.094415 0.879119
vt 0.086905 0.878690
vt 0.093874 0.882905
vt 0.092391 0.890316
vt 0.101095 0.878734
vt 0.051745 0.880494
vt 0.063735 0.893775
vt 0.070652 0.884387
vt 0.066206 0.891304
vt 0.064723 0.887846
vt 0.066206 0.880929
vt 0.088933 0.876482
vt 0.085474 0.879941
vt 0.077075 0.879941
vt 0.093874 0.866107
vt 0.088439 0.873024
vt 0.080534 0.867095
vt 0.059007 0.880762
vt 0.053897 0.882417
vt 0.100791 0.891304
vt 0.094862 0.884387
vt 0.098814 0.878458
vt 0.061265 0.891304
vt 0.073123 0.859684
vt 0.070158 0.869071
vt 0.063735 0.865613
vt 0.075099 0.867095
vt 0.078063 0.857708
vt 0.077569 0.866601
vt 0.084486 0.887352
vt 0.077569 0.879941
vt 0.078557 0.887352
vt 0.075593 0.888340
vt 0.095792 0.885076
vt 0.092017 0.886199
vt 0.083004 0.878953
vt 0.059382 0.885307
vt 0.066700 0.875000
vt 0.082510 0.864625
vt 0.091199 0.885828
vt 0.054009 0.887421
vt 0.093874 0.866601
vt 0.096838 0.863142
vt 0.079051 0.876482
vt 0.083004 0.870059
vt 0.089921 0.879941
vt 0.068182 0.877470
vt 0.072628 0.886858
vt 0.064229 0.884881
vt 0.075099 0.889328
vt 0.072628 0.887352
vt 0.074605 0.880929
vt 0.075099 0.877470
vt 0.081028 0.872530
vt 0.093874 0.884387
vt 0.067688 0.878953
vt 0.084789 0.887281
vt 0.088960 0.891919
vt 0.085721 0.893571
vt 0.090909 0.885870
vt 0.082016 0.895257
vt 0.081522 0.882411
vt 0.101228 0.887829
vt 0.099207 0.892589
vt 0.096922 0.888111
vt 0.068182 0.892292
vt 0.079545 0.858202
vt 0.076087 0.866107
vt 0.073617 0.858202
vt 0.085474 0.865119
vt 0.092315 0.892849
vt 0.074111 0.877964
vt 0.078063 0.884387
vt 0.070158 0.880435
vt 0.056324 0.892292
vt 0.073123 0.865119
vt 0.082510 0.880929
vt 0.075099 0.875494
vt 0.082510 0.872530
vt 0.089921 0.871047
vt 0.092885 0.875000
vt 0.086462 0.877964
vt 0.067194 0.866107
vt 0.069664 0.860178
vt 0.081522 0.874506
vt 0.073512 0.890673
vt 0.075620 0.893914
vt 0.073839 0.897213
vt 0.077075 0.877470
vt 0.082510 0.874506
vt 0.080534 0.880929
vt 0.084980 0.871047
vt 0.060637 0.846838
vt 0.076733 0.847057
vt 0.078561 0.850918
vt 0.084446 0.847046
vt 0.091770 0.846838
vt 0.094862 0.878953
vt 0.101779 0.892446
vt 0.101303 0.897054
vt 0.097519 0.897233
vt 0.097786 0.893942
vt 0.091403 0.880435
vt 0.082510 0.875494
vt 0.073617 0.870059
vt 0.083498 0.872036
vt 0.084486 0.879447
vt 0.052460 0.892829
vt 0.051383 0.887832
vt 0.051383 0.883077
vt 0.055132 0.864324
vt 0.051383 0.863029
vt 0.051383 0.850207
vt 0.091832 0.846838
vt 0.100739 0.846834
vt 0.085472 0.897233
vt 0.081260 0.897233
vt 0.081646 0.897230
vt 0.051383 0.853203
vt 0.052287 0.846841
vt 0.082723 0.846838
vt 0.101779 0.852962
vt 0.074838 0.846838
vt 0.101779 0.873259
vt 0.068676 0.881917
vt 0.101779 0.885041
vt 0.101779 0.890736
vt 0.051383 0.887379
vt 0.093577 0.897233
vt 0.051383 0.877084
vt 0.089560 0.897233
vt 0.089518 0.897206
vt 0.054005 0.846838
vt 0.057827 0.846838
vt 0.101779 0.875647
vt 0.051383 0.846958
vt 0.051383 0.892787
vt 0.051383 0.888623
vt 0.051383 0.886364
vt 0.051383 0.882811
vt 0.051383 0.880929
vt 0.101779 0.897233
vt 0.099308 0.897233
vt 0.097652 0.897233
vt 0.092400 0.897233
vt 0.091917 0.846838
vt 0.085424 0.897233
vt 0.087181 0.846838
vt 0.074695 0.897233
vt 0.077079 0.897233
vt 0.073810 0.897233
vt 0.101779 0.858910
vt 0.101779 0.861660
vt 0.101779 0.863142
vt 0.059254 0.897233
vt 0.054946 0.897233
vt 0.051438 0.897236
vt 0.101779 0.864403
vt 0.101779 0.867095
vt 0.101779 0.869714
vt 0.063839 0.846838
vt 0.061464 0.846838
vt 0.074040 0.850073
vt 0.070158 0.877964
vt 0.069664 0.884881
vt 0.063433 0.858651
vt 0.075399 0.857870
vt 0.076581 0.857213
vt 0.091305 0.861365
vt 0.062055 0.863936
vt 0.069170 0.861660
vt 0.071847 0.864921
vt 0.087059 0.863024
vt 0.092917 0.862512
vt 0.090909 0.852273
vt 0.085474 0.853755
vt 0.082016 0.858696
vt 0.091897 0.869565
vt 0.062571 0.879382
vt 0.061432 0.885525
vt 0.092391 0.885870
vt 0.081028 0.863636
vt 0.059783 0.882411
vt 0.062747 0.876976
vt 0.066700 0.879447
vt 0.083498 0.875494
vt 0.077075 0.875000
vt 0.094862 0.859190
vt 0.073123 0.880929
vt 0.085968 0.866107
vt 0.058794 0.870059
vt 0.102767 0.886364
vt 0.067194 0.882905
vt 0.101779 0.873518
vt 0.077075 0.887846
vt 0.094862 0.874506
vt 0.083004 0.882411
vt 0.083004 0.879941
vt 0.064229 0.877470
vt 0.053854 0.880929
vt 0.081522 0.886364
vt 0.079545 0.881423
vt 0.075593 0.892787
vt 0.055350 0.893349
vt 0.077586 0.888811
vt 0.069006 0.846838
vt 0.080040 0.881423
vt 0.072134 0.885870
vt 0.072134 0.880929
vt 0.084486 0.878458
vt 0.063735 0.865119
vt 0.066915 0.897233
vt 0.067580 0.897233
vt 0.069194 0.846838
vt 0.062714 0.897236
vt 0.064687 0.846838
vt 0.051383 0.880435
vt 0.054804 0.897062
vt 0.051383 0.869579
vt 0.101779 0.882189
vt 0.101779 0.878703
vt 0.101779 0.887819
vt 0.101779 0.886231
vt 0.052349 0.897190
vt 0.101779 0.894763
vt 0.101779 0.893040
vt 0.051383 0.871642
vt 0.051383 0.874312
vt 0.089934 0.897233
vt 0.051383 0.863423
vt 0.051383 0.866064
vt 0.098272 0.846838
vt 0.101779 0.846827
vt 0.051383 0.857055
vt 0.051383 0.860783
vt 0.081886 0.897233
vt 0.068406 0.897233
vt 0.084677 0.846838
vt 0.051383 0.850593
vt 0.081426 0.846838
vt 0.101779 0.850296
vt 0.076560 0.846838
vt 0.062620 0.897233
vt 0.066216 0.897233
vt 0.074959 0.846838
vt 0.069027 0.846838
vt 0.101779 0.856248
vt 0.060044 0.897233
vt 0.065005 0.846838
s 0
f 24/1/1 29/2/1 23/3/1
f 2/4/2 45/5/2 28/6/2
f 2/4/3 34/7/3 45/5/3
f 25/8/4 37/9/4 24/1/4
f 36/10/5 35/11/5 26/12/5
f 31/13/6 32/14/6 41/15/6
f 25/16/7 38/17/7 42/18/7
f 35/11/8 38/19/8 25/20/8
f 35/11/9 39/21/9 38/19/9
f 36/10/10 39/21/10 35/11/10
f 31/13/11 41/15/11 40/22/11
f 33/23/12 53/24/12 32/14/12
f 37/9/13 49/25/13 12/26/13
f 14/27/14 46/28/14 45/5/14
f 37/9/15 47/29/15 49/25/15
f 42/18/16 47/30/16 37/31/16
f 39/32/17 57/33/17 38/34/17
f 39/35/18 43/36/18 48/37/18
f 47/30/19 42/18/19 50/38/19
f 43/36/20 58/39/20 48/37/20
f 40/40/21 58/39/21 43/36/21
f 53/24/22 52/41/22 44/42/22
f 46/28/23 54/43/23 53/24/23
f 46/28/24 55/44/24 54/43/24
f 47/29/25 56/45/25 49/25/25
f 51/46/26 50/38/26 42/18/26
f 58/47/27 60/48/27 48/49/27
f 52/41/28 59/50/28 44/42/28
f 49/25/29 56/45/29 11/51/29
f 50/52/30 56/45/30 47/29/30
f 58/53/31 59/50/31 63/54/31
f 55/44/32 72/55/32 54/43/32
f 55/44/33 155/56/33 72/55/33
f 50/57/34 62/58/34 66/59/34
f 57/60/35 68/61/35 67/62/35
f 58/47/36 63/63/36 60/48/36
f 64/64/37 61/65/37 78/66/37
f 61/65/38 72/67/38 78/66/38
f 155/56/39 73/68/39 72/55/39
f 69/69/40 74/70/40 68/71/40
f 63/72/41 70/73/41 75/74/41
f 71/75/42 77/76/42 76/77/42
f 71/75/43 78/66/43 77/76/43
f 68/61/44 84/78/44 67/62/44
f 69/69/45 75/79/45 74/70/45
f 72/67/46 77/76/46 78/66/46
f 73/68/47 156/80/47 82/81/47
f 66/59/48 80/82/48 79/83/48
f 84/78/49 83/74/49 67/62/49
f 68/71/50 74/70/50 84/84/50
f 70/73/51 86/85/51 75/74/51
f 76/86/52 86/85/52 70/73/52
f 72/67/53 82/87/53 77/76/53
f 10/88/54 79/89/54 9/90/54
f 74/70/55 85/91/55 84/84/55
f 75/79/56 93/92/56 74/70/56
f 75/93/57 86/94/57 95/95/57
f 81/96/58 86/97/58 76/77/58
f 77/76/59 82/87/59 81/96/59
f 80/98/60 96/99/60 79/100/60
f 83/101/61 87/102/61 80/103/61
f 83/104/62 89/105/62 87/106/62
f 85/107/63 89/105/63 84/108/63
f 82/81/64 15/109/64 91/110/64
f 79/89/65 88/111/65 153/112/65
f 96/99/66 88/113/66 79/100/66
f 80/98/67 87/114/67 96/99/67
f 86/97/68 81/96/68 90/115/68
f 153/112/69 88/111/69 8/116/69
f 89/105/70 92/117/70 97/40/70
f 93/118/71 101/119/71 92/120/71
f 93/118/72 94/121/72 101/119/72
f 100/122/73 99/123/73 96/99/73
f 98/124/74 107/125/74 95/95/74
f 90/126/75 104/127/75 98/128/75
f 91/129/76 104/130/76 81/96/76
f 91/110/77 157/131/77 104/127/77
f 15/109/78 157/131/78 91/110/78
f 88/111/79 152/132/79 8/116/79
f 96/99/80 102/133/80 88/113/80
f 99/123/81 102/133/81 96/99/81
f 103/134/82 106/135/82 97/136/82
f 94/121/83 107/137/83 101/119/83
f 98/138/84 108/139/84 107/140/84
f 157/141/85 105/142/85 104/143/85
f 152/132/86 102/144/86 109/145/86
f 100/146/87 106/147/87 116/148/87
f 97/136/88 106/135/88 100/149/88
f 103/150/89 110/151/89 106/152/89
f 103/150/90 117/153/90 110/151/90
f 103/150/91 107/154/91 124/155/91
f 108/139/92 112/156/92 107/140/92
f 125/157/93 108/158/93 98/159/93
f 104/127/94 114/160/94 113/161/94
f 105/142/95 114/162/95 104/143/95
f 102/144/96 115/163/96 109/145/96
f 110/151/97 123/164/97 106/152/97
f 107/154/98 111/165/98 124/155/98
f 104/127/99 113/161/99 118/166/99
f 115/163/100 120/167/100 109/145/100
f 116/148/101 122/168/101 126/169/101
f 117/153/102 124/155/102 127/170/102
f 111/165/103 137/171/103 124/155/103
f 114/162/104 119/172/104 131/84/104
f 121/173/105 126/174/105 130/175/105
f 124/155/106 137/171/106 127/170/106
f 112/176/107 129/177/107 128/178/107
f 125/157/108 118/179/108 138/180/108
f 119/172/109 16/181/109 131/84/109
f 129/177/110 141/182/110 128/178/110
f 129/183/111 138/184/111 141/185/111
f 131/186/112 139/187/112 113/188/112
f 16/189/113 132/190/113 131/191/113
f 126/174/114 134/192/114 130/175/114
f 122/193/115 135/194/115 126/195/115
f 122/193/116 127/196/116 135/194/116
f 132/190/117 139/197/117 131/191/117
f 133/198/118 22/199/118 6/200/118
f 134/192/119 133/201/119 130/175/119
f 135/194/120 142/202/120 126/195/120
f 137/203/121 140/204/121 136/205/121
f 138/206/122 139/207/122 18/208/122
f 142/202/123 167/209/123 134/210/123
f 127/196/124 20/211/124 135/194/124
f 127/212/125 136/213/125 20/214/125
f 140/215/126 141/216/126 19/217/126
f 138/206/127 18/208/127 141/218/127
f 5/219/128 24/1/128 23/3/128
f 4/220/129 31/13/129 30/221/129
f 27/222/130 31/13/130 4/220/130
f 27/222/131 33/23/131 32/14/131
f 3/223/132 28/6/132 33/23/132
f 3/223/133 2/4/133 28/6/133
f 105/142/134 158/224/134 119/172/134
f 158/224/135 16/181/135 119/172/135
f 16/189/136 159/225/136 132/190/136
f 160/226/137 17/227/137 143/228/137
f 139/207/138 161/229/138 18/208/138
f 18/208/139 163/230/139 141/218/139
f 20/211/140 21/231/140 135/194/140
f 134/232/141 168/233/141 133/198/141
f 22/199/142 169/122/142 6/200/142
f 120/167/143 6/234/143 151/235/143
f 120/167/144 151/235/144 7/236/144
f 109/145/145 7/236/145 152/132/145
f 65/237/146 10/88/146 154/238/146
f 49/25/147 11/51/147 12/26/147
f 29/2/148 12/26/148 13/239/148
f 3/223/149 144/240/149 1/241/149
f 163/242/150 164/243/150 19/244/150
f 12/26/151 199/245/151 13/239/151
f 13/239/152 199/245/152 150/246/152
f 4/220/153 145/247/153 27/222/153
f 34/7/154 1/241/154 203/248/154
f 4/220/155 146/249/155 145/247/155
f 34/7/156 203/248/156 14/27/156
f 15/109/157 156/80/157 211/250/157
f 23/3/158 150/246/158 5/219/158
f 6/200/159 169/122/159 184/251/159
f 16/189/160 158/252/160 217/253/160
f 7/236/161 151/235/161 186/254/161
f 160/226/162 161/255/162 17/227/162
f 8/116/163 191/256/163 153/112/163
f 161/255/164 162/257/164 18/258/164
f 150/246/165 183/259/165 182/260/165
f 211/250/166 212/261/166 157/131/166
f 150/246/167 201/262/167 183/259/167
f 151/235/168 184/263/168 185/264/168
f 151/235/169 185/264/169 186/254/169
f 186/254/170 187/265/170 188/266/170
f 152/132/171 188/266/171 189/267/171
f 160/226/172 171/268/172 220/269/172
f 161/255/173 221/270/173 222/271/173
f 144/240/174 173/272/174 1/241/174
f 163/242/175 224/273/175 164/243/175
f 145/247/176 174/274/176 144/240/176
f 165/275/177 226/276/177 227/277/177
f 199/245/178 201/262/178 150/246/178
f 37/9/179 12/26/179 29/2/179 24/1/179
f 155/56/180 205/278/180 206/279/180
f 155/56/181 206/279/181 207/280/181
f 168/281/182 232/282/182 169/283/182
f 156/80/183 208/284/183 209/285/183
f 156/80/184 209/285/184 210/286/184
f 149/287/185 182/260/185 181/288/185
f 4/220/186 30/221/186 36/289/186
f 27/222/187 32/14/187 31/13/187
f 25/20/188 26/12/188 35/11/188
f 30/290/189 43/36/189 36/291/189
f 46/28/190 53/24/190 33/23/190 45/5/190
f 37/31/191 25/16/191 42/18/191
f 36/291/192 43/36/192 39/35/192
f 31/13/193 40/22/193 30/221/193
f 32/14/194 53/24/194 41/15/194
f 33/23/195 28/6/195 45/5/195
f 45/5/196 34/7/196 14/27/196
f 30/290/197 40/40/197 43/36/197
f 41/15/198 44/42/198 40/22/198
f 42/18/199 38/17/199 51/46/199
f 38/34/200 57/33/200 51/292/200
f 39/32/201 48/293/201 57/33/201
f 41/15/202 53/24/202 44/42/202
f 69/69/203 60/48/203 63/63/203 75/79/203
f 40/22/204 44/42/204 58/53/204
f 46/28/205 14/27/205 55/44/205
f 57/60/206 67/62/206 51/294/206
f 58/53/207 44/42/207 59/50/207
f 54/43/208 64/295/208 53/24/208
f 50/52/209 51/292/209 62/296/209
f 51/294/210 67/62/210 62/297/210
f 48/293/211 68/298/211 57/33/211
f 48/49/212 60/48/212 68/71/212
f 59/50/213 52/41/213 71/299/213
f 52/41/214 53/24/214 64/295/214
f 64/295/215 54/43/215 61/300/215
f 54/43/216 72/55/216 61/300/216
f 56/45/217 65/237/217 11/51/217
f 56/301/218 66/59/218 65/302/218
f 56/301/219 50/57/219 66/59/219
f 59/50/220 71/299/220 63/54/220
f 71/299/221 52/41/221 64/295/221
f 68/71/222 60/48/222 69/69/222
f 63/72/223 71/303/223 70/73/223
f 64/64/224 78/66/224 71/75/224
f 80/82/225 66/59/225 62/58/225 83/304/225
f 70/73/226 71/303/226 76/86/226
f 62/297/227 67/62/227 83/74/227
f 72/55/228 73/68/228 82/81/228
f 65/237/229 79/89/229 10/88/229
f 65/302/230 66/59/230 79/83/230
f 115/163/231 102/144/231 99/305/231 121/306/231
f 77/76/232 81/96/232 76/77/232
f 83/104/233 84/108/233 89/105/233
f 74/70/234 93/92/234 85/307/234
f 82/81/235 156/80/235 15/109/235
f 75/93/236 95/95/236 93/308/236
f 81/96/237 82/87/237 91/129/237
f 9/90/238 79/89/238 153/112/238
f 89/309/239 85/310/239 92/311/239
f 85/86/240 93/312/240 92/313/240
f 95/95/241 86/94/241 90/314/241
f 87/106/242 89/105/242 100/315/242
f 89/105/243 97/40/243 100/315/243
f 93/308/244 95/95/244 94/316/244
f 87/114/245 100/122/245 96/99/245
f 90/314/246 98/124/246 95/95/246
f 90/115/247 81/96/247 104/130/247
f 97/136/248 92/311/248 103/134/248
f 92/120/249 101/119/249 103/317/249
f 95/95/250 107/125/250 94/316/250
f 88/111/251 102/144/251 152/132/251
f 100/146/252 116/148/252 99/318/252
f 98/159/253 104/319/253 125/157/253
f 101/119/254 107/137/254 103/317/254
f 24/1/255 5/219/255 149/287/255 25/8/255
f 99/318/256 116/148/256 121/320/256
f 103/150/257 124/155/257 117/153/257
f 107/140/258 112/156/258 111/321/258
f 106/147/259 123/322/259 116/148/259
f 108/158/260 125/157/260 112/323/260
f 125/157/261 104/319/261 118/179/261
f 105/142/262 119/172/262 114/162/262
f 116/148/263 123/322/263 122/168/263
f 112/323/264 125/157/264 129/324/264
f 115/325/265 130/175/265 120/326/265
f 121/320/266 116/148/266 126/169/266
f 123/164/267 110/151/267 122/182/267
f 117/153/268 127/170/268 110/151/268
f 114/160/269 131/191/269 113/161/269
f 115/325/270 121/173/270 130/175/270
f 122/182/271 110/151/271 127/170/271
f 111/327/272 128/178/272 137/203/272
f 111/327/273 112/176/273 128/178/273
f 129/324/274 125/157/274 138/180/274
f 118/328/275 113/188/275 139/187/275
f 138/329/276 118/328/276 139/187/276
f 6/234/277 120/167/277 133/330/277
f 120/326/278 130/175/278 133/201/278
f 127/212/279 137/331/279 136/213/279
f 126/195/280 142/202/280 134/210/280
f 137/203/281 128/178/281 140/204/281
f 128/178/282 141/182/282 140/204/282
f 139/197/283 132/190/283 143/228/283
f 143/228/284 132/190/284 160/226/284
f 161/255/285 139/197/285 143/228/285 17/227/285
f 149/287/286 26/332/286 25/8/286
f 4/220/287 36/289/287 26/332/287
f 27/222/288 3/223/288 33/23/288
f 2/4/289 1/241/289 34/7/289
f 14/27/290 155/56/290 55/44/290
f 155/56/291 156/80/291 73/68/291
f 105/142/292 157/141/292 158/224/292
f 159/225/293 160/226/293 132/190/293
f 164/333/294 20/334/294 136/335/294 140/215/294
f 19/217/295 141/216/295 163/336/295
f 140/215/296 19/217/296 164/333/296
f 154/238/297 199/245/297 12/26/297 11/51/297
f 142/202/298 135/194/298 21/231/298
f 167/209/299 142/202/299 21/231/299
f 134/210/300 167/209/300 168/337/300
f 22/199/301 133/198/301 168/233/301
f 7/236/302 109/145/302 120/167/302
f 154/238/303 11/51/303 65/237/303
f 13/239/304 23/3/304 29/2/304
f 163/242/305 18/258/305 162/257/305
f 144/240/306 3/223/306 27/222/306 145/247/306
f 166/338/307 21/339/307 20/214/307 165/275/307
f 20/214/308 164/243/308 165/275/308
f 23/3/309 13/239/309 150/246/309
f 147/340/310 146/249/310 4/220/310 26/332/310
f 21/339/311 166/338/311 167/341/311
f 147/340/312 26/332/312 149/287/312 148/342/312
f 14/27/313 203/248/313 155/56/313
f 191/256/314 8/116/314 152/132/314 190/343/314
f 22/344/315 168/281/315 169/283/315
f 5/219/316 150/246/316 149/287/316
f 15/109/317 211/250/317 157/131/317
f 6/234/318 184/263/318 151/235/318
f 16/189/319 217/253/319 159/225/319
f 7/236/320 186/254/320 152/132/320
f 153/112/321 194/345/321 10/88/321 9/90/321
f 214/346/322 158/252/322 157/131/322 213/347/322
f 154/238/323 10/88/323 194/345/323
f 2/4/324 3/223/324 1/241/324
f 211/250/325 156/80/325 210/286/325
f 157/131/326 212/261/326 213/347/326
f 216/348/327 217/253/327 158/252/327 215/349/327
f 184/263/328 169/283/328 233/350/328
f 158/252/329 214/346/329 215/349/329
f 219/351/330 160/226/330 159/225/330 218/352/330
f 152/132/331 186/254/331 188/266/331
f 159/225/332 217/253/332 218/352/332
f 190/343/333 152/132/333 189/267/333
f 220/269/334 221/270/334 161/255/334 160/226/334
f 160/226/335 219/351/335 171/268/335
f 193/353/336 153/112/336 191/256/336 192/354/336
f 223/355/337 162/257/337 161/255/337 222/271/337
f 194/345/338 153/112/338 193/353/338
f 196/356/339 154/238/339 194/345/339 195/357/339
f 1/241/340 172/358/340 170/359/340
f 223/355/341 224/273/341 163/242/341 162/257/341
f 1/241/342 173/272/342 172/358/342
f 198/360/343 199/245/343 154/238/343 197/361/343
f 154/238/344 196/356/344 197/361/344
f 164/243/345 224/273/345 225/362/345
f 225/362/346 226/276/346 165/275/346 164/243/346
f 144/240/347 174/274/347 173/272/347
f 228/363/348 166/338/348 165/275/348 227/277/348
f 145/247/349 175/364/349 174/274/349
f 199/245/350 200/365/350 201/262/350
f 145/247/351 176/366/351 175/364/351
f 170/359/352 202/367/352 203/248/352 1/241/352
f 177/368/353 176/366/353 145/247/353 146/249/353
f 230/369/354 167/341/354 166/338/354 229/370/354
f 166/338/355 228/363/355 229/370/355
f 146/249/356 178/371/356 177/368/356
f 179/372/357 178/371/357 146/249/357 147/340/357
f 204/373/358 205/278/358 155/56/358 203/248/358
f 230/369/359 231/374/359 168/281/359 167/341/359
f 179/372/360 147/340/360 148/342/360 180/375/360
f 168/281/361 231/374/361 232/282/361
f 207/280/362 208/284/362 156/80/362 155/56/362
f 181/288/363 180/375/363 148/342/363 149/287/363
f 169/283/364 232/282/364 233/350/364
f 149/287/365 150/246/365 182/260/365
