# Blender 4.2.1 LTS
# www.blender.org
o Cylinder.015
v 0.000000 3.725067 -43.651196
v 21.809666 3.725067 -37.775452
v 37.775448 3.725067 -21.809666
v 43.651196 3.725067 0.000000
v 37.775452 3.725067 21.809666
v 21.809666 3.725067 37.775448
v 0.000000 3.725067 43.651196
v -21.809666 3.725067 37.775452
v -37.775448 3.725067 21.809666
v -43.651196 3.725067 0.000000
v -37.775452 3.725067 -21.809666
v -21.809666 3.725067 -37.775448
v 21.146656 -1.396105 -0.310972
v 0.310972 -1.396104 -21.146654
v -0.310972 -1.396104 21.146656
v -21.146660 -1.396105 0.310973
v 11.287149 3.725067 -42.124222
v 30.837067 3.725067 -30.837067
v 42.124218 3.725067 -11.287149
v 42.124222 3.725067 11.287149
v 30.837067 3.725067 30.837067
v 11.287149 3.725067 42.124218
v -11.287149 3.725067 42.124218
v -30.837067 3.725067 30.837067
v -42.124222 3.725067 11.287149
v -42.124218 3.725067 -11.287149
v -30.837067 3.725067 -30.837067
v -11.287149 3.725067 -42.124222
v 29.942911 0.780393 -11.176932
v 29.849623 0.780393 10.726025
v 10.783084 -2.164279 10.783086
v 10.726024 0.780393 29.849619
v -11.176933 0.780393 29.942911
v 11.176934 0.780393 -29.942907
v 11.140702 -2.164280 -11.140703
v -10.783087 -2.164280 -10.783085
v -11.140704 -2.164280 11.140704
v -29.942911 0.780393 11.176933
v -10.726024 0.780393 -29.849619
v -29.849615 0.780393 -10.726023
v 36.659050 2.031879 -0.156458
v 20.999098 0.338692 20.999098
v -0.156458 2.031879 36.659050
v 21.312012 0.338692 -21.312014
v -0.000000 -3.047682 0.000001
v -21.312016 0.338692 21.312016
v 0.156458 2.031880 -36.659046
v -20.999098 0.338692 -20.999096
v -36.659050 2.031879 0.156458
vn -0.0000 0.9719 0.2354
vn -0.1104 0.9715 0.2096
vn -0.2096 0.9715 0.1104
vn -0.2354 0.9719 -0.0000
vn -0.2044 0.9729 -0.1083
vn -0.1083 0.9729 -0.2044
vn -0.0000 0.9719 -0.2354
vn 0.1104 0.9715 -0.2096
vn 0.2096 0.9715 -0.1104
vn 0.2354 0.9719 -0.0000
vn 0.2044 0.9729 0.1083
vn 0.1083 0.9729 0.2044
vn -0.1515 0.9885 -0.0007
vn 0.0007 0.9885 0.1515
vn -0.0007 0.9885 -0.1515
vn 0.1515 0.9885 0.0007
vn -0.0505 0.9708 0.2343
vn -0.1662 0.9720 0.1662
vn -0.2343 0.9708 0.0505
vn -0.2312 0.9716 -0.0502
vn -0.1616 0.9735 -0.1616
vn -0.0502 0.9716 -0.2312
vn 0.0505 0.9708 -0.2343
vn 0.1662 0.9720 -0.1662
vn 0.2343 0.9708 -0.0505
vn 0.2312 0.9716 0.0502
vn 0.1616 0.9735 0.1616
vn 0.0502 0.9716 0.2312
vn -0.2001 0.9772 0.0713
vn -0.1972 0.9778 -0.0709
vn -0.0791 0.9937 -0.0791
vn -0.0709 0.9778 -0.1972
vn 0.0713 0.9772 -0.2001
vn -0.0713 0.9772 0.2001
vn -0.0788 0.9938 0.0788
vn 0.0791 0.9937 0.0791
vn 0.0788 0.9938 -0.0788
vn 0.2001 0.9772 -0.0713
vn 0.0709 0.9778 0.1972
vn 0.1972 0.9778 0.0709
vn -0.2281 0.9736 -0.0002
vn -0.1403 0.9801 -0.1403
vn -0.0002 0.9736 -0.2281
vn -0.1430 0.9793 0.1430
vn -0.0000 1.0000 -0.0000
vn 0.1430 0.9793 -0.1430
vn 0.0002 0.9736 0.2281
vn 0.1403 0.9801 0.1403
vn 0.2281 0.9736 0.0002
vt 1.029644 0.429348
vt 0.870553 0.385870
vt 0.854743 0.229249
vt 0.993083 0.294960
vt 0.703557 0.347826
vt 0.707510 0.175889
vt 0.703557 0.005929
vt 0.824111 0.075593
vt 0.923419 0.173913
vt 0.523715 0.318676
vt 0.546443 0.143281
vt 0.341897 0.300889
vt 0.382411 0.133893
vt 0.429348 -0.029644
vt 0.568676 -0.029644
vt 0.170949 0.294960
vt 0.225791 0.147233
vt 0.005929 0.296443
vt 0.075593 0.175889
vt 0.173913 0.076581
vt 0.294960 0.006917
vt 0.994071 0.703557
vt 0.829051 0.705040
vt 0.861660 0.546937
vt 1.029644 0.568676
vt 0.658103 0.699111
vt 0.687253 0.524209
vt 0.476285 0.681324
vt 0.500000 0.500000
vt 0.296443 0.652174
vt 0.312747 0.475791
vt 0.129447 0.614130
vt 0.138340 0.453063
vt -0.029644 0.570652
vt -0.029644 0.431324
vt 0.826087 0.923419
vt 0.705040 0.993083
vt 0.774209 0.852767
vt 0.924407 0.824111
vt 0.570652 1.029644
vt 0.617589 0.866107
vt 0.431324 1.029644
vt 0.453557 0.856719
vt 0.296443 0.994071
vt 0.292490 0.824111
vt 0.175889 0.924407
vt 0.145257 0.770751
vt 0.076581 0.826087
vt 0.006917 0.705040
s 1
f 3/1/3 29/2/29 41/3/41 19/4/19
f 29/2/29 13/5/13 30/6/30 41/3/41
f 41/3/41 30/6/30 5/7/5 20/8/20
f 19/4/19 41/3/41 20/8/20 4/9/4
f 13/5/13 31/10/31 42/11/42 30/6/30
f 31/10/31 15/12/15 32/13/32 42/11/42
f 42/11/42 32/13/32 6/14/6 21/15/21
f 30/6/30 42/11/42 21/15/21 5/7/5
f 15/12/15 33/16/33 43/17/43 32/13/32
f 33/16/33 8/18/8 23/19/23 43/17/43
f 43/17/43 23/19/23 7/20/7 22/21/22
f 32/13/32 43/17/43 22/21/22 6/14/6
f 2/22/2 34/23/34 44/24/44 18/25/18
f 34/23/34 14/26/14 35/27/35 44/24/44
f 44/24/44 35/27/35 13/5/13 29/2/29
f 18/25/18 44/24/44 29/2/29 3/1/3
f 14/26/14 36/28/36 45/29/45 35/27/35
f 36/28/36 16/30/16 37/31/37 45/29/45
f 45/29/45 37/31/37 15/12/15 31/10/31
f 35/27/35 45/29/45 31/10/31 13/5/13
f 16/30/16 38/32/38 46/33/46 37/31/37
f 38/32/38 9/34/9 24/35/24 46/33/46
f 46/33/46 24/35/24 8/18/8 33/16/33
f 37/31/37 46/33/46 33/16/33 15/12/15
f 1/36/1 28/37/28 47/38/47 17/39/17
f 28/37/28 12/40/12 39/41/39 47/38/47
f 47/38/47 39/41/39 14/26/14 34/23/34
f 17/39/17 47/38/47 34/23/34 2/22/2
f 12/40/12 27/42/27 48/43/48 39/41/39
f 27/42/27 11/44/11 40/45/40 48/43/48
f 48/43/48 40/45/40 16/30/16 36/28/36
f 39/41/39 48/43/48 36/28/36 14/26/14
f 11/44/11 26/46/26 49/47/49 40/45/40
f 26/46/26 10/48/10 25/49/25 49/47/49
f 49/47/49 25/49/25 9/34/9 38/32/38
f 40/45/40 49/47/49 38/32/38 16/30/16
