# Blender 4.2.1 LTS
# www.blender.org
o Cube.012
v -0.654697 3.695261 0.244777
v -0.630185 0.104150 -0.199042
v -0.659947 1.373296 0.410904
v -0.700191 3.406975 0.252691
v -0.719533 3.885769 0.087429
v -0.735367 3.904373 0.035585
v -0.688532 3.715096 -0.172712
v -0.637472 3.301488 -0.337252
v -0.586285 1.591284 -0.474233
v -0.565299 0.586636 -0.425113
v 0.412697 -0.022302 -0.437483
v 0.334325 0.094801 -0.496535
v 0.208527 -0.004589 -0.521787
v 0.036891 -0.045499 -0.543962
v -0.295546 -0.131130 -0.467136
v -0.410169 0.002575 -0.457942
v -0.497624 3.678718 -0.341725
v -0.264336 3.761256 -0.353112
v -0.083275 3.944717 -0.361503
v 0.428470 3.613287 -0.349181
v 0.547436 3.466162 -0.334806
v 0.644946 2.967184 -0.337597
v 0.583939 1.580179 -0.472013
v 0.571620 0.209711 0.333877
v 0.566111 -0.365119 0.027216
v 0.579027 -0.112249 -0.178820
v 0.632460 0.134311 -0.225156
v 0.503094 0.027425 -0.378477
v 0.691017 3.810229 0.112749
v 0.664300 3.716099 0.217186
v 0.599160 3.357646 0.319316
v 0.581900 2.986648 0.376257
v 0.629142 2.479404 0.395043
v 0.643509 0.767419 0.382382
v 0.527160 0.319251 0.429985
v -0.434530 -0.045805 0.421653
v -0.166587 -0.204233 0.509310
v 0.192559 -0.034878 0.509190
v 0.467241 0.290442 0.443349
v 0.495052 3.568212 0.337591
v 0.333893 3.901097 0.318505
v 0.178336 3.865893 0.373359
v -0.062292 3.812380 0.398998
v -0.309885 3.709548 0.350258
v -0.500743 3.723198 0.317053
v -0.554803 3.652031 0.302335
v -0.550857 0.387473 0.420317
v -0.707759 2.624837 0.313906
v -0.686370 3.247240 0.305359
v -0.738812 1.095546 0.292084
v -0.572926 0.223472 0.332527
v -0.773752 2.843662 0.190632
v -0.790656 3.279135 0.199076
v -0.772777 3.688038 0.117295
v -0.780141 1.882218 0.252419
v -0.681750 0.287086 0.224581
v -0.816017 3.234863 0.097757
v -0.676779 0.228064 0.119648
v -0.806019 1.185728 0.150679
v -0.783383 0.711703 0.069932
v -0.840478 1.604090 0.055764
v -0.819448 2.720408 -0.052665
v -0.823485 3.460639 0.015522
v -0.837873 1.711695 -0.092984
v -0.709494 0.264209 -0.068015
v -0.786231 0.783469 -0.105292
v -0.779465 3.155346 -0.202631
v -0.769620 3.629540 -0.154744
v -0.754648 2.796292 -0.248634
v -0.658960 0.290508 -0.250848
v -0.728466 0.952105 -0.295217
v -0.731569 1.619055 -0.333006
v -0.709995 3.514518 -0.241683
v -0.565574 2.997143 -0.393997
v -0.551234 3.383522 -0.373592
v -0.370039 0.710190 -0.553239
v -0.508863 1.928001 -0.502009
v -0.356368 2.050579 -0.553314
v -0.411575 2.891736 -0.478953
v -0.374088 3.554877 -0.394068
v -0.193497 0.027674 -0.541627
v -0.275893 1.014029 -0.600135
v -0.149258 2.015255 -0.597119
v -0.198150 3.736365 -0.402062
v -0.279817 3.149735 -0.472130
v -0.046224 1.142361 -0.628852
v -0.176680 2.687017 -0.541086
v 0.075933 0.186925 -0.580253
v 0.187609 1.343611 -0.618479
v 0.110220 2.296430 -0.579288
v 0.130363 3.448781 -0.481538
v 0.024915 3.426773 -0.447538
v 0.023239 2.886642 -0.532004
v 0.216959 0.467613 -0.584203
v 0.246565 3.360541 -0.432225
v 0.465448 2.969537 -0.438330
v 0.433666 1.363037 -0.548911
v 0.458120 3.173855 -0.395065
v 0.401723 1.991082 -0.545712
v 0.526267 0.677942 -0.469818
v 0.678654 0.797788 -0.346329
v 0.707737 1.738193 -0.365853
v 0.595159 0.156780 -0.325377
v 0.736028 3.067560 -0.244257
v 0.656737 3.418997 -0.259709
v 0.751410 3.459615 -0.157850
v 0.727055 0.672042 -0.224899
v 0.793988 1.684414 -0.228662
v 0.773677 3.185966 -0.140620
v 0.823412 1.127625 -0.026881
v 0.834243 1.911696 -0.099148
v 0.792492 3.530535 -0.046179
v 0.779876 0.636325 -0.013870
v 0.795624 2.984441 -0.090965
v 0.632519 -0.058557 -0.058283
v 0.835466 2.157881 0.060097
v 0.665236 0.230130 0.163056
v 0.692524 0.268647 0.189656
v 0.794797 1.786109 0.233336
v 0.776181 3.331293 0.099601
v 0.818910 1.340693 0.128161
v 0.740942 0.705997 0.218694
v 0.715492 2.895129 0.264907
v 0.667464 1.678112 0.402340
v 0.533234 1.492249 0.502902
v 0.442015 2.148557 0.517873
v 0.368415 3.167937 0.442609
v 0.539291 3.168583 0.379385
v 0.369894 0.715569 0.556127
v 0.277547 2.080549 0.574004
v 0.187608 0.185480 0.545955
v 0.189692 1.163382 0.620745
v 0.094490 2.263116 0.588633
v -0.029579 0.179361 0.586145
v 0.052397 0.492528 0.615157
v -0.141514 0.135248 0.550371
v -0.024947 3.317107 0.473773
v -0.250168 3.177304 0.478331
v -0.248256 0.301791 0.569828
v -0.207014 1.701491 0.608602
v -0.315647 3.671580 0.389339
v -0.418996 0.297289 0.473361
v -0.437115 1.113343 0.548331
v -0.408984 2.829520 0.482338
v -0.565270 2.842817 0.407043
v -0.444952 3.516079 0.370938
v -0.549268 1.821517 0.488777
v -0.459736 -0.050420 -0.377548
v -0.059851 -0.527615 -0.433631
v 0.077689 -0.343714 -0.468657
v 0.262567 -0.340534 -0.435355
v -0.335212 -0.338330 -0.391331
v -0.223172 -0.463862 -0.407548
v -0.161344 -0.517530 -0.382162
v 0.132961 -0.359448 -0.405874
v 0.408007 -0.254081 -0.378695
v -0.441234 -0.336788 -0.321986
v -0.270619 -0.652367 -0.282551
v 0.012559 -0.699979 -0.354993
v 0.316473 -0.573575 -0.294747
v 0.396621 -0.484187 -0.261403
v 0.471095 -0.320107 -0.302230
v -0.156719 -0.773295 -0.285352
v -0.084204 -0.810394 -0.278713
v -0.000000 -0.730042 -0.292938
v 0.081437 -0.783366 -0.291423
v 0.161915 -0.728503 -0.287279
v 0.228949 -0.535194 -0.314516
v -0.463823 -0.534061 -0.163842
v -0.322659 -0.647729 -0.208876
v -0.257077 -0.813710 -0.187066
v 0.013674 -0.901195 -0.181973
v 0.082933 -0.768583 -0.222326
v 0.164959 -0.815650 -0.219180
v 0.267057 -0.798648 -0.188509
v 0.430987 -0.480418 -0.197357
v -0.403440 -0.671882 -0.136982
v -0.335877 -0.690330 -0.093350
v -0.171088 -0.952445 -0.053555
v -0.084234 -0.934330 -0.150007
v 0.100991 -0.825330 -0.135816
v 0.177310 -0.799656 -0.089561
v 0.500035 -0.538839 -0.082299
v -0.416067 -0.692727 -0.007242
v -0.251922 -0.864244 -0.072922
v -0.098952 -0.957596 -0.047257
v 0.257637 -0.727087 0.006654
v 0.377158 -0.633078 -0.103416
v -0.504116 -0.535988 -0.011388
v -0.301357 -0.700149 0.082026
v 0.000000 -0.882179 -0.000000
v 0.161851 -0.813479 -0.005691
v 0.388739 -0.690451 0.003434
v 0.481612 -0.577933 0.017892
v -0.513463 -0.396012 0.107631
v -0.076975 -0.745346 0.199471
v 0.038435 -0.813997 0.092676
v 0.169477 -0.818517 0.144470
v 0.282402 -0.712844 0.148587
v 0.432254 -0.606459 0.149089
v -0.357694 -0.612577 0.141116
v 0.093715 -0.838008 0.182019
v -0.419227 -0.571280 0.206458
v -0.282342 -0.655285 0.189414
v -0.164959 -0.669943 0.219180
v 0.044995 -0.743285 0.280422
v 0.161124 -0.768237 0.243046
v 0.328579 -0.526709 0.328873
v -0.545501 -0.304997 0.203916
v -0.303708 -0.655955 0.271141
v -0.170336 -0.649824 0.327258
v -0.029481 -0.574375 0.353962
v 0.514954 -0.306886 0.231087
v -0.244756 -0.607498 0.335681
v 0.220802 -0.576421 0.315889
v -0.111920 -0.475740 0.440794
v 0.027084 -0.420689 0.429094
v 0.397118 -0.219896 0.381898
v 0.563325 3.859272 -0.253859
v 0.400674 3.914751 -0.297111
v 0.034066 3.698061 -0.402534
v -0.091378 4.095669 -0.309923
v 0.386728 3.939660 -0.255448
v 0.245441 4.238828 -0.249811
v 0.109146 4.073266 -0.306000
v -0.521293 4.048471 -0.241415
v 0.544112 3.965611 -0.197886
v 0.344007 4.233087 -0.213628
v 0.142726 4.476030 -0.171472
v -0.358438 4.307499 -0.182249
v -0.357503 4.073577 -0.249777
v -0.648674 3.682965 -0.262021
v 0.626527 3.911711 -0.140154
v 0.354889 4.238723 -0.172755
v -0.511140 4.134992 -0.141307
v -0.624367 3.973965 -0.167140
v -0.111941 4.276485 -0.201431
v 0.587569 4.173381 -0.094253
v -0.662861 3.942751 -0.066415
v 0.012738 4.687012 -0.053398
v -0.269311 4.566008 -0.047748
v -0.422519 4.481482 -0.048721
v 0.598496 4.257378 0.000639
v 0.142676 4.681397 -0.005409
v -0.091540 4.698719 0.005041
v -0.345204 4.535985 0.003079
v 0.721253 3.916356 0.024045
v 0.600451 4.223097 0.054501
v 0.335321 4.512259 0.057336
v 0.132338 4.631805 0.042257
v -0.278852 4.570582 0.063292
v 0.511727 4.194548 0.107532
v 0.390880 4.316601 0.126413
v 0.218998 4.415450 0.134472
v -0.157766 4.621086 0.085054
v -0.481366 4.213161 0.087707
v -0.632614 3.971194 0.095672
v 0.585992 4.125352 0.150444
v 0.041924 4.415009 0.153162
v -0.170420 4.499748 0.157423
v -0.362266 4.300717 0.136024
v -0.470420 4.224121 0.182763
v 0.571326 3.951931 0.195858
v 0.485584 4.011153 0.228968
v 0.253133 4.427455 0.219015
v 0.001392 4.235997 0.249192
v 0.218265 4.379364 0.257407
v -0.255181 4.191201 0.229764
v -0.384378 4.205915 0.237914
v -0.613593 3.726600 0.236298
v 0.594245 3.802184 0.241237
v 0.109279 3.936509 0.335046
vn -0.5037 0.3274 0.7994
vn -0.8848 -0.2516 -0.3923
vn -0.6899 -0.0199 0.7237
vn -0.6712 0.1674 0.7221
vn -0.6995 0.4370 0.5654
vn -0.9006 0.4337 0.0270
vn -0.7722 0.3321 -0.5417
vn -0.5998 0.0889 -0.7952
vn -0.5466 0.0012 -0.8374
vn -0.6498 -0.0998 -0.7535
vn 0.5080 -0.1568 -0.8469
vn 0.4077 -0.1429 -0.9019
vn 0.2578 -0.1822 -0.9489
vn 0.0252 -0.2072 -0.9780
vn -0.3544 -0.2545 -0.8998
vn -0.5574 -0.2477 -0.7924
vn -0.3066 0.2099 -0.9284
vn -0.2995 0.3213 -0.8983
vn -0.0668 0.2586 -0.9637
vn 0.2544 0.1705 -0.9520
vn 0.4407 0.1277 -0.8885
vn 0.5795 0.0898 -0.8100
vn 0.5587 0.0021 -0.8294
vn 0.7429 -0.2460 0.6226
vn 0.9548 -0.2842 0.0877
vn 0.9129 -0.2496 -0.3229
vn 0.9271 -0.2356 -0.2915
vn 0.6857 -0.1813 -0.7050
vn 0.8396 0.2099 0.5009
vn 0.7376 0.1944 0.6466
vn 0.5752 0.1130 0.8102
vn 0.5515 0.0862 0.8297
vn 0.6203 0.0595 0.7821
vn 0.7225 -0.0773 0.6870
vn 0.5816 -0.2556 0.7723
vn -0.5723 -0.2245 0.7887
vn -0.2104 -0.2365 0.9486
vn 0.2435 -0.1925 0.9506
vn 0.4964 -0.5114 0.7015
vn 0.3625 0.1715 0.9161
vn 0.2798 0.2230 0.9338
vn 0.1467 0.3550 0.9233
vn -0.0778 0.2565 0.9634
vn -0.3326 0.4220 0.8433
vn -0.3712 0.2198 0.9022
vn -0.4572 0.1721 0.8726
vn -0.6243 -0.1669 0.7632
vn -0.7379 0.0698 0.6713
vn -0.5777 0.0927 0.8110
vn -0.8481 -0.0745 0.5245
vn -0.7498 -0.2297 0.6205
vn -0.8941 0.0097 0.4477
vn -0.8910 0.2809 0.3567
vn -0.8937 0.1972 0.4030
vn -0.8851 0.0171 0.4651
vn -0.8678 -0.3385 0.3637
vn -0.9795 0.0354 0.1982
vn -0.9454 -0.2521 0.2068
vn -0.9642 -0.0572 0.2590
vn -0.9818 -0.1166 0.1496
vn -0.9922 -0.0197 0.1234
vn -0.9973 0.0113 -0.0719
vn -0.9971 0.0762 0.0045
vn -0.9775 -0.0040 -0.2108
vn -0.9739 -0.2092 -0.0884
vn -0.9748 -0.1017 -0.1987
vn -0.8897 0.0440 -0.4545
vn -0.8262 0.2615 -0.4990
vn -0.8240 0.0206 -0.5662
vn -0.8584 -0.1843 -0.4787
vn -0.8393 -0.0647 -0.5398
vn -0.8178 -0.0054 -0.5754
vn -0.4614 0.0370 -0.8864
vn -0.4935 0.0677 -0.8671
vn -0.3892 0.1358 -0.9111
vn -0.3858 -0.0680 -0.9201
vn -0.4300 0.0325 -0.9023
vn -0.2761 0.0484 -0.9599
vn -0.3134 0.1134 -0.9428
vn -0.2196 0.1810 -0.9587
vn -0.1953 -0.1941 -0.9613
vn -0.2449 -0.0263 -0.9692
vn -0.0947 0.0498 -0.9943
vn -0.2229 0.2744 -0.9354
vn -0.1867 0.1265 -0.9742
vn -0.0303 -0.0136 -0.9995
vn -0.1125 0.0876 -0.9898
vn 0.0644 -0.1112 -0.9917
vn 0.1478 0.0076 -0.9890
vn 0.0956 0.0796 -0.9922
vn 0.1948 0.9263 -0.3226
vn -0.1066 0.3527 -0.9296
vn 0.0449 0.0976 -0.9942
vn 0.2276 -0.0667 -0.9715
vn 0.4826 0.4961 -0.7218
vn 0.3692 0.1173 -0.9219
vn 0.3801 -0.0140 -0.9248
vn 0.3843 0.1527 -0.9105
vn 0.3352 0.0598 -0.9403
vn 0.5701 -0.0931 -0.8163
vn 0.7851 -0.1255 -0.6065
vn 0.7468 0.0159 -0.6649
vn 0.7936 -0.2275 -0.5643
vn 0.8110 0.0711 -0.5807
vn 0.6467 0.1262 -0.7523
vn 0.8283 0.1346 -0.5438
vn 0.8987 -0.1314 -0.4185
vn 0.9159 -0.0194 -0.4010
vn 0.9373 0.0361 -0.3468
vn 0.9944 -0.0730 -0.0770
vn 0.9848 0.0095 -0.1735
vn 0.9822 0.1496 -0.1134
vn 0.9906 -0.1313 -0.0394
vn 0.9849 0.0364 -0.1691
vn 0.9701 -0.2061 -0.1283
vn 0.9891 0.0380 0.1423
vn 0.5702 -0.5606 0.6005
vn 0.8735 -0.3398 0.3486
vn 0.8998 0.0083 0.4363
vn 0.9436 0.0594 0.3258
vn 0.9699 -0.0412 0.2399
vn 0.9182 -0.1043 0.3822
vn 0.8070 0.0625 0.5872
vn 0.7009 0.0052 0.7133
vn 0.4766 -0.0034 0.8791
vn 0.3850 0.0584 0.9211
vn 0.2411 0.1231 0.9627
vn 0.4267 0.1121 0.8974
vn 0.3808 -0.0662 0.9223
vn 0.2222 0.0505 0.9737
vn 0.2530 -0.1656 0.9532
vn 0.1508 -0.0008 0.9886
vn 0.0462 0.0843 0.9954
vn 0.0439 -0.4573 0.8882
vn 0.0611 -0.0665 0.9959
vn -0.1821 -0.2153 0.9594
vn 0.0283 0.1310 0.9910
vn -0.1837 0.1193 0.9757
vn -0.3271 -0.1831 0.9271
vn -0.1587 0.0322 0.9868
vn -0.4517 0.4307 0.7813
vn -0.4909 -0.1594 0.8565
vn -0.3953 -0.0330 0.9180
vn -0.3105 0.1124 0.9439
vn -0.5397 0.0885 0.8372
vn -0.3559 0.1524 0.9220
vn -0.4962 0.0357 0.8675
vn -0.7102 -0.2438 -0.6605
vn -0.0633 -0.3923 -0.9177
vn 0.2450 -0.4197 -0.8740
vn 0.2704 -0.4026 -0.8745
vn -0.5016 -0.2970 -0.8125
vn -0.3370 -0.3666 -0.8672
vn -0.2974 -0.5625 -0.7714
vn 0.2108 -0.6783 -0.7039
vn 0.5533 -0.2819 -0.7839
vn -0.6766 -0.3273 -0.6596
vn -0.5569 -0.4206 -0.7162
vn 0.0960 -0.4960 -0.8630
vn 0.4371 -0.4546 -0.7760
vn 0.7097 -0.4500 -0.5420
vn 0.7630 -0.3641 -0.5341
vn -0.3314 -0.5340 -0.7778
vn -0.0347 -0.6386 -0.7688
vn 0.1860 -0.8420 -0.5064
vn 0.0738 -0.9315 -0.3563
vn 0.3076 -0.4374 -0.8450
vn 0.1614 -0.4078 -0.8987
vn -0.8077 -0.3776 -0.4528
vn -0.6747 -0.5637 -0.4764
vn -0.6509 -0.5940 -0.4728
vn 0.4532 -0.7877 -0.4173
vn 0.1145 -0.8509 -0.5127
vn 0.0124 -0.8820 -0.4711
vn 0.5579 -0.7878 -0.2611
vn 0.7729 -0.4257 -0.4706
vn -0.5212 -0.7394 -0.4262
vn -0.5597 -0.8145 -0.1525
vn -0.4293 -0.8967 0.1075
vn -0.1195 -0.8690 -0.4801
vn 0.4026 -0.9009 -0.1619
vn 0.3862 -0.9176 0.0937
vn 0.7975 -0.5046 -0.3306
vn -0.5683 -0.8115 0.1363
vn -0.8010 -0.5974 0.0389
vn 0.1507 -0.9568 0.2487
vn 0.5447 -0.8381 0.0308
vn 0.7252 -0.6336 -0.2694
vn -0.9173 -0.3889 0.0850
vn -0.5236 -0.7015 0.4835
vn 0.3921 -0.8456 0.3624
vn 0.4733 -0.8809 0.0093
vn 0.5402 -0.8279 -0.1507
vn 0.8393 -0.5427 0.0318
vn -0.9210 -0.3593 0.1505
vn -0.2706 -0.7672 0.5815
vn -0.0163 -0.9405 0.3395
vn 0.4411 -0.8900 0.1155
vn 0.5706 -0.7458 0.3439
vn 0.7156 -0.5714 0.4018
vn -0.6293 -0.7288 0.2698
vn -0.1333 -0.9553 0.2639
vn -0.7756 -0.5736 0.2636
vn -0.3699 -0.9262 -0.0727
vn -0.3619 -0.8244 0.4351
vn -0.1542 -0.6369 0.7554
vn 0.4032 -0.6118 0.6805
vn 0.4352 -0.4682 0.7690
vn -0.8582 -0.3230 0.3989
vn -0.4737 -0.7878 0.3936
vn -0.0747 -0.7615 0.6439
vn 0.0378 -0.5323 0.8457
vn 0.8228 -0.2665 0.5020
vn -0.4135 -0.4214 0.8071
vn 0.2496 -0.5236 0.8146
vn -0.0399 -0.3913 0.9194
vn 0.1739 -0.3332 0.9267
vn 0.5519 -0.2175 0.8050
vn 0.5616 0.3058 -0.7688
vn 0.3233 0.4297 -0.8431
vn 0.0968 0.1842 -0.9781
vn -0.0430 0.4004 -0.9153
vn 0.5856 0.6021 -0.5427
vn 0.2112 0.3180 -0.9243
vn 0.0659 0.2935 -0.9537
vn -0.4199 0.5063 -0.7532
vn 0.5167 0.3589 -0.7773
vn 0.4916 0.4962 -0.7156
vn 0.2041 0.4809 -0.8527
vn -0.2874 0.4470 -0.8471
vn -0.2489 0.3271 -0.9116
vn -0.6748 0.2114 -0.7071
vn 0.7830 0.2655 -0.5626
vn 0.5137 0.7294 -0.4517
vn -0.6207 0.4559 -0.6379
vn -0.8175 0.4122 -0.4023
vn -0.0806 0.4454 -0.8917
vn 0.6627 0.4257 -0.6161
vn -0.8505 0.3592 -0.3843
vn -0.0001 0.7996 -0.6005
vn -0.3746 0.6518 -0.6594
vn -0.7122 0.6650 -0.2248
vn 0.7850 0.5965 -0.1675
vn 0.4073 0.9133 0.0034
vn -0.2121 0.9757 0.0555
vn -0.6292 0.7657 0.1338
vn 0.9669 0.2530 0.0326
vn 0.7289 0.4703 0.4975
vn 0.5573 0.6813 0.4745
vn 0.1748 0.5688 0.8037
vn -0.5581 0.6481 0.5181
vn 0.4095 0.4597 0.7881
vn 0.5875 0.5864 0.5577
vn 0.2390 0.8430 0.4818
vn -0.1721 0.6654 0.7264
vn -0.7337 0.5673 0.3741
vn -0.6807 0.4021 0.6123
vn 0.5057 0.4351 0.7449
vn 0.0143 0.5290 0.8485
vn -0.1364 0.4361 0.8895
vn -0.4660 0.5482 0.6945
vn -0.6342 0.6149 0.4687
vn 0.5981 0.2393 0.7649
vn 0.4210 0.2758 0.8641
vn 0.3220 0.8577 0.4009
vn -0.0674 0.3400 0.9380
vn 0.0449 0.4501 0.8919
vn -0.1529 0.3474 0.9252
vn -0.1581 0.4834 0.8610
vn -0.4223 0.4288 0.7986
vn 0.5026 0.2551 0.8260
vn 0.0601 0.3437 0.9372
vt 0.165514 0.865613
vt 0.171443 0.868083
vt 0.165514 0.863636
vt 0.186265 0.878953
vt 0.183794 0.875988
vt 0.182806 0.877964
vt 0.164526 0.863636
vt 0.166008 0.862648
vt 0.176877 0.871542
vt 0.171937 0.868083
vt 0.190217 0.879941
vt 0.187253 0.877470
vt 0.188241 0.879447
vt 0.169466 0.864625
vt 0.175889 0.869565
vt 0.189229 0.877964
vt 0.166996 0.861166
vt 0.170455 0.863142
vt 0.184289 0.874012
vt 0.177372 0.868083
vt 0.191206 0.877470
vt 0.187747 0.874506
vt 0.167490 0.860672
vt 0.172925 0.863636
vt 0.185771 0.873518
vt 0.177866 0.866601
vt 0.190711 0.876482
vt 0.180830 0.879941
vt 0.183300 0.879941
vt 0.172925 0.872530
vt 0.184783 0.881423
vt 0.181818 0.878953
vt 0.179842 0.878458
vt 0.174901 0.873518
vt 0.189723 0.880929
vt 0.192194 0.880929
vt 0.192194 0.880435
vt 0.186759 0.884387
vt 0.187253 0.883893
vt 0.185771 0.882905
vt 0.187747 0.883399
vt 0.182806 0.881423
vt 0.172925 0.873518
vt 0.167984 0.870553
vt 0.166502 0.859684
vt 0.160573 0.857213
vt 0.177866 0.873518
vt 0.170455 0.867589
vt 0.183300 0.877964
vt 0.175889 0.874012
vt 0.167984 0.866601
vt 0.164032 0.862154
vt 0.178360 0.872036
vt 0.172925 0.867095
vt 0.166502 0.861166
vt 0.185771 0.877964
vt 0.185277 0.875000
vt 0.182806 0.875494
vt 0.175395 0.866107
vt 0.181324 0.871047
vt 0.190217 0.880929
vt 0.189229 0.877470
vt 0.168972 0.861166
vt 0.191206 0.878953
vt 0.189723 0.875988
vt 0.190217 0.876976
vt 0.188735 0.872036
vt 0.166996 0.858696
vt 0.165514 0.859190
vt 0.180830 0.867589
vt 0.176383 0.864130
vt 0.189723 0.873024
vt 0.192194 0.875494
vt 0.172431 0.860178
vt 0.167490 0.857213
vt 0.178854 0.864130
vt 0.189229 0.871047
vt 0.188241 0.882905
vt 0.187747 0.880929
vt 0.186265 0.881423
vt 0.192688 0.880929
vt 0.194170 0.877470
vt 0.192194 0.874012
vt 0.164526 0.860178
vt 0.190217 0.871047
vt 0.179842 0.864130
vt 0.171937 0.860672
vt 0.171937 0.862154
vt 0.170455 0.862648
vt 0.167490 0.859190
vt 0.166996 0.859684
vt 0.178854 0.866601
vt 0.177372 0.867095
vt 0.187253 0.874506
vt 0.188241 0.875494
vt 0.186265 0.875000
vt 0.190217 0.876482
vt 0.169466 0.863636
vt 0.172925 0.866107
vt 0.179348 0.869071
vt 0.189723 0.877964
vt 0.179842 0.872036
vt 0.167490 0.855731
vt 0.169960 0.857213
vt 0.173419 0.868083
vt 0.188241 0.877964
vt 0.168478 0.866107
vt 0.166996 0.854743
vt 0.166502 0.854743
vt 0.165514 0.854743
vt 0.175889 0.871047
vt 0.164526 0.865119
vt 0.165514 0.863142
vt 0.174407 0.871542
vt 0.183794 0.876976
vt 0.188735 0.870059
vt 0.194170 0.874506
vt 0.189229 0.871542
vt 0.173419 0.859684
vt 0.192194 0.874506
vt 0.191700 0.873024
vt 0.190217 0.872530
vt 0.161561 0.860672
vt 0.162055 0.858696
vt 0.165020 0.858696
vt 0.166996 0.858202
vt 0.181818 0.868083
vt 0.185771 0.868577
vt 0.189229 0.874012
vt 0.169466 0.858202
vt 0.171937 0.861660
vt 0.167490 0.860178
vt 0.174407 0.865119
vt 0.177866 0.864130
vt 0.180830 0.869071
vt 0.168478 0.862648
vt 0.166008 0.861660
vt 0.161561 0.856225
vt 0.160079 0.857708
vt 0.160079 0.858696
vt 0.175395 0.871047
vt 0.187747 0.876976
vt 0.185771 0.878458
vt 0.191206 0.879941
vt 0.188735 0.880929
vt 0.187253 0.880929
vt 0.165020 0.862648
vt 0.170455 0.869071
vt 0.165020 0.866107
vt 0.185277 0.882411
vt 0.184289 0.881917
vt 0.194170 0.877964
vt 0.193182 0.878458
vt 0.161561 0.859190
vt 0.160573 0.861166
vt 0.160079 0.860672
vt 0.189229 0.881423
vt 0.187253 0.880435
vt 0.188735 0.881423
vt 0.187747 0.882411
vt 0.170949 0.872530
vt 0.163538 0.865613
vt 0.162055 0.863142
vt 0.162055 0.860672
vt 0.165514 0.858696
vt 0.168972 0.858202
vt 0.162055 0.861166
vt 0.160079 0.861660
vt 0.162055 0.863636
vt 0.167490 0.863142
vt 0.166008 0.863636
vt 0.166008 0.864130
vt 0.168972 0.860672
vt 0.168478 0.861660
vt 0.168478 0.862154
vt 0.166502 0.857708
vt 0.165020 0.856719
vt 0.163538 0.856719
vt 0.160079 0.860178
vt 0.160079 0.859190
vt 0.158597 0.858696
vt 0.160573 0.858696
vt 0.160079 0.856719
vt 0.163043 0.857708
vt 0.163538 0.855731
vt 0.162055 0.855237
vt 0.165020 0.855731
vt 0.158103 0.861166
vt 0.158597 0.858202
vt 0.167490 0.862154
vt 0.166996 0.861660
vt 0.161067 0.855731
vt 0.160079 0.856225
vt 0.157609 0.858202
vt 0.159585 0.857213
vt 0.158597 0.855731
vt 0.160573 0.854743
vt 0.160079 0.855237
vt 0.162055 0.855731
vt 0.162549 0.856719
vt 0.158103 0.859190
vt 0.157609 0.860178
vt 0.166502 0.862648
vt 0.165514 0.861660
vt 0.166502 0.860672
vt 0.167490 0.859684
vt 0.161067 0.856225
vt 0.160573 0.856225
vt 0.163538 0.864130
vt 0.164032 0.863142
vt 0.162549 0.863636
vt 0.164032 0.862648
vt 0.165020 0.863636
vt 0.164526 0.861166
vt 0.163538 0.855237
vt 0.163043 0.854249
vt 0.162055 0.854743
vt 0.159091 0.855731
vt 0.158103 0.855237
vt 0.159585 0.857708
vt 0.164526 0.860672
vt 0.160573 0.857708
vt 0.161067 0.857213
vt 0.161067 0.859684
vt 0.162549 0.859684
vt 0.164032 0.859684
vt 0.164526 0.857708
vt 0.164526 0.858202
vt 0.159091 0.858696
vt 0.162549 0.862154
vt 0.161561 0.862154
vt 0.163538 0.858696
vt 0.159585 0.858202
vt 0.159585 0.859190
vt 0.161561 0.861166
vt 0.159091 0.857213
vt 0.159091 0.858202
vt 0.158597 0.857213
vt 0.158103 0.857708
vt 0.158103 0.858696
vt 0.164032 0.857708
vt 0.165514 0.856719
vt 0.164032 0.856719
vt 0.161561 0.861660
vt 0.161067 0.860178
vt 0.160573 0.855237
vt 0.159585 0.855731
vt 0.163538 0.857708
vt 0.158597 0.860672
vt 0.159091 0.859190
vt 0.162055 0.858202
vt 0.160079 0.862648
vt 0.160573 0.859190
vt 0.162549 0.855731
vt 0.162549 0.858202
vt 0.164032 0.857213
vt 0.169466 0.857213
vt 0.166008 0.857708
vt 0.166996 0.857213
vt 0.168478 0.859190
vt 0.168972 0.857708
vt 0.193676 0.878458
vt 0.195652 0.879941
vt 0.194170 0.878458
vt 0.194170 0.879447
vt 0.191700 0.883399
vt 0.193676 0.884881
vt 0.190711 0.884387
vt 0.196146 0.879447
vt 0.194170 0.878953
vt 0.193182 0.878953
vt 0.197134 0.876976
vt 0.195652 0.876482
vt 0.197134 0.881423
vt 0.194170 0.882905
vt 0.193182 0.881423
vt 0.191206 0.884881
vt 0.194664 0.880435
vt 0.196640 0.881917
vt 0.198617 0.882905
vt 0.198123 0.883399
vt 0.194170 0.885870
vt 0.195652 0.884881
vt 0.193182 0.879941
vt 0.196146 0.882411
vt 0.194664 0.881917
vt 0.163043 0.862648
vt 0.164032 0.861166
vt 0.194170 0.881917
vt 0.196146 0.883399
vt 0.198123 0.882411
vt 0.198123 0.880929
vt 0.196146 0.884881
vt 0.163043 0.862154
vt 0.196640 0.883893
vt 0.196640 0.883399
vt 0.197628 0.877470
vt 0.197134 0.879447
vt 0.197134 0.877964
vt 0.194664 0.882905
vt 0.192688 0.882411
vt 0.191206 0.880435
vt 0.196640 0.876976
vt 0.195652 0.884387
vt 0.193676 0.882905
vt 0.195158 0.876976
vt 0.196146 0.875988
vt 0.165514 0.857213
vt 0.163538 0.859190
vt 0.195158 0.881423
vt 0.196640 0.880929
vt 0.160573 0.862648
vt 0.161067 0.862154
vt 0.194664 0.875494
vt 0.193676 0.879447
vt 0.193182 0.883399
vt 0.192688 0.884387
vt 0.188241 0.883893
vt 0.188735 0.882905
vt 0.195158 0.875494
vt 0.192194 0.876976
vt 0.192194 0.877964
vt 0.188735 0.885375
vt 0.189723 0.884881
vt 0.191700 0.881917
vt 0.192688 0.873024
vt 0.172431 0.870553
vt 0.181818 0.875988
vt 0.186759 0.878953
vt 0.184289 0.882411
vt 0.171443 0.860672
vt 0.189723 0.875000
vt 0.166008 0.867589
vt 0.169960 0.859190
vt 0.180830 0.875494
vt 0.168972 0.857213
vt 0.164032 0.854743
vt 0.164032 0.854249
vt 0.161067 0.855237
vt 0.162549 0.856225
vt 0.159091 0.854249
vt 0.159585 0.855237
vt 0.167490 0.858202
vt 0.167984 0.857708
vt 0.156621 0.857213
vt 0.163043 0.859190
vt 0.159091 0.859684
vt 0.195652 0.875494
vt 0.168478 0.859684
vt 0.167984 0.859190
vt 0.168478 0.856719
vt 0.165020 0.864625
vt 0.164032 0.865613
vt 0.163043 0.865119
vt 0.167490 0.856225
vt 0.198123 0.877470
vt 0.165020 0.860672
vt 0.197628 0.884881
vt 0.163043 0.863636
vt 0.163043 0.861166
vt 0.192194 0.884881
vt 0.161561 0.863142
vt 0.195158 0.875000
vt 0.193676 0.882411
vt 0.194664 0.884387
s 1
f 47/1/47 50/2/50 56/3/56
f 49/4/49 52/5/52 145/6/145
f 51/7/51 56/3/56 58/8/58
f 55/9/55 59/10/59 50/2/50
f 54/11/54 57/12/57 4/13/4
f 50/2/50 59/10/59 60/14/60
f 52/5/52 61/15/61 55/9/55
f 54/11/54 63/16/63 57/12/57
f 58/8/58 60/14/60 65/17/65
f 61/15/61 66/18/66 60/14/60
f 62/19/62 64/20/64 61/15/61
f 57/12/57 63/16/63 62/19/62
f 60/14/60 66/18/66 65/17/65
f 62/19/62 68/21/68 67/22/67
f 66/18/66 70/23/70 65/17/65
f 66/18/66 64/20/64 71/24/71
f 62/19/62 69/25/69 64/20/64
f 62/19/62 67/22/67 69/25/69
f 66/18/66 71/24/71 70/23/70
f 64/20/64 69/25/69 72/26/72
f 68/21/68 73/27/73 67/22/67
f 69/28/69 74/29/74 9/30/9
f 69/28/69 8/31/8 74/29/74
f 145/32/145 48/33/48 147/34/147
f 1/35/1 54/11/54 4/13/4
f 5/36/5 6/37/6 54/11/54
f 68/38/68 7/39/7 73/40/73
f 73/40/73 232/41/232 67/42/67
f 72/43/72 9/30/9 71/44/71
f 65/17/65 2/45/2 189/46/189
f 9/30/9 78/47/78 82/48/82
f 79/49/79 78/47/78 77/50/77
f 76/51/76 82/48/82 81/52/81
f 83/53/83 86/54/86 82/48/82
f 82/48/82 88/55/88 81/52/81
f 85/56/85 93/57/93 87/58/87
f 86/54/86 83/53/83 89/59/89
f 87/58/87 90/60/90 83/53/83
f 87/58/87 93/57/93 90/60/90
f 84/61/84 92/62/92 85/56/85
f 88/55/88 89/59/89 94/63/94
f 92/62/92 221/64/221 95/65/95
f 93/57/93 91/66/91 96/67/96
f 94/63/94 12/68/12 13/69/13
f 90/60/90 96/67/96 99/70/99
f 89/59/89 99/70/99 97/71/97
f 91/66/91 98/72/98 96/67/96
f 95/65/95 20/73/20 98/72/98
f 97/71/97 100/74/100 94/63/94
f 100/74/100 28/75/28 12/68/12
f 99/70/99 23/76/23 97/71/97
f 96/67/96 98/72/98 22/77/22
f 74/29/74 77/50/77 9/30/9
f 17/78/17 80/79/80 75/80/75
f 18/61/18 84/61/84 80/79/80
f 84/61/84 19/81/19 221/64/221
f 221/64/221 220/82/220 20/73/20
f 21/83/21 22/77/22 98/72/98
f 88/55/88 13/69/13 14/84/14
f 22/77/22 104/85/104 102/86/102
f 21/83/21 104/85/104 22/77/22
f 100/87/100 101/88/101 107/89/107
f 103/90/103 107/89/107 27/91/27
f 102/92/102 108/93/108 101/88/101
f 104/94/104 108/93/108 102/92/102
f 104/94/104 109/95/109 114/96/114
f 106/97/106 109/95/109 104/94/104
f 107/89/107 113/98/113 27/91/27
f 107/89/107 110/99/110 113/98/113
f 108/93/108 111/100/111 110/99/110
f 104/94/104 114/96/114 111/100/111
f 109/95/109 112/101/112 114/96/114
f 114/96/114 116/102/116 111/100/111
f 115/103/115 118/104/118 117/104/117
f 116/102/116 121/105/121 110/99/110
f 112/101/112 247/37/247 120/106/120
f 110/99/110 122/107/122 113/98/113
f 117/108/117 118/109/118 24/110/24
f 119/111/119 34/51/34 122/107/122
f 122/107/122 35/112/35 118/113/118
f 119/111/119 124/114/124 34/51/34
f 123/115/123 124/114/124 119/111/119
f 123/116/123 30/117/30 32/118/32
f 23/76/23 101/119/101 100/74/100
f 23/76/23 102/86/102 101/119/101
f 23/76/23 22/77/22 102/86/102
f 30/117/30 40/120/40 31/121/31
f 31/121/31 128/122/128 32/118/32
f 117/113/117 24/7/24 213/123/213
f 117/113/117 213/123/213 25/124/25
f 26/125/26 113/98/113 115/84/115
f 103/90/103 27/91/27 28/126/28
f 32/118/32 126/127/126 33/128/33
f 128/122/128 126/127/126 32/118/32
f 40/120/40 127/129/127 128/122/128
f 35/130/35 129/131/129 131/132/131
f 126/127/126 132/133/132 125/134/125
f 127/129/127 130/135/130 126/127/126
f 129/131/129 132/133/132 135/136/135
f 127/129/127 133/60/133 130/135/130
f 131/132/131 135/136/135 134/137/134
f 131/138/131 134/139/134 136/140/136
f 132/133/132 133/60/133 140/141/140
f 137/142/137 138/143/138 133/60/133
f 135/136/135 139/3/139 134/137/134
f 135/136/135 140/141/140 139/3/139
f 138/143/138 140/141/140 133/60/133
f 43/144/43 138/143/138 137/142/137
f 138/143/138 141/145/141 146/146/146
f 139/3/139 142/112/142 136/147/136
f 140/141/140 143/148/143 139/3/139
f 138/143/138 144/6/144 140/141/140
f 140/141/140 144/6/144 147/34/147
f 138/143/138 146/146/146 145/32/145
f 143/148/143 142/112/142 139/3/139
f 142/112/142 143/148/143 47/149/47
f 144/6/144 145/32/145 147/34/147
f 146/146/146 4/150/4 49/151/49
f 124/86/124 33/128/33 125/134/125
f 41/152/41 42/153/42 127/129/127
f 43/154/43 44/155/44 141/156/141
f 44/157/44 146/158/146 141/159/141
f 146/146/146 46/160/46 4/150/4
f 147/34/147 3/161/3 143/148/143
f 47/149/47 51/162/51 142/112/142
f 142/112/142 36/163/36 37/164/37
f 131/132/131 37/164/37 38/165/38
f 39/166/39 131/132/131 38/165/38
f 15/167/15 157/168/157 148/169/148
f 149/170/149 154/171/154 153/172/153
f 151/173/151 155/174/155 150/175/150
f 11/176/11 156/177/156 151/178/151
f 11/176/11 28/75/28 156/177/156
f 153/179/153 154/180/154 158/181/158
f 149/182/149 168/138/168 159/183/159
f 151/178/151 168/138/168 155/184/155
f 151/178/151 161/185/161 160/186/160
f 156/177/156 162/187/162 161/185/161
f 152/155/152 169/188/169 157/168/157
f 158/181/158 169/188/169 152/155/152
f 159/183/159 163/189/163 154/180/154
f 159/190/159 166/17/166 165/191/165
f 168/138/168 167/192/167 166/193/166
f 163/189/163 171/194/171 158/181/158
f 165/195/165 173/193/173 172/196/172
f 167/23/167 173/55/173 166/17/166
f 167/192/167 175/197/175 174/198/174
f 160/199/160 176/200/176 175/198/175
f 170/201/170 177/202/177 169/188/169
f 171/198/171 178/193/178 170/192/170
f 164/203/164 179/52/179 163/113/163
f 164/203/164 172/55/172 180/204/180
f 174/132/174 181/205/181 173/55/173
f 175/206/175 182/45/182 174/132/174
f 176/200/176 188/207/188 175/198/175
f 177/208/177 189/46/189 169/138/169
f 177/209/177 178/210/178 184/211/184
f 179/52/179 185/212/185 171/213/171
f 180/204/180 172/55/172 186/214/186
f 188/207/188 187/195/187 175/198/175
f 176/215/176 183/216/183 188/217/188
f 185/218/185 179/219/179 190/220/190
f 181/205/181 191/221/191 172/55/172
f 187/69/187 192/69/192 182/45/182
f 188/207/188 194/222/194 193/195/193
f 183/223/183 25/124/25 194/222/194
f 189/46/189 184/183/184 195/224/195
f 191/221/191 196/225/196 186/214/186
f 192/69/192 197/226/197 191/221/191
f 192/69/192 199/227/199 198/228/198
f 194/222/194 200/229/200 193/195/193
f 190/230/190 196/225/196 201/231/201
f 197/226/197 198/228/198 202/232/202
f 25/124/25 200/229/200 194/222/194
f 201/233/201 203/234/203 195/224/195
f 196/225/196 204/235/204 201/231/201
f 196/236/196 205/237/205 204/181/204
f 197/238/197 202/239/202 206/240/206
f 199/227/199 207/241/207 198/228/198
f 200/242/200 208/243/208 199/227/199
f 205/164/205 210/244/210 204/235/204
f 196/225/196 211/245/211 205/164/205
f 196/236/196 206/183/206 212/222/212
f 207/246/207 206/183/206 202/247/202
f 208/243/208 215/248/215 199/227/199
f 203/249/203 214/250/214 37/164/37
f 211/237/211 214/250/214 210/201/210
f 206/183/206 217/251/217 212/222/212
f 207/246/207 217/251/217 206/183/206
f 209/252/209 37/164/37 36/163/36
f 212/222/212 216/253/216 211/237/211
f 208/254/208 217/251/217 215/138/215
f 213/187/213 218/177/218 208/254/208
f 208/254/208 38/165/38 217/251/217
f 218/177/218 38/165/38 208/254/208
f 14/84/14 153/179/153 15/167/15
f 14/84/14 150/255/150 149/182/149
f 14/84/14 151/178/151 150/255/150
f 13/69/13 11/176/11 151/178/151
f 28/126/28 27/91/27 162/256/162
f 27/91/27 26/125/26 162/256/162
f 24/257/24 39/166/39 213/187/213
f 217/251/217 37/164/37 216/253/216
f 209/123/209 36/163/36 51/7/51
f 195/224/195 209/123/209 65/17/65
f 169/138/169 189/46/189 2/45/2
f 148/258/148 2/45/2 70/23/70
f 148/258/148 70/23/70 16/259/16
f 220/260/220 223/260/223 227/261/227
f 220/262/220 224/263/224 223/264/223
f 225/265/225 224/263/224 221/64/221
f 19/81/19 231/266/231 230/267/230
f 18/61/18 226/268/226 231/266/231
f 224/263/224 228/269/228 223/82/223
f 227/270/227 233/271/233 219/153/219
f 228/269/228 238/272/238 227/273/227
f 229/274/229 234/263/234 228/263/228
f 230/267/230 237/275/237 222/276/222
f 231/266/231 235/277/235 230/267/230
f 226/265/226 236/270/236 235/278/235
f 229/279/229 244/280/244 234/269/234
f 240/281/240 244/280/244 229/279/229
f 237/275/237 242/282/242 241/283/241
f 230/267/230 235/277/235 242/282/242
f 238/278/238 247/37/247 233/271/233
f 237/275/237 241/283/241 240/281/240
f 235/278/235 239/284/239 242/285/242
f 238/278/238 243/286/243 247/37/247
f 241/212/241 246/287/246 245/288/245
f 239/284/239 6/37/6 242/285/242
f 243/286/243 248/289/248 247/37/247
f 243/286/243 249/290/249 248/289/248
f 244/280/244 250/291/250 249/292/249
f 244/280/244 255/293/255 250/291/250
f 246/287/246 251/294/251 245/288/245
f 242/285/242 251/295/251 246/296/246
f 248/297/248 253/298/253 252/299/252
f 249/292/249 254/274/254 253/298/253
f 249/292/249 250/291/250 254/274/254
f 242/285/242 261/300/261 251/295/251
f 6/37/6 256/289/256 242/285/242
f 247/37/247 258/301/258 29/302/29
f 248/297/248 252/299/252 258/303/258
f 255/293/255 260/304/260 259/285/259
f 251/283/251 260/304/260 255/293/255
f 256/289/256 257/81/257 262/305/262
f 258/303/258 264/306/264 263/307/263
f 252/299/252 265/274/265 264/306/264
f 254/228/254 265/241/265 253/308/253
f 259/309/259 265/241/265 254/228/254
f 259/285/259 260/304/260 266/310/266
f 270/61/270 262/305/262 257/81/257
f 259/309/259 267/241/267 265/241/265
f 266/310/266 267/311/267 259/285/259
f 262/312/262 269/313/269 261/231/261
f 263/307/263 264/306/264 271/314/271
f 264/306/264 267/311/267 41/152/41
f 264/306/264 41/152/41 271/314/271
f 267/311/267 272/315/272 41/152/41
f 266/310/266 272/315/272 267/311/267
f 266/310/266 43/144/43 272/315/272
f 268/316/268 43/144/43 260/304/260
f 269/317/269 44/157/44 268/316/268
f 270/318/270 45/319/45 269/317/269
f 20/73/20 219/320/219 21/83/21
f 19/81/19 225/265/225 221/64/221
f 17/78/17 8/31/8 232/41/232
f 232/321/232 7/322/7 236/270/236
f 236/270/236 7/322/7 239/284/239
f 5/323/5 270/318/270 257/324/257
f 270/318/270 1/41/1 46/160/46
f 45/319/45 44/157/44 269/317/269
f 272/315/272 43/144/43 42/153/42
f 271/314/271 41/152/41 40/120/40
f 29/302/29 263/325/263 30/35/30
f 233/271/233 247/37/247 106/97/106
f 219/320/219 106/326/106 105/326/105
f 219/320/219 105/326/105 21/83/21
f 47/1/47 3/327/3 50/2/50
f 51/7/51 47/1/47 56/3/56
f 3/327/3 55/9/55 50/2/50
f 3/327/3 48/328/48 55/9/55
f 145/6/145 52/5/52 48/328/48
f 49/4/49 53/329/53 52/5/52
f 49/151/49 4/150/4 53/330/53
f 48/328/48 52/5/52 55/9/55
f 52/5/52 53/329/53 57/12/57
f 53/329/53 4/13/4 57/12/57
f 56/3/56 50/2/50 60/14/60
f 55/9/55 61/15/61 59/10/59
f 56/3/56 60/14/60 58/8/58
f 59/10/59 61/15/61 60/14/60
f 61/15/61 52/5/52 62/19/62
f 52/5/52 57/12/57 62/19/62
f 54/11/54 6/37/6 63/16/63
f 61/15/61 64/20/64 66/18/66
f 63/16/63 68/21/68 62/19/62
f 63/16/63 6/37/6 68/21/68
f 65/17/65 70/23/70 2/45/2
f 64/20/64 72/26/72 71/24/71
f 71/24/71 10/331/10 70/23/70
f 72/43/72 69/28/69 9/30/9
f 69/25/69 67/22/67 8/332/8
f 147/34/147 48/33/48 3/161/3
f 1/35/1 5/36/5 54/11/54
f 68/21/68 6/37/6 7/322/7
f 73/27/73 7/322/7 232/321/232
f 67/22/67 232/321/232 8/332/8
f 71/44/71 9/30/9 10/333/10
f 70/23/70 10/331/10 16/259/16
f 209/123/209 58/8/58 65/17/65
f 209/123/209 51/7/51 58/8/58
f 16/211/16 10/333/10 76/51/76
f 10/333/10 9/30/9 76/51/76
f 74/29/74 79/49/79 77/50/77
f 76/51/76 9/30/9 82/48/82
f 9/30/9 77/50/77 78/47/78
f 74/29/74 85/56/85 79/49/79
f 74/29/74 75/80/75 85/56/85
f 75/80/75 80/79/80 85/56/85
f 16/211/16 76/51/76 81/52/81
f 78/47/78 83/53/83 82/48/82
f 79/49/79 87/58/87 78/47/78
f 79/49/79 85/56/85 87/58/87
f 80/79/80 84/61/84 85/56/85
f 78/47/78 87/58/87 83/53/83
f 81/52/81 88/55/88 14/84/14
f 82/48/82 86/54/86 88/55/88
f 85/56/85 91/66/91 93/57/93
f 85/56/85 92/62/92 91/66/91
f 84/61/84 221/64/221 92/62/92
f 83/53/83 90/60/90 89/59/89
f 88/55/88 94/63/94 13/69/13
f 88/55/88 86/54/86 89/59/89
f 92/62/92 95/65/95 91/66/91
f 89/59/89 90/60/90 99/70/99
f 90/60/90 93/57/93 96/67/96
f 95/65/95 221/64/221 20/73/20
f 89/59/89 97/71/97 94/63/94
f 91/174/91 95/63/95 98/334/98
f 94/63/94 100/74/100 12/68/12
f 98/72/98 20/73/20 21/83/21
f 97/71/97 23/76/23 100/74/100
f 8/31/8 75/80/75 74/29/74
f 17/78/17 18/61/18 80/79/80
f 18/61/18 19/81/19 84/61/84
f 99/70/99 96/67/96 22/77/22
f 23/76/23 99/70/99 22/77/22
f 12/68/12 28/75/28 11/176/11
f 15/167/15 81/52/81 14/84/14
f 15/167/15 16/211/16 81/52/81
f 21/83/21 105/326/105 104/85/104
f 103/90/103 100/87/100 107/89/107
f 105/326/105 106/326/106 104/85/104
f 101/88/101 108/93/108 107/89/107
f 107/89/107 108/93/108 110/99/110
f 108/93/108 104/94/104 111/100/111
f 109/95/109 106/97/106 112/101/112
f 111/100/111 116/102/116 110/99/110
f 115/84/115 113/98/113 118/113/118
f 116/102/116 114/96/114 120/106/120
f 114/96/114 112/101/112 120/106/120
f 113/98/113 122/107/122 118/113/118
f 110/99/110 121/105/121 122/107/122
f 116/102/116 119/111/119 121/105/121
f 120/106/120 247/37/247 29/302/29
f 116/102/116 120/106/120 123/115/123
f 120/106/120 29/302/29 30/35/30
f 121/105/121 119/111/119 122/107/122
f 116/102/116 123/115/123 119/111/119
f 123/115/123 120/106/120 30/35/30
f 118/113/118 35/112/35 24/7/24
f 122/107/122 34/51/34 35/112/35
f 123/115/123 33/335/33 124/114/124
f 30/117/30 31/121/31 32/118/32
f 28/75/28 100/74/100 103/336/103
f 106/97/106 247/37/247 112/101/112
f 33/128/33 123/116/123 32/118/32
f 124/86/124 125/134/125 34/119/34
f 39/166/39 24/257/24 35/130/35
f 115/84/115 117/113/117 25/124/25
f 26/125/26 27/91/27 113/98/113
f 35/130/35 125/134/125 129/131/129
f 125/134/125 33/128/33 126/127/126
f 128/122/128 127/129/127 126/127/126
f 31/121/31 40/120/40 128/122/128
f 39/337/39 35/338/35 131/138/131
f 129/131/129 125/134/125 132/133/132
f 126/127/126 130/135/130 132/133/132
f 131/132/131 129/131/129 135/136/135
f 130/135/130 133/60/133 132/133/132
f 127/129/127 137/142/137 133/60/133
f 127/129/127 42/153/42 137/142/137
f 42/153/42 43/144/43 137/142/137
f 132/133/132 140/141/140 135/136/135
f 134/137/134 139/3/139 136/147/136
f 138/143/138 43/144/43 141/145/141
f 143/148/143 140/141/140 147/34/147
f 144/6/144 138/143/138 145/32/145
f 146/146/146 49/151/49 145/32/145
f 34/119/34 125/134/125 35/130/35
f 40/120/40 41/152/41 127/129/127
f 44/157/44 45/319/45 146/146/146
f 146/146/146 45/319/45 46/160/46
f 4/150/4 46/160/46 1/41/1
f 47/149/47 143/148/143 3/161/3
f 136/147/136 142/112/142 37/164/37
f 131/132/131 136/147/136 37/164/37
f 15/167/15 152/155/152 157/168/157
f 15/167/15 153/179/153 152/155/152
f 149/182/149 150/255/150 155/184/155
f 153/179/153 158/181/158 152/155/152
f 149/182/149 159/183/159 154/180/154
f 149/182/149 155/184/155 168/138/168
f 151/178/151 160/186/160 168/138/168
f 151/178/151 156/177/156 161/185/161
f 156/177/156 28/75/28 162/187/162
f 154/180/154 163/189/163 158/181/158
f 159/183/159 164/238/164 163/189/163
f 159/190/159 165/191/165 164/203/164
f 159/183/159 168/138/168 166/193/166
f 158/339/158 170/192/170 169/138/169
f 158/339/158 171/198/171 170/192/170
f 164/238/164 165/195/165 172/196/172
f 165/191/165 166/17/166 173/55/173
f 167/192/167 174/198/174 173/193/173
f 167/192/167 168/138/168 175/197/175
f 168/138/168 160/186/160 175/197/175
f 160/199/160 161/340/161 176/200/176
f 161/340/161 162/256/162 176/200/176
f 162/256/162 26/125/26 176/200/176
f 170/7/170 178/210/178 177/209/177
f 163/113/163 179/52/179 171/213/171
f 164/203/164 180/204/180 179/52/179
f 172/341/172 173/246/173 181/342/181
f 174/132/174 182/45/182 181/205/181
f 176/200/176 26/125/26 183/223/183
f 177/208/177 184/183/184 189/46/189
f 171/198/171 185/218/185 178/193/178
f 180/204/180 186/214/186 179/52/179
f 175/206/175 187/69/187 182/45/182
f 184/211/184 178/210/178 190/230/190
f 178/193/178 185/218/185 190/220/190
f 172/55/172 191/221/191 186/214/186
f 181/205/181 192/69/192 191/221/191
f 181/205/181 182/45/182 192/69/192
f 188/343/188 193/176/193 187/69/187
f 188/343/188 183/344/183 194/259/194
f 179/52/179 186/214/186 196/225/196
f 191/221/191 197/226/197 196/225/196
f 192/69/192 198/228/198 197/226/197
f 192/69/192 187/69/187 199/227/199
f 187/69/187 193/176/193 199/227/199
f 193/176/193 200/242/200 199/227/199
f 195/224/195 184/183/184 201/233/201
f 184/211/184 190/230/190 201/231/201
f 190/201/190 179/345/179 196/236/196
f 25/124/25 213/123/213 200/229/200
f 195/224/195 203/234/203 209/123/209
f 201/231/201 204/235/204 203/313/203
f 196/225/196 197/226/197 206/346/206
f 198/228/198 207/241/207 202/232/202
f 203/313/203 204/235/204 210/244/210
f 205/164/205 211/245/211 210/244/210
f 196/236/196 212/222/212 211/237/211
f 199/237/199 215/347/215 207/240/207
f 200/229/200 213/123/213 208/347/208
f 209/252/209 203/249/203 37/164/37
f 203/249/203 210/201/210 214/250/214
f 207/246/207 215/138/215 217/251/217
f 214/250/214 211/237/211 216/253/216
f 212/222/212 217/251/217 216/253/216
f 213/123/213 39/112/39 218/313/218
f 214/250/214 216/253/216 37/164/37
f 16/211/16 15/167/15 148/169/148
f 14/84/14 149/182/149 153/179/153
f 14/84/14 13/69/13 151/178/151
f 13/69/13 12/68/12 11/176/11
f 183/223/183 26/125/26 115/84/115
f 183/223/183 115/84/115 25/124/25
f 218/177/218 39/166/39 38/165/38
f 217/251/217 38/165/38 37/164/37
f 51/162/51 36/163/36 142/112/142
f 65/17/65 189/46/189 195/224/195
f 157/243/157 169/138/169 2/45/2
f 148/258/148 157/243/157 2/45/2
f 220/82/220 227/273/227 219/320/219
f 220/82/220 221/64/221 224/263/224
f 222/276/222 19/81/19 230/267/230
f 19/81/19 18/61/18 231/266/231
f 18/61/18 17/78/17 226/268/226
f 17/78/17 232/41/232 226/268/226
f 223/82/223 228/269/228 227/273/227
f 224/263/224 229/279/229 228/269/228
f 224/263/224 225/265/225 229/279/229
f 227/273/227 238/272/238 233/348/233
f 228/349/228 234/350/234 238/351/238
f 229/279/229 225/265/225 237/275/237
f 225/265/225 222/276/222 237/275/237
f 231/352/231 226/353/226 235/354/235
f 226/265/226 232/321/232 236/270/236
f 229/279/229 237/275/237 240/281/240
f 234/350/234 243/355/243 238/351/238
f 234/269/234 244/280/244 243/356/243
f 237/275/237 230/267/230 242/282/242
f 236/270/236 239/284/239 235/278/235
f 240/357/240 245/288/245 244/69/244
f 240/281/240 241/283/241 245/358/245
f 241/212/241 242/359/242 246/287/246
f 243/355/243 244/69/244 249/258/249
f 244/280/244 245/358/245 255/293/255
f 245/288/245 251/294/251 255/360/255
f 248/297/248 249/292/249 253/298/253
f 242/282/242 256/361/256 261/267/261
f 6/37/6 257/81/257 256/289/256
f 247/37/247 248/289/248 258/301/258
f 254/274/254 250/291/250 259/285/259
f 250/291/250 255/293/255 259/285/259
f 251/283/251 261/267/261 260/304/260
f 256/362/256 262/312/262 261/231/261
f 29/363/29 258/303/258 263/307/263
f 258/303/258 252/299/252 264/306/264
f 252/364/252 253/300/253 265/365/265
f 261/267/261 268/316/268 260/304/260
f 268/235/268 261/231/261 269/313/269
f 264/306/264 265/274/265 267/311/267
f 262/361/262 270/318/270 269/317/269
f 266/310/266 260/304/260 43/144/43
f 268/316/268 44/157/44 43/144/43
f 270/318/270 46/160/46 45/319/45
f 20/73/20 220/82/220 219/320/219
f 19/81/19 222/276/222 225/265/225
f 17/78/17 75/80/75 8/31/8
f 239/284/239 7/322/7 6/37/6
f 6/37/6 5/36/5 257/81/257
f 5/323/5 1/41/1 270/318/270
f 41/152/41 272/315/272 42/153/42
f 30/117/30 271/314/271 40/120/40
f 30/117/30 263/307/263 271/314/271
f 219/153/219 233/271/233 106/97/106
