# Blender 4.2.1 LTS
# www.blender.org
o RockPlatform
v 1.157883 0.988009 1.110788
v -2.284893 0.592658 -0.284594
v -1.651572 -1.178780 -0.793246
v 0.983793 -0.523665 -0.595354
v -2.129471 0.718833 -0.283569
v -1.339145 0.732024 -1.427527
v -1.994447 0.369803 -0.941869
v 0.893459 1.094908 -1.017943
v 1.011898 0.751511 -1.048830
v 0.311451 0.629485 -1.376073
v -0.118683 0.495233 -1.402955
v 1.028419 1.467453 1.019501
v 1.008423 1.105300 1.028092
v 1.733781 0.948939 0.736492
v 1.949133 0.980078 -0.053857
v -0.119283 1.301058 1.389401
v -1.202801 1.315325 1.154092
v -1.369486 0.875826 1.281573
v -1.106464 0.912541 1.306763
v -0.178741 1.139487 1.424321
v -1.625861 1.136456 0.626767
v 1.669778 1.273751 0.014408
v 1.154492 0.774324 -0.834320
v -0.195802 1.198202 -1.422914
v -0.843479 0.355924 -1.448554
v -1.379145 0.518746 -1.366409
v -0.125971 1.548940 1.382236
v 0.745368 1.059069 1.247474
v -0.277052 1.373913 -0.094993
v -2.067722 -0.240166 -0.120698
v -1.848985 -0.316582 0.083796
v -1.840103 -0.661032 0.225779
v -1.538389 -0.521126 0.531259
v -1.007596 -0.137769 1.167927
v -0.962499 0.048710 1.064061
v -1.159511 0.226351 1.217511
v -1.618207 0.227646 0.721882
v -1.909205 -0.059895 -0.040108
v -0.047904 -0.613069 -1.745550
v 0.082964 -1.103123 -1.600900
v -1.264629 -1.106609 -1.020158
v -1.601055 -1.120269 -0.734142
v -1.644504 -0.878808 -0.844317
v -0.640271 -0.357212 -1.775483
v -0.102318 -0.377744 -1.698359
v 1.939563 0.276794 0.131776
v 1.687664 0.028198 0.263499
v 1.663843 -0.276103 0.292645
v 1.600905 -0.426006 -0.083931
v 1.189908 -0.509724 -0.216107
v 0.953773 -0.421424 -0.531705
v 0.913993 -0.086217 -0.880799
v 0.999572 0.379043 -0.802638
v 1.517671 0.808035 -0.207056
v 0.339290 0.010426 1.170194
v 0.780692 -0.044078 1.101888
v 0.875485 0.585249 1.383226
v -0.059078 0.589882 1.241286
v -1.796832 -0.722370 0.197266
v -1.820057 -0.391865 -0.631369
v -1.558877 -0.567830 -1.040425
v 0.810076 -0.376718 1.025717
v 1.330344 -0.173219 0.803523
v 1.371334 0.581860 0.686523
v 0.496902 -0.916029 -1.456272
v -0.071892 -0.174988 -1.568300
v 0.424350 0.303620 -0.993044
v 0.893978 0.332120 -0.848033
v -0.498010 -0.102002 1.173440
v -0.049450 -0.012113 1.274149
v -0.181943 0.534002 1.137615
v -0.577791 0.474193 1.029471
v -1.151949 0.414747 1.121567
v -1.260119 0.688579 1.253345
v -2.248956 0.381330 -0.273973
v -2.234552 0.132048 -0.237751
v -0.042625 0.813618 1.244734
v -1.444285 0.027903 -1.225855
v -1.425825 -0.346057 -1.194515
v -0.132118 0.002597 -1.554669
v 0.905868 0.529236 -0.919418
v -0.655665 -1.298571 0.675414
v -0.287691 -1.303568 0.841902
v -0.418568 -1.073055 0.893776
v -1.174887 -1.070383 0.721197
v -1.354850 -1.182548 0.601874
v 0.366140 -1.582810 0.284837
v 0.066599 -1.648332 0.289241
v -0.911317 -1.607457 0.195230
v -0.685618 -1.578447 0.112961
v -0.561710 -1.274327 0.044344
v 0.553796 -1.398269 -0.529419
v 1.034845 -1.252465 0.590049
v 0.722474 -1.226842 0.488913
v 1.144795 -1.050240 -0.159527
v 1.344756 -0.989822 0.393562
v 0.176556 -0.962345 1.054888
v 0.598621 -1.016909 1.015355
v 0.498868 -0.736040 1.138319
v 0.047361 -0.639889 1.328491
v -1.263005 -1.286297 0.511475
v -1.050737 -1.609677 0.222749
v 1.283944 -0.983732 0.807057
v 1.135082 -1.354176 -0.497842
v 0.214917 -1.326722 1.072393
v -0.598527 -0.732240 0.934230
v -0.778696 -0.547291 0.961771
v -1.004624 -0.318734 1.190074
v 0.448375 -1.406036 0.326614
v 0.261254 -1.424386 0.426902
v -1.531603 -1.289354 -0.318365
v 0.016636 -0.420474 1.340007
v 0.448397 -1.286611 -1.398740
v 0.273689 -1.397198 0.681662
v 1.358576 -1.011292 -0.442899
v 1.640419 -0.412553 0.346076
v 1.628278 -0.770043 0.489785
v 1.514156 -0.909525 0.549548
v 1.165505 0.553961 -0.510305
v -0.970250 1.245439 -1.044933
v -1.311372 1.007992 -1.377236
v -0.221631 0.883767 1.202587
v -0.335216 0.702767 1.164393
v -1.288004 -1.203630 -0.625694
v -0.207820 -1.034405 -1.181736
v -0.773437 -1.169742 -0.799748
v 0.010842 -1.256280 -1.211196
v 0.032573 -1.184049 -0.997323
v -0.831672 -1.323742 0.274782
v 0.466990 -1.240531 0.548141
v 0.680549 -1.366793 0.637923
v 1.626960 -0.713205 0.015376
v 1.183837 -0.972940 0.041160
v 1.512783 -0.774188 0.387569
v -2.121646 0.021092 -0.457045
v -2.070907 0.189923 -0.644353
v -2.001537 0.142353 -0.927098
v -1.768706 -0.188763 -0.810044
v -1.558242 -0.097708 -0.867100
v 1.622118 -0.735856 0.690756
v 0.544906 -0.809634 -1.003024
v 1.061991 -0.700620 -0.470276
v 0.625225 -1.012584 -1.039408
v -1.759257 -0.910199 0.068348
v -1.702306 -1.189945 0.009722
v -1.571828 -0.820591 0.457171
v -1.540831 -1.143191 0.374331
v -1.343549 -1.260461 0.125831
v -1.406504 -1.228000 0.423944
v 0.509378 0.444705 -1.222534
v 0.162557 0.239522 -1.559911
v 0.807783 0.904008 1.211667
v 0.512967 0.778177 1.322058
v 0.286982 0.947873 1.456409
v -0.927585 -0.275743 -1.529518
v -0.466023 0.141053 -1.490573
v 1.718630 0.788845 0.069731
v 1.868242 0.764084 0.018864
v 1.363852 0.787831 0.996871
v -1.787938 0.891718 -1.120166
v -1.533790 0.738150 -1.380543
v -1.821135 0.710256 -0.730442
v 0.717461 0.694802 -1.226978
v 1.646255 1.239394 0.250613
v 1.232749 1.263729 0.863572
v 1.529757 1.069659 0.601473
v -0.823814 1.346325 1.358277
v -0.350350 1.323179 1.346940
v -2.064170 1.083618 -0.152048
v -1.603270 0.903849 0.663782
v -2.006105 0.623163 0.287728
v 1.449806 1.191912 -0.649790
v 1.626552 1.056778 -0.271809
v 1.170824 1.020293 -1.245089
v 1.155623 0.841881 -0.903667
v 1.659682 0.862711 -0.301566
v 0.375513 1.381148 1.144174
v -0.378681 -1.506995 0.471536
v -1.573870 -0.379101 0.557553
v -1.118470 -0.288114 0.789647
v -1.206676 -0.096354 1.139838
v -1.641386 -0.037965 0.777417
v -1.799013 0.063499 0.882451
v -1.188946 -0.994440 -1.137040
v 0.017799 -0.866138 -1.593691
v -0.680659 -0.763547 -1.351832
v -1.054453 -0.725694 -1.073568
v -0.480422 -0.659750 -1.645000
v -1.086146 -0.460056 -1.548389
v 1.506821 -0.018537 0.184442
v 1.140029 -0.267369 -0.418892
v 1.753816 0.145989 -0.252534
v 1.060965 0.034165 -0.687233
v 1.549219 0.221520 -0.398402
v 1.777160 0.324503 -0.235934
v -1.744085 -0.876187 -0.591635
v -1.798357 -0.583642 0.177501
v -1.873466 -0.532507 0.090685
v -1.741231 -0.496112 -0.314958
v 1.134179 0.033948 0.968995
v 1.359442 0.333739 0.915672
v 1.826016 0.296313 0.544961
v 1.197011 0.502851 1.385975
v 0.629033 -0.448983 -0.980978
v 0.577120 -0.385192 -1.422677
v 0.515733 -0.188071 -1.417803
v 0.479324 0.110981 -1.178239
v -0.647352 0.120891 1.224338
v -0.031678 0.332464 1.165660
v -1.549526 0.631494 1.043481
v -1.299194 0.399354 0.665118
v -1.748665 0.299671 0.329915
v -1.730137 0.392950 0.094962
v -1.585815 0.763794 1.049488
v -0.455982 -1.529019 0.373468
v 0.434988 -1.444419 0.031069
v 0.719879 -1.489033 0.270118
v 0.887624 -1.231342 0.511648
v -1.063574 -1.238822 0.626445
v -0.852884 -1.451799 0.499544
v 0.533400 -1.293232 0.876553
v 0.858049 -1.191321 0.548337
v 0.733856 -0.733782 1.058193
v 0.754133 -1.053355 0.763972
v 1.216242 -1.217724 -0.204167
v -0.211529 -1.120814 0.983482
v 0.076706 -1.010857 1.124782
v -1.402329 -0.612875 0.717734
v -1.521783 -0.922807 0.485304
v -0.872031 -0.780481 0.807430
vn 0.4126 0.5098 0.7549
vn -0.9511 0.2994 0.0762
vn -0.7594 -0.2823 -0.5863
vn 0.8619 0.2207 -0.4566
vn -0.8606 0.4891 -0.1421
vn -0.2261 0.0476 -0.9729
vn -0.7760 0.2047 -0.5966
vn 0.0047 0.8764 -0.4816
vn 0.6072 -0.6293 -0.4852
vn 0.3172 0.1132 -0.9416
vn -0.0206 0.1673 -0.9857
vn 0.3874 0.6975 0.6028
vn 0.3186 0.5057 0.8017
vn 0.8339 0.1909 0.5179
vn 0.9684 -0.0405 -0.2462
vn 0.0833 0.1979 0.9767
vn -0.4947 0.8014 0.3361
vn -0.5218 0.0525 0.8514
vn -0.0089 -0.1866 0.9824
vn -0.1240 -0.1276 0.9840
vn -0.6421 0.6581 0.3933
vn 0.4961 0.8562 -0.1441
vn 0.7404 -0.5157 -0.4311
vn 0.0961 0.6592 -0.7458
vn -0.1101 0.0421 -0.9930
vn -0.3256 -0.2511 -0.9116
vn 0.0589 0.7257 0.6855
vn 0.3814 0.3474 0.8566
vn -0.0436 0.9935 -0.1053
vn -0.9144 -0.3745 0.1536
vn -0.8267 -0.2466 0.5058
vn -0.9852 -0.1645 0.0487
vn -0.7025 0.0294 0.7111
vn -0.1153 0.2455 0.9625
vn -0.0119 0.1719 0.9850
vn -0.1032 0.0496 0.9934
vn -0.5859 0.7888 0.1857
vn -0.8326 0.2064 0.5140
vn 0.0899 -0.2009 -0.9755
vn -0.1728 -0.4486 -0.8769
vn -0.1389 -0.8193 -0.5563
vn -0.8166 0.3497 -0.4592
vn -0.7830 -0.2383 -0.5746
vn -0.2190 0.0650 -0.9736
vn 0.1692 0.2459 -0.9544
vn 0.9634 -0.2677 -0.0159
vn 0.7655 -0.6421 -0.0417
vn 0.9963 0.0496 0.0705
vn 0.7802 -0.3940 -0.4858
vn 0.5501 -0.4382 -0.7109
vn 0.8507 -0.0948 -0.5170
vn 0.8155 -0.1717 -0.5527
vn 0.6441 -0.0491 -0.7634
vn 0.6452 -0.4521 -0.6159
vn 0.1307 -0.0543 0.9899
vn 0.2537 -0.3132 0.9152
vn 0.0054 0.0746 0.9972
vn -0.3348 -0.1795 0.9250
vn -0.9253 -0.3755 0.0537
vn -0.7804 -0.5333 -0.3264
vn -0.8189 -0.0601 -0.5707
vn 0.5560 -0.0757 0.8277
vn 0.6150 -0.1106 0.7807
vn 0.8703 -0.0269 0.4918
vn 0.7140 -0.3138 -0.6259
vn 0.4959 0.3645 -0.7882
vn 0.5688 -0.1725 -0.8042
vn 0.5766 -0.1315 -0.8064
vn -0.0604 0.0947 0.9937
vn -0.0244 0.2316 0.9725
vn -0.3037 -0.0861 0.9489
vn -0.0623 -0.0928 0.9937
vn -0.3063 -0.0236 0.9516
vn -0.1977 -0.3913 0.8988
vn -0.9492 -0.1007 0.2981
vn -0.9579 -0.1514 0.2440
vn -0.2498 -0.2895 0.9240
vn -0.5759 -0.2133 -0.7892
vn -0.7682 0.0285 -0.6396
vn 0.1715 0.2661 -0.9486
vn 0.6640 -0.4095 -0.6257
vn -0.2337 -0.7780 0.5832
vn -0.2235 -0.7354 0.6397
vn -0.3300 -0.3299 0.8845
vn -0.3764 -0.1794 0.9089
vn -0.5685 -0.4665 0.6776
vn 0.2170 -0.8848 0.4123
vn 0.1267 -0.9790 0.1598
vn -0.0020 -0.9861 -0.1664
vn -0.2337 -0.6706 -0.7040
vn -0.2024 -0.7797 -0.5926
vn -0.0566 -0.9909 -0.1223
vn 0.0755 -0.9650 0.2513
vn 0.3090 -0.9374 0.1605
vn 0.9255 0.0638 0.3734
vn 0.5906 -0.7433 -0.3141
vn 0.3501 -0.2308 0.9079
vn 0.4856 -0.3804 0.7871
vn 0.2420 -0.3750 0.8949
vn -0.0389 -0.2508 0.9673
vn -0.3876 -0.7484 0.5382
vn -0.3029 -0.8711 -0.3865
vn 0.4040 -0.5629 0.7211
vn 0.5783 -0.7734 -0.2595
vn 0.0871 -0.6722 0.7352
vn -0.3451 -0.3243 0.8807
vn -0.3589 -0.5644 0.7434
vn -0.4510 -0.4665 0.7609
vn 0.1550 -0.6400 0.7526
vn 0.3135 -0.8242 0.4717
vn -0.2113 -0.9762 -0.0480
vn 0.0032 -0.0144 0.9999
vn 0.4335 -0.5469 -0.7162
vn 0.3305 -0.9296 0.1629
vn 0.9803 0.1410 -0.1380
vn 0.9917 -0.0351 0.1238
vn 0.8632 -0.4161 -0.2858
vn 0.6898 -0.7226 -0.0451
vn 0.7544 -0.0347 -0.6555
vn -0.1757 0.9554 -0.2373
vn -0.3182 0.5908 -0.7414
vn -0.1521 -0.4308 0.8895
vn -0.0052 -0.3004 0.9538
vn 0.0049 -0.9637 -0.2668
vn -0.3869 -0.6934 -0.6078
vn -0.0705 -0.9536 -0.2928
vn -0.2714 -0.9549 -0.1203
vn -0.1026 -0.9932 0.0549
vn -0.2188 -0.4131 -0.8840
vn -0.0242 -0.9554 0.2942
vn 0.3468 -0.9202 0.1815
vn 0.8299 -0.2557 -0.4959
vn 0.7340 -0.6214 -0.2741
vn 0.7377 -0.5857 -0.3358
vn -0.8533 -0.3728 -0.3645
vn -0.8217 -0.4833 -0.3019
vn -0.7240 -0.5099 -0.4645
vn -0.3385 -0.3509 -0.8731
vn -0.6960 -0.3314 -0.6370
vn 0.8247 -0.1785 0.5367
vn 0.8211 -0.3971 -0.4100
vn 0.3331 0.0184 -0.9427
vn 0.7006 0.3028 -0.6461
vn -0.9534 -0.2416 0.1805
vn -0.7483 -0.6384 0.1800
vn -0.4211 -0.5517 -0.7200
vn -0.6782 -0.5568 0.4796
vn -0.2801 -0.9540 -0.1069
vn -0.6726 -0.6851 0.2799
vn 0.5859 -0.4970 -0.6400
vn 0.4074 -0.2501 -0.8783
vn 0.2455 0.1991 0.9487
vn 0.0849 -0.0435 0.9954
vn 0.0945 -0.1497 0.9842
vn -0.4458 0.3715 -0.8144
vn -0.0516 0.3198 -0.9461
vn 0.8636 0.3929 -0.3158
vn 0.7662 0.6108 -0.1997
vn 0.8007 -0.0320 0.5982
vn -0.8060 0.2175 -0.5505
vn -0.4480 0.2652 -0.8538
vn -0.8579 -0.0546 -0.5109
vn 0.4202 -0.1707 -0.8912
vn 0.7000 0.6403 0.3162
vn 0.6964 0.3432 0.6303
vn 0.5949 0.6958 0.4023
vn -0.2087 0.4670 0.8593
vn -0.0890 0.0290 0.9956
vn -0.7472 0.6638 0.0322
vn -0.7934 0.3513 0.4970
vn -0.8211 -0.3208 0.4721
vn 0.6416 0.6064 -0.4697
vn 0.7711 0.2585 -0.5819
vn 0.4749 0.2370 -0.8475
vn 0.7798 -0.5064 -0.3682
vn 0.6686 -0.5370 -0.5144
vn 0.3095 0.0158 0.9508
vn -0.0703 -0.8797 0.4702
vn -0.5483 -0.4253 0.7200
vn -0.5803 -0.4578 0.6736
vn -0.4358 -0.3506 0.8290
vn -0.3594 -0.7242 0.5885
vn -0.7876 -0.0416 0.6147
vn -0.3740 -0.2094 -0.9035
vn -0.0348 -0.3509 -0.9358
vn -0.4344 -0.4103 -0.8018
vn -0.3938 -0.3433 -0.8527
vn -0.1001 -0.7153 -0.6916
vn -0.5437 -0.1918 -0.8171
vn 0.7500 -0.3986 -0.5278
vn 0.6663 -0.4158 -0.6190
vn 0.7349 -0.4625 -0.4959
vn 0.6922 -0.1963 -0.6945
vn 0.5472 0.0720 -0.8339
vn 0.7334 0.1120 -0.6704
vn -0.9681 -0.1627 -0.1906
vn -0.5206 -0.5990 -0.6084
vn -0.8178 -0.5622 0.1231
vn -0.9195 -0.3471 -0.1844
vn 0.4887 -0.4108 0.7697
vn 0.8105 -0.1046 0.5764
vn 0.8385 -0.0252 0.5443
vn 0.4932 -0.0835 0.8659
vn 0.8498 -0.1455 -0.5066
vn 0.7428 -0.2601 -0.6170
vn 0.4742 0.3870 -0.7908
vn 0.1918 0.6668 -0.7201
vn -0.1929 0.1837 0.9639
vn -0.1017 -0.0191 0.9946
vn -0.6913 -0.5158 0.5061
vn -0.7961 -0.0421 0.6037
vn -0.9041 0.2618 0.3378
vn -0.8652 -0.0200 0.5010
vn -0.8714 0.0936 0.4815
vn -0.0989 -0.9446 0.3128
vn 0.0714 -0.9494 -0.3058
vn 0.3328 -0.9050 0.2651
vn 0.2741 -0.9578 -0.0859
vn -0.1904 -0.6282 0.7544
vn -0.0911 -0.7152 0.6930
vn 0.3731 -0.8445 0.3842
vn 0.0698 -0.6376 0.7672
vn 0.3714 -0.2302 0.8995
vn 0.4612 -0.6099 0.6445
vn 0.7706 -0.4321 0.4684
vn -0.3955 -0.3983 0.8276
vn 0.1468 -0.3086 0.9398
vn -0.5516 -0.0609 0.8319
vn -0.6794 -0.2406 0.6932
vn -0.3936 -0.1339 0.9095
vt 0.071146 0.872036
vt 0.072134 0.869565
vt 0.069664 0.869565
vt 0.164032 0.882411
vt 0.166996 0.878953
vt 0.173419 0.877470
vt 0.173913 0.887352
vt 0.087945 0.862154
vt 0.086957 0.858202
vt 0.084486 0.859684
vt 0.086957 0.862154
vt 0.088933 0.860178
vt 0.082510 0.855731
vt 0.166008 0.893775
vt 0.168478 0.891798
vt 0.173913 0.896739
vt 0.076581 0.869071
vt 0.075099 0.873024
vt 0.071146 0.868577
vt 0.073617 0.875988
vt 0.088439 0.872036
vt 0.088439 0.879447
vt 0.086957 0.872530
vt 0.090909 0.879447
vt 0.069170 0.878458
vt 0.074605 0.878953
vt 0.068182 0.876976
vt 0.077075 0.880435
vt 0.072628 0.879447
vt 0.084486 0.874506
vt 0.083992 0.871542
vt 0.067688 0.868083
vt 0.062253 0.868577
vt 0.067688 0.869565
vt 0.064229 0.875494
vt 0.062253 0.870553
vt 0.061759 0.873518
vt 0.079051 0.882905
vt 0.078063 0.877964
vt 0.076581 0.880435
vt 0.083498 0.869565
vt 0.080534 0.869071
vt 0.077075 0.874506
vt 0.083992 0.877964
vt 0.081522 0.875000
vt 0.079051 0.878458
vt 0.062747 0.866107
vt 0.060771 0.868577
vt 0.085474 0.875988
vt 0.056818 0.872036
vt 0.056324 0.868577
vt 0.055336 0.870553
vt 0.057312 0.871047
vt 0.072628 0.873024
vt 0.073617 0.873024
vt 0.058300 0.862648
vt 0.056324 0.863636
vt 0.055830 0.864130
vt 0.058300 0.861166
vt 0.058794 0.861660
vt 0.055336 0.863142
vt 0.071146 0.873024
vt 0.071146 0.859190
vt 0.072134 0.853755
vt 0.068676 0.854743
vt 0.069170 0.864625
vt 0.059783 0.868083
vt 0.058794 0.866601
vt 0.066206 0.853261
vt 0.062747 0.858696
vt 0.080040 0.855731
vt 0.078063 0.854743
vt 0.082016 0.860672
vt 0.068182 0.871542
vt 0.062253 0.871542
vt 0.064723 0.870553
vt 0.076087 0.861166
vt 0.073617 0.861660
vt 0.074111 0.863636
vt 0.078063 0.867589
vt 0.076581 0.862154
vt 0.076581 0.866107
vt 0.068182 0.861660
vt 0.070158 0.860672
vt 0.067688 0.867095
vt 0.069170 0.863142
vt 0.088439 0.873024
vt 0.090415 0.867589
vt 0.086462 0.871047
vt 0.083498 0.873024
vt 0.091897 0.873518
vt 0.092391 0.868577
vt 0.085968 0.866601
vt 0.087945 0.865119
vt 0.084486 0.864130
vt 0.081028 0.868577
vt 0.080534 0.864625
vt 0.180830 0.895257
vt 0.186265 0.888340
vt 0.181818 0.880435
vt 0.075593 0.858202
vt 0.072134 0.861166
vt 0.067688 0.853755
vt 0.066700 0.861166
vt 0.064723 0.856225
vt 0.063735 0.874506
vt 0.059783 0.873024
vt 0.062747 0.873024
vt 0.067688 0.861166
vt 0.064229 0.860672
vt 0.062253 0.864625
vt 0.060771 0.864625
vt 0.057312 0.863636
vt 0.061265 0.860178
vt 0.070158 0.861166
vt 0.066700 0.865119
vt 0.068182 0.866107
vt 0.057806 0.866107
vt 0.060771 0.862648
vt 0.058300 0.865119
vt 0.068676 0.876482
vt 0.068182 0.872530
vt 0.068182 0.869565
vt 0.064229 0.874012
vt 0.067688 0.872036
vt 0.064229 0.868083
vt 0.060771 0.870553
vt 0.059783 0.866107
vt 0.057806 0.870059
vt 0.057312 0.873024
vt 0.062253 0.873024
vt 0.066700 0.863636
vt 0.063241 0.865119
vt 0.065711 0.878953
vt 0.063241 0.878953
vt 0.069664 0.882411
vt 0.087451 0.870059
vt 0.088439 0.868083
vt 0.091403 0.870553
vt 0.091897 0.867589
vt 0.088933 0.862154
vt 0.085968 0.862154
vt 0.092391 0.864130
vt 0.090909 0.861660
vt 0.084486 0.869565
vt 0.085474 0.865119
vt 0.089427 0.863142
vt 0.087451 0.865613
vt 0.084486 0.862648
vt 0.089427 0.868083
vt 0.086957 0.870553
vt 0.084980 0.870553
vt 0.093379 0.879447
vt 0.092391 0.875000
vt 0.088933 0.878953
vt 0.089427 0.872530
vt 0.083498 0.874012
vt 0.085474 0.872530
vt 0.086462 0.877964
vt 0.084486 0.872036
vt 0.083004 0.875000
vt 0.075593 0.857213
vt 0.074605 0.854249
vt 0.072134 0.857213
vt 0.084486 0.879447
vt 0.086462 0.881423
vt 0.079051 0.881423
vt 0.098320 0.875000
vt 0.097826 0.869071
vt 0.093874 0.874012
vt 0.098320 0.883399
vt 0.095850 0.880929
vt 0.095850 0.884387
vt 0.095356 0.864625
vt 0.094862 0.865613
vt 0.092391 0.886364
vt 0.099308 0.866601
vt 0.093379 0.865613
vt 0.098814 0.871542
vt 0.090909 0.880435
vt 0.088439 0.877964
vt 0.087451 0.872036
vt 0.095356 0.860178
vt 0.090909 0.860672
vt 0.093874 0.856719
vt 0.091403 0.856719
vt 0.088439 0.882411
vt 0.093379 0.882411
vt 0.093874 0.872530
vt 0.094368 0.873518
vt 0.094368 0.871542
vt 0.098320 0.872530
vt 0.097332 0.880435
vt 0.095850 0.877470
vt 0.091403 0.881423
vt 0.092391 0.872530
vt 0.096344 0.879447
vt 0.095850 0.883893
vt 0.098320 0.874506
vt 0.091897 0.876482
vt 0.088933 0.882411
vt 0.094862 0.887352
vt 0.092885 0.884881
vt 0.099308 0.887352
vt 0.093874 0.867589
vt 0.090909 0.864625
vt 0.092885 0.862648
vt 0.091403 0.870059
vt 0.091897 0.854743
vt 0.092391 0.856719
vt 0.094862 0.856719
vt 0.088933 0.863636
vt 0.090909 0.858202
vt 0.089427 0.861660
vt 0.095850 0.863142
vt 0.096344 0.879941
vt 0.098814 0.880435
vt 0.096344 0.867589
vt 0.096838 0.862154
vt 0.092885 0.861660
vt 0.090415 0.861166
vt 0.073123 0.877470
vt 0.074111 0.876976
vt 0.074605 0.875000
vt 0.071146 0.875494
vt 0.077569 0.878953
vt 0.071640 0.872530
vt 0.070158 0.878953
vt 0.075593 0.873024
vt 0.078063 0.879447
vt 0.077569 0.873024
vt 0.068676 0.875494
vt 0.070158 0.880929
vt 0.073617 0.879941
vt 0.075593 0.877470
vt 0.081028 0.878458
vt 0.079545 0.882411
vt 0.080040 0.882905
vt 0.084980 0.878458
vt 0.078557 0.884881
vt 0.082510 0.883893
vt 0.084486 0.887352
vt 0.069664 0.874506
vt 0.072628 0.869071
vt 0.075099 0.872036
vt 0.078063 0.869071
vt 0.076087 0.876976
vt 0.076087 0.872530
vt 0.078557 0.871542
vt 0.082016 0.875494
vt 0.066700 0.876976
vt 0.067688 0.874506
vt 0.069664 0.877470
vt 0.081522 0.877964
vt 0.085474 0.875494
vt 0.073123 0.855731
vt 0.074605 0.859684
vt 0.077569 0.855731
vt 0.079545 0.860178
vt 0.081028 0.854743
vt 0.071640 0.866107
vt 0.075593 0.863142
vt 0.077569 0.865119
vt 0.083498 0.854743
vt 0.083992 0.865119
vt 0.084486 0.865613
vt 0.091403 0.857213
vt 0.078063 0.871542
vt 0.080040 0.868577
vt 0.073617 0.871047
vt 0.077569 0.868577
vt 0.069664 0.871047
vt 0.074111 0.869565
vt 0.081028 0.870059
vt 0.084486 0.860178
vt 0.075099 0.866601
vt 0.069170 0.863636
vt 0.078557 0.869565
vt 0.073617 0.882411
vt 0.079545 0.879941
vt 0.072628 0.881917
vt 0.079051 0.884387
vt 0.083992 0.885870
vt 0.069664 0.881423
vt 0.077075 0.883893
vt 0.075593 0.865613
vt 0.072134 0.877964
vt 0.074605 0.875494
vt 0.078557 0.854249
vt 0.082510 0.854743
vt 0.075099 0.858202
vt 0.078557 0.875988
vt 0.082510 0.858202
vt 0.078557 0.860178
vt 0.086957 0.858696
vt 0.071640 0.874506
vt 0.072134 0.861660
vt 0.071640 0.864625
vt 0.077569 0.861660
vt 0.079051 0.865119
vt 0.081028 0.869565
vt 0.078063 0.874506
vt 0.075593 0.876976
vt 0.085474 0.878953
vt 0.083992 0.881917
vt 0.087451 0.881423
vt 0.085968 0.876482
vt 0.084980 0.879941
vt 0.087451 0.875988
vt 0.082016 0.873518
vt 0.082510 0.878458
vt 0.089427 0.884387
vt 0.087451 0.882411
vt 0.083004 0.880435
vt 0.085968 0.883893
vt 0.092391 0.888834
vt 0.088933 0.887352
vt 0.066700 0.878458
vt 0.071640 0.883893
vt 0.058300 0.874012
vt 0.061759 0.875494
vt 0.059289 0.876976
vt 0.077075 0.874012
vt 0.074605 0.873024
vt 0.054348 0.873518
vt 0.053854 0.871047
vt 0.056818 0.873518
vt 0.072134 0.870059
vt 0.072628 0.868083
vt 0.072628 0.867095
vt 0.063735 0.862154
vt 0.063241 0.866107
vt 0.060771 0.865119
vt 0.067194 0.863636
vt 0.068676 0.867095
vt 0.070652 0.879941
vt 0.072134 0.882411
vt 0.073617 0.879447
vt 0.075593 0.880435
vt 0.073617 0.883893
vt 0.055336 0.868083
vt 0.053854 0.868083
vt 0.052866 0.871047
vt 0.056324 0.875494
vt 0.058794 0.875494
vt 0.058794 0.878458
vt 0.060771 0.859684
vt 0.062747 0.860672
vt 0.082016 0.872036
vt 0.060771 0.871047
vt 0.061265 0.868577
vt 0.066206 0.873024
vt 0.059289 0.869565
vt 0.063241 0.866601
vt 0.068182 0.879447
vt 0.068182 0.874012
vt 0.072628 0.878458
vt 0.063735 0.879447
vt 0.064723 0.875494
vt 0.066206 0.876482
vt 0.160573 0.886858
vt 0.087451 0.863636
vt 0.087945 0.869565
vt 0.089427 0.855237
vt 0.089427 0.854743
vt 0.089921 0.860178
vt 0.069170 0.874506
vt 0.065711 0.873518
vt 0.082510 0.867589
vt 0.083498 0.879941
vt 0.086462 0.876976
vt 0.083992 0.875494
vt 0.083004 0.876976
vt 0.057312 0.869071
vt 0.074605 0.871542
vt 0.071640 0.869565
vt 0.068676 0.869071
vt 0.067688 0.871542
vt 0.083992 0.881423
vt 0.087451 0.885375
vt 0.085968 0.879941
vt 0.090909 0.886364
vt 0.085474 0.887352
vt 0.083992 0.869071
vt 0.082016 0.880435
vt 0.065217 0.854249
vt 0.064723 0.864130
vt 0.059783 0.875988
vt 0.055336 0.869071
vt 0.055336 0.871047
vt 0.088933 0.859190
vt 0.095850 0.870553
vt 0.098320 0.863636
vt 0.094862 0.860672
vt 0.088933 0.869565
vt 0.073123 0.877964
vt 0.072628 0.880929
vt 0.079051 0.876976
vt 0.070158 0.859684
vt 0.073123 0.853261
vt 0.084486 0.873518
vt 0.078063 0.873518
vt 0.076581 0.864625
vt 0.083992 0.865613
vt 0.065711 0.877964
vt 0.062253 0.875494
vt 0.071146 0.885375
vt 0.055336 0.873024
vt 0.060771 0.858696
vt 0.080040 0.869565
vt 0.062253 0.876976
vt 0.059783 0.874506
vt 0.062253 0.878953
vt 0.070652 0.882411
s 1
f 130/1/130 131/2/131 221/3/221
f 21/4/21 17/5/17 27/6/27
f 29/7/29 21/4/21 27/6/27
f 81/8/81 23/9/23 119/10/119
f 53/11/53 119/12/119 194/13/194
f 121/14/121 120/15/120 24/16/24
f 120/15/120 29/7/29 24/16/24
f 70/17/70 69/18/69 112/19/112
f 69/18/69 108/20/108 112/19/112
f 122/21/122 74/22/74 123/23/123
f 19/24/19 74/22/74 122/21/122
f 58/25/58 122/26/122 71/27/71
f 20/28/20 122/26/122 77/29/77
f 123/23/123 72/30/72 71/31/71
f 40/32/40 127/33/127 125/34/125
f 111/35/111 126/36/126 148/37/148
f 148/38/148 91/39/91 129/40/129
f 126/41/126 128/42/128 91/43/91
f 128/44/128 92/45/92 91/46/91
f 127/33/127 113/47/113 128/48/128
f 128/44/128 113/49/113 92/45/92
f 102/50/102 90/51/90 89/52/89
f 148/37/148 129/53/129 102/50/102
f 130/1/130 110/54/110 109/55/109
f 217/56/217 109/57/109 87/58/87
f 94/59/94 131/60/131 109/61/109
f 130/1/130 114/62/114 110/54/110
f 50/63/50 116/64/116 132/65/132
f 51/66/51 133/67/133 95/68/95
f 132/65/132 134/69/134 133/70/133
f 49/71/49 116/72/116 50/73/50
f 116/74/116 134/75/134 132/76/132
f 134/77/134 118/78/118 96/79/96
f 134/77/134 96/79/96 133/80/133
f 56/81/56 55/82/55 223/83/223
f 223/84/223 100/85/100 99/86/99
f 75/87/75 137/88/137 136/89/136
f 75/87/75 136/89/136 76/90/76
f 2/91/2 137/88/137 75/87/75
f 2/91/2 7/92/7 137/88/137
f 139/93/139 78/94/78 79/95/79
f 60/96/60 139/93/139 61/97/61
f 8/98/8 29/7/29 22/99/22
f 8/98/8 24/16/24 29/7/29
f 29/7/29 12/100/12 22/99/22
f 29/7/29 27/6/27 12/100/12
f 63/101/63 62/102/62 140/103/140
f 140/103/140 223/104/223 103/105/103
f 140/106/140 118/107/118 117/108/117
f 140/106/140 117/108/117 116/74/116
f 142/109/142 115/110/115 143/111/143
f 115/112/115 104/113/104 143/114/143
f 4/115/4 141/116/141 65/117/65
f 115/112/115 95/68/95 225/118/225
f 104/119/104 92/120/92 113/47/113
f 141/116/141 113/47/113 40/32/40
f 110/54/110 114/62/114 83/121/83
f 114/62/114 105/122/105 83/121/83
f 144/123/144 146/124/146 59/125/59
f 145/126/145 146/124/146 144/123/144
f 145/126/145 147/127/147 146/124/146
f 148/128/148 149/129/149 147/127/147
f 149/129/149 86/130/86 229/131/229
f 3/132/3 145/126/145 144/123/144
f 3/132/3 111/133/111 145/126/145
f 146/134/146 229/135/229 32/136/32
f 80/137/80 151/138/151 150/94/150
f 11/139/11 10/140/10 151/138/151
f 150/94/150 81/141/81 68/142/68
f 80/137/80 11/139/11 151/138/151
f 163/143/163 9/144/9 81/141/81
f 66/145/66 150/94/150 67/146/67
f 152/147/152 153/148/153 57/149/57
f 154/150/154 77/151/77 153/148/153
f 153/148/153 58/152/58 57/149/57
f 26/153/26 25/154/25 78/155/78
f 156/156/156 80/137/80 44/157/44
f 156/156/156 11/139/11 80/137/80
f 157/158/157 14/159/14 158/160/158
f 158/160/158 14/159/14 64/161/64
f 64/162/64 14/163/14 159/164/159
f 159/165/159 1/166/1 203/167/203
f 169/168/169 160/169/160 5/170/5
f 160/171/160 161/172/161 162/173/162
f 6/174/6 161/175/161 160/169/160
f 162/173/162 161/172/161 7/176/7
f 121/177/121 160/169/160 169/168/169
f 161/175/161 6/174/6 26/178/26
f 161/172/161 26/153/26 7/176/7
f 163/143/163 10/140/10 24/179/24
f 164/154/164 165/180/165 166/181/166
f 164/154/164 166/181/166 15/182/15
f 165/183/165 1/184/1 166/185/166
f 1/184/1 14/186/14 166/185/166
f 13/187/13 165/180/165 12/188/12
f 13/187/13 1/166/1 165/180/165
f 22/189/22 164/154/164 15/182/15
f 168/190/168 16/191/16 27/192/27
f 17/193/17 167/194/167 27/192/27
f 18/195/18 19/24/19 167/194/167
f 16/191/16 168/190/168 20/196/20
f 21/197/21 170/153/170 17/198/17
f 169/199/169 171/200/171 21/197/21
f 17/198/17 170/153/170 214/201/214
f 170/153/170 171/200/171 214/201/214
f 5/202/5 171/203/171 169/204/169
f 172/205/172 175/206/175 174/207/174
f 173/208/173 175/206/175 172/205/172
f 15/209/15 176/210/176 173/211/173
f 173/208/173 23/212/23 175/206/175
f 15/209/15 54/213/54 176/210/176
f 174/207/174 175/206/175 9/214/9
f 8/215/8 172/205/172 174/207/174
f 24/179/24 25/154/25 6/216/6
f 24/179/24 6/216/6 121/217/121
f 177/218/177 154/150/154 28/206/28
f 16/191/16 20/196/20 154/150/154
f 27/192/27 177/218/177 12/219/12
f 13/220/13 28/206/28 1/221/1
f 12/219/12 177/218/177 13/220/13
f 178/222/178 110/54/110 83/121/83
f 215/223/215 88/224/88 178/222/178
f 179/225/179 182/226/182 198/227/198
f 180/228/180 182/226/182 179/225/179
f 31/229/31 183/230/183 30/231/30
f 33/232/33 198/227/198 32/125/32
f 108/233/108 181/234/181 180/228/180
f 181/235/181 36/236/36 182/237/182
f 36/236/36 183/238/183 182/237/182
f 36/236/36 73/239/73 183/238/183
f 30/240/30 38/241/38 76/242/76
f 125/34/125 184/243/184 185/244/185
f 185/244/185 186/245/186 39/246/39
f 43/247/43 187/248/187 184/243/184
f 186/245/186 187/248/187 188/249/188
f 188/249/188 189/250/189 44/157/44
f 3/251/3 184/243/184 41/252/41
f 42/253/42 43/247/43 184/243/184
f 43/247/43 61/254/61 189/250/189
f 189/250/189 79/239/79 155/255/155
f 125/34/125 185/244/185 40/32/40
f 49/256/49 191/257/191 190/258/190
f 191/257/191 193/259/193 192/260/192
f 191/261/191 52/262/52 193/263/193
f 192/260/192 194/13/194 195/264/195
f 193/263/193 68/265/68 53/266/53
f 194/13/194 54/267/54 195/264/195
f 46/268/46 195/269/195 158/160/158
f 47/270/47 192/271/192 46/268/46
f 48/272/48 190/273/190 47/270/47
f 70/17/70 55/82/55 209/274/209
f 56/81/56 57/149/57 55/82/55
f 203/275/203 57/149/57 56/81/56
f 57/149/57 58/152/58 209/274/209
f 144/123/144 196/276/196 42/277/42
f 197/62/197 199/278/199 196/276/196
f 198/279/198 199/280/199 197/281/197
f 196/276/196 199/278/199 61/97/61
f 199/278/199 60/96/60 61/97/61
f 30/282/30 135/283/135 199/280/199
f 144/123/144 42/277/42 3/132/3
f 59/284/59 32/136/32 197/281/197
f 31/285/31 30/282/30 198/279/198
f 196/276/196 43/286/43 42/277/42
f 56/287/56 200/288/200 203/167/203
f 47/289/47 202/290/202 63/291/63
f 200/288/200 201/292/201 203/167/203
f 63/291/63 201/293/201 200/294/200
f 202/290/202 64/295/64 201/293/201
f 62/27/62 63/296/63 56/287/56
f 201/292/201 159/165/159 203/167/203
f 51/297/51 204/298/204 52/299/52
f 52/299/52 206/300/206 68/142/68
f 45/301/45 66/145/66 206/300/206
f 4/115/4 204/298/204 51/297/51
f 65/117/65 185/244/185 204/298/204
f 65/117/65 40/32/40 185/244/185
f 69/18/69 208/302/208 34/303/34
f 70/17/70 209/274/209 69/18/69
f 71/31/71 72/30/72 208/302/208
f 69/18/69 34/303/34 108/20/108
f 72/30/72 73/239/73 36/236/36
f 73/304/73 211/166/211 37/305/37
f 210/306/210 212/307/212 211/308/211
f 210/306/210 213/309/213 212/307/212
f 212/307/212 38/310/38 37/311/37
f 213/312/213 76/242/76 212/313/212
f 73/314/73 210/306/210 211/308/211
f 74/315/74 210/306/210 73/314/73
f 18/312/18 210/306/210 74/315/74
f 171/203/171 2/316/2 213/312/213
f 213/312/213 75/317/75 76/242/76
f 83/121/83 84/318/84 85/319/85
f 219/320/219 85/321/85 86/322/86
f 82/53/82 85/321/85 219/320/219
f 88/224/88 216/323/216 87/324/87
f 215/223/215 90/226/90 88/224/88
f 88/224/88 90/226/90 216/323/216
f 216/323/216 91/46/91 92/45/92
f 94/325/94 217/326/217 218/327/218
f 133/67/133 218/327/218 217/326/217
f 225/118/225 95/68/95 217/326/217
f 94/328/94 218/329/218 93/330/93
f 98/331/98 97/332/97 105/333/105
f 97/332/97 99/334/99 100/335/100
f 98/331/98 99/334/99 97/332/97
f 82/336/82 219/337/219 178/222/178
f 220/338/220 102/339/102 215/223/215
f 219/337/219 101/340/101 220/338/220
f 102/341/102 89/342/89 215/343/215
f 221/344/221 224/345/224 98/346/98
f 131/60/131 222/347/222 224/348/224
f 222/347/222 103/105/103 224/348/224
f 98/346/98 224/345/224 223/135/223
f 94/59/94 222/347/222 131/60/131
f 103/105/103 223/104/223 224/348/224
f 92/45/92 104/349/104 216/323/216
f 84/350/84 226/351/226 106/352/106
f 100/335/100 106/352/106 226/351/226
f 105/333/105 226/351/226 83/353/83
f 97/332/97 100/335/100 227/354/227
f 228/355/228 107/356/107 180/357/180
f 229/358/229 230/359/230 228/355/228
f 229/358/229 85/321/85 230/359/230
f 33/232/33 32/125/32 228/360/228
f 180/228/180 107/134/107 108/233/108
f 114/62/114 130/1/130 105/122/105
f 105/122/105 130/1/130 221/3/221
f 29/7/29 169/361/169 21/4/21
f 53/266/53 81/362/81 119/93/119
f 119/93/119 23/212/23 54/363/54
f 194/13/194 119/12/119 54/267/54
f 54/213/54 157/364/157 158/365/158
f 54/213/54 15/209/15 157/364/157
f 68/265/68 81/362/81 53/266/53
f 81/8/81 9/366/9 23/9/23
f 121/14/121 169/361/169 120/15/120
f 120/15/120 169/361/169 29/7/29
f 112/19/112 108/20/108 107/367/107
f 112/19/112 106/352/106 100/335/100
f 112/19/112 107/367/107 106/352/106
f 123/23/123 74/22/74 73/239/73
f 20/196/20 19/24/19 122/21/122
f 58/25/58 77/29/77 122/26/122
f 19/24/19 18/195/18 74/22/74
f 123/23/123 73/239/73 72/30/72
f 122/21/122 123/23/123 71/31/71
f 125/34/125 126/36/126 124/368/124
f 125/34/125 127/33/127 126/36/126
f 124/368/124 126/36/126 111/35/111
f 126/41/126 127/369/127 128/42/128
f 148/38/148 126/370/126 91/39/91
f 41/252/41 111/35/111 3/251/3
f 41/371/41 124/372/124 111/373/111
f 41/252/41 125/34/125 124/368/124
f 40/32/40 113/47/113 127/33/127
f 129/53/129 91/374/91 90/51/90
f 102/50/102 129/53/129 90/51/90
f 109/55/109 131/2/131 130/1/130
f 217/375/217 94/376/94 109/55/109
f 51/66/51 50/85/50 133/67/133
f 50/63/50 132/65/132 133/70/133
f 49/377/49 48/272/48 116/378/116
f 116/74/116 117/108/117 134/75/134
f 134/75/134 117/108/117 118/107/118
f 115/112/115 51/66/51 95/68/95
f 55/82/55 70/17/70 112/19/112
f 223/83/223 55/82/55 112/19/112
f 223/83/223 112/19/112 100/335/100
f 138/379/138 136/380/136 139/381/139
f 136/380/136 137/382/137 139/381/139
f 139/381/139 137/382/137 78/155/78
f 78/155/78 137/382/137 26/153/26
f 76/383/76 136/380/136 135/283/135
f 137/382/137 7/176/7 26/153/26
f 61/97/61 139/93/139 79/95/79
f 60/96/60 138/384/138 139/93/139
f 60/385/60 136/380/136 138/379/138
f 60/385/60 135/283/135 136/380/136
f 62/102/62 223/104/223 140/103/140
f 62/27/62 56/287/56 223/135/223
f 140/103/140 103/105/103 118/386/118
f 63/296/63 140/106/140 116/74/116
f 141/116/141 142/109/142 143/111/143
f 115/112/115 225/118/225 104/113/104
f 65/117/65 141/116/141 40/32/40
f 4/115/4 142/109/142 141/116/141
f 142/387/142 4/334/4 51/66/51
f 142/387/142 51/66/51 115/112/115
f 143/111/143 104/119/104 113/47/113
f 141/116/141 143/111/143 113/47/113
f 111/133/111 148/128/148 145/126/145
f 146/124/146 147/127/147 229/131/229
f 145/126/145 148/128/148 147/127/147
f 147/127/147 149/129/149 229/131/229
f 148/37/148 102/50/102 149/388/149
f 149/129/149 102/389/102 101/390/101
f 149/129/149 101/390/101 86/130/86
f 59/284/59 146/134/146 32/136/32
f 151/138/151 10/140/10 150/94/150
f 150/94/150 10/140/10 163/143/163
f 150/94/150 163/143/163 81/141/81
f 67/146/67 150/94/150 68/142/68
f 66/145/66 80/137/80 150/94/150
f 152/147/152 28/206/28 153/148/153
f 28/206/28 154/150/154 153/148/153
f 203/275/203 1/221/1 57/149/57
f 1/221/1 152/147/152 57/149/57
f 1/221/1 28/206/28 152/147/152
f 154/150/154 20/196/20 77/151/77
f 153/148/153 77/151/77 58/152/58
f 79/239/79 78/155/78 155/255/155
f 155/255/155 78/155/78 25/154/25
f 155/255/155 25/154/25 156/156/156
f 155/255/155 156/156/156 44/157/44
f 156/156/156 25/154/25 11/139/11
f 44/157/44 80/137/80 45/301/45
f 157/158/157 15/182/15 14/159/14
f 159/391/159 14/186/14 1/184/1
f 5/170/5 160/169/160 162/392/162
f 5/170/5 162/392/162 7/92/7
f 121/177/121 6/174/6 160/169/160
f 2/91/2 5/170/5 7/92/7
f 8/393/8 163/143/163 24/179/24
f 24/179/24 10/140/10 11/139/11
f 8/393/8 174/394/174 163/143/163
f 174/394/174 9/144/9 163/143/163
f 164/154/164 12/188/12 165/180/165
f 22/189/22 12/188/12 164/154/164
f 15/182/15 166/181/166 14/159/14
f 167/194/167 19/24/19 168/190/168
f 168/190/168 19/24/19 20/196/20
f 27/192/27 167/194/167 168/190/168
f 17/193/17 18/195/18 167/194/167
f 21/197/21 171/200/171 170/153/170
f 5/202/5 2/316/2 171/203/171
f 18/312/18 17/198/17 214/201/214
f 22/189/22 15/182/15 173/208/173
f 173/208/173 176/395/176 23/212/23
f 8/215/8 22/189/22 172/205/172
f 22/189/22 173/208/173 172/205/172
f 176/395/176 54/363/54 23/212/23
f 9/214/9 175/206/175 23/212/23
f 6/216/6 25/154/25 26/153/26
f 24/179/24 11/139/11 25/154/25
f 177/218/177 27/192/27 16/191/16
f 13/220/13 177/218/177 28/206/28
f 177/218/177 16/191/16 154/150/154
f 88/224/88 109/55/109 110/54/110
f 178/222/178 88/224/88 110/54/110
f 88/224/88 87/324/87 109/55/109
f 82/336/82 178/222/178 83/121/83
f 198/227/198 182/226/182 31/229/31
f 180/396/180 181/235/181 182/237/182
f 31/229/31 182/226/182 183/230/183
f 30/231/30 183/230/183 38/310/38
f 33/232/33 179/225/179 198/227/198
f 33/232/33 180/228/180 179/225/179
f 108/233/108 34/397/34 181/234/181
f 34/303/34 35/398/35 181/235/181
f 181/235/181 35/398/35 36/236/36
f 183/230/183 73/314/73 37/311/37
f 38/310/38 183/230/183 37/311/37
f 185/244/185 184/243/184 186/245/186
f 186/245/186 184/243/184 187/248/187
f 39/246/39 186/245/186 188/249/188
f 187/248/187 189/250/189 188/249/188
f 187/248/187 43/247/43 189/250/189
f 188/249/188 44/157/44 45/301/45
f 125/34/125 41/252/41 184/243/184
f 3/251/3 42/253/42 184/243/184
f 189/250/189 61/254/61 79/239/79
f 44/157/44 189/250/189 155/255/155
f 39/246/39 188/249/188 45/301/45
f 49/256/49 50/399/50 191/257/191
f 50/85/50 51/66/51 191/261/191
f 191/261/191 51/66/51 52/262/52
f 190/258/190 191/257/191 192/260/192
f 192/260/192 193/259/193 194/13/194
f 193/259/193 53/11/53 194/13/194
f 193/263/193 52/262/52 68/265/68
f 195/269/195 54/363/54 158/160/158
f 46/268/46 192/271/192 195/269/195
f 47/270/47 190/273/190 192/271/192
f 48/400/48 49/256/49 190/258/190
f 55/82/55 57/149/57 209/274/209
f 59/125/59 197/62/197 144/123/144
f 144/123/144 197/62/197 196/276/196
f 198/279/198 30/282/30 199/280/199
f 199/280/199 135/283/135 60/385/60
f 32/136/32 198/279/198 197/281/197
f 30/231/30 76/401/76 135/31/135
f 43/286/43 196/276/196 61/97/61
f 56/287/56 63/296/63 200/288/200
f 63/291/63 48/400/48 47/289/47
f 63/291/63 202/290/202 201/293/201
f 63/291/63 116/64/116 48/400/48
f 47/270/47 46/268/46 202/402/202
f 46/268/46 158/160/158 202/402/202
f 202/290/202 158/365/158 64/295/64
f 201/292/201 64/161/64 159/165/159
f 52/299/52 204/298/204 205/403/205
f 204/298/204 185/244/185 205/403/205
f 205/403/205 185/244/185 39/246/39
f 52/299/52 205/403/205 206/300/206
f 205/403/205 39/246/39 206/300/206
f 39/246/39 45/301/45 206/300/206
f 68/142/68 206/300/206 207/404/207
f 206/300/206 66/145/66 207/404/207
f 4/115/4 65/117/65 204/298/204
f 66/145/66 45/301/45 80/137/80
f 207/404/207 66/145/66 67/146/67
f 68/142/68 207/404/207 67/146/67
f 34/303/34 208/302/208 35/398/35
f 69/18/69 209/274/209 208/302/208
f 208/302/208 72/30/72 35/398/35
f 209/274/209 71/31/71 208/302/208
f 209/405/209 58/25/58 71/27/71
f 35/398/35 72/30/72 36/236/36
f 211/308/211 212/307/212 37/311/37
f 210/306/210 214/201/214 213/309/213
f 214/201/214 171/200/171 213/309/213
f 212/313/212 76/242/76 38/241/38
f 18/312/18 214/201/214 210/306/210
f 213/312/213 2/316/2 75/317/75
f 82/53/82 83/374/83 85/321/85
f 84/350/84 106/352/106 85/406/85
f 216/323/216 90/226/90 91/46/91
f 215/223/215 89/40/89 90/226/90
f 93/330/93 218/329/218 96/79/96
f 217/326/217 95/68/95 133/67/133
f 96/79/96 218/329/218 133/80/133
f 118/78/118 93/330/93 96/79/96
f 221/119/221 98/331/98 105/333/105
f 98/331/98 223/83/223 99/334/99
f 178/222/178 219/337/219 220/338/220
f 178/222/178 220/338/220 215/223/215
f 220/338/220 101/340/101 102/339/102
f 219/337/219 86/407/86 101/340/101
f 221/344/221 131/408/131 224/345/224
f 222/347/222 93/409/93 103/105/103
f 93/409/93 118/386/118 103/105/103
f 94/59/94 93/409/93 222/347/222
f 225/410/225 217/375/217 216/323/216
f 217/375/217 87/324/87 216/323/216
f 225/410/225 216/323/216 104/349/104
f 105/333/105 227/354/227 226/351/226
f 227/354/227 100/335/100 226/351/226
f 105/333/105 97/332/97 227/354/227
f 83/353/83 226/351/226 84/350/84
f 228/360/228 32/125/32 229/131/229
f 228/355/228 230/359/230 107/356/107
f 230/411/230 85/412/85 106/413/106
f 229/358/229 86/322/86 85/321/85
f 180/357/180 33/414/33 228/355/228
f 107/134/107 230/411/230 106/413/106
