# Blender 4.2.1 LTS
# www.blender.org
o RockPlatform
v 1.148219 1.016704 1.020969
v -1.994503 1.360699 -0.047771
v -1.069856 -0.572737 -0.814547
v 0.786652 -0.490288 -0.674667
v -1.870397 1.527684 -0.028330
v -1.020207 1.566619 -1.031263
v -1.806948 1.371139 -0.585723
v 0.957997 1.550578 -1.055988
v 1.107552 1.060125 -1.192874
v 0.411516 1.145446 -1.376868
v 0.017433 1.173753 -1.404336
v 1.040790 1.512998 1.005504
v 1.100990 1.176563 1.073927
v 1.646305 0.995304 0.618062
v 1.874743 1.058969 -0.043501
v -0.077535 1.415650 1.350622
v -1.044747 1.703522 1.091813
v -1.246125 1.254251 1.254028
v -1.007773 1.227646 1.338731
v -0.130535 1.251094 1.318152
v -1.386602 1.764688 0.573467
v 1.786930 1.505542 -0.001975
v 1.298817 1.037281 -0.929620
v -0.001861 1.703714 -1.284642
v -0.492937 1.240110 -1.092148
v -1.028480 1.400862 -1.002134
v -0.076420 1.704808 1.400295
v 0.771942 1.106360 1.260481
v 0.008834 1.831127 0.007582
v -1.741854 0.365014 0.055877
v -1.701712 0.166684 0.091989
v -1.686320 -0.382610 0.183551
v -1.478298 -0.298248 0.532081
v -0.934337 -0.005687 1.112591
v -0.905692 0.253720 1.080580
v -1.034077 0.446605 1.047810
v -1.369924 0.673596 0.651471
v -1.634668 0.623198 0.174376
v 0.007944 0.090704 -1.212449
v -0.031848 -0.636905 -1.087483
v -0.788078 -0.595415 -0.973748
v -1.059484 -0.387365 -0.858303
v -0.914234 0.085284 -0.737834
v -0.418539 0.585605 -1.243711
v -0.016346 0.416508 -1.198728
v 1.880561 0.323246 0.031991
v 1.742546 0.051306 0.079658
v 1.738561 -0.283094 0.122231
v 1.502124 -0.330749 -0.085509
v 1.010862 -0.466808 -0.313765
v 0.811589 -0.378194 -0.621110
v 0.913410 0.059110 -0.886862
v 0.939044 0.713818 -0.765363
v 1.512906 0.997230 -0.271402
v 0.319703 0.031690 1.041729
v 0.814958 -0.041463 0.882499
v 0.869976 0.598813 1.311054
v -0.015620 0.657700 1.198165
v -1.506746 -0.373760 0.167290
v -1.255908 0.529704 -0.411165
v -1.012857 0.479942 -0.936158
v 0.851076 -0.322983 0.822758
v 1.224591 -0.125973 0.381452
v 1.329011 0.680700 0.415208
v 0.222817 -0.588559 -1.038345
v 0.128960 0.612251 -1.129123
v 0.547890 0.684784 -1.042546
v 0.882757 0.660420 -0.841238
v -0.496043 -0.061393 1.269434
v -0.045066 -0.000290 1.273369
v -0.109461 0.613389 1.066960
v -0.494668 0.658554 0.951715
v -0.983573 0.775866 0.946853
v -1.130149 1.054188 1.201817
v -1.920743 1.127546 -0.033420
v -1.982813 0.812084 -0.006337
v -0.040479 0.863916 1.302690
v -0.968139 1.059595 -0.934811
v -0.956184 0.740475 -1.050607
v 0.008282 0.807415 -1.251428
v 0.963935 0.859589 -0.977547
v -0.539122 -1.319988 0.563929
v -0.271383 -1.301918 0.827490
v -0.454106 -1.133149 0.964422
v -0.978795 -0.994917 0.510135
v -1.145024 -1.140745 0.411916
v 0.222658 -1.496458 0.230803
v 0.038269 -1.481046 0.213776
v -0.518974 -1.456058 -0.087363
v -0.371256 -1.419581 -0.121938
v -0.291365 -1.326514 -0.316582
v 0.161250 -1.316930 -0.638449
v 0.963086 -1.139601 0.537892
v 0.643483 -1.330739 0.566976
v 0.792585 -1.080997 -0.285540
v 1.316976 -1.009062 0.320691
v 0.166079 -0.996292 1.128636
v 0.596509 -1.015972 0.998461
v 0.497525 -0.718561 1.108048
v 0.051430 -0.632259 1.176148
v -0.940351 -1.286508 0.194829
v -0.603037 -1.377750 -0.070219
v 1.235775 -0.923146 0.665532
v 0.481216 -1.224637 -0.581226
v 0.197550 -1.202135 0.962260
v -0.616198 -0.736815 0.975524
v -0.759313 -0.506403 0.945839
v -0.905675 -0.188447 1.084506
v 0.314411 -1.491760 0.262089
v 0.186281 -1.438028 0.397431
v -0.854776 -0.815959 -0.590144
v 0.003753 -0.402807 1.174728
v 0.104565 -1.047061 -1.080198
v 0.252614 -1.350898 0.659820
v 0.822419 -0.950554 -0.493699
v 1.632238 -0.394405 0.170902
v 1.696273 -0.776017 0.404181
v 1.543984 -0.952734 0.502756
v 1.200051 0.848679 -0.599379
v -0.630936 1.795401 -0.617538
v -0.987014 1.816385 -0.963270
v -0.171606 0.987391 1.190319
v -0.261041 0.859578 1.081801
v -0.694383 -0.739689 -0.784669
v -0.182955 -0.626686 -1.020907
v -0.390791 -0.960905 -0.822644
v -0.125919 -1.025874 -1.030896
v -0.109784 -1.136688 -0.922888
v -0.487660 -1.319843 -0.153165
v 0.418176 -1.342074 0.579379
v 0.640654 -1.321353 0.567806
v 1.502977 -0.665680 0.074996
v 0.949428 -1.009853 -0.098765
v 1.567074 -0.821952 0.222083
v -1.799624 0.753724 -0.185513
v -1.716965 0.968577 -0.281505
v -1.786879 1.242442 -0.595808
v -1.237636 0.757354 -0.509703
v -1.126437 0.896965 -0.735642
v 1.580162 -0.725961 0.555848
v 0.306140 -0.718737 -0.960126
v 0.769015 -0.685275 -0.605722
v 0.278610 -1.008956 -1.009556
v -1.256123 -0.415286 -0.147822
v -1.006250 -0.703199 -0.293057
v -1.357948 -0.644292 0.288858
v -1.139597 -0.937592 0.006962
v -0.768736 -1.042620 -0.391025
v -1.033835 -1.131496 0.002922
v 0.579276 0.900080 -1.229361
v 0.249657 0.927615 -1.321804
v 0.832349 0.954198 1.190688
v 0.515922 0.818042 1.276243
v 0.293054 0.995634 1.353828
v -0.594243 0.728925 -1.217137
v -0.243721 1.010396 -1.214829
v 1.755234 0.870286 -0.024510
v 1.761149 0.817569 -0.016665
v 1.261066 0.855410 0.775748
v -1.263126 1.750560 -0.632424
v -1.128429 1.520238 -0.886658
v -1.549623 1.601984 -0.430952
v 0.772990 1.126201 -1.259713
v 1.689631 1.345762 0.257952
v 1.258438 1.316316 0.846050
v 1.644852 1.164557 0.618670
v -0.707063 1.582107 1.229789
v -0.294210 1.469562 1.321301
v -1.746612 1.831041 -0.004874
v -1.421777 1.533962 0.647617
v -1.602208 1.344996 0.286553
v 1.377910 1.442289 -0.620231
v 1.605215 1.249033 -0.276950
v 1.127370 1.306482 -1.166282
v 1.280343 1.199529 -0.990306
v 1.581524 1.058828 -0.271823
v 0.454743 1.516284 1.230066
v -0.239393 -1.436862 0.338562
v -1.405962 -0.109198 0.495842
v -1.109696 -0.133957 0.828716
v -1.053491 0.106135 1.001866
v -1.535508 0.334621 0.769551
v -1.532686 0.417255 0.756644
v -0.734031 -0.414231 -1.036378
v -0.011454 -0.261193 -1.039876
v -0.354769 -0.029364 -0.963150
v -0.516410 0.049611 -0.881992
v -0.278518 0.215600 -1.077461
v -0.702703 0.478957 -1.142748
v 1.549965 0.003175 -0.140891
v 1.012024 -0.162113 -0.453888
v 1.680865 0.252747 -0.281202
v 1.022390 0.203653 -0.694724
v 1.507152 0.358352 -0.450236
v 1.722482 0.415418 -0.277436
v -0.969849 0.088187 -0.600909
v -1.535213 -0.186091 0.171634
v -1.586139 -0.085143 0.142266
v -1.219028 0.329052 -0.318960
v 1.084177 0.085618 0.561581
v 1.272640 0.404245 0.540135
v 1.697849 0.338249 0.253953
v 1.108790 0.543102 1.153421
v 0.481663 -0.330519 -0.882114
v 0.489175 0.004430 -1.121459
v 0.488459 0.216090 -1.161910
v 0.520224 0.522596 -1.042323
v -0.605038 0.231110 1.201077
v -0.019515 0.386927 1.183753
v -1.363059 1.121996 0.985991
v -1.234458 0.858297 0.717924
v -1.426804 0.938533 0.360288
v -1.509715 1.082772 0.296244
v -1.424893 1.255959 1.006316
v -0.269771 -1.473001 0.200207
v 0.198085 -1.386996 -0.095918
v 0.462182 -1.406599 0.238274
v 0.803424 -1.207040 0.491046
v -0.825072 -1.209211 0.412805
v -0.559708 -1.325112 0.234783
v 0.502373 -1.222031 0.828286
v 0.806831 -1.201271 0.553828
v 0.743679 -0.726508 1.001490
v 0.748176 -1.055970 0.731441
v 0.714857 -1.181433 -0.307123
v -0.218767 -1.147662 1.028616
v 0.087975 -0.990777 1.080495
v -1.306148 -0.478044 0.643515
v -1.316169 -0.792875 0.315627
v -0.816373 -0.754617 0.761951
vn 0.6816 0.0001 0.7317
vn -0.9640 0.1464 0.2220
vn -0.7442 -0.4426 -0.5003
vn 0.8135 -0.0828 -0.5756
vn -0.8258 0.5243 0.2077
vn -0.5359 0.0707 -0.8413
vn -0.7336 0.3455 -0.5852
vn 0.3246 0.7750 -0.5422
vn 0.4315 -0.4022 -0.8075
vn 0.2224 -0.0091 -0.9749
vn -0.2175 -0.0502 -0.9748
vn 0.4537 0.6752 0.5816
vn 0.6091 0.1049 0.7861
vn 0.7575 -0.3723 0.5363
vn 0.9523 -0.1661 -0.2561
vn -0.0172 -0.1019 0.9946
vn -0.3474 0.7610 0.5479
vn -0.6082 0.0221 0.7934
vn -0.1814 -0.0873 0.9795
vn -0.1434 -0.1871 0.9718
vn -0.5386 0.7543 0.3753
vn 0.7776 0.6273 -0.0433
vn 0.7603 -0.4758 -0.4422
vn -0.0158 0.6979 -0.7160
vn -0.3267 0.0271 -0.9447
vn -0.4123 -0.1095 -0.9044
vn 0.0654 0.5809 0.8113
vn 0.3607 0.0530 0.9312
vn 0.0983 0.9951 0.0086
vn -0.9346 -0.3063 -0.1808
vn -0.7528 -0.3438 -0.5613
vn -0.8909 -0.2243 -0.3949
vn -0.7893 0.0319 0.6131
vn -0.5574 -0.0615 0.8279
vn -0.3027 0.1706 0.9377
vn -0.2664 0.1642 0.9498
vn -0.7143 0.4795 0.5097
vn -0.7570 0.0852 0.6478
vn -0.1654 -0.2060 -0.9645
vn -0.0940 0.0349 -0.9950
vn -0.2991 -0.5292 -0.7940
vn -0.7567 0.1267 -0.6414
vn -0.7355 -0.0685 -0.6741
vn -0.1092 -0.1862 -0.9764
vn 0.0401 -0.0663 -0.9970
vn 0.9895 -0.1061 0.0977
vn 0.9151 -0.3561 0.1891
vn 0.9369 -0.3146 0.1522
vn 0.5507 -0.5287 -0.6460
vn 0.6337 -0.3416 -0.6941
vn 0.7655 -0.2565 -0.5901
vn 0.7184 -0.2258 -0.6579
vn 0.7260 -0.3202 -0.6086
vn 0.7295 -0.3386 -0.5943
vn 0.2781 -0.1595 0.9472
vn 0.5819 -0.2593 0.7708
vn 0.2646 -0.1090 0.9582
vn -0.4707 -0.2412 0.8487
vn -0.4458 -0.3168 -0.8372
vn -0.7106 -0.3154 -0.6289
vn -0.7437 -0.2860 -0.6043
vn 0.7247 0.1341 0.6759
vn 0.6266 0.0949 0.7736
vn 0.7843 -0.2484 0.5685
vn 0.3416 -0.0789 -0.9365
vn 0.3150 -0.1415 -0.9385
vn 0.3637 -0.4087 -0.8370
vn 0.7034 -0.2295 -0.6727
vn -0.1677 -0.1524 0.9740
vn 0.2490 0.0091 0.9685
vn -0.4996 0.0423 0.8652
vn -0.1584 0.0480 0.9862
vn -0.3596 -0.2397 0.9018
vn -0.3751 -0.6263 0.6834
vn -0.9624 -0.1416 0.2320
vn -0.9858 -0.1313 0.1044
vn -0.4175 -0.3234 0.8492
vn -0.4930 -0.0578 -0.8681
vn -0.6476 0.0538 -0.7601
vn 0.0116 -0.2841 -0.9587
vn 0.4394 -0.7066 -0.5547
vn -0.4156 -0.8495 0.3251
vn -0.1881 -0.8711 0.4537
vn -0.4476 -0.5264 0.7229
vn -0.5091 -0.3845 0.7701
vn -0.6564 -0.5780 0.4848
vn 0.0439 -0.9988 0.0235
vn -0.0242 -0.9997 0.0029
vn -0.4293 -0.7778 -0.4591
vn -0.0854 -0.8808 -0.4657
vn -0.2471 -0.8822 -0.4009
vn 0.0911 -0.9342 -0.3450
vn 0.3761 -0.8745 0.3061
vn 0.1227 -0.7222 0.6807
vn 0.8095 -0.5428 -0.2240
vn 0.3770 -0.8932 -0.2452
vn -0.1280 -0.4147 0.9009
vn 0.4938 -0.4794 0.7255
vn 0.3109 0.3544 0.8819
vn -0.0267 -0.0500 0.9984
vn -0.4239 -0.9054 0.0239
vn -0.3999 -0.8559 -0.3280
vn 0.3622 -0.5298 0.7669
vn 0.4582 -0.7995 -0.3884
vn 0.1039 -0.7452 0.6587
vn -0.4795 -0.1935 0.8559
vn -0.4389 -0.3615 0.8226
vn -0.5443 -0.3957 0.7397
vn 0.2124 -0.9644 -0.1577
vn 0.0032 -0.9486 0.3165
vn -0.6075 -0.6943 -0.3858
vn 0.0759 -0.1058 0.9915
vn 0.1366 -0.4387 -0.8882
vn 0.1466 -0.9125 0.3818
vn 0.9160 -0.2625 -0.3035
vn 0.9808 -0.1624 0.1078
vn 0.9748 -0.2002 0.0986
vn 0.6000 -0.7222 0.3441
vn 0.6728 -0.3972 -0.6241
vn 0.0436 0.9978 -0.0490
vn -0.3467 0.7653 -0.5424
vn -0.4248 -0.4221 0.8008
vn -0.2529 -0.4562 0.8532
vn -0.3077 -0.7022 -0.6420
vn -0.3003 -0.1148 -0.9469
vn -0.5180 -0.5306 -0.6710
vn -0.4284 -0.3878 -0.8161
vn -0.3319 -0.7867 -0.5205
vn -0.3129 -0.7089 -0.6321
vn 0.1342 -0.9130 0.3852
vn 0.1069 -0.5598 0.8217
vn 0.6468 -0.2449 -0.7223
vn 0.5957 -0.6629 -0.4535
vn 0.6660 -0.5397 -0.5149
vn -0.6196 -0.2887 -0.7299
vn -0.6634 -0.3957 -0.6351
vn -0.6990 -0.3389 -0.6297
vn -0.6802 -0.3431 -0.6478
vn -0.7242 -0.2948 -0.6235
vn 0.6606 0.1192 0.7412
vn 0.4996 -0.0505 -0.8648
vn 0.7026 -0.1725 -0.6904
vn 0.5017 -0.3162 -0.8052
vn -0.8476 -0.2846 -0.4478
vn -0.8024 -0.5033 -0.3206
vn -0.3922 -0.3436 -0.8533
vn -0.8287 -0.3387 -0.4457
vn -0.5643 -0.6516 -0.5070
vn -0.6949 -0.5906 -0.4102
vn 0.2995 -0.5178 -0.8013
vn 0.0885 -0.4937 -0.8651
vn 0.3807 0.0369 0.9239
vn 0.0574 -0.0936 0.9939
vn 0.0662 -0.1090 0.9918
vn -0.2883 0.0819 -0.9540
vn -0.3197 -0.0183 -0.9473
vn 0.9085 -0.2226 -0.3536
vn 0.9918 0.1068 -0.0704
vn 0.7777 -0.4029 0.4825
vn -0.7373 0.2577 -0.6245
vn -0.6668 0.2864 -0.6880
vn -0.5553 0.7199 -0.4164
vn 0.2716 -0.1003 -0.9572
vn 0.8192 0.3742 0.4347
vn 0.6895 0.3275 0.6461
vn 0.7675 0.3277 0.5510
vn -0.2205 0.2962 0.9293
vn -0.1317 -0.0385 0.9905
vn -0.6858 0.7269 0.0363
vn -0.8570 0.3484 0.3798
vn -0.8368 -0.0186 0.5472
vn 0.7652 0.4315 -0.4777
vn 0.8136 0.0175 -0.5811
vn 0.4998 0.3563 -0.7894
vn 0.8459 0.1157 -0.5207
vn 0.7054 -0.4084 -0.5794
vn 0.2920 0.1669 0.9417
vn -0.1732 -0.9549 0.2414
vn -0.8319 -0.0605 0.5517
vn -0.6527 -0.2928 0.6988
vn -0.5969 -0.1500 0.7882
vn -0.7848 -0.1335 0.6053
vn -0.7754 0.3027 0.5542
vn -0.2646 0.0476 -0.9632
vn -0.0173 -0.1415 -0.9898
vn -0.3467 0.0089 -0.9380
vn -0.3502 -0.0921 -0.9321
vn -0.3322 -0.3385 -0.8804
vn -0.3595 -0.3587 -0.8615
vn 0.6356 -0.4203 -0.6476
vn 0.6729 -0.3902 -0.6284
vn 0.6887 -0.3891 -0.6118
vn 0.7304 -0.1692 -0.6617
vn 0.5700 -0.1033 -0.8152
vn 0.7749 0.0486 -0.6302
vn -0.9059 -0.0626 -0.4189
vn -0.3556 -0.1984 -0.9133
vn -0.8653 -0.3319 -0.3757
vn -0.7240 -0.3235 -0.6092
vn 0.7411 -0.2911 0.6050
vn 0.7882 -0.1922 0.5846
vn 0.6643 -0.0245 0.7471
vn 0.7241 -0.2362 0.6480
vn 0.4520 -0.2687 -0.8506
vn 0.3167 -0.3683 -0.8741
vn 0.3318 0.0427 -0.9424
vn 0.3399 0.1638 -0.9261
vn -0.2199 0.3215 0.9210
vn -0.0645 0.0890 0.9939
vn -0.7485 -0.5428 0.3809
vn -0.7885 -0.2442 0.5645
vn -0.8407 -0.0867 0.5345
vn -0.7957 -0.1841 0.5771
vn -0.8975 0.0219 0.4405
vn -0.1855 -0.9753 0.1199
vn 0.1529 -0.9594 -0.2369
vn 0.4603 -0.8688 -0.1827
vn 0.4693 -0.8531 -0.2279
vn -0.3276 -0.8126 0.4820
vn -0.3018 -0.9344 0.1892
vn 0.3393 -0.7786 0.5278
vn 0.2874 -0.4043 0.8683
vn 0.4651 -0.1042 0.8791
vn 0.4803 -0.6166 0.6238
vn 0.6289 -0.7597 -0.1653
vn -0.1366 -0.5064 0.8514
vn -0.2258 -0.4023 0.8872
vn -0.6038 -0.3717 0.7052
vn -0.8612 -0.4915 0.1295
vn -0.6136 -0.3634 0.7010
vt 0.068676 0.868083
vt 0.070652 0.866601
vt 0.068182 0.865119
vt 0.166502 0.869565
vt 0.166502 0.865613
vt 0.170455 0.860178
vt 0.177372 0.867589
vt 0.087945 0.868577
vt 0.089427 0.865119
vt 0.086462 0.864625
vt 0.086957 0.868083
vt 0.089921 0.867589
vt 0.086462 0.860672
vt 0.175395 0.877470
vt 0.176383 0.874012
vt 0.183300 0.874506
vt 0.074605 0.868577
vt 0.071146 0.871047
vt 0.070158 0.865119
vt 0.068182 0.873024
vt 0.083004 0.877470
vt 0.079051 0.883893
vt 0.081522 0.876976
vt 0.081522 0.884881
vt 0.063241 0.873024
vt 0.067688 0.875988
vt 0.063735 0.871047
vt 0.069170 0.878458
vt 0.065711 0.875494
vt 0.078557 0.877470
vt 0.080040 0.874506
vt 0.067194 0.863142
vt 0.062253 0.860672
vt 0.066700 0.864130
vt 0.060771 0.867095
vt 0.061759 0.862648
vt 0.059289 0.864625
vt 0.069170 0.881423
vt 0.071146 0.876976
vt 0.068676 0.877964
vt 0.080040 0.873024
vt 0.078063 0.870553
vt 0.072134 0.873024
vt 0.076581 0.879941
vt 0.075593 0.876482
vt 0.071640 0.877964
vt 0.064229 0.858696
vt 0.061265 0.859684
vt 0.078557 0.878953
vt 0.056324 0.860672
vt 0.057312 0.857708
vt 0.055830 0.858696
vt 0.057312 0.860178
vt 0.069170 0.870059
vt 0.070158 0.870553
vt 0.062253 0.853261
vt 0.060277 0.853261
vt 0.059783 0.853755
vt 0.063241 0.852273
vt 0.063241 0.852767
vt 0.059783 0.852767
vt 0.068182 0.869071
vt 0.075099 0.857213
vt 0.079051 0.853261
vt 0.075099 0.852273
vt 0.070652 0.861166
vt 0.060771 0.858696
vt 0.060771 0.856719
vt 0.074111 0.849802
vt 0.068182 0.852767
vt 0.084486 0.859190
vt 0.083498 0.857213
vt 0.083498 0.864130
vt 0.066206 0.866601
vt 0.061265 0.863142
vt 0.063735 0.863636
vt 0.078063 0.861660
vt 0.076087 0.860672
vt 0.075593 0.863142
vt 0.076581 0.868083
vt 0.078063 0.862648
vt 0.076087 0.866107
vt 0.071146 0.857708
vt 0.073123 0.858202
vt 0.068182 0.862154
vt 0.071146 0.859684
vt 0.082510 0.878458
vt 0.086957 0.875000
vt 0.082016 0.875494
vt 0.078557 0.875494
vt 0.085474 0.880435
vt 0.088439 0.876482
vt 0.083992 0.871542
vt 0.086462 0.871542
vt 0.083992 0.868083
vt 0.078557 0.870553
vt 0.080534 0.867095
vt 0.187253 0.869071
vt 0.187253 0.860178
vt 0.178854 0.857213
vt 0.079545 0.859190
vt 0.075099 0.859190
vt 0.075099 0.850791
vt 0.070158 0.856719
vt 0.071146 0.851285
vt 0.060771 0.866107
vt 0.058300 0.863142
vt 0.060771 0.864625
vt 0.071146 0.857213
vt 0.068676 0.854743
vt 0.064723 0.857708
vt 0.063735 0.856719
vt 0.061265 0.853755
vt 0.066206 0.852767
vt 0.073123 0.858696
vt 0.068182 0.860178
vt 0.069170 0.861660
vt 0.060277 0.856225
vt 0.064229 0.854743
vt 0.061265 0.855731
vt 0.063735 0.870553
vt 0.065711 0.867095
vt 0.067194 0.864625
vt 0.061759 0.866107
vt 0.065711 0.866601
vt 0.064723 0.861166
vt 0.060771 0.861660
vt 0.061759 0.857213
vt 0.058300 0.859684
vt 0.056324 0.861660
vt 0.060277 0.864625
vt 0.069170 0.858696
vt 0.065217 0.858202
vt 0.060277 0.871542
vt 0.058300 0.870059
vt 0.061265 0.876482
vt 0.083004 0.875000
vt 0.084980 0.874012
vt 0.086462 0.877470
vt 0.088439 0.875494
vt 0.088439 0.869071
vt 0.085968 0.867589
vt 0.090415 0.872530
vt 0.090909 0.869565
vt 0.081028 0.873024
vt 0.084486 0.870059
vt 0.088439 0.870553
vt 0.085474 0.871542
vt 0.084486 0.867095
vt 0.085968 0.874506
vt 0.082510 0.875494
vt 0.081028 0.874012
vt 0.083498 0.886364
vt 0.084980 0.881917
vt 0.080040 0.883893
vt 0.083992 0.878458
vt 0.078063 0.875988
vt 0.080534 0.875988
vt 0.078557 0.881423
vt 0.080040 0.875000
vt 0.076581 0.876976
vt 0.080040 0.858202
vt 0.080534 0.854743
vt 0.077075 0.856225
vt 0.076087 0.881423
vt 0.076581 0.884387
vt 0.070158 0.880435
vt 0.089921 0.884881
vt 0.092885 0.879447
vt 0.086957 0.881917
vt 0.085474 0.891798
vt 0.084486 0.888834
vt 0.082510 0.891798
vt 0.092885 0.875000
vt 0.091897 0.875494
vt 0.079051 0.891798
vt 0.095356 0.878458
vt 0.090909 0.874506
vt 0.092391 0.882411
vt 0.081028 0.885870
vt 0.080040 0.882905
vt 0.082510 0.876976
vt 0.095356 0.871047
vt 0.091403 0.868577
vt 0.095850 0.867095
vt 0.093874 0.865613
vt 0.077569 0.886364
vt 0.081522 0.888834
vt 0.087451 0.880929
vt 0.087451 0.881917
vt 0.088439 0.880435
vt 0.091403 0.882905
vt 0.086462 0.888834
vt 0.086462 0.885870
vt 0.080534 0.886858
vt 0.086462 0.879941
vt 0.085968 0.888340
vt 0.083004 0.891304
vt 0.090415 0.884387
vt 0.083498 0.882905
vt 0.078063 0.886364
vt 0.080534 0.893775
vt 0.080040 0.890810
vt 0.084486 0.896245
vt 0.089921 0.876482
vt 0.089427 0.872036
vt 0.091897 0.871542
vt 0.086462 0.876976
vt 0.095356 0.864130
vt 0.094368 0.866107
vt 0.096344 0.867589
vt 0.087451 0.870553
vt 0.092885 0.866601
vt 0.089427 0.869071
vt 0.093874 0.874012
vt 0.085474 0.888340
vt 0.087451 0.889822
vt 0.091897 0.877964
vt 0.095356 0.873518
vt 0.092391 0.871047
vt 0.090415 0.869071
vt 0.067194 0.874012
vt 0.068182 0.874012
vt 0.069664 0.872530
vt 0.066700 0.871047
vt 0.070158 0.877470
vt 0.068676 0.869071
vt 0.064229 0.873518
vt 0.071640 0.871542
vt 0.070652 0.877964
vt 0.073617 0.872530
vt 0.064229 0.870059
vt 0.062747 0.875000
vt 0.066206 0.876482
vt 0.069664 0.875494
vt 0.073617 0.878953
vt 0.070158 0.881423
vt 0.070158 0.881917
vt 0.077075 0.880929
vt 0.068182 0.883399
vt 0.071640 0.884387
vt 0.071640 0.888340
vt 0.065711 0.869565
vt 0.071146 0.866107
vt 0.071640 0.870553
vt 0.075593 0.869071
vt 0.069664 0.875000
vt 0.072134 0.871542
vt 0.075099 0.871542
vt 0.075593 0.876976
vt 0.062253 0.870553
vt 0.063735 0.868577
vt 0.064723 0.872036
vt 0.074111 0.878953
vt 0.078557 0.878458
vt 0.078557 0.855237
vt 0.078063 0.859684
vt 0.082510 0.857213
vt 0.082016 0.862648
vt 0.085968 0.858696
vt 0.072134 0.863142
vt 0.076581 0.863142
vt 0.077569 0.865613
vt 0.087945 0.860178
vt 0.083004 0.869071
vt 0.083498 0.869565
vt 0.093379 0.866107
vt 0.074605 0.871542
vt 0.077569 0.870059
vt 0.071146 0.869071
vt 0.075593 0.868577
vt 0.067688 0.867095
vt 0.072134 0.867589
vt 0.077569 0.871542
vt 0.085968 0.865119
vt 0.074605 0.865613
vt 0.071146 0.860178
vt 0.076087 0.870059
vt 0.064723 0.878458
vt 0.071146 0.879447
vt 0.064229 0.877470
vt 0.068676 0.882905
vt 0.072134 0.886858
vt 0.062253 0.875494
vt 0.067194 0.880929
vt 0.075593 0.865119
vt 0.066206 0.874012
vt 0.069170 0.873024
vt 0.083992 0.856719
vt 0.086957 0.859684
vt 0.079051 0.858696
vt 0.072628 0.875494
vt 0.085474 0.862648
vt 0.081028 0.861660
vt 0.088933 0.865119
vt 0.063241 0.871047
vt 0.067688 0.870553
vt 0.074605 0.859684
vt 0.073123 0.862154
vt 0.079545 0.862648
vt 0.079051 0.866601
vt 0.078063 0.871542
vt 0.073123 0.874012
vt 0.069170 0.875000
vt 0.077075 0.881423
vt 0.074111 0.883399
vt 0.077075 0.884881
vt 0.078557 0.879447
vt 0.076087 0.881917
vt 0.080040 0.880435
vt 0.076581 0.875494
vt 0.074605 0.879941
vt 0.077075 0.888340
vt 0.076581 0.885870
vt 0.074111 0.881917
vt 0.074605 0.885870
vt 0.077569 0.893775
vt 0.075593 0.890810
vt 0.061265 0.871542
vt 0.062253 0.878458
vt 0.056324 0.863142
vt 0.058300 0.866107
vt 0.055830 0.866107
vt 0.072628 0.873024
vt 0.070652 0.871047
vt 0.053360 0.860672
vt 0.054348 0.858202
vt 0.055336 0.861660
vt 0.070158 0.866601
vt 0.071640 0.865613
vt 0.072134 0.864625
vt 0.067194 0.855731
vt 0.064723 0.859190
vt 0.063241 0.857213
vt 0.069664 0.859190
vt 0.068676 0.862648
vt 0.063735 0.874506
vt 0.063735 0.877470
vt 0.066700 0.875988
vt 0.067688 0.877964
vt 0.064229 0.879447
vt 0.056818 0.856719
vt 0.055830 0.855731
vt 0.053360 0.857708
vt 0.053854 0.863636
vt 0.055830 0.864625
vt 0.054842 0.867095
vt 0.066206 0.852273
vt 0.067194 0.854249
vt 0.058300 0.869565
vt 0.077569 0.874012
vt 0.060277 0.862154
vt 0.061759 0.860178
vt 0.063735 0.866601
vt 0.059783 0.859684
vt 0.064229 0.859684
vt 0.061759 0.873024
vt 0.064723 0.868577
vt 0.066700 0.874506
vt 0.058300 0.870553
vt 0.061265 0.867589
vt 0.061759 0.869565
vt 0.060277 0.871047
vt 0.166996 0.875494
vt 0.086462 0.869565
vt 0.083992 0.875000
vt 0.092885 0.863636
vt 0.092885 0.863142
vt 0.090415 0.868083
vt 0.065217 0.869071
vt 0.062747 0.866601
vt 0.080040 0.870553
vt 0.075099 0.881423
vt 0.078557 0.880435
vt 0.077569 0.877964
vt 0.075593 0.878458
vt 0.058300 0.858202
vt 0.071640 0.869565
vt 0.070158 0.866107
vt 0.067688 0.864625
vt 0.065711 0.866107
vt 0.074605 0.882905
vt 0.075099 0.888340
vt 0.077075 0.882905
vt 0.077569 0.890810
vt 0.072628 0.888834
vt 0.081028 0.872036
vt 0.073123 0.881423
vt 0.072628 0.849802
vt 0.067194 0.858202
vt 0.056324 0.865613
vt 0.056324 0.857213
vt 0.055336 0.859190
vt 0.090415 0.867095
vt 0.089921 0.879941
vt 0.095850 0.875000
vt 0.094368 0.871047
vt 0.084486 0.875494
vt 0.067194 0.874506
vt 0.064723 0.876482
vt 0.072134 0.876482
vt 0.074111 0.857213
vt 0.080040 0.853261
vt 0.079051 0.876482
vt 0.073617 0.873024
vt 0.077075 0.865119
vt 0.083004 0.869565
vt 0.060771 0.870553
vt 0.058794 0.866601
vt 0.061759 0.879447
vt 0.054348 0.860672
vt 0.066700 0.851779
vt 0.077075 0.870553
vt 0.058300 0.868083
vt 0.057312 0.864130
vt 0.057312 0.869565
vt 0.062747 0.876482
s 1
f 130/1/130 131/2/131 221/3/221
f 21/4/21 17/5/17 27/6/27
f 29/7/29 21/4/21 27/6/27
f 81/8/81 23/9/23 119/10/119
f 53/11/53 119/12/119 194/13/194
f 121/14/121 120/15/120 24/16/24
f 120/15/120 29/7/29 24/16/24
f 70/17/70 69/18/69 112/19/112
f 69/18/69 108/20/108 112/19/112
f 122/21/122 74/22/74 123/23/123
f 19/24/19 74/22/74 122/21/122
f 58/25/58 122/26/122 71/27/71
f 20/28/20 122/26/122 77/29/77
f 123/23/123 72/30/72 71/31/71
f 40/32/40 127/33/127 125/34/125
f 111/35/111 126/36/126 148/37/148
f 148/38/148 91/39/91 129/40/129
f 126/41/126 128/42/128 91/43/91
f 128/44/128 92/45/92 91/46/91
f 127/33/127 113/47/113 128/48/128
f 128/44/128 113/49/113 92/45/92
f 102/50/102 90/51/90 89/52/89
f 148/37/148 129/53/129 102/50/102
f 130/1/130 110/54/110 109/55/109
f 217/56/217 109/57/109 87/58/87
f 94/59/94 131/60/131 109/61/109
f 130/1/130 114/62/114 110/54/110
f 50/63/50 116/64/116 132/65/132
f 51/66/51 133/67/133 95/68/95
f 132/65/132 134/69/134 133/70/133
f 49/71/49 116/72/116 50/73/50
f 116/74/116 134/75/134 132/76/132
f 134/77/134 118/78/118 96/79/96
f 134/77/134 96/79/96 133/80/133
f 56/81/56 55/82/55 223/83/223
f 223/84/223 100/85/100 99/86/99
f 75/87/75 137/88/137 136/89/136
f 75/87/75 136/89/136 76/90/76
f 2/91/2 137/88/137 75/87/75
f 2/91/2 7/92/7 137/88/137
f 139/93/139 78/94/78 79/95/79
f 60/96/60 139/93/139 61/97/61
f 8/98/8 29/7/29 22/99/22
f 8/98/8 24/16/24 29/7/29
f 29/7/29 12/100/12 22/99/22
f 29/7/29 27/6/27 12/100/12
f 63/101/63 62/102/62 140/103/140
f 140/103/140 223/104/223 103/105/103
f 140/106/140 118/107/118 117/108/117
f 140/106/140 117/108/117 116/74/116
f 142/109/142 115/110/115 143/111/143
f 115/112/115 104/113/104 143/114/143
f 4/115/4 141/116/141 65/117/65
f 115/112/115 95/68/95 225/118/225
f 104/119/104 92/120/92 113/47/113
f 141/116/141 113/47/113 40/32/40
f 110/54/110 114/62/114 83/121/83
f 114/62/114 105/122/105 83/121/83
f 144/123/144 146/124/146 59/125/59
f 145/126/145 146/124/146 144/123/144
f 145/126/145 147/127/147 146/124/146
f 148/128/148 149/129/149 147/127/147
f 149/129/149 86/130/86 229/131/229
f 3/132/3 145/126/145 144/123/144
f 3/132/3 111/133/111 145/126/145
f 146/134/146 229/135/229 32/136/32
f 80/137/80 151/138/151 150/94/150
f 11/139/11 10/140/10 151/138/151
f 150/94/150 81/141/81 68/142/68
f 80/137/80 11/139/11 151/138/151
f 163/143/163 9/144/9 81/141/81
f 66/145/66 150/94/150 67/146/67
f 152/147/152 153/148/153 57/149/57
f 154/150/154 77/151/77 153/148/153
f 153/148/153 58/152/58 57/149/57
f 26/153/26 25/154/25 78/155/78
f 156/156/156 80/137/80 44/157/44
f 156/156/156 11/139/11 80/137/80
f 157/158/157 14/159/14 158/160/158
f 158/160/158 14/159/14 64/161/64
f 64/162/64 14/163/14 159/164/159
f 159/165/159 1/166/1 203/167/203
f 169/168/169 160/169/160 5/170/5
f 160/171/160 161/172/161 162/173/162
f 6/174/6 161/175/161 160/169/160
f 162/173/162 161/172/161 7/176/7
f 121/177/121 160/169/160 169/168/169
f 161/175/161 6/174/6 26/178/26
f 161/172/161 26/153/26 7/176/7
f 163/143/163 10/140/10 24/179/24
f 164/154/164 165/180/165 166/181/166
f 164/154/164 166/181/166 15/182/15
f 165/183/165 1/184/1 166/185/166
f 1/184/1 14/186/14 166/185/166
f 13/187/13 165/180/165 12/188/12
f 13/187/13 1/166/1 165/180/165
f 22/189/22 164/154/164 15/182/15
f 168/190/168 16/191/16 27/192/27
f 17/193/17 167/194/167 27/192/27
f 18/195/18 19/24/19 167/194/167
f 16/191/16 168/190/168 20/196/20
f 21/197/21 170/153/170 17/198/17
f 169/199/169 171/200/171 21/197/21
f 17/198/17 170/153/170 214/201/214
f 170/153/170 171/200/171 214/201/214
f 5/202/5 171/203/171 169/204/169
f 172/205/172 175/206/175 174/207/174
f 173/208/173 175/206/175 172/205/172
f 15/209/15 176/210/176 173/211/173
f 173/208/173 23/212/23 175/206/175
f 15/209/15 54/213/54 176/210/176
f 174/207/174 175/206/175 9/214/9
f 8/215/8 172/205/172 174/207/174
f 24/179/24 25/154/25 6/216/6
f 24/179/24 6/216/6 121/217/121
f 177/218/177 154/150/154 28/206/28
f 16/191/16 20/196/20 154/150/154
f 27/192/27 177/218/177 12/219/12
f 13/220/13 28/206/28 1/221/1
f 12/219/12 177/218/177 13/220/13
f 178/222/178 110/54/110 83/121/83
f 215/223/215 88/224/88 178/222/178
f 179/225/179 182/226/182 198/227/198
f 180/228/180 182/226/182 179/225/179
f 31/229/31 183/230/183 30/231/30
f 33/232/33 198/227/198 32/125/32
f 108/233/108 181/234/181 180/228/180
f 181/235/181 36/236/36 182/237/182
f 36/236/36 183/238/183 182/237/182
f 36/236/36 73/239/73 183/238/183
f 30/240/30 38/241/38 76/242/76
f 125/34/125 184/243/184 185/244/185
f 185/244/185 186/245/186 39/246/39
f 43/247/43 187/248/187 184/243/184
f 186/245/186 187/248/187 188/249/188
f 188/249/188 189/250/189 44/157/44
f 3/251/3 184/243/184 41/252/41
f 42/253/42 43/247/43 184/243/184
f 43/247/43 61/254/61 189/250/189
f 189/250/189 79/239/79 155/255/155
f 125/34/125 185/244/185 40/32/40
f 49/256/49 191/257/191 190/258/190
f 191/257/191 193/259/193 192/260/192
f 191/261/191 52/262/52 193/263/193
f 192/260/192 194/13/194 195/264/195
f 193/263/193 68/265/68 53/266/53
f 194/13/194 54/267/54 195/264/195
f 46/268/46 195/269/195 158/160/158
f 47/270/47 192/271/192 46/268/46
f 48/272/48 190/273/190 47/270/47
f 70/17/70 55/82/55 209/274/209
f 56/81/56 57/149/57 55/82/55
f 203/275/203 57/149/57 56/81/56
f 57/149/57 58/152/58 209/274/209
f 144/123/144 196/276/196 42/277/42
f 197/62/197 199/278/199 196/276/196
f 198/279/198 199/280/199 197/281/197
f 196/276/196 199/278/199 61/97/61
f 199/278/199 60/96/60 61/97/61
f 30/282/30 135/283/135 199/280/199
f 144/123/144 42/277/42 3/132/3
f 59/284/59 32/136/32 197/281/197
f 31/285/31 30/282/30 198/279/198
f 196/276/196 43/286/43 42/277/42
f 56/287/56 200/288/200 203/167/203
f 47/289/47 202/290/202 63/291/63
f 200/288/200 201/292/201 203/167/203
f 63/291/63 201/293/201 200/294/200
f 202/290/202 64/295/64 201/293/201
f 62/296/62 63/297/63 56/287/56
f 201/292/201 159/165/159 203/167/203
f 51/298/51 204/299/204 52/300/52
f 52/300/52 206/301/206 68/142/68
f 45/302/45 66/145/66 206/301/206
f 4/115/4 204/299/204 51/298/51
f 65/117/65 185/244/185 204/299/204
f 65/117/65 40/32/40 185/244/185
f 69/18/69 208/303/208 34/304/34
f 70/17/70 209/274/209 69/18/69
f 71/31/71 72/30/72 208/303/208
f 69/18/69 34/304/34 108/20/108
f 72/30/72 73/239/73 36/236/36
f 73/305/73 211/166/211 37/306/37
f 210/307/210 212/308/212 211/309/211
f 210/307/210 213/310/213 212/308/212
f 212/308/212 38/311/38 37/312/37
f 213/313/213 76/242/76 212/314/212
f 73/315/73 210/307/210 211/309/211
f 74/316/74 210/307/210 73/315/73
f 18/313/18 210/307/210 74/316/74
f 171/203/171 2/317/2 213/313/213
f 213/313/213 75/318/75 76/242/76
f 83/121/83 84/319/84 85/320/85
f 219/321/219 85/322/85 86/323/86
f 82/53/82 85/322/85 219/321/219
f 88/224/88 216/324/216 87/325/87
f 215/223/215 90/226/90 88/224/88
f 88/224/88 90/226/90 216/324/216
f 216/324/216 91/46/91 92/45/92
f 94/326/94 217/327/217 218/328/218
f 133/67/133 218/328/218 217/327/217
f 225/118/225 95/68/95 217/327/217
f 94/329/94 218/330/218 93/331/93
f 98/332/98 97/333/97 105/334/105
f 97/333/97 99/335/99 100/336/100
f 98/332/98 99/335/99 97/333/97
f 82/337/82 219/338/219 178/222/178
f 220/339/220 102/340/102 215/223/215
f 219/338/219 101/341/101 220/339/220
f 102/342/102 89/343/89 215/344/215
f 221/345/221 224/346/224 98/347/98
f 131/60/131 222/348/222 224/349/224
f 222/348/222 103/105/103 224/349/224
f 98/347/98 224/346/224 223/350/223
f 94/59/94 222/348/222 131/60/131
f 103/105/103 223/104/223 224/349/224
f 92/45/92 104/351/104 216/324/216
f 84/352/84 226/353/226 106/354/106
f 100/336/100 106/354/106 226/353/226
f 105/334/105 226/353/226 83/355/83
f 97/333/97 100/336/100 227/356/227
f 228/357/228 107/358/107 180/359/180
f 229/360/229 230/361/230 228/357/228
f 229/360/229 85/322/85 230/361/230
f 33/232/33 32/125/32 228/362/228
f 180/228/180 107/363/107 108/233/108
f 114/62/114 130/1/130 105/122/105
f 105/122/105 130/1/130 221/3/221
f 29/7/29 169/364/169 21/4/21
f 53/266/53 81/365/81 119/93/119
f 119/93/119 23/212/23 54/366/54
f 194/13/194 119/12/119 54/267/54
f 54/213/54 157/367/157 158/368/158
f 54/213/54 15/209/15 157/367/157
f 68/265/68 81/365/81 53/266/53
f 81/8/81 9/369/9 23/9/23
f 121/14/121 169/364/169 120/15/120
f 120/15/120 169/364/169 29/7/29
f 112/19/112 108/20/108 107/370/107
f 112/19/112 106/354/106 100/336/100
f 112/19/112 107/370/107 106/354/106
f 123/23/123 74/22/74 73/239/73
f 20/196/20 19/24/19 122/21/122
f 58/25/58 77/29/77 122/26/122
f 19/24/19 18/195/18 74/22/74
f 123/23/123 73/239/73 72/30/72
f 122/21/122 123/23/123 71/31/71
f 125/34/125 126/36/126 124/371/124
f 125/34/125 127/33/127 126/36/126
f 124/371/124 126/36/126 111/35/111
f 126/41/126 127/372/127 128/42/128
f 148/38/148 126/373/126 91/39/91
f 41/252/41 111/35/111 3/251/3
f 41/374/41 124/375/124 111/376/111
f 41/252/41 125/34/125 124/371/124
f 40/32/40 113/47/113 127/33/127
f 129/53/129 91/377/91 90/51/90
f 102/50/102 129/53/129 90/51/90
f 109/55/109 131/2/131 130/1/130
f 217/378/217 94/379/94 109/55/109
f 51/66/51 50/85/50 133/67/133
f 50/63/50 132/65/132 133/70/133
f 49/380/49 48/272/48 116/381/116
f 116/74/116 117/108/117 134/75/134
f 134/75/134 117/108/117 118/107/118
f 115/112/115 51/66/51 95/68/95
f 55/82/55 70/17/70 112/19/112
f 223/83/223 55/82/55 112/19/112
f 223/83/223 112/19/112 100/336/100
f 138/382/138 136/383/136 139/384/139
f 136/383/136 137/385/137 139/384/139
f 139/384/139 137/385/137 78/155/78
f 78/155/78 137/385/137 26/153/26
f 76/386/76 136/383/136 135/283/135
f 137/385/137 7/176/7 26/153/26
f 61/97/61 139/93/139 79/95/79
f 60/96/60 138/387/138 139/93/139
f 60/388/60 136/383/136 138/382/138
f 60/388/60 135/283/135 136/383/136
f 62/102/62 223/104/223 140/103/140
f 62/296/62 56/287/56 223/350/223
f 140/103/140 103/105/103 118/389/118
f 63/297/63 140/106/140 116/74/116
f 141/116/141 142/109/142 143/111/143
f 115/112/115 225/118/225 104/113/104
f 65/117/65 141/116/141 40/32/40
f 4/115/4 142/109/142 141/116/141
f 142/390/142 4/335/4 51/66/51
f 142/390/142 51/66/51 115/112/115
f 143/111/143 104/119/104 113/47/113
f 141/116/141 143/111/143 113/47/113
f 111/133/111 148/128/148 145/126/145
f 146/124/146 147/127/147 229/131/229
f 145/126/145 148/128/148 147/127/147
f 147/127/147 149/129/149 229/131/229
f 148/37/148 102/50/102 149/391/149
f 149/129/149 102/392/102 101/393/101
f 149/129/149 101/393/101 86/130/86
f 59/284/59 146/134/146 32/136/32
f 151/138/151 10/140/10 150/94/150
f 150/94/150 10/140/10 163/143/163
f 150/94/150 163/143/163 81/141/81
f 67/146/67 150/94/150 68/142/68
f 66/145/66 80/137/80 150/94/150
f 152/147/152 28/206/28 153/148/153
f 28/206/28 154/150/154 153/148/153
f 203/275/203 1/221/1 57/149/57
f 1/221/1 152/147/152 57/149/57
f 1/221/1 28/206/28 152/147/152
f 154/150/154 20/196/20 77/151/77
f 153/148/153 77/151/77 58/152/58
f 79/239/79 78/155/78 155/255/155
f 155/255/155 78/155/78 25/154/25
f 155/255/155 25/154/25 156/156/156
f 155/255/155 156/156/156 44/157/44
f 156/156/156 25/154/25 11/139/11
f 44/157/44 80/137/80 45/302/45
f 157/158/157 15/182/15 14/159/14
f 159/394/159 14/186/14 1/184/1
f 5/170/5 160/169/160 162/395/162
f 5/170/5 162/395/162 7/92/7
f 121/177/121 6/174/6 160/169/160
f 2/91/2 5/170/5 7/92/7
f 8/396/8 163/143/163 24/179/24
f 24/179/24 10/140/10 11/139/11
f 8/396/8 174/397/174 163/143/163
f 174/397/174 9/144/9 163/143/163
f 164/154/164 12/188/12 165/180/165
f 22/189/22 12/188/12 164/154/164
f 15/182/15 166/181/166 14/159/14
f 167/194/167 19/24/19 168/190/168
f 168/190/168 19/24/19 20/196/20
f 27/192/27 167/194/167 168/190/168
f 17/193/17 18/195/18 167/194/167
f 21/197/21 171/200/171 170/153/170
f 5/202/5 2/317/2 171/203/171
f 18/313/18 17/198/17 214/201/214
f 22/189/22 15/182/15 173/208/173
f 173/208/173 176/398/176 23/212/23
f 8/215/8 22/189/22 172/205/172
f 22/189/22 173/208/173 172/205/172
f 176/398/176 54/366/54 23/212/23
f 9/214/9 175/206/175 23/212/23
f 6/216/6 25/154/25 26/153/26
f 24/179/24 11/139/11 25/154/25
f 177/218/177 27/192/27 16/191/16
f 13/220/13 177/218/177 28/206/28
f 177/218/177 16/191/16 154/150/154
f 88/224/88 109/55/109 110/54/110
f 178/222/178 88/224/88 110/54/110
f 88/224/88 87/325/87 109/55/109
f 82/337/82 178/222/178 83/121/83
f 198/227/198 182/226/182 31/229/31
f 180/399/180 181/235/181 182/237/182
f 31/229/31 182/226/182 183/230/183
f 30/231/30 183/230/183 38/311/38
f 33/232/33 179/225/179 198/227/198
f 33/232/33 180/228/180 179/225/179
f 108/233/108 34/400/34 181/234/181
f 34/304/34 35/401/35 181/235/181
f 181/235/181 35/401/35 36/236/36
f 183/230/183 73/315/73 37/312/37
f 38/311/38 183/230/183 37/312/37
f 185/244/185 184/243/184 186/245/186
f 186/245/186 184/243/184 187/248/187
f 39/246/39 186/245/186 188/249/188
f 187/248/187 189/250/189 188/249/188
f 187/248/187 43/247/43 189/250/189
f 188/249/188 44/157/44 45/302/45
f 125/34/125 41/252/41 184/243/184
f 3/251/3 42/253/42 184/243/184
f 189/250/189 61/254/61 79/239/79
f 44/157/44 189/250/189 155/255/155
f 39/246/39 188/249/188 45/302/45
f 49/256/49 50/402/50 191/257/191
f 50/85/50 51/66/51 191/261/191
f 191/261/191 51/66/51 52/262/52
f 190/258/190 191/257/191 192/260/192
f 192/260/192 193/259/193 194/13/194
f 193/259/193 53/11/53 194/13/194
f 193/263/193 52/262/52 68/265/68
f 195/269/195 54/366/54 158/160/158
f 46/268/46 192/271/192 195/269/195
f 47/270/47 190/273/190 192/271/192
f 48/403/48 49/256/49 190/258/190
f 55/82/55 57/149/57 209/274/209
f 59/125/59 197/62/197 144/123/144
f 144/123/144 197/62/197 196/276/196
f 198/279/198 30/282/30 199/280/199
f 199/280/199 135/283/135 60/388/60
f 32/136/32 198/279/198 197/281/197
f 30/231/30 76/404/76 135/31/135
f 43/286/43 196/276/196 61/97/61
f 56/287/56 63/297/63 200/288/200
f 63/291/63 48/403/48 47/289/47
f 63/291/63 202/290/202 201/293/201
f 63/291/63 116/64/116 48/403/48
f 47/270/47 46/268/46 202/405/202
f 46/268/46 158/160/158 202/405/202
f 202/290/202 158/368/158 64/295/64
f 201/292/201 64/161/64 159/165/159
f 52/300/52 204/299/204 205/406/205
f 204/299/204 185/244/185 205/406/205
f 205/406/205 185/244/185 39/246/39
f 52/300/52 205/406/205 206/301/206
f 205/406/205 39/246/39 206/301/206
f 39/246/39 45/302/45 206/301/206
f 68/142/68 206/301/206 207/407/207
f 206/301/206 66/145/66 207/407/207
f 4/115/4 65/117/65 204/299/204
f 66/145/66 45/302/45 80/137/80
f 207/407/207 66/145/66 67/146/67
f 68/142/68 207/407/207 67/146/67
f 34/304/34 208/303/208 35/401/35
f 69/18/69 209/274/209 208/303/208
f 208/303/208 72/30/72 35/401/35
f 209/274/209 71/31/71 208/303/208
f 209/408/209 58/25/58 71/27/71
f 35/401/35 72/30/72 36/236/36
f 211/309/211 212/308/212 37/312/37
f 210/307/210 214/201/214 213/310/213
f 214/201/214 171/200/171 213/310/213
f 212/314/212 76/242/76 38/241/38
f 18/313/18 214/201/214 210/307/210
f 213/313/213 2/317/2 75/318/75
f 82/53/82 83/377/83 85/322/85
f 84/352/84 106/354/106 85/409/85
f 216/324/216 90/226/90 91/46/91
f 215/223/215 89/40/89 90/226/90
f 93/331/93 218/330/218 96/79/96
f 217/327/217 95/68/95 133/67/133
f 96/79/96 218/330/218 133/80/133
f 118/78/118 93/331/93 96/79/96
f 221/119/221 98/332/98 105/334/105
f 98/332/98 223/83/223 99/335/99
f 178/222/178 219/338/219 220/339/220
f 178/222/178 220/339/220 215/223/215
f 220/339/220 101/341/101 102/340/102
f 219/338/219 86/410/86 101/341/101
f 221/345/221 131/411/131 224/346/224
f 222/348/222 93/412/93 103/105/103
f 93/412/93 118/389/118 103/105/103
f 94/59/94 93/412/93 222/348/222
f 225/413/225 217/378/217 216/324/216
f 217/378/217 87/325/87 216/324/216
f 225/413/225 216/324/216 104/351/104
f 105/334/105 227/356/227 226/353/226
f 227/356/227 100/336/100 226/353/226
f 105/334/105 97/333/97 227/356/227
f 83/355/83 226/353/226 84/352/84
f 228/362/228 32/125/32 229/131/229
f 228/357/228 230/361/230 107/358/107
f 230/414/230 85/415/85 106/416/106
f 229/360/229 86/323/86 85/322/85
f 180/359/180 33/417/33 228/357/228
f 107/363/107 230/414/230 106/416/106
