# Blender 4.2.1 LTS
# www.blender.org
o StoneGate
v -0.291531 3.325742 -0.051251
v -0.240279 3.274491 -0.051251
v -0.240279 3.325742 0.000000
v -0.291531 3.325742 -1.414063
v -0.240279 3.325742 -1.465314
v -0.240279 3.274491 -1.414063
v 0.329249 3.325742 -0.051251
v 0.277998 3.325742 0.000000
v 0.277998 3.274491 -0.051251
v 0.277998 3.325742 -1.465314
v 0.329249 3.325742 -1.414063
v 0.277998 3.274491 -1.414063
v -0.291531 3.872785 -0.051251
v -0.240279 3.872785 0.000000
v -0.240279 3.924036 -0.051251
v -0.291531 3.872785 -1.414063
v -0.240279 3.924036 -1.414063
v -0.240279 3.872785 -1.465314
v 0.277998 3.872785 -1.465314
v 0.277998 3.924036 -1.414063
v 0.329249 3.872785 -1.414063
v 0.329249 3.872785 -0.051251
v 0.277998 3.924036 -0.051251
v 0.277998 3.872785 0.000000
v -0.240189 0.013146 -0.978411
v -0.240189 0.082913 -0.900413
v -0.310390 0.083347 -0.971002
v -0.240189 3.230520 -0.852595
v -0.240189 3.300287 -0.914999
v -0.310390 3.230086 -0.923282
v -0.240189 0.013146 -1.928632
v -0.310390 0.083347 -1.920350
v -0.240189 0.082913 -1.991036
v -0.240189 3.300287 -1.395377
v -0.240189 3.230520 -1.473375
v -0.310390 3.230086 -1.402785
v 0.240189 0.013146 -0.978411
v 0.310390 0.083347 -0.971002
v 0.240189 0.082913 -0.900413
v 0.240189 3.300287 -0.914999
v 0.240189 3.230520 -0.852595
v 0.310390 3.230086 -0.923282
v 0.240189 0.013146 -1.928632
v 0.240189 0.082913 -1.991036
v 0.310390 0.083347 -1.920350
v 0.240189 3.300287 -1.395377
v 0.310390 3.230086 -1.402785
v 0.240189 3.230520 -1.473375
v -0.291531 3.325742 0.051251
v -0.240279 3.274491 0.051251
v -0.291531 3.325742 1.414063
v -0.240279 3.325742 1.465314
v -0.240279 3.274491 1.414063
v 0.329249 3.325742 0.051251
v 0.277998 3.274491 0.051251
v 0.277998 3.325742 1.465314
v 0.329249 3.325742 1.414063
v 0.277998 3.274491 1.414063
v -0.291531 3.872785 0.051251
v -0.240279 3.924036 0.051251
v -0.291531 3.872785 1.414063
v -0.240279 3.924036 1.414063
v -0.240279 3.872785 1.465314
v 0.277998 3.872785 1.465314
v 0.277998 3.924036 1.414063
v 0.329249 3.872785 1.414063
v 0.329249 3.872785 0.051251
v 0.277998 3.924036 0.051251
v -0.240189 0.013146 0.978411
v -0.240189 0.082913 0.900413
v -0.310390 0.083347 0.971002
v -0.240189 3.230520 0.852595
v -0.240189 3.300287 0.914999
v -0.310390 3.230086 0.923282
v -0.240189 0.013146 1.928632
v -0.310390 0.083347 1.920350
v -0.240189 0.082913 1.991036
v -0.240189 3.300287 1.395377
v -0.240189 3.230520 1.473375
v -0.310390 3.230086 1.402785
v 0.240189 0.013146 0.978411
v 0.310390 0.083347 0.971002
v 0.240189 0.082913 0.900413
v 0.240189 3.300287 0.914999
v 0.240189 3.230520 0.852595
v 0.310390 3.230086 0.923282
v 0.240189 0.013146 1.928632
v 0.240189 0.082913 1.991036
v 0.310390 0.083347 1.920350
v 0.240189 3.300287 1.395377
v 0.310390 3.230086 1.402785
v 0.240189 3.230520 1.473375
vn -0.0000 -0.0152 0.9999
vn 1.0000 -0.0000 -0.0000
vn -0.0000 1.0000 -0.0000
vn -1.0000 -0.0000 -0.0000
vn -0.0000 0.1623 -0.9867
vn -0.0000 -0.0000 1.0000
vn -0.0000 -1.0000 -0.0000
vn -0.0000 -0.0000 -1.0000
vn -0.5773 -0.5774 0.5774
vn -0.5773 -0.5774 -0.5774
vn 0.5774 -0.5773 0.5773
vn 0.5773 -0.5774 -0.5774
vn -0.5773 0.5774 0.5774
vn -0.5773 0.5774 -0.5774
vn 0.5773 0.5774 -0.5774
vn 0.5773 0.5774 0.5774
vn -0.7071 -0.7071 -0.0000
vn -0.0000 -0.7071 -0.7071
vn 0.7071 -0.7071 -0.0000
vn -0.0000 -0.7071 0.7071
vn -0.7071 0.7071 -0.0000
vn -0.0000 0.7071 -0.7071
vn 0.7071 0.7071 -0.0000
vn -0.0000 0.7071 0.7071
vn 0.7071 -0.0000 -0.7071
vn 0.7071 -0.0000 0.7071
vn -0.7071 -0.0000 0.7071
vn -0.7071 -0.0000 -0.7071
vn -0.5595 -0.6178 0.5526
vn -0.6024 0.5322 0.5950
vn -0.6024 -0.5322 -0.5950
vn -0.5595 0.6178 -0.5526
vn 0.5595 -0.6178 0.5526
vn 0.6024 0.5322 0.5950
vn 0.6024 -0.5322 -0.5950
vn 0.5595 0.6178 -0.5526
vn -0.7093 -0.0107 0.7049
vn -0.7046 0.1152 -0.7002
vn -0.0000 -0.6667 -0.7453
vn -0.0000 0.7453 -0.6667
vn 0.7046 0.1152 -0.7002
vn 0.7093 -0.0107 0.7049
vn -0.0000 -0.7453 0.6667
vn -0.0000 0.6667 0.7453
vn -0.0000 -0.0152 -0.9999
vn -0.0000 0.1623 0.9867
vn 0.5774 -0.5773 -0.5773
vn 0.5773 -0.5774 0.5773
vn 0.5773 0.5774 0.5773
vn -0.5595 -0.6178 -0.5526
vn -0.6024 0.5322 -0.5950
vn -0.6024 -0.5322 0.5950
vn -0.5595 0.6178 0.5526
vn 0.5595 -0.6178 -0.5526
vn 0.6024 0.5322 -0.5950
vn 0.6024 -0.5322 0.5950
vn 0.5595 0.6178 0.5526
vn -0.7093 -0.0107 -0.7049
vn -0.7046 0.1152 0.7002
vn -0.0000 -0.6667 0.7453
vn -0.0000 0.7453 0.6667
vn 0.7046 0.1152 0.7002
vn 0.7093 -0.0107 -0.7049
vn -0.0000 -0.7453 -0.6667
vn -0.0000 0.6667 -0.7453
vt 0.391798 0.897727
vt 0.410079 0.897727
vt 0.410079 0.904644
vt 0.391798 0.904644
vt 0.391798 0.903656
vt 0.373518 0.903656
vt 0.373518 0.898221
vt 0.391798 0.898221
vt 0.409091 0.898221
vt 0.409091 0.903656
vt 0.403162 0.903656
vt 0.403162 0.898221
vt 0.392787 0.898221
vt 0.392787 0.904150
vt 0.373518 0.904150
vt 0.391798 0.897233
vt 0.410079 0.897233
vt 0.385375 0.911067
vt 0.385375 0.905632
vt 0.390810 0.905632
vt 0.390810 0.911067
vt 0.410079 0.905138
vt 0.392292 0.905138
vt 0.392292 0.897233
vt 0.410079 0.904150
vt 0.392292 0.904150
vt 0.402668 0.898221
vt 0.407609 0.898221
vt 0.407609 0.903656
vt 0.402668 0.903656
vt 0.391798 0.904150
vt 0.385375 0.911561
vt 0.384387 0.911067
vt 0.408597 0.898221
vt 0.407609 0.897233
vt 0.385375 0.905138
vt 0.384387 0.905632
vt 0.401680 0.898221
vt 0.402668 0.897233
vt 0.390810 0.911561
vt 0.391798 0.911067
vt 0.408597 0.903656
vt 0.407609 0.904644
vt 0.402668 0.904644
vt 0.401680 0.903656
vt 0.390810 0.905138
vt 0.391798 0.905632
vt 0.373518 0.911067
vt 0.391798 0.912055
vt 0.373518 0.912055
vt 0.373518 0.897233
vt 0.391798 0.905138
vt 0.373518 0.905138
vt 0.373518 0.904644
vt 0.373518 0.897727
vt 0.403162 0.898715
vt 0.402174 0.903656
vt 0.403162 0.904644
vt 0.408103 0.898715
vt 0.408597 0.897233
vt 0.409585 0.898221
vt 0.410079 0.903656
vt 0.409091 0.904644
vt 0.402668 0.905138
vt 0.401680 0.904150
vt 0.402174 0.898221
vt 0.403162 0.897233
vt 0.408103 0.903656
vt 0.409585 0.904150
vt 0.408597 0.905138
vt 0.409091 0.897233
vt 0.392787 0.897233
vt 0.392787 0.905138
vt 0.408103 0.904644
vt 0.402174 0.904644
s 0
f 39/1/1 41/2/1 28/3/1 26/4/1
f 45/5/2 47/6/2 42/7/2 38/8/2
f 46/9/3 34/10/3 29/11/3 40/12/3
f 27/7/4 30/13/4 36/14/4 32/15/4
f 33/16/5 35/17/5 48/3/5 44/4/5
f 3/18/6 8/19/6 24/20/6 14/21/6
f 20/17/3 17/22/3 15/23/3 23/24/3
f 12/25/7 9/26/7 2/24/7 6/17/7
f 10/27/8 5/28/8 18/29/8 19/30/8
f 7/7/2 11/8/2 21/31/2 22/15/2
f 1/32/9 2/33/9 3/18/9
f 4/34/10 5/28/10 6/35/10
f 7/36/11 8/19/11 9/37/11
f 10/27/12 11/38/12 12/39/12
f 13/40/13 14/21/13 15/41/13
f 16/42/14 17/43/14 18/29/14
f 19/30/15 20/44/15 21/45/15
f 22/46/16 23/47/16 24/20/16
f 1/48/17 4/41/17 6/49/17 2/50/17
f 5/28/18 10/27/18 12/39/18 6/35/18
f 11/8/19 7/7/19 9/51/19 12/16/19
f 8/19/20 3/18/20 2/33/20 9/37/20
f 15/15/21 17/31/21 16/52/21 13/53/21
f 17/43/22 20/44/22 19/30/22 18/29/22
f 20/4/23 23/54/23 22/15/23 21/31/23
f 23/47/24 15/41/24 14/21/24 24/20/24
f 10/27/25 19/30/25 21/45/25 11/38/25
f 24/20/26 8/19/26 7/36/26 22/46/26
f 3/18/27 14/21/27 13/40/27 1/32/27
f 18/29/28 5/28/28 4/34/28 16/42/28
f 4/5/4 1/6/4 13/55/4 16/1/4
f 25/56/29 26/38/29 27/39/29
f 28/57/30 29/11/30 30/58/30
f 31/59/31 32/60/31 33/61/31
f 34/10/32 35/62/32 36/63/32
f 37/11/33 38/64/33 39/65/33
f 40/12/34 41/66/34 42/67/34
f 43/68/35 44/69/35 45/70/35
f 46/9/36 47/71/36 48/2/36
f 31/59/17 25/56/17 27/39/17 32/60/17
f 26/51/37 28/72/37 30/13/37 27/7/37
f 29/11/21 34/10/21 36/63/21 30/58/21
f 35/73/38 33/53/38 32/15/38 36/14/38
f 43/68/39 31/59/39 33/61/39 44/69/39
f 34/10/40 46/9/40 48/2/40 35/62/40
f 47/6/41 45/5/41 44/4/41 48/54/41
f 37/11/19 43/68/19 45/70/19 38/64/19
f 46/9/23 40/12/23 42/67/23 47/71/23
f 41/51/42 39/16/42 38/8/42 42/7/42
f 25/56/43 37/11/43 39/65/43 26/38/43
f 40/12/44 29/11/44 28/57/44 41/66/44
f 31/59/7 43/68/7 37/11/7 25/56/7
f 83/1/45 70/4/45 72/3/45 85/2/45
f 89/5/2 82/8/2 86/7/2 91/6/2
f 90/9/3 84/12/3 73/11/3 78/10/3
f 71/7/4 76/15/4 80/14/4 74/13/4
f 77/16/46 88/4/46 92/3/46 79/17/46
f 65/17/3 68/24/3 60/23/3 62/22/3
f 58/25/7 53/17/7 50/24/7 55/26/7
f 56/27/6 64/30/6 63/29/6 52/28/6
f 54/7/2 67/15/2 66/31/2 57/8/2
f 49/32/10 3/18/10 50/33/10
f 51/34/9 53/35/9 52/28/9
f 54/36/47 55/37/47 8/19/47
f 56/27/48 58/39/48 57/38/48
f 59/40/14 60/41/14 14/21/14
f 61/42/13 63/29/13 62/74/13
f 64/30/49 66/45/49 65/75/49
f 67/46/15 24/20/15 68/47/15
f 49/48/17 50/50/17 53/49/17 51/41/17
f 52/28/20 53/35/20 58/39/20 56/27/20
f 57/8/19 58/16/19 55/51/19 54/7/19
f 8/19/18 55/37/18 50/33/18 3/18/18
f 60/15/21 59/53/21 61/52/21 62/31/21
f 62/74/24 63/29/24 64/30/24 65/75/24
f 65/4/23 66/31/23 67/15/23 68/54/23
f 68/47/22 24/20/22 14/21/22 60/41/22
f 56/27/26 57/38/26 66/45/26 64/30/26
f 24/20/25 67/46/25 54/36/25 8/19/25
f 3/18/28 49/32/28 59/40/28 14/21/28
f 63/29/27 61/42/27 51/34/27 52/28/27
f 51/5/4 61/1/4 59/55/4 49/6/4
f 69/56/50 71/39/50 70/38/50
f 72/57/51 74/58/51 73/11/51
f 75/59/52 77/61/52 76/60/52
f 78/10/53 80/63/53 79/62/53
f 81/11/54 83/65/54 82/64/54
f 84/12/55 86/67/55 85/66/55
f 87/68/56 89/70/56 88/69/56
f 90/9/57 92/2/57 91/71/57
f 75/59/17 76/60/17 71/39/17 69/56/17
f 70/51/58 71/7/58 74/13/58 72/72/58
f 73/11/21 74/58/21 80/63/21 78/10/21
f 79/73/59 80/14/59 76/15/59 77/53/59
f 87/68/60 88/69/60 77/61/60 75/59/60
f 78/10/61 79/62/61 92/2/61 90/9/61
f 91/6/62 92/54/62 88/4/62 89/5/62
f 81/11/19 82/64/19 89/70/19 87/68/19
f 90/9/23 91/71/23 86/67/23 84/12/23
f 85/51/63 86/7/63 82/8/63 83/16/63
f 69/56/64 70/38/64 83/65/64 81/11/64
f 84/12/65 85/66/65 72/57/65 73/11/65
f 75/59/7 69/56/7 81/11/7 87/68/7
