# Blender 4.2.1 LTS
# www.blender.org
o Observing
v -0.049462 3.629097 0.077390
v -0.038843 3.768112 0.172210
v -0.085072 3.768112 0.126137
v -0.049462 3.855944 0.172210
v -0.049462 3.935188 0.126137
v -0.107093 3.855944 0.126137
v -0.049462 3.629097 0.040320
v -0.085072 3.708340 0.040320
v -0.038843 3.708340 -0.005754
v -0.049462 3.935188 0.040320
v -0.049462 3.855944 -0.005754
v -0.107093 3.855944 0.040320
v 0.057885 3.629097 0.077390
v 0.093496 3.768112 0.126137
v 0.047266 3.768112 0.172210
v 0.057885 3.935188 0.126137
v 0.057885 3.855944 0.172210
v 0.115517 3.855944 0.126137
v 0.057885 3.629097 0.040320
v 0.047266 3.708340 -0.005754
v 0.093496 3.708340 0.040320
v 0.057885 3.935188 0.040320
v 0.115517 3.855944 0.040320
v 0.057885 3.855944 -0.005754
v -0.030261 3.637093 0.075560
v -0.023122 3.730559 0.139311
v 0.041912 3.637093 0.075560
v 0.034773 3.730559 0.139311
v -0.010760 3.474125 0.073503
v -0.021012 3.473229 0.130931
v 0.007711 3.476772 0.138020
v 0.025047 3.478541 0.082340
v -0.169664 2.174940 0.111781
v -0.185063 3.421181 0.152286
v -0.169664 2.174940 -0.073041
v -0.172549 3.419955 -0.032108
v 0.172424 2.174940 0.111781
v 0.174943 3.471782 0.186736
v 0.172424 2.174940 -0.073041
v 0.187457 3.470556 0.002342
v 0.001380 2.174940 -0.073041
v 0.006656 3.495533 -0.031281
v 0.001380 2.174940 0.111781
v -0.005858 3.496760 0.181815
v -0.117609 2.605091 0.064862
v -0.117609 2.605091 -0.063712
v 0.120368 2.605091 -0.063712
v 0.120368 2.605091 0.064862
v 0.001380 2.605091 0.064862
v 0.001380 2.605091 -0.092414
v -0.124319 -0.063112 -0.000297
v -0.124319 -0.063112 0.060599
v -0.067963 -0.063112 -0.000297
v -0.067963 -0.063112 0.060599
v 0.158740 -0.063766 0.005814
v 0.158740 -0.063766 -0.060289
v 0.097565 -0.063766 0.005814
v 0.097565 -0.063766 -0.060289
v 0.147084 3.479473 0.222167
v 0.149878 3.478765 0.037367
v 0.251543 0.920472 -0.003216
v 0.253771 0.920318 0.038360
v 0.208756 3.441408 0.038656
v 0.205961 3.442115 0.223456
v 0.269664 0.921662 -0.003452
v 0.271891 0.921509 0.038123
v -0.169516 3.416201 0.172422
v -0.163506 3.427246 -0.011972
v -0.252361 1.003030 0.043853
v -0.252361 1.003030 -0.014485
v -0.283401 1.001337 0.043293
v -0.234363 3.386098 0.154145
v -0.228353 3.397142 -0.030249
v -0.283401 1.001337 -0.015045
v -0.226694 0.868358 0.078512
v -0.226694 0.868358 -0.048485
v -0.294265 0.864672 0.077293
v -0.294265 0.864672 -0.049705
v -0.220065 0.767062 0.046940
v -0.220065 0.767062 -0.008397
v -0.249508 0.765456 0.046408
v -0.249508 0.765456 -0.008929
v 0.240018 0.806878 -0.042454
v 0.246386 0.806438 0.076415
v 0.291827 0.810282 -0.043131
v 0.298195 0.809842 0.075738
v 0.240419 0.715051 0.034812
v 0.242654 0.714896 0.076538
v 0.258605 0.716245 0.034575
v 0.260840 0.716091 0.076300
v -0.151336 3.013136 0.108574
v -0.145079 3.012523 -0.047910
v 0.153913 3.037823 -0.030685
v 0.147656 3.038436 0.125799
v -0.002239 3.050925 0.123338
v 0.004018 3.050312 -0.061847
vn -0.4786 -0.7647 0.4314
vn -0.3160 -0.2864 0.9045
vn -0.8551 -0.2559 0.4509
vn -0.3367 0.2055 0.9189
vn -0.3879 0.8135 0.4332
vn -0.8992 0.1903 0.3940
vn -0.4976 -0.7787 -0.3821
vn -0.9113 -0.2623 -0.3174
vn -0.3231 -0.2382 -0.9159
vn -0.3879 0.8135 -0.4332
vn -0.3308 0.2198 -0.9177
vn -0.9088 0.2029 -0.3645
vn 0.4786 -0.7647 0.4314
vn 0.8551 -0.2559 0.4509
vn 0.3160 -0.2864 0.9045
vn 0.3879 0.8135 0.4332
vn 0.3367 0.2055 0.9189
vn 0.8992 0.1903 0.3940
vn 0.4976 -0.7787 -0.3821
vn 0.3231 -0.2382 -0.9159
vn 0.9113 -0.2623 -0.3174
vn 0.3879 0.8135 -0.4332
vn 0.9088 0.2029 -0.3645
vn 0.3308 0.2198 -0.9177
vn -0.6588 0.1913 -0.7276
vn -0.6142 0.7659 0.1902
vn 0.7627 0.1790 -0.6214
vn 0.4711 0.8374 0.2772
vn -0.4890 -0.6306 -0.6027
vn -0.5526 -0.6328 0.5424
vn 0.4664 -0.5582 0.6862
vn 0.6704 -0.5856 -0.4557
vn -0.7066 0.0627 0.7049
vn -0.7299 0.3863 0.5640
vn -0.7322 0.0219 -0.6808
vn -0.6827 0.4308 -0.5902
vn 0.7024 0.0590 0.7094
vn 0.5967 0.4787 0.6441
vn 0.7330 0.0360 -0.6793
vn 0.7032 0.5278 -0.4764
vn -0.0042 -0.0309 -0.9995
vn -0.0425 0.7506 -0.6594
vn 0.0040 0.0194 0.9998
vn -0.1428 0.7024 0.6973
vn -0.7193 0.0134 0.6945
vn -0.7285 0.0308 -0.6844
vn 0.7409 0.0361 -0.6707
vn 0.7082 0.0089 0.7060
vn -0.0133 -0.0095 0.9999
vn 0.0138 0.0250 -0.9996
vn -0.5726 -0.5912 -0.5680
vn -0.5721 -0.5887 0.5711
vn 0.5691 -0.5940 -0.5686
vn 0.5687 -0.5915 0.5717
vn 0.5779 -0.5912 0.5626
vn 0.5757 -0.5804 -0.5759
vn -0.5660 -0.6010 0.5643
vn -0.5640 -0.5900 -0.5778
vn -0.4125 0.7085 0.5726
vn -0.4154 0.7262 -0.5479
vn -0.7413 0.1466 -0.6549
vn -0.7388 0.1053 0.6656
vn 0.6950 0.3938 -0.6015
vn 0.6693 0.3608 0.6495
vn 0.6987 0.2123 -0.6832
vn 0.7218 0.1853 0.6668
vn 0.4346 0.6253 0.6481
vn 0.4695 0.7416 -0.4791
vn 0.6711 0.1368 0.7286
vn 0.7437 0.1384 -0.6540
vn -0.7682 0.1081 0.6311
vn -0.7288 0.4147 0.5448
vn -0.5909 0.4366 -0.6784
vn -0.6937 0.1314 -0.7082
vn 0.6554 0.0550 0.7533
vn 0.6645 0.0262 -0.7468
vn -0.6995 -0.1203 0.7045
vn -0.6780 -0.1391 -0.7218
vn 0.6288 -0.6104 0.4817
vn 0.6423 -0.6241 -0.4449
vn -0.4210 -0.7680 0.4826
vn -0.4133 -0.7854 -0.4608
vn -0.6411 -0.1352 -0.7554
vn -0.6523 0.1458 0.7438
vn 0.6435 -0.1254 -0.7551
vn 0.7519 0.0387 0.6581
vn -0.6276 -0.7139 -0.3106
vn -0.5516 -0.5909 0.5887
vn 0.4884 -0.8011 -0.3459
vn 0.4873 -0.6454 0.5882
vn -0.7369 -0.1345 0.6625
vn -0.7346 -0.0142 -0.6784
vn 0.7892 -0.0079 -0.6141
vn 0.6781 -0.1455 0.7204
vn -0.0478 -0.1277 0.9907
vn 0.0538 0.0573 -0.9969
vt 0.998518 0.002470
vt 0.999012 0.002470
vt 0.998518 0.002964
vt 0.998024 0.001976
vt 0.998518 0.001976
vt 0.998518 0.001482
vt 0.999012 0.001482
vt 0.999012 0.001976
vt 0.997530 0.000988
vt 0.998024 0.000988
vt 0.998024 0.001482
vt 0.998024 0.002470
vt 0.997530 0.002470
vt 0.997530 0.000494
vt 0.998024 0.000494
vt 0.997530 0.001976
vt 0.996542 0.003953
vt 0.996542 0.003458
vt 0.995800 0.004200
vt 0.996542 0.004447
vt 0.996294 0.004447
vt 0.994565 0.000000
vt 0.994565 0.001482
vt 0.993083 0.001482
vt 0.993083 0.000000
vt 0.994071 0.003953
vt 0.995553 0.003458
vt 0.995553 0.004447
vt 0.994071 0.004447
vt 0.995553 0.003953
vt 0.996047 0.003458
vt 0.993577 0.003458
vt 0.993577 0.002470
vt 0.996047 0.002470
vt 0.996542 0.002470
vt 0.995306 0.003953
vt 0.995306 0.004447
vt 0.996542 0.000000
vt 0.996542 0.001482
vt 0.994565 0.000988
vt 0.995059 0.000988
vt 0.995059 0.001976
vt 0.994565 0.001976
vt 0.994071 0.003458
vt 0.995059 0.003458
vt 0.995059 0.004447
vt 0.995059 0.003953
vt 0.995059 0.002470
vt 0.994565 0.002470
vt 0.996047 0.004447
vt 0.993083 0.002470
vt 0.993083 0.003458
vt 0.996047 0.003953
vt 0.994071 0.000000
vt 0.994071 0.000988
vt 0.994565 0.003458
vt 0.994565 0.004447
vt 0.996542 0.000494
vt 0.994565 0.000494
vt 0.993083 0.000494
s 1
f 15/1/15 17/1/17 4/2/4 2/3/2
f 21/4/21 23/5/23 18/5/18 14/1/14
f 22/6/22 10/7/10 5/7/5 16/8/16
f 3/9/3 6/10/6 12/10/12 8/9/8
f 9/11/9 11/11/11 24/11/24 20/11/20
f 1/12/1 2/12/2 3/13/3
f 4/14/4 5/15/5 6/10/6
f 7/13/7 8/13/8 9/16/9
f 10/10/10 11/10/11 12/10/12
f 13/12/13 14/12/14 15/12/15
f 16/2/16 17/1/17 18/1/18
f 19/4/19 20/4/20 21/4/21
f 22/6/22 23/6/23 24/11/24
f 7/13/7 1/12/1 3/13/3 8/13/8
f 2/9/2 4/14/4 6/10/6 3/9/3
f 5/15/5 10/10/10 12/10/12 6/10/6
f 11/11/11 9/11/9 8/9/8 12/10/12
f 19/4/19 7/13/7 9/16/9 20/4/20
f 10/10/10 22/6/22 24/11/24 11/11/11
f 23/5/23 21/4/21 20/11/20 24/11/24
f 13/12/13 19/4/19 21/4/21 14/1/14
f 22/6/22 16/8/16 18/5/18 23/5/23
f 17/1/17 15/1/15 14/1/14 18/5/18
f 1/12/1 13/12/13 15/12/15 2/12/2
f 16/2/16 5/2/5 4/2/4 17/1/17
f 7/13/7 19/4/19 13/12/13 1/12/1
f 25/17/25 26/17/26 28/18/28 27/18/27
f 29/17/29 32/18/32 31/18/31 30/17/30
f 25/13/25 27/16/27 32/16/32 29/13/29
f 26/13/26 25/13/25 29/13/29 30/13/30
f 28/16/28 26/13/26 30/13/30 31/16/31
f 27/16/27 28/16/28 31/16/31 32/16/32
f 91/19/91 34/18/34 36/20/36 92/21/92
f 96/22/96 42/23/42 40/24/40 93/25/93
f 93/26/93 40/27/40 38/28/38 94/29/94
f 95/30/95 44/30/44 34/28/34 91/31/91
f 43/32/43 41/33/41 58/33/58 57/32/57
f 42/34/42 36/35/36 34/18/34 44/31/44
f 40/34/40 42/35/42 44/18/44 38/31/38
f 41/33/41 43/32/43 54/32/54 53/33/53
f 94/36/94 38/27/38 44/28/44 95/37/95
f 92/38/92 36/39/36 42/23/42 96/22/96
f 35/40/35 46/41/46 50/42/50 41/43/41
f 37/44/37 48/45/48 49/46/49 43/29/43
f 43/26/43 49/47/49 45/46/45 33/29/33
f 39/44/39 47/45/47 48/46/48 37/29/37
f 41/43/41 50/42/50 47/48/47 39/49/39
f 33/45/33 45/31/45 46/50/46 35/46/35
f 51/51/51 53/33/53 54/32/54 52/52/52
f 35/46/35 41/53/41 53/53/53 51/46/51
f 33/54/33 35/55/35 51/55/51 52/54/52
f 43/26/43 33/29/33 52/29/52 54/26/54
f 58/56/58 56/45/56 55/46/55 57/57/57
f 39/44/39 37/29/37 55/29/55 56/44/56
f 41/53/41 39/53/39 56/53/56 58/53/58
f 37/44/37 43/29/43 57/29/57 55/44/55
f 61/45/61 62/46/62 59/50/59 60/31/60
f 65/45/65 63/31/63 64/50/64 66/46/66
f 59/50/59 62/46/62 66/46/66 64/50/64
f 60/31/60 59/50/59 64/50/64 63/31/63
f 61/45/61 65/45/65 85/45/85 83/45/83
f 61/47/61 60/53/60 63/53/63 65/47/65
f 69/31/69 70/50/70 68/20/68 67/18/67
f 71/31/71 72/18/72 73/20/73 74/50/74
f 70/50/70 69/31/69 75/31/75 76/50/76
f 67/18/67 68/20/68 73/20/73 72/18/72
f 68/20/68 70/50/70 74/50/74 73/20/73
f 69/31/69 67/18/67 72/18/72 71/31/71
f 75/20/75 77/20/77 81/20/81 79/20/79
f 69/20/69 71/20/71 77/20/77 75/20/75
f 74/50/74 70/50/70 76/50/76 78/50/78
f 71/31/71 74/50/74 78/50/78 77/31/77
f 80/50/80 79/31/79 81/31/81 82/50/82
f 76/50/76 75/31/75 79/31/79 80/50/80
f 78/50/78 76/50/76 80/50/80 82/50/82
f 77/31/77 78/50/78 82/50/82 81/31/81
f 86/46/86 84/46/84 88/46/88 90/46/90
f 65/45/65 66/46/66 86/46/86 85/45/85
f 62/46/62 61/45/61 83/45/83 84/46/84
f 66/46/66 62/46/62 84/46/84 86/46/86
f 88/46/88 87/45/87 89/45/89 90/46/90
f 84/46/84 83/45/83 87/45/87 88/46/88
f 83/45/83 85/45/85 89/45/89 87/45/87
f 85/45/85 86/46/86 90/46/90 89/45/89
f 46/38/46 92/58/92 96/59/96 50/22/50
f 48/45/48 94/36/94 95/37/95 49/46/49
f 49/47/49 95/30/95 91/31/91 45/46/45
f 47/45/47 93/44/93 94/26/94 48/46/48
f 50/22/50 96/59/96 93/60/93 47/25/47
f 45/31/45 91/19/91 92/21/92 46/50/46
