# Blender 4.2.1 LTS
# www.blender.org
o Coletavel_FrutaVermelha
v -0.120683 0.025997 0.447293
v -0.120683 0.156499 0.538114
v -0.233110 0.136659 0.427452
v -0.120683 0.394077 0.495519
v -0.120135 0.482838 0.366374
v -0.233110 0.374237 0.384857
v -0.120683 -0.016599 0.209715
v -0.233110 0.094063 0.189874
v -0.120683 0.074222 0.079212
v -0.120135 0.440242 0.128796
v -0.120683 0.311800 0.036617
v -0.233110 0.331641 0.147279
v 0.120683 0.025997 0.447293
v 0.233110 0.136659 0.427452
v 0.120683 0.156499 0.538114
v 0.121232 0.482838 0.366374
v 0.120683 0.394077 0.495519
v 0.233110 0.374237 0.384857
v 0.120683 -0.016599 0.209715
v 0.120683 0.074222 0.079212
v 0.233110 0.094063 0.189874
v 0.121232 0.440242 0.128796
v 0.233110 0.331641 0.147279
v 0.120683 0.311800 0.036617
v 0.010667 0.423517 0.272649
v -0.100969 0.168514 -0.272193
v -0.100969 0.208746 -0.145400
v -0.195030 0.252026 -0.228912
v -0.100969 0.388037 -0.052482
v -0.100969 0.514830 -0.092714
v -0.195030 0.431317 -0.135994
v -0.100969 0.261432 -0.451484
v -0.195030 0.344944 -0.408204
v -0.100969 0.388225 -0.491716
v -0.100969 0.607748 -0.272005
v -0.100969 0.567516 -0.398798
v -0.195030 0.524235 -0.315286
v 0.100969 0.168514 -0.272193
v 0.195030 0.252026 -0.228912
v 0.100969 0.208746 -0.145400
v 0.100969 0.514830 -0.092714
v 0.100969 0.388037 -0.052482
v 0.195030 0.431317 -0.135994
v 0.100969 0.261432 -0.451484
v 0.100969 0.388225 -0.491716
v 0.195030 0.344944 -0.408204
v 0.100969 0.607748 -0.272005
v 0.195030 0.524235 -0.315286
v 0.100969 0.567516 -0.398798
v -0.029115 0.493606 -0.182742
v -0.028494 0.517784 -0.230158
v 0.022920 0.504532 -0.206150
v 0.027433 0.956834 0.025861
v 0.044756 0.980655 -0.016379
v 0.077517 0.970228 0.002632
v 0.082723 0.988885 0.036856
v 0.042007 0.955372 0.059239
v 0.050966 1.007080 0.059521
v 0.038334 0.403680 0.256533
v -0.017593 0.390708 0.248022
v -0.003586 0.391630 0.297108
v -0.015535 0.830902 0.251193
v 0.036215 0.825263 0.221278
v -0.018858 0.799749 0.228416
v -0.037329 0.721863 -0.074799
v 0.014011 0.710294 -0.050888
v -0.039152 0.697993 -0.027250
v 0.058934 1.020034 -0.021004
v 0.083685 1.014602 -0.008807
v 0.060586 1.033873 0.017437
v 0.084267 1.024727 0.008708
v 0.015374 1.172106 -0.016187
v 0.038338 1.185441 -0.008108
v 0.019362 1.180129 0.023144
v 0.038135 1.192928 0.010219
v 0.004925 0.535025 -0.182932
vn -0.0000 0.1765 0.9843
vn 1.0000 -0.0000 -0.0000
vn -0.0000 0.9933 0.1155
vn -1.0000 -0.0000 -0.0000
vn -0.0000 -0.1765 -0.9843
vn -0.5774 -0.4664 0.6702
vn -0.5741 0.6759 0.4621
vn -0.5774 -0.6702 -0.4664
vn -0.5707 0.4804 -0.6660
vn 0.5774 -0.4664 0.6702
vn 0.5760 0.6725 0.4647
vn 0.5774 -0.6702 -0.4664
vn 0.5726 0.4764 -0.6672
vn -0.7071 -0.6960 0.1248
vn -0.7071 0.1248 0.6960
vn -0.6981 0.7047 -0.1264
vn -0.7071 -0.1248 -0.6960
vn -0.0000 -0.8208 -0.5712
vn -0.0000 0.5831 -0.8124
vn 0.7071 -0.1248 -0.6960
vn 0.7071 -0.6960 0.1248
vn 0.7016 0.7014 -0.1258
vn 0.7071 0.1248 0.6960
vn -0.0000 -0.5712 0.8208
vn -0.0000 0.8241 0.5664
vn -0.0000 -0.9843 0.1765
vn 0.3047 0.9375 -0.1681
vn -0.0000 0.8450 -0.5348
vn -0.3540 0.9206 -0.1651
vn -0.0000 -0.4601 0.8879
vn -0.0000 0.7746 0.6324
vn -0.0000 0.4601 -0.8879
vn -0.5774 -0.7783 0.2469
vn -0.5774 0.2469 0.7783
vn -0.5774 -0.2469 -0.7783
vn -0.5774 0.7783 -0.2469
vn 0.5774 -0.7783 0.2469
vn 0.5774 0.2469 0.7783
vn 0.5774 -0.2469 -0.7783
vn 0.5774 0.7783 -0.2469
vn -0.7071 -0.6278 -0.3254
vn -0.7071 -0.3254 0.6278
vn -0.7071 0.6278 0.3254
vn -0.7071 0.3254 -0.6278
vn -0.0000 -0.3024 -0.9532
vn -0.0000 0.9532 -0.3024
vn 0.7071 0.3254 -0.6278
vn 0.7071 -0.6278 -0.3254
vn 0.7071 0.6278 0.3254
vn 0.7071 -0.3254 0.6278
vn -0.0000 -0.9532 0.3024
vn -0.0000 0.3024 0.9532
vn -0.0000 -0.8879 -0.4601
vn 0.5954 0.0851 0.7989
vn 0.9920 -0.1178 -0.0455
vn 0.4661 0.0597 -0.8827
vn 0.4543 -0.2872 0.8433
vn -0.9568 0.2860 -0.0521
vn -0.9238 0.3719 0.0908
vn 0.4883 -0.8692 0.0782
vn 0.2326 -0.9714 -0.0481
vn -0.9724 0.0029 0.2332
vn 0.0351 -0.0657 -0.9972
vn 0.2809 -0.7532 -0.5948
vn -0.9675 0.1899 -0.1669
vn 0.5554 0.5271 0.6432
vn -0.9992 -0.0192 -0.0354
vn 0.4410 -0.5290 0.7250
vn 0.4585 0.5493 -0.6986
vn -0.9502 -0.2752 0.1463
vn 0.6002 0.5472 0.5834
vn 0.4022 -0.2657 -0.8762
vn -0.9496 0.3104 -0.0440
vn -0.5369 0.8229 -0.1861
vn 0.3717 0.1181 -0.9208
vn 0.9561 0.2589 -0.1373
vn 0.4449 0.1032 0.8896
vn 0.2174 0.8666 0.4491
vn -0.0000 0.9759 0.2184
vn -0.2385 0.8622 0.4469
vt 0.345356 0.872036
vt 0.345356 0.874012
vt 0.342885 0.874012
vt 0.343379 0.872036
vt 0.349308 0.872036
vt 0.348814 0.874506
vt 0.346838 0.874012
vt 0.346838 0.872036
vt 0.344368 0.875000
vt 0.341897 0.876976
vt 0.340415 0.875494
vt 0.341897 0.872036
vt 0.341897 0.874012
vt 0.339921 0.874012
vt 0.339921 0.872036
vt 0.338439 0.872036
vt 0.338439 0.874012
vt 0.335474 0.874506
vt 0.335968 0.871542
vt 0.342391 0.870553
vt 0.342885 0.875988
vt 0.339427 0.870553
vt 0.339427 0.875988
vt 0.345850 0.870553
vt 0.345850 0.876482
vt 0.349308 0.870059
vt 0.351285 0.871542
vt 0.349308 0.876482
vt 0.351285 0.875000
vt 0.336462 0.869565
vt 0.335968 0.876482
vt 0.343379 0.868577
vt 0.343379 0.871542
vt 0.339921 0.871542
vt 0.339921 0.868577
vt 0.340909 0.877964
vt 0.339427 0.876976
vt 0.335968 0.875000
vt 0.349802 0.872530
vt 0.349308 0.874506
vt 0.347332 0.874506
vt 0.347826 0.872530
vt 0.339427 0.874012
vt 0.336462 0.874012
vt 0.337945 0.871047
vt 0.341897 0.877964
vt 0.340415 0.877964
vt 0.340415 0.874506
vt 0.346838 0.872530
vt 0.345850 0.874506
vt 0.343874 0.874012
vt 0.344368 0.872530
vt 0.340909 0.874012
vt 0.341403 0.872036
vt 0.347332 0.871047
vt 0.346838 0.876482
vt 0.343874 0.871047
vt 0.343874 0.875988
vt 0.350296 0.871047
vt 0.351779 0.872530
vt 0.351285 0.875988
vt 0.340909 0.870059
vt 0.340415 0.875988
vt 0.338439 0.869565
vt 0.336957 0.876482
vt 0.337451 0.871542
vt 0.337451 0.869071
vt 0.339921 0.869071
vt 0.336462 0.887352
vt 0.335968 0.887352
vt 0.336462 0.883893
vt 0.336462 0.889328
vt 0.336957 0.889328
vt 0.336462 0.888834
vt 0.336957 0.883893
vt 0.336957 0.887352
vt 0.336957 0.890810
vt 0.335968 0.890810
vt 0.336462 0.890810
vt 0.338933 0.877470
vt 0.335968 0.874506
vt 0.345356 0.874506
s 0
f 15/1/1 17/2/1 4/3/1 2/4/1
f 21/5/2 23/6/2 18/7/2 14/8/2
f 22/9/3 10/10/3 25/11/3
f 3/12/4 6/13/4 12/14/4 8/15/4
f 9/16/5 11/17/5 24/18/5 20/19/5
f 1/20/6 2/4/6 3/12/6
f 4/3/7 5/21/7 6/13/7
f 7/22/8 8/15/8 9/16/8
f 10/23/9 11/17/9 12/14/9
f 13/24/10 14/8/10 15/1/10
f 16/25/11 17/2/11 18/7/11
f 19/26/12 20/27/12 21/5/12
f 22/28/13 23/6/13 24/29/13
f 7/22/14 1/20/14 3/12/14 8/15/14
f 2/4/15 4/3/15 6/13/15 3/12/15
f 5/21/16 10/23/16 12/14/16 6/13/16
f 11/17/17 9/16/17 8/15/17 12/14/17
f 19/30/18 7/22/18 9/16/18 20/19/18
f 10/23/19 22/31/19 24/18/19 11/17/19
f 23/6/20 21/5/20 20/27/20 24/29/20
f 13/24/21 19/26/21 21/5/21 14/8/21
f 22/28/22 16/25/22 18/7/22 23/6/22
f 17/2/23 15/1/23 14/8/23 18/7/23
f 1/20/24 13/24/24 15/1/24 2/4/24
f 16/25/25 5/21/25 4/3/25 17/2/25
f 7/32/26 19/33/26 13/34/26 1/35/26
f 10/10/27 5/36/27 25/11/27
f 5/36/28 16/37/28 25/11/28
f 16/37/29 22/38/29 25/11/29
f 40/39/30 42/40/30 29/41/30 27/42/30
f 46/15/2 48/43/2 43/44/2 39/45/2
f 47/46/31 35/47/31 76/48/31
f 28/49/4 31/50/4 37/51/4 33/52/4
f 34/4/32 36/3/32 49/53/32 45/54/32
f 26/55/33 27/42/33 28/49/33
f 29/41/34 30/56/34 31/50/34
f 32/57/35 33/52/35 34/4/35
f 35/58/36 36/3/36 37/51/36
f 38/59/37 39/60/37 40/39/37
f 41/28/38 42/40/38 43/61/38
f 44/62/39 45/54/39 46/15/39
f 47/63/40 48/43/40 49/53/40
f 32/57/41 26/55/41 28/49/41 33/52/41
f 27/42/42 29/41/42 31/50/42 28/49/42
f 30/56/43 35/58/43 37/51/43 31/50/43
f 36/3/44 34/4/44 33/52/44 37/51/44
f 44/62/45 32/57/45 34/4/45 45/54/45
f 35/58/46 47/63/46 49/53/46 36/3/46
f 48/43/47 46/15/47 45/54/47 49/53/47
f 38/64/48 44/62/48 46/15/48 39/45/48
f 47/63/49 41/65/49 43/44/49 48/43/49
f 42/40/50 40/39/50 39/60/50 43/61/50
f 26/55/51 38/59/51 40/39/51 27/42/51
f 41/28/52 30/56/52 29/41/52 42/40/52
f 32/34/53 44/66/53 38/67/53 26/68/53
f 63/69/54 62/70/54 61/71/54 59/71/54
f 56/72/55 55/72/55 69/72/55 71/73/55
f 66/72/56 65/72/56 54/72/56 55/72/56
f 67/72/57 66/72/57 55/72/57 53/72/57
f 65/72/58 67/72/58 53/72/58 54/72/58
f 54/72/59 53/72/59 57/74/59 58/72/59
f 53/72/60 55/72/60 56/72/60 57/74/60
f 59/71/61 61/71/61 60/75/61
f 62/70/62 64/76/62 60/75/62 61/71/62
f 64/76/63 63/69/63 59/71/63 60/75/63
f 57/74/64 56/72/64 63/69/64 64/76/64
f 58/72/65 57/74/65 64/76/65 62/70/65
f 56/72/66 58/72/66 62/70/66 63/69/66
f 51/72/67 50/72/67 67/72/67 65/72/67
f 50/72/68 52/72/68 66/72/68 67/72/68
f 52/72/69 51/72/69 65/72/69 66/72/69
f 68/72/70 70/73/70 74/77/70 72/78/70
f 58/72/71 56/72/71 71/73/71 70/73/71
f 55/72/72 54/72/72 68/72/72 69/72/72
f 54/72/73 58/72/73 70/73/73 68/72/73
f 73/78/74 72/78/74 74/77/74 75/79/74
f 69/72/75 68/72/75 72/78/75 73/78/75
f 71/73/76 69/72/76 73/78/76 75/79/76
f 70/73/77 71/73/77 75/79/77 74/77/77
f 35/47/78 30/80/78 76/48/78
f 30/80/79 41/81/79 76/48/79
f 41/82/80 47/46/80 76/48/80
