# Blender 4.2.1 LTS
# www.blender.org
o Coletavel_Cactus
v -0.173648 0.052341 -0.169459
v -0.299883 0.444257 -0.131948
v -0.006789 0.095147 -0.055175
v -0.133024 0.487063 -0.017664
v -0.013815 0.073221 0.150264
v -0.140050 0.465137 0.187775
v -0.187700 0.008489 0.241418
v -0.313935 0.400405 0.278929
v -0.354559 -0.034317 0.127134
v -0.480794 0.357599 0.164645
v -0.347533 -0.012392 -0.078305
v -0.473768 0.379525 -0.040794
v -0.334294 0.507354 0.081628
v -0.469117 0.142491 0.172856
v -0.252896 0.197961 0.320950
v -0.027570 0.281843 0.202829
v -0.018466 0.310255 -0.063386
v -0.234687 0.254785 -0.211480
v -0.460013 0.170903 -0.093359
v -0.155916 -0.046450 0.028623
v -0.325234 0.475655 0.059556
v -0.311795 0.476770 0.093137
v -0.165395 0.534625 -0.017387
v -0.144362 0.536369 0.035169
v -0.252185 0.520419 0.017818
v -0.231152 0.522163 0.070374
v -0.315964 0.468296 0.075589
v -0.104109 0.544892 -0.011740
v -0.239083 0.513265 0.043328
v -0.322095 0.473046 0.097382
v -0.335533 0.471931 0.063802
v -0.482003 0.414295 0.174347
v -0.503036 0.412551 0.121791
v -0.405123 0.459265 0.142086
v -0.426156 0.457520 0.089530
v -0.326264 0.464572 0.079834
v -0.538119 0.387976 0.167163
v -0.413054 0.450366 0.115040
v -0.341710 0.468434 0.079559
v -0.309980 0.479906 0.066480
v -0.420032 0.459552 -0.089949
v -0.370372 0.477507 -0.110419
v -0.390326 0.477809 -0.001870
v -0.340665 0.495763 -0.022340
v -0.323295 0.466253 0.072261
v -0.413025 0.458810 -0.151946
v -0.362910 0.478760 -0.012873
v -0.305618 0.480267 0.077380
v -0.337348 0.468795 0.090459
v -0.227367 0.489368 0.246909
v -0.277027 0.471413 0.267379
v -0.266982 0.501875 0.161774
v -0.316642 0.483920 0.182244
v -0.318933 0.466614 0.083162
v -0.229204 0.474057 0.307370
v -0.289227 0.484871 0.171241
v -0.319144 0.487057 0.043714
v -0.321593 0.479412 0.115346
v -0.140854 0.545388 0.035544
v -0.144688 0.533422 0.147654
v -0.234625 0.532739 0.030987
v -0.238459 0.520774 0.143097
v -0.317818 0.475318 0.078773
v -0.087891 0.547883 0.094381
v -0.233957 0.518730 0.086274
v -0.332772 0.475884 0.114587
v -0.330322 0.483530 0.042956
v -0.511132 0.417773 0.122779
v -0.507297 0.429738 0.010669
v -0.427270 0.461185 0.130280
v -0.423436 0.473151 0.018170
v -0.328997 0.471790 0.078014
v -0.558924 0.399225 0.062406
v -0.422767 0.459142 0.073457
v -0.292203 0.492737 0.087418
v -0.360798 0.471089 0.082761
v -0.279201 0.479166 0.274241
v -0.386558 0.445284 0.266954
v -0.280984 0.504446 0.182965
v -0.388340 0.470565 0.175677
v -0.323950 0.473996 0.084332
v -0.332162 0.448370 0.324440
v -0.332077 0.479479 0.178553
v -0.360398 0.472335 0.071088
v -0.291804 0.493983 0.075744
v -0.373470 0.486125 -0.115715
v -0.266114 0.520007 -0.108427
v -0.381597 0.491608 -0.021494
v -0.274241 0.525490 -0.014206
v -0.323551 0.475242 0.072658
v -0.315339 0.500868 -0.167449
v -0.325333 0.500523 -0.018618
v -0.328300 0.464202 0.060175
v -0.304819 0.469173 0.087256
v -0.204878 0.516547 -0.070107
v -0.168129 0.524327 -0.027722
v -0.274878 0.505109 -0.007314
v -0.238129 0.512889 0.035071
v -0.314009 0.458771 0.072958
v -0.145619 0.528203 -0.085788
v -0.253918 0.500973 0.013110
v -0.313005 0.465798 0.094974
v -0.336486 0.460827 0.067892
v -0.436497 0.413672 0.225276
v -0.473247 0.405892 0.182891
v -0.376406 0.455874 0.165428
v -0.413156 0.448094 0.123044
v -0.322196 0.455396 0.080676
v -0.490585 0.385964 0.239421
v -0.392196 0.443957 0.143468
v -0.337073 0.458994 0.085067
v -0.311853 0.469393 0.061291
v -0.465354 0.430523 -0.047898
v -0.425882 0.446799 -0.085109
v -0.409749 0.458726 0.023421
v -0.370277 0.475001 -0.013790
v -0.321913 0.456277 0.072421
v -0.478690 0.423086 -0.108397
v -0.387428 0.458837 0.004047
v -0.304231 0.471006 0.070082
v -0.329452 0.460608 0.093858
v -0.176022 0.499696 0.203068
v -0.215493 0.483421 0.240279
v -0.241536 0.502257 0.134694
v -0.281007 0.485982 0.171904
v -0.314291 0.457890 0.081212
v -0.157515 0.491081 0.262031
v -0.258686 0.486093 0.152531
v -0.334426 0.465210 0.064075
v -0.303735 0.473438 0.081392
v -0.262312 0.504630 -0.103829
v -0.214279 0.517507 -0.076727
v -0.307676 0.499194 -0.020846
v -0.259643 0.512072 0.006256
v -0.316530 0.461407 0.071976
v -0.211917 0.515300 -0.139040
v -0.281075 0.497607 -0.008063
v -0.308821 0.470818 0.091651
v -0.339512 0.462590 0.074334
v -0.381005 0.431617 0.259576
v -0.429038 0.418740 0.232474
v -0.345549 0.467817 0.179537
v -0.393583 0.454939 0.152435
v -0.321616 0.458787 0.082235
v -0.426230 0.404895 0.293250
v -0.366981 0.453352 0.165218
v -0.334439 0.462643 0.090854
v -0.318770 0.470715 0.059250
v -0.497209 0.418031 0.010471
v -0.472687 0.430663 -0.038992
v -0.423009 0.454633 0.056605
v -0.398487 0.467266 0.007142
v -0.324054 0.458762 0.074295
v -0.528969 0.403826 -0.041325
v -0.408163 0.452923 0.031105
v -0.308808 0.473385 0.064871
v -0.324476 0.465314 0.096476
v -0.146108 0.518217 0.145275
v -0.170630 0.505584 0.194739
v -0.230216 0.512378 0.102086
v -0.254739 0.499745 0.151549
v -0.314092 0.461433 0.079916
v -0.109177 0.516369 0.195535
v -0.239892 0.498035 0.126049
v -0.333005 0.473791 0.113433
v -0.330555 0.481436 0.041801
v -0.471010 0.499976 0.132001
v -0.467176 0.511941 0.019891
v -0.384883 0.491205 0.134010
v -0.381048 0.503170 0.021901
v -0.329230 0.469697 0.076859
v -0.543437 0.570457 0.089084
v -0.391363 0.488925 0.076786
v -0.317678 0.485325 0.044503
v -0.320128 0.477680 0.116135
v -0.221588 0.589273 0.038390
v -0.225422 0.577308 0.150500
v -0.286692 0.532774 0.030133
v -0.290527 0.520809 0.142243
v -0.316353 0.473586 0.079561
v -0.211382 0.675079 0.113453
v -0.276930 0.524865 0.086382
v -0.294026 0.495215 0.088551
v -0.362621 0.473567 0.083894
v -0.299758 0.553430 0.217601
v -0.407115 0.519548 0.210313
v -0.286546 0.529222 0.135514
v -0.393902 0.495341 0.128226
v -0.325773 0.476474 0.085465
v -0.386091 0.609814 0.275178
v -0.338942 0.506068 0.141866
v -0.360412 0.475560 0.070501
v -0.291818 0.497208 0.075157
v -0.396595 0.547478 -0.046094
v -0.289239 0.581359 -0.038807
v -0.388784 0.506415 0.029746
v -0.281428 0.540297 0.037033
v -0.323565 0.478467 0.072071
v -0.372484 0.647380 -0.071525
v -0.333106 0.519380 0.022419
v -0.310465 0.496515 0.072041
v -0.338774 0.484843 0.098728
v -0.244087 0.581676 0.162232
v -0.288393 0.563407 0.204000
v -0.285134 0.538125 0.099643
v -0.329440 0.519857 0.141411
v -0.322070 0.482762 0.084627
v -0.267872 0.656926 0.233189
v -0.298801 0.525346 0.127934
v -0.346876 0.483272 0.087873
v -0.318567 0.494945 0.061186
v -0.455169 0.528244 0.010138
v -0.410863 0.546513 -0.031631
v -0.393099 0.506525 0.066479
v -0.348793 0.524793 0.024711
v -0.330171 0.481191 0.073772
v -0.493606 0.609281 -0.028673
v -0.376150 0.509115 0.037213
v -0.338331 0.488554 0.061441
v -0.309608 0.495130 0.089398
v -0.289429 0.585301 -0.028233
v -0.244475 0.595593 0.015522
v -0.329591 0.530870 0.025834
v -0.284636 0.541162 0.069588
v -0.321419 0.483925 0.074662
v -0.269090 0.681052 -0.022981
v -0.298745 0.533815 0.039631
v -0.319010 0.491233 0.098473
v -0.347733 0.484657 0.070516
v -0.409827 0.524619 0.200602
v -0.454782 0.514327 0.156847
v -0.348642 0.513780 0.140288
v -0.393597 0.503488 0.096534
v -0.330822 0.480028 0.083736
v -0.492388 0.585155 0.227497
v -0.376206 0.500645 0.125516
v -0.378378 0.489482 0.123131
v -0.293419 0.516295 0.128898
v -0.375343 0.498951 0.034410
v -0.290384 0.525764 0.040177
v -0.376861 0.494216 0.078770
v -0.335898 0.502888 0.126014
v -0.291901 0.521029 0.084537
v -0.332864 0.512357 0.037293
v -0.338014 0.518902 0.082733
v 0.286051 0.124214 -0.475933
v 0.286051 0.857641 -0.475933
v 0.603634 0.124214 -0.292576
v 0.603634 0.857641 -0.292576
v 0.603634 0.124214 0.074137
v 0.603634 0.857641 0.074137
v 0.286051 0.124214 0.257494
v 0.286051 0.857641 0.257494
v -0.031532 0.124214 0.074137
v -0.031532 0.857641 0.074137
v -0.031532 0.124214 -0.292576
v -0.031532 0.857641 -0.292576
v 0.286051 1.016752 -0.109219
v -0.125485 0.490928 0.128381
v 0.286051 0.490928 0.365981
v 0.697586 0.490928 0.128381
v 0.697586 0.490928 -0.346819
v 0.286051 0.490928 -0.584419
v -0.125485 0.490928 -0.346819
v 0.286051 -0.019630 -0.109219
v 0.281929 0.954989 -0.142711
v 0.309057 0.954989 -0.084533
v 0.574358 0.955194 -0.299085
v 0.616817 0.955194 -0.208032
v 0.424311 0.983979 -0.229117
v 0.466770 0.983979 -0.138064
v 0.295493 0.940173 -0.113622
v 0.683935 0.940173 -0.294756
v 0.445540 0.968959 -0.183591
v 0.290173 0.954989 -0.075727
v 0.263044 0.954989 -0.133905
v -0.002257 0.955194 0.080647
v -0.044716 0.955194 -0.010406
v 0.147790 0.983979 0.010678
v 0.105332 0.983979 -0.080375
v 0.276608 0.940173 -0.104816
v -0.111834 0.940173 0.076317
v 0.126561 0.968959 -0.034848
v 0.252559 0.954989 -0.105097
v 0.310737 0.954989 -0.132226
v 0.096185 0.955194 -0.397527
v 0.187238 0.955194 -0.439986
v 0.166153 0.983979 -0.247479
v 0.257206 0.983979 -0.289938
v 0.281648 0.940173 -0.118662
v 0.100514 0.940173 -0.507104
v 0.211679 0.968959 -0.268709
v 0.319543 0.954989 -0.113341
v 0.261365 0.954989 -0.086213
v 0.475917 0.955194 0.179088
v 0.384863 0.955194 0.221547
v 0.405948 0.983979 0.029041
v 0.314895 0.983979 0.071500
v 0.290454 0.940173 -0.099777
v 0.471587 0.940173 0.288665
v 0.360422 0.968959 0.050270
v 0.296469 0.968314 -0.173152
v 0.296469 0.968314 -0.045287
v 0.627587 0.968519 -0.209279
v 0.627587 0.968519 -0.009160
v 0.462028 0.997304 -0.209279
v 0.462028 0.997304 -0.009160
v 0.296469 0.953499 -0.109219
v 0.725068 0.953499 -0.109219
v 0.462028 0.982284 -0.109219
v 0.275632 0.968314 -0.045287
v 0.275632 0.968314 -0.173152
v -0.055485 0.968519 -0.009160
v -0.055485 0.968519 -0.209279
v 0.110073 0.997304 -0.009160
v 0.110073 0.997304 -0.209279
v 0.275632 0.953499 -0.109219
v -0.152966 0.953499 -0.109219
v 0.110073 0.982284 -0.109219
v 0.349983 0.970307 -0.098801
v 0.222118 0.970307 -0.098801
v 0.386110 0.970512 0.232317
v 0.185992 0.970512 0.232317
v 0.386110 0.999297 0.066758
v 0.185991 0.999297 0.066758
v 0.286051 0.955492 -0.098801
v 0.286051 0.955492 0.329798
v 0.286051 0.984277 0.066758
v 0.222118 0.970307 -0.119638
v 0.349983 0.970307 -0.119638
v 0.185991 0.970512 -0.450755
v 0.386110 0.970512 -0.450755
v 0.185991 0.999297 -0.285197
v 0.386110 0.999297 -0.285197
v 0.286051 0.955491 -0.119638
v 0.286051 0.955491 -0.548236
v 0.286051 0.984277 -0.285197
v 0.270722 0.937491 -0.139282
v 0.316113 0.937491 -0.093891
v 0.492033 0.937696 -0.386242
v 0.563073 0.937696 -0.315202
v 0.374965 0.966481 -0.269174
v 0.446006 0.966481 -0.198134
v 0.293418 0.922676 -0.116586
v 0.596483 0.922676 -0.419651
v 0.410485 0.951461 -0.233654
v 0.301379 0.937491 -0.079157
v 0.255988 0.937491 -0.124548
v 0.080068 0.937696 0.167803
v 0.009028 0.937696 0.096763
v 0.197136 0.966481 0.050735
v 0.126096 0.966481 -0.020305
v 0.278684 0.922675 -0.101852
v -0.024381 0.922676 0.201213
v 0.161616 0.951461 0.015215
v 0.255988 0.937491 -0.093891
v 0.301379 0.937491 -0.139282
v 0.009028 0.937696 -0.315202
v 0.080068 0.937696 -0.386242
v 0.126096 0.966481 -0.198134
v 0.197136 0.966481 -0.269174
v 0.278684 0.922675 -0.116586
v -0.024381 0.922675 -0.419651
v 0.161616 0.951461 -0.233654
v 0.316113 0.937491 -0.124548
v 0.270722 0.937491 -0.079157
v 0.563073 0.937696 0.096763
v 0.492033 0.937696 0.167803
v 0.446005 0.966481 -0.020305
v 0.374965 0.966481 0.050735
v 0.293418 0.922676 -0.101852
v 0.596483 0.922676 0.201213
v 0.410485 0.951461 0.015215
v 0.261365 0.943132 -0.132226
v 0.319543 0.943131 -0.105097
v 0.384863 0.943336 -0.439985
v 0.475917 0.943336 -0.397527
v 0.314895 0.972122 -0.289938
v 0.405948 0.972122 -0.247480
v 0.290454 0.928316 -0.118662
v 0.471587 0.928316 -0.507104
v 0.360422 0.957101 -0.268709
v 0.310737 0.943132 -0.086213
v 0.252559 0.943131 -0.113341
v 0.187238 0.943336 0.221547
v 0.096185 0.943336 0.179088
v 0.257206 0.972122 0.071500
v 0.166153 0.972122 0.029041
v 0.281648 0.928316 -0.099777
v 0.100514 0.928316 0.288665
v 0.211679 0.957101 0.050270
v 0.263044 0.943132 -0.084533
v 0.290173 0.943132 -0.142711
v -0.044715 0.943336 -0.208032
v -0.002257 0.943336 -0.299085
v 0.105332 0.972122 -0.138064
v 0.147790 0.972122 -0.229117
v 0.276608 0.928316 -0.113622
v -0.111834 0.928316 -0.294756
v 0.126561 0.957101 -0.183591
v 0.309057 0.943131 -0.133905
v 0.281929 0.943131 -0.075727
v 0.616817 0.943336 -0.010406
v 0.574358 0.943336 0.080647
v 0.466770 0.972122 -0.080375
v 0.424311 0.972122 0.010678
v 0.295493 0.928316 -0.104816
v 0.683935 0.928316 0.076317
v 0.445540 0.957101 -0.034848
v 0.273991 0.964735 -0.046915
v 0.273991 0.964735 -0.174779
v 0.057098 1.086499 -0.010788
v 0.057098 1.086499 -0.210906
v 0.198050 1.025426 -0.010788
v 0.198050 1.025426 -0.210906
v 0.273991 0.949919 -0.110847
v -0.023492 1.123683 -0.110847
v 0.179337 1.015892 -0.110847
v 0.298110 0.964735 -0.171524
v 0.298110 0.964735 -0.043660
v 0.515004 1.086499 -0.207651
v 0.515004 1.086499 -0.007532
v 0.374051 1.025426 -0.207651
v 0.374051 1.025426 -0.007533
v 0.298110 0.949919 -0.107592
v 0.595594 1.123683 -0.107592
v 0.392765 1.015892 -0.107592
v 0.348355 0.975643 -0.097160
v 0.220491 0.975643 -0.097160
v 0.384482 1.097408 0.119734
v 0.184364 1.097408 0.119734
v 0.384482 1.036335 -0.021219
v 0.184364 1.036335 -0.021219
v 0.284423 0.960828 -0.097160
v 0.284423 1.134592 0.200324
v 0.284423 1.026800 -0.002505
v 0.223746 0.975643 -0.121279
v 0.351610 0.975643 -0.121279
v 0.187619 1.097408 -0.338172
v 0.387738 1.097408 -0.338172
v 0.187619 1.036335 -0.197220
v 0.387737 1.036335 -0.197220
v 0.287678 0.960828 -0.121279
v 0.287678 1.134591 -0.418762
v 0.287678 1.026800 -0.215933
v 0.319404 0.984076 -0.125518
v 0.268455 0.984076 -0.074569
v 0.487167 1.105841 0.013453
v 0.407426 1.105841 0.093194
v 0.387498 1.044768 -0.086215
v 0.307758 1.044768 -0.006475
v 0.293929 0.969261 -0.100043
v 0.504282 1.143024 0.110309
v 0.360860 1.035233 -0.033113
v 0.252697 0.984076 -0.092920
v 0.303647 0.984076 -0.143870
v 0.084935 1.105841 -0.231892
v 0.164675 1.105841 -0.311632
v 0.184603 1.044768 -0.132223
v 0.264344 1.044768 -0.211964
v 0.278172 0.969261 -0.118395
v 0.067819 1.143024 -0.328748
v 0.211241 1.035233 -0.185326
v 0.266907 0.984076 -0.141026
v 0.322103 0.984076 -0.094710
v 0.390728 1.105841 -0.320262
v 0.477115 1.105841 -0.247774
v 0.300125 1.044768 -0.212286
v 0.386513 1.044768 -0.139799
v 0.294505 0.969261 -0.117868
v 0.485724 1.143024 -0.345754
v 0.355348 1.035233 -0.190377
v 0.305195 0.984076 -0.077413
v 0.249998 0.984076 -0.123728
v 0.181373 1.105841 0.101823
v 0.094986 1.105841 0.029336
v 0.271976 1.044768 -0.006153
v 0.185589 1.044768 -0.078640
v 0.277596 0.969261 -0.100571
v 0.086378 1.143024 0.127315
v 0.216754 1.035233 -0.028061
v 0.206866 1.017254 -0.030035
v 0.365235 1.017254 -0.030035
v 0.206866 1.017254 -0.188404
v 0.365235 1.017254 -0.188404
v 0.206866 1.017254 -0.109219
v 0.286051 1.017254 -0.030035
v 0.365235 1.017254 -0.109219
v 0.286051 1.017254 -0.188404
v 0.286051 1.038361 -0.109219
v 0.635551 0.870828 -0.322972
v 0.729503 0.504115 -0.377215
v 0.649844 0.106256 -0.327211
v 0.743796 0.472969 -0.381454
v 0.286686 0.878073 -0.517355
v 0.286686 0.511359 -0.625841
v 0.287059 0.113172 -0.516100
v 0.287059 0.479886 -0.624586
v 0.645960 0.870126 0.086908
v 0.739913 0.503413 0.141152
v 0.638554 0.112046 0.089073
v 0.732507 0.478759 0.143316
v 0.279370 0.873620 0.296236
v 0.279370 0.506906 0.404723
v 0.272381 0.111458 0.294627
v 0.272381 0.478171 0.403113
v -0.061242 0.863614 0.077428
v -0.155194 0.496900 0.131671
v -0.057065 0.107537 0.077886
v -0.151017 0.474250 0.132129
v -0.062298 0.870046 -0.306355
v -0.156250 0.503333 -0.360599
v -0.057721 0.116252 -0.309172
v -0.151673 0.482965 -0.363416
vn 0.4137 0.4697 -0.7799
vn 0.8461 0.5262 0.0851
vn 0.3566 0.2918 0.8875
vn -0.5652 0.0008 0.8249
vn -0.9976 -0.0557 -0.0401
vn -0.5082 0.1788 -0.8425
vn -0.0467 0.9559 -0.2899
vn -0.4993 0.7391 0.4522
vn 0.1533 0.9820 0.1101
vn -0.6992 0.7130 0.0522
vn -0.0730 0.8736 0.4811
vn -0.4729 0.8214 -0.3189
vn -0.3566 -0.2918 -0.8875
vn -0.8461 -0.5262 -0.0851
vn -0.4137 -0.4697 0.7799
vn 0.5082 -0.1788 0.8425
vn 0.9976 0.0557 0.0401
vn 0.5652 -0.0008 -0.8249
vn -0.1145 -0.9874 -0.1093
vn 0.4866 -0.7636 -0.4244
vn 0.4623 -0.8394 0.2858
vn 0.0939 -0.8875 -0.4511
vn 0.0697 -0.9633 0.2591
vn 0.6708 -0.7396 -0.0560
vn -0.2446 0.9632 -0.1118
vn -0.5354 0.8259 -0.1765
vn -0.2850 0.8467 0.4493
vn -0.1221 0.9733 0.1942
vn -0.3524 0.8901 0.2892
vn -0.0327 0.9379 0.3453
vn -0.2831 0.9172 -0.2805
vn -0.4748 0.8799 -0.0169
vn -0.4918 0.8703 0.0264
vn -0.5263 0.7795 0.3398
vn 0.0650 0.9933 0.0961
vn -0.2026 0.9748 -0.0928
vn -0.1051 0.9829 0.1509
vn -0.0419 0.9844 -0.1710
vn -0.6331 0.7706 0.0728
vn -0.3943 0.8784 0.2701
vn -0.1725 0.9849 0.0151
vn -0.4341 0.8956 -0.0973
vn -0.4461 0.8581 0.2544
vn -0.1781 0.9672 0.1813
vn -0.4306 0.8875 0.1641
vn -0.1599 0.9484 0.2738
vn -0.1478 0.9859 -0.0779
vn -0.4249 0.9052 -0.0021
vn -0.2265 0.9472 0.2268
vn -0.1235 0.9911 -0.0498
vn -0.4603 0.8848 -0.0727
vn -0.3856 0.8970 0.2160
vn -0.3766 0.9251 -0.0476
vn -0.4705 0.8529 0.2263
vn -0.1337 0.9592 0.2491
vn -0.2174 0.9754 -0.0368
vn -0.3139 0.9417 -0.1210
vn -0.6031 0.7943 -0.0734
vn -0.1656 0.8869 0.4313
vn -0.1000 0.9870 0.1258
vn -0.2830 0.9115 0.2984
vn 0.0350 0.9696 0.2422
vn -0.4026 0.8770 -0.2625
vn -0.4970 0.8662 0.0516
vn -0.4986 0.8612 0.0988
vn -0.4257 0.8048 0.4136
vn 0.0443 0.9986 -0.0294
vn -0.2687 0.9560 -0.1179
vn -0.0983 0.9920 0.0786
vn -0.1424 0.9591 -0.2448
vn -0.6124 0.7653 0.1983
vn -0.3282 0.8973 0.2953
vn -0.3815 0.9184 -0.1049
vn -0.6323 0.7732 0.0487
vn -0.0604 0.9265 0.3714
vn -0.1018 0.9934 0.0529
vn -0.2155 0.9348 0.2823
vn 0.0642 0.9907 0.1201
vn -0.5077 0.8374 -0.2026
vn -0.4952 0.8598 0.1245
vn -0.4812 0.8600 0.1699
vn -0.3080 0.8394 0.4477
vn -0.0161 0.9898 -0.1412
vn -0.3384 0.9335 -0.1182
vn -0.1157 0.9933 0.0075
vn -0.2601 0.9244 -0.2789
vn -0.5521 0.7740 0.3100
vn -0.2585 0.9197 0.2955
vn 0.3497 0.9326 -0.0887
vn 0.2807 0.9142 0.2922
vn 0.2932 0.9532 -0.0732
vn 0.3475 0.8795 0.3252
vn -0.8329 0.4790 0.2773
vn -0.7737 0.6165 -0.1457
vn -0.7862 0.5775 0.2198
vn -0.8121 0.5477 -0.2014
vn -0.4057 0.7314 -0.5482
vn -0.0525 0.8801 -0.4720
vn -0.4024 0.7696 -0.4957
vn -0.0336 0.8551 -0.5174
vn -0.0118 0.7069 0.7072
vn -0.4405 0.6507 0.6185
vn -0.0906 0.7611 0.6422
vn -0.4918 0.5448 0.6792
vn -0.8748 0.4704 -0.1157
vn -0.3697 0.7552 -0.5413
vn -0.8088 0.5741 -0.1274
vn -0.3686 0.7177 -0.5908
vn 0.4104 0.8720 0.2668
vn -0.1064 0.7228 0.6828
vn 0.3327 0.9039 0.2688
vn -0.1218 0.6076 0.7848
vn -0.2783 0.5514 0.7865
vn -0.8060 0.5395 0.2435
vn -0.3604 0.6415 0.6771
vn -0.8853 0.4209 0.1978
vn -0.0868 0.8146 -0.5735
vn 0.3299 0.9385 -0.1020
vn -0.1156 0.8365 -0.5357
vn 0.3810 0.9165 -0.1220
vn -0.1710 0.9847 -0.0325
vn -0.4202 0.9061 -0.0495
vn -0.4291 0.8783 0.2109
vn -0.1799 0.9570 0.2278
vn 0.4844 0.2482 -0.8389
vn 0.9687 0.2482 -0.0000
vn 0.4844 0.2482 0.8389
vn -0.4844 0.2482 0.8389
vn -0.9687 0.2482 -0.0000
vn -0.4844 0.2482 -0.8389
vn 0.2240 0.8941 -0.3879
vn -0.2240 0.8941 0.3879
vn 0.4479 0.8941 -0.0000
vn -0.4479 0.8941 -0.0000
vn 0.2240 0.8941 0.3879
vn -0.2240 0.8941 -0.3879
vn -0.4844 -0.2482 -0.8389
vn -0.9687 -0.2482 -0.0000
vn -0.4844 -0.2482 0.8389
vn 0.4844 -0.2482 0.8389
vn 0.9687 -0.2482 -0.0000
vn 0.4844 -0.2482 -0.8389
vn -0.4126 -0.9109 -0.0000
vn 0.2063 -0.9109 -0.3573
vn 0.2063 -0.9109 0.3573
vn -0.2063 -0.9109 -0.3573
vn -0.2063 -0.9109 0.3573
vn 0.4126 -0.9109 -0.0000
vn 0.0493 0.9775 -0.2049
vn -0.2729 0.9304 -0.2448
vn 0.0121 0.9304 0.3664
vn 0.1887 0.9775 0.0939
vn -0.0493 0.9775 0.2049
vn 0.2729 0.9304 0.2448
vn -0.0121 0.9304 -0.3664
vn -0.1887 0.9775 -0.0939
vn -0.2049 0.9775 -0.0493
vn -0.2448 0.9304 0.2729
vn 0.3664 0.9304 -0.0121
vn 0.0939 0.9775 -0.1887
vn 0.2049 0.9775 0.0493
vn 0.2448 0.9304 -0.2729
vn -0.3664 0.9304 0.0121
vn -0.0939 0.9775 0.1887
vn 0.1327 0.9876 -0.0836
vn -0.1504 0.9727 -0.1770
vn -0.1504 0.9727 0.1770
vn 0.1327 0.9876 0.0836
vn -0.1327 0.9876 0.0836
vn 0.1504 0.9727 0.1770
vn 0.1504 0.9727 -0.1770
vn -0.1327 0.9876 -0.0836
vn 0.0836 0.9876 0.1327
vn 0.1770 0.9727 -0.1504
vn -0.1770 0.9727 -0.1504
vn -0.0836 0.9876 0.1327
vn -0.0836 0.9876 -0.1327
vn -0.1770 0.9727 0.1504
vn 0.1770 0.9727 0.1504
vn 0.0836 0.9876 -0.1327
vn -0.0237 0.9775 -0.2094
vn -0.3401 0.9304 -0.1367
vn 0.1367 0.9304 0.3401
vn 0.2094 0.9775 0.0237
vn 0.0237 0.9775 0.2094
vn 0.3401 0.9304 0.1367
vn -0.1367 0.9304 -0.3401
vn -0.2094 0.9775 -0.0237
vn -0.2094 0.9775 0.0237
vn -0.1367 0.9304 0.3401
vn 0.3401 0.9304 -0.1367
vn 0.0237 0.9775 -0.2094
vn 0.2094 0.9775 -0.0237
vn 0.1367 0.9304 -0.3401
vn -0.3401 0.9304 0.1367
vn -0.0237 0.9775 0.2094
vn -0.0939 0.9775 -0.1887
vn -0.3664 0.9304 -0.0121
vn 0.2448 0.9304 0.2729
vn 0.2049 0.9775 -0.0493
vn 0.0939 0.9775 0.1887
vn 0.3664 0.9304 0.0121
vn -0.2448 0.9304 -0.2729
vn -0.2049 0.9775 0.0493
vn -0.1887 0.9775 0.0939
vn -0.0121 0.9304 0.3664
vn 0.2729 0.9304 -0.2448
vn -0.0493 0.9775 -0.2049
vn 0.1887 0.9775 -0.0940
vn 0.0121 0.9304 -0.3664
vn -0.2729 0.9304 0.2448
vn 0.0493 0.9775 0.2049
vn 0.4389 0.8936 0.0943
vn 0.5606 0.8074 0.1839
vn 0.5606 0.8074 -0.1839
vn 0.4389 0.8936 -0.0943
vn -0.4389 0.8936 -0.0943
vn -0.5606 0.8074 -0.1839
vn -0.5606 0.8074 0.1839
vn -0.4389 0.8936 0.0943
vn 0.0943 0.8936 -0.4389
vn 0.1839 0.8074 -0.5606
vn -0.1839 0.8074 -0.5606
vn -0.0943 0.8936 -0.4389
vn -0.0943 0.8936 0.4389
vn -0.1839 0.8074 0.5606
vn 0.1839 0.8074 0.5606
vn 0.0943 0.8936 0.4389
vn -0.1902 0.8851 -0.4247
vn -0.1600 0.7796 -0.6055
vn -0.6055 0.7796 -0.1600
vn -0.4247 0.8851 -0.1902
vn 0.1902 0.8851 0.4247
vn 0.1600 0.7796 0.6055
vn 0.6055 0.7796 0.1600
vn 0.4247 0.8851 0.1902
vn -0.4065 0.8851 0.2265
vn -0.5892 0.7796 0.2121
vn -0.1066 0.7796 0.6171
vn -0.1524 0.8851 0.4397
vn 0.4065 0.8851 -0.2265
vn 0.5892 0.7796 -0.2121
vn 0.1066 0.7796 -0.6171
vn 0.1524 0.8851 -0.4397
vn 0.1310 0.9827 -0.1310
vn -0.1310 0.9827 -0.1310
vn -0.1310 0.9827 0.1310
vn 0.1310 0.9827 0.1310
vn 0.6743 0.0639 0.7357
vn -0.5914 0.0323 -0.8058
vn -0.9999 0.0040 -0.0134
vn 0.9997 0.0069 0.0232
vn -0.3051 0.0624 0.9503
vn 0.4025 0.0322 -0.9149
vn -0.9874 -0.0449 -0.1517
vn 0.9443 -0.0934 0.3156
vn -0.1316 -0.1120 -0.9850
vn 0.2033 -0.0921 0.9748
vn 0.4178 0.0273 -0.9081
vn -0.5328 -0.0113 0.8462
vt 0.367095 0.876976
vt 0.367095 0.881423
vt 0.364130 0.881423
vt 0.364130 0.876976
vt 0.361660 0.881423
vt 0.361660 0.876976
vt 0.358696 0.881423
vt 0.358696 0.876976
vt 0.355731 0.881423
vt 0.355731 0.876976
vt 0.352767 0.881423
vt 0.352767 0.876976
vt 0.369071 0.876976
vt 0.369071 0.881423
vt 0.365613 0.884881
vt 0.357213 0.884881
vt 0.362648 0.884881
vt 0.353261 0.884387
vt 0.359684 0.884881
vt 0.369071 0.884881
vt 0.369071 0.872530
vt 0.367095 0.872530
vt 0.355731 0.872530
vt 0.352767 0.872530
vt 0.358696 0.872530
vt 0.361660 0.872530
vt 0.364130 0.872530
vt 0.353261 0.869071
vt 0.365613 0.869071
vt 0.360178 0.869071
vt 0.369071 0.869071
vt 0.357213 0.869071
vt 0.362648 0.869071
vt 0.340909 0.881423
vt 0.342885 0.881423
vt 0.342885 0.883893
vt 0.340909 0.885870
vt 0.340909 0.878458
vt 0.341897 0.878458
vt 0.339921 0.878458
vt 0.338933 0.881423
vt 0.338933 0.883893
vt 0.340909 0.888340
vt 0.341897 0.888340
vt 0.341897 0.889328
vt 0.340909 0.889328
vt 0.339921 0.888340
vt 0.339921 0.889328
vt 0.339921 0.886858
vt 0.340909 0.886858
vt 0.341897 0.886858
vt 0.346838 0.886858
vt 0.346838 0.880435
vt 0.347826 0.880435
vt 0.347826 0.886858
vt 0.347332 0.880435
vt 0.347332 0.886858
vt 0.346344 0.886858
vt 0.346344 0.880435
vt 0.346838 0.887352
vt 0.347826 0.887352
vt 0.346838 0.879941
vt 0.347826 0.879941
vt 0.347332 0.879941
vt 0.346344 0.879941
vt 0.347332 0.887352
vt 0.346344 0.887352
s 0
f 18/1/1 2/2/1 4/3/1 17/4/1
f 17/4/2 4/3/2 6/5/2 16/6/2
f 16/6/3 6/5/3 8/7/3 15/8/3
f 15/8/4 8/7/4 10/9/4 14/10/4
f 14/10/5 10/9/5 12/11/5 19/12/5
f 19/13/6 12/14/6 2/2/6 18/1/6
f 4/3/7 2/2/7 13/15/7
f 10/9/8 8/7/8 13/16/8
f 6/5/9 4/3/9 13/17/9
f 12/11/10 10/9/10 13/18/10
f 8/7/11 6/5/11 13/19/11
f 2/2/12 12/14/12 13/20/12
f 11/21/13 19/13/13 18/1/13 1/22/13
f 9/23/14 14/10/14 19/12/14 11/24/14
f 7/25/15 15/8/15 14/10/15 9/23/15
f 5/26/16 16/6/16 15/8/16 7/25/16
f 3/27/17 17/4/17 16/6/17 5/26/17
f 1/22/18 18/1/18 17/4/18 3/27/18
f 9/23/19 11/24/19 20/28/19
f 1/22/20 3/27/20 20/29/20
f 5/26/21 7/25/21 20/30/21
f 11/21/22 1/22/22 20/31/22
f 7/25/23 9/23/23 20/32/23
f 3/27/24 5/26/24 20/33/24
f 29/34/25 26/35/25 24/36/25 28/37/25
f 27/38/26 22/39/26 26/35/26 29/34/26
f 21/40/27 27/38/27 29/34/27 25/41/27
f 25/41/28 29/34/28 28/37/28 23/42/28
f 38/34/29 35/35/29 33/36/29 37/37/29
f 36/38/30 31/39/30 35/35/30 38/34/30
f 30/40/31 36/38/31 38/34/31 34/41/31
f 34/41/32 38/34/32 37/37/32 32/42/32
f 47/34/33 44/35/33 42/36/33 46/37/33
f 45/38/34 40/39/34 44/35/34 47/34/34
f 39/40/35 45/38/35 47/34/35 43/41/35
f 43/41/36 47/34/36 46/37/36 41/42/36
f 56/34/37 53/35/37 51/36/37 55/37/37
f 54/38/38 49/39/38 53/35/38 56/34/38
f 48/40/39 54/38/39 56/34/39 52/41/39
f 52/41/40 56/34/40 55/37/40 50/42/40
f 65/34/41 62/35/41 60/36/41 64/37/41
f 63/38/42 58/39/42 62/35/42 65/34/42
f 57/40/43 63/38/43 65/34/43 61/41/43
f 61/41/44 65/34/44 64/37/44 59/42/44
f 74/34/45 71/35/45 69/36/45 73/37/45
f 72/38/46 67/39/46 71/35/46 74/34/46
f 66/40/47 72/38/47 74/34/47 70/41/47
f 70/41/48 74/34/48 73/37/48 68/42/48
f 83/34/49 80/35/49 78/36/49 82/37/49
f 81/38/50 76/39/50 80/35/50 83/34/50
f 75/40/51 81/38/51 83/34/51 79/41/51
f 79/41/52 83/34/52 82/37/52 77/42/52
f 92/34/53 89/35/53 87/36/53 91/37/53
f 90/38/54 85/39/54 89/35/54 92/34/54
f 84/40/55 90/38/55 92/34/55 88/41/55
f 88/41/56 92/34/56 91/37/56 86/42/56
f 101/34/57 98/35/57 96/36/57 100/37/57
f 99/38/58 94/39/58 98/35/58 101/34/58
f 93/40/59 99/38/59 101/34/59 97/41/59
f 97/41/60 101/34/60 100/37/60 95/42/60
f 110/34/61 107/35/61 105/36/61 109/37/61
f 108/38/62 103/39/62 107/35/62 110/34/62
f 102/40/63 108/38/63 110/34/63 106/41/63
f 106/41/64 110/34/64 109/37/64 104/42/64
f 119/34/65 116/35/65 114/36/65 118/37/65
f 117/38/66 112/39/66 116/35/66 119/34/66
f 111/40/67 117/38/67 119/34/67 115/41/67
f 115/41/68 119/34/68 118/37/68 113/42/68
f 128/34/69 125/35/69 123/36/69 127/37/69
f 126/38/70 121/39/70 125/35/70 128/34/70
f 120/40/71 126/38/71 128/34/71 124/41/71
f 124/41/72 128/34/72 127/37/72 122/42/72
f 137/34/73 134/35/73 132/36/73 136/37/73
f 135/38/74 130/39/74 134/35/74 137/34/74
f 129/40/75 135/38/75 137/34/75 133/41/75
f 133/41/76 137/34/76 136/37/76 131/42/76
f 146/34/77 143/35/77 141/36/77 145/37/77
f 144/38/78 139/39/78 143/35/78 146/34/78
f 138/40/79 144/38/79 146/34/79 142/41/79
f 142/41/80 146/34/80 145/37/80 140/42/80
f 155/34/81 152/35/81 150/36/81 154/37/81
f 153/38/82 148/39/82 152/35/82 155/34/82
f 147/40/83 153/38/83 155/34/83 151/41/83
f 151/41/84 155/34/84 154/37/84 149/42/84
f 164/34/85 161/35/85 159/36/85 163/37/85
f 162/38/86 157/39/86 161/35/86 164/34/86
f 156/40/87 162/38/87 164/34/87 160/41/87
f 160/41/88 164/34/88 163/37/88 158/42/88
f 173/34/89 170/35/89 168/36/89 172/37/89
f 171/38/90 166/39/90 170/35/90 173/34/90
f 165/40/91 171/38/91 173/34/91 169/41/91
f 169/41/92 173/34/92 172/37/92 167/42/92
f 182/34/93 179/35/93 177/36/93 181/37/93
f 180/38/94 175/39/94 179/35/94 182/34/94
f 174/40/95 180/38/95 182/34/95 178/41/95
f 178/41/96 182/34/96 181/37/96 176/42/96
f 191/34/97 188/35/97 186/36/97 190/37/97
f 189/38/98 184/39/98 188/35/98 191/34/98
f 183/40/99 189/38/99 191/34/99 187/41/99
f 187/41/100 191/34/100 190/37/100 185/42/100
f 200/34/101 197/35/101 195/36/101 199/37/101
f 198/38/102 193/39/102 197/35/102 200/34/102
f 192/40/103 198/38/103 200/34/103 196/41/103
f 196/41/104 200/34/104 199/37/104 194/42/104
f 209/34/105 206/35/105 204/36/105 208/37/105
f 207/38/106 202/39/106 206/35/106 209/34/106
f 201/40/107 207/38/107 209/34/107 205/41/107
f 205/41/108 209/34/108 208/37/108 203/42/108
f 218/34/109 215/35/109 213/36/109 217/37/109
f 216/38/110 211/39/110 215/35/110 218/34/110
f 210/40/111 216/38/111 218/34/111 214/41/111
f 214/41/112 218/34/112 217/37/112 212/42/112
f 227/34/113 224/35/113 222/36/113 226/37/113
f 225/38/114 220/39/114 224/35/114 227/34/114
f 219/40/115 225/38/115 227/34/115 223/41/115
f 223/41/116 227/34/116 226/37/116 221/42/116
f 236/34/117 233/35/117 231/36/117 235/37/117
f 234/38/118 229/39/118 233/35/118 236/34/118
f 228/40/119 234/38/119 236/34/119 232/41/119
f 232/41/120 236/34/120 235/37/120 230/42/120
f 245/43/121 243/44/121 240/45/121 244/46/121
f 241/47/122 245/43/122 244/46/122 239/48/122
f 237/49/123 242/50/123 245/43/123 241/47/123
f 242/50/124 238/51/124 243/44/124 245/43/124
f 263/1/125 247/2/125 249/3/125 262/4/125
f 262/4/126 249/3/126 251/5/126 261/6/126
f 261/6/127 251/5/127 253/7/127 260/8/127
f 260/8/128 253/7/128 255/9/128 259/10/128
f 259/10/129 255/9/129 257/11/129 264/12/129
f 264/13/130 257/14/130 247/2/130 263/1/130
f 249/3/131 247/2/131 258/15/131
f 255/9/132 253/7/132 258/16/132
f 251/5/133 249/3/133 258/17/133
f 257/11/134 255/9/134 258/18/134
f 253/7/135 251/5/135 258/19/135
f 247/2/136 257/14/136 258/20/136
f 256/21/137 264/13/137 263/1/137 246/22/137
f 254/23/138 259/10/138 264/12/138 256/24/138
f 252/25/139 260/8/139 259/10/139 254/23/139
f 250/26/140 261/6/140 260/8/140 252/25/140
f 248/27/141 262/4/141 261/6/141 250/26/141
f 246/22/142 263/1/142 262/4/142 248/27/142
f 254/23/143 256/24/143 265/28/143
f 246/22/144 248/27/144 265/29/144
f 250/26/145 252/25/145 265/30/145
f 256/21/146 246/22/146 265/31/146
f 252/25/147 254/23/147 265/32/147
f 248/27/148 250/26/148 265/33/148
f 274/34/149 271/35/149 269/36/149 273/37/149
f 272/38/150 267/39/150 271/35/150 274/34/150
f 266/40/151 272/38/151 274/34/151 270/41/151
f 270/41/152 274/34/152 273/37/152 268/42/152
f 283/34/153 280/35/153 278/36/153 282/37/153
f 281/38/154 276/39/154 280/35/154 283/34/154
f 275/40/155 281/38/155 283/34/155 279/41/155
f 279/41/156 283/34/156 282/37/156 277/42/156
f 292/34/157 289/35/157 287/36/157 291/37/157
f 290/38/158 285/39/158 289/35/158 292/34/158
f 284/40/159 290/38/159 292/34/159 288/41/159
f 288/41/160 292/34/160 291/37/160 286/42/160
f 301/34/161 298/35/161 296/36/161 300/37/161
f 299/38/162 294/39/162 298/35/162 301/34/162
f 293/40/163 299/38/163 301/34/163 297/41/163
f 297/41/164 301/34/164 300/37/164 295/42/164
f 310/34/165 307/35/165 305/36/165 309/37/165
f 308/38/166 303/39/166 307/35/166 310/34/166
f 302/40/167 308/38/167 310/34/167 306/41/167
f 306/41/168 310/34/168 309/37/168 304/42/168
f 319/34/169 316/35/169 314/36/169 318/37/169
f 317/38/170 312/39/170 316/35/170 319/34/170
f 311/40/171 317/38/171 319/34/171 315/41/171
f 315/41/172 319/34/172 318/37/172 313/42/172
f 328/34/173 325/35/173 323/36/173 327/37/173
f 326/38/174 321/39/174 325/35/174 328/34/174
f 320/40/175 326/38/175 328/34/175 324/41/175
f 324/41/176 328/34/176 327/37/176 322/42/176
f 337/34/177 334/35/177 332/36/177 336/37/177
f 335/38/178 330/39/178 334/35/178 337/34/178
f 329/40/179 335/38/179 337/34/179 333/41/179
f 333/41/180 337/34/180 336/37/180 331/42/180
f 346/34/181 343/35/181 341/36/181 345/37/181
f 344/38/182 339/39/182 343/35/182 346/34/182
f 338/40/183 344/38/183 346/34/183 342/41/183
f 342/41/184 346/34/184 345/37/184 340/42/184
f 355/34/185 352/35/185 350/36/185 354/37/185
f 353/38/186 348/39/186 352/35/186 355/34/186
f 347/40/187 353/38/187 355/34/187 351/41/187
f 351/41/188 355/34/188 354/37/188 349/42/188
f 364/34/189 361/35/189 359/36/189 363/37/189
f 362/38/190 357/39/190 361/35/190 364/34/190
f 356/40/191 362/38/191 364/34/191 360/41/191
f 360/41/192 364/34/192 363/37/192 358/42/192
f 373/34/193 370/35/193 368/36/193 372/37/193
f 371/38/194 366/39/194 370/35/194 373/34/194
f 365/40/195 371/38/195 373/34/195 369/41/195
f 369/41/196 373/34/196 372/37/196 367/42/196
f 382/34/197 379/35/197 377/36/197 381/37/197
f 380/38/198 375/39/198 379/35/198 382/34/198
f 374/40/199 380/38/199 382/34/199 378/41/199
f 378/41/200 382/34/200 381/37/200 376/42/200
f 391/34/201 388/35/201 386/36/201 390/37/201
f 389/38/202 384/39/202 388/35/202 391/34/202
f 383/40/203 389/38/203 391/34/203 387/41/203
f 387/41/204 391/34/204 390/37/204 385/42/204
f 400/34/205 397/35/205 395/36/205 399/37/205
f 398/38/206 393/39/206 397/35/206 400/34/206
f 392/40/207 398/38/207 400/34/207 396/41/207
f 396/41/208 400/34/208 399/37/208 394/42/208
f 409/34/209 406/35/209 404/36/209 408/37/209
f 407/38/210 402/39/210 406/35/210 409/34/210
f 401/40/211 407/38/211 409/34/211 405/41/211
f 405/41/212 409/34/212 408/37/212 403/42/212
f 418/34/213 415/35/213 413/36/213 417/37/213
f 416/38/214 411/39/214 415/35/214 418/34/214
f 410/40/215 416/38/215 418/34/215 414/41/215
f 414/41/216 418/34/216 417/37/216 412/42/216
f 427/34/217 424/35/217 422/36/217 426/37/217
f 425/38/218 420/39/218 424/35/218 427/34/218
f 419/40/219 425/38/219 427/34/219 423/41/219
f 423/41/220 427/34/220 426/37/220 421/42/220
f 436/34/221 433/35/221 431/36/221 435/37/221
f 434/38/222 429/39/222 433/35/222 436/34/222
f 428/40/223 434/38/223 436/34/223 432/41/223
f 432/41/224 436/34/224 435/37/224 430/42/224
f 445/34/225 442/35/225 440/36/225 444/37/225
f 443/38/226 438/39/226 442/35/226 445/34/226
f 437/40/227 443/38/227 445/34/227 441/41/227
f 441/41/228 445/34/228 444/37/228 439/42/228
f 454/34/229 451/35/229 449/36/229 453/37/229
f 452/38/230 447/39/230 451/35/230 454/34/230
f 446/40/231 452/38/231 454/34/231 450/41/231
f 450/41/232 454/34/232 453/37/232 448/42/232
f 463/34/233 460/35/233 458/36/233 462/37/233
f 461/38/234 456/39/234 460/35/234 463/34/234
f 455/40/235 461/38/235 463/34/235 459/41/235
f 459/41/236 463/34/236 462/37/236 457/42/236
f 472/34/237 469/35/237 467/36/237 471/37/237
f 470/38/238 465/39/238 469/35/238 472/34/238
f 464/40/239 470/38/239 472/34/239 468/41/239
f 468/41/240 472/34/240 471/37/240 466/42/240
f 481/34/241 478/35/241 476/36/241 480/37/241
f 479/38/242 474/39/242 478/35/242 481/34/242
f 473/40/243 479/38/243 481/34/243 477/41/243
f 477/41/244 481/34/244 480/37/244 475/42/244
f 490/43/245 488/44/245 485/45/245 489/46/245
f 486/47/246 490/43/246 489/46/246 484/48/246
f 482/49/247 487/50/247 490/43/247 486/47/247
f 487/50/248 483/51/248 488/44/248 490/43/248
f 249/52/249 262/53/249 492/54/249 491/55/249
f 248/56/250 262/57/250 494/58/250 493/59/250
f 263/56/251 247/57/251 495/58/251 496/59/251
f 263/60/252 246/53/252 497/54/252 498/61/252
f 251/52/253 261/53/253 500/54/253 499/55/253
f 250/56/254 261/57/254 502/58/254 501/59/254
f 253/52/255 260/62/255 504/63/255 503/55/255
f 252/64/256 260/57/256 506/58/256 505/65/256
f 255/52/257 259/53/257 508/54/257 507/55/257
f 254/56/258 259/57/258 510/58/258 509/59/258
f 257/60/259 264/53/259 512/54/259 511/61/259
f 256/56/260 264/66/260 514/67/260 513/59/260
